<?xml version="1.0" encoding="utf-8"?>
<!-- Generator: Adobe Illustrator 14.0.0, SVG Export Plug-In . SVG Version: 6.00 Build 43363)  -->
<!DOCTYPE svg PUBLIC "-//W3C//DTD SVG 1.1//EN" "http://www.w3.org/Graphics/SVG/1.1/DTD/svg11.dtd">
<svg version="1.1" id="Capa_1" xmlns="http://www.w3.org/2000/svg" xmlns:xlink="http://www.w3.org/1999/xlink" x="0px" y="0px"
	 width="64px" height="64px" viewBox="0 0 64 64" enable-background="new 0 0 64 64" xml:space="preserve">
<path id="aeval" d="M0.49,30.239c-0.985,10.75-0.179,14.6-0.179,14.6s1.97,5.196,2.597,5.196c1.434,3.135,20.782,8.24,24.634,8.42
	c4.479,0.448,6.896-1.434,7.345-2.149c0.448-0.717,1.165-0.896,1.165-0.896v6.001h10.211V49.229c0,0,4.388,2.956,8.51,3.315
	c0.896,0,9.047,0.089,9.047,0.089v-8.689h-6.181c0,0-9.763-2.419-10.839-7.257C46.441,34.089,47.069,34,47.069,34h16.75l0.091-8.868
	c0,0-18.813-0.18-19.349,0.089c-0.181-0.537,0-2.507,0-2.507s2.867-7.973,9.854-10.033C61.4,10.621,64,11.428,64,11.428V2.648
	c0,0-23.111-2.06-28.396,18.005c-0.627,2.06-0.806,3.224-0.806,3.224s-5.375-1.881-13.616-1.791
	c-8.241,0.089-6.808,0.178-6.808,0.178S2.102,23.878,0.49,30.239z M19.928,31.045c0,0,5.553-0.18,7.524,0.089
	c2.059-0.447,7.972,2.508,7.972,2.508v9.138c0,0-0.626,3.135-1.164,3.762c-0.537,0.627-1.792,4.121-14.422,1.254
	c-5.554-1.792-7.794-4.479-7.794-5.554s0-6.809,0-6.809s2.33-3.046,4.839-3.761C19.39,30.956,19.928,31.045,19.928,31.045z"/>
</svg>
