<?xml version="1.0" encoding="utf-8"?>
<!-- Generator: Adobe Illustrator 14.0.0, SVG Export Plug-In . SVG Version: 6.00 Build 43363)  -->
<!DOCTYPE svg PUBLIC "-//W3C//DTD SVG 1.1//EN" "http://www.w3.org/Graphics/SVG/1.1/DTD/svg11.dtd">
<svg version="1.1" id="Capa_1" xmlns="http://www.w3.org/2000/svg" xmlns:xlink="http://www.w3.org/1999/xlink" x="0px" y="0px"
	 width="64px" height="64px" viewBox="0 0 64 64" enable-background="new 0 0 64 64" xml:space="preserve">
<g id="logos">
	<path id="acceda2" display="none" d="M93.654,30.924c-0.771,0-1.453-0.379-1.869-0.957l-0.014-0.02
		c-0.031-0.049-0.064-0.102-0.096-0.151c-0.805-1.19-2.182-1.875-3.748-1.875c-2.479,0-4.486,1.986-4.486,4.438
		c0,0.08,0.002,0.158,0.004,0.24c0.018,0.169,0.043,0.367,0.066,0.553c0.059,0.315,0.15,0.621,0.271,0.908
		c0.131,0.287,0.33,0.659,0.598,1.015c0.176,0.226,0.373,0.431,0.59,0.617c0.164,0.131,0.357,0.258,0.525,0.356
		c0.211,0.09,0.402,0.206,0.576,0.348c0.564,0.255,1.193,0.399,1.855,0.399c1.512,0,2.846-0.628,3.66-1.741
		c0.367-0.764,1.156-1.289,2.068-1.289c0.807,0,1.516,0.412,1.922,1.034c0.033,0.044,0.061,0.092,0.084,0.139
		c0.143,0.253,0.236,0.535,0.271,0.838c0.057,0.469-0.031,0.952-0.289,1.371c-0.043,0.08-0.094,0.156-0.148,0.229
		c-1.633,2.383-4.396,3.947-7.525,3.947c-1.637,0-3.168-0.426-4.496-1.173c-0.002-0.002-0.004-0.002-0.008-0.005
		c-0.004-0.002-0.051-0.022-0.057-0.022c-0.121-0.055-1.299-0.811-1.674-1.228c-0.084-0.094-0.598-0.592-0.598-0.592
		c-1.666,1.852-4.094,3.02-6.799,3.02c-5.021,0-9.09-4.024-9.09-8.983c0-4.964,4.068-8.986,9.09-8.986
		c2.713,0,5.148,1.175,6.814,3.04c1.664-1.865,4.102-3.04,6.814-3.04c3.219,0,6.047,1.654,7.662,4.151
		c0.029,0.05,0.059,0.102,0.082,0.159c0.148,0.3,0.232,0.64,0.232,0.994C95.945,29.91,94.918,30.924,93.654,30.924z M74.301,27.921
		c-2.48,0-4.491,1.986-4.491,4.438c0,2.45,2.011,4.437,4.491,4.437c2.479,0,4.488-1.986,4.488-4.437
		C78.789,29.907,76.78,27.921,74.301,27.921z"/>
	<path id="acceda" display="none" d="M86.094,42.194c-2.031,0-3.928-0.615-5.495-1.672c-1.567,1.057-3.462,1.672-5.492,1.672
		c-5.44,0-9.856-4.414-9.856-9.854c0-5.443,4.416-9.857,9.856-9.857c2.03,0,3.928,0.62,5.492,1.671
		c1.567-1.051,3.464-1.671,5.495-1.671c5.439,0,9.854,4.414,9.854,9.857C95.947,37.78,91.533,42.194,86.094,42.194z M92.111,28.382
		c-1.297-2.031-3.574-3.38-6.162-3.38c-2.18,0-4.143,0.959-5.477,2.472c-1.342-1.513-3.299-2.472-5.48-2.472
		c-4.039,0-7.313,3.273-7.313,7.31c0,4.034,3.273,7.305,7.313,7.305c2.175,0,4.123-0.947,5.465-2.452c0,0,0.412,0.404,0.479,0.479
		c0.301,0.343,1.252,0.955,1.35,0.997c0,0.005,0.037,0.022,0.045,0.022c0,0,0,0,0.01,0c1.063,0.607,2.293,0.954,3.609,0.954
		c2.52,0,4.74-1.27,6.049-3.206c0.045-0.06,0.092-0.124,0.129-0.188c0.201-0.34,0.275-0.733,0.223-1.113
		c-0.021-0.245-0.096-0.479-0.215-0.684c-0.016-0.038-0.037-0.075-0.068-0.112c-0.324-0.506-0.893-0.843-1.545-0.843
		c-0.732,0-1.363,0.429-1.662,1.049c-0.652,0.907-1.732,1.416-2.939,1.416c-0.531,0-1.041-0.117-1.498-0.322
		c-0.137-0.117-0.293-0.211-0.459-0.285c-0.141-0.08-0.289-0.182-0.426-0.288c-0.172-0.151-0.33-0.32-0.471-0.503
		c-0.219-0.288-0.375-0.591-0.48-0.824c-0.098-0.234-0.172-0.482-0.217-0.738c-0.021-0.154-0.039-0.314-0.053-0.454
		c-0.01-0.062-0.01-0.126-0.01-0.193c0-1.994,1.613-3.608,3.613-3.608c1.252,0,2.361,0.553,3.006,1.525
		c0.029,0.04,0.059,0.082,0.084,0.124l0.008,0.015c0.336,0.471,0.883,0.779,1.504,0.779c1.02,0,1.846-0.826,1.846-1.845
		c0-0.29-0.07-0.565-0.188-0.808C92.156,28.464,92.135,28.419,92.111,28.382z M74.955,35.936c-1.994,0-3.605-1.615-3.605-3.608
		c0-1.994,1.611-3.608,3.605-3.608s3.613,1.614,3.613,3.608C78.568,34.32,76.949,35.936,74.955,35.936z"/>
	<path id="aeval" display="none" d="M65.485,31.494c-0.472,5.155-0.087,7.003-0.087,7.003s0.947,2.491,1.247,2.491
		c0.687,1.503,9.968,3.953,11.815,4.037c2.148,0.216,3.309-0.687,3.523-1.028c0.213-0.345,0.559-0.432,0.559-0.432v2.879h4.896
		v-5.843c0,0,2.105,1.419,4.082,1.59c0.432,0,4.34,0.042,4.34,0.042v-4.166h-2.963c0,0-4.686-1.16-5.201-3.481
		c-0.17-1.244,0.129-1.289,0.129-1.289h8.035l0.045-4.252c0,0-9.023-0.084-9.281,0.042c-0.088-0.258,0-1.203,0-1.203
		S88,24.06,91.352,23.073c3.35-0.989,4.596-0.603,4.596-0.603v-4.21c0,0-11.084-0.987-13.621,8.637
		c-0.299,0.989-0.383,1.547-0.383,1.547s-2.58-0.903-6.532-0.861c-3.952,0.042-3.266,0.087-3.266,0.087S66.259,28.444,65.485,31.494
		z M74.809,31.881c0,0,2.664-0.087,3.607,0.042c0.99-0.216,3.826,1.203,3.826,1.203v4.381c0,0-0.299,1.506-0.56,1.806
		c-0.256,0.3-0.858,1.977-6.916,0.6c-2.663-0.857-3.739-2.146-3.739-2.663c0-0.516,0-3.263,0-3.263s1.118-1.463,2.32-1.805
		C74.551,31.839,74.809,31.881,74.809,31.881z"/>
	<path id="administracion_electronica" display="none" d="M86.492,47.687h-8.725c5.27-2.763,8.346-8.563,8.346-15.268
		c0-6.841-3.223-12.733-8.661-15.428h8.89c3.754,3.91,6.086,9.375,6.086,15.428C92.428,38.388,90.158,43.788,86.492,47.687z
		 M72.094,41.199h-0.791c-1.398,0-2.531-1.133-2.531-2.531v-0.791c0-1.398,1.133-2.532,2.531-2.532h0.791
		c1.4,0,2.531,1.134,2.531,2.532v0.791C74.625,40.066,73.494,41.199,72.094,41.199z M72.094,29.967h-0.791
		c-1.398,0-2.531-1.133-2.531-2.532v-0.793c0-1.396,1.133-2.529,2.531-2.529h0.791c1.4,0,2.531,1.133,2.531,2.529v0.793
		C74.625,28.831,73.494,29.967,72.094,29.967z"/>
	<path id="spain_shield" display="none" d="M80.271,17.38h-0.063l-0.059-0.06h-0.09l-0.148,0.149v0.389
		c0.258,0.04,0.389,0.089,0.389,0.149v0.179c-0.319,0.26-0.479,0.488-0.479,0.689v0.238l0.148,0.359
		c-0.099,0-0.148,0.04-0.148,0.119c-0.099-0.198-0.23-0.3-0.389-0.3l-0.182,0.181v0.238h-0.148v-0.03l0.092-0.149v-0.151
		l-0.182-0.178h-0.089l-0.21,0.148l-0.18-0.148h-0.178c-0.08,0-0.129,0.079-0.148,0.238l-0.211-0.149h-0.03
		c-0.198,0-0.3,0.1-0.3,0.3l-0.176-0.151c-0.221,0-0.33,0.112-0.33,0.33h-0.06l-0.062-0.06h-0.18c-0.099,0-0.148,0.119-0.148,0.359
		l-0.029-0.062c-0.119,0-0.25,0.062-0.39,0.181c0-0.08-0.069-0.142-0.21-0.181l-0.269,0.151l-0.21-0.151h-0.117
		c-0.082,0-0.131,0.062-0.151,0.181h-0.092c0-0.08-0.067-0.142-0.206-0.181c-0.102,0-0.19,0.102-0.27,0.3l-0.209-0.151H74.38
		c-0.099,0-0.149,0.092-0.149,0.27l-0.24-0.119c-0.158,0-0.238,0.119-0.238,0.359h-0.059l-0.119-0.092h-0.092
		c-0.119,0-0.188,0.112-0.209,0.33h-0.238l-0.18,0.208v0.151l0.029,0.03c-0.238,0-0.357,0.069-0.357,0.208v0.122l0.09,0.149
		c-0.221,0-0.33,0.049-0.33,0.149v0.181l0.121,0.208c-0.141,0-0.23,0.06-0.27,0.179c0,0.201,0.059,0.3,0.178,0.3v0.089
		c-0.099,0-0.148,0.03-0.148,0.089v0.21c0.079,0.119,0.158,0.179,0.238,0.179l-0.09,0.149v0.181c0,0.1,0.08,0.149,0.238,0.149
		l-0.029,0.181c0,0.159,0.092,0.238,0.27,0.238l-0.029,0.238v0.119c0.396,0.042,0.646,0.131,0.746,0.27
		c0.119,0.479,0.308,0.719,0.568,0.719c0.419,0.456,0.756,0.697,1.016,0.717c0,0.277,0.14,0.417,0.42,0.417
		c-0.022,0.161-0.072,0.24-0.148,0.24c0,0.08,0.126,0.159,0.387,0.238v0.151l-0.148,0.238c0,0.3,0.387,0.489,1.164,0.568v0.06
		h-3.826l-0.088,0.089v5.321c-0.879-0.198-1.565-0.298-2.064-0.298h-0.627c-2.191,0.199-3.498,0.707-3.915,1.522
		c0.278,0.836,0.458,1.255,0.538,1.255l0.268-0.327c1.037-0.677,2.182-1.017,3.438-1.017c1.574,0.158,2.363,0.319,2.363,0.479v7.471
		c0,1.674,0.835,2.932,2.509,3.767c1.877,0.794,3.511,1.193,4.907,1.193h0.746c1.754,0,3.639-0.528,5.648-1.585
		c1.137-0.957,1.703-1.961,1.703-3.018V41.8l0.061-0.241l-0.061-0.029l0.061-0.211v-0.029l-0.061-0.06v-0.06l0.061-0.03
		l-0.061-0.148l0.061-0.24v-0.06l-0.061-0.03l0.061-0.06v-0.329l-0.061-4.96c0.221-0.221,1.018-0.379,2.395-0.479
		c1.174,0.119,1.891,0.261,2.148,0.419c0.998,0.34,1.496,0.657,1.496,0.955c0.1,0,0.277-0.406,0.537-1.225
		c0-0.14-0.078-0.288-0.236-0.446c-1.1-0.76-2.391-1.139-3.889-1.139l-0.057,0.032l-0.182-0.032
		c-1.076,0.063-1.793,0.151-2.152,0.271v-0.03l-0.061-0.059v-5.2c0-0.062-0.189-0.112-0.566-0.151l-0.031,0.06l-0.148-0.06h-0.061
		l-0.031,0.06l-0.297-0.06h-2.152l-0.717,0.06v-0.06c0.797-0.139,1.195-0.33,1.195-0.568l-0.148-0.241v-0.089
		c0-0.079,0.119-0.148,0.357-0.208v-0.149l-0.15-0.122l0.15-0.148c0.217,0,0.33-0.109,0.33-0.33
		c0.297-0.079,0.596-0.307,0.895-0.687c0.32-0.119,0.479-0.208,0.479-0.271c0.178-0.476,0.34-0.717,0.479-0.717
		c0.32,0,0.479-0.03,0.479-0.089v-0.06l-0.061-0.238l0.209-0.151v-0.268c0.102,0,0.182-0.069,0.24-0.211v-0.148l-0.092-0.119
		l0.271-0.211c0-0.218-0.08-0.327-0.238-0.327v-0.06c0.158,0,0.238-0.092,0.238-0.271c-0.061-0.139-0.139-0.21-0.238-0.21v-0.03
		l0.148-0.238c-0.039-0.159-0.168-0.24-0.389-0.24l0.092-0.295c0-0.119-0.123-0.178-0.359-0.178v-0.06l0.029-0.03v-0.122
		c0-0.119-0.139-0.179-0.42-0.179l0.061-0.06c0-0.178-0.117-0.27-0.357-0.27l-0.121,0.092h-0.059c0-0.26-0.078-0.389-0.24-0.389
		l-0.238,0.148c0-0.218-0.08-0.33-0.24-0.33l-0.299,0.181c0-0.181-0.107-0.268-0.328-0.268l-0.178,0.119l-0.301-0.181
		c-0.119,0-0.178,0.062-0.178,0.181h-0.061l-0.178-0.119h-0.152l-0.178,0.119c-0.1-0.08-0.221-0.119-0.359-0.119
		c-0.08-0.241-0.158-0.359-0.238-0.359h-0.029l-0.24,0.06c0-0.218-0.08-0.33-0.238-0.33l-0.242,0.149
		c0-0.139-0.068-0.238-0.207-0.298h-0.119l-0.209,0.149c0-0.099-0.061-0.178-0.18-0.238h-0.15l-0.178,0.148l-0.211-0.148h-0.09
		c-0.119,0.04-0.178,0.129-0.178,0.268l-0.24-0.179c-0.238,0-0.359,0.1-0.359,0.298l-0.18-0.119c0.119-0.198,0.18-0.357,0.18-0.479
		c0-0.317-0.159-0.558-0.479-0.717v-0.357h0.24l0.119-0.122v-0.327l-0.119-0.089h-0.238v-0.3l-0.09-0.089h-0.389
		C80.331,16.991,80.291,17.12,80.271,17.38L80.271,17.38z M80.69,17.199v0.33h0.238l0.089,0.089v0.089h-0.238l-0.089,0.089v1.076
		l0.089,0.092h0.328v0.179h-1.074v-0.181h0.357l0.121-0.089v-1.076l-0.121-0.089H80.12v-0.148c0.261-0.02,0.392-0.06,0.392-0.119
		v-0.241H80.69z M80.301,18.486v0.268h-0.27C80.15,18.575,80.239,18.486,80.301,18.486L80.301,18.486z M80.929,18.516l0.179,0.238
		h-0.238l-0.029-0.238H80.929z M80.988,19.351v0.089l-0.359,0.149L80.15,19.44v-0.089H80.988z M78.535,19.381v0.089h-0.148v-0.089
		H78.535z M79.014,19.381v0.151h-0.089v-0.151H79.014z M82.186,19.381h0.027v0.151h-0.09l-0.059-0.062L82.186,19.381z
		 M82.752,19.381v0.089l-0.061,0.062l-0.09-0.092v-0.06H82.752z M77.968,19.47l0.03,0.062v0.057l-0.03,0.032l-0.089-0.089V19.47
		H77.968z M79.553,19.47l0.029,0.062l-0.09,0.089h-0.059V19.47H79.553z M81.705,19.47v0.151h-0.119V19.47H81.705z M83.23,19.47
		h0.029v0.151h-0.09l-0.029-0.032L83.23,19.47z M81.945,19.532l0.09,0.176h-0.15v-0.176H81.945z M78.298,19.681h-0.149v-0.06
		l0.061-0.032L78.298,19.681z M78.776,19.589v0.092h-0.151v-0.092H78.776z M82.424,19.589l0.09,0.092h-0.148v-0.092H82.424z
		 M82.988,19.681v0.03l-0.148-0.03v-0.06l0.063-0.032L82.988,19.681z M77.432,19.622h0.061v0.149H77.4l-0.061-0.06L77.432,19.622z
		 M77.76,19.771v0.059h-0.092v-0.148L77.76,19.771z M80.061,19.681v0.089h-0.148v-0.089H80.061z M81.229,19.681v0.089l-0.063,0.059
		l-0.089-0.119v-0.03H81.229z M83.797,19.681l-0.088,0.089h-0.061v-0.089H83.797z M79.672,19.708h0.062v0.151h-0.092l-0.06-0.03
		L79.672,19.708z M80.031,20.906c0-0.796,0.171-1.197,0.508-1.197h0.06c0.161,0,0.3,0.102,0.419,0.3
		c0.06,1.136,0.139,1.915,0.24,2.331l-0.329,0.359h-0.06c0.1-0.198,0.198-0.297,0.297-0.297l-0.148-1.376
		c0-0.796-0.139-1.195-0.419-1.195h-0.06c-0.1,0-0.208,0.04-0.33,0.119c-0.078,1.237-0.178,2.004-0.297,2.301l0.359,0.449v0.03
		l-0.389-0.327C79.981,21.863,80.031,21.365,80.031,20.906L80.031,20.906z M81.557,19.771v0.089h-0.211l0.062-0.151L81.557,19.771z
		 M78.627,19.83c0.836,0.119,1.256,0.238,1.256,0.36v0.06c-0.439-0.221-0.858-0.33-1.256-0.33c-1.078,0-1.725,0.459-1.943,1.374
		v0.24c0,0.34,0.168,0.657,0.508,0.955c0,0.122-0.079,0.25-0.238,0.39l0.09-0.328c-0.32-0.359-0.479-0.727-0.479-1.108
		C76.564,20.527,77.252,19.989,78.627,19.83L78.627,19.83z M77.34,20.008h-0.059l-0.09-0.089v-0.06L77.34,20.008z M82.424,19.859
		h0.238c1.273,0.159,1.912,0.709,1.912,1.644c0,0.34-0.16,0.687-0.477,1.046l0.09,0.268v0.06h-0.09l-0.15-0.298v-0.03
		c0.338-0.359,0.508-0.697,0.508-1.017v-0.33c-0.299-0.836-0.896-1.255-1.793-1.255h-0.357c-0.359,0-0.709,0.099-1.047,0.3h-0.029
		C81.288,20.048,81.688,19.919,82.424,19.859L82.424,19.859z M77.041,19.919v0.089h-0.119v-0.089H77.041z M84.188,19.919h0.029
		v0.151h-0.09l-0.029-0.062L84.188,19.919z M76.861,21.144c0.32-0.697,0.898-1.046,1.734-1.046c0.48,0,0.907,0.131,1.287,0.389
		l-0.061,0.33v0.568c-0.379,0-0.758,0.069-1.135,0.208l-1.646,0.479c-0.119-0.198-0.18-0.379-0.18-0.538V21.144L76.861,21.144z
		 M82.186,20.157h0.506c0.857,0,1.387,0.399,1.584,1.198c-0.02,0.498-0.119,0.746-0.297,0.746c-1.297-0.479-2.182-0.716-2.66-0.716
		v-0.419l-0.061-0.479C81.576,20.289,81.885,20.18,82.186,20.157L82.186,20.157z M75.607,20.189v0.119l-0.029,0.03l-0.09-0.089
		v-0.06H75.607z M75.1,20.249v0.089H74.95v-0.089H75.1z M76.146,20.249v0.089h-0.151v-0.089H76.146z M76.684,20.249v0.089h-0.148
		v-0.089H76.684z M84.605,20.249v0.089l-0.029,0.059l-0.121-0.089v-0.06H84.605z M85.145,20.249v0.089l-0.063,0.059l-0.09-0.089
		v-0.06H85.145z M85.652,20.249v0.089h-0.121v-0.089H85.652z M86.129,20.249l0.059,0.06L86.1,20.397h-0.061v-0.148H86.129z
		 M74.531,20.338l0.029,0.059v0.03l-0.029,0.06l-0.119-0.089v-0.059H74.531z M74.801,20.338l0.061,0.148l-0.152,0.089l0.063-0.238
		H74.801z M75.34,20.338l0.029,0.148h-0.121v-0.06L75.34,20.338z M86.727,20.427v0.06h-0.148v-0.089l0.029-0.059L86.727,20.427z
		 M75.815,20.397h0.03v0.089h-0.119L75.815,20.397z M76.383,20.487h-0.148v-0.06l0.06-0.03L76.383,20.487z M80.51,20.427
		l-0.148,0.149h-0.061v-0.179L80.51,20.427z M80.779,20.397v0.179l-0.15-0.149L80.779,20.397z M85.891,20.487v0.06h-0.119v-0.119
		l0.029-0.03L85.891,20.487z M86.367,20.397l0.061,0.149v0.03h-0.18l0.088-0.179H86.367z M87.205,20.546l0.029,0.03l-0.09,0.092
		h-0.059v-0.092l0.059-0.03H87.205z M74.293,20.576l0.09,0.092l-0.149,0.06v-0.151H74.293z M86.846,20.576h0.061v0.151h-0.15v-0.062
		L86.846,20.576z M73.098,21.982c0.396-0.877,1.225-1.316,2.48-1.316h0.479v0.122h-0.063l-0.387-0.06l-0.508,0.06
		c-1.314,0.28-1.975,0.766-1.975,1.463v0.3c0,0.3,0.131,0.568,0.389,0.809c-0.118,0.278-0.228,0.456-0.326,0.538h-0.063l0.24-0.538
		c-0.221-0.26-0.327-0.558-0.327-0.897v-0.06L73.098,21.982z M76.324,20.666h0.059v0.151h-0.089l-0.06-0.03L76.324,20.666z
		 M80.629,20.666v0.122H80.51v-0.122H80.629z M85.412,20.666l0.688,0.062c1.334,0.297,2.002,0.826,2.002,1.582v0.181
		c0,0.339-0.109,0.647-0.33,0.925v0.092l0.18,0.327v0.092c-0.057,0-0.168-0.171-0.328-0.508c0.258-0.28,0.391-0.558,0.391-0.838
		v-0.119c0-1.116-0.988-1.674-2.959-1.674v-0.06L85.412,20.666z M73.904,20.817l-0.09,0.089h-0.06v-0.178L73.904,20.817z
		 M73.574,20.787l0.029,0.03l-0.09,0.089h-0.029v-0.119H73.574z M87.385,20.787v0.119h-0.15v-0.089L87.385,20.787z M87.684,20.817
		v0.148h-0.119v-0.148H87.684z M80.45,21.025l-0.149,0.03v-0.178L80.45,21.025z M80.84,20.876v0.178l-0.149-0.03L80.84,20.876z
		 M75.607,20.906l0.598,0.06v0.06c-0.1,0-0.179,0.06-0.238,0.179v0.151l0.119,0.148l-0.119,0.179v0.181
		c0,0.099,0.06,0.148,0.179,0.148v0.06l-0.089,0.089h-0.631c-0.377,0-1.063,0.241-2.061,0.719l-0.029-0.33v-0.238
		C73.336,21.533,74.092,21.065,75.607,20.906L75.607,20.906z M85.322,20.965h0.09c0.418,0,0.707,0.03,0.865,0.089
		c1.016,0.26,1.527,0.68,1.527,1.257v0.268c0,0.241-0.043,0.37-0.119,0.39c-0.838-0.538-1.676-0.809-2.512-0.809h-0.182v-0.06
		l0.182-0.238v-0.122l-0.119-0.208l0.119-0.238l-0.182-0.271L85.322,20.965z M73.188,21.114v0.089l-0.063,0.062l-0.087-0.122v-0.03
		H73.188z M80.539,21.144h0.06l0.092,0.122v0.119h-0.24v-0.119L80.539,21.144z M88.102,21.144v0.122l-0.059,0.03l-0.092-0.092v-0.06
		H88.102z M76.234,21.204h0.06v0.092l-0.06,0.06h-0.029l-0.06-0.06L76.234,21.204z M84.992,21.295v0.06h-0.148v-0.089l0.061-0.062
		L84.992,21.295z M72.798,21.503h0.06v0.089l-0.06,0.03h-0.03l-0.059-0.03L72.798,21.503z M80.361,21.503v0.03l-0.09,0.089v-0.119
		H80.361z M88.43,21.533v0.089l-0.061,0.06l-0.088-0.089v-0.06H88.43z M77.252,22.22c1.273-0.419,2.122-0.627,2.541-0.627
		l0.029,0.03l-0.178,0.779l0.387,0.387h-0.148l0.178,0.719l-0.627-0.149h-0.029l-0.061,0.06l0.061,0.178l-0.539,0.39v0.03
		c0.06,0.119,0.238,0.238,0.539,0.357l-0.061,0.181v0.06l0.061,0.03c0.319-0.02,0.617-0.109,0.896-0.271h0.061
		c-0.043,0.538-0.251,0.809-0.628,0.809c-0.3,0-0.511-0.129-0.63-0.39l0.06-0.297c0-0.122-0.079-0.23-0.238-0.33h-0.151
		c-0.059,0-0.119,0.1-0.178,0.3l0.119,0.387c0,0.221-0.191,0.379-0.568,0.479c-0.479-0.079-0.717-0.288-0.717-0.627v-0.059
		l0.776,0.089h0.03l0.059-0.03l-0.089-0.238c0.079,0,0.218-0.131,0.419-0.389c-0.102-0.161-0.26-0.241-0.479-0.241l-0.09-0.297
		l-0.537,0.24h-0.027l0.089-0.508l-0.06-0.151l-0.27,0.089l-0.09-0.178l0.27-0.538c-0.062-0.119-0.141-0.179-0.24-0.179V22.22
		H77.252L77.252,22.22z M81.975,21.682l1.973,0.568l-0.238,0.241v0.059l0.268,0.508l-0.029,0.149l-0.238-0.03h-0.061l-0.029,0.03
		l0.029,0.479v0.089l-0.418-0.179c-0.1,0-0.15,0.06-0.15,0.179c-0.359,0.139-0.539,0.241-0.539,0.3v0.059
		c0.121,0.159,0.25,0.271,0.391,0.33l-0.029,0.179l0.086,0.089h0.182c0.238,0,0.42-0.03,0.539-0.089v0.148
		c0,0.26-0.191,0.439-0.568,0.538H83.08c-0.299,0-0.508-0.148-0.627-0.449l0.09-0.327v-0.181l-0.178-0.208h-0.092
		c-0.1,0.02-0.18,0.129-0.238,0.328l0.029,0.3c0,0.179-0.172,0.31-0.508,0.39h-0.061c-0.398,0-0.617-0.241-0.659-0.719v-0.06
		c0.458,0.161,0.778,0.241,0.958,0.241h0.029l-0.029-0.241v-0.03c0.299-0.119,0.467-0.238,0.508-0.357
		c-0.18-0.221-0.369-0.34-0.568-0.36v-0.06l0.061-0.059v-0.181l-0.688,0.151l0.211-0.568c0-0.099-0.072-0.151-0.211-0.151
		l0.359-0.327l-0.151-0.838l0.03-0.03L81.975,21.682z M80.779,21.923l-0.15,0.148H80.51l-0.148-0.148v-0.06l0.148-0.181
		C80.648,21.682,80.74,21.762,80.779,21.923L80.779,21.923z M76.234,21.742v0.122l-0.089-0.089v-0.032H76.234z M84.934,21.742h0.059
		v0.122h-0.088l-0.061-0.032L84.934,21.742z M72.857,21.831v0.032l-0.06,0.06l-0.089-0.092H72.857z M72.557,21.982l0.063,0.03
		l-0.092,0.089h-0.06v-0.119H72.557L72.557,21.982z M88.611,22.012h0.059v0.149h-0.09l-0.059-0.06L88.611,22.012z M80.271,22.071
		l0.029,0.149h-0.029v0.089H80.15v-0.238H80.271z M80.988,22.071v0.238h-0.119l-0.029-0.149h0.029v-0.089H80.988L80.988,22.071z
		 M76.443,22.25v0.06h-0.149V22.22l0.03-0.06L76.443,22.25z M84.844,22.22v0.089l-0.029,0.03l-0.119-0.089v-0.03H84.844z
		 M72.648,22.25v0.089l-0.029,0.062l-0.092-0.092L72.648,22.25z M76.684,22.31v0.03l-0.119,0.122V22.31H76.684z M84.574,22.401v0.06
		h-0.148l0.029-0.151L84.574,22.401z M88.521,22.31l0.09,0.092h-0.119V22.31H88.521z M75.518,22.339h0.568l0.297,0.21
		c0,0.258,0.112,0.39,0.33,0.39l-0.089,0.357c-0.221,0-0.33,0.05-0.33,0.149l0.241,0.449v0.03h-0.541l-0.029,0.06l0.029,0.24
		c-0.139,0-0.268,0.109-0.387,0.33c0,0.119,0.158,0.218,0.479,0.297h0.06l-0.06,0.119v0.06l0.06,0.062
		c0.218-0.02,0.458-0.142,0.716-0.36h0.09v0.298c0,0.26-0.168,0.439-0.508,0.538h-0.149l-0.329-0.119
		c0-0.317-0.119-0.538-0.357-0.657h-0.092c-0.117,0.06-0.179,0.161-0.179,0.3c0,0.159,0.062,0.268,0.179,0.327
		c-0.04,0.26-0.1,0.389-0.179,0.389h-0.089c-0.199,0-0.41-0.129-0.628-0.389l0.628-0.149L75.1,25.092l0.326-0.449
		c0-0.08-0.208-0.139-0.627-0.179c0-0.161-0.029-0.241-0.09-0.241l-0.537,0.33h-0.027c0-0.241-0.151-0.429-0.449-0.568l-0.092,0.089
		l-0.178-0.06c0-0.119,0.108-0.34,0.329-0.657l-0.241-0.241C74.254,22.6,74.92,22.339,75.518,22.339L75.518,22.339z M85.082,22.339
		h0.092c0.756,0,1.553,0.26,2.391,0.778v0.06l-0.18,0.238l0.387,0.568l-0.207,0.151v-0.059l-0.029-0.06
		c-0.262,0-0.42,0.198-0.479,0.598h-0.061l-0.508-0.36c-0.08,0-0.121,0.08-0.121,0.238l-0.566,0.122v0.03
		c0,0.178,0.08,0.31,0.238,0.387H86.1c-0.021,0.161-0.07,0.24-0.15,0.24c0,0.1,0.219,0.149,0.658,0.149
		c-0.24,0.28-0.479,0.419-0.717,0.419c-0.102-0.06-0.18-0.148-0.238-0.27l0.209-0.387c0-0.181-0.07-0.291-0.209-0.33
		c-0.162,0-0.279,0.092-0.359,0.271v0.208l0.029,0.03L84.934,25.6c-0.479-0.04-0.717-0.211-0.717-0.508v-0.36h0.059l0.717,0.39
		h0.063l0.027-0.03l-0.027-0.241c0.258,0,0.426-0.079,0.506-0.238v-0.06c-0.059-0.122-0.188-0.231-0.387-0.33l0.059-0.151
		c0-0.1-0.029-0.149-0.088-0.149h-0.063l-0.477,0.06l0.299-0.538l-0.09-0.089h-0.24l-0.119-0.33l0.299-0.238V22.55
		C84.834,22.55,84.943,22.48,85.082,22.339L85.082,22.339z M72.857,22.461c0,0.317,0.109,0.647,0.33,0.984l-0.149,0.151h-0.032
		l-0.208-0.657v-0.479H72.857L72.857,22.461z M72.468,22.491v0.089h-0.148v-0.089H72.468z M88.34,22.491l0.029,0.208
		c0,0.221-0.076,0.538-0.236,0.957h-0.031l-0.148-0.21c0.219-0.278,0.328-0.598,0.328-0.955H88.34z M80.599,22.55h0.03l0.15,0.419
		v0.148h0.09l0.148-0.089h0.06l-0.237,0.627l-0.241-0.06h-0.06l-0.238,0.06l-0.181-0.627h0.03l0.15,0.089h0.061
		C80.439,22.738,80.52,22.55,80.599,22.55L80.599,22.55z M88.818,22.55v0.089l-0.059,0.06l-0.09-0.119v-0.03H88.818z M76.713,22.699
		v0.03h-0.148v-0.089l0.057-0.06L76.713,22.699z M84.574,22.639v0.089l-0.057,0.06l-0.092-0.089v-0.06H84.574z M72.619,22.788v0.089
		h-0.063l-0.089-0.089H72.619z M88.67,22.818l-0.09,0.122h-0.059v-0.122H88.67z M72.408,23.029h0.06v0.148h-0.089l-0.06-0.06
		L72.408,23.029z M76.922,23.058l0.27,0.479c0.061,0,0.09-0.04,0.09-0.122h0.059v0.122l-0.059,0.359h-0.119l-0.301,0.089
		c-0.078-0.02-0.178-0.171-0.297-0.449l0.238,0.059v-0.3l0.059-0.238H76.922L76.922,23.058z M83.977,23.537
		c0.16-0.32,0.26-0.479,0.299-0.479h0.061l0.09,0.598l0.15-0.119h0.029l-0.24,0.479l-0.148-0.092h-0.33l-0.09-0.508l0.15,0.119
		h0.029V23.537z M88.76,23.058v0.149l-0.09-0.089v-0.06H88.76z M72.648,23.207v0.149h-0.029l-0.063-0.06L72.648,23.207z
		 M88.521,23.267l0.059,0.03l-0.092,0.122v-0.149h0.033V23.267z M72.619,23.505l0.029,0.032l-0.092,0.119h-0.029v-0.119l0.029-0.032
		H72.619z M88.58,23.537h0.031v0.148h-0.09l-0.033-0.03L88.58,23.537z M80.209,23.834v0.06l-0.059,0.03v0.24l0.059,0.06
		c-0.218,0.119-0.408,0.179-0.567,0.179l-0.06-0.238c-0.198,0-0.357-0.049-0.479-0.148v-0.032l0.06-0.06
		c0.319-0.06,0.479-0.119,0.479-0.179v-0.092l-0.06-0.06C79.783,23.596,79.991,23.676,80.209,23.834L80.209,23.834z M81.496,23.596
		h0.061l-0.061,0.149v0.03c0.199,0,0.379,0.08,0.539,0.241v0.06l-0.539,0.178v0.06l0.061,0.06v0.032
		c-0.159,0-0.35-0.062-0.568-0.181l0.029-0.208l-0.029-0.241L81.496,23.596z M88.34,23.686v0.149h-0.059l-0.029-0.06L88.34,23.686z
		 M80.51,23.775h0.029c0.158,0,0.261,0.069,0.301,0.208c0,0.141-0.1,0.23-0.301,0.27l-0.178-0.178v-0.151L80.51,23.775z
		 M77.879,23.834h0.029v0.06l-0.029,0.03v0.06c0.316,0.02,0.479,0.072,0.479,0.151v0.03c-0.258,0.119-0.39,0.201-0.39,0.241v0.06
		l0.03,0.03h-0.119l-0.359-0.03v-0.092l-0.027-0.357L77.879,23.834z M83.318,23.896l0.391,0.119l-0.061,0.357v0.092l-0.418,0.089
		H83.17l0.061-0.149c0-0.04-0.15-0.122-0.449-0.241v-0.03l0.059-0.059c0.32-0.042,0.479-0.092,0.479-0.151V23.896z M72.857,24.016
		v0.06h-0.09v-0.151L72.857,24.016z M88.369,23.983l0.061,0.032l-0.09,0.119h-0.059v-0.151H88.369z M77.103,24.075
		c0.159,0,0.237,0.099,0.237,0.297v0.03l-0.148,0.151h-0.15c-0.061-0.02-0.119-0.099-0.18-0.241
		C76.941,24.154,77.023,24.075,77.103,24.075L77.103,24.075z M76.324,24.134c0.3,0,0.448,0.159,0.448,0.479
		c-0.179,0.119-0.329,0.178-0.448,0.178c0-0.099-0.159-0.178-0.479-0.238c0.02-0.082,0.171-0.181,0.448-0.3v-0.03l-0.06-0.06v-0.03
		H76.324L76.324,24.134z M83.977,24.134h0.15l0.148,0.119v0.151l-0.148,0.149h-0.15l-0.119-0.149v-0.151L83.977,24.134z
		 M73.276,24.164c0.159,0,0.288,0.08,0.387,0.241c0.062,0,0.092-0.052,0.092-0.151h0.06c0.079,0.04,0.119,0.139,0.119,0.3v0.327
		l-0.119,0.06c-0.238-0.317-0.498-0.479-0.776-0.479h-0.091v-0.06C72.967,24.303,73.076,24.224,73.276,24.164L73.276,24.164z
		 M84.695,24.164h0.238v0.06l-0.029,0.03c0.277,0.181,0.418,0.3,0.418,0.36l-0.24,0.03h-0.238v0.208c-0.1,0-0.238-0.079-0.418-0.238
		v-0.06l0.029-0.06v-0.271L84.695,24.164z M87.861,24.224c0.182,0,0.311,0.08,0.391,0.241v0.03h-0.209
		c-0.221,0-0.42,0.159-0.6,0.476l-0.209-0.119v-0.238c0-0.159,0.049-0.261,0.15-0.3h0.059v0.092h0.092
		C87.674,24.283,87.783,24.224,87.861,24.224L87.861,24.224z M78.925,24.373l0.03,0.119c0,0.102-0.03,0.151-0.09,0.151h-0.029
		l-0.06-0.151l0.06-0.119H78.925z M82.365,24.373v0.271l-0.061,0.059l-0.092-0.089v-0.122L82.365,24.373z M80.629,24.462
		c0.102,0.6,0.359,0.897,0.778,0.897h0.179c0.418-0.099,0.627-0.26,0.627-0.479c0.221,0.419,0.508,0.627,0.867,0.627
		c0.578-0.119,0.869-0.377,0.869-0.776h0.029l0.059,0.06l-0.059,0.149c0,0.458,0.287,0.747,0.865,0.868
		c0.379-0.099,0.57-0.198,0.57-0.3h0.061l0.059,0.06c0.02,0.3,0.139,0.449,0.357,0.449c0.24,0,0.559-0.168,0.957-0.508h0.059
		c-0.297,0.439-0.598,0.657-0.895,0.657h-0.211c-0.139-0.04-0.268-0.179-0.389-0.417l-0.477,0.149c-0.498,0-0.848-0.228-1.047-0.687
		c-0.26,0.258-0.498,0.39-0.719,0.39h-0.238c-0.16,0-0.379-0.131-0.656-0.39h-0.061c-0.299,0.199-0.508,0.298-0.627,0.298
		c-0.419,0-0.748-0.179-0.986-0.538c-0.32,0.359-0.59,0.538-0.809,0.538c-0.301,0-0.578-0.099-0.838-0.298h-0.03
		c-0.28,0.258-0.538,0.39-0.776,0.39H78.06c-0.3,0-0.54-0.131-0.72-0.39c-0.316,0.417-0.587,0.627-0.805,0.627h-0.33l-0.39-0.151
		c-0.179,0.3-0.359,0.451-0.538,0.451h-0.029c-0.38,0-0.697-0.23-0.955-0.689h0.029c0.397,0.359,0.688,0.538,0.865,0.538h0.182
		c0.195-0.099,0.297-0.258,0.297-0.479h0.09c0.182,0.161,0.369,0.24,0.568,0.24h0.059c0.52-0.079,0.779-0.3,0.779-0.657v-0.36h0.09
		c0,0.379,0.27,0.638,0.808,0.776c0.437,0,0.706-0.188,0.806-0.568h0.06c0.221,0.28,0.438,0.419,0.659,0.419h0.209
		c0.419,0,0.667-0.297,0.749-0.895h0.087V24.462z M74.561,24.554l0.148,0.148h0.42v0.03l-0.328,0.298l0.09,0.151l-0.359,0.029
		c-0.119,0-0.25-0.079-0.387-0.24C74.145,24.832,74.281,24.692,74.561,24.554L74.561,24.554z M87.057,24.94v0.03l-0.238,0.24h-0.541
		l0.09-0.119l-0.328-0.36c0.359,0,0.539-0.06,0.539-0.178C86.818,24.672,86.977,24.802,87.057,24.94L87.057,24.94z M75.727,25.181
		l-0.061,0.148c-0.039,0-0.088-0.069-0.148-0.21l0.061-0.149C75.617,24.97,75.666,25.042,75.727,25.181L75.727,25.181z
		 M85.619,25.03h0.033v0.06l-0.033,0.24h-0.148C85.471,25.171,85.521,25.072,85.619,25.03L85.619,25.03z M74.145,25.27v0.06
		l-0.092,0.089c-0.139-0.079-0.219-0.159-0.238-0.238v-0.06l0.029-0.03C73.982,25.092,74.082,25.149,74.145,25.27L74.145,25.27z
		 M87.234,25.119h0.059l0.092,0.091l-0.18,0.208h-0.148V25.33L87.234,25.119z M80.779,25.449v0.06l-0.24-0.06H80.45l-0.06,0.06
		v-0.089l0.06-0.06c0.099,0,0.148-0.03,0.148-0.089L80.779,25.449z M79.076,25.449v0.119h-0.211v-0.119l0.06-0.03L79.076,25.449z
		 M82.213,25.449l0.092,0.119h-0.182v-0.119H82.213z M77.34,25.508l0.18,0.092v0.089h-0.328l0.09-0.181H77.34L77.34,25.508z
		 M83.797,25.568h0.061l0.119,0.119v0.062l-0.328-0.062L83.797,25.568z M80.599,25.657c1.057,0.02,2.103,0.102,3.14,0.24
		c1.096,0.179,1.813,0.37,2.152,0.568v0.03c-1.693-0.439-3.348-0.657-4.962-0.657h-0.72c-1.653,0-3.277,0.208-4.869,0.627h-0.061
		v-0.089C76.912,25.897,78.688,25.657,80.599,25.657L80.599,25.657z M69.061,25.987v0.03l0.119,0.119
		c-0.079,0.06-0.119,0.171-0.119,0.33h-0.178l-0.568,0.089l-0.151-0.06c-0.458,0.28-0.696,0.489-0.716,0.627
		c0,0.24,0.16,0.479,0.479,0.719l0.059-0.03h0.09v0.03h-0.09v0.059c0.08,0.139,0.119,0.298,0.119,0.479v0.03h-0.564l-0.092,0.119
		v0.898c0.319,0.176,0.498,0.317,0.537,0.417v0.119c-0.099,0-0.178,0.059-0.238,0.181v0.089c0,0.099,0.061,0.149,0.18,0.149v3.258
		l0.059,0.03l0.119-0.119v-2.988h1.646v2.69l0.03,0.057l0.118-0.118v-2.51l-0.059-0.06h0.059l0.03-0.059h0.089v2.69h0.119v-2.571
		l0.09-0.119h0.181v2.628l0.089,0.118l0.122-0.118v-2.81c0.079,0,0.139-0.06,0.179-0.179l-0.24-0.3v-0.06l0.24-0.268
		c0.198,0,0.297-0.049,0.297-0.148v-0.898l-0.119-0.119h-0.598l0.119-0.568h-0.089V27.75l0.208,0.092l0.359-0.39v-0.181
		c0-0.238-0.2-0.496-0.598-0.776l-0.21,0.06h-0.03l-0.389-0.089H69.45l-0.089-0.33l0.089-0.119l-0.179-0.181h-0.063L69.061,25.987z
		 M79.822,26.017h1.525c1.055,0,2.449,0.201,4.184,0.598v0.089l-0.717,0.092c0.178,0.218,0.32,0.327,0.418,0.327v0.211h-0.059
		c-1.535-0.399-3.08-0.598-4.635-0.598c-1.614,0-3.139,0.198-4.572,0.598v-0.151l0.359-0.39v-0.059l-0.66-0.089
		C75.984,26.386,77.37,26.175,79.822,26.017L79.822,26.017z M91.777,26.228l0.092,0.148l-0.182,0.328v-0.208h-0.059
		c-0.061,0-0.09,0.05-0.09,0.151H91.48c0-0.102-0.031-0.151-0.09-0.151h-0.029v0.208l-0.152-0.149l-0.09,0.092l0.09,0.149h-0.057
		l-0.27-0.149c-0.08,0-0.119,0.049-0.119,0.149H90.73c0-0.1-0.029-0.149-0.086-0.149h-0.063l-0.061,0.06l0.061,0.148v0.03h-0.09
		l-0.059-0.148l-0.09,0.119l0.09,0.089v0.03l-0.029,0.06h-0.061l-0.063-0.06h-0.088v0.06l0.088,0.151v0.03l-0.119,0.06l0.09,0.148
		v0.03l-0.059,0.06l0.059,0.06h0.029l0.063-0.06h0.061v0.06l-0.061,0.032v0.06c0.318,0.218,0.498,0.488,0.539,0.806h-0.631
		l-0.09,0.089v1.017l0.031,0.03c0.24,0,0.398,0.099,0.479,0.3v0.06l-0.238,0.238v0.089c0,0.102,0.068,0.151,0.207,0.151v2.809
		l0.09,0.09l0.09-0.09v-2.631h1.584l0.092,0.089v2.78h0.09v-2.78l-0.029-0.03h0.029l0.059-0.06h0.09l0.063,0.06v0.03l-0.063,0.06
		v2.78l0.063,0.03l0.088-0.09v-2.869h0.238v3.021l0.09,0.089l0.09-0.089v-3.199c0.141,0,0.211-0.05,0.211-0.151v-0.06l-0.238-0.268
		v-0.119l0.029-0.03c0.1,0,0.148-0.052,0.148-0.151c0.199-0.04,0.301-0.089,0.301-0.149v-0.957l-0.121-0.089h-0.568V28.41
		l0.15-0.479v-0.03h-0.092v-0.059h0.092l0.061,0.059h0.029l0.389-0.33v-0.119l-0.059-0.03l0.119-0.089v-0.122h-0.148v-0.089
		l0.148-0.03l-0.119-0.119h-0.09l-0.031,0.06l0.031-0.238h-0.15v0.089h-0.031v-0.181h-0.148v0.092l-0.092-0.092l-0.326,0.092h-0.061
		v-0.062l0.061-0.03v-0.089l-0.061-0.06c-0.059,0-0.09,0.05-0.09,0.149h-0.09v-0.089l0.029-0.06h-0.029l-0.061-0.06
		c-0.059,0-0.09,0.05-0.09,0.151h-0.059l-0.029-0.151c-0.08,0-0.123,0.069-0.123,0.208h-0.029c0-0.159-0.029-0.268-0.09-0.328
		l0.09-0.148l-0.207-0.211L91.777,26.228z M79.014,26.406c0.1,0.199,0.201,0.298,0.301,0.298c0.139-0.06,0.219-0.129,0.238-0.208
		v-0.179c-0.02-0.059-0.1-0.121-0.238-0.178C79.113,26.215,79.014,26.307,79.014,26.406L79.014,26.406z M79.822,26.316v0.149
		c0.061,0.119,0.169,0.179,0.33,0.179h0.865c0.219,0,0.33-0.109,0.33-0.328l-0.179-0.181h-1.136L79.822,26.316z M81.645,26.316
		v0.179c0.021,0.08,0.1,0.149,0.24,0.208c0.199-0.099,0.301-0.199,0.301-0.298c-0.082-0.141-0.15-0.218-0.211-0.24h-0.18
		L81.645,26.316z M77.432,26.495v0.149c0.018,0.082,0.1,0.151,0.238,0.21c0.678,0,1.018-0.151,1.018-0.449l-0.152-0.178
		C77.799,26.228,77.432,26.316,77.432,26.495L77.432,26.495z M82.514,26.406v0.149c0.059,0.201,0.406,0.3,1.045,0.3
		c0.061-0.02,0.119-0.099,0.18-0.24c0-0.258-0.35-0.387-1.047-0.387L82.514,26.406z M81.107,26.316l0.059,0.06l-0.089,0.089H80.12
		l-0.089-0.089v-0.06H81.107z M79.344,26.376v0.089h-0.148v-0.089H79.344z M78.477,26.406v0.06c0,0.06-0.268,0.119-0.809,0.179
		v-0.03l-0.027-0.06v-0.06L78.477,26.406z M83.559,26.555v0.06l-0.061,0.03l-0.807-0.089v-0.151L83.559,26.555z M76.535,26.614
		v0.178l0.178,0.181c0.219,0,0.328-0.109,0.328-0.33l-0.18-0.179h-0.059C76.644,26.465,76.555,26.515,76.535,26.614L76.535,26.614z
		 M84.127,26.644v0.151l0.209,0.178h0.119l0.211-0.178c0-0.181-0.08-0.291-0.238-0.33C84.285,26.465,84.188,26.525,84.127,26.644
		L84.127,26.644z M69.301,26.555v0.33l-0.092,0.089v-0.419H69.301z M68.166,26.644c0.218,0,0.456,0.23,0.717,0.689v0.029h-0.092
		c0-0.079-0.08-0.191-0.238-0.33h-0.06v0.238h-0.089l-0.061-0.06l0.119-0.119c-0.139-0.258-0.258-0.389-0.359-0.389v-0.06H68.166z
		 M70.318,26.644h0.089v0.06l-0.329,0.151v0.089h0.089l-0.089,0.149l0.089,0.092l-0.089,0.089h-0.09v-0.06l0.029-0.03v-0.211
		c-0.178,0.179-0.268,0.31-0.268,0.389h-0.092C69.658,27.143,69.877,26.904,70.318,26.644L70.318,26.644z M76.803,26.644l0.059,0.06
		v0.03l-0.059,0.062l-0.09-0.092v-0.06H76.803z M84.455,26.733v0.059h-0.119v-0.089l0.029-0.06L84.455,26.733z M92.018,26.854v0.089
		l-0.09,0.089v-0.3L92.018,26.854z M91.48,26.792h0.207v0.151h-0.445l-0.031,0.03v-0.03C91.211,26.865,91.301,26.815,91.48,26.792
		L91.48,26.792z M92.318,26.792h0.119l0.236,0.062v0.087h-0.479v-0.057L92.318,26.792z M75.907,26.884l-0.151,0.149l-0.09-0.089
		v-0.06l0.061-0.03L75.907,26.884z M68.344,26.884l0.119,0.089h0.03v-0.03l-0.089-0.089h-0.061V26.884z M85.412,26.884l0.119,0.089
		v0.06h-0.148l-0.09-0.089v-0.06H85.412z M75.815,27.601c1.277-0.439,2.852-0.657,4.724-0.657c1.975,0,3.588,0.238,4.844,0.717
		l-0.15,0.149h-0.059V27.69c-1.217-0.399-2.762-0.598-4.635-0.598c-1.354,0-2.531,0.109-3.528,0.33
		c-0.675,0.06-1.015,0.188-1.015,0.39c-0.121-0.062-0.178-0.109-0.178-0.151v-0.06H75.815z M90.764,26.944h0.057l0.092,0.089
		c-0.158,0-0.291,0.03-0.391,0.089h-0.029v-0.03C90.492,27.013,90.582,26.964,90.764,26.944L90.764,26.944z M93.123,26.944
		c0.16,0,0.271,0.06,0.33,0.179l-0.418-0.089v-0.089H93.123z M69.271,27.033h0.029v0.149h-0.092l-0.029-0.06L69.271,27.033z
		 M92.018,27.123v0.149h-0.059l-0.09-0.089v-0.06H92.018z M91.211,27.212v0.122h-0.15v-0.122H91.211z M80.539,27.271
		c1.234,0,2.541,0.131,3.916,0.389v0.089c-1.395,0.26-2.648,0.389-3.765,0.389c-1.356,0-2.692-0.149-4.007-0.449v-0.03
		C77.958,27.403,79.245,27.271,80.539,27.271L80.539,27.271z M68.704,27.333l0.087,0.089l-0.061,0.238h-0.026l-0.122-0.089
		l-0.029,0.03h-0.06l0.151-0.149v-0.03l-0.06-0.062v-0.03h0.119V27.333z M69.898,27.333h0.03v0.089l-0.03,0.03l0.18,0.208
		l-0.149-0.06h-0.03l-0.059,0.06l-0.151-0.149L69.898,27.333z M92.195,27.422h-0.119v-0.06l0.031-0.029L92.195,27.422z
		 M68.314,27.36h0.029v0.092h-0.119L68.314,27.36z M69.18,27.422v0.089h0.182v-0.089H69.6v0.03c0,0.08-0.109,0.129-0.33,0.149
		c-0.219-0.02-0.328-0.069-0.328-0.149v-0.03H69.18z M78.477,28.169v0.06h-0.238c-0.379,0-1.076-0.129-2.093-0.389v-0.03l0.06-0.06
		C77.241,28.03,77.998,28.169,78.477,28.169L78.477,28.169z M82.691,28.229c1.057-0.159,1.826-0.298,2.301-0.419v0.089
		c-0.656,0.162-1.393,0.291-2.211,0.39h-0.09V28.229z M68.791,27.898l0.031,0.032L68.73,28.05h-0.026v-0.151H68.791z M69.031,27.898
		l0.029,0.151h-0.119v-0.06L69.031,27.898z M69.777,27.898h0.063l-0.063,0.181l-0.089-0.092L69.777,27.898z M91.48,27.931v0.208
		h-0.09v-0.208H91.48z M91.777,27.931v0.208h-0.09l-0.059-0.208H91.777z M92.256,27.931v0.06c0,0.099-0.029,0.149-0.09,0.149
		l0.029-0.208H92.256z M92.557,28.05v0.089h-0.15V27.99l0.031-0.06L92.557,28.05z M68.255,27.99l0.089,0.089v0.06h-0.089
		l-0.03-0.149H68.255z M70.318,27.99l-0.151,0.149V27.99H70.318z M91.061,28.05v0.119H91l-0.088-0.089v-0.03H91.061z M93.035,28.05
		l-0.061,0.179h-0.09l-0.061-0.06l0.061-0.119H93.035z M68.941,28.169v0.06H68.73v-0.06H68.941z M69.75,28.169v0.06h-0.211v-0.06
		H69.75z M68.463,28.229h0.18v0.06c-0.159,0-0.238,0.03-0.238,0.092h-0.149v-0.092L68.463,28.229z M70.078,28.229v0.06H69.84v-0.06
		H70.078z M91.959,28.229l0.838,0.06v0.03h-0.152l-0.686-0.03c-0.52,0-0.84,0.042-0.959,0.122h-0.029
		C90.971,28.288,91.301,28.229,91.959,28.229L91.959,28.229z M70.256,28.288l-0.089,0.092h-0.03v-0.092H70.256z M73.276,28.469
		l0.419,0.06h6.814v5.619l-0.06,0.06c-0.538,0.1-1.017,0.317-1.437,0.657h-0.567v-2.183c0.179,0,0.269-0.029,0.269-0.089v-1.017
		l-0.09-0.089h-0.387v-0.568c0.139,0,0.208-0.04,0.208-0.119v-0.508L78.357,30.2h-0.151c-0.06,0-0.089,0.042-0.089,0.122h-0.119
		c0-0.08-0.03-0.122-0.09-0.122h-0.181c-0.06,0-0.089,0.042-0.089,0.122h-0.061c0-0.08-0.029-0.122-0.089-0.122h-0.151l-0.09,0.092
		v0.568c0.119,0,0.182,0.03,0.182,0.089v0.449l-0.092,0.089h-0.148v-1.434c0.201,0,0.3-0.029,0.3-0.091v-0.598L77.4,29.275h-0.211
		c-0.06,0-0.09,0.049-0.09,0.151h-0.059c0-0.102-0.03-0.151-0.09-0.151h-0.27c-0.08,0-0.119,0.049-0.119,0.151l-0.182-0.151h-0.148
		l-0.09,0.089v0.598c0,0.059,0.08,0.091,0.238,0.091v1.434l-0.235-0.06v-0.568c0.118,0,0.179-0.03,0.179-0.089v-0.479l-0.09-0.092
		h-0.148c-0.06,0-0.092,0.042-0.092,0.122h-0.027c0-0.08-0.039-0.122-0.121-0.122h-0.18c-0.059,0-0.088,0.042-0.088,0.122
		L75.369,30.2h-0.121l-0.119,0.092V30.8l0.059,0.06c0.119,0,0.182,0.03,0.182,0.089v0.479H75.01l-0.119,0.089v1.076
		c0,0.06,0.079,0.089,0.238,0.089v2.093l0.059,0.06h-0.059l-0.029,0.03h-0.447l-0.092,0.119v1.136l0.063,0.059l2.238,0.03h1.348
		l-0.211,1.017h-4.873l-0.027-0.148l0.027-0.06v-8.458l-0.027-0.03L73.276,28.469z M88.133,28.528v8.696l-0.031,0.029l-0.33-0.029
		H83.23c0-1.234-0.58-2.18-1.734-2.84c-0.498-0.099-0.748-0.178-0.748-0.237v-5.619H88.133z M68.015,28.618h2.842l0.029,0.03v0.06
		l-0.029,0.06v0.508l0.029,0.06h-3.258l0.06-0.538l-0.06-0.179l0.06-0.06L68.015,28.618z M93.543,28.647v0.779h-3.109l-0.09-0.092
		v-0.687H93.543z M84.814,28.945l-0.061,0.06l0.09,0.36v0.148c-0.178,0.082-0.27,0.151-0.27,0.211l-0.119,0.089
		c-0.318,0-0.479,0.049-0.479,0.149l0.15,0.359h0.328v0.06l-0.029,0.06l-0.299-0.06c-0.359-0.258-0.578-0.389-0.66-0.389H83.26
		l-0.09,0.091c0.277,0.357,0.518,0.538,0.717,0.538h0.211v0.089c-0.102,0-0.15,0.03-0.15,0.089l0.178,0.238
		c-0.018,0.102-0.109,0.151-0.268,0.151h-0.359c-0.639-0.28-0.957-0.498-0.957-0.659l0.15-0.387v-0.06
		c0-0.161-0.059-0.27-0.182-0.33h-0.088v0.149l-0.148,0.389c-0.143-0.119-0.291-0.188-0.449-0.208
		c-0.159,0.04-0.238,0.089-0.238,0.149v0.06c0.137,0,0.238,0.089,0.297,0.271h0.09v0.059c-0.277,0.119-0.42,0.258-0.42,0.417
		l0.033,0.062l0.238-0.062h0.389l0.061,0.062c0,0.099,0.029,0.148,0.088,0.148l-0.178,0.149c0,0.06,0.09,0.099,0.268,0.119v0.122
		l-0.029,0.029c0.438,0.159,0.689,0.318,0.748,0.477c-0.24,0.221-0.428,0.33-0.568,0.33h-0.15c0-0.119-0.049-0.179-0.148-0.179
		h-0.268l-0.211,0.149v0.03c0.201,0.06,0.32,0.139,0.359,0.241v0.059c-0.158,0-0.291,0.109-0.389,0.328l0.029,0.059l0.15-0.059
		l0.238,0.059c0.1,0.32,0.199,0.481,0.301,0.481l0.088-0.092v-0.06l-0.059-0.06l0.148-0.179v-0.24l0.33-0.06l0.059,0.208
		l0.299-0.238h0.029l0.059,0.03h0.092c0-0.099,0.08-0.188,0.238-0.268h0.092c0.238,0.498,0.51,0.746,0.807,0.746v0.119h-0.508
		c-0.299,0-0.449,0.251-0.449,0.749c0.139,0.119,0.211,0.218,0.211,0.298h0.088l0.061-0.06v0.092l-0.119,0.118h-0.24l-0.029-0.06
		c-0.061-0.26-0.209-0.389-0.449-0.389c-0.158,0.02-0.238,0.069-0.238,0.148v0.063c0.119,0,0.219,0.089,0.301,0.268v0.06H83.26
		l-0.027-0.06H83.17c-0.219,0.099-0.35,0.208-0.387,0.327l0.119,0.121l0.119-0.121l0.238,0.151h0.063l0.057-0.03
		c0,0.338,0.063,0.506,0.18,0.506h0.061l0.178-0.476l0.779,0.089l0.119-0.178l-0.119-0.779h0.029l0.061-0.03h0.268v0.03l-0.029,0.06
		v0.151c0,0.238,0.129,0.477,0.389,0.717l0.09-0.09l0.092,0.09c0.059,0,0.088-0.069,0.088-0.211l0.148,0.151v0.148
		c-0.518,0.06-0.775,0.198-0.775,0.419l0.061,0.06l0.178-0.092l0.211,0.03l-0.092,0.39V36.3l0.121,0.151h0.061
		c0-0.139,0.078-0.221,0.236-0.24l0.301,0.329l0.09-0.089v-0.03l-0.061-0.06l0.148-0.181v-0.119l-0.088-0.119v-0.06
		c0-0.24,0.109-0.508,0.326-0.808v-0.06l-0.088-0.149c-0.299-0.179-0.449-0.347-0.449-0.509c0-0.158,0.068-0.319,0.211-0.479
		c0.477,0,0.746-0.268,0.805-0.805v-0.122c-0.258-0.816-0.387-1.304-0.387-1.463c0-0.179,0.078-0.31,0.238-0.389
		c0.277-0.479,0.459-0.737,0.539-0.779c0-0.06-0.072-0.089-0.211-0.089v-0.03c0.16-0.198,0.24-0.377,0.24-0.538v-0.06l-0.029-0.03
		l-0.479,0.33h-0.061l-0.088-0.241l-0.063,0.06c-0.18,0.419-0.299,1.037-0.357,1.855l0.268,1.374c0,0.238-0.09,0.399-0.268,0.479
		h-0.389c-0.318-0.24-0.559-0.638-0.717-1.195h0.088v0.119h0.152v-0.538l0.148,0.151c0.039,0,0.08-0.082,0.119-0.241v-0.06
		l-0.029-0.029v-0.06h0.088l0.061,0.148l0.09-0.089v-0.06c0-0.122-0.08-0.258-0.238-0.419v-0.148h0.029l0.059,0.03h0.061
		l-0.061-0.568v-0.151c0.021-0.08,0.15-0.119,0.391-0.119h0.148l0.029,0.03v-0.03l0.061-0.06c0-0.06-0.109-0.119-0.328-0.178
		l0.029-0.211c0-0.06-0.088-0.089-0.268-0.089c0-0.198-0.041-0.3-0.121-0.3h-0.238l-0.092-0.238l-0.148,0.06l-0.33-0.241H84.814
		L84.814,28.945z M85.322,29.483l0.09,0.092v0.027l-0.119-0.119H85.322z M85.619,29.724l0.092,0.089h-0.059l-0.092-0.089H85.619z
		 M70.377,29.753v0.208h-2.211v-0.208H70.377z M93.064,29.813v0.24h-2.182v-0.24H93.064z M84.814,29.843l0.09,0.119h-0.09
		l-0.119-0.119H84.814z M70.557,30.143v0.087h-2.332l-0.24-0.03v-0.057H70.557z M90.73,30.2h0.512l0.355,0.03l0.033-0.03v0.03h1.645
		v0.062h-2.631L90.73,30.2z M75.815,33.19h0.092l0.149,0.148v0.39l-0.09,0.089h-0.24v-0.509L75.815,33.19z M77.67,33.19h0.09
		c0.1,0.04,0.15,0.139,0.15,0.3v0.238l-0.092,0.089h-0.237v-0.509L77.67,33.19z M70.377,33.906c0.021-0.218,0.061-0.326,0.119-0.326
		h0.061c-0.238,0.696-0.4,1.043-0.479,1.043h-0.061l-0.508-0.954v-0.03h0.268l0.359,0.658L70.377,33.906z M71.335,33.58l0.268,0.089
		v0.118l-0.329-0.118l-0.149,0.148v0.06l0.479,0.39v0.181c-0.021,0.1-0.129,0.179-0.329,0.238c-0.258-0.02-0.391-0.069-0.391-0.148
		v-0.092h0.061l0.181,0.151h0.149l0.148-0.151v-0.061l-0.477-0.416C70.945,33.768,71.074,33.639,71.335,33.58L71.335,33.58z
		 M89.775,34.385c0.119-0.498,0.209-0.746,0.271-0.746h0.059l-0.299,1.047h-0.119l-0.629-0.868v-0.03l0.238-0.059l0.42,0.656H89.775
		z M90.73,33.639v0.898h0.389v0.089h-0.627v-0.987H90.73z M91.84,33.669h0.178l0.09,0.118v0.03h-0.031l-0.059-0.03h-0.148
		c-0.102,0-0.152,0.301-0.152,0.898H91.48l0.059-0.809c0-0.1-0.1-0.148-0.301-0.148v-0.09L91.84,33.669z M68.822,33.787
		c0.1,0.559,0.18,0.839,0.238,0.839l0.359-0.029v0.089l-0.629,0.089l-0.209-0.957L68.822,33.787z M93.152,34.117
		c0,0.18-0.088,0.268-0.268,0.268v0.063l0.18,0.536c-0.221,0-0.379-0.179-0.479-0.536c-0.08,0-0.129,0.129-0.148,0.387l-0.182-0.06
		c0-0.218,0.063-0.538,0.182-0.954C92.916,33.877,93.152,33.979,93.152,34.117L93.152,34.117z M68.015,33.969
		c0.161,0,0.261,0.1,0.3,0.298c-0.079,0.139-0.23,0.258-0.449,0.359l0.119,0.446l-0.148,0.029c-0.258-0.495-0.389-0.815-0.389-0.954
		L68.015,33.969z M92.586,34.207c0,0.1,0.029,0.148,0.088,0.148h0.123c0.076-0.039,0.119-0.139,0.119-0.297l-0.182-0.152
		C92.674,33.906,92.625,34.006,92.586,34.207L92.586,34.207z M67.746,34.117l-0.059,0.03c0.059,0.258,0.119,0.39,0.178,0.39
		l0.211-0.152c0-0.158-0.052-0.247-0.15-0.268H67.746L67.746,34.117z M94.111,34.385l0.148,0.12c-0.061,0.24-0.09,0.567-0.09,0.986
		v0.06l-0.24-0.06v-0.33l-0.297-0.237h-0.09l-0.182,0.148h-0.148L94.111,34.385z M78.387,36.538
		c0.439-1.354,1.176-2.033,2.212-2.033c0.399,0.02,0.669,0.081,0.809,0.181c1.056,0.558,1.581,1.434,1.581,2.628
		c0,0.28-0.049,0.581-0.148,0.898c-0.438,1.274-1.152,1.911-2.149,1.911l-0.479-0.029c-1.276-0.459-1.914-1.364-1.914-2.721v-0.06
		C78.298,36.937,78.328,36.677,78.387,36.538L78.387,36.538z M93.691,34.834c0.02,0.06,0.1,0.119,0.238,0.182l0.092-0.271v-0.06
		h-0.152L93.691,34.834z M70.018,34.983v2.271l0.061,0.06h0.059l0.03-0.06l-0.03-0.178l0.03-0.419l-0.03-1.166l0.03-0.567
		l-0.03-0.06L70.018,34.983z M70.407,34.983v2.093l0.06,0.06c0.298-0.182,0.598-0.439,0.898-0.779v-0.06
		c-0.182-0.178-0.43-0.27-0.75-0.27v-1.044l-0.119-0.119L70.407,34.983z M90.645,35.016v1.044c-0.52,0.099-0.779,0.2-0.779,0.297
		v0.063c0.338,0.377,0.637,0.627,0.898,0.746v-0.029l0.057-0.06v-2.061l-0.09-0.092L90.645,35.016z M69.75,37.403l0.03,0.062
		l0.118-0.092v-2.39H69.75V37.403z M76.772,35.072c0.159,0,0.269,0.06,0.33,0.181v0.776h-0.628v-0.717
		C76.555,35.151,76.654,35.072,76.772,35.072L76.772,35.072z M78.776,37.373l0.06,0.479c0.379,1.136,0.918,1.704,1.614,1.704h0.479
		c1.017-0.396,1.524-1.084,1.524-2.063v-0.356l-0.15-0.779c-0.459-0.855-0.947-1.284-1.466-1.284h-0.446
		C79.314,35.432,78.776,36.198,78.776,37.373L78.776,37.373z M80.629,35.253h0.24c0.938,0.357,1.406,1.027,1.406,2.001v0.149
		c0,0.28-0.033,0.488-0.09,0.63c-0.301,0.895-0.818,1.344-1.557,1.344H80.45c-0.958-0.277-1.437-0.917-1.437-1.912v-0.3
		C79.176,35.891,79.711,35.253,80.629,35.253L80.629,35.253z M92.496,38.033h0.09v-2.78h-0.09V38.033z M67.926,35.402v0.3
		l-0.33-0.062h-0.057c-0.221,0-0.439,0.181-0.658,0.54v0.179l0.268,0.3c0.52,0.1,0.777,0.179,0.777,0.238v1.316l0.092,0.119
		l0.089-0.119v-2.812l-0.092-0.09L67.926,35.402z M92.734,38.182h0.15v-2.869h-0.15V38.182z M93.123,35.491v2.78l0.09,0.089h0.09
		v-1.466c0.479,0,0.828-0.158,1.045-0.476c0-0.241-0.168-0.469-0.508-0.689h-0.537v-0.238l-0.09-0.089L93.123,35.491z
		 M79.553,36.297l0.029,0.211c-0.219,0-0.35,0.079-0.387,0.238c0,0.1,0.05,0.211,0.148,0.33l0.148-0.06
		c0.103,0,0.152,0.039,0.152,0.119c-0.142,0-0.211,0.029-0.211,0.089v0.029l0.119,0.119l-0.061,0.182v0.06l0.061,0.029h0.031
		l0.061-0.029l0.148,0.089h0.029l0.09-0.089l0.15,0.029h0.061l-0.061-0.179l0.149-0.211v-0.029c0-0.06-0.06-0.089-0.179-0.089
		v-0.119h0.029l0.238,0.06l0.152-0.301c0-0.158-0.143-0.247-0.42-0.268v-0.06l0.029-0.029v-0.06c0-0.24-0.078-0.419-0.237-0.538
		h-0.03C79.635,35.979,79.553,36.139,79.553,36.297L79.553,36.297z M81.166,36.297l0.063,0.211c-0.221,0-0.35,0.06-0.389,0.179
		v0.208l0.148,0.182l0.24-0.06v0.119c-0.102,0-0.151,0.029-0.151,0.089v0.089c0,0.06,0.05,0.09,0.151,0.09l-0.121,0.151v0.06
		l0.059,0.029h0.063l0.029-0.029l0.149,0.089h0.06l0.121-0.089h0.057l0.063,0.029l0.029-0.029l-0.029-0.149l0.09-0.151v-0.089
		c0-0.06-0.05-0.089-0.152-0.089v-0.119l0.24,0.06c0.1-0.021,0.15-0.119,0.15-0.301v-0.089c-0.041-0.119-0.17-0.179-0.391-0.179
		v-0.06l0.063-0.029c0-0.261-0.082-0.459-0.24-0.601h-0.06C81.248,36,81.166,36.158,81.166,36.297L81.166,36.297z M69.539,37.793
		c-1.693,0.656-2.689,1.155-2.99,1.495l0.121,1.046v0.03h0.119l0.809-0.509c1.572-0.498,2.879-1.205,3.916-2.122
		c0-0.757-0.05-1.136-0.148-1.136C71.045,36.915,70.438,37.313,69.539,37.793L69.539,37.793z M89.684,37.703
		c0.52,0.558,1.137,1.017,1.855,1.376c1.654,0.618,2.609,1.074,2.869,1.374c0.1,0,0.178-0.347,0.24-1.047
		c-0.082-0.237-0.51-0.508-1.287-0.806c-1.893-0.818-3.061-1.465-3.496-1.943C89.807,36.657,89.746,37.007,89.684,37.703
		L89.684,37.703z M80.361,37.793l0.029,0.181c-0.199,0-0.32,0.069-0.359,0.208v0.03c0,0.118,0.039,0.237,0.121,0.359l0.209-0.122
		l0.089,0.151c-0.119,0-0.179,0.03-0.179,0.09v0.06l0.09,0.092l-0.061,0.208v0.029l0.061,0.06h0.029l0.063-0.06h0.059l0.119,0.09
		l0.119-0.09l0.119,0.06h0.06l-0.06-0.148v-0.092l0.151-0.148v-0.06c0-0.06-0.06-0.09-0.181-0.09v-0.089h0.029l0.24,0.06l0.119-0.39
		c-0.06-0.139-0.178-0.208-0.359-0.208v-0.122c0-0.258-0.08-0.438-0.238-0.538h-0.032C80.439,37.475,80.361,37.634,80.361,37.793
		L80.361,37.793z M73.125,37.495l0.063-0.03h0.389l0.238,0.03v0.06l-0.06,0.06v6.873l0.06,0.33
		c-0.459-0.558-0.689-1.215-0.689-1.972v-5.291l-0.027-0.06H73.125z M75.488,37.495v8.666c-0.519-0.179-0.779-0.327-0.779-0.448
		v-8.218H75.488z M77.191,37.495v8.845l-0.089,0.092h-0.628l-0.092-0.092v-8.845H77.191z M88.043,37.495l0.09,0.119v4.813
		c0,0.717-0.09,1.305-0.271,1.764c-0.775,1.534-1.922,2.301-3.436,2.301c-0.596-0.06-1.027-0.159-1.285-0.3
		c-1.595-0.635-2.391-1.922-2.391-3.856v-1.911l0.657-0.149c0,0.119,0.099,0.179,0.298,0.179v0.627c-0.159,0-0.261,0.132-0.298,0.39
		v0.06c0.037,0.238,0.139,0.357,0.298,0.357v0.359l-0.298,0.181l0.06,0.717c0.198,0,0.34,0.208,0.418,0.627l-0.09,0.271v0.06
		c0,0.159,0.09,0.298,0.27,0.417c0.24,0,0.449,0.121,0.627,0.359l-0.029,0.238c0,0.102,0.197,0.221,0.598,0.359
		c0.139,0,0.207-0.04,0.207-0.119l0.482,0.089c0.158,0.221,0.316,0.33,0.477,0.33l0.24-0.06c0.158-0.24,0.379-0.359,0.656-0.359
		l0.148,0.181c0.08,0,0.32-0.131,0.719-0.389l-0.061-0.241v-0.029l0.299-0.3c0.42-0.06,0.629-0.198,0.629-0.417
		c-0.021-0.24-0.07-0.359-0.15-0.359l0.15-0.509c0.217,0,0.328-0.24,0.328-0.716v-0.151c-0.197-0.08-0.299-0.14-0.299-0.179v-0.24
		c0.201-0.156,0.299-0.308,0.299-0.447v-0.091c0-0.14-0.098-0.278-0.299-0.417v-0.538c0.201-0.06,0.299-0.121,0.299-0.181v-0.688
		c-0.197-0.06-0.299-0.119-0.299-0.179v-0.419c0.238-0.178,0.359-0.359,0.359-0.538c-0.139-0.28-0.291-0.419-0.449-0.419
		c-0.279,0.04-0.418,0.132-0.418,0.271H86.1l-0.061-0.24h-0.717c-0.059,0-0.09,0.081-0.09,0.24h-0.389
		c-0.16-0.181-0.297-0.271-0.418-0.271c-0.141,0-0.299,0.09-0.477,0.271h-0.33c0-0.181-0.049-0.271-0.152-0.271H83.17l0.061-0.598
		h4.813V37.495z M78.148,38.271c0,0.24,0.258,0.716,0.776,1.436l-0.06,0.06v5.946l0.06,0.062l-0.776,0.417h-0.029v-7.92H78.148z
		 M84.365,38.42h0.152v0.24h-0.242v-0.148L84.365,38.42z M86.996,38.42l0.09,0.092v0.148h-0.238l-0.029-0.06l0.029-0.181H86.996z
		 M83.26,38.449l0.119,0.122v0.029H83.08l-0.059,0.06v-0.211H83.26L83.26,38.449z M85.801,38.449v0.211h-0.24l-0.09-0.089v-0.122
		H85.801z M70.407,38.81v4.394h-0.271v-3.975l0.03-0.241h-0.149v4.216h-0.119v-4.064H69.75v4.064h-1.646v-3.317l-0.089-0.09
		l-0.089,0.09v3.496l-0.152,0.151l0.061,0.268c0,0.201-0.149,0.33-0.447,0.39l0.061,0.327v0.6l-0.061,0.03
		c-0.379,0.079-0.567,0.148-0.567,0.208v1.912l0.06,0.032l1.136-0.271h0.089l1.105,0.271l1.198-0.271h0.06l1.105,0.271
		c0.08,0,0.119-0.032,0.119-0.092v-1.853l-0.029-0.06c-0.379-0.06-0.568-0.139-0.568-0.238h0.03l-0.03-0.24v-0.06l0.03-0.567
		c-0.319-0.1-0.479-0.229-0.479-0.39l0.06-0.179v-0.089c0-0.06-0.05-0.092-0.148-0.092v-0.06l0.059-0.06V38.69l-0.059-0.03
		L70.407,38.81z M83.947,38.69c0.121,0.158,0.209,0.237,0.27,0.237v0.301c-0.162,0.02-0.24,0.069-0.24,0.148v0.63
		c0,0.079,0.078,0.116,0.24,0.116v0.809l-0.029,0.06l-0.539-0.627l0.09-0.119v-0.122l-0.42-0.506l-0.297,0.027l-0.33-0.327
		l0.09-0.33h0.686c0.104,0,0.152-0.099,0.152-0.297H83.947z M85.174,38.69l0.059,0.06c0,0.158,0.031,0.237,0.09,0.237h0.688
		l0.18-0.297h0.328v0.06l-0.717,0.895l-0.27-0.089c-0.318,0.319-0.477,0.508-0.477,0.567l0.09,0.241l-0.479,0.567h-0.09v-0.809
		c0.158,0,0.248-0.039,0.268-0.119v-0.627c0-0.06-0.09-0.109-0.268-0.148v-0.182l0.238-0.356H85.174L85.174,38.69z M90.645,38.839
		v4.603l0.027,0.029l-0.18,0.092l0.029,0.298l-0.029,0.24c-0.26,0.079-0.389,0.139-0.389,0.179v0.957
		c-0.377,0.06-0.568,0.129-0.568,0.208V47.3l0.029,0.06h0.119l1.047-0.241h0.182l1.164,0.271c0.48-0.181,0.826-0.271,1.047-0.271
		h0.152l0.986,0.271l0.09-0.089v-1.855c0-0.06-0.191-0.129-0.568-0.208V44.25c-0.279-0.08-0.42-0.179-0.42-0.298v-0.151l0.09-0.119
		l-0.178-0.208v-0.03l0.029-0.062v-3.375l-0.092-0.121l-0.09,0.121v3.285h-0.207l-0.092-0.089v-1.674l0.061-1.195l-0.061-0.06
		l0.061-0.032v-0.446h-0.15v3.496h-0.09l-0.088-0.089l-0.152,0.089h-1.492l-0.092-0.089v-4.364l-0.09-0.089L90.645,38.839z
		 M86.818,38.987v0.538l-0.301,0.182v0.657l0.301,0.208v0.479l-0.33,0.33h-0.359c-0.061-0.198-0.119-0.301-0.18-0.301h-0.627
		l-0.178,0.301l-0.211-0.06V41.14l0.449-0.538l0.236,0.06c0.08,0,0.252-0.179,0.51-0.538v-0.029l-0.119-0.238
		c0.479-0.498,0.717-0.788,0.717-0.868H86.818L86.818,38.987z M84.518,39.525v0.33h-0.182v-0.33H84.518z M82.453,39.556h0.09
		l0.238,0.33l-0.119,0.237l0.479,0.568l0.238-0.09c0.24,0.201,0.408,0.409,0.508,0.628c0,0.042-0.057,0.092-0.178,0.151v-0.06h-0.09
		c0-0.161-0.039-0.241-0.121-0.241h-0.717l-0.029,0.06c0,0.122-0.031,0.182-0.09,0.182h-0.357l-0.27-0.271v-0.598
		c0.158-0.02,0.238-0.06,0.238-0.119v-0.448C82.273,39.727,82.332,39.615,82.453,39.556L82.453,39.556z M87.057,39.855v0.327h-0.211
		v-0.327H87.057z M85.619,39.945l0.152,0.089l-0.211,0.3l-0.148-0.151l0.148-0.237H85.619z M81.945,40.004v0.179h-0.209
		L81.945,40.004z M83.141,40.004h0.029l0.209,0.179l-0.119,0.151l-0.238-0.24L83.141,40.004z M66.789,40.602v0.06l0.598,0.63
		c0.08,0,0.129-0.151,0.152-0.448c0-0.241-0.092-0.439-0.271-0.601h-0.059C67.047,40.305,66.908,40.424,66.789,40.602L66.789,40.602
		z M80.51,40.424v2.001c0,1.076-0.238,1.895-0.717,2.452l0.029-0.359v-1.047l-0.029-0.238l0.029-0.148v-0.897l-0.029-0.24
		l0.029-0.06l-0.029-0.179v-0.06l0.029-0.03l-0.029-0.21v-0.03l0.029-0.06v-0.029l-0.029-0.06v-0.06l0.029-0.03l-0.029-0.148V40.93
		l0.029-0.03l-0.029-0.148l0.029-0.179l-0.029-0.211v-0.089L80.51,40.424z M92.496,40.424h0.09v-0.09l-0.09-0.092V40.424z
		 M93.633,40.902v0.178c0.059,0.261,0.129,0.39,0.207,0.39l0.631-0.719v-0.06c-0.043-0.079-0.201-0.219-0.479-0.419h-0.061
		C93.73,40.413,93.633,40.622,93.633,40.902L93.633,40.902z M92.438,41.47h0.119v-0.419h-0.061L92.438,41.47z M84.336,41.291h0.182
		l0.148,0.119v0.238l-0.211,0.119h-0.09l-0.178-0.209V41.41L84.336,41.291z M81.885,41.381l0.09,0.089v0.06l-0.09,0.119
		c-0.102-0.02-0.16-0.079-0.18-0.179h0.031v-0.089H81.885L81.885,41.381z M86.967,41.381h0.029l0.09,0.089v0.148l-0.119,0.03
		l-0.148-0.119L86.967,41.381z M83.318,41.41v0.208h-0.33V41.41H83.318z M85.801,41.41v0.208h-0.33V41.41H85.801z M82.453,41.648
		c0.156,0,0.289,0.099,0.387,0.3h0.658c0.082,0,0.121-0.079,0.121-0.24h0.178l0.09,0.092v0.06l-0.42,0.508l-0.236-0.092l-0.539,0.57
		l0.152,0.238l-0.479,0.538h-0.18l-0.121-0.419c0.158-0.02,0.24-0.069,0.24-0.148v-0.568c-0.063-0.139-0.15-0.211-0.27-0.211v-0.327
		C82.174,41.747,82.313,41.648,82.453,41.648L82.453,41.648z M85.174,41.708l0.059,0.06c0,0.119,0.031,0.181,0.09,0.181h0.627
		c0.1,0,0.15-0.079,0.15-0.24h0.479v0.06l0.24,0.24v0.09l-0.061,0.24c-0.16,0-0.24,0.029-0.24,0.089v0.179l-0.029,0.479l0.27,0.148
		c-0.059,0.301-0.15,0.449-0.27,0.449c-0.318-0.298-0.479-0.498-0.479-0.598l0.09-0.179v-0.06l-0.447-0.508l-0.27,0.029
		l-0.449-0.508V41.71h0.24V41.708z M84.217,42.038v1.105c-0.162,0-0.24,0.03-0.24,0.089v0.717l0.059,0.06
		c0.121,0,0.182,0.03,0.182,0.09v0.778l-0.182,0.238l-0.326-0.06v-0.238l-0.629-0.39c-0.121,0.021-0.178,0.069-0.178,0.149
		l-0.301-0.238l0.09-0.24l-0.029-0.179l0.09-0.208c0.18-0.179,0.27-0.311,0.27-0.39l0.357,0.06l0.418-0.538v-0.09l-0.088-0.151
		C83.967,42.227,84.137,42.038,84.217,42.038L84.217,42.038z M84.666,42.098l0.416,0.479v0.089l-0.09,0.148v0.032l0.42,0.536
		l0.299-0.06l0.477,0.538v0.06l-0.059,0.029v0.092l0.059,0.357l-0.238,0.181l-0.178-0.151h-0.061l-0.629,0.39l0.063,0.24l-0.24,0.06
		h-0.061l-0.27-0.211v-0.808l0.27-0.179v-0.688l-0.27-0.181v-0.954H84.666z M81.824,42.576h0.121v0.327h-0.209v-0.238L81.824,42.576
		z M87.057,42.605v0.359h-0.211v-0.359H87.057z M83.318,42.665l0.09,0.089v0.06l-0.178,0.241l-0.15-0.09L83.318,42.665z
		 M85.711,42.903l-0.092,0.151l-0.236-0.241l0.088-0.148L85.711,42.903z M84.518,43.441v0.329h-0.182v-0.329H84.518z M70.496,43.801
		l0.061,0.359h-2.572l0.03-0.359H70.496z M80.629,43.801c0.16,0.578,0.31,0.897,0.448,0.957l-0.208,0.148l-0.179-0.148h-0.062
		l-0.119,0.148l-0.238-0.029h-0.06l-0.06,0.029v-0.089c0.219-0.32,0.367-0.657,0.449-1.017H80.629z M93.152,43.86l0.119,0.3v0.03
		h-2.627l0.088-0.33H93.152z M82.186,43.949h0.09l0.09,0.092v0.058l-0.09,0.092h-0.09l-0.121-0.092v-0.058L82.186,43.949z
		 M86.607,43.949l0.119,0.092v0.149l-0.148,0.06l-0.15-0.09l0.061-0.211H86.607L86.607,43.949z M70.883,44.339l0.063,0.06v0.029
		l-0.063,0.06v0.628l-3.195-0.06h-0.09v-0.717H70.883z M90.404,44.398h3.197v0.746h-3.197l-0.123-0.089v-0.568L90.404,44.398z
		 M83.379,44.966v0.03l-0.119,0.151c-0.18-0.08-0.271-0.14-0.271-0.179l0.092-0.151L83.379,44.966z M85.652,44.877h0.059l0.09,0.089
		l-0.24,0.179l-0.09-0.089v-0.09L85.652,44.877z M80.12,44.996l0.03,0.06c-0.238,0.24-0.357,0.458-0.357,0.657v0.121
		c0,0.238,0.139,0.456,0.416,0.657c0.221,0.04,0.33,0.089,0.33,0.148v0.149c-0.419-0.317-0.828-0.479-1.225-0.479h-0.479
		l-0.06,0.029c0.438,0.461,0.806,0.689,1.106,0.689h0.418l0.209-0.06h0.029l-0.089,0.327h0.089c0.201,0,0.301-0.109,0.301-0.327
		l0.867,0.06c0.238,0,0.535-0.159,0.895-0.479v-0.06l-0.775-0.151c-0.3,0-0.617,0.151-0.957,0.449H80.84V46.58
		c0.498-0.139,0.748-0.409,0.748-0.806l-0.092-0.3v-0.03c0.818,0.858,1.842,1.285,3.08,1.285v0.06
		c-1.316,0.398-2.611,0.598-3.886,0.598c-1.297,0-2.604-0.199-3.918-0.598v-0.06c1.356,0,2.442-0.578,3.259-1.733H80.12
		L80.12,44.996z M80.75,45.145h0.119l0.06-0.029v0.029c0.319,0.24,0.479,0.449,0.479,0.63c0,0.317-0.179,0.509-0.538,0.565h-0.09
		c0.139-0.156,0.209-0.327,0.209-0.506v-0.121c-0.1-0.338-0.199-0.526-0.298-0.568c-0.221,0.182-0.329,0.412-0.329,0.689
		l0.178,0.506H80.51c-0.359-0.057-0.539-0.218-0.539-0.476v-0.09l0.09-0.39c0.359-0.158,0.549-0.29,0.568-0.389
		C80.711,44.996,80.75,45.046,80.75,45.145L80.75,45.145z M81.166,44.996l0.092,0.119v0.029h-0.029l-0.121-0.089v-0.06H81.166z
		 M84.365,45.207h0.09l0.121,0.089v0.06l-0.15,0.119l-0.15-0.119v-0.06L84.365,45.207z M67.926,45.475h0.299l0.836,0.238h0.39
		l0.868-0.238h0.238c0.696,0.198,1.046,0.319,1.046,0.359v0.179l-0.03,0.06l-1.016-0.298h-0.238l-1.047,0.298l-1.047-0.298h-0.299
		l-0.865,0.238h-0.152v-0.179C66.928,45.774,67.268,45.655,67.926,45.475L67.926,45.475z M90.764,45.534h0.119l1.045,0.3l1.137-0.3
		l1.195,0.3v0.268l-1.107-0.268l-1.193,0.268l-1.195-0.268l-1.139,0.268v-0.268L90.764,45.534z M68.076,46.251l1.133,0.3h0.152
		l1.046-0.3h0.06l1.136,0.3v0.238l-0.03,0.032l-1.076-0.271l-1.195,0.271h-0.029l-1.168-0.271c-0.178,0-0.558,0.089-1.135,0.271
		v-0.032l-0.061-0.06v-0.179L68.076,46.251z M89.717,46.58l1.047-0.27l1.195,0.27h0.148l1.045-0.27l1.018,0.27h0.09v0.298h-0.09
		l-0.809-0.238h-0.477l-0.719,0.238h-0.389L90.73,46.58l-1.047,0.298h-0.059V46.58H89.717z"/>
	<path id="php" display="none" d="M80.334,27.782c2.525-0.057,4.842-0.114,5.441,1.822c0,0.342,0,0.687,0,1.029
		c-0.025,0.317-0.051,0.635-0.078,0.95c-0.191,0.622-0.277,1.446-0.467,2.061c0,0.133,0,0.265,0,0.396
		c-0.188,0.614-0.277,1.443-0.467,2.061c-0.088,0.287,0.023,0.521-0.154,0.712c-0.141,0.126-0.518,0.079-0.777,0.079
		c-0.701,0-1.4,0-2.1,0c-0.127-0.246-0.146-0.142-0.154-0.556c0.169-0.198,0.066-0.503,0.154-0.791c0.027,0,0.051,0,0.076,0
		c0-0.134,0-0.266,0-0.396c0.027,0,0.053,0,0.08,0c0-0.159,0-0.317,0-0.474c0.023,0,0.051,0,0.076,0c0-0.134,0-0.266,0-0.396
		c0.027,0,0.053,0,0.076,0c0-0.132,0-0.266,0-0.397c0.027,0,0.053,0,0.08,0c0-0.132,0-0.265,0-0.396c0.025,0,0.053,0,0.076,0
		c0-0.132,0-0.263,0-0.397c0.232-0.756,0.377-1.554,0.391-2.534c-0.078-0.027-0.156-0.054-0.234-0.079
		c-0.279-0.285-1.961-0.166-2.565-0.159c-0.388,2.137-0.776,4.277-1.165,6.417c-0.631,0.333-2.057,0.164-2.953,0.159
		c-0.109-0.209-0.14-0.134-0.156-0.477c0.023,0,0.051,0,0.076,0c0-0.131,0-0.263,0-0.396c0.156-0.488,0.209-1.176,0.389-1.662
		c-0.051,0-0.104,0-0.156,0c-0.044,0.177-0.064,0.199-0.152,0.318c-0.027,0-0.053,0-0.08,0c0,0.052,0,0.104,0,0.156
		c-0.053,0.027-0.102,0.055-0.154,0.079c0,0.027,0,0.055,0,0.079c-0.051,0.027-0.104,0.055-0.156,0.079c0,0.055,0,0.107,0,0.159
		c-0.024,0-0.051,0-0.076,0c-0.08,0.106-0.156,0.211-0.233,0.317c-0.052,0-0.104,0-0.155,0c-0.105,0.132-0.209,0.263-0.311,0.396
		c-0.053,0-0.104,0-0.156,0c-0.025,0.053-0.053,0.104-0.077,0.159c-0.052,0-0.104,0-0.156,0c-0.024,0.052-0.052,0.104-0.077,0.158
		c-0.052,0-0.104,0-0.156,0c0,0.025,0,0.053,0,0.08c-0.104,0.024-0.207,0.052-0.31,0.079c0,0.027,0,0.052,0,0.079
		c-1.155,0.516-3.015,0.399-4.664,0.396c-0.184,0.978-0.364,1.954-0.546,2.932c-0.629,0.332-2.055,0.163-2.953,0.158
		c-0.129-0.248-0.148-0.144-0.158-0.556c0.171-0.203,0.066-0.503,0.156-0.793c0.19-0.615,0.277-1.446,0.466-2.061
		c0-0.132,0-0.263,0-0.397c0.23-0.741,0.317-1.708,0.546-2.455c0-0.131,0-0.262,0-0.394c0.024,0,0.052,0,0.076,0
		c0-0.134,0-0.265,0-0.397c0.027,0,0.053,0,0.08,0c0-0.133,0-0.265,0-0.396c0.024,0,0.049,0,0.076,0c0-0.133,0-0.265,0-0.396
		c0.025,0,0.053,0,0.077,0c0.027-0.29,0.052-0.58,0.077-0.873c0.317-1.029,0.49-2.306,0.701-3.407
		c0.451-0.168,1.279-0.079,1.865-0.079c1.297,0,2.591,0,3.888,0c0,0.027,0,0.054,0,0.079c0.181,0,0.362,0,0.544,0
		c0,0.027,0,0.052,0,0.08c0.104,0,0.207,0,0.312,0c0,0.027,0,0.052,0,0.079c0.103,0,0.206,0,0.31,0
		c1.082,0.437,1.945,1.23,2.178,2.537c0.025,0,0.05,0,0.076,0c0.363-1.902,0.727-3.804,1.09-5.706
		c0.611-0.325,1.996-0.164,2.876-0.159c0.108,0.211,0.159,0.335,0.156,0.714c-0.171,0.196-0.067,0.496-0.156,0.791
		C80.51,26.646,80.361,27.231,80.334,27.782z M88.184,36.893c-0.18,0.979-0.361,1.956-0.543,2.934
		c-0.629,0.332-2.055,0.163-2.953,0.156c-0.129-0.243-0.148-0.142-0.156-0.554c0.168-0.2,0.064-0.501,0.156-0.793
		c0.145-0.469,0.248-1.113,0.387-1.585c0.027-0.29,0.053-0.58,0.08-0.87c0.184-0.598,0.287-1.381,0.465-1.981
		c0.025-0.29,0.053-0.58,0.078-0.87c0.146-0.472,0.248-1.113,0.389-1.587c0-0.156,0-0.315,0-0.474
		c0.313-1.044,0.486-2.294,0.699-3.407c0.455-0.171,1.279-0.079,1.867-0.079c1.295,0,2.592,0,3.887,0
		c0.465,0.104,0.932,0.21,1.4,0.317c0,0.025,0,0.052,0,0.077c0.102,0.027,0.205,0.055,0.311,0.08c0,0.027,0,0.054,0,0.079
		c0.051,0,0.104,0,0.156,0c0.023,0.055,0.049,0.107,0.076,0.159c0.053,0,0.104,0,0.154,0c0.051,0.08,0.104,0.159,0.156,0.238
		c0.051,0,0.104,0,0.156,0c0,0.027,0,0.052,0,0.079c0.076,0.052,0.156,0.107,0.232,0.159c0,0.052,0,0.107,0,0.159
		c0.076,0.052,0.156,0.107,0.232,0.159c0,0.052,0,0.104,0,0.159c0.053,0.025,0.105,0.052,0.154,0.08
		c0.49,0.793,0.461,2.383,0.156,3.328c-0.025,0.186-0.053,0.369-0.076,0.555c-0.027,0-0.053,0-0.08,0c0,0.053,0,0.104,0,0.159
		c-0.025,0-0.049,0-0.076,0c-0.078,0.237-0.154,0.476-0.234,0.712c-0.051,0.027-0.104,0.055-0.152,0.078c0,0.053,0,0.107,0,0.159
		c-0.053,0.027-0.105,0.053-0.156,0.08c0,0.052,0,0.106,0,0.158c-0.133,0.106-0.262,0.211-0.391,0.314c0,0.055,0,0.107,0,0.162
		c-0.104,0.076-0.207,0.156-0.313,0.235c0,0.027,0,0.052,0,0.079c-0.049,0-0.102,0-0.152,0c-0.105,0.134-0.209,0.266-0.311,0.396
		c-0.053,0-0.104,0-0.156,0c-0.025,0.053-0.053,0.106-0.076,0.159c-0.08,0.027-0.156,0.052-0.234,0.079c0,0.027,0,0.052,0,0.079
		c-0.051,0-0.104,0-0.156,0c0,0.027,0,0.053,0,0.08c-0.104,0.026-0.207,0.052-0.309,0.079c0,0.027,0,0.055,0,0.079
		c-0.234,0.052-0.469,0.106-0.699,0.159c0,0.026,0,0.052,0,0.079c-0.133,0-0.262,0-0.391,0
		C90.834,37.017,89.354,36.902,88.184,36.893z M69.371,34.438c0.791,0.012,1.682,0.035,2.254-0.158c0.104,0,0.208,0,0.313,0
		c1.088-0.447,1.698-1.88,1.398-3.487c-0.182-0.134-0.362-0.266-0.543-0.397c-0.08,0-0.156,0-0.236,0c0-0.027,0-0.052,0-0.079
		c-0.775-0.027-1.555-0.052-2.33-0.08c-0.064,0.089,0.01,0.01-0.077,0.08C69.889,31.69,69.631,33.064,69.371,34.438z M89.43,30.237
		c-0.262,1.401-0.52,2.8-0.777,4.201c1.082,0.018,2.393,0.042,3.031-0.396c0.104-0.132,0.207-0.264,0.313-0.396
		c0.049-0.025,0.104-0.053,0.152-0.08c0-0.052,0-0.104,0-0.158c0.053-0.025,0.105-0.053,0.156-0.077c0-0.055,0-0.106,0-0.161
		c0.025,0,0.053,0,0.078,0c0-0.077,0-0.158,0-0.236c0.023,0,0.051,0,0.076,0c0-0.054,0-0.105,0-0.158c0.027,0,0.053,0,0.08,0
		c0-0.106,0-0.211,0-0.317c0.07-0.23,0.295-1.024,0.152-1.426c-0.023,0-0.051,0-0.076,0c-0.025-0.106-0.053-0.21-0.076-0.317
		c-0.146-0.079-0.32-0.258-0.467-0.317c-0.104,0-0.209,0-0.313,0C91.145,30.192,90.227,30.239,89.43,30.237z"/>
	<path id="smashing" display="none" d="M71.258,44.696l2.396-5.176c2.011,1.543,4.282,2.313,6.81,2.313
		c2.623,0,3.926-0.899,3.932-2.705c0-1.059-0.398-1.927-1.182-2.601c-0.791-0.68-2.326-1.476-4.61-2.394
		c-1.356-0.545-2.521-1.152-3.509-1.817c-2.621-1.768-3.938-3.953-3.938-6.563c0-1.731,0.488-3.184,1.471-4.362
		c0.171-0.208,0.359-0.407,0.563-0.598l-5.594,1.247c-1.629,0.365-2.641,1.932-2.267,3.504l4.63,19.364
		c0.377,1.569,1.996,2.552,3.623,2.189l2.295-0.511l-0.178-0.042C74.551,46.248,73.073,45.636,71.258,44.696z M95.869,39.129
		l-4.631-19.364c-0.381-1.569-1.998-2.549-3.621-2.187l-3.373,0.751c0.387,0.057,0.771,0.126,1.15,0.211
		c1.502,0.322,2.953,0.823,4.354,1.513l-1.941,5.051c-1.465-1.215-3.516-1.822-6.132-1.822c-2.351,0-3.528,0.902-3.528,2.708
		c0,0.712,0.392,1.352,1.16,1.924c0.771,0.573,2.42,1.346,4.947,2.316c1.729,0.652,3.115,1.401,4.184,2.249
		c0.496,0.392,0.93,0.803,1.281,1.24c1.111,1.368,1.67,3.024,1.67,4.969c0,1.893-0.537,3.489-1.605,4.798l3.818-0.853
		C95.234,42.271,96.246,40.701,95.869,39.129z"/>
	<g id="DSIC">
		<polygon fill="none" points="56.444,10.563 61.727,10.563 61.727,5.282 51.162,5.282 51.162,31.69 61.727,31.69 61.727,26.408 
			56.444,26.408 		"/>
		<polygon fill="none" points="84.738,21.126 95.301,21.126 95.301,26.408 84.738,26.408 84.738,31.69 100.582,31.69 
			100.582,15.845 90.02,15.845 90.02,10.563 100.582,10.563 100.582,5.282 84.738,5.282 		"/>
		<rect x="50.734" y="58.245" fill="none" width="1.438" height="4.314"/>
		<rect x="61.727" y="10.563" fill="none" width="5.281" height="15.845"/>
		<rect x="96.779" y="46.578" fill="none" width="1.438" height="1.44"/>
		<rect x="85.266" y="58.245" fill="none" width="1.441" height="4.314"/>
		<rect x="1.813" y="46.578" fill="none" width="1.438" height="4.316"/>
		<rect x="16.2" y="58.245" fill="none" width="1.44" height="4.314"/>
		<rect x="36.344" y="58.245" fill="none" width="1.439" height="1.438"/>
		<rect x="21.958" y="58.245" fill="none" width="1.438" height="1.438"/>
		<rect x="114.045" y="46.578" fill="none" width="1.438" height="4.316"/>
		<rect x="44.979" y="46.578" fill="none" width="1.438" height="4.316"/>
		<path fill="none" d="M9.485,31.794L27.99,13.289c1.136,0.082,2.299-0.31,3.169-1.178c1.585-1.587,1.585-4.156,0-5.741
			c-1.587-1.584-4.156-1.584-5.74,0c-0.868,0.868-1.262,2.031-1.178,3.169L5.735,28.045c-1.039,1.039-1.042,2.72-0.007,3.757
			C6.765,32.836,8.446,32.833,9.485,31.794z"/>
		<path fill="none" d="M28.457,17.881h-0.042c-1.471,0.002-2.661,1.193-2.661,2.661l0.007,7.503c0,1.468,1.192,2.656,2.663,2.656
			h0.042c1.471-0.002,2.661-1.193,2.661-2.661l-0.007-7.503C31.12,19.068,29.927,17.878,28.457,17.881z"/>
		<path fill="none" d="M9.346,11.243h7.506c1.468,0,2.656-1.19,2.653-2.658v-0.04c0-1.468-1.19-2.658-2.658-2.658H9.343
			c-1.468,0-2.658,1.19-2.656,2.658v0.04C6.688,10.053,7.88,11.243,9.346,11.243z"/>
		<rect x="27.712" y="46.578" fill="none" width="1.438" height="4.316"/>
		<rect x="119.799" y="58.245" fill="none" width="1.439" height="1.438"/>
		<polygon fill="none" points="141.377,31.69 157.225,31.69 157.225,21.126 151.943,21.126 151.943,26.408 146.662,26.408 
			146.662,10.563 151.943,10.563 151.943,15.845 157.225,15.845 157.225,5.282 141.377,5.282 		"/>
		<rect x="118.971" y="5.282" fill="none" width="5.283" height="26.408"/>
		<rect x="134.189" y="58.245" fill="none" width="1.438" height="4.314"/>
		<polygon points="0.372,45.14 0.372,52.336 3.251,52.336 3.251,50.895 1.813,50.895 1.813,46.578 3.251,46.578 3.251,45.14 		"/>
		<rect x="3.251" y="46.578" width="1.438" height="4.316"/>
		<rect x="6.13" y="45.14" width="1.438" height="7.196"/>
		<rect x="10.444" y="50.895" width="1.44" height="1.441"/>
		<rect x="9.006" y="45.14" width="1.438" height="5.755"/>
		<rect x="11.885" y="45.14" width="1.438" height="5.755"/>
		<rect x="14.761" y="45.14" width="1.438" height="7.196"/>
		<polygon points="21.958,46.578 21.958,45.14 17.64,45.14 17.64,49.457 20.517,49.457 20.517,50.895 17.64,50.895 17.64,52.336 
			21.958,52.336 21.958,48.019 19.079,48.019 19.079,46.578 		"/>
		<rect x="23.396" y="45.14" width="1.438" height="7.196"/>
		<path d="M30.589,52.336V45.14h-4.317v7.196H30.589z M27.712,46.578h1.438v4.316h-1.438V46.578z"/>
		<polygon points="36.344,52.336 36.344,45.14 34.906,45.14 32.027,45.14 32.027,52.336 33.468,52.336 33.468,46.578 34.906,46.578 
			34.906,52.336 		"/>
		<rect x="46.416" y="46.578" width="1.439" height="4.316"/>
		<polygon points="44.979,46.578 46.416,46.578 46.416,45.14 43.54,45.14 43.54,52.336 46.416,52.336 46.416,50.895 44.979,50.895 
					"/>
		<polygon points="49.295,52.336 53.61,52.336 53.61,50.895 50.734,50.895 50.734,49.457 53.61,49.457 53.61,48.019 50.734,48.019 
			50.734,46.578 53.61,46.578 53.61,45.14 49.295,45.14 		"/>
		<polygon points="60.807,49.457 63.683,49.457 63.683,50.895 60.807,50.895 60.807,52.336 65.123,52.336 65.123,48.019 
			62.244,48.019 62.244,46.578 65.123,46.578 65.123,45.14 60.807,45.14 		"/>
		<rect x="66.562" y="45.14" width="1.438" height="7.196"/>
		<polygon points="69.438,49.457 72.316,49.457 72.316,50.895 69.438,50.895 69.438,52.336 73.755,52.336 73.755,48.019 
			70.879,48.019 70.879,46.578 73.755,46.578 73.755,45.14 69.438,45.14 		"/>
		<polygon points="78.072,52.336 78.072,46.578 79.513,46.578 79.513,45.14 75.193,45.14 75.193,46.578 76.634,46.578 
			76.634,52.336 		"/>
		<polygon points="85.268,46.578 85.268,45.14 80.951,45.14 80.951,52.336 85.268,52.336 85.268,50.895 82.389,50.895 
			82.389,49.457 85.268,49.457 85.268,48.019 82.389,48.019 82.389,46.578 		"/>
		<polygon points="89.582,52.336 91.023,52.336 91.023,46.578 92.461,46.578 92.461,52.336 93.9,52.336 93.9,45.14 86.707,45.14 
			86.707,52.336 88.145,52.336 88.145,46.578 89.582,46.578 		"/>
		<path d="M98.217,52.336h1.438V45.14h-4.316v7.196h1.441v-2.879h1.438V52.336z M96.779,48.019v-1.44h1.438v1.44H96.779z"/>
		<polygon points="105.41,46.578 105.41,45.14 101.096,45.14 101.096,49.457 103.973,49.457 103.973,50.895 101.096,50.895 
			101.096,52.336 105.41,52.336 105.41,48.019 102.533,48.019 102.533,46.578 		"/>
		<polygon points="114.045,46.578 115.482,46.578 115.482,45.14 112.605,45.14 112.605,52.336 115.482,52.336 115.482,50.895 
			114.045,50.895 		"/>
		<rect x="115.482" y="46.578" width="1.441" height="4.316"/>
		<polygon points="118.361,52.336 122.678,52.336 122.678,50.895 119.799,50.895 119.799,49.457 122.678,49.457 122.678,48.019 
			119.799,48.019 119.799,46.578 122.678,46.578 122.678,45.14 118.361,45.14 		"/>
		<rect x="0.372" y="56.804" width="1.44" height="7.196"/>
		<polygon points="3.251,56.804 3.251,64 4.689,64 4.689,58.245 6.13,58.245 6.13,64 7.568,64 7.568,56.804 6.13,56.804 		"/>
		<polygon points="9.006,64 10.444,64 10.444,61.121 13.323,61.121 13.323,59.683 10.444,59.683 10.444,58.245 13.323,58.245 
			13.323,56.804 9.006,56.804 		"/>
		<path d="M14.761,64h4.317v-7.196h-4.317V64z M16.2,58.245h1.44v4.314H16.2V58.245z"/>
		<rect x="23.396" y="61.121" width="1.438" height="2.879"/>
		<polygon points="20.517,64 21.958,64 21.958,61.121 23.396,61.121 23.396,59.683 21.958,59.683 21.958,58.245 23.396,58.245 
			23.396,59.683 24.833,59.683 24.833,56.804 20.517,56.804 		"/>
		<polygon points="26.272,64 27.712,64 27.712,58.245 29.151,58.245 29.151,64 30.589,64 30.589,58.245 32.027,58.245 32.027,64 
			33.468,64 33.468,56.804 26.272,56.804 		"/>
		<path d="M34.906,64h1.438v-2.879h1.439V64h1.439v-7.196h-4.316V64z M36.344,58.245h1.439v1.438h-1.439V58.245z"/>
		<polygon points="40.662,64 44.979,64 44.979,61.121 43.54,61.121 43.54,62.56 42.1,62.56 42.1,58.245 43.54,58.245 43.54,59.683 
			44.979,59.683 44.979,56.804 40.662,56.804 		"/>
		<rect x="46.416" y="56.804" width="1.439" height="7.196"/>
		<path d="M49.295,64h4.315v-7.196h-4.315V64z M50.734,58.245h1.438v4.314h-1.438V58.245z"/>
		<polygon points="55.051,56.804 55.051,64 56.489,64 56.489,58.245 57.928,58.245 57.928,64 59.368,64 59.368,56.804 
			57.928,56.804 		"/>
		<polygon points="69.438,59.683 68,59.683 68,56.804 66.562,56.804 66.562,61.121 68,61.121 68,64 69.438,64 69.438,61.121 
			70.879,61.121 70.879,56.804 69.438,56.804 		"/>
		<polygon points="78.072,64 82.389,64 82.389,61.121 80.951,61.121 80.951,62.56 79.513,62.56 79.513,58.245 80.951,58.245 
			80.951,59.683 82.389,59.683 82.389,56.804 78.072,56.804 		"/>
		<path d="M83.828,64h4.316v-7.196h-4.316V64z M85.266,58.245h1.441v4.314h-1.441V58.245z"/>
		<polygon points="89.582,64 91.023,64 91.023,58.245 92.461,58.245 92.461,64 93.9,64 93.9,58.245 95.338,58.245 95.338,64 
			96.779,64 96.779,56.804 89.582,56.804 		"/>
		<polygon points="101.096,62.56 99.654,62.56 99.654,56.804 98.217,56.804 98.217,64 102.533,64 102.533,56.804 101.096,56.804 		
			"/>
		<polygon points="103.973,56.804 103.973,64 105.41,64 105.41,58.245 106.852,58.245 106.852,64 108.289,64 108.289,56.804 
			106.852,56.804 		"/>
		<rect x="109.727" y="56.804" width="1.439" height="7.196"/>
		<polygon points="112.605,64 116.924,64 116.924,61.121 115.482,61.121 115.482,62.56 114.045,62.56 114.045,58.245 
			115.482,58.245 115.482,59.683 116.924,59.683 116.924,56.804 112.605,56.804 		"/>
		<path d="M118.361,64h1.438v-2.879h1.439V64h1.439v-7.196h-4.316V64z M119.799,58.245h1.439v1.438h-1.439V58.245z"/>
		<polygon points="124.117,64 128.434,64 128.434,61.121 126.994,61.121 126.994,62.56 125.555,62.56 125.555,58.245 
			126.994,58.245 126.994,59.683 128.434,59.683 128.434,56.804 124.117,56.804 		"/>
		<rect x="129.873" y="56.804" width="1.438" height="7.196"/>
		<path d="M132.752,64h4.314v-7.196h-4.314V64z M134.189,58.245h1.438v4.314h-1.438V58.245z"/>
		<polygon points="138.506,56.804 138.506,64 139.945,64 139.945,58.245 141.383,58.245 141.383,64 142.824,64 142.824,56.804 
			141.383,56.804 		"/>
		<polygon points="144.262,64 148.578,64 148.578,62.56 145.699,62.56 145.699,61.121 148.578,61.121 148.578,59.683 
			145.699,59.683 145.699,58.245 148.578,58.245 148.578,56.804 144.262,56.804 		"/>
		<polygon points="150.018,61.121 152.893,61.121 152.893,62.56 150.018,62.56 150.018,64 154.334,64 154.334,59.683 
			151.455,59.683 151.455,58.245 154.334,58.245 154.334,56.804 150.018,56.804 		"/>
		<rect x="56.444" y="10.563" width="5.282" height="15.845"/>
		<path d="M67.008,31.69h5.284V5.282h-5.284V0H45.881v36.972h21.127V31.69z M61.727,31.69H51.162V5.282h10.564v5.282h5.281v15.845
			h-5.281V31.69z"/>
		<path d="M105.867,0H79.455v36.972h26.412V0z M100.582,10.563H90.02v5.282h10.563V31.69H84.738v-5.282h10.563v-5.282H84.738V5.282
			h15.844V10.563z"/>
		<path d="M113.689,36.972h15.848V0h-15.848V36.972z M118.971,5.282h5.283V31.69h-5.283V5.282z"/>
		<path d="M136.096,0v36.972h26.412V0H136.096z M157.225,15.845h-5.281v-5.282h-5.281v15.845h5.281v-5.282h5.281V31.69h-15.848
			V5.282h15.848V15.845z"/>
		<path d="M37.624,37.352c0.39,0,0.706-0.308,0.706-0.685V0.942c0-0.377-0.316-0.685-0.706-0.685H0.707C0.317,0.258,0,0.565,0,0.942
			v35.725c0,0.377,0.317,0.685,0.707,0.685H37.624z M28.466,30.701h-0.042c-1.471,0-2.663-1.188-2.663-2.656l-0.007-7.503
			c0-1.468,1.19-2.658,2.661-2.661h0.042c1.47-0.002,2.663,1.188,2.663,2.656l0.007,7.503
			C31.127,29.508,29.937,30.698,28.466,30.701z M6.688,8.545C6.685,7.077,7.875,5.887,9.343,5.887h7.503
			c1.468,0,2.658,1.19,2.658,2.658v0.04c0.002,1.468-1.185,2.658-2.653,2.658H9.346c-1.465,0-2.658-1.19-2.658-2.658V8.545z
			 M5.735,28.045L24.241,9.539c-0.084-1.138,0.31-2.301,1.178-3.169c1.584-1.584,4.153-1.584,5.74,0
			c1.585,1.584,1.585,4.153,0,5.741c-0.87,0.868-2.033,1.259-3.169,1.178L9.485,31.794c-1.039,1.039-2.72,1.042-3.757,0.008
			C4.694,30.765,4.696,29.084,5.735,28.045z"/>
	</g>
</g>
</svg>
