<?xml version="1.0" encoding="utf-8"?>
<!-- Generator: Adobe Illustrator 14.0.0, SVG Export Plug-In . SVG Version: 6.00 Build 43363)  -->
<!DOCTYPE svg PUBLIC "-//W3C//DTD SVG 1.1//EN" "http://www.w3.org/Graphics/SVG/1.1/DTD/svg11.dtd">
<svg version="1.1" id="Capa_1" xmlns="http://www.w3.org/2000/svg" xmlns:xlink="http://www.w3.org/1999/xlink" x="0px" y="0px"
	 width="64px" height="64px" viewBox="0 0 64 64" enable-background="new 0 0 64 64" xml:space="preserve">
<path id="spain_shield" d="M31.315,0.81h-0.126l-0.124-0.124h-0.188l-0.312,0.31v0.811c0.541,0.083,0.812,0.186,0.812,0.312v0.374
	c-0.665,0.54-0.996,1.018-0.996,1.432v0.5l0.311,0.747c-0.208,0-0.311,0.083-0.311,0.249c-0.208-0.414-0.479-0.623-0.812-0.623
	l-0.375,0.374v0.498h-0.311v-0.06l0.188-0.311V4.985L28.697,4.61H28.51l-0.437,0.313L27.7,4.61h-0.373
	c-0.168,0-0.271,0.168-0.313,0.5l-0.437-0.312h-0.062c-0.415,0-0.624,0.208-0.624,0.623L25.52,5.11
	c-0.458,0-0.687,0.229-0.687,0.686h-0.125L24.583,5.67H24.21c-0.208,0-0.313,0.249-0.313,0.749l-0.062-0.125
	c-0.249,0-0.521,0.125-0.811,0.374c0-0.166-0.146-0.292-0.437-0.374l-0.56,0.311l-0.437-0.311h-0.249
	c-0.167,0-0.273,0.125-0.313,0.374h-0.189c0-0.166-0.144-0.292-0.434-0.374c-0.208,0-0.396,0.208-0.563,0.623l-0.436-0.313h-0.37
	c-0.208,0-0.312,0.188-0.312,0.562l-0.498-0.249c-0.333,0-0.5,0.249-0.5,0.748h-0.123l-0.25-0.187h-0.187
	c-0.25,0-0.397,0.229-0.437,0.686h-0.498l-0.375,0.436v0.313l0.063,0.062c-0.499,0-0.747,0.146-0.747,0.436v0.25l0.187,0.313
	c-0.458,0-0.687,0.104-0.687,0.311v0.374l0.251,0.437c-0.292,0-0.479,0.124-0.563,0.373c0,0.416,0.126,0.623,0.375,0.623v0.187
	c-0.208,0-0.313,0.062-0.313,0.188v0.436c0.165,0.249,0.332,0.375,0.5,0.375l-0.188,0.311v0.375c0,0.208,0.165,0.311,0.498,0.311
	l-0.062,0.375c0,0.332,0.187,0.498,0.56,0.498l-0.062,0.498v0.249c0.831,0.084,1.349,0.272,1.558,0.562
	c0.25,0.996,0.643,1.497,1.185,1.497c0.87,0.955,1.579,1.454,2.118,1.497c0,0.581,0.291,0.87,0.873,0.87
	c-0.042,0.333-0.146,0.5-0.311,0.5c0,0.167,0.268,0.332,0.809,0.498v0.311l-0.311,0.5c0,0.622,0.809,1.017,2.431,1.184v0.125h-7.978
	l-0.188,0.186v11.094c-1.83-0.415-3.262-0.622-4.299-0.622H10.25c-4.569,0.414-7.291,1.474-8.162,3.177
	c0.581,1.746,0.955,2.617,1.123,2.617l0.56-0.686c2.16-1.411,4.55-2.119,7.167-2.119c3.28,0.334,4.922,0.666,4.922,0.997v15.579
	c0,3.49,1.747,6.108,5.236,7.853C24.999,63.17,28.406,64,31.316,64h1.557c3.655,0,7.581-1.1,11.778-3.302
	c2.368-1.994,3.552-4.092,3.552-6.294v-2.68l0.124-0.5l-0.124-0.063l0.124-0.437v-0.062l-0.124-0.126v-0.123l0.124-0.064
	l-0.124-0.312l0.124-0.498v-0.125l-0.124-0.063l0.124-0.125v-0.686l-0.124-10.345c0.457-0.456,2.12-0.788,4.985-0.996
	c2.45,0.249,3.947,0.54,4.485,0.873c2.078,0.705,3.117,1.37,3.117,1.994c0.208,0,0.58-0.852,1.121-2.556
	c0-0.29-0.166-0.602-0.498-0.936c-2.285-1.579-4.984-2.369-8.103-2.369l-0.123,0.064l-0.375-0.064
	c-2.241,0.125-3.738,0.313-4.486,0.563v-0.063l-0.124-0.125V23.743c0-0.126-0.396-0.229-1.184-0.312l-0.063,0.124l-0.312-0.124
	h-0.124l-0.064,0.124l-0.622-0.124h-4.486l-1.497,0.124v-0.124c1.664-0.292,2.494-0.687,2.494-1.185l-0.313-0.499v-0.187
	c0-0.167,0.249-0.311,0.749-0.437v-0.311l-0.313-0.249l0.313-0.313c0.455,0,0.685-0.228,0.685-0.684
	c0.623-0.167,1.246-0.644,1.869-1.435c0.665-0.249,0.998-0.435,0.998-0.56c0.373-0.996,0.704-1.496,0.995-1.496
	c0.666,0,0.997-0.062,0.997-0.187v-0.123L48.2,15.269l0.438-0.313v-0.561c0.207,0,0.375-0.146,0.498-0.436v-0.313l-0.188-0.249
	l0.562-0.437c0-0.456-0.167-0.686-0.497-0.686v-0.124c0.33,0,0.497-0.187,0.497-0.562c-0.125-0.29-0.291-0.436-0.497-0.436v-0.062
	l0.311-0.5c-0.083-0.331-0.354-0.498-0.811-0.498L48.7,9.471c0-0.249-0.25-0.373-0.747-0.373V8.974l0.063-0.062V8.663
	c0-0.25-0.29-0.375-0.872-0.375l0.124-0.126c0-0.373-0.248-0.56-0.746-0.56L46.271,7.79h-0.124c0-0.54-0.165-0.811-0.496-0.811
	l-0.5,0.311c0-0.455-0.166-0.686-0.498-0.686l-0.627,0.375c0-0.375-0.226-0.56-0.685-0.56l-0.373,0.249l-0.623-0.374
	c-0.248,0-0.373,0.125-0.373,0.374h-0.127l-0.372-0.249H41.16l-0.373,0.249c-0.208-0.166-0.457-0.249-0.747-0.249
	c-0.167-0.5-0.333-0.749-0.498-0.749h-0.063l-0.499,0.125c0-0.457-0.166-0.686-0.499-0.686l-0.498,0.311
	c0-0.29-0.146-0.498-0.437-0.623h-0.248L36.861,5.11c0-0.208-0.125-0.374-0.375-0.5h-0.312l-0.373,0.313L35.365,4.61h-0.188
	c-0.25,0.084-0.372,0.272-0.372,0.562l-0.5-0.374c-0.498,0-0.748,0.208-0.748,0.623l-0.374-0.249
	c0.249-0.414,0.374-0.747,0.374-0.998c0-0.663-0.334-1.162-0.998-1.494v-0.75h0.5l0.25-0.25V0.996l-0.25-0.187h-0.5V0.187L32.375,0
	h-0.812C31.438,0,31.355,0.271,31.315,0.81L31.315,0.81z M32.188,0.436v0.687h0.498l0.188,0.186v0.187h-0.497l-0.188,0.187v2.243
	l0.188,0.188h0.685v0.375h-2.243V4.112h0.747l0.25-0.188V1.682l-0.251-0.187h-0.562V1.184c0.54-0.041,0.812-0.125,0.812-0.249v-0.5
	H32.188z M31.377,3.116v0.56h-0.561C31.065,3.302,31.251,3.116,31.377,3.116L31.377,3.116z M32.686,3.178l0.374,0.498h-0.5
	l-0.062-0.498H32.686z M32.811,4.923V5.11l-0.749,0.311L31.065,5.11V4.923H32.811z M27.7,4.985v0.187h-0.311V4.985H27.7z
	 M28.696,4.985v0.313h-0.187V4.985H28.696z M35.304,4.985h0.062v0.313h-0.187l-0.125-0.126L35.304,4.985z M36.486,4.985v0.187
	l-0.123,0.126L36.175,5.11V4.985H36.486z M26.517,5.172l0.062,0.126v0.124l-0.062,0.063l-0.188-0.186V5.172H26.517z M29.819,5.172
	l0.063,0.126l-0.188,0.186H29.57V5.172H29.819z M34.308,5.172v0.312h-0.25V5.172H34.308z M37.484,5.172h0.062v0.312h-0.187
	l-0.063-0.063L37.484,5.172z M34.806,5.297L34.99,5.67h-0.312V5.297H34.806z M27.2,5.609h-0.31V5.483l0.124-0.063L27.2,5.609z
	 M28.198,5.421v0.188h-0.311V5.421H28.198z M35.802,5.421l0.187,0.188h-0.311V5.421H35.802z M36.984,5.609v0.062l-0.312-0.062V5.483
	L36.8,5.42L36.984,5.609z M25.395,5.483h0.125v0.313h-0.189L25.206,5.67L25.395,5.483z M26.08,5.796v0.123h-0.188v-0.31L26.08,5.796
	z M30.878,5.609v0.188h-0.313V5.609H30.878z M33.31,5.609v0.188L33.184,5.92l-0.188-0.25V5.609H33.31z M38.667,5.609l-0.188,0.188
	h-0.123V5.609H38.667z M30.068,5.67h0.126v0.313h-0.188l-0.125-0.064L30.068,5.67z M30.816,8.163c0-1.66,0.353-2.493,1.059-2.493H32
	c0.333,0,0.623,0.208,0.871,0.624c0.125,2.369,0.292,3.989,0.5,4.861l-0.687,0.746h-0.126c0.208-0.413,0.416-0.621,0.624-0.621
	l-0.312-2.867c0-1.662-0.292-2.494-0.872-2.494h-0.125c-0.209,0-0.437,0.085-0.686,0.25c-0.166,2.578-0.373,4.176-0.624,4.799
	l0.75,0.933v0.064l-0.812-0.685C30.712,10.157,30.816,9.12,30.816,8.163L30.816,8.163z M33.994,5.796v0.187h-0.437l0.125-0.313
	L33.994,5.796z M27.887,5.919c1.744,0.25,2.616,0.5,2.616,0.749v0.124c-0.912-0.456-1.788-0.686-2.616-0.686
	c-2.244,0-3.595,0.957-4.051,2.867V9.47c0,0.708,0.354,1.371,1.06,1.994c0,0.251-0.167,0.521-0.498,0.811l0.186-0.686
	c-0.665-0.749-0.996-1.515-0.996-2.307C23.588,7.375,25.02,6.253,27.887,5.919L27.887,5.919z M25.207,6.293h-0.123l-0.188-0.188
	V5.983L25.207,6.293z M35.802,5.983H36.3c2.656,0.332,3.987,1.475,3.987,3.428c0,0.707-0.331,1.432-0.995,2.181l0.187,0.562v0.124
	h-0.187l-0.313-0.624v-0.062c0.705-0.749,1.059-1.454,1.059-2.12V8.786c-0.623-1.745-1.869-2.618-3.738-2.618h-0.748
	c-0.746,0-1.475,0.208-2.181,0.624H33.31C33.433,6.377,34.264,6.107,35.802,5.983L35.802,5.983z M24.583,6.107v0.188h-0.249V6.107
	H24.583z M39.479,6.107h0.063v0.313h-0.189l-0.06-0.125L39.479,6.107z M24.21,8.663c0.664-1.454,1.869-2.181,3.615-2.181
	c0.998,0,1.889,0.271,2.679,0.809l-0.123,0.687v1.184c-0.79,0-1.582,0.146-2.369,0.436l-3.429,0.996
	c-0.249-0.414-0.373-0.788-0.373-1.122L24.21,8.663L24.21,8.663z M35.304,6.604h1.06c1.785,0,2.887,0.832,3.303,2.494
	c-0.043,1.038-0.251,1.557-0.624,1.557c-2.701-0.997-4.55-1.495-5.546-1.495V8.288L33.371,7.29
	C34.036,6.877,34.679,6.647,35.304,6.604L35.304,6.604z M21.593,6.667v0.249l-0.062,0.063l-0.188-0.187V6.667H21.593z M20.533,6.792
	v0.187h-0.311V6.792H20.533z M22.714,6.792v0.187h-0.313V6.792H22.714z M23.836,6.792v0.187h-0.311V6.792H23.836z M40.351,6.792
	v0.187l-0.063,0.126l-0.249-0.188V6.792H40.351z M41.472,6.792v0.187l-0.125,0.126l-0.188-0.188V6.792H41.472z M42.531,6.792v0.187
	h-0.25V6.792H42.531z M43.529,6.792l0.125,0.125l-0.188,0.188h-0.125V6.792H43.529z M19.35,6.979l0.063,0.126v0.062L19.35,7.292
	L19.1,7.105V6.979H19.35z M19.912,6.979l0.125,0.311l-0.314,0.187l0.125-0.498H19.912z M21.032,6.979l0.064,0.311h-0.252V7.167
	L21.032,6.979z M44.775,7.167V7.29h-0.313V7.104l0.063-0.126L44.775,7.167z M22.03,7.104h0.061V7.29h-0.248L22.03,7.104z
	 M23.213,7.29h-0.31V7.167l0.123-0.062L23.213,7.29z M31.813,7.167l-0.311,0.311h-0.125V7.104L31.813,7.167z M32.375,7.104v0.373
	l-0.314-0.311L32.375,7.104z M43.029,7.29v0.126h-0.248v-0.25l0.062-0.062L43.029,7.29z M44.025,7.104l0.126,0.311v0.062h-0.374
	l0.187-0.373H44.025z M45.771,7.415l0.063,0.062l-0.186,0.188h-0.125V7.477l0.125-0.062H45.771z M18.851,7.477l0.188,0.188
	l-0.312,0.126V7.477H18.851z M45.023,7.477h0.125V7.79h-0.312V7.664L45.023,7.477z M16.359,10.407
	c0.83-1.828,2.556-2.743,5.173-2.743h0.995v0.25h-0.125L21.593,7.79l-1.061,0.124c-2.74,0.583-4.113,1.6-4.113,3.054v0.623
	c0,0.623,0.271,1.183,0.811,1.683c-0.249,0.582-0.478,0.955-0.685,1.122H16.42l0.499-1.122c-0.457-0.54-0.685-1.164-0.685-1.87
	V11.28L16.359,10.407z M23.09,7.664h0.123v0.313h-0.187l-0.123-0.063L23.09,7.664z M32.062,7.664v0.25h-0.248v-0.25H32.062z
	 M42.032,7.664l1.434,0.126c2.782,0.623,4.177,1.724,4.177,3.303v0.373c0,0.708-0.231,1.351-0.687,1.932v0.187l0.372,0.686v0.188
	c-0.123,0-0.354-0.354-0.685-1.06c0.539-0.581,0.811-1.163,0.811-1.745v-0.249c0-2.327-2.056-3.491-6.169-3.491V7.79L42.032,7.664z
	 M18.042,7.977l-0.188,0.186h-0.125V7.79L18.042,7.977z M17.355,7.914l0.062,0.064L17.23,8.164h-0.062v-0.25H17.355z M46.146,7.914
	v0.249h-0.313V7.977L46.146,7.914z M46.77,7.977v0.311h-0.249V7.977H46.77z M31.688,8.413l-0.312,0.062V8.101L31.688,8.413z
	 M32.498,8.101v0.375l-0.311-0.062L32.498,8.101z M21.593,8.163l1.246,0.126v0.125c-0.208,0-0.372,0.124-0.498,0.373V9.1
	l0.249,0.311l-0.249,0.375v0.373c0,0.208,0.126,0.313,0.374,0.313v0.123l-0.188,0.188h-1.308c-0.789,0-2.223,0.5-4.299,1.497
	l-0.063-0.686v-0.498C16.856,9.471,18.434,8.496,21.593,8.163L21.593,8.163z M41.845,8.288h0.188c0.872,0,1.476,0.062,1.807,0.187
	c2.119,0.541,3.18,1.413,3.18,2.618v0.56c0,0.499-0.084,0.77-0.249,0.81c-1.746-1.121-3.49-1.683-5.234-1.683H41.16v-0.124
	l0.375-0.499V9.908l-0.25-0.437l0.25-0.498L41.16,8.413L41.845,8.288z M16.546,8.599v0.188L16.42,8.913l-0.186-0.25V8.599H16.546z
	 M31.875,8.663H32l0.188,0.249v0.249h-0.499V8.912L31.875,8.663z M47.643,8.663v0.249l-0.127,0.062l-0.187-0.188V8.663H47.643z
	 M22.903,8.786h0.123v0.188l-0.123,0.125h-0.064l-0.124-0.125L22.903,8.786z M41.16,8.974v0.125h-0.312V8.912l0.125-0.126
	L41.16,8.974z M15.734,9.41h0.125v0.187l-0.125,0.063h-0.062l-0.124-0.063L15.734,9.41z M31.502,9.41v0.062l-0.187,0.188V9.41
	H31.502z M48.327,9.471v0.188l-0.125,0.125l-0.188-0.188V9.471H48.327z M25.02,10.906c2.658-0.873,4.424-1.31,5.296-1.31
	l0.064,0.063l-0.375,1.621l0.811,0.809h-0.313l0.374,1.496l-1.309-0.311h-0.063l-0.124,0.124l0.124,0.374l-1.121,0.809v0.064
	c0.123,0.249,0.497,0.498,1.121,0.747l-0.124,0.374v0.124l0.124,0.064c0.666-0.041,1.287-0.229,1.871-0.562h0.125
	c-0.085,1.122-0.521,1.684-1.308,1.684c-0.624,0-1.061-0.271-1.31-0.811l0.124-0.623c0-0.249-0.167-0.478-0.498-0.686h-0.312
	c-0.125,0-0.249,0.208-0.374,0.624l0.249,0.811c0,0.458-0.396,0.79-1.183,0.997c-0.998-0.167-1.496-0.6-1.496-1.309v-0.124
	l1.619,0.186h0.064l0.123-0.062l-0.187-0.498c0.167,0,0.457-0.271,0.873-0.811c-0.209-0.331-0.542-0.498-0.996-0.498l-0.187-0.623
	l-1.122,0.5h-0.062l0.186-1.06l-0.124-0.313l-0.562,0.188l-0.187-0.375l0.562-1.121c-0.126-0.249-0.292-0.373-0.499-0.373v-0.187
	L25.02,10.906L25.02,10.906z M34.867,9.784l4.112,1.184l-0.499,0.498v0.125l0.562,1.059l-0.063,0.311l-0.499-0.062h-0.123
	l-0.063,0.062l0.063,0.998v0.187l-0.873-0.375c-0.209,0-0.312,0.124-0.312,0.375c-0.748,0.291-1.123,0.499-1.123,0.622v0.126
	c0.25,0.331,0.521,0.562,0.813,0.685L36.8,15.953l0.186,0.186h0.374c0.498,0,0.873-0.062,1.122-0.186v0.311
	c0,0.541-0.396,0.916-1.183,1.122h-0.125c-0.622,0-1.059-0.311-1.309-0.935l0.187-0.686v-0.374l-0.372-0.437h-0.188
	c-0.209,0.042-0.375,0.27-0.5,0.686l0.063,0.623c0,0.375-0.354,0.645-1.06,0.811h-0.127c-0.829,0-1.288-0.498-1.371-1.497v-0.124
	c0.956,0.333,1.621,0.498,1.994,0.498h0.063l-0.063-0.498v-0.064c0.623-0.249,0.977-0.498,1.06-0.747
	c-0.373-0.458-0.771-0.708-1.183-0.749V13.77l0.123-0.125v-0.373l-1.433,0.311l0.437-1.184c0-0.208-0.146-0.313-0.437-0.313
	l0.748-0.686l-0.312-1.744l0.062-0.063L34.867,9.784z M32.375,10.282l-0.314,0.311h-0.248l-0.312-0.311v-0.125l0.312-0.373
	C32.104,9.784,32.291,9.95,32.375,10.282L32.375,10.282z M22.903,9.908v0.249l-0.189-0.186V9.907L22.903,9.908L22.903,9.908z
	 M41.035,9.908h0.125v0.249h-0.187l-0.125-0.063L41.035,9.908z M15.859,10.095v0.063l-0.125,0.125l-0.186-0.188H15.859z
	 M15.236,10.407l0.125,0.063l-0.187,0.187h-0.125v-0.249L15.236,10.407L15.236,10.407z M48.7,10.47h0.125v0.311h-0.188l-0.125-0.124
	L48.7,10.47z M31.315,10.593l0.062,0.313h-0.062v0.187h-0.25v-0.5H31.315z M32.811,10.593v0.5H32.56l-0.062-0.313h0.062v-0.188
	h0.251V10.593z M23.338,10.968v0.125h-0.312v-0.187l0.064-0.126L23.338,10.968z M40.849,10.906v0.187l-0.063,0.062l-0.248-0.187
	v-0.062H40.849z M15.423,10.968v0.187l-0.062,0.125l-0.187-0.187L15.423,10.968z M23.836,11.093v0.062l-0.249,0.249v-0.311H23.836z
	 M40.287,11.28v0.124h-0.312l0.063-0.311L40.287,11.28z M48.514,11.093L48.7,11.28h-0.248v-0.187H48.514z M21.405,11.155h1.184
	l0.623,0.436c0,0.54,0.229,0.81,0.686,0.81l-0.188,0.747c-0.456,0-0.685,0.105-0.685,0.311l0.5,0.936v0.062h-1.124l-0.062,0.124
	l0.062,0.5c-0.289,0-0.56,0.228-0.809,0.686c0,0.249,0.332,0.458,0.996,0.624h0.125l-0.125,0.249v0.124l0.125,0.126
	c0.456-0.041,0.955-0.29,1.497-0.749h0.188v0.623c0,0.541-0.355,0.914-1.061,1.122h-0.312l-0.686-0.249
	c0-0.664-0.25-1.122-0.747-1.372h-0.188c-0.248,0.126-0.374,0.334-0.374,0.624c0,0.332,0.126,0.56,0.374,0.685
	c-0.084,0.541-0.208,0.811-0.374,0.811h-0.189c-0.414,0-0.85-0.271-1.305-0.811l1.305-0.311l-0.311-0.374l0.686-0.935
	c0-0.167-0.437-0.29-1.307-0.375c0-0.333-0.064-0.499-0.189-0.499l-1.121,0.686H18.54c0-0.498-0.312-0.894-0.935-1.186l-0.189,0.187
	l-0.373-0.123c0-0.25,0.229-0.708,0.685-1.372l-0.498-0.5C18.768,11.695,20.159,11.155,21.405,11.155L21.405,11.155z M41.347,11.155
	h0.188c1.578,0,3.24,0.541,4.985,1.619v0.125l-0.375,0.499l0.811,1.184l-0.436,0.313v-0.126l-0.064-0.123
	c-0.539,0-0.87,0.415-0.995,1.246h-0.125l-1.06-0.747c-0.165,0-0.25,0.165-0.25,0.498l-1.183,0.249v0.064
	c0,0.373,0.167,0.645,0.498,0.809h0.125c-0.042,0.334-0.146,0.5-0.311,0.5c0,0.208,0.457,0.311,1.371,0.311
	c-0.501,0.583-0.996,0.873-1.498,0.873c-0.208-0.125-0.372-0.313-0.497-0.562l0.437-0.809c0-0.375-0.147-0.603-0.437-0.686
	c-0.333,0-0.582,0.188-0.748,0.56v0.437l0.063,0.062l-0.81,0.5c-0.996-0.083-1.495-0.437-1.495-1.06v-0.749h0.125l1.493,0.811h0.127
	l0.062-0.062l-0.062-0.499c0.538,0,0.894-0.167,1.06-0.5v-0.125c-0.125-0.249-0.396-0.478-0.812-0.686l0.125-0.313
	c0-0.206-0.063-0.311-0.188-0.311h-0.125l-0.994,0.124l0.621-1.122l-0.188-0.186h-0.499l-0.248-0.687l0.622-0.498v-0.498
	C40.827,11.591,41.056,11.446,41.347,11.155L41.347,11.155z M15.859,11.404c0,0.666,0.229,1.351,0.687,2.056l-0.312,0.313H16.17
	l-0.436-1.371v-0.997L15.859,11.404L15.859,11.404z M15.049,11.466v0.187h-0.312v-0.187H15.049z M48.141,11.466l0.063,0.435
	c0,0.458-0.166,1.124-0.499,1.995h-0.062l-0.313-0.437c0.458-0.581,0.687-1.246,0.687-1.994h0.125V11.466z M32,11.591h0.062
	l0.314,0.872v0.311h0.186l0.312-0.187h0.125l-0.498,1.31L32,13.772h-0.125l-0.498,0.124l-0.375-1.31h0.064l0.312,0.187h0.125
	C31.666,11.986,31.834,11.591,32,11.591L32,11.591z M49.137,11.591v0.188l-0.123,0.123l-0.188-0.248v-0.062L49.137,11.591
	L49.137,11.591z M23.897,11.901v0.064h-0.311v-0.188l0.123-0.125L23.897,11.901z M40.287,11.779v0.188l-0.123,0.123l-0.188-0.188
	v-0.124h0.312V11.779z M15.361,12.089v0.187h-0.125l-0.187-0.187H15.361z M48.825,12.152l-0.187,0.249h-0.125v-0.249H48.825z
	 M14.925,12.587h0.124v0.313H14.86l-0.123-0.125L14.925,12.587z M24.334,12.651l0.562,0.997c0.124,0,0.188-0.083,0.188-0.249h0.123
	v0.249l-0.123,0.749h-0.25l-0.623,0.186c-0.167-0.041-0.374-0.352-0.623-0.934l0.498,0.125v-0.624l0.125-0.498L24.334,12.651
	L24.334,12.651z M39.042,13.647c0.332-0.665,0.538-0.997,0.624-0.997h0.122l0.188,1.246l0.313-0.249h0.065l-0.5,0.998l-0.312-0.188
	h-0.686l-0.188-1.06l0.312,0.249L39.042,13.647L39.042,13.647z M49.014,12.651v0.311l-0.188-0.188V12.65L49.014,12.651
	L49.014,12.651z M15.423,12.961v0.313h-0.062l-0.125-0.126L15.423,12.961z M48.514,13.086l0.125,0.062l-0.188,0.25v-0.311
	L48.514,13.086L48.514,13.086z M15.361,13.584l0.062,0.063l-0.187,0.249h-0.062v-0.249l0.062-0.063H15.361z M48.639,13.647H48.7
	v0.313h-0.187l-0.063-0.064L48.639,13.647z M31.189,14.27v0.126l-0.124,0.062v0.498l0.124,0.125
	c-0.458,0.249-0.853,0.375-1.184,0.375l-0.125-0.5c-0.415,0-0.748-0.103-0.997-0.311v-0.064l0.124-0.124
	c0.664-0.125,0.998-0.249,0.998-0.375v-0.187l-0.125-0.124C30.295,13.772,30.732,13.938,31.189,14.27L31.189,14.27z M33.869,13.772
	h0.125l-0.125,0.311v0.064c0.414,0,0.789,0.167,1.121,0.499v0.123l-1.121,0.375v0.125l0.125,0.124v0.064
	c-0.333,0-0.729-0.126-1.184-0.375l0.063-0.436l-0.063-0.499L33.869,13.772z M48.141,13.959v0.311h-0.125l-0.063-0.124
	L48.141,13.959z M31.813,14.146h0.062c0.333,0,0.54,0.146,0.623,0.435c0,0.292-0.208,0.479-0.623,0.562l-0.373-0.375v-0.311
	L31.813,14.146z M26.329,14.27h0.064v0.126l-0.064,0.062v0.124c0.663,0.043,0.998,0.146,0.998,0.313v0.062
	c-0.541,0.249-0.811,0.416-0.811,0.5v0.124l0.062,0.062h-0.249l-0.747-0.062v-0.187l-0.062-0.747L26.329,14.27z M37.672,14.395
	l0.809,0.25l-0.123,0.747v0.187l-0.873,0.187h-0.125l0.125-0.311c0-0.083-0.312-0.251-0.935-0.5v-0.062l0.125-0.126
	c0.662-0.083,0.997-0.187,0.997-0.311V14.395z M15.859,14.645v0.123h-0.187v-0.311L15.859,14.645z M48.202,14.581l0.125,0.064
	l-0.188,0.249h-0.125v-0.313H48.202z M24.708,14.768c0.332,0,0.498,0.208,0.498,0.624v0.064l-0.311,0.311h-0.313
	c-0.123-0.041-0.249-0.207-0.373-0.498C24.376,14.936,24.544,14.768,24.708,14.768L24.708,14.768z M23.09,14.894
	c0.621,0,0.935,0.331,0.935,0.996c-0.375,0.249-0.687,0.374-0.935,0.374c0-0.206-0.334-0.374-0.999-0.498
	c0.042-0.166,0.355-0.374,0.936-0.623V15.08l-0.123-0.125v-0.062L23.09,14.894L23.09,14.894z M39.042,14.894h0.312l0.313,0.249
	v0.313l-0.313,0.311h-0.312l-0.248-0.311v-0.313L39.042,14.894z M16.733,14.956c0.332,0,0.601,0.166,0.809,0.5
	c0.126,0,0.188-0.104,0.188-0.313h0.125c0.166,0.083,0.25,0.291,0.25,0.623v0.686l-0.25,0.126c-0.498-0.664-1.037-0.998-1.62-0.998
	h-0.188v-0.124C16.087,15.247,16.316,15.081,16.733,14.956L16.733,14.956z M40.537,14.956h0.498v0.125l-0.063,0.063
	c0.581,0.374,0.87,0.623,0.87,0.747l-0.497,0.064h-0.498v0.436c-0.208,0-0.497-0.166-0.872-0.5v-0.124l0.063-0.125v-0.561
	L40.537,14.956z M47.143,15.081c0.373,0,0.645,0.166,0.811,0.499v0.062h-0.438c-0.456,0-0.871,0.333-1.247,0.998l-0.437-0.249v-0.5
	c0-0.331,0.106-0.539,0.313-0.622h0.124v0.188h0.188C46.748,15.205,46.976,15.081,47.143,15.081L47.143,15.081z M28.509,15.392
	l0.062,0.249c0,0.208-0.062,0.313-0.185,0.313h-0.064l-0.124-0.313l0.124-0.249H28.509z M35.678,15.392v0.562l-0.126,0.124
	l-0.187-0.187v-0.249L35.678,15.392z M32.062,15.579c0.208,1.248,0.749,1.868,1.622,1.868h0.374
	c0.871-0.206,1.308-0.538,1.308-0.996c0.458,0.873,1.06,1.309,1.808,1.309c1.204-0.249,1.807-0.789,1.807-1.621h0.063l0.125,0.125
	l-0.125,0.313c0,0.955,0.603,1.557,1.807,1.808c0.788-0.208,1.184-0.416,1.184-0.624h0.125l0.124,0.124
	c0.042,0.623,0.292,0.936,0.748,0.936c0.5,0,1.163-0.354,1.994-1.06h0.125c-0.622,0.915-1.247,1.372-1.869,1.372h-0.438
	c-0.29-0.083-0.562-0.375-0.811-0.873l-0.996,0.313c-1.037,0-1.766-0.478-2.18-1.434c-0.541,0.54-1.038,0.811-1.496,0.811h-0.498
	c-0.334,0-0.79-0.271-1.371-0.811h-0.125c-0.623,0.416-1.06,0.623-1.31,0.623c-0.872,0-1.558-0.374-2.056-1.122
	c-0.665,0.748-1.226,1.122-1.684,1.122c-0.623,0-1.204-0.207-1.745-0.623h-0.062c-0.582,0.54-1.121,0.811-1.62,0.811h-0.187
	c-0.624,0-1.122-0.271-1.498-0.811c-0.662,0.872-1.225,1.309-1.68,1.309h-0.688l-0.809-0.313c-0.375,0.624-0.75,0.937-1.122,0.937
	h-0.064c-0.788,0-1.453-0.478-1.993-1.435h0.064c0.83,0.749,1.431,1.122,1.806,1.122h0.375c0.413-0.208,0.621-0.539,0.621-0.997
	h0.188c0.375,0.334,0.769,0.498,1.186,0.498h0.123c1.08-0.165,1.621-0.623,1.621-1.371v-0.749h0.187c0,0.791,0.562,1.33,1.684,1.621
	c0.912,0,1.473-0.394,1.683-1.184h0.123c0.458,0.581,0.913,0.871,1.372,0.871h0.436c0.873,0,1.392-0.622,1.558-1.868H32.062z
	 M19.412,15.767l0.311,0.311h0.873v0.062l-0.683,0.623l0.187,0.313l-0.748,0.062c-0.25,0-0.52-0.167-0.81-0.499
	C18.54,16.348,18.83,16.058,19.412,15.767L19.412,15.767z M45.46,16.577v0.062l-0.498,0.499h-1.123l0.188-0.249l-0.685-0.749
	c0.749,0,1.122-0.124,1.122-0.373C44.962,16.016,45.293,16.286,45.46,16.577L45.46,16.577z M21.842,17.075l-0.126,0.311
	c-0.082,0-0.185-0.145-0.311-0.437l0.126-0.311C21.612,16.638,21.716,16.786,21.842,17.075L21.842,17.075z M42.468,16.762h0.064
	v0.126l-0.064,0.498h-0.311C42.157,17.054,42.26,16.848,42.468,16.762L42.468,16.762z M18.54,17.262v0.124l-0.188,0.187
	c-0.292-0.167-0.457-0.332-0.499-0.498v-0.126l0.064-0.062C18.206,16.888,18.415,17.012,18.54,17.262L18.54,17.262z M45.833,16.95
	h0.125l0.188,0.188l-0.374,0.436H45.46v-0.187L45.833,16.95z M32.375,17.635v0.125l-0.5-0.125h-0.187l-0.125,0.125v-0.187
	l0.125-0.126c0.208,0,0.312-0.062,0.312-0.186L32.375,17.635z M28.823,17.635v0.249h-0.437v-0.249l0.123-0.062L28.823,17.635z
	 M35.365,17.635l0.188,0.249H35.18v-0.249H35.365z M25.207,17.76l0.375,0.188v0.186h-0.686l0.188-0.373L25.207,17.76L25.207,17.76z
	 M38.667,17.884h0.127l0.248,0.249v0.125l-0.686-0.125L38.667,17.884z M32,18.072c2.2,0.042,4.383,0.208,6.544,0.5
	c2.283,0.373,3.779,0.768,4.485,1.184v0.063c-3.532-0.914-6.979-1.371-10.345-1.371h-1.496c-3.45,0-6.834,0.437-10.158,1.308h-0.124
	v-0.187C24.313,18.571,28.012,18.072,32,18.072L32,18.072z M7.944,18.756v0.064l0.25,0.25c-0.167,0.123-0.25,0.354-0.25,0.685H7.571
	l-1.184,0.187l-0.312-0.125c-0.956,0.583-1.455,1.02-1.496,1.309c0,0.498,0.333,0.998,0.996,1.497L5.7,22.56h0.188v0.062H5.701
	v0.124c0.166,0.29,0.249,0.623,0.249,0.998v0.062H4.768L4.58,24.054v1.87c0.664,0.373,1.038,0.664,1.122,0.873v0.249
	c-0.207,0-0.373,0.124-0.497,0.374v0.185c0,0.208,0.124,0.313,0.372,0.313v6.794l0.125,0.062l0.249-0.248v-6.231h3.429v5.608
	l0.062,0.124l0.25-0.25v-5.232l-0.125-0.125h0.125l0.062-0.124H9.94v5.608h0.25v-5.358l0.187-0.249h0.375v5.481l0.187,0.25
	l0.25-0.25V27.92c0.165,0,0.289-0.125,0.373-0.374l-0.5-0.626v-0.124l0.499-0.562c0.415,0,0.623-0.103,0.623-0.311v-1.87
	l-0.25-0.249h-1.245l0.25-1.184H10.75v-0.188l0.437,0.188l0.745-0.811v-0.375c0-0.498-0.415-1.037-1.246-1.62l-0.437,0.125h-0.062
	l-0.81-0.188H8.756l-0.187-0.684l0.187-0.25l-0.375-0.374H8.256L7.944,18.756z M30.38,18.82h3.177c2.201,0,5.109,0.416,8.724,1.245
	v0.187l-1.496,0.187c0.373,0.457,0.665,0.686,0.873,0.686v0.437h-0.125c-3.198-0.83-6.418-1.248-9.659-1.248
	c-3.366,0-6.543,0.417-9.535,1.248v-0.311l0.749-0.811v-0.125l-1.374-0.186C22.38,19.588,25.269,19.152,30.38,18.82L30.38,18.82z
	 M55.306,19.256l0.188,0.312l-0.375,0.684v-0.436h-0.123c-0.125,0-0.188,0.105-0.188,0.313h-0.125c0-0.208-0.063-0.313-0.188-0.313
	h-0.063v0.436l-0.312-0.311l-0.188,0.188l0.188,0.311h-0.123l-0.562-0.311c-0.167,0-0.25,0.104-0.25,0.311h-0.063
	c0-0.206-0.063-0.311-0.187-0.311h-0.125l-0.123,0.124l0.123,0.313v0.062h-0.187L52.5,20.315l-0.188,0.251l0.188,0.185v0.063
	l-0.062,0.124h-0.126l-0.125-0.124h-0.186v0.124l0.186,0.313v0.062l-0.25,0.124l0.189,0.313v0.062l-0.125,0.125l0.125,0.124h0.062
	l0.125-0.124h0.126v0.124l-0.126,0.064v0.124c0.664,0.458,1.037,1.019,1.121,1.683h-1.308l-0.189,0.188v2.118l0.064,0.062
	c0.498,0,0.829,0.208,0.995,0.624v0.125L52.5,27.547v0.188c0,0.208,0.146,0.311,0.437,0.311v5.859l0.186,0.188l0.188-0.188v-5.483
	h3.301l0.189,0.187v5.795h0.189v-5.795l-0.062-0.062h0.062l0.125-0.125h0.187l0.125,0.125v0.062l-0.125,0.126v5.795l0.125,0.063
	l0.188-0.188v-5.982h0.498v6.293l0.188,0.187l0.187-0.187v-6.668c0.292,0,0.438-0.103,0.438-0.311v-0.126l-0.498-0.56v-0.249
	l0.062-0.062c0.207,0,0.312-0.104,0.312-0.313c0.416-0.083,0.624-0.187,0.624-0.311v-2l-0.25-0.188h-1.188v-0.125l0.312-0.996
	v-0.063H58.11v-0.124h0.187l0.127,0.124h0.062l0.81-0.686v-0.249l-0.124-0.062l0.25-0.187v-0.25h-0.313v-0.187l0.313-0.062
	l-0.25-0.249h-0.188l-0.062,0.124l0.062-0.499h-0.312v0.188h-0.063v-0.375h-0.312v0.187l-0.188-0.187l-0.686,0.187h-0.125v-0.125
	l0.125-0.062v-0.187l-0.125-0.124c-0.124,0-0.187,0.105-0.187,0.311h-0.187v-0.187l0.063-0.124h-0.062l-0.126-0.125
	c-0.124,0-0.189,0.105-0.189,0.313h-0.123l-0.062-0.313c-0.167,0-0.251,0.146-0.251,0.436h-0.061c0-0.332-0.063-0.559-0.188-0.684
	l0.188-0.312l-0.436-0.436L55.306,19.256z M28.696,19.628c0.208,0.417,0.416,0.624,0.624,0.624c0.29-0.124,0.457-0.268,0.498-0.436
	v-0.372c-0.042-0.125-0.208-0.251-0.498-0.374C28.904,19.236,28.696,19.423,28.696,19.628L28.696,19.628z M30.38,19.444v0.311
	c0.123,0.25,0.352,0.375,0.685,0.375h1.806c0.456,0,0.687-0.229,0.687-0.686l-0.374-0.374h-2.367L30.38,19.444z M34.181,19.444
	v0.372c0.042,0.168,0.206,0.313,0.498,0.436c0.414-0.207,0.624-0.416,0.624-0.624c-0.167-0.289-0.314-0.455-0.438-0.497h-0.374
	L34.181,19.444z M25.395,19.816v0.313c0.04,0.166,0.206,0.311,0.497,0.436c1.414,0,2.12-0.313,2.12-0.936l-0.313-0.373
	C26.163,19.256,25.395,19.444,25.395,19.816L25.395,19.816z M35.988,19.628v0.313c0.126,0.416,0.851,0.624,2.181,0.624
	c0.125-0.042,0.25-0.208,0.375-0.5c0-0.538-0.729-0.809-2.181-0.809L35.988,19.628z M33.06,19.444l0.124,0.124l-0.188,0.187h-1.995
	l-0.186-0.187v-0.124H33.06z M29.383,19.568v0.187h-0.312v-0.187H29.383z M27.576,19.628v0.125c0,0.126-0.562,0.25-1.684,0.375
	v-0.064l-0.061-0.124v-0.125L27.576,19.628z M38.169,19.941v0.124l-0.125,0.064l-1.681-0.188v-0.313L38.169,19.941z M23.526,20.065
	v0.374l0.372,0.375c0.458,0,0.686-0.227,0.686-0.684l-0.373-0.375h-0.125C23.752,19.753,23.565,19.858,23.526,20.065L23.526,20.065z
	 M39.352,20.128v0.311l0.437,0.375h0.25l0.436-0.375c0-0.374-0.164-0.603-0.498-0.686C39.685,19.753,39.479,19.88,39.352,20.128
	L39.352,20.128z M8.444,19.941v0.686l-0.188,0.187v-0.873H8.444z M6.075,20.128c0.457,0,0.954,0.477,1.496,1.433v0.062H7.384
	c0-0.165-0.166-0.394-0.498-0.685H6.762v0.498H6.575l-0.126-0.124l0.25-0.249c-0.291-0.54-0.541-0.811-0.748-0.811v-0.124H6.075z
	 M10.563,20.128h0.188v0.124l-0.686,0.313v0.185h0.186l-0.186,0.313l0.186,0.188l-0.186,0.186H9.877v-0.124l0.062-0.062v-0.437
	c-0.373,0.373-0.56,0.646-0.56,0.809H9.193C9.193,21.167,9.648,20.668,10.563,20.128L10.563,20.128z M24.085,20.128l0.125,0.124
	v0.062l-0.125,0.125l-0.188-0.187v-0.124H24.085z M40.038,20.314v0.125h-0.25v-0.187l0.063-0.124L40.038,20.314z M55.806,20.565
	v0.185l-0.187,0.188v-0.624L55.806,20.565z M54.684,20.439h0.436v0.311h-0.935l-0.062,0.064V20.75
	C54.123,20.587,54.31,20.482,54.684,20.439L54.684,20.439z M56.429,20.439h0.249l0.498,0.126v0.185h-0.998v-0.123L56.429,20.439z
	 M22.216,20.627l-0.313,0.311l-0.188-0.188v-0.123l0.126-0.062L22.216,20.627z M6.449,20.627l0.25,0.187h0.064V20.75l-0.188-0.185
	H6.449V20.627z M42.032,20.627l0.249,0.187v0.124H41.97l-0.188-0.188v-0.123H42.032z M22.03,22.123
	c2.658-0.913,5.941-1.374,9.845-1.374c4.113,0,7.477,0.501,10.095,1.498l-0.312,0.312h-0.125v-0.25
	c-2.533-0.83-5.754-1.246-9.659-1.246c-2.825,0-5.276,0.229-7.354,0.686c-1.412,0.126-2.12,0.395-2.12,0.811
	c-0.249-0.126-0.372-0.228-0.372-0.312L22.03,22.123L22.03,22.123z M53.188,20.75h0.123l0.188,0.188
	c-0.332,0-0.603,0.063-0.809,0.187h-0.063v-0.062C52.627,20.896,52.813,20.793,53.188,20.75L53.188,20.75z M58.11,20.75
	c0.332,0,0.562,0.126,0.686,0.375l-0.872-0.187V20.75H58.11z M8.381,20.938h0.063v0.313H8.256l-0.062-0.126L8.381,20.938z
	 M55.806,21.125v0.311h-0.125l-0.187-0.186v-0.126L55.806,21.125L55.806,21.125z M54.123,21.312v0.25h-0.312v-0.25H54.123z
	 M31.875,21.436c2.575,0,5.298,0.272,8.163,0.811v0.187c-2.907,0.54-5.524,0.811-7.851,0.811c-2.826,0-5.609-0.313-8.352-0.936
	v-0.062C26.494,21.708,29.175,21.436,31.875,21.436L31.875,21.436z M7.199,21.562l0.185,0.187L7.26,22.248H7.199l-0.25-0.188
	l-0.064,0.064H6.762l0.311-0.313v-0.062l-0.124-0.126v-0.062L7.199,21.562L7.199,21.562z M9.691,21.562h0.062v0.187l-0.062,0.062
	l0.374,0.437l-0.312-0.125H9.691l-0.125,0.124l-0.312-0.312L9.691,21.562z M56.178,21.749h-0.247v-0.126l0.063-0.062L56.178,21.749z
	 M6.387,21.623h0.062v0.188H6.201L6.387,21.623z M8.194,21.749v0.187h0.375v-0.187h0.497v0.062c0,0.166-0.227,0.272-0.686,0.313
	c-0.458-0.041-0.685-0.147-0.685-0.313v-0.062H8.194z M27.576,23.306v0.125h-0.498c-0.79,0-2.244-0.271-4.363-0.811v-0.062
	l0.124-0.126C24.998,23.017,26.578,23.306,27.576,23.306L27.576,23.306z M36.363,23.431c2.2-0.333,3.801-0.623,4.797-0.873v0.186
	c-1.372,0.333-2.908,0.603-4.61,0.81h-0.187V23.431z M7.384,22.746l0.064,0.064L7.26,23.058H7.199v-0.313H7.384z M7.884,22.746
	l0.062,0.312H7.697v-0.126L7.884,22.746z M9.441,22.746h0.125l-0.125,0.374l-0.187-0.188L9.441,22.746z M54.684,22.809v0.436h-0.188
	v-0.436H54.684z M55.306,22.809v0.436h-0.188l-0.122-0.436H55.306z M56.303,22.809v0.123c0,0.208-0.062,0.313-0.187,0.313
	l0.062-0.436H56.303z M56.928,23.057v0.188h-0.315v-0.313l0.064-0.123L56.928,23.057z M6.262,22.931l0.187,0.188v0.126H6.262
	L6.2,22.933h0.062V22.931z M10.563,22.931l-0.313,0.313v-0.313H10.563z M53.812,23.057v0.25h-0.125l-0.188-0.188v-0.062H53.812z
	 M57.924,23.057l-0.125,0.375h-0.187l-0.125-0.125l0.125-0.25H57.924z M7.697,23.306v0.125H7.26v-0.125H7.697z M9.379,23.306v0.125
	H8.942v-0.125H9.379z M6.699,23.431h0.374v0.124c-0.332,0-0.498,0.062-0.498,0.188H6.262v-0.188L6.699,23.431z M10.065,23.431v0.124
	H9.566v-0.124H10.065z M55.681,23.431l1.745,0.124v0.062h-0.312l-1.434-0.062c-1.081,0-1.745,0.084-1.994,0.25h-0.062
	C53.625,23.555,54.31,23.431,55.681,23.431L55.681,23.431z M10.438,23.555l-0.188,0.188h-0.062v-0.188H10.438z M16.733,23.93
	l0.873,0.124h14.208V35.77l-0.125,0.125c-1.123,0.209-2.119,0.663-2.992,1.371h-1.183v-4.551c0.374,0,0.56-0.063,0.56-0.186V30.41
	l-0.186-0.188h-0.81v-1.184c0.29,0,0.436-0.083,0.436-0.249v-1.06l-0.187-0.188h-0.313c-0.124,0-0.187,0.083-0.187,0.249h-0.25
	c0-0.166-0.062-0.249-0.186-0.249h-0.374c-0.126,0-0.187,0.083-0.187,0.249h-0.125c0-0.166-0.063-0.249-0.186-0.249h-0.314
	l-0.187,0.188v1.184c0.249,0,0.375,0.064,0.375,0.187v0.934l-0.189,0.188h-0.311v-2.989c0.416,0,0.624-0.064,0.624-0.188v-1.248
	l-0.189-0.187h-0.436c-0.125,0-0.188,0.104-0.188,0.313h-0.125c0-0.208-0.063-0.313-0.186-0.313h-0.562
	c-0.167,0-0.249,0.104-0.249,0.313l-0.375-0.313h-0.31l-0.189,0.187v1.248c0,0.124,0.167,0.188,0.498,0.188v2.989l-0.498-0.124
	v-1.186c0.249,0,0.375-0.063,0.375-0.186v-0.998l-0.187-0.188h-0.314c-0.123,0-0.188,0.083-0.188,0.249h-0.062
	c0-0.166-0.083-0.249-0.25-0.249h-0.374c-0.123,0-0.185,0.083-0.185,0.249l-0.437-0.249h-0.252l-0.248,0.188v1.06l0.125,0.124
	c0.249,0,0.375,0.064,0.375,0.187v0.998h-0.75l-0.248,0.187v2.243c0,0.123,0.167,0.186,0.498,0.186v4.363l0.125,0.125h-0.125
	l-0.063,0.063H19.59l-0.188,0.25v2.367l0.126,0.126l4.673,0.063h2.804l-0.437,2.117H16.411l-0.062-0.312l0.062-0.125V24.117
	l-0.062-0.063L16.733,23.93z M47.703,24.054v18.134l-0.061,0.063l-0.687-0.063h-9.472c0-2.574-1.208-4.548-3.616-5.919
	c-1.039-0.208-1.557-0.374-1.557-0.499V24.054H47.703z M5.764,24.241h5.921l0.062,0.064v0.124l-0.062,0.126v1.059l0.062,0.125H4.955
	l0.124-1.122l-0.124-0.374l0.124-0.124L5.764,24.241z M58.983,24.305v1.62h-6.479l-0.188-0.188v-1.433L58.983,24.305L58.983,24.305z
	 M40.785,24.927l-0.123,0.126l0.187,0.747v0.313c-0.375,0.167-0.562,0.311-0.562,0.437l-0.249,0.187
	c-0.664,0-0.996,0.104-0.996,0.311l0.312,0.746h0.687v0.125l-0.064,0.124l-0.622-0.124c-0.746-0.539-1.205-0.81-1.371-0.81h-0.437
	l-0.187,0.188c0.581,0.746,1.08,1.121,1.496,1.121h0.437v0.187c-0.209,0-0.313,0.063-0.313,0.188l0.372,0.498
	c-0.04,0.208-0.227,0.311-0.558,0.311h-0.75c-1.33-0.581-1.994-1.037-1.994-1.371l0.313-0.809v-0.125
	c0-0.333-0.126-0.56-0.375-0.686h-0.187v0.311l-0.312,0.811c-0.292-0.249-0.604-0.394-0.937-0.437
	c-0.331,0.083-0.498,0.188-0.498,0.31v0.126c0.289,0,0.498,0.187,0.623,0.562h0.188v0.124c-0.584,0.249-0.873,0.54-0.873,0.872
	l0.063,0.126l0.498-0.126h0.81l0.125,0.126c0,0.208,0.063,0.311,0.188,0.311l-0.374,0.311c0,0.126,0.188,0.209,0.561,0.251v0.249
	l-0.063,0.062c0.911,0.334,1.434,0.665,1.557,0.997c-0.497,0.458-0.894,0.687-1.183,0.687h-0.313c0-0.251-0.104-0.374-0.312-0.374
	H34.99l-0.437,0.311v0.064c0.415,0.124,0.663,0.289,0.749,0.497v0.125c-0.334,0-0.604,0.229-0.812,0.687l0.063,0.123l0.313-0.123
	l0.498,0.123c0.208,0.667,0.414,0.998,0.622,0.998l0.188-0.188v-0.125l-0.125-0.123l0.313-0.374v-0.498l0.685-0.126l0.125,0.437
	l0.622-0.498h0.063l0.125,0.063h0.188c0-0.205,0.164-0.394,0.498-0.562h0.188c0.497,1.039,1.06,1.56,1.681,1.56v0.249h-1.059
	c-0.622,0-0.935,0.52-0.935,1.558c0.289,0.25,0.437,0.459,0.437,0.623h0.187l0.127-0.125v0.187l-0.25,0.25h-0.498l-0.064-0.125
	c-0.123-0.538-0.437-0.81-0.935-0.81c-0.334,0.042-0.497,0.147-0.497,0.312v0.123c0.249,0,0.454,0.189,0.623,0.563v0.125h-0.126
	l-0.063-0.125h-0.125c-0.458,0.209-0.729,0.438-0.81,0.685l0.25,0.251l0.248-0.251l0.498,0.314h0.126l0.123-0.063
	c0,0.707,0.126,1.059,0.374,1.059h0.125l0.373-0.995l1.62,0.187l0.25-0.374l-0.25-1.62h0.063l0.123-0.063h0.562v0.063l-0.062,0.124
	v0.313c0,0.498,0.271,0.996,0.81,1.494l0.188-0.186l0.187,0.186c0.124,0,0.188-0.145,0.188-0.437l0.312,0.313v0.312
	c-1.081,0.126-1.621,0.417-1.621,0.871l0.123,0.127l0.375-0.188l0.437,0.062l-0.188,0.812v0.188l0.249,0.313h0.125
	c0-0.29,0.166-0.456,0.499-0.498l0.622,0.686l0.188-0.188v-0.063l-0.125-0.126l0.313-0.371v-0.252l-0.188-0.248v-0.129
	c0-0.5,0.229-1.06,0.686-1.683v-0.123l-0.188-0.313c-0.622-0.375-0.935-0.726-0.935-1.06c0-0.331,0.147-0.664,0.438-0.996
	c0.995,0,1.559-0.562,1.682-1.683v-0.25c-0.539-1.702-0.81-2.719-0.81-3.053c0-0.373,0.165-0.643,0.498-0.809
	c0.581-0.998,0.956-1.537,1.122-1.621c0-0.124-0.146-0.188-0.436-0.188v-0.062c0.331-0.415,0.498-0.788,0.498-1.121v-0.126
	l-0.063-0.062l-0.996,0.686h-0.125l-0.187-0.499l-0.124,0.126c-0.375,0.872-0.624,2.16-0.749,3.863l0.562,2.865
	c0,0.498-0.188,0.833-0.562,0.997h-0.81c-0.664-0.499-1.162-1.329-1.496-2.493h0.188v0.249h0.313v-1.122l0.311,0.313
	c0.084,0,0.167-0.167,0.25-0.498v-0.125l-0.064-0.062v-0.125h0.189l0.124,0.313l0.188-0.188v-0.125c0-0.25-0.166-0.54-0.499-0.873
	v-0.312h0.063l0.125,0.062h0.125l-0.125-1.184v-0.313c0.04-0.166,0.312-0.249,0.81-0.249h0.312l0.063,0.062v-0.062l0.124-0.124
	c0-0.125-0.226-0.25-0.685-0.374l0.063-0.437c0-0.125-0.186-0.187-0.56-0.187c0-0.416-0.085-0.624-0.25-0.624h-0.499l-0.188-0.499
	l-0.31,0.126l-0.687-0.5L40.785,24.927L40.785,24.927z M41.845,26.048l0.188,0.188v0.062l-0.249-0.249L41.845,26.048L41.845,26.048z
	 M42.468,26.548l0.189,0.187h-0.125l-0.188-0.187H42.468z M10.688,26.609v0.437H6.075v-0.437H10.688z M57.985,26.735v0.499h-4.549
	v-0.499H57.985z M40.785,26.797l0.188,0.249h-0.188l-0.248-0.249H40.785z M11.062,27.42v0.185h-4.86l-0.499-0.062V27.42H11.062z
	 M53.125,27.543h1.06l0.749,0.062l0.063-0.062v0.062h3.428v0.126H52.94L53.125,27.543z M22.03,33.774h0.187l0.311,0.314v0.81
	l-0.187,0.187h-0.498v-1.06L22.03,33.774z M25.892,33.774h0.188c0.208,0.086,0.313,0.292,0.313,0.624v0.498l-0.188,0.188h-0.499
	v-1.06L25.892,33.774z M10.688,35.271c0.042-0.456,0.125-0.686,0.25-0.686h0.124c-0.498,1.456-0.832,2.18-0.996,2.18H9.94
	l-1.061-1.994V34.71h0.562l0.748,1.371L10.688,35.271z M12.681,34.586l0.562,0.188v0.25l-0.687-0.25l-0.312,0.312v0.125l0.998,0.811
	v0.373c-0.042,0.208-0.271,0.374-0.687,0.497c-0.539-0.039-0.811-0.145-0.811-0.311v-0.188h0.125l0.374,0.313h0.312l0.311-0.313
	v-0.124l-0.996-0.872C11.872,34.982,12.14,34.711,12.681,34.586L12.681,34.586z M51.131,36.269c0.251-1.036,0.437-1.558,0.562-1.558
	h0.125l-0.623,2.18h-0.25l-1.308-1.806v-0.062l0.498-0.125l0.873,1.371L51.131,36.269L51.131,36.269z M53.125,34.711v1.869h0.811
	v0.188h-1.309v-2.056L53.125,34.711L53.125,34.711z M55.431,34.771h0.375l0.186,0.25v0.063h-0.063l-0.122-0.063h-0.313
	c-0.21,0-0.313,0.623-0.313,1.869h-0.498l0.125-1.682c0-0.208-0.21-0.313-0.624-0.313V34.71L55.431,34.771z M7.447,35.023
	c0.207,1.163,0.375,1.744,0.498,1.744l0.748-0.063v0.186l-1.31,0.188l-0.434-1.995L7.447,35.023z M58.172,35.706
	c0,0.375-0.187,0.563-0.56,0.563v0.124l0.373,1.121c-0.458,0-0.789-0.373-0.996-1.121c-0.166,0-0.271,0.271-0.312,0.811
	l-0.375-0.125c0-0.456,0.126-1.122,0.375-1.994C57.674,35.209,58.172,35.417,58.172,35.706L58.172,35.706z M5.764,35.396
	c0.332,0,0.54,0.209,0.623,0.623c-0.166,0.29-0.479,0.538-0.935,0.746L5.701,37.7l-0.313,0.063C4.85,36.727,4.58,36.061,4.58,35.77
	L5.764,35.396z M56.989,35.895c0,0.209,0.063,0.312,0.188,0.312h0.249c0.165-0.083,0.248-0.289,0.248-0.621l-0.373-0.313
	C57.176,35.271,57.073,35.479,56.989,35.895L56.989,35.895z M5.205,35.706L5.079,35.77c0.126,0.54,0.25,0.811,0.374,0.811
	l0.437-0.312c0-0.331-0.104-0.519-0.313-0.563H5.205z M60.166,36.269l0.314,0.247c-0.125,0.5-0.189,1.185-0.189,2.058v0.125
	l-0.498-0.125v-0.686l-0.622-0.497h-0.188l-0.375,0.31h-0.312L60.166,36.269z M27.389,40.756c0.912-2.824,2.45-4.24,4.611-4.24
	c0.829,0.042,1.392,0.169,1.683,0.375c2.202,1.164,3.302,2.991,3.302,5.483c0,0.583-0.105,1.207-0.312,1.872
	c-0.914,2.656-2.409,3.987-4.486,3.987l-0.998-0.064C28.531,47.216,27.2,45.325,27.2,42.5v-0.126
	C27.2,41.587,27.263,41.046,27.389,40.756L27.389,40.756z M59.294,37.203c0.043,0.124,0.208,0.249,0.499,0.375l0.188-0.563v-0.125
	h-0.313L59.294,37.203z M9.939,37.516v4.735l0.126,0.124h0.124l0.062-0.124l-0.062-0.374l0.062-0.871l-0.062-2.431l0.062-1.185
	l-0.062-0.125L9.939,37.516z M10.75,37.516v4.361l0.124,0.127c0.623-0.375,1.248-0.915,1.87-1.623v-0.124
	c-0.375-0.374-0.894-0.562-1.557-0.562v-2.18l-0.25-0.25L10.75,37.516z M52.938,37.578v2.18c-1.08,0.208-1.621,0.417-1.621,0.623
	v0.126c0.706,0.789,1.331,1.309,1.871,1.558v-0.063l0.123-0.125v-4.299l-0.188-0.188L52.938,37.578z M9.379,42.562l0.062,0.125
	l0.25-0.187v-4.986H9.379V42.562z M24.023,37.7c0.332,0,0.56,0.127,0.685,0.375v1.62h-1.307v-1.497
	C23.565,37.867,23.773,37.7,24.023,37.7L24.023,37.7z M28.198,42.501l0.124,0.995c0.79,2.369,1.913,3.552,3.366,3.552h0.997
	c2.121-0.829,3.179-2.263,3.179-4.299v-0.745l-0.313-1.623c-0.956-1.786-1.974-2.681-3.054-2.681h-0.935
	C29.32,38.45,28.198,40.049,28.198,42.501L28.198,42.501z M32.062,38.075h0.498c1.954,0.747,2.931,2.141,2.931,4.175v0.312
	c0,0.583-0.063,1.02-0.187,1.31c-0.625,1.869-1.704,2.804-3.242,2.804h-0.373c-1.995-0.58-2.992-1.911-2.992-3.988v-0.622
	C29.03,39.405,30.151,38.075,32.062,38.075L32.062,38.075z M56.802,43.871h0.188v-5.794h-0.188V43.871L56.802,43.871z M5.576,38.387
	v0.623l-0.686-0.125H4.768c-0.458,0-0.915,0.373-1.371,1.123v0.372l0.56,0.624c1.08,0.208,1.62,0.373,1.62,0.498v2.742l0.188,0.251
	l0.187-0.249v-5.859l-0.187-0.188L5.576,38.387z M57.299,44.183h0.313v-5.984h-0.313V44.183z M58.11,38.575v5.794l0.187,0.188h0.188
	v-3.054c0.996,0,1.725-0.333,2.181-0.996c0-0.498-0.353-0.978-1.06-1.435h-1.121v-0.498l-0.188-0.188L58.11,38.575z M29.819,40.257
	l0.063,0.438c-0.458,0-0.729,0.167-0.81,0.497c0,0.208,0.104,0.438,0.312,0.686l0.311-0.125c0.209,0,0.313,0.085,0.313,0.252
	c-0.292,0-0.437,0.062-0.437,0.185v0.063l0.249,0.25l-0.125,0.374V43l0.125,0.062h0.063L30.008,43l0.311,0.187h0.064L30.567,43
	l0.313,0.062h0.124l-0.124-0.373l0.312-0.437v-0.063c0-0.123-0.124-0.185-0.373-0.185v-0.252h0.062l0.499,0.125l0.312-0.623
	c0-0.331-0.29-0.518-0.872-0.56v-0.125l0.062-0.063v-0.126c0-0.498-0.166-0.871-0.497-1.121h-0.064
	C29.986,39.593,29.819,39.927,29.819,40.257L29.819,40.257z M33.184,40.257l0.126,0.438c-0.458,0-0.729,0.123-0.812,0.372v0.438
	l0.313,0.373l0.499-0.125v0.252c-0.209,0-0.313,0.062-0.313,0.185v0.188c0,0.126,0.104,0.188,0.313,0.188l-0.25,0.313v0.124
	l0.124,0.063h0.126l0.062-0.063l0.313,0.188h0.124l0.25-0.188h0.123l0.127,0.063l0.063-0.063l-0.063-0.313l0.186-0.313v-0.188
	c0-0.123-0.104-0.185-0.313-0.185v-0.252l0.498,0.125c0.208-0.04,0.312-0.248,0.312-0.623v-0.188
	c-0.084-0.249-0.354-0.372-0.81-0.372v-0.125l0.127-0.063c0-0.541-0.169-0.955-0.5-1.249h-0.124
	C33.351,39.635,33.184,39.966,33.184,40.257L33.184,40.257z M8.943,43.373c-3.532,1.371-5.608,2.408-6.233,3.115l0.25,2.18v0.063
	h0.251l1.68-1.059c3.281-1.038,6.004-2.516,8.164-4.425c0-1.577-0.104-2.369-0.311-2.369C12.079,41.546,10.813,42.375,8.943,43.373
	L8.943,43.373z M50.944,43.187c1.079,1.163,2.367,2.117,3.864,2.866c3.447,1.288,5.441,2.242,5.982,2.865
	c0.208,0,0.373-0.726,0.499-2.18c-0.169-0.498-1.061-1.06-2.682-1.681c-3.948-1.706-6.377-3.054-7.291-4.052
	C51.194,41.004,51.069,41.732,50.944,43.187L50.944,43.187z M31.502,43.373l0.062,0.373c-0.414,0-0.664,0.146-0.747,0.437v0.063
	c0,0.249,0.083,0.498,0.249,0.747l0.437-0.249l0.187,0.313c-0.25,0-0.373,0.062-0.373,0.186v0.125l0.187,0.188l-0.125,0.437v0.063
	l0.125,0.125h0.062l0.125-0.125h0.125l0.248,0.188l0.25-0.188l0.248,0.125h0.127l-0.127-0.313V45.68l0.313-0.312v-0.125
	c0-0.124-0.125-0.186-0.374-0.186v-0.188h0.063l0.499,0.124l0.25-0.811c-0.126-0.291-0.375-0.437-0.749-0.437v-0.25
	c0-0.538-0.166-0.913-0.499-1.121H32C31.666,42.709,31.502,43.04,31.502,43.373L31.502,43.373z M16.42,42.749l0.126-0.063h0.81
	l0.498,0.063v0.126l-0.125,0.124v14.332l0.125,0.687c-0.957-1.164-1.434-2.534-1.434-4.113V42.875l-0.062-0.126H16.42z
	 M21.345,42.749v18.073c-1.08-0.375-1.623-0.686-1.623-0.937V42.749H21.345z M24.896,42.749v18.445l-0.188,0.188h-1.307
	l-0.189-0.188V42.749H24.896z M47.516,42.749l0.188,0.25v10.033c0,1.494-0.188,2.721-0.561,3.676c-1.621,3.2-4.01,4.8-7.167,4.8
	c-1.245-0.126-2.14-0.332-2.679-0.623c-3.324-1.33-4.986-4.01-4.986-8.038v-3.988l1.372-0.314c0,0.249,0.206,0.374,0.623,0.374v1.31
	c-0.333,0-0.542,0.271-0.623,0.808v0.127c0.081,0.498,0.29,0.746,0.623,0.746v0.749l-0.623,0.374l0.125,1.494
	c0.415,0,0.706,0.437,0.871,1.31l-0.188,0.562v0.125c0,0.332,0.188,0.622,0.562,0.871c0.498,0,0.935,0.249,1.31,0.748l-0.064,0.498
	c0,0.208,0.414,0.457,1.247,0.747c0.29,0,0.438-0.084,0.438-0.249l0.996,0.188c0.333,0.456,0.664,0.685,0.995,0.685l0.498-0.125
	c0.334-0.498,0.791-0.747,1.371-0.747l0.313,0.375c0.166,0,0.663-0.271,1.496-0.811l-0.123-0.499v-0.063l0.621-0.623
	c0.873-0.125,1.309-0.415,1.309-0.871c-0.042-0.498-0.146-0.75-0.313-0.75l0.313-1.058c0.455,0,0.686-0.499,0.686-1.496v-0.312
	c-0.415-0.165-0.623-0.291-0.623-0.374v-0.499c0.417-0.331,0.623-0.644,0.623-0.936v-0.188c0-0.289-0.206-0.58-0.623-0.872v-1.122
	c0.417-0.123,0.623-0.248,0.623-0.372v-1.433c-0.415-0.124-0.623-0.249-0.623-0.373v-0.871c0.498-0.375,0.747-0.749,0.747-1.122
	c-0.289-0.583-0.603-0.872-0.935-0.872c-0.58,0.083-0.872,0.271-0.872,0.56h-0.996l-0.125-0.497h-1.496
	c-0.123,0-0.187,0.165-0.187,0.497h-0.811c-0.333-0.373-0.622-0.56-0.872-0.56c-0.291,0-0.624,0.187-0.996,0.56h-0.686
	c0-0.373-0.105-0.56-0.312-0.56h-0.623l0.125-1.248L47.516,42.749L47.516,42.749z M26.891,44.369c0,0.5,0.538,1.496,1.62,2.993
	l-0.123,0.123v12.4l0.123,0.126l-1.62,0.871h-0.063V44.369H26.891z M39.851,44.681h0.315v0.5h-0.499v-0.313L39.851,44.681z
	 M45.335,44.681l0.188,0.188v0.312h-0.498l-0.063-0.123l0.063-0.375h0.31V44.681z M37.546,44.744l0.249,0.249v0.064h-0.622
	l-0.125,0.123v-0.437H37.546z M42.843,44.744v0.437h-0.498l-0.188-0.188v-0.249H42.843z M10.75,45.49v9.162h-0.562v-8.287l0.062-0.5
	H9.939v8.787H9.691v-8.475H9.379v8.475H5.95v-6.919l-0.187-0.186l-0.188,0.186v7.293l-0.312,0.313l0.124,0.56
	c0,0.417-0.311,0.686-0.935,0.812l0.126,0.685v1.248l-0.126,0.063c-0.789,0.166-1.182,0.313-1.182,0.436v3.988l0.125,0.063
	l2.367-0.562h0.187l2.306,0.562l2.494-0.562h0.124l2.307,0.562c0.165,0,0.249-0.063,0.249-0.187v-3.865l-0.063-0.123
	c-0.791-0.125-1.185-0.292-1.185-0.5h0.063l-0.063-0.498v-0.125l0.063-1.183c-0.666-0.207-0.997-0.479-0.997-0.812l0.125-0.373
	v-0.187c0-0.125-0.105-0.188-0.313-0.188v-0.124l0.126-0.125v-9.659l-0.126-0.062L10.75,45.49z M38.979,45.242
	c0.251,0.333,0.436,0.498,0.562,0.498v0.623c-0.335,0.041-0.499,0.146-0.499,0.312v1.309c0,0.167,0.164,0.25,0.499,0.25v1.681
	l-0.063,0.125l-1.122-1.308l0.188-0.25v-0.248l-0.872-1.061l-0.624,0.063l-0.685-0.687l0.187-0.685h1.433
	c0.207,0,0.312-0.207,0.312-0.623H38.979z M41.535,45.242l0.124,0.125c0,0.331,0.063,0.498,0.186,0.498h1.435l0.375-0.623h0.685
	v0.125l-1.496,1.869l-0.562-0.188c-0.664,0.666-0.996,1.059-0.996,1.186l0.188,0.498l-0.998,1.183h-0.187v-1.681
	c0.331,0,0.521-0.083,0.562-0.25v-1.309c0-0.125-0.188-0.227-0.562-0.312V45.99l0.499-0.748H41.535z M52.938,45.555v9.596
	l0.063,0.063L52.627,55.4l0.064,0.623l-0.064,0.498c-0.54,0.169-0.81,0.291-0.81,0.374v1.995c-0.79,0.125-1.185,0.27-1.185,0.437
	v3.863l0.062,0.125h0.25l2.181-0.498h0.374l2.432,0.56c0.997-0.371,1.722-0.56,2.18-0.56h0.313l2.056,0.56l0.187-0.187v-3.863
	c0-0.125-0.395-0.271-1.185-0.437v-2.056c-0.581-0.167-0.873-0.375-0.873-0.624v-0.313l0.188-0.25l-0.373-0.435V55.15l0.062-0.124
	v-7.043l-0.187-0.25l-0.188,0.25v6.855h-0.438l-0.187-0.188V51.16l0.125-2.492l-0.125-0.125l0.125-0.062v-0.934h-0.313v7.291h-0.185
	l-0.188-0.188l-0.314,0.188h-3.114L53.31,54.65v-9.098l-0.187-0.188L52.938,45.555z M44.962,45.865v1.121l-0.623,0.375v1.37
	l0.623,0.437v0.995l-0.687,0.688h-0.746c-0.127-0.414-0.25-0.623-0.373-0.623h-1.312l-0.372,0.623l-0.438-0.125v-0.375l0.937-1.121
	l0.496,0.125c0.167,0,0.521-0.374,1.062-1.121v-0.064l-0.25-0.496c0.996-1.038,1.497-1.642,1.497-1.808H44.962z M40.164,46.987
	v0.686h-0.376v-0.686H40.164z M35.863,47.048h0.187l0.5,0.686l-0.25,0.5l0.998,1.183l0.497-0.188
	c0.499,0.417,0.851,0.854,1.061,1.309c0,0.086-0.124,0.188-0.375,0.313v-0.125h-0.187c0-0.333-0.084-0.498-0.25-0.498H36.55
	l-0.064,0.123c0,0.25-0.063,0.375-0.188,0.375h-0.747l-0.563-0.563v-1.245c0.333-0.041,0.5-0.127,0.5-0.25v-0.937
	C35.49,47.403,35.615,47.175,35.863,47.048L35.863,47.048z M45.46,47.673v0.686h-0.437v-0.686H45.46z M42.468,47.858l0.313,0.188
	l-0.437,0.623l-0.313-0.313l0.313-0.498H42.468z M34.806,47.983v0.373h-0.437L34.806,47.983z M37.298,47.983h0.062l0.437,0.373
	l-0.249,0.313L37.05,48.17L37.298,47.983z M3.211,49.229v0.125l1.244,1.31c0.167,0,0.271-0.313,0.313-0.935
	c0-0.5-0.188-0.912-0.562-1.248H4.082C3.748,48.606,3.458,48.858,3.211,49.229L3.211,49.229z M31.813,48.858v4.174
	c0,2.243-0.498,3.946-1.498,5.11l0.064-0.749v-2.18l-0.064-0.5l0.064-0.31v-1.872l-0.064-0.497l0.064-0.125l-0.064-0.373v-0.125
	l0.064-0.063l-0.064-0.437v-0.063l0.064-0.125v-0.063l-0.064-0.126v-0.123l0.064-0.063l-0.064-0.313v-0.125l0.064-0.063
	l-0.064-0.312l0.064-0.373l-0.064-0.438v-0.188L31.813,48.858z M56.802,48.858h0.188v-0.189l-0.188-0.188V48.858L56.802,48.858z
	 M59.17,49.854v0.374c0.124,0.54,0.272,0.808,0.437,0.808l1.31-1.494v-0.125c-0.085-0.166-0.416-0.456-0.998-0.872h-0.125
	C59.377,48.835,59.17,49.272,59.17,49.854L59.17,49.854z M56.678,51.035h0.25v-0.871h-0.126L56.678,51.035z M39.788,50.664h0.376
	l0.31,0.249v0.497l-0.436,0.25h-0.188l-0.372-0.438v-0.311L39.788,50.664z M34.679,50.853l0.188,0.185v0.125l-0.188,0.25
	c-0.209-0.041-0.334-0.166-0.371-0.375h0.063v-0.185H34.679z M45.273,50.853h0.062l0.188,0.185v0.313l-0.25,0.062l-0.312-0.248
	L45.273,50.853z M37.672,50.913v0.437h-0.688v-0.437H37.672z M42.843,50.913v0.437h-0.686v-0.437H42.843z M35.863,51.41
	c0.331,0,0.603,0.209,0.812,0.623h1.37c0.165,0,0.249-0.164,0.249-0.498h0.375l0.188,0.188v0.124l-0.872,1.06l-0.498-0.188
	l-1.122,1.185l0.311,0.498l-0.995,1.122h-0.374l-0.25-0.872c0.332-0.041,0.498-0.145,0.498-0.313v-1.184
	c-0.125-0.289-0.312-0.437-0.562-0.437v-0.687C35.281,51.619,35.573,51.41,35.863,51.41L35.863,51.41z M41.535,51.535l0.124,0.125
	c0,0.248,0.063,0.373,0.186,0.373h1.312c0.207,0,0.311-0.164,0.311-0.498h0.995v0.125l0.5,0.498v0.187l-0.125,0.5
	c-0.333,0-0.498,0.063-0.498,0.188v0.372l-0.063,0.998l0.562,0.312c-0.125,0.623-0.311,0.935-0.562,0.935
	c-0.662-0.622-0.996-1.038-0.996-1.246l0.188-0.375v-0.123l-0.935-1.06l-0.561,0.063l-0.937-1.06v-0.313H41.535L41.535,51.535z
	 M39.541,52.222v2.305c-0.335,0-0.499,0.063-0.499,0.188v1.497l0.125,0.126c0.248,0,0.374,0.062,0.374,0.187v1.621l-0.374,0.498
	l-0.687-0.125V58.02l-1.308-0.812c-0.25,0.042-0.373,0.146-0.373,0.313l-0.623-0.499l0.188-0.498L36.3,56.15l0.188-0.437
	c0.375-0.373,0.563-0.645,0.563-0.811l0.746,0.125l0.873-1.122v-0.188l-0.188-0.313C39.021,52.618,39.374,52.222,39.541,52.222
	L39.541,52.222z M40.474,52.345l0.873,0.998v0.187l-0.188,0.313v0.064l0.873,1.121l0.623-0.125l0.998,1.121v0.127l-0.125,0.062V56.4
	l0.125,0.746l-0.498,0.374l-0.375-0.313h-0.123l-1.31,0.812l0.125,0.498l-0.498,0.125h-0.125l-0.562-0.438v-1.682l0.562-0.373
	v-1.435l-0.562-0.374v-1.995h0.187V52.345z M34.556,53.345h0.25v0.685h-0.437v-0.498L34.556,53.345z M45.46,53.404v0.75h-0.437
	v-0.75H45.46z M37.672,53.529l0.186,0.188v0.124l-0.373,0.498l-0.312-0.186L37.672,53.529z M42.656,54.029l-0.188,0.312
	l-0.498-0.498l0.188-0.312L42.656,54.029z M40.164,55.15v0.686h-0.376V55.15H40.164z M10.938,55.896l0.124,0.75h-5.36l0.063-0.75
	H10.938z M32.062,55.896c0.333,1.207,0.644,1.872,0.934,1.994l-0.437,0.313l-0.372-0.313h-0.126l-0.248,0.313l-0.498-0.062H31.19
	l-0.124,0.062v-0.187c0.456-0.665,0.769-1.371,0.935-2.121H32.062z M58.172,56.021l0.252,0.625v0.062H52.94l0.186-0.687H58.172z
	 M35.304,56.21h0.187l0.188,0.188v0.123L35.49,56.71h-0.187l-0.25-0.188v-0.123L35.304,56.21z M44.526,56.21l0.249,0.188v0.312
	l-0.313,0.125l-0.312-0.188l0.124-0.437H44.526z M11.747,57.02l0.125,0.125v0.063l-0.125,0.125v1.308L5.08,58.516H4.891V57.02
	H11.747z M52.441,57.145h6.667v1.559h-6.667l-0.251-0.188v-1.185L52.441,57.145z M37.795,58.33v0.063l-0.249,0.312
	c-0.373-0.167-0.562-0.291-0.562-0.373l0.188-0.313L37.795,58.33z M42.531,58.143h0.125l0.187,0.188l-0.498,0.373l-0.188-0.188
	v-0.187L42.531,58.143z M31.002,58.391l0.064,0.125c-0.5,0.5-0.749,0.956-0.749,1.37v0.251c0,0.498,0.29,0.954,0.873,1.371
	c0.457,0.082,0.686,0.188,0.686,0.312v0.313c-0.873-0.664-1.724-0.997-2.555-0.997h-0.999l-0.124,0.063
	c0.914,0.955,1.683,1.434,2.306,1.434h0.873l0.437-0.125h0.062l-0.187,0.686h0.187c0.416,0,0.623-0.228,0.623-0.686l1.809,0.125
	c0.498,0,1.12-0.333,1.869-0.997V61.51l-1.621-0.313c-0.623,0-1.29,0.313-1.996,0.936h-0.062v-0.437
	c1.038-0.292,1.558-0.852,1.558-1.683l-0.187-0.626v-0.063c1.704,1.788,3.843,2.681,6.418,2.681v0.125
	c-2.741,0.831-5.442,1.246-8.1,1.246c-2.701,0-5.423-0.413-8.164-1.246v-0.125c2.823,0,5.089-1.207,6.793-3.615H31.002z
	 M32.312,58.703h0.248l0.126-0.063v0.063c0.665,0.497,0.997,0.935,0.997,1.309c0,0.664-0.373,1.06-1.123,1.183h-0.185
	c0.29-0.331,0.436-0.685,0.436-1.058v-0.251c-0.208-0.705-0.416-1.099-0.623-1.183c-0.458,0.374-0.686,0.852-0.686,1.434
	l0.373,1.058h-0.062c-0.748-0.123-1.122-0.456-1.122-0.995v-0.188l0.187-0.812c0.747-0.332,1.142-0.602,1.184-0.81
	C32.229,58.391,32.312,58.496,32.312,58.703L32.312,58.703z M33.184,58.391l0.188,0.25v0.063H33.31l-0.25-0.188v-0.125H33.184z
	 M39.851,58.828h0.189l0.248,0.188v0.123l-0.313,0.249l-0.31-0.249v-0.123L39.851,58.828z M5.576,59.388H6.2l1.744,0.498h0.812
	l1.806-0.498h0.498c1.453,0.416,2.182,0.666,2.182,0.749v0.373l-0.063,0.125l-2.12-0.623h-0.498l-2.18,0.623l-2.18-0.622H5.576
	L3.771,60.51H3.458v-0.373C3.499,60.012,4.207,59.763,5.576,59.388L5.576,59.388z M53.188,59.514h0.248l2.182,0.623l2.366-0.623
	l2.494,0.623v0.561l-2.307-0.561l-2.491,0.561l-2.492-0.561l-2.369,0.561v-0.561L53.188,59.514z M5.889,61.01l2.367,0.622H8.57
	l2.18-0.622h0.124l2.369,0.622v0.499l-0.063,0.063l-2.244-0.563l-2.493,0.563H8.381L5.95,61.632c-0.374,0-1.164,0.188-2.369,0.563
	v-0.063l-0.123-0.125v-0.374L5.889,61.01z M51.008,61.694l2.181-0.562l2.492,0.562h0.311l2.181-0.562l2.119,0.562h0.188v0.621
	h-0.188l-1.683-0.498h-0.995l-1.496,0.498h-0.812l-2.18-0.621l-2.18,0.621h-0.125v-0.621H51.008z"/>
</svg>
