<?xml version="1.0" encoding="iso-8859-1"?>
<!-- Generator: Adobe Illustrator 14.0.0, SVG Export Plug-In . SVG Version: 6.00 Build 43363)  -->
<!DOCTYPE svg PUBLIC "-//W3C//DTD SVG 1.1//EN" "http://www.w3.org/Graphics/SVG/1.1/DTD/svg11.dtd">
<svg version="1.1" id="Capa_1" xmlns="http://www.w3.org/2000/svg" xmlns:xlink="http://www.w3.org/1999/xlink" x="0px" y="0px"
	 width="64px" height="64px" viewBox="0 0 64 64" style="enable-background:new 0 0 64 64;" xml:space="preserve">
<path id="smashing" style="fill-rule:evenodd;clip-rule:evenodd;" d="M12.829,57.364l4.916-10.624
	c4.127,3.166,8.788,4.751,13.977,4.751c5.382,0,8.056-1.851,8.068-5.553c0-2.173-0.815-3.954-2.428-5.34
	c-1.622-1.393-4.77-3.031-9.456-4.915c-2.786-1.118-5.179-2.365-7.203-3.729c-5.381-3.626-8.084-8.11-8.084-13.47
	c0-3.554,1.007-6.535,3.019-8.953c0.354-0.426,0.74-0.834,1.156-1.225L5.312,10.868c-3.346,0.748-5.42,3.965-4.652,7.19
	l9.506,39.742c0.771,3.222,4.094,5.236,7.434,4.497l4.712-1.051l-0.368-0.09C19.588,60.551,16.554,59.293,12.829,57.364z
	 M63.338,45.938L53.835,6.195c-0.781-3.224-4.099-5.234-7.437-4.491l-6.92,1.544c0.795,0.119,1.583,0.263,2.364,0.431
	c3.08,0.666,6.059,1.694,8.936,3.108L46.796,17.15c-3.011-2.491-7.218-3.739-12.591-3.739c-4.822,0-7.237,1.852-7.237,5.557
	c0,1.459,0.804,2.771,2.38,3.95c1.583,1.175,4.964,2.763,10.152,4.753c3.545,1.337,6.393,2.877,8.584,4.612
	c1.019,0.807,1.909,1.65,2.635,2.545c2.279,2.813,3.422,6.213,3.426,10.201c0,3.885-1.101,7.164-3.295,9.848l7.836-1.748
	C62.032,52.385,64.112,49.164,63.338,45.938z"/>
</svg>
