<?xml version="1.0" encoding="utf-8"?>
<!-- Generator: Adobe Illustrator 14.0.0, SVG Export Plug-In . SVG Version: 6.00 Build 43363)  -->
<!DOCTYPE svg PUBLIC "-//W3C//DTD SVG 1.1//EN" "http://www.w3.org/Graphics/SVG/1.1/DTD/svg11.dtd">
<svg version="1.1" id="Capa_1" xmlns="http://www.w3.org/2000/svg" xmlns:xlink="http://www.w3.org/1999/xlink" x="0px" y="0px"
	 width="64px" height="64px" viewBox="0 0 64 64" enable-background="new 0 0 64 64" xml:space="preserve">
<g>
	<path fill-rule="evenodd" clip-rule="evenodd" d="M55.35,61.472C52.871,63.946,31.99,64,31.99,64s-20.879-0.054-23.363-2.528
		c-2.483-2.481-2.49-14.706-2.49-14.799c0-0.07,0.007-12.316,2.49-14.797c2.484-2.478,23.363-2.51,23.363-2.508
		c0-0.002,20.881,0.03,23.359,2.508c2.488,2.48,2.514,14.727,2.514,14.797C57.863,46.673,57.844,58.982,55.35,61.472z
		 M21.543,36.068H11.107v3.022h3.517V56.88h3.401V39.091h3.518V36.068z M31.486,41.523H28.47v11.666
		c-0.286,0.333-0.595,0.604-0.938,0.821c-0.338,0.216-0.622,0.324-0.842,0.324c-0.281,0-0.488-0.08-0.619-0.244
		c-0.122-0.162-0.188-0.425-0.188-0.789V41.523h-3.015v12.839c0,0.917,0.18,1.598,0.528,2.057c0.358,0.461,0.876,0.685,1.577,0.685
		c0.568,0,1.15-0.157,1.753-0.488c0.605-0.323,1.182-0.796,1.742-1.423v1.688h3.017V41.523z M42.432,45.188
		c0-1.256-0.25-2.216-0.76-2.871c-0.5-0.65-1.227-0.979-2.186-0.979c-0.467,0-0.932,0.121-1.391,0.365
		c-0.455,0.24-0.883,0.602-1.293,1.065v-6.7h-3.049V56.88h3.049v-1.177c0.393,0.472,0.828,0.815,1.289,1.039
		s0.984,0.332,1.576,0.332c0.895,0,1.582-0.285,2.053-0.867c0.475-0.579,0.711-1.413,0.711-2.499V45.188z M52.893,51.763h-3.104
		v0.701c0,0.902-0.105,1.485-0.301,1.75c-0.201,0.265-0.549,0.397-1.051,0.397c-0.48,0-0.818-0.153-1.021-0.464
		c-0.195-0.315-0.295-0.875-0.295-1.684V49.57h5.771v-3.915c0-1.455-0.369-2.571-1.111-3.346c-0.74-0.776-1.803-1.166-3.184-1.166
		c-1.354,0-2.451,0.419-3.303,1.258c-0.855,0.836-1.283,1.927-1.283,3.254v6.896c0,1.479,0.393,2.641,1.168,3.481
		c0.775,0.847,1.84,1.266,3.191,1.266c1.502,0,2.633-0.394,3.385-1.186c0.76-0.801,1.137-1.986,1.137-3.562V51.763z M47.121,45.629
		c0-0.642,0.102-1.105,0.313-1.375c0.209-0.288,0.555-0.423,1.035-0.423c0.457,0,0.799,0.135,1.002,0.423
		c0.211,0.27,0.318,0.733,0.318,1.375v1.552h-2.668V45.629z M38.248,54.67c-0.256,0-0.498-0.059-0.729-0.167
		c-0.232-0.106-0.473-0.295-0.717-0.542v-9.567c0.207-0.212,0.412-0.368,0.623-0.468c0.209-0.104,0.422-0.151,0.639-0.151
		c0.406,0,0.723,0.136,0.941,0.4c0.213,0.269,0.318,0.663,0.318,1.181v7.929c0,0.495-0.092,0.841-0.264,1.057
		C38.889,54.562,38.617,54.67,38.248,54.67z M45.057,21.06c-0.619,0.686-1.271,1.215-1.953,1.573
		c-0.676,0.359-1.332,0.539-1.969,0.539c-0.793,0-1.377-0.254-1.777-0.756c-0.396-0.504-0.596-1.258-0.596-2.267V6.013h3.393v12.967
		c0,0.401,0.078,0.69,0.219,0.869c0.139,0.179,0.371,0.271,0.689,0.271c0.248,0,0.566-0.121,0.949-0.357
		c0.379-0.237,0.73-0.54,1.045-0.912V6.013h3.398v16.914h-3.398V21.06z M34.691,22.118c-0.887,0.823-2.096,1.235-3.642,1.235
		c-1.482,0-2.674-0.427-3.567-1.273c-0.888-0.851-1.337-1.995-1.337-3.433V9.882c0-1.313,0.456-2.356,1.374-3.131
		c0.914-0.777,2.146-1.166,3.687-1.166c1.403,0,2.558,0.41,3.458,1.229c0.893,0.818,1.344,1.873,1.344,3.162v8.737
		C36.008,20.161,35.566,21.293,34.691,22.118z M32.545,9.753c0-0.37-0.139-0.668-0.416-0.897c-0.278-0.227-0.64-0.339-1.087-0.339
		c-0.416,0-0.751,0.112-1.011,0.339c-0.258,0.229-0.39,0.527-0.39,0.897v9.214c0,0.462,0.125,0.82,0.365,1.076
		c0.24,0.255,0.586,0.38,1.035,0.38c0.461,0,0.822-0.13,1.097-0.387c0.271-0.262,0.406-0.618,0.406-1.069V9.753z M21.421,22.926
		h-3.824v-9.084L13.044,0h3.852l2.484,9.164h0.24L21.983,0h3.888l-4.45,13.414V22.926z"/>
</g>
</svg>
