<?xml version="1.0" encoding="utf-8"?>
<!-- Generator: Adobe Illustrator 14.0.0, SVG Export Plug-In . SVG Version: 6.00 Build 43363)  -->
<!DOCTYPE svg PUBLIC "-//W3C//DTD SVG 1.1//EN" "http://www.w3.org/Graphics/SVG/1.1/DTD/svg11.dtd">
<svg version="1.1" id="Capa_1" xmlns="http://www.w3.org/2000/svg" xmlns:xlink="http://www.w3.org/1999/xlink" x="0px" y="0px"
	 width="64px" height="64px" viewBox="0 0 64 64" enable-background="new 0 0 64 64" xml:space="preserve">
<g id="appointment">
	<path fill-rule="evenodd" clip-rule="evenodd" d="M44.904,64c-10.545,0-19.095-8.483-19.095-18.949
		c0-10.467,8.55-18.949,19.095-18.949C55.451,26.102,64,34.584,64,45.051C64,55.517,55.451,64,44.904,64z M44.904,30.839
		c-7.909,0-14.32,6.362-14.32,14.212c0,7.849,6.411,14.211,14.32,14.211c7.91,0,14.323-6.362,14.323-14.211
		C59.228,37.201,52.814,30.839,44.904,30.839z M56.204,46.74c-0.943,0-1.708-0.758-1.708-1.694c0-0.936,0.765-1.694,1.708-1.694
		s1.707,0.759,1.707,1.694C57.911,45.982,57.147,46.74,56.204,46.74z M45.56,42.679c-0.259,0.52-1.184,0.471-1.422-0.007
		c-0.184-0.367-1.979-8.533-2.013-8.643c-0.157-0.53,0.236-1.813,0.696-2.085c1.087-0.645,2.741-0.787,4.228-0.034
		c0.501,0.254,0.95,1.665,0.755,2.195C47.79,34.145,45.784,42.228,45.56,42.679z M33.593,46.74c-0.943,0-1.707-0.758-1.707-1.694
		c0-0.936,0.764-1.694,1.707-1.694S35.3,44.11,35.3,45.046C35.3,45.982,34.536,46.74,33.593,46.74z M44.898,54.835
		c0.943,0,1.707,0.76,1.707,1.695s-0.764,1.694-1.707,1.694c-0.942,0-1.706-0.759-1.706-1.694S43.956,54.835,44.898,54.835z
		 M32.167,26.627v-1.091h-7.721v3.83h4.329c-0.794,0.792-1.523,1.646-2.182,2.555h-2.147v3.717c-1.066,2.389-1.694,5.015-1.78,7.774
		H4.343c-2.398,0-4.343-1.93-4.343-4.31V9.416c0-2.38,1.945-4.31,4.343-4.31H7.72v3.352c0,2.381,1.944,4.31,4.343,4.31h1.607
		c2.398,0,4.343-1.929,4.343-4.31V5.106h10.273l0.02,3.352c0,2.381,1.945,4.31,4.343,4.31h1.608c2.398,0,4.343-1.929,4.343-4.31
		V5.106h3.377c2.398,0,4.342,1.93,4.342,4.31v13.986c-0.874-0.11-1.765-0.166-2.67-0.166C39.41,23.236,35.466,24.483,32.167,26.627z
		 M11.58,19.152H3.861v3.831h7.719V19.152z M11.58,25.536H3.861v3.83h7.719V25.536z M11.58,31.921H3.861v3.829h7.719V31.921z
		 M21.874,19.152h-7.72v3.831h7.72V19.152z M21.874,25.536h-7.72v3.83h7.72V25.536z M21.874,31.921h-7.72v3.829h7.72V31.921z
		 M32.167,19.152h-7.721v3.831h7.721V19.152z M42.461,19.152h-7.722v3.831h7.722V19.152z M34.579,10.214h-2.251
		c-0.798,0-1.447-0.643-1.447-1.436V1.437C30.881,0.643,31.53,0,32.328,0h2.251c0.801,0,1.449,0.643,1.449,1.437v7.342
		C36.028,9.571,35.38,10.214,34.579,10.214z M13.993,10.214h-2.252c-0.799,0-1.447-0.643-1.447-1.436V1.437
		C10.293,0.643,10.942,0,11.741,0h2.252c0.8,0,1.448,0.643,1.448,1.437v7.342C15.44,9.571,14.792,10.214,13.993,10.214z"/>
</g>
</svg>
