<?xml version="1.0" encoding="utf-8"?>
<!-- Generator: Adobe Illustrator 14.0.0, SVG Export Plug-In . SVG Version: 6.00 Build 43363)  -->
<!DOCTYPE svg PUBLIC "-//W3C//DTD SVG 1.1//EN" "http://www.w3.org/Graphics/SVG/1.1/DTD/svg11.dtd">
<svg version="1.1" id="Capa_1" xmlns="http://www.w3.org/2000/svg" xmlns:xlink="http://www.w3.org/1999/xlink" x="0px" y="0px"
	 width="64px" height="64px" viewBox="0 0 64 64" enable-background="new 0 0 64 64" xml:space="preserve">
<g>
	<path fill-rule="evenodd" clip-rule="evenodd" d="M49.692,35.023c-1.005,0-1.973,0.152-2.892,0.42l-4.271-10.418
		c-0.164-0.403-0.558-0.667-0.994-0.667h-5.021c-0.594,0-1.074,0.482-1.074,1.076c0,0.593,0.48,1.074,1.074,1.074
		c0,0,3.242,0,4.301,0c0.108,0.269,0.535,1.313,1.139,2.78H23.896l-0.887-1.593l4.212-0.475c0.43,0,0.778-0.349,0.778-0.78
		c0-0.431-0.349-0.779-0.778-0.779h-7.127c-0.431,0-0.78,0.348-0.78,0.779c0,0.431-0.143,1.676,1.194,1.538l0.183-0.021l1.24,2.222
		l-3.377,5.771c-1.297-0.588-2.73-0.926-4.245-0.926C8.625,35.023,4,39.648,4,45.334c0,5.684,4.625,10.309,10.31,10.309
		c5.321,0,9.712-4.053,10.252-9.234h6.486c0,1.815,0,3.397,0,3.766c-0.549,0-1.347,0-1.347,0c-0.295,0-0.536,0.239-0.536,0.536
		c0,0.299,0.241,0.538,0.536,0.538h1.885c0.295,0,0.536-0.239,0.536-0.538c0,0,0-2.117,0-4.433c0.003-0.002,0.008-0.002,0.011-0.004
		c0.033-0.019,0.062-0.044,0.094-0.064c0.021-0.018,0.045-0.029,0.066-0.048c0.056-0.047,0.105-0.096,0.147-0.149
		c0.005-0.003,0.009-0.007,0.013-0.012l0.002-0.003c0.002,0,0.002-0.002,0.004-0.004L43.212,32.36
		c0.508,1.236,1.053,2.567,1.597,3.897c-3.227,1.744-5.426,5.157-5.426,9.076c0,5.684,4.625,10.309,10.31,10.309
		C55.375,55.643,60,51.018,60,45.334C60,39.648,55.375,35.023,49.692,35.023z M23.146,32.36l6.631,11.898
		c-1.232,0-3.163-0.002-5.216-0.002c-0.307-2.956-1.879-5.538-4.155-7.216C21.505,35.166,22.534,33.408,23.146,32.36z
		 M22.387,44.257c-2.596,0-5.055,0-6.202,0c0.582-0.991,1.822-3.112,3.133-5.349C20.962,40.191,22.101,42.09,22.387,44.257z
		 M14.31,53.49c-4.499,0-8.158-3.658-8.158-8.156c0-4.5,3.659-8.158,8.158-8.158c1.118,0,2.185,0.227,3.155,0.635l-4.083,6.978
		c-0.197,0.334-0.198,0.745-0.005,1.079c0.192,0.336,0.547,0.541,0.933,0.541h8.077C21.858,50.4,18.442,53.49,14.31,53.49z
		 M32.122,42.946c0-1.222,0-2.179,0-2.452c0.55,0,1.345,0,1.345,0c0.298,0,0.538-0.243,0.538-0.539c0-0.297-0.24-0.538-0.538-0.538
		h-1.88c-0.298,0-0.539,0.241-0.539,0.538c0,0,0,0.896,0,2.159l-5.952-10.675c3.694,0,13.266,0,16.104,0
		C39.529,33.557,34.369,40.098,32.122,42.946z M49.692,53.49c-4.498,0-8.157-3.658-8.157-8.156c0-3.021,1.652-5.656,4.098-7.067
		c1.641,4.001,3.064,7.476,3.064,7.476c0.225,0.549,0.853,0.812,1.403,0.586c0.55-0.224,0.812-0.854,0.588-1.403l-3.065-7.473
		c0.664-0.176,1.353-0.276,2.069-0.276c4.499,0,8.157,3.658,8.157,8.158C57.85,49.832,54.191,53.49,49.692,53.49z"/>
</g>
</svg>
