<?xml version="1.0" encoding="utf-8"?>
<!-- Generator: Adobe Illustrator 14.0.0, SVG Export Plug-In . SVG Version: 6.00 Build 43363)  -->
<!DOCTYPE svg PUBLIC "-//W3C//DTD SVG 1.1//EN" "http://www.w3.org/Graphics/SVG/1.1/DTD/svg11.dtd">
<svg version="1.1" id="Capa_1" xmlns="http://www.w3.org/2000/svg" xmlns:xlink="http://www.w3.org/1999/xlink" x="0px" y="0px"
	 width="64px" height="64px" viewBox="0 0 64 64" enable-background="new 0 0 64 64" xml:space="preserve">
<g>
	<path fill-rule="evenodd" clip-rule="evenodd" d="M48.191,7.644c0,0,8.114,1.785,7.83,2.133c0.157-0.034,0.29-0.062,0.366-0.078
		c0.867-0.175,1.468-0.271,1.315,0.5c0.066,0.348,0,0.938,0,0.938s-0.15,38.854-0.379,39.236c-0.149,0.253-25.985,8.16-26.112,8.333
		c-0.436,0.595-2.475,0.638-2.475,0.638V15.457c1.234-0.013,2.216-0.097,2.216-0.097s17.19-3.851,23.359-5.21
		c-0.172-0.013,0.284,0.063,0.111,0.028l-9.657-2.226c-3.71,0.648-8.81,1.851-13.422,2.718c-6.101,1.378-11.996,2.75-12.101,2.926
		c-0.006,0.011-0.012,0.134-0.016,0.309c0.95,1.097,6.235,1.467,8.316,1.539v44.37c-4.927,0.801-7.99-1.241-7.99-1.241
		c-0.594-0.388-2.07-1.939-2.07-3.804v-0.918c-0.251,0.02-0.432,0.025-0.432,0.025v-42.06c1.184-0.013,2.125-0.093,2.125-0.093
		s14.367-3.175,21.377-4.73l-5.549-1.199c-0.55-0.11-2.495-0.801-3.256-0.77C31.342,5.041,8.327,9.206,7.807,9.866
		c-0.387,1.415,5.837,1.859,8.102,1.938v42.525c-4.722,0.766-7.657-1.192-7.657-1.192c-0.571-0.37-1.984-1.857-1.984-3.643V10.623
		c0-1.818,1.591-2.045,3.556-2.456L31.959,4.15c2.287-0.261,2.671-0.103,2.671-0.103s1.369,0.309-0.664,0.59
		c0.011,0.002,0.022,0.002,0.033,0.004l8.937,1.787c0.289-0.063,0.503-0.108,0.616-0.131c0.831-0.169,1.703-0.112,1.558,0.626"/>
</g>
</svg>
