<?xml version="1.0" encoding="utf-8"?>
<!-- Generator: Adobe Illustrator 14.0.0, SVG Export Plug-In . SVG Version: 6.00 Build 43363)  -->
<!DOCTYPE svg PUBLIC "-//W3C//DTD SVG 1.1//EN" "http://www.w3.org/Graphics/SVG/1.1/DTD/svg11.dtd">
<svg version="1.1" id="Capa_1" xmlns="http://www.w3.org/2000/svg" xmlns:xlink="http://www.w3.org/1999/xlink" x="0px" y="0px"
	 width="64px" height="64px" viewBox="0 0 64 64" enable-background="new 0 0 64 64" xml:space="preserve">
<path fill-rule="evenodd" clip-rule="evenodd" d="M0,30.706v-9.905c0.496,0.047,0.996,0.081,1.502,0.09
	c9.809-0.289,14.525-6.593,14.44-6.661c0-0.001,0-0.001,0-0.001V13.5l0,0h1.733v0.683c0,0,0.643,0.584,0.794,0.736
	c3.4,3.011,8.461,5.872,14.224,5.972c5.74-0.1,10.889-2.655,14.44-6.662V13.5l0,0h1.733v0.683c0.004,0.022,6.596,7.272,15.019,6.708
	c0.038,0,0.076-0.004,0.114-0.005v9.82H0z M7.625,21.817c-3.909,1.095-5.918,0.81-5.892,0.799v5.78h5.892V21.817z M15.942,16.697
	c-0.235,0.224-0.476,0.441-0.721,0.654c-0.004,0.003-0.006,0.006-0.009,0.008c-0.246,0.213-0.495,0.42-0.75,0.622
	c-0.003,0.002-0.007,0.006-0.007,0.006s-2.563,2.039-5.099,3v7.409h6.585V16.697z M23.567,20.41
	c-0.825-0.408-1.619-0.866-2.38-1.372c-0.004-0.003-0.008-0.005-0.011-0.007c-1.699-1.131-3.021-2.409-3.501-2.901v12.267h5.892
	V20.41z M31.191,22.585c-3.987-0.327-5.892-1.41-5.892-1.41v7.222h5.892V22.585z M38.816,21.817L38.816,21.817
	c-2.385,0.673-4.559,0.816-5.892,0.801v5.778h5.892V21.817z M47.134,16.697c0.406-0.386-2.354,2.531-6.584,4.289v7.41h6.584V16.697z
	 M54.759,20.412c-3.102-1.532-5.11-3.482-5.892-4.282v12.267h5.892V20.412z M62.384,22.585c-4.382-0.354-5.893-1.41-5.893-1.41
	v7.222h5.893V22.585z M23.832,32.061v3.99c-1.681,0.96-2.907,2.622-3.275,4.588V50.5h-5.846V40.03
	c-0.521-1.817-1.79-3.319-3.452-4.151v-3.816C14.287,32.065,18.914,32.063,23.832,32.061z M55.023,32.061v3.99
	c-1.681,0.96-2.907,2.622-3.275,4.588V50.5h-5.846V40.03c-0.521-1.817-1.79-3.319-3.452-4.151v-3.816
	C45.479,32.065,50.105,32.063,55.023,32.061z"/>
</svg>
