<?xml version="1.0" encoding="utf-8"?>
<!-- Generator: Adobe Illustrator 14.0.0, SVG Export Plug-In . SVG Version: 6.00 Build 43363)  -->
<!DOCTYPE svg PUBLIC "-//W3C//DTD SVG 1.1//EN" "http://www.w3.org/Graphics/SVG/1.1/DTD/svg11.dtd">
<svg version="1.1" id="Capa_1" xmlns="http://www.w3.org/2000/svg" xmlns:xlink="http://www.w3.org/1999/xlink" x="0px" y="0px"
	 width="64px" height="64px" viewBox="0 0 64 64" enable-background="new 0 0 64 64" xml:space="preserve">
<g>
	<path fill-rule="evenodd" clip-rule="evenodd" d="M57.952,29.617c-1.131,0-2.047-0.649-2.047-1.452v-9.048
		c0-0.802,0.916-1.451,2.047-1.451c1.13,0,2.048,0.649,2.048,1.451v9.048C60,28.968,59.082,29.617,57.952,29.617z M51.656,52.577
		v4.858c0,1.385-1.526,2.509-3.41,2.509h-0.284c-1.884,0-3.41-1.124-3.41-2.509v-4.568H20.598v4.568
		c0,1.385-1.527,2.509-3.411,2.509h-0.284c-1.882,0-3.41-1.124-3.41-2.509v-4.568h-0.561c-1.319,0-2.305-1.07-2.305-2.391
		c0,0-0.576-12.175-0.711-23.42c-0.118-9.647,1.65-18.611,1.65-18.611c0-1.319,1.241-2.39,2.563-2.39h35.742
		c1.32,0,2.561,1.071,2.561,2.39c0,0,1.878,9.176,1.878,18.951c0,11.149-0.255,23.08-0.255,23.08
		C54.055,51.392,52.613,52.176,51.656,52.577z M17.402,49.084c1.799,0,3.258-1.457,3.258-3.258c0-1.799-1.458-3.258-3.258-3.258
		c-1.801,0-3.259,1.459-3.259,3.258C14.143,47.627,15.601,49.084,17.402,49.084z M43.781,7.592H21.243v4.61h22.538V7.592z
		 M48.676,13.881H15.808c0,0-1.565,9.875-1.395,21.314c0.17,0.17,35.146,0,35.657,0C50.583,25.804,48.676,13.881,48.676,13.881z
		 M47.508,42.568c-1.799,0-3.258,1.459-3.258,3.258c0,1.801,1.459,3.258,3.258,3.258s3.258-1.457,3.258-3.258
		C50.766,44.027,49.307,42.568,47.508,42.568z M6.046,29.617C4.916,29.617,4,28.968,4,28.165v-9.048
		c0-0.802,0.916-1.451,2.046-1.451c1.131,0,2.047,0.649,2.047,1.451v9.048C8.093,28.968,7.177,29.617,6.046,29.617z"/>
</g>
</svg>
