<?xml version="1.0" encoding="utf-8"?>
<!-- Generator: Adobe Illustrator 14.0.0, SVG Export Plug-In . SVG Version: 6.00 Build 43363)  -->
<!DOCTYPE svg PUBLIC "-//W3C//DTD SVG 1.1//EN" "http://www.w3.org/Graphics/SVG/1.1/DTD/svg11.dtd">
<svg version="1.1" id="Capa_1" xmlns="http://www.w3.org/2000/svg" xmlns:xlink="http://www.w3.org/1999/xlink" x="0px" y="0px"
	 width="64px" height="64px" viewBox="0 0 64 64" enable-background="new 0 0 64 64" xml:space="preserve">
<path id="camera_1_" d="M22.587,35.765c0-8.317,6.743-15.06,15.06-15.06c8.316,0,15.059,6.742,15.059,15.06
	c0,8.318-6.743,15.059-15.059,15.059C29.33,50.823,22.587,44.083,22.587,35.765z M3.765,15.06C1.685,15.06,0,16.743,0,18.822v33.884
	c0,2.08,1.685,3.765,3.765,3.765h56.47c2.079,0,3.766-1.685,3.766-3.765V18.822c0-2.079-1.687-3.763-3.766-3.763h-7.528l-7.529-7.53
	H30.118l-7.531,7.53H3.765z M28.236,35.765c0,5.197,4.211,9.412,9.41,9.412c5.198,0,9.414-4.215,9.414-9.412
	c0-5.198-4.215-9.412-9.414-9.412C32.448,26.353,28.236,30.566,28.236,35.765z"/>
</svg>
