<?xml version="1.0" encoding="utf-8"?>
<!-- Generator: Adobe Illustrator 14.0.0, SVG Export Plug-In . SVG Version: 6.00 Build 43363)  -->
<!DOCTYPE svg PUBLIC "-//W3C//DTD SVG 1.1//EN" "http://www.w3.org/Graphics/SVG/1.1/DTD/svg11.dtd">
<svg version="1.1" id="Capa_1" xmlns="http://www.w3.org/2000/svg" xmlns:xlink="http://www.w3.org/1999/xlink" x="0px" y="0px"
	 width="64px" height="64px" viewBox="0 0 64 64" enable-background="new 0 0 64 64" xml:space="preserve">
<g>
	<path fill-rule="evenodd" clip-rule="evenodd" d="M48.496,51.348v9.341c0,1.829-1.482,3.312-3.311,3.312H18.814
		c-1.829,0-3.311-1.482-3.311-3.312v-9.341c0.034-0.26,9.111-19.906,9.021-22.163c0.698-2.721-1.547-5.081-1.547-5.081
		c-0.093-0.068-0.155-0.134-0.202-0.198c-0.567-0.104-0.945-0.282-0.945-0.487V21.78c0-0.321,0.917-0.58,2.05-0.58h5.748
		c-0.044-0.475-0.33-0.96-0.883-1.596c-1.788-2.051-1.792-3.804-0.011-5.861c3.488-4.03,4.444-3.58,0.864,0.559
		c-1.458,1.682-1.512,3,0.008,4.743c0.705,0.809,1.065,1.485,1.104,2.155h1.846c-0.042-0.477-0.329-0.962-0.884-1.599
		c-1.788-2.052-1.792-3.806-0.011-5.862c1.161-1.342,1.159-2.485-0.007-3.823c-1.771-2.033-1.774-3.693-0.011-5.73
		c1.175-1.356,1.173-2.271-0.007-3.626L32.501,0c1.434,1.646,1.494,3.029,0.009,4.743c-1.398,1.616-1.563,2.809,0.009,4.613
		c1.491,1.71,1.426,3.303,0.009,4.94c-1.456,1.683-1.511,3.001,0.009,4.744c0.705,0.811,1.065,1.487,1.104,2.159h1.846
		c-0.041-0.478-0.327-0.964-0.885-1.603c-1.788-2.052-1.791-3.806-0.01-5.862c1.161-1.342,1.159-2.485-0.008-3.823
		c-1.771-2.033-1.773-3.693-0.011-5.73c4.059-4.688,4.586-3.74,0.865,0.558c-1.399,1.616-1.563,2.809,0.008,4.613
		c1.491,1.71,1.427,3.303,0.009,4.94c-1.455,1.683-1.511,3.001,0.01,4.744c0.707,0.812,1.067,1.49,1.105,2.163h3.549
		c1.133,0,2.05,0.259,2.05,0.58v1.638c0,0.205-0.377,0.384-0.944,0.487c-0.048,0.064-0.11,0.13-0.203,0.198
		c0,0-2.245,2.36-1.547,5.081C39.386,31.441,48.463,51.088,48.496,51.348z M38.425,25.353c0.064-0.048,0.107-0.093,0.141-0.138
		c0.393-0.071,0.654-0.196,0.654-0.338v-1.135c0-0.223-0.636-0.403-1.421-0.403h-2.134c-0.065,0.082-0.119,0.159-0.192,0.244
		l-0.378-0.244H32.74c-0.067,0.084-0.121,0.162-0.195,0.249l-0.385-0.249h-2.345c-0.068,0.085-0.123,0.165-0.199,0.253l-0.391-0.253
		h-2.684c-0.785,0-1.421,0.181-1.421,0.403v1.135c0,0.142,0.262,0.267,0.654,0.338c0.033,0.045,0.076,0.09,0.141,0.138
		c0,0,1.557,1.636,1.072,3.522c0.062,1.564-8.921,22.426-8.944,22.606v7.51c0,1.269,1.027,2.296,2.296,2.296h23.766
		c1.267,0,2.294-1.027,2.294-2.296l-0.104-7.717c-0.023-0.18-9.006-20.835-8.944-22.399C36.867,26.988,38.425,25.353,38.425,25.353z
		 M44.429,52.479v6.239c0,0.574-0.497,1.04-1.11,1.04H21.121c-0.613,0-1.109-0.466-1.109-1.04v-6.239
		c0-0.573,4.299-3.801,12.208-0.13C39.919,55.923,44.429,51.905,44.429,52.479z M34.508,50.911c-1.428,0-2.586-1.157-2.586-2.586
		s1.158-2.587,2.586-2.587c1.429,0,2.587,1.158,2.587,2.587S35.937,50.911,34.508,50.911z M31.562,43.928
		c-1.142,0-2.068-0.926-2.068-2.069c0-1.143,0.927-2.069,2.068-2.069c1.144,0,2.07,0.927,2.07,2.069
		C33.632,43.002,32.705,43.928,31.562,43.928z M27.84,49.722c-0.914,0-1.655-0.741-1.655-1.655s0.741-1.655,1.655-1.655
		s1.655,0.741,1.655,1.655S28.754,49.722,27.84,49.722z"/>
</g>
</svg>
