<?xml version="1.0" encoding="utf-8"?>
<!-- Generator: Adobe Illustrator 14.0.0, SVG Export Plug-In . SVG Version: 6.00 Build 43363)  -->
<!DOCTYPE svg PUBLIC "-//W3C//DTD SVG 1.1//EN" "http://www.w3.org/Graphics/SVG/1.1/DTD/svg11.dtd">
<svg version="1.1" id="Capa_1" xmlns="http://www.w3.org/2000/svg" xmlns:xlink="http://www.w3.org/1999/xlink" x="0px" y="0px"
	 width="64px" height="64px" viewBox="0 0 64 64" enable-background="new 0 0 64 64" xml:space="preserve">
<g>
	<path fill-rule="evenodd" clip-rule="evenodd" d="M4,59.936V57.67h55.875v2.266H4z M52.564,37.927l7.436,1.7v12.551h-7.436V37.927z
		 M44.794,24.337h7.436v27.834h-7.436V24.337z M33.138,20.777l11.002-4.128v35.522H33.138V20.777z M21.483,32.104
		c0,0,1.434-3.882,5.707-4.007c4.138-0.122,5.294,4.007,5.294,4.007v20.072H21.483V32.104z M11.77,12.342
		c0,0,4.003-3.278,3.886-3.278c-0.057,0,4.532,3.278,4.532,3.278v39.822H11.77V12.342z M4,37.927h7.437v14.251H4V37.927z"/>
</g>
</svg>
