<?xml version="1.0" encoding="utf-8"?>
<!-- Generator: Adobe Illustrator 14.0.0, SVG Export Plug-In . SVG Version: 6.00 Build 43363)  -->
<!DOCTYPE svg PUBLIC "-//W3C//DTD SVG 1.1//EN" "http://www.w3.org/Graphics/SVG/1.1/DTD/svg11.dtd">
<svg version="1.1" id="Capa_1" xmlns="http://www.w3.org/2000/svg" xmlns:xlink="http://www.w3.org/1999/xlink" x="0px" y="0px"
	 width="64px" height="64px" viewBox="0 0 64 64" enable-background="new 0 0 64 64" xml:space="preserve">
<g>
	<path fill-rule="evenodd" clip-rule="evenodd" d="M55.703,23.948c-0.5,0-0.989-0.044-1.465-0.13
		c-3.501,7.351-10.161,12.729-18.09,14.138v15.396h13.165c0.415,0,0.752,0.341,0.752,0.76v3.804h2.259
		c0.415,0,0.752,0.341,0.752,0.761v4.563c0,0.419-0.337,0.76-0.752,0.76H11.675c-0.415,0-0.752-0.341-0.752-0.76v-4.563
		c0-0.42,0.337-0.761,0.752-0.761h2.261v-3.804c0-0.419,0.337-0.76,0.752-0.76h13.163V37.956
		c-7.929-1.409-14.587-6.787-18.088-14.138c-0.478,0.085-0.968,0.13-1.467,0.13C3.714,23.948,0,20.197,0,15.567
		c0-4.363,3.299-7.947,7.515-8.346C7.953,4.667,8.742,2.241,9.825,0h44.35c1.084,2.241,1.871,4.667,2.31,7.221
		C60.7,7.62,64,11.204,64,15.567C64,20.197,60.284,23.948,55.703,23.948z M7.099,16.02c-0.262-1.808-0.262-3.579,0.235-5.147
		c-0.239,0.007-0.047,0.041-0.29,0.094c-2.282,0.498-3.845,2.879-3.49,5.317c0.353,2.438,2.139,4.05,4.423,3.553
		c0.09-0.02,0.261-0.11,0.349-0.136C7.737,18.626,7.297,17.393,7.099,16.02z M57.269,10.967c-0.243-0.053-0.052-0.087-0.29-0.094
		c0.497,1.568,0.497,3.339,0.234,5.147c-0.197,1.373-0.639,2.606-1.226,3.681c0.088,0.025,0.258,0.116,0.349,0.136
		c2.284,0.498,4.07-1.115,4.423-3.553C61.113,13.846,59.55,11.465,57.269,10.967z"/>
</g>
</svg>
