<?xml version="1.0" encoding="utf-8"?>
<!-- Generator: Adobe Illustrator 14.0.0, SVG Export Plug-In . SVG Version: 6.00 Build 43363)  -->
<!DOCTYPE svg PUBLIC "-//W3C//DTD SVG 1.1//EN" "http://www.w3.org/Graphics/SVG/1.1/DTD/svg11.dtd">
<svg version="1.1" id="Capa_1" xmlns="http://www.w3.org/2000/svg" xmlns:xlink="http://www.w3.org/1999/xlink" x="0px" y="0px"
	 width="64px" height="64px" viewBox="0 0 64 64" enable-background="new 0 0 64 64" xml:space="preserve">
<path id="eye" d="M19.913,32c0-6.284,5.094-11.378,11.375-11.378c6.286,0,11.379,5.094,11.379,11.378s-5.094,11.377-11.379,11.377
	C25.006,43.377,19.913,38.284,19.913,32z M64,32c-7.246-9.06-18.881-14.934-32-14.934S7.249,22.94,0,32h0.062
	C7.294,41.06,18.906,46.934,32,46.934c13.093,0,24.706-5.874,31.937-14.934H64z M25.601,32c0,3.142,2.546,5.69,5.687,5.69
	c3.143,0,5.689-2.549,5.689-5.69c0-3.143-2.546-5.689-5.689-5.689C28.147,26.311,25.601,28.858,25.601,32z"/>
</svg>
