<?xml version="1.0" encoding="utf-8"?>
<!-- Generator: Adobe Illustrator 14.0.0, SVG Export Plug-In . SVG Version: 6.00 Build 43363)  -->
<!DOCTYPE svg PUBLIC "-//W3C//DTD SVG 1.1//EN" "http://www.w3.org/Graphics/SVG/1.1/DTD/svg11.dtd">
<svg version="1.1" id="Capa_1" xmlns="http://www.w3.org/2000/svg" xmlns:xlink="http://www.w3.org/1999/xlink" x="0px" y="0px"
	 width="64px" height="64px" viewBox="0 0 64 64" enable-background="new 0 0 64 64" xml:space="preserve">
<g>
	<path fill-rule="evenodd" clip-rule="evenodd" d="M44.414,39.339l7.968,4.074V64H11.618V46.658l8.592-3.819v4.487l8.975-4.487
		v4.239l7.88-4.41l0.775-32.427l2.063-0.037c-0.185-0.497-0.359-1.068-0.376-1.417c-0.047-0.514,0.017-1.313,0.084-1.666
		c0.098-0.309,0.168-0.903,0.138-1.293c-0.033-0.373,0.023-0.685,0.242-1.313c0.594-1.676,1.857-2.7,2.633-3.063
		c0.319-0.188,0.615-0.356,0.793-0.564c0.164-0.111,0.278-0.191,0.319-0.185c0.06,0.01-0.037,0.195-0.107,0.366
		c-0.202,0.326-0.686,0.846-0.944,1.041c-0.836,0.699-2.053,2.764-2.358,4.43c-0.178,0.964-0.04,2.476,0.135,3.658l0.81-0.017
		c0-0.202,0-0.399-0.014-0.547c-0.121-1.441,0.014-3.141,0.592-4.313c0.456-0.93,1.632-1.706,2.754-2.392
		c0.775-0.463,1.279-1.447,1.297-2.294C45.886,0.265,45.926,0.03,45.973,0c0.101,0.017,0.161,0.131,0.296,0.702
		c0.047,0.292,0.182,2.103-0.04,3.318c-0.313,1.686-1.693,3.013-3.306,4.175c-0.675,0.483-1.055,1.125-1.27,1.981l1.854-0.033
		L44.414,39.339z M20.436,51.115h-3.658v3.658h3.658V51.115z M27.116,51.115h-3.658v3.658h3.658V51.115z M34.754,51.115h-3.661
		v3.658h3.661V51.115z"/>
</g>
</svg>
