<?xml version="1.0" encoding="utf-8"?>
<!-- Generator: Adobe Illustrator 14.0.0, SVG Export Plug-In . SVG Version: 6.00 Build 43363)  -->
<!DOCTYPE svg PUBLIC "-//W3C//DTD SVG 1.1//EN" "http://www.w3.org/Graphics/SVG/1.1/DTD/svg11.dtd">
<svg version="1.1" id="Capa_1" xmlns="http://www.w3.org/2000/svg" xmlns:xlink="http://www.w3.org/1999/xlink" x="0px" y="0px"
	 width="64px" height="64px" viewBox="0 0 64 64" enable-background="new 0 0 64 64" xml:space="preserve">
<path fill-rule="evenodd" clip-rule="evenodd" d="M33.758,33.432V22h21.907c1.195,0,2.164,0.886,2.164,1.979v9.463
	C57.764,33.394,46.026,33.41,33.758,33.432z M47.615,16.31c-2.837,2.537-16.01,5.072-16.01,5.072s2.993-10.266,6.82-15.347
	c2.29-3.041,7.194-2.294,9.732,0.543C50.694,9.416,50.452,13.772,47.615,16.31z M45.771,8.675c-1.628-1.821-4.425-1.978-6.246-0.349
	c-1.82,1.629-4.378,9.851-4.378,9.851s8.456-1.628,10.276-3.256C47.244,13.292,47.399,10.495,45.771,8.675z M18.753,13.695
	c-1.968-2.756-1.328-6.586,1.429-8.553c2.756-1.968,6.586-1.328,8.554,1.428c1.953,2.736,2.382,14.672,2.382,14.672
	S20.375,16.499,18.753,13.695z M21.214,12.891c1.151,1.613,7.552,4.406,7.552,4.406s-0.561-6.961-1.711-8.573
	c-1.151-1.613-3.392-1.987-5.005-0.836C20.437,9.038,20.062,11.279,21.214,12.891z M29.431,33.44
	c-12.017,0.021-23.284,0.042-23.26,0.003V23.98C6.171,22.887,7.14,22,8.334,22h21.096V33.44z M29.182,60H10.859
	c-1.068,0-1.933-1.574-1.933-3.516V35.828h20.256V60z M55.073,56.484c0,1.941-0.865,3.516-1.933,3.516H33.957V35.828h21.116V56.484z
	"/>
</svg>
