<?xml version="1.0" encoding="utf-8"?>
<!-- Generator: Adobe Illustrator 14.0.0, SVG Export Plug-In . SVG Version: 6.00 Build 43363)  -->
<!DOCTYPE svg PUBLIC "-//W3C//DTD SVG 1.1//EN" "http://www.w3.org/Graphics/SVG/1.1/DTD/svg11.dtd">
<svg version="1.1" id="Capa_1" xmlns="http://www.w3.org/2000/svg" xmlns:xlink="http://www.w3.org/1999/xlink" x="0px" y="0px"
	 width="64px" height="64px" viewBox="0 0 64 64" enable-background="new 0 0 64 64" xml:space="preserve">
<g>
	<path fill-rule="evenodd" clip-rule="evenodd" d="M29.999,38.768c-0.027-0.191-0.326-0.182-0.38-0.382l-0.073-0.043
		c-0.002,0.023,0.019,0.008,0.054-0.032c-0.73-2.529-3.604-5.689-7.715-8.121c-4.479-2.648-9.036-3.617-11.504-2.673
		c-0.096-0.704-0.01-1.346,0.307-1.883c1.354-2.291,1.36-2.299,2.713-4.59c1.5-2.535,7.322-1.865,13.006,1.497
		c4.289,2.536,7.271,5.878,7.834,8.457L58.45,45.312c1.587,0.938,2.093,3.504,0.868,5.574c-1.226,2.071-3.717,2.864-5.303,1.926
		 M28.217,19.48c-4.479-2.649-9.036-3.618-11.503-2.672c-0.098-0.704-0.012-1.346,0.306-1.884c1.354-2.291,1.359-2.299,2.714-4.59
		C21.233,7.8,27.056,8.47,32.74,11.831c5.685,3.361,9.078,8.142,7.579,10.676c-1.354,2.29-1.359,2.299-2.714,4.589
		c-0.318,0.538-0.839,0.922-1.504,1.176C35.74,25.654,32.697,22.129,28.217,19.48z M20.075,33.25
		c5.684,3.361,9.077,8.141,7.579,10.676c-1.354,2.291-1.359,2.299-2.714,4.59c-1.5,2.535-7.322,1.864-13.006-1.497
		c-5.684-3.36-9.077-8.141-7.579-10.675c1.354-2.292,1.359-2.299,2.714-4.59C8.567,29.218,14.391,29.889,20.075,33.25z"/>
</g>
</svg>
