<?xml version="1.0" encoding="utf-8"?>
<!-- Generator: Adobe Illustrator 14.0.0, SVG Export Plug-In . SVG Version: 6.00 Build 43363)  -->
<!DOCTYPE svg PUBLIC "-//W3C//DTD SVG 1.1//EN" "http://www.w3.org/Graphics/SVG/1.1/DTD/svg11.dtd">
<svg version="1.1" id="Capa_1" xmlns="http://www.w3.org/2000/svg" xmlns:xlink="http://www.w3.org/1999/xlink" x="0px" y="0px"
	 width="64px" height="64px" viewBox="0 0 64 64" enable-background="new 0 0 64 64" xml:space="preserve">
<g>
	<path fill-rule="evenodd" clip-rule="evenodd" d="M44.998,14.639l7.999-5.94l-5.938,7.998
		C46.425,15.962,45.735,15.272,44.998,14.639z M42.119,41.703l-2.625,6.312H23.466l-2.535-6.312
		c-4.135-3.045-6.798-7.83-6.798-13.213c0-9.202,7.787-16.66,17.391-16.66c9.605,0,17.39,7.458,17.39,16.66
		C48.913,33.873,46.251,38.658,42.119,41.703z M30.525,9.98L32,0l1.473,9.956c-0.406-0.027-0.811-0.063-1.223-0.063
		C31.667,9.894,31.095,9.932,30.525,9.98z M11.005,8.698l8.271,6.144c-0.754,0.667-1.467,1.38-2.112,2.158L11.005,8.698z
		 M12.686,29.459c0,0.604,0.035,1.195,0.09,1.784l-10.47-1.546l10.445-1.546C12.721,28.586,12.686,29.02,12.686,29.459z
		 M19.562,44.338l-8.557,6.355l6.354-8.56C18.035,42.926,18.77,43.663,19.562,44.338z M24.278,49.509h14.492
		c0.8,0,1.45,0.647,1.45,1.447v1.451c0,0.8-0.65,1.447-1.45,1.447H24.278c-0.799,0-1.447-0.647-1.447-1.447v-1.451
		C22.831,50.156,23.479,49.509,24.278,49.509z M24.278,55.306h14.492c0.8,0,1.45,0.647,1.45,1.447v1.451
		c0,0.8-0.65,1.447-1.45,1.447H24.278c-0.799,0-1.447-0.647-1.447-1.447v-1.451C22.831,55.953,23.479,55.306,24.278,55.306z
		 M27.177,61.103h8.695c0.8,0,1.448,0.647,1.448,1.447c0,0.803-0.648,1.45-1.448,1.45h-8.695c-0.8,0-1.45-0.647-1.45-1.45
		C25.727,61.75,26.377,61.103,27.177,61.103z M52.997,50.693l-8.286-6.151c0.775-0.643,1.485-1.356,2.155-2.107L52.997,50.693z
		 M61.694,29.697l-9.967,1.473c0.049-0.564,0.087-1.134,0.087-1.711c0-0.415-0.038-0.822-0.063-1.234L61.694,29.697z"/>
</g>
</svg>
