<?xml version="1.0" encoding="utf-8"?>
<!-- Generator: Adobe Illustrator 14.0.0, SVG Export Plug-In . SVG Version: 6.00 Build 43363)  -->
<!DOCTYPE svg PUBLIC "-//W3C//DTD SVG 1.1//EN" "http://www.w3.org/Graphics/SVG/1.1/DTD/svg11.dtd">
<svg version="1.1" id="Capa_1" xmlns="http://www.w3.org/2000/svg" xmlns:xlink="http://www.w3.org/1999/xlink" x="0px" y="0px"
	 width="64px" height="64px" viewBox="0 0 64 64" enable-background="new 0 0 64 64" xml:space="preserve">
<path fill-rule="evenodd" clip-rule="evenodd" d="M11.516,64l-0.077-2.759c0-1.016,0.823-1.839,1.838-1.839h5.339l-0.033-1.22
	c0-0.223,0.064-0.427,0.17-0.605c-4.188-3.546-6.854-8.835-6.854-14.754c0-8.006,4.863-14.873,11.794-17.81
	c-0.07,0.813,0.061,1.655,0.43,2.448c0.323,0.695,0.794,1.273,1.354,1.722c-5.314,2.245-9.045,7.505-9.045,13.64
	c0,6.675,4.417,12.314,10.485,14.159H44.22c0.662,0,1.199,0.537,1.199,1.2v1.22h5.306c1.015,0,1.837,0.823,1.837,1.839V64
	C52.446,63.987,11.516,63.954,11.516,64z M46.62,42.446l1.943-0.905c0.23-0.107,0.516,0.018,0.636,0.276l1.242,2.672
	c0.121,0.26,0.034,0.558-0.197,0.666l-1.942,0.903c-0.231,0.107-0.516-0.016-0.637-0.276l-1.242-2.67
	C46.302,42.852,46.39,42.554,46.62,42.446z M46.496,46.9l-1.943,0.904c-0.231,0.108-0.504,0.009-0.612-0.223l-1.292-2.778
	c-0.106-0.23-0.008-0.504,0.223-0.611l1.943-0.905c0.23-0.107,0.504-0.008,0.612,0.223l1.292,2.779
	C46.825,46.519,46.727,46.792,46.496,46.9z M51.042,38.696L39.1,44.259c-0.42,0.196-0.922,0.013-1.117-0.408
	c-0.197-0.423-0.015-0.925,0.407-1.121l11.942-5.562c0.42-0.196,0.922-0.013,1.117,0.408C51.646,37.999,51.463,38.499,51.042,38.696
	z M34.709,22.467c1.124,2.417,0.077,5.29-2.339,6.415s-5.286,0.078-6.41-2.339c-1.124-2.418-0.078-5.29,2.338-6.415
	S33.584,20.05,34.709,22.467z M47.171,37.457l-6.248,2.91c-0.921,0.428-2.015,0.03-2.442-0.892l-4.5-9.675
	c2.542-1.748,3.531-5.121,2.187-8.012c-1.344-2.891-4.562-4.305-7.534-3.484l-1.656-3.562c-0.356-0.764-0.141-1.646,0.47-2.17
	l-2.85-6.125c-0.255-0.548-0.098-1.177,0.338-1.553L23.98,2.845c-0.22-0.475-0.015-1.038,0.46-1.258l3.217-1.498
	c0.474-0.222,1.037-0.016,1.257,0.457l0.938,2.015c0.629-0.216,1.332,0.068,1.619,0.686l2.826,6.07
	c0.878-0.301,1.859,0.104,2.261,0.964l11.504,24.732C48.489,35.934,48.091,37.027,47.171,37.457z"/>
</svg>
