<?xml version="1.0" encoding="utf-8"?>
<!-- Generator: Adobe Illustrator 14.0.0, SVG Export Plug-In . SVG Version: 6.00 Build 43363)  -->
<!DOCTYPE svg PUBLIC "-//W3C//DTD SVG 1.1//EN" "http://www.w3.org/Graphics/SVG/1.1/DTD/svg11.dtd">
<svg version="1.1" id="Capa_1" xmlns="http://www.w3.org/2000/svg" xmlns:xlink="http://www.w3.org/1999/xlink" x="0px" y="0px"
	 width="64px" height="64px" viewBox="0 0 64 64" enable-background="new 0 0 64 64" xml:space="preserve">
<path fill-rule="evenodd" clip-rule="evenodd" d="M62.74,52.948c-0.049,0.53-0.138,1.049-0.267,1.553l1.359,1.467
	c-0.476,1.336-1.187,2.559-2.08,3.626l-1.971-0.399c-0.355,0.351-0.734,0.676-1.138,0.971l0.1,1.995
	c-1.192,0.715-2.521,1.223-3.938,1.481l-1.244-1.559c-0.298,0.025-0.599,0.042-0.903,0.042c-0.196,0-0.392-0.007-0.586-0.019
	l-1.211,1.599c-1.421-0.217-2.756-0.686-3.964-1.357l0.049-1.985c-0.432-0.296-0.838-0.625-1.219-0.982l-1.963,0.447
	c-0.911-1.033-1.646-2.224-2.158-3.529l1.319-1.493c-0.154-0.534-0.265-1.085-0.329-1.651l-1.801-0.922
	c-0.002-0.088-0.007-0.172-0.007-0.26c0-1.316,0.218-2.583,0.614-3.767l1.988-0.301c0.241-0.548,0.529-1.072,0.861-1.564
	l-0.789-1.873c0.854-1.043,1.879-1.938,3.035-2.642l1.73,1.058c0.547-0.266,1.12-0.481,1.715-0.646l0.6-1.94
	c0.686-0.124,1.392-0.193,2.114-0.193c0.647,0,1.284,0.056,1.904,0.156l0.649,1.933c0.585,0.151,1.149,0.356,1.689,0.606l1.7-1.097
	c1.182,0.686,2.234,1.567,3.112,2.604l-0.746,1.9c0.321,0.462,0.606,0.949,0.85,1.463l1.998,0.251c0.46,1.264,0.71,2.63,0.71,4.052
	c0,0.003,0,0.004,0,0.006L62.74,52.948z M52.658,47.887c-2.219,0-4.019,1.798-4.019,4.017c0,2.22,1.8,4.019,4.019,4.019
	c2.218,0,4.017-1.799,4.017-4.019C56.675,49.685,54.876,47.887,52.658,47.887z M48.919,36.16l-0.813,2.632
	c-0.808,0.226-1.585,0.518-2.324,0.877l-2.351-1.435c-1.567,0.954-2.958,2.169-4.114,3.584l1.068,2.541
	c-0.45,0.667-0.841,1.38-1.169,2.123l-2.695,0.406c-0.538,1.605-0.833,3.323-0.833,5.111c0,0.117,0.006,0.232,0.008,0.351
	c0,0,0.835,2.172,0.935,2.626c-5.622,0.04-11.68,0.009-14.143-0.09C8.926,54.343,8.649,47.226,8.649,47.226
	s-0.753-5.855,2.013-14.759c0.97-3.121,4.412-8.766,6.707-10.946c5.315-5.049,10.892-5.393,10.892-5.393l-6.543-4.613l4.18-0.048
	l0.357-1.918l3.261,1.397l2.307-3.573l2.17,4.968l4.343-3.975l4.611-1.628l-2.007,4.777l-3.843,4.377c0,0,7.78,4.742,9.776,7.196
	c2.504,3.078,4.922,6.258,5.894,9.379c0.392,1.265,0.706,2.448,0.967,3.564c-0.64-0.078-1.288-0.132-1.948-0.132
	C50.807,35.899,49.85,35.992,48.919,36.16z M36.452,41.709c0-0.201-0.164-0.365-0.365-0.365h-2.014
	c-2.779,0-5.156-1.721-6.139-4.152h3.841c0.281,0,0.51-0.244,0.51-0.548v-0.824c0-0.304-0.229-0.549-0.51-0.549h-4.298
	c-0.015-0.188-0.015-0.935,0-1.12h4.352c0.281,0,0.51-0.248,0.51-0.55v-0.824c0-0.303-0.229-0.55-0.51-0.55h-3.895
	c0.982-2.43,3.36-4.151,6.139-4.151h2.014c0.201,0,0.365-0.164,0.365-0.367v-2.349c0-0.202-0.164-0.367-0.365-0.367
	c0,0-2.5-0.009-2.53,0c-4.278,0.224-7.819,3.228-8.875,7.234h-2.421c-0.281,0-0.508,0.247-0.508,0.55v0.824
	c0,0.302,0.228,0.55,0.508,0.55h2.119c-0.011,0.186-0.012,0.933,0,1.12h-2.171c-0.283,0-0.511,0.245-0.511,0.549v0.824
	c0,0.304,0.229,0.548,0.511,0.548h2.473c1.056,4.008,4.597,7.009,8.875,7.234c0.03,0.008,2.53,0,2.53,0
	c0.201,0,0.365-0.163,0.365-0.366V41.709z"/>
</svg>
