<?xml version="1.0" encoding="utf-8"?>
<!-- Generator: Adobe Illustrator 14.0.0, SVG Export Plug-In . SVG Version: 6.00 Build 43363)  -->
<!DOCTYPE svg PUBLIC "-//W3C//DTD SVG 1.1//EN" "http://www.w3.org/Graphics/SVG/1.1/DTD/svg11.dtd">
<svg version="1.1" id="Capa_1" xmlns="http://www.w3.org/2000/svg" xmlns:xlink="http://www.w3.org/1999/xlink" x="0px" y="0px"
	 width="64px" height="64px" viewBox="0 0 64 64" enable-background="new 0 0 64 64" xml:space="preserve">
<g>
	<path fill-rule="evenodd" clip-rule="evenodd" d="M46.437,56.28c-7.489,0-13.562-1.763-13.562-3.937c0-1.965,0-1.973,0-3.938
		c0-0.46,0.287-0.9,0.787-1.313c1.864,1.529,6.873,2.625,12.774,2.625c5.903,0,10.911-1.096,12.775-2.625
		C59.713,47.505,60,47.945,60,48.405c0,1.966,0,1.974,0,3.938C60,54.518,53.928,56.28,46.437,56.28z M46.437,47.093
		c-7.489,0-13.562-1.763-13.562-3.938c0-1.964,0-1.972,0-3.937c0-0.461,0.287-0.901,0.787-1.313
		c1.864,1.528,6.873,2.624,12.774,2.624c5.903,0,10.911-1.096,12.775-2.624C59.713,38.317,60,38.758,60,39.219
		c0,1.965,0,1.973,0,3.937C60,45.33,53.928,47.093,46.437,47.093z M46.437,37.906c-7.489,0-13.562-1.763-13.562-3.938
		c0-1.964,0-1.971,0-3.937c0-2.174,6.072-3.938,13.562-3.938c7.491,0,13.563,1.764,13.563,3.938c0,1.966,0,1.973,0,3.937
		C60,36.144,53.928,37.906,46.437,37.906z M17.563,56.28C10.072,56.28,4,54.518,4,52.344c0-1.965,0-1.973,0-3.938
		c0-0.46,0.287-0.9,0.789-1.313c1.864,1.529,6.871,2.625,12.774,2.625s10.911-1.096,12.774-2.625c0.5,0.412,0.788,0.853,0.788,1.313
		c0,1.966,0,1.974,0,3.938C31.125,54.518,25.053,56.28,17.563,56.28z M17.563,47.093C10.072,47.093,4,45.33,4,43.155
		c0-1.964,0-1.972,0-3.937c0-0.461,0.287-0.901,0.789-1.313c1.864,1.528,6.871,2.624,12.774,2.624s10.911-1.096,12.774-2.624
		c0.5,0.411,0.788,0.852,0.788,1.313c0,1.965,0,1.973,0,3.937C31.125,45.33,25.053,47.093,17.563,47.093z M17.563,37.906
		C10.072,37.906,4,36.144,4,33.968c0-1.964,0-1.971,0-3.937c0-0.461,0.287-0.901,0.789-1.313c1.864,1.528,6.871,2.625,12.774,2.625
		s10.911-1.097,12.774-2.625c0.5,0.411,0.788,0.852,0.788,1.313c0,1.966,0,1.973,0,3.937C31.125,36.144,25.053,37.906,17.563,37.906
		z M17.563,28.719C10.072,28.719,4,26.956,4,24.782c0-1.967,0-1.973,0-3.938c0-0.461,0.287-0.902,0.789-1.313
		c1.864,1.529,6.871,2.625,12.774,2.625s10.911-1.096,12.774-2.625c0.5,0.411,0.788,0.853,0.788,1.313c0,1.965,0,1.971,0,3.938
		C31.125,26.956,25.053,28.719,17.563,28.719z M17.563,19.531C10.072,19.531,4,17.77,4,15.594c0-1.965,0-1.972,0-3.937
		C4,9.481,10.072,7.72,17.563,7.72c7.49,0,13.562,1.762,13.562,3.938c0,1.965,0,1.972,0,3.937
		C31.125,17.77,25.053,19.531,17.563,19.531z"/>
</g>
</svg>
