<?xml version="1.0" encoding="utf-8"?>
<!-- Generator: Adobe Illustrator 14.0.0, SVG Export Plug-In . SVG Version: 6.00 Build 43363)  -->
<!DOCTYPE svg PUBLIC "-//W3C//DTD SVG 1.1//EN" "http://www.w3.org/Graphics/SVG/1.1/DTD/svg11.dtd">
<svg version="1.1" id="Capa_1" xmlns="http://www.w3.org/2000/svg" xmlns:xlink="http://www.w3.org/1999/xlink" x="0px" y="0px"
	 width="64px" height="64px" viewBox="0 0 64 64" enable-background="new 0 0 64 64" xml:space="preserve">
<path id="pill" d="M59.792,24.564L47.063,36.495l-3.885,3.644l0.099,0.106l0,0l-0.073,0.07L24.419,20.278l0.075-0.069l0.1,0.106
	l2.631-2.466L41.21,4.739c5.361-5.027,13.783-4.755,18.813,0.608L60.4,5.751C65.427,11.113,65.157,19.536,59.792,24.564z
	 M40.952,42.427l-7.795,7.307l-10.12,9.488c-1.356,1.27-2.903,2.205-4.545,2.811c-0.82,0.301-1.662,0.521-2.516,0.657
	c-1.707,0.274-3.45,0.218-5.134-0.167c-2.528-0.572-4.916-1.884-6.821-3.915l-0.384-0.41c-2.54-2.709-3.741-6.193-3.63-9.634
	s1.536-6.839,4.247-9.379l17.916-16.796L40.952,42.427z"/>
</svg>
