<?xml version="1.0" encoding="utf-8"?>
<!-- Generator: Adobe Illustrator 14.0.0, SVG Export Plug-In . SVG Version: 6.00 Build 43363)  -->
<!DOCTYPE svg PUBLIC "-//W3C//DTD SVG 1.1//EN" "http://www.w3.org/Graphics/SVG/1.1/DTD/svg11.dtd">
<svg version="1.1" id="Capa_1" xmlns="http://www.w3.org/2000/svg" xmlns:xlink="http://www.w3.org/1999/xlink" x="0px" y="0px"
	 width="64px" height="64px" viewBox="0 0 64 64" enable-background="new 0 0 64 64" xml:space="preserve">
<path id="certified" d="M49.046,18.761c-0.167,2.471,1.323,4.322-0.021,7.208c-1.346,2.884-3.719,2.927-5.491,4.629
	c-1.862,1.629-2.12,3.99-5.11,5.081c-2.992,1.087-4.7-0.562-7.157-0.609c-2.469-0.167-4.323,1.321-7.208-0.021
	c-2.884-1.348-2.927-3.72-4.63-5.491c-1.629-1.863-3.992-2.122-5.082-5.111c-1.087-2.99,0.561-4.699,0.61-7.156
	c0.165-2.47-1.324-4.322,0.021-7.207c1.346-2.884,3.717-2.927,5.489-4.63c1.864-1.628,2.122-3.992,5.113-5.082
	c2.991-1.086,4.699,0.561,7.157,0.61c2.47,0.167,4.321-1.321,7.208,0.021c2.884,1.347,2.927,3.719,4.63,5.491
	c1.628,1.864,3.991,2.121,5.081,5.111C50.74,14.596,49.095,16.303,49.046,18.761z M32,4.451c-7.497,0-13.575,6.076-13.575,13.573
	c0,7.497,6.078,13.574,13.575,13.574c7.498,0,13.575-6.077,13.575-13.574C45.575,10.527,39.498,4.451,32,4.451z M30.91,37.331
	c2.763,0.056,4.746,1.764,7.901,0.992V57.95v5.133c0,0.819-0.692,1.15-1.546,0.741l-5.337-2.564l-1.078-0.519l-1.078,0.519
	l-5.34,2.564c-0.853,0.409-1.544,0.076-1.544-0.741V57.95V37.617C25.986,38.689,28.122,37.143,30.91,37.331z M48.303,51.814
	c0.1,0.814-0.545,1.227-1.442,0.925l-5.612-1.896l-1.131-0.384l-0.031-2.84v-9.725c3.233-1.393,3.603-4.111,5.764-5.999
	L48.303,51.814z"/>
</svg>
