<?xml version="1.0" encoding="utf-8"?>
<!-- Generator: Adobe Illustrator 14.0.0, SVG Export Plug-In . SVG Version: 6.00 Build 43363)  -->
<!DOCTYPE svg PUBLIC "-//W3C//DTD SVG 1.1//EN" "http://www.w3.org/Graphics/SVG/1.1/DTD/svg11.dtd">
<svg version="1.1" id="Capa_1" xmlns="http://www.w3.org/2000/svg" xmlns:xlink="http://www.w3.org/1999/xlink" x="0px" y="0px"
	 width="64px" height="64px" viewBox="0 0 64 64" enable-background="new 0 0 64 64" xml:space="preserve">
<g id="save_and_send">
	<path d="M43.646,19.083h3.977c0.619,0,1.12-0.443,1.12-0.989V8.947c0-0.908-0.984-0.984-1.122-0.988h-3.973
		c-0.138,0.004-1.122,0.08-1.122,0.988v9.146C42.525,18.64,43.025,19.083,43.646,19.083z"/>
	<g>
		<path fill-rule="evenodd" clip-rule="evenodd" d="M50.068,42.588c0.521-0.447,1.368-0.447,1.89,0l7.735,6.633V9.476
			c0-3.025-2.453-5.477-5.477-5.477L12.592,4.018V3.999H9.168c-3.023,0-5.475,2.451-5.475,5.477v45.045
			c0,3.027,2.452,5.479,5.475,5.479h27.298V45.877h13.603V42.588z M13.703,54.106H9.775v-3.929h3.928V54.106z M47.423,21.428H16.101
			c-2.269,0-3.509-1.287-3.509-3.613V6.636h38.337v11.179C50.929,20.141,49.689,21.428,47.423,21.428z"/>
		<path fill-rule="evenodd" clip-rule="evenodd" d="M61.712,55.407l-8.631-7.154c-0.384-0.329-1.007-0.329-1.391,0v1.479H39.805
			v12.655H51.69v1.366c0.384,0.329,1.007,0.329,1.391,0l8.631-7.154C62.096,56.271,62.096,55.735,61.712,55.407z"/>
	</g>
</g>
</svg>
