<?xml version="1.0" encoding="utf-8"?>
<!-- Generator: Adobe Illustrator 14.0.0, SVG Export Plug-In . SVG Version: 6.00 Build 43363)  -->
<!DOCTYPE svg PUBLIC "-//W3C//DTD SVG 1.1//EN" "http://www.w3.org/Graphics/SVG/1.1/DTD/svg11.dtd">
<svg version="1.1" id="Capa_1" xmlns="http://www.w3.org/2000/svg" xmlns:xlink="http://www.w3.org/1999/xlink" x="0px" y="0px"
	 width="64px" height="64px" viewBox="0 0 64 64" enable-background="new 0 0 64 64" xml:space="preserve">
<path id="media_picture" d="M31.721,29.628C15.819,21.749,7.18,28.675,7.18,29.906v13.387c0,1.23,0.999,2.23,2.233,2.23h44.62
	c1.229,0,2.23-1,2.23-2.23V29.906C56.264,28.675,47.199,37.297,31.721,29.628z M57.999,16c1.104,0,2,0.896,2,1.999v28
	c0,1.104-0.896,2-2,2H6.001c-1.106,0-2-0.896-2-2v-28c0-1.103,0.894-1.999,2-1.999H57.999z M4.001,10C1.791,10,0,11.791,0,14.001v36
	C0,52.209,1.791,54,4.001,54h55.998C62.209,54,64,52.209,64,50V14c0-2.21-1.791-4-4.001-4H4.001z"/>
</svg>
