<?xml version="1.0" encoding="utf-8"?>
<!-- Generator: Adobe Illustrator 14.0.0, SVG Export Plug-In . SVG Version: 6.00 Build 43363)  -->
<!DOCTYPE svg PUBLIC "-//W3C//DTD SVG 1.1//EN" "http://www.w3.org/Graphics/SVG/1.1/DTD/svg11.dtd">
<svg version="1.1" id="Capa_1" xmlns="http://www.w3.org/2000/svg" xmlns:xlink="http://www.w3.org/1999/xlink" x="0px" y="0px"
	 width="64px" height="64px" viewBox="0 0 64 64" enable-background="new 0 0 64 64" xml:space="preserve">
<path fill-rule="evenodd" clip-rule="evenodd" d="M50.011,64H13.987c-2.21,0-4.002-1.791-4.002-3.999V4c0-2.209,1.792-4,4.002-4
	h36.023c2.211,0,4.004,1.791,4.004,4v56.001C54.015,62.209,52.222,64,50.011,64z M32.169,61.785c1.081,0,1.956-0.876,1.956-1.956
	s-0.875-1.956-1.956-1.956s-1.957,0.876-1.957,1.956S31.089,61.785,32.169,61.785z M48.912,6.001C48.912,4.896,48.017,4,46.911,4
	H17.087c-1.104,0-2.001,0.896-2.001,2.001v48.087c0,1.105,0.896,2.001,2.001,2.001h29.824c1.105,0,2.001-0.896,2.001-2.001V6.001z"
	/>
</svg>
