<?xml version="1.0" encoding="utf-8"?>
<!-- Generator: Adobe Illustrator 14.0.0, SVG Export Plug-In . SVG Version: 6.00 Build 43363)  -->
<!DOCTYPE svg PUBLIC "-//W3C//DTD SVG 1.1//EN" "http://www.w3.org/Graphics/SVG/1.1/DTD/svg11.dtd">
<svg version="1.1" id="Capa_1" xmlns="http://www.w3.org/2000/svg" xmlns:xlink="http://www.w3.org/1999/xlink" x="0px" y="0px"
	 width="64px" height="64px" viewBox="0 0 64 64" enable-background="new 0 0 64 64" xml:space="preserve">
<path id="tag_1_" d="M47.596,40.121L27.16,19.683l1.46-1.46l20.437,20.44L47.596,40.121z M42.611,45.105L22.174,24.668l1.461-1.46
	l20.437,20.438L42.611,45.105z M37.629,50.089L17.192,29.652l1.458-1.461l20.437,20.438L37.629,50.089z M16.127,16.127
	c-2.014,2.017-5.283,2.017-7.298,0c-2.016-2.014-2.016-5.284,0-7.299c2.015-2.015,5.284-2.015,7.298,0
	C18.144,10.843,18.144,14.113,16.127,16.127z M6.195,0C2.772,0,0,2.772,0,6.193v26.709L29.967,62.19
	c2.425,2.413,6.357,2.413,8.785,0l23.428-23.3c2.428-2.412,2.426-6.325,0-8.737L31.128,0.03L31.097,0L31.07,0.03L6.195,0z"/>
</svg>
