<?xml version="1.0" encoding="utf-8"?>
<!-- Generator: Adobe Illustrator 14.0.0, SVG Export Plug-In . SVG Version: 6.00 Build 43363)  -->
<!DOCTYPE svg PUBLIC "-//W3C//DTD SVG 1.1//EN" "http://www.w3.org/Graphics/SVG/1.1/DTD/svg11.dtd">
<svg version="1.1" id="Capa_1" xmlns="http://www.w3.org/2000/svg" xmlns:xlink="http://www.w3.org/1999/xlink" x="0px" y="0px"
	 width="64px" height="64px" viewBox="0 0 64 64" enable-background="new 0 0 64 64" xml:space="preserve">
<path id="time_waiting" fill-rule="evenodd" clip-rule="evenodd" d="M53.333,59.259c0.653,0,1.186,0.53,1.186,1.186
	c0,0.653,0,3.556,0,3.556H9.481c0,0,0-2.902,0-3.556c0-0.655,0.53-1.186,1.185-1.186h3.958
	c0.196-15.782,10.506-20.867,10.506-27.247c0-6.411-10.499-6.837-10.597-27.271h-3.867c-0.655,0-1.185-0.531-1.185-1.185
	c0-0.655,0-3.556,0-3.556h45.037c0,0,0,2.9,0,3.556c0,0.654-0.532,1.185-1.186,1.185h-3.627c-0.1,20.434-10.598,20.86-10.598,27.271
	c0,6.38,10.311,11.465,10.508,27.247H53.333z M35.819,32.012c0-6.439,10.5-6.838,10.598-27.271H17.823
	C17.921,25.174,28.42,25.573,28.42,32.012c0,6.189-10.311,11.407-10.507,27.247h1.797c0.421-1.407,1.823-3.095,4.242-4.347
	c0,0,6.225-3.241,6.699-3.671c0.393-0.357,0.839-1.153,1.34-2.39c0.522,1.236,0.971,2.032,1.351,2.39
	c0.456,0.43,6.648,3.671,6.648,3.671c2.404,1.252,3.801,2.939,4.217,4.347h2.118C46.13,43.419,35.819,38.201,35.819,32.012z
	 M33.352,28.534c-0.49,0.39-0.522,1.622-0.713,3.191c-0.046,0.475-0.152,1.188-0.319,2.139c-0.167-0.951-0.273-1.664-0.32-2.139
	c-0.191-1.569-0.43-2.632-0.715-3.191c1.084,2.111-6.972-7.096-9.295-10.961c3.518,2.242,6.952,3.362,10.304,3.362
	c3.352,0,6.798-1.12,10.34-3.362C42.806,17.293,37.056,25.6,33.352,28.534z"/>
</svg>
