<?xml version="1.0" encoding="utf-8"?>
<!-- Generator: Adobe Illustrator 14.0.0, SVG Export Plug-In . SVG Version: 6.00 Build 43363)  -->
<!DOCTYPE svg PUBLIC "-//W3C//DTD SVG 1.1//EN" "http://www.w3.org/Graphics/SVG/1.1/DTD/svg11.dtd">
<svg version="1.1" id="Capa_1" xmlns="http://www.w3.org/2000/svg" xmlns:xlink="http://www.w3.org/1999/xlink" x="0px" y="0px"
	 width="64px" height="64px" viewBox="0 0 64 64" enable-background="new 0 0 64 64" xml:space="preserve">
<g>
	<path fill-rule="evenodd" clip-rule="evenodd" d="M11.337,21.284v-4.646c0-0.855,0.693-1.549,1.549-1.549
		c0,0,12.482-5.189,14.991-3.491c0.627-1.336,1.973-2.268,3.545-2.268c1.585,0,2.947,0.948,3.564,2.305
		c3.121-1.924,15.068,3.454,15.068,3.454c0.854,0,1.547,0.694,1.547,1.549v4.646H11.337z M46.957,56.902
		c0,1.712-1.387,3.098-3.098,3.098H18.984c-1.71,0-3.097-1.386-3.097-3.098l-1.452-34.071h34.071L46.957,56.902z M26.825,30.576
		h-3.098v21.68h3.098V30.576z M33.02,30.576h-3.097v21.68h3.097V30.576z M39.215,30.576h-3.098v21.68h3.098V30.576z"/>
</g>
</svg>
