<?xml version="1.0" encoding="utf-8"?>
<!-- Generator: Adobe Illustrator 14.0.0, SVG Export Plug-In . SVG Version: 6.00 Build 43363)  -->
<!DOCTYPE svg PUBLIC "-//W3C//DTD SVG 1.1//EN" "http://www.w3.org/Graphics/SVG/1.1/DTD/svg11.dtd">
<svg version="1.1" id="Capa_1" xmlns="http://www.w3.org/2000/svg" xmlns:xlink="http://www.w3.org/1999/xlink" x="0px" y="0px"
	 width="64px" height="64px" viewBox="0 0 64 64" enable-background="new 0 0 64 64" xml:space="preserve">
<g>
	<path fill-rule="evenodd" clip-rule="evenodd" d="M43.371,19.5l3.896-3.895l2.211,2.21c0.461,0.463,0.649,1.08,0.609,1.685H43.371z
		 M38.859,19.5l-3.318-3.318c-0.849-0.85-0.849-2.227,0-3.076l3.076-3.075c0.85-0.85,2.226-0.85,3.076,0l5.188,5.189l-4.279,4.28
		H38.859z M27.342,19.5l4.479-4.902l4.54,4.902H27.342z M12.045,19.5l-1.501-1.521c-0.85-0.85-0.85-2.226,0-3.075l9.592-10.267
		c0.849-0.849,2.226-0.849,3.075,0l8.335,8.449L25.538,19.5H12.045z M46.948,56.896c0,1.715-1.391,3.104-3.104,3.104H18.934
		c-1.713,0-3.103-1.389-3.103-3.104l-1.453-34.12h34.121L46.948,56.896z M26.785,30.532h-3.104v21.713h3.104V30.532z M32.989,30.532
		h-3.102v21.713h3.102V30.532z M39.192,30.532h-3.102v21.713h3.102V30.532z"/>
</g>
</svg>
