<?xml version="1.0" encoding="utf-8"?>
<!-- Generator: Adobe Illustrator 14.0.0, SVG Export Plug-In . SVG Version: 6.00 Build 43363)  -->
<!DOCTYPE svg PUBLIC "-//W3C//DTD SVG 1.1//EN" "http://www.w3.org/Graphics/SVG/1.1/DTD/svg11.dtd">
<svg version="1.1" id="Capa_1" xmlns="http://www.w3.org/2000/svg" xmlns:xlink="http://www.w3.org/1999/xlink" x="0px" y="0px"
	 width="64px" height="64px" viewBox="0 0 64 64" enable-background="new 0 0 64 64" xml:space="preserve">
<path id="unlock" d="M9.414,28.236c-3.121,0-5.647,2.529-5.647,5.646v24.47C3.766,61.472,6.292,64,9.414,64h45.172
	c3.119,0,5.648-2.526,5.648-5.647v-24.47c0-3.118-2.527-5.646-5.648-5.646h-1.881h-5.648H16.943V17.21
	c0-7.425,6.742-11.563,15.057-11.563S47.057,9.786,47.057,17.21v1.613h5.648v-1.882C52.705,7.586,45.117,0,35.764,0h-7.528
	c-9.357,0-16.942,7.585-16.942,16.941v11.294L9.414,28.236L9.414,28.236z"/>
</svg>
