<?xml version="1.0" encoding="utf-8"?>
<!-- Generator: Adobe Illustrator 14.0.0, SVG Export Plug-In . SVG Version: 6.00 Build 43363)  -->
<!DOCTYPE svg PUBLIC "-//W3C//DTD SVG 1.1//EN" "http://www.w3.org/Graphics/SVG/1.1/DTD/svg11.dtd">
<svg version="1.1" id="Capa_1" xmlns="http://www.w3.org/2000/svg" xmlns:xlink="http://www.w3.org/1999/xlink" x="0px" y="0px"
	 width="64px" height="64px" viewBox="0 0 64 64" enable-background="new 0 0 64 64" xml:space="preserve">
<path fill-rule="evenodd" clip-rule="evenodd" d="M50.57,21.066c-1.285,0.992-2.539,1.813-3.619,2.396
	c-0.141,1.014-0.301,2.089-0.479,3.211c0.496-0.413,1.033-0.833,1.604-1.248c3.252-2.368,6.311-3.707,6.834-2.989
	c0.521,0.718-1.691,3.22-4.943,5.59c-1.412,1.028-2.787,1.861-3.936,2.417c-0.143-0.58-0.926,3.689-0.629,2.211
	c0.707-0.554,1.555-1.137,2.488-1.7c2.943-1.772,5.645-2.683,6.037-2.033c0.391,0.649-1.68,2.613-4.621,4.385
	c-1.637,0.986-3.195,1.704-4.328,2.036c-0.088-0.41-0.525,1.723-0.863,3.069c0.555-0.536,1.199-1.099,1.912-1.655
	c2.586-2.022,5.041-3.199,5.488-2.628c0.445,0.57-1.289,2.672-3.875,4.694c-1.67,1.306-3.281,2.255-4.338,2.612
	c-0.09,0.313-0.174,0.631-0.266,0.941c0.412-0.256,0.855-0.512,1.324-0.762c2.689-1.437,5.125-2.12,5.441-1.526
	s-1.605,2.239-4.295,3.676c-1.24,0.662-2.422,1.16-3.371,1.452c-1.322,3.867-2.906,7.352-4.791,9.863
	c-1.127,1.89-5.164,5.038-5.164,5.038s4.136-6.2,7.861-16.402c-0.826-0.688-1.781-1.642-2.727-2.762
	c-2.205-2.609-3.525-5.12-2.949-5.606c0.574-0.486,2.828,1.235,5.033,3.845c0.576,0.683,1.092,1.358,1.529,1.994
	c0.111-0.332,0.219-0.676,0.33-1.015c1.025,0.784-7.967-7.932-5.459-9.581c2.207-1.453,7.402,10.334,6.127,7.43
	c0.27-0.901,0.527-1.83,0.781-2.773c2.232,1.735-9.223-7.696-6.744-9.771c2.164-1.81,10.355,11.129,7.484,6.816
	c0.186-0.788,0.391-1.604-0.188-2.184c-0.84-0.907-1.771-2.093-2.678-3.468c-2.215-3.36-3.408-6.481-2.668-6.971
	c2.318-1.526,9.746,12.964,6.617,7.293c0.111-0.637,0.211-1.286,0.309-1.937c0.582,0.503-2.359-2.638-3.711-5.055
	c-1.963-3.513-2.928-6.713-2.154-7.146c2.57-1.437,8.531,13.502,6.361,8.418c0.285-2.599-0.135-2.388,0.053-3.176
	c-0.924-0.461-2.492-2.407-3.914-4.97c-1.766-3.179-2.629-6.071-1.928-6.461c0.699-0.39,2.699,1.871,4.465,5.05
	c0.787,1.417,1.393,2.776,1.764,3.884c0.156-3.46,0.111-7.047-0.197-10.742c1.5,0.175,1.994,5.622,2.158,8.73
	c0.152-0.22,0.309-0.44,0.471-0.663c2.148-2.933,4.416-4.925,5.061-4.451c0.646,0.475-0.57,3.236-2.719,6.169
	c-1.018,1.389-2.057,2.555-2.943,3.359c-0.043,0.454-0.094,0.946-0.154,1.481c0.365-0.311,0.75-0.622,1.152-0.933
	c3.184-2.46,6.203-3.886,6.746-3.183S53.754,18.606,50.57,21.066z M19.717,29.474c0.095-0.335,0.344,1.454,0.553,2.586
	c-0.432-0.473-0.936-0.972-1.496-1.472c-2.032-1.811-4.005-2.915-4.403-2.467c-0.399,0.448,0.925,2.28,2.958,4.092
	c1.313,1.171,2.598,2.042,3.453,2.395c0.058,0.264,0.11,0.531,0.171,0.794c-0.329-0.234-0.682-0.471-1.057-0.702
	c-2.149-1.332-4.131-2.027-4.425-1.553c-1.1,1.778,8.039,5.395,6.076,4.652c0.889,3.272,2.015,6.241,3.442,8.421
	c0.833,1.624,4.008,4.445,4.008,4.445s-3.096-5.353-5.638-13.997c-2.103,1.532,6.798-5.034,5.144-6.627
	c-0.451-0.434-2.408,0.872-4.371,2.916c-0.515,0.535-0.977,1.066-1.373,1.569c-0.074-0.28-0.146-0.57-0.219-0.857
	c0.771-0.514,1.864-1.625,2.926-3.036c1.641-2.182,2.582-4.244,2.102-4.606c-0.481-0.362-2.202,1.112-3.844,3.295
	c-0.679,0.901-1.234,1.781-1.623,2.531c-0.175-0.761-0.34-1.544-0.498-2.339c0.881-0.598,1.965-1.535,3.051-2.677
	c2.193-2.307,3.559-4.568,3.051-5.053c-1.695-1.615-9.166,8.665-6.559,5.245c-0.111-0.662-0.238-1.349,0.27-1.798
	c0.745-0.706,1.578-1.639,2.402-2.729c2.011-2.665,3.166-5.185,2.578-5.629s-2.694,1.355-4.706,4.021
	c-0.429,0.568-0.816,1.129-1.159,1.666c-0.058-0.533-0.105-1.077-0.153-1.62c-0.509,0.386,2.095-2.059,3.341-3.987
	c1.813-2.805,2.78-5.403,2.162-5.803c-0.618-0.4-2.588,1.55-4.4,4.354c-0.511,0.791-0.952,1.564-1.313,2.278
	c-0.099-2.167,0.238-1.97,0.126-2.633c0.789-0.333,2.19-1.86,3.504-3.906c1.63-2.538,2.498-4.887,1.938-5.247
	c-0.56-0.359-2.334,1.406-3.964,3.943c-0.728,1.132-1.302,2.225-1.666,3.122c0.054-2.873,0.28-5.84,0.732-8.883
	c-1.251,0.065-1.949,4.548-2.251,7.113c-0.113-0.189-0.23-0.381-0.354-0.574c-1.623-2.542-3.394-4.312-3.954-3.953
	c-0.56,0.358,0.302,2.709,1.926,5.251c0.769,1.204,1.567,2.225,2.258,2.938c0.013,0.378,0.028,0.788,0.049,1.234
	c4.629,4.461-4.933-5.405-6.321-3.826c-1.759,2,9.333,8.933,6.524,7.173c0.063,0.847,0.138,1.745,0.227,2.684
	c4.231,4.005-5.341-5.668-6.761-3.956c-0.471,0.566,1.229,2.756,3.796,4.89c1.114,0.927,2.209,1.689,3.129,2.211
	c0.15-0.473,0.572,3.104,0.404,1.863c2.672,2.38-5.639-5.304-6.859-3.544C11.238,25.724,21.288,30.046,19.717,29.474z"/>
</svg>
