<?xml version="1.0" encoding="utf-8"?>
<!-- Generator: Adobe Illustrator 14.0.0, SVG Export Plug-In . SVG Version: 6.00 Build 43363)  -->
<!DOCTYPE svg PUBLIC "-//W3C//DTD SVG 1.1//EN" "http://www.w3.org/Graphics/SVG/1.1/DTD/svg11.dtd">
<svg version="1.1" id="Capa_1" xmlns="http://www.w3.org/2000/svg" xmlns:xlink="http://www.w3.org/1999/xlink" x="0px" y="0px"
	 width="64px" height="64px" viewBox="0 0 64 64" enable-background="new 0 0 64 64" xml:space="preserve">
<path id="battery_half_2_" d="M5.649,18.824h48.939c1.038,0,1.883,0.842,1.883,1.883v22.588c0,1.039-0.844,1.883-1.883,1.883H5.649
	c-1.041,0-1.883-0.844-1.883-1.883V20.707C3.766,19.667,4.608,18.824,5.649,18.824z M3.766,15.06C1.687,15.06,0,16.744,0,18.824
	v26.354c0,2.076,1.687,3.762,3.766,3.762h52.705c2.079,0,3.766-1.686,3.766-3.762v-5.648H64V24.472h-3.764v-5.647
	c0-2.08-1.687-3.764-3.766-3.764H3.766z M7.53,22.588v18.824h33.883L32,22.588H7.53z"/>
</svg>
