<?xml version="1.0" encoding="utf-8"?>
<!-- Generator: Adobe Illustrator 14.0.0, SVG Export Plug-In . SVG Version: 6.00 Build 43363)  -->
<!DOCTYPE svg PUBLIC "-//W3C//DTD SVG 1.1//EN" "http://www.w3.org/Graphics/SVG/1.1/DTD/svg11.dtd">
<svg version="1.1" id="Capa_1" xmlns="http://www.w3.org/2000/svg" xmlns:xlink="http://www.w3.org/1999/xlink" x="0px" y="0px"
	 width="64px" height="64px" viewBox="0 0 64 64" enable-background="new 0 0 64 64" xml:space="preserve">
<path id="battery_2_" d="M5.647,18.823h48.941c1.038,0,1.883,0.842,1.883,1.884v22.588c0,1.039-0.844,1.883-1.883,1.883H5.647
	c-1.04,0-1.883-0.844-1.883-1.883V20.707C3.765,19.666,4.607,18.823,5.647,18.823z M3.765,15.06C1.687,15.06,0,16.744,0,18.823
	v26.354c0,2.076,1.687,3.762,3.765,3.762h52.706c2.079,0,3.765-1.686,3.765-3.762v-5.648H64V24.471h-3.765v-5.647
	c0-2.079-1.686-3.763-3.765-3.763H3.765z M7.53,22.588v18.824h45.176V22.588H7.53z"/>
</svg>
