<?xml version="1.0" encoding="utf-8"?>
<!-- Generator: Adobe Illustrator 14.0.0, SVG Export Plug-In . SVG Version: 6.00 Build 43363)  -->
<!DOCTYPE svg PUBLIC "-//W3C//DTD SVG 1.1//EN" "http://www.w3.org/Graphics/SVG/1.1/DTD/svg11.dtd">
<svg version="1.1" id="Capa_1" xmlns="http://www.w3.org/2000/svg" xmlns:xlink="http://www.w3.org/1999/xlink" x="0px" y="0px"
	 width="64px" height="64px" viewBox="0 0 64 64" enable-background="new 0 0 64 64" xml:space="preserve">
<g>
	<path fill-rule="evenodd" clip-rule="evenodd" d="M57.732,64H6.269c-0.525,0-0.948-0.427-0.948-0.948v-9.415
		c0.729,0.437,1.579,0.686,2.49,0.686c2.388,0,4.376-1.723,4.782-3.994c0.409,2.271,2.397,3.994,4.789,3.994
		c0.235,0,0.467-0.017,0.696-0.051c2.07-0.297,3.718-1.896,4.086-3.943c0.409,2.271,2.395,3.994,4.783,3.994
		c2.391,0,4.376-1.723,4.785-3.994c0.409,2.271,2.398,3.994,4.785,3.994c2.389,0,4.373-1.723,4.783-3.994
		c0.398,2.214,2.295,3.905,4.602,3.991l0.184,0.003c2.393,0,4.377-1.723,4.787-3.994c0.408,2.271,2.395,3.994,4.781,3.994
		c1.146,0,2.197-0.396,3.025-1.054v9.783C58.68,63.573,58.254,64,57.732,64z M45.902,49.813c-2.307-0.086-4.203-1.777-4.602-3.991
		c-0.41,2.271-2.395,3.994-4.783,3.994c-2.387,0-4.376-1.723-4.785-3.994c-0.409,2.271-2.395,3.994-4.785,3.994
		c-2.389,0-4.374-1.723-4.783-3.994c-0.368,2.047-2.016,3.646-4.086,3.943l-7.212-17.135c-1.48-1.48-1.48-3.882,0-5.365l4.359-3.688
		l14.092-11.919c0.355-0.354,0.765-0.624,1.201-0.808v6.085v26.412h2.964V23.578V10.851c0.436,0.184,0.846,0.454,1.201,0.808
		l14.088,11.919l4.361,3.688c1.484,1.483,1.484,3.885,0,5.365L45.902,49.813z M28.643,23.578c-0.297-0.56-0.884-0.938-1.563-0.938
		s-1.266,0.379-1.563,0.938c-0.133,0.249-0.208,0.528-0.208,0.829c0,0.979,0.791,1.77,1.771,1.77c0.979,0,1.771-0.791,1.771-1.77
		C28.851,24.106,28.775,23.827,28.643,23.578z M38.482,23.578c-0.297-0.56-0.887-0.938-1.563-0.938
		c-0.678,0-1.266,0.379-1.563,0.938c-0.133,0.249-0.207,0.528-0.207,0.829c0,0.979,0.795,1.77,1.77,1.77
		c0.977,0,1.768-0.791,1.768-1.77C38.688,24.106,38.615,23.827,38.482,23.578z M34.684,8.442c-0.355-0.354-0.766-0.627-1.201-0.812
		h-2.964c-0.437,0.184-0.846,0.457-1.201,0.812L16.174,19.41h-0.419V8.265h4.032V4.742h4.41c-0.014-0.157-0.023-0.314-0.023-0.474
		c0-2.883,1.6-4.268,4.745-4.268h6.167c3.141,0,4.74,1.385,4.74,4.268c0,0.16-0.006,0.317-0.023,0.474h4.41v3.523h4.033V19.41
		h-0.424L34.684,8.442z"/>
</g>
</svg>
