<?xml version="1.0" encoding="utf-8"?>
<!-- Generator: Adobe Illustrator 14.0.0, SVG Export Plug-In . SVG Version: 6.00 Build 43363)  -->
<!DOCTYPE svg PUBLIC "-//W3C//DTD SVG 1.1//EN" "http://www.w3.org/Graphics/SVG/1.1/DTD/svg11.dtd">
<svg version="1.1" id="Capa_1" xmlns="http://www.w3.org/2000/svg" xmlns:xlink="http://www.w3.org/1999/xlink" x="0px" y="0px"
	 width="64px" height="64px" viewBox="0 0 64 64" enable-background="new 0 0 64 64" xml:space="preserve">
<g>
	<path fill-rule="evenodd" clip-rule="evenodd" d="M57.703,11.136c0,0-0.15,38.854-0.379,39.236
		c-0.149,0.253-25.984,8.16-26.112,8.333c-0.436,0.595-2.475,0.638-2.475,0.638V15.457c1.234-0.013,2.217-0.097,2.217-0.097
		s17.146-3.841,23.335-5.205c0.055,0.015,0.262,0.048,0.135,0.022l-0.116-0.027c0.002,0,0.004,0,0.005-0.001
		c-0.008,0,0,0.001-0.006,0.001l-9.54-2.199c-3.71,0.648-8.81,1.851-13.422,2.718c-6.102,1.378-11.996,2.75-12.101,2.926
		c-0.007,0.011-0.012,0.134-0.017,0.309c0.95,1.097,6.235,1.467,8.316,1.539v44.37c-4.927,0.801-7.99-1.241-7.99-1.241
		c-0.594-0.388-2.069-1.939-2.069-3.804v-0.918c-0.252,0.02-0.433,0.025-0.433,0.025v-42.06c1.184-0.013,2.126-0.093,2.126-0.093
		s14.366-3.175,21.377-4.73l-5.549-1.199c-0.55-0.11-2.495-0.801-3.256-0.77C31.343,5.041,8.327,9.206,7.808,9.866
		c-0.388,1.415,5.837,1.859,8.102,1.938v42.525c-4.722,0.766-7.657-1.192-7.657-1.192c-0.571-0.37-1.984-1.857-1.984-3.643V10.623
		c0-1.818,1.591-2.045,3.556-2.456L31.959,4.15c2.287-0.261,2.671-0.103,2.671-0.103s1.369,0.309-0.664,0.59
		c0.011,0.002,0.022,0.002,0.033,0.004l8.937,1.787c0.289-0.063,0.503-0.108,0.616-0.131c0.831-0.169,1.703-0.112,1.558,0.626
		l3.082,0.719c0,0,8.114,1.785,7.83,2.133c0.157-0.034,0.29-0.062,0.366-0.078c0.867-0.175,1.468-0.271,1.315,0.5
		C57.77,10.546,57.703,11.136,57.703,11.136z M49.66,20.417l-10.479,2.506v5.891l10.479-2.505V20.417z M49.66,28.015L39.182,30.52
		v2.092l10.479-2.505V28.015z M54.289,10.155c-0.017-0.004-0.008-0.006,0.018-0.004h0.001
		C54.302,10.152,54.295,10.154,54.289,10.155z"/>
</g>
</svg>
