<?xml version="1.0" encoding="utf-8"?>
<!-- Generator: Adobe Illustrator 14.0.0, SVG Export Plug-In . SVG Version: 6.00 Build 43363)  -->
<!DOCTYPE svg PUBLIC "-//W3C//DTD SVG 1.1//EN" "http://www.w3.org/Graphics/SVG/1.1/DTD/svg11.dtd">
<svg version="1.1" id="Capa_1" xmlns="http://www.w3.org/2000/svg" xmlns:xlink="http://www.w3.org/1999/xlink" x="0px" y="0px"
	 width="64px" height="64px" viewBox="0 0 64 64" enable-background="new 0 0 64 64" xml:space="preserve">
<path fill-rule="evenodd" clip-rule="evenodd" d="M28.307,60.396l-2.535,3.15l-6.195-6.196l2.818-3.988l-4.756,4.546L9.954,47.729
	l2.791-2.631l-3.696,1.727l-3.448-4.974l-0.905,0.404L0,37.131c0,0,8.716-3.891,15.651-10.169c1.625-1.117,2.006-1.51,2.056-1.646
	L39.22,46.827c0,0-3.416,4.659-4.118,5.511c-2.336,2.839-6.114,10.34-6.114,10.34L28.307,60.396z M17.707,25.315l-0.071-0.072
	C17.636,25.243,17.74,25.227,17.707,25.315z M41.115,45.441L19.077,23.418l6.22-6.217l22.038,22.022
	C47.191,39.307,41.086,45.408,41.115,45.441z M52.199,6.042l6.217,6.218l-17.47,17.481l-6.216-6.22L52.199,6.042z M56.755,1.483
	c1.371-1.374,3.598-1.374,4.972,0l1.243,1.244c1.374,1.374,1.374,3.602,0,4.977l-3.219,3.222l-6.22-6.219L56.755,1.483z"/>
</svg>
