<?xml version="1.0" encoding="utf-8"?>
<!-- Generator: Adobe Illustrator 14.0.0, SVG Export Plug-In . SVG Version: 6.00 Build 43363)  -->
<!DOCTYPE svg PUBLIC "-//W3C//DTD SVG 1.1//EN" "http://www.w3.org/Graphics/SVG/1.1/DTD/svg11.dtd">
<svg version="1.1" id="Capa_1" xmlns="http://www.w3.org/2000/svg" xmlns:xlink="http://www.w3.org/1999/xlink" x="0px" y="0px"
	 width="64px" height="64px" viewBox="0 0 64 64" enable-background="new 0 0 64 64" xml:space="preserve">
<path id="bulb_2_" d="M26.667,60.444c-0.982,0-1.778,0.797-1.778,1.778S25.685,64,26.667,64h10.666c0.982,0,1.778-0.796,1.778-1.777
	s-0.796-1.778-1.778-1.778H26.667z M23.111,53.333c-0.982,0-1.777,0.797-1.777,1.778v1.778c0,0.98,0.795,1.777,1.777,1.777h17.777
	c0.981,0,1.778-0.797,1.778-1.777v-1.778c0-0.981-0.797-1.778-1.778-1.778H23.111z M23.111,46.224c-0.982,0-1.777,0.795-1.777,1.776
	v1.777c0,0.981,0.795,1.778,1.777,1.778h17.777c0.981,0,1.778-0.797,1.778-1.778V48c0-0.981-0.797-1.776-1.778-1.776H23.111z
	 M10.667,20.438c0,6.602,3.266,12.474,8.335,16.21l3.11,7.74h19.663l3.223-7.74c5.069-3.737,8.335-9.609,8.335-16.21
	C53.333,9.15,43.782,0,31.999,0S10.667,9.15,10.667,20.438z"/>
</svg>
