<?xml version="1.0" encoding="utf-8"?>
<!-- Generator: Adobe Illustrator 14.0.0, SVG Export Plug-In . SVG Version: 6.00 Build 43363)  -->
<!DOCTYPE svg PUBLIC "-//W3C//DTD SVG 1.1//EN" "http://www.w3.org/Graphics/SVG/1.1/DTD/svg11.dtd">
<svg version="1.1" id="Capa_1" xmlns="http://www.w3.org/2000/svg" xmlns:xlink="http://www.w3.org/1999/xlink" x="0px" y="0px"
	 width="64px" height="64px" viewBox="0 0 64 64" enable-background="new 0 0 64 64" xml:space="preserve">
<g>
	<path fill-rule="evenodd" clip-rule="evenodd" d="M49.309,64H14.691c-2.104,0-3.81-1.706-3.81-3.811V3.812
		c0-2.105,1.705-3.812,3.81-3.812h34.617c2.104,0,3.81,1.707,3.81,3.812v56.378C53.118,62.294,51.412,64,49.309,64z M27.88,53.626
		h6.966v-6.971H27.88V53.626z M27.88,43.713h6.966v-6.972H27.88V43.713z M27.88,33.966h6.966v-6.971H27.88V33.966z M17.339,53.626
		h6.967v-6.971h-6.967V53.626z M17.339,43.713h6.967v-6.972h-6.967V43.713z M17.339,33.966h6.967v-6.971h-6.967V33.966z M47.07,8.73
		c0-1.052-0.854-1.905-1.904-1.905H18.5c-1.052,0-1.905,0.854-1.905,1.905v9.042c0,1.052,0.853,1.906,1.905,1.906h26.666
		c1.051,0,1.904-0.854,1.904-1.906V8.73z M46.015,26.995h-6.966v6.971h6.966V26.995z M46.015,36.741h-6.966v6.972h6.966V36.741z
		 M46.015,46.655h-6.966v6.971h6.966V46.655z"/>
</g>
</svg>
