<?xml version="1.0" encoding="utf-8"?>
<!-- Generator: Adobe Illustrator 14.0.0, SVG Export Plug-In . SVG Version: 6.00 Build 43363)  -->
<!DOCTYPE svg PUBLIC "-//W3C//DTD SVG 1.1//EN" "http://www.w3.org/Graphics/SVG/1.1/DTD/svg11.dtd">
<svg version="1.1" id="Capa_1" xmlns="http://www.w3.org/2000/svg" xmlns:xlink="http://www.w3.org/1999/xlink" x="0px" y="0px"
	 width="64px" height="64px" viewBox="0 0 64 64" enable-background="new 0 0 64 64" xml:space="preserve">
<path id="calendar_2_" d="M44.667,1.777c-1.104,0-2,0.896-2,2.001v10.223c0,1.104,0.896,2,2,2h3.111c1.105,0,2-0.896,2-2V3.778
	c0-1.105-0.895-2.001-2-2.001H44.667z M16.223,1.777c-1.105,0-2,0.896-2,2.001v10.223c0,1.104,0.895,2,2,2h3.112
	c1.104,0,2-0.896,2-2V3.778c0-1.105-0.896-2.001-2-2.001H16.223z M33.777,46.223h10.667v5.333H33.777V46.223z M33.777,37.333h10.667
	v5.334H33.777V37.333z M33.777,28.444h10.667v5.333H33.777V28.444z M48,46.223h10.667v5.333H48V46.223z M48,37.333h10.667v5.334H48
	V37.333z M48,28.444h10.667v5.333H48V28.444z M19.556,46.223h10.667v5.333H19.556V46.223z M19.556,37.333h10.667v5.334H19.556
	V37.333z M19.556,28.444h10.667v5.333H19.556V28.444z M5.333,46.223H16v5.333H5.333V46.223z M5.333,37.333H16v5.334H5.333V37.333z
	 M5.333,28.444H16v5.333H5.333V28.444z M6,8.889c-3.314,0-6,2.686-6,5.999v41.335c0,3.313,2.686,6,6,6h52c3.315,0,6-2.687,6-6
	V14.888c0-3.314-2.687-5.999-6-5.999h-4.667v4.667c0,3.313-2.688,6-6,6h-2.222c-3.313,0-6-2.688-6-6l-0.028-4.667H24.889v4.667
	c0,3.313-2.688,6-6,6h-2.223c-3.314,0-6-2.688-6-6V8.889H6z"/>
</svg>
