<?xml version="1.0" encoding="utf-8"?>
<!-- Generator: Adobe Illustrator 14.0.0, SVG Export Plug-In . SVG Version: 6.00 Build 43363)  -->
<!DOCTYPE svg PUBLIC "-//W3C//DTD SVG 1.1//EN" "http://www.w3.org/Graphics/SVG/1.1/DTD/svg11.dtd">
<svg version="1.1" id="Capa_1" xmlns="http://www.w3.org/2000/svg" xmlns:xlink="http://www.w3.org/1999/xlink" x="0px" y="0px"
	 width="64px" height="64px" viewBox="0 0 64 64" enable-background="new 0 0 64 64" xml:space="preserve">
<g>
	<path fill-rule="evenodd" clip-rule="evenodd" d="M58.971,33.703c-0.489-0.951-1.832-2.035-1.832-2.035l-5.541-14.465h-0.002
		c-1.149-2.74-4.535-4.186-6.01-4.186H18.415c-1.477,0-4.863,1.445-6.012,4.186L6.861,31.668c0,0-1.341,1.084-1.833,2.035
		C4.536,34.653,4,35.5,4,41.913c0,6.253,1.285,8.478,2.824,9.247l1.218,0.671v5.805c0,1.886,0.458,2.445,2.291,2.445h4.115
		c1.834,0,2.292-0.56,2.292-2.445v-5.805h30.521v5.805c0,1.886,0.457,2.445,2.29,2.445h4.117c1.833,0,2.291-0.56,2.291-2.445v-5.805
		l1.215-0.671C58.715,50.391,60,48.166,60,41.913C60,35.5,59.463,34.653,58.971,33.703z M14.836,44.928
		c-1.972,0-3.574-1.605-3.574-3.576c0-1.97,1.603-3.573,3.574-3.573c1.969,0,3.573,1.604,3.573,3.573
		C18.409,43.322,16.805,44.928,14.836,44.928z M49.299,44.928c-1.971,0-3.574-1.605-3.574-3.576c0-1.97,1.604-3.573,3.574-3.573
		s3.574,1.604,3.574,3.573C52.873,43.322,51.27,44.928,49.299,44.928z M53.274,31.668h-42.55c0,0-1.015,0.096-0.708-0.997
		c0.262-0.92,3.918-10.002,4.685-12.497c0.312-0.857,2.079-2.828,4.465-2.682h25.667c2.387-0.146,4.153,1.824,4.463,2.682
		c0.77,2.495,4.425,11.577,4.685,12.497C54.29,31.764,53.274,31.668,53.274,31.668z"/>
</g>
</svg>
