<?xml version="1.0" encoding="utf-8"?>
<!-- Generator: Adobe Illustrator 14.0.0, SVG Export Plug-In . SVG Version: 6.00 Build 43363)  -->
<!DOCTYPE svg PUBLIC "-//W3C//DTD SVG 1.1//EN" "http://www.w3.org/Graphics/SVG/1.1/DTD/svg11.dtd">
<svg version="1.1" id="Capa_1" xmlns="http://www.w3.org/2000/svg" xmlns:xlink="http://www.w3.org/1999/xlink" x="0px" y="0px"
	 width="64px" height="64px" viewBox="0 0 64 64" enable-background="new 0 0 64 64" xml:space="preserve">
<g>
	<path fill-rule="evenodd" clip-rule="evenodd" d="M48.486,51.349v9.34c0,1.829-1.482,3.312-3.309,3.312H18.822
		c-1.827,0-3.309-1.482-3.309-3.312v-9.34c0.035-0.261,9.105-19.907,9.018-22.164c0.697-2.72-1.547-5.082-1.547-5.082
		c-0.094-0.067-0.155-0.133-0.202-0.198c-0.567-0.103-0.945-0.282-0.945-0.487V21.78c0-0.32,0.917-0.58,2.049-0.58h5.744
		c-0.043-0.475-0.329-0.959-0.882-1.594c-1.786-2.052-1.79-3.805-0.01-5.863c3.486-4.03,4.441-3.58,0.863,0.559
		c-1.457,1.682-1.512,3,0.008,4.744c0.705,0.809,1.064,1.485,1.104,2.155h1.845c-0.042-0.475-0.328-0.961-0.884-1.598
		c-1.786-2.052-1.789-3.805-0.01-5.862c1.16-1.341,1.158-2.486-0.007-3.823c-1.77-2.034-1.772-3.693-0.012-5.73
		c1.175-1.357,1.173-2.272-0.007-3.626L32.501,0c1.433,1.646,1.493,3.029,0.009,4.745c-1.397,1.616-1.562,2.808,0.008,4.612
		c1.491,1.711,1.428,3.304,0.01,4.942c-1.455,1.682-1.51,3,0.009,4.744c0.705,0.81,1.065,1.488,1.104,2.158h1.844
		c-0.041-0.476-0.327-0.964-0.883-1.603c-1.787-2.052-1.791-3.805-0.012-5.862c1.162-1.341,1.16-2.485-0.007-3.823
		c-1.771-2.033-1.772-3.693-0.011-5.731c4.057-4.687,4.582-3.739,0.864,0.559c-1.398,1.616-1.563,2.809,0.007,4.612
		c1.491,1.71,1.428,3.303,0.01,4.941c-1.455,1.683-1.51,3,0.01,4.744c0.706,0.812,1.067,1.489,1.104,2.162h3.549
		c1.131,0,2.047,0.26,2.047,0.58v1.638c0,0.205-0.377,0.384-0.943,0.487c-0.048,0.065-0.109,0.13-0.203,0.198
		c0,0-2.244,2.362-1.546,5.082C39.381,31.442,48.451,51.088,48.486,51.349z M39.215,23.743c-0.09-0.514-0.635-0.403-1.42-0.403
		H26.546c-0.785,0-1.391-0.111-1.421,0.403c-0.03,0.512,2.007,3.24,1.866,5.133c0.063,1.565-8.914,22.427-8.938,22.607v7.51
		c0,1.269,1.027,2.295,2.295,2.295h23.748c1.268,0,2.295-1.026,2.295-2.295l-0.104-7.717c-0.023-0.18-9-20.835-8.938-22.4
		C37.27,26.832,39.306,24.255,39.215,23.743z M44.42,52.479v6.238c0,0.574-0.496,1.039-1.109,1.039H21.128
		c-0.612,0-1.108-0.465-1.108-1.039v-6.238c0-0.574,4.295-3.801,12.199-0.13C39.914,55.923,44.42,51.905,44.42,52.479z
		 M34.507,50.912c-1.428,0-2.585-1.158-2.585-2.587c0-1.428,1.157-2.587,2.585-2.587c1.427,0,2.585,1.159,2.585,2.587
		C37.092,49.754,35.934,50.912,34.507,50.912z M31.563,43.928c-1.142,0-2.067-0.926-2.067-2.068s0.926-2.068,2.067-2.068
		c1.143,0,2.068,0.926,2.068,2.068S32.705,43.928,31.563,43.928z M27.843,49.723c-0.913,0-1.654-0.741-1.654-1.655
		c0-0.915,0.741-1.656,1.654-1.656c0.914,0,1.654,0.741,1.654,1.656C29.497,48.981,28.757,49.723,27.843,49.723z"/>
</g>
</svg>
