<?xml version="1.0" encoding="utf-8"?>
<!-- Generator: Adobe Illustrator 14.0.0, SVG Export Plug-In . SVG Version: 6.00 Build 43363)  -->
<!DOCTYPE svg PUBLIC "-//W3C//DTD SVG 1.1//EN" "http://www.w3.org/Graphics/SVG/1.1/DTD/svg11.dtd">
<svg version="1.1" id="Capa_1" xmlns="http://www.w3.org/2000/svg" xmlns:xlink="http://www.w3.org/1999/xlink" x="0px" y="0px"
	 width="64px" height="64px" viewBox="0 0 64 64" enable-background="new 0 0 64 64" xml:space="preserve">
<g>
	<path fill-rule="evenodd" clip-rule="evenodd" d="M24.001,48c0-4.421,3.581-7.998,7.998-7.998c4.418,0,8.002,3.577,8.002,7.998
		c0,4.417-3.584,7.998-8.002,7.998C27.582,55.998,24.001,52.417,24.001,48z M42.002,32c0-4.418,3.577-7.998,7.998-7.998
		c4.417,0,7.998,3.58,7.998,7.998c0,4.417-3.581,8.002-7.998,8.002C45.579,40.002,42.002,36.417,42.002,32z M24.001,16.003
		c0-4.421,3.581-8.001,7.998-8.001c4.418,0,8.002,3.58,8.002,8.001c0,4.417-3.584,7.999-8.002,7.999
		C27.582,24.002,24.001,20.421,24.001,16.003z M8.001,32c0-4.418,3.581-7.998,8.002-7.998c4.417,0,7.998,3.58,7.998,7.998
		c0,4.417-3.581,8.002-7.998,8.002C11.582,40.002,8.001,36.417,8.001,32z M27.998,32c0-2.208,1.794-4.001,4.001-4.001
		C34.208,27.999,36,29.792,36,32c0,2.209-1.792,4.001-4.001,4.001C29.792,36.001,27.998,34.209,27.998,32z M49.017,59.11
		C50.989,61.985,55.608,64,60.999,64c1.031,0,3-6.21,3-6.21c-3.695-0.538-6.771-2.045-8.502-4.061
		c5.279-5.705,8.502-13.342,8.502-21.729c0-17.67-14.329-32-32-32C14.329,0,0.001,14.33,0.001,32c0,17.671,14.328,32,31.998,32
		C38.251,64,44.092,62.208,49.017,59.11z"/>
</g>
</svg>
