<?xml version="1.0" encoding="utf-8"?>
<!-- Generator: Adobe Illustrator 14.0.0, SVG Export Plug-In . SVG Version: 6.00 Build 43363)  -->
<!DOCTYPE svg PUBLIC "-//W3C//DTD SVG 1.1//EN" "http://www.w3.org/Graphics/SVG/1.1/DTD/svg11.dtd">
<svg version="1.1" id="Capa_1" xmlns="http://www.w3.org/2000/svg" xmlns:xlink="http://www.w3.org/1999/xlink" x="0px" y="0px"
	 width="64px" height="64px" viewBox="0 0 64 64" enable-background="new 0 0 64 64" xml:space="preserve">
<g>
	<path fill-rule="evenodd" clip-rule="evenodd" d="M64,17.711v13.145v14.867v13.468H47.729V45.724V30.856V17.711l8.136-3.662
		L64,17.711z M53.117,27.624h-3.232v3.816h3.232V27.624z M57.427,20.678h-3.232v5.869h3.232V20.678z M59.039,51.973h-6.311v7.219
		h6.311V51.973z M61.736,27.624h-3.232v3.816h3.232V27.624z M61.736,38.559h-6.604v4.148h6.604V38.559z M35.103,10.652v2.938v7.041
		h6.303v38.564H19.263V47.578l-2.044-0.172v11.783H3.8V47.406L0,47.892l10.509-7.834l8.754,6.933V20.63h6.809v-7.041v-2.938V6.838
		h-1.372l5.889-2.033l5.889,2.033h-1.374V10.652z M13.557,53.341H7.813v5.72h5.744V53.341z M33.927,33.387h4.398v-5.425h-4.398
		V33.387z M28.062,59.193h4.398v-13.49h-4.398V59.193z"/>
</g>
</svg>
