<?xml version="1.0" encoding="utf-8"?>
<!-- Generator: Adobe Illustrator 14.0.0, SVG Export Plug-In . SVG Version: 6.00 Build 43363)  -->
<!DOCTYPE svg PUBLIC "-//W3C//DTD SVG 1.1//EN" "http://www.w3.org/Graphics/SVG/1.1/DTD/svg11.dtd">
<svg version="1.1" id="Capa_1" xmlns="http://www.w3.org/2000/svg" xmlns:xlink="http://www.w3.org/1999/xlink" x="0px" y="0px"
	 width="64px" height="64px" viewBox="0 0 64 64" enable-background="new 0 0 64 64" xml:space="preserve">
<g>
	<path fill-rule="evenodd" clip-rule="evenodd" d="M32,64C14.338,64,0.021,49.674,0.021,32S14.338,0,32,0
		c17.662,0,31.979,14.326,31.979,32S49.662,64,32,64z M32,8C18.754,8,8.015,18.745,8.015,32S18.754,56.001,32,56.001
		c13.245,0,23.984-10.746,23.984-24.001S45.245,8,32,8z M39.923,37.313H29.671c-1.412,0-2.556-1.146-2.556-2.559v-15.56
		c0-1.414,1.144-2.558,2.556-2.558c1.412,0,2.557,1.145,2.557,2.558v13.002h7.694c1.41,0,2.556,1.145,2.556,2.557
		S41.333,37.313,39.923,37.313z"/>
</g>
</svg>
