<?xml version="1.0" encoding="utf-8"?>
<!-- Generator: Adobe Illustrator 14.0.0, SVG Export Plug-In . SVG Version: 6.00 Build 43363)  -->
<!DOCTYPE svg PUBLIC "-//W3C//DTD SVG 1.1//EN" "http://www.w3.org/Graphics/SVG/1.1/DTD/svg11.dtd">
<svg version="1.1" id="Capa_1" xmlns="http://www.w3.org/2000/svg" xmlns:xlink="http://www.w3.org/1999/xlink" x="0px" y="0px"
	 width="64px" height="64px" viewBox="0 0 64 64" enable-background="new 0 0 64 64" xml:space="preserve">
<g id="comerce">
	<path fill-rule="evenodd" clip-rule="evenodd" d="M43.319,60.632c-1.251,2.836-4.563,4.136-7.403,2.903L8.48,51.65
		c-2.839-1.229-4.132-4.528-2.885-7.36L21.799,8.653l0.018-0.035l0.032,0.018l20.944-8.247c2.878-1.13,6.135,0.29,7.265,3.172
		l8.822,22.498L43.319,60.632z M25.208,30.247l-2.918-1.158c-0.342-0.135-0.734,0.049-0.883,0.417L21.015,30.5
		c-0.145,0.364,0.011,0.771,0.35,0.904l2.557,1.017c-0.103,0.22-0.198,0.438-0.29,0.665c-0.088,0.226-0.169,0.455-0.247,0.685
		l-2.621-1.041c-0.339-0.138-0.731,0.053-0.876,0.416l-0.396,0.993c-0.148,0.367,0.014,0.773,0.353,0.907l2.981,1.187
		c-0.646,5.337,2.189,10.652,7.24,12.973c0.032,0.028,3.052,1.215,3.052,1.215c0.243,0.096,0.519-0.021,0.614-0.269l1.127-2.832
		c0.095-0.24-0.021-0.52-0.265-0.614l-2.431-0.968c-3.348-1.328-5.396-4.542-5.41-7.947l4.63,1.844
		c0.339,0.135,0.731-0.053,0.88-0.417l0.396-0.996c0.141-0.363-0.015-0.77-0.354-0.903l-5.185-2.063
		c0.07-0.229,0.148-0.459,0.24-0.685c0.092-0.227,0.19-0.448,0.296-0.664l5.249,2.087c0.339,0.135,0.734-0.053,0.876-0.42
		l0.396-0.992c0.148-0.364-0.011-0.771-0.35-0.908l-4.697-1.865c2.349-2.459,6.043-3.391,9.391-2.063l2.43,0.967
		c0.244,0.096,0.52-0.021,0.615-0.268l1.126-2.833c0.096-0.24-0.021-0.516-0.265-0.614c0,0-3.009-1.208-3.052-1.215
		C34.111,24.002,28.4,25.923,25.208,30.247z M43.488,8.695c-2.362-1.031-5.114,0.049-6.146,2.416
		c-1.034,2.363,0.046,5.114,2.409,6.146c2.366,1.031,5.117-0.046,6.148-2.409C46.932,12.481,45.854,9.73,43.488,8.695z"/>
</g>
</svg>
