<?xml version="1.0" encoding="utf-8"?>
<!-- Generator: Adobe Illustrator 14.0.0, SVG Export Plug-In . SVG Version: 6.00 Build 43363)  -->
<!DOCTYPE svg PUBLIC "-//W3C//DTD SVG 1.1//EN" "http://www.w3.org/Graphics/SVG/1.1/DTD/svg11.dtd">
<svg version="1.1" id="Capa_1" xmlns="http://www.w3.org/2000/svg" xmlns:xlink="http://www.w3.org/1999/xlink" x="0px" y="0px"
	 width="64px" height="64px" viewBox="0 0 64 64" enable-background="new 0 0 64 64" xml:space="preserve">
<g>
	<path fill-rule="evenodd" clip-rule="evenodd" d="M58.711,33.683c-1.15-1.952-4.444-3.668-9.108-4.903v-2.125
		c0,0,0.687-1.598,1.534-1.598h6.517c0.847,0,1.533,1.598,1.533,1.598s0.017,7.034-0.017,7.023
		C59.172,33.681,58.998,33.683,58.711,33.683z M54.357,24.166c-1.525,0-2.761-1.235-2.761-2.76s1.235-2.761,2.761-2.761
		c1.523,0,2.76,1.236,2.76,2.761S55.881,24.166,54.357,24.166z M38.519,27.015v-3.113c0,0,0.688-1.597,1.533-1.597h6.518
		c0.847,0,1.533,1.597,1.533,1.597s0.007,2.496,0.003,4.513C45.277,27.766,42.037,27.285,38.519,27.015z M43.272,21.413
		c-1.524,0-2.76-1.235-2.76-2.76s1.235-2.761,2.76-2.761s2.76,1.236,2.76,2.761S44.797,21.413,43.272,21.413z M32.008,26.76
		c-1.563,0-3.083,0.05-4.573,0.131v-3.906c0,0,0.686-1.598,1.532-1.598h6.518c0.847,0,1.533,1.598,1.533,1.598
		s0.005,2.043,0.004,3.926C35.395,26.816,33.724,26.76,32.008,26.76z M32.188,20.496c-1.524,0-2.76-1.236-2.76-2.761
		c0-1.523,1.236-2.76,2.76-2.76s2.76,1.236,2.76,2.76C34.948,19.26,33.713,20.496,32.188,20.496z M15.951,23.901
		c0,0,0.687-1.597,1.533-1.597h6.517c0.847,0,1.534,1.597,1.534,1.597s0.003,1.499,0.003,3.111
		c-3.516,0.268-6.757,0.746-9.587,1.394V23.901z M20.705,21.413c-1.524,0-2.76-1.235-2.76-2.76s1.236-2.761,2.76-2.761
		c1.525,0,2.76,1.236,2.76,2.761S22.229,21.413,20.705,21.413z M5.327,33.637c-0.209,0-0.343-0.001-0.345,0v-6.982
		c0,0,0.687-1.598,1.533-1.598h6.517c0.847,0,1.533,1.598,1.533,1.598s0.002,0.915,0.003,2.081
		C9.856,29.965,6.515,31.682,5.327,33.637z M9.735,24.166c-1.525,0-2.76-1.235-2.76-2.76s1.235-2.761,2.76-2.761
		c1.524,0,2.76,1.236,2.76,2.761S11.26,24.166,9.735,24.166z M32,28.123c14.815,0,26.825,4.231,26.825,9.451
		c0,5.219-12.01,9.45-26.825,9.45s-26.825-4.231-26.825-9.45C5.175,32.354,17.185,28.123,32,28.123z"/>
</g>
</svg>
