<?xml version="1.0" encoding="utf-8"?>
<!-- Generator: Adobe Illustrator 14.0.0, SVG Export Plug-In . SVG Version: 6.00 Build 43363)  -->
<!DOCTYPE svg PUBLIC "-//W3C//DTD SVG 1.1//EN" "http://www.w3.org/Graphics/SVG/1.1/DTD/svg11.dtd">
<svg version="1.1" id="Capa_1" xmlns="http://www.w3.org/2000/svg" xmlns:xlink="http://www.w3.org/1999/xlink" x="0px" y="0px"
	 width="64px" height="64px" viewBox="0 0 64 64" enable-background="new 0 0 64 64" xml:space="preserve">
<path fill-rule="evenodd" clip-rule="evenodd" d="M55.801,48.659c0-0.132,0-0.265,0-0.396c-0.133,0-0.265,0-0.397,0
	c0-0.134,0-0.267,0-0.397c-0.13,0-0.26,0-0.39,0c0.053-0.345,0.377-5.501-1.598-7.56c0,3.314,0,6.631,0,9.944
	c0.019,0.257,0.551,0.555,0.396,0.797c0.531,0,0.297,0.403,0.399,2.783c-0.133,0-0.265,0-0.399,0c0,1.592,0,3.184,0,4.774
	c0.135,0,0.267,0,0.399,0c-0.133,0.662-0.265,1.325-0.399,1.989c-0.131,0-0.264,0-0.396,0c0,0.133,0,0.265,0,0.397
	c-0.853,0.048-1.353,0.405-1.59,0.397c0-0.132,0-0.265,0-0.397c-0.266,0-0.53,0-0.794,0c0-0.133,0-0.265,0-0.397
	c3.033-2.411-0.041-7.287-0.399-9.944c-0.264,0-0.528,0-0.793,0c0,0.132,0,0.264,0,0.397c-0.398-0.134-0.797-0.266-1.194-0.397
	c0.066,3.103-1.16,4.311-1.987,6.364c-0.133,0.928-0.265,1.856-0.397,2.784c-0.133,0-0.266,0-0.398,0
	c-0.452,0.453,0,0.158-0.794,0.397c0,0.266,0,0.531,0,0.796c-0.795,0-1.59,0-2.386,0c0.428-1.444,0.385-0.72,1.192-1.592
	c0.019-0.308,0.348-0.194,0.398-0.795c0,0,0.795-2.519,0.795-1.988c0.192,0,0.735-2.255,0.397-5.967
	c-0.608-0.23-0.651-0.305-1.591-0.399c-1.831,1.918-8.518,0.34-10.335-0.397c-0.132,1.459-0.265,2.918-0.397,4.376
	c-0.707,0-0.135,1.193-0.795,1.193c-0.567,1.776,0.564,4.011,0,4.773c-0.629,0.952-1.572,0.845-3.181,0.796c0-0.133,0-0.265,0-0.397
	c0.976-0.559,1.913-2.778,1.192-4.774c-0.132,0-0.266,0-0.398,0c0-0.265,0-0.53,0-0.794c-0.132,0-0.264,0-0.396,0
	c0-3.185-0.153-2.103-0.398-2.389c0-0.265,0-0.53,0-0.795c-0.53,0-1.06,0-1.59,0c-1.59-1.909-2.782-3.262-2.782-3.579
	c-1.06-0.708-1.129-0.978-1.59-2.389c-1.591-1.058-1.193-0.662-1.193-1.192c-0.265,0-0.529,0-0.794,0
	c-0.133-0.264-0.265-0.53-0.398-0.795c-1.477-0.75-7.177,0.807-7.95-1.592c-0.133,0-0.266,0-0.399,0c0-0.397,0-0.797,0-1.193
	c1.372-1.028,2.008-2.412,2.59-2.412c0.769-0.586,0.884-1.103,0.988-2.361c-0.188-2.226,0.851,0.712,1.437-0.217
	c0.051-0.089,1.271-1.075,2.795-0.104c0.162,1.041,1.145-0.427,1.563-1.229c0.323,0.282,0.495,1.755-0.229,2.345
	c4.077,0.018,5.07-0.751,7.951-1.59c2.65,0.095,16.297,0.168,16.297-0.795c1.942-0.609,4.474,0.269,5.964,0.396
	c0.567,0.836,1.384,1.149,1.986,1.988c0.135,0,0.267,0,0.399,0c0,0.797,0,1.592,0,2.388c0.132,0,0.265,0,0.396,0
	c0,0.795,0,1.592,0,2.387c0.618,2.062,1.473,4.354,1.591,6.762C56.066,48.659,55.934,48.659,55.801,48.659z M55.007,47.865
	c0.002,0,0.004,0,0.007,0C55.009,47.891,55.007,47.896,55.007,47.865z M41.227,18.714c-0.321,0.015-0.584-0.521-0.584-0.521
	s0.178,0.43-0.141,0.498s-0.667-0.572-0.667-0.572l-0.505-0.524c0,0,0.368,0.922-0.344,0.108c-0.035,0.099-0.137,0.165-0.317,0.152
	c0,0,1.435,1.521,1.11,1.536c-0.32,0.013-0.584-0.521-0.584-0.521s0.179,0.429-0.14,0.498c-0.318,0.069-0.668-0.572-0.668-0.572
	l-0.504-0.524c0,0,0.402,0.966,0.08,0.925c-0.323-0.04-0.196-0.812-0.561-0.904c-0.567-0.146-0.763-0.327-0.806-0.378
	c-0.012-0.018-0.014-0.017,0,0c0.015,0.02,0.039,0.06,0.065,0.139c-0.506-0.026,0.673,1.23,0.185,1.124l0.317,0.725
	c0,0,0.666,1.61,0.458,1.62c-0.207,0.008-0.396-0.804-0.396-0.804s0.13,0.65-0.073,0.741c-0.203,0.09-0.453-0.882-0.453-0.882
	l-0.347-0.805c0,0,0.297,1.464,0.086,1.391c-0.438-0.152-0.912-1.928-0.912-1.928s0.236,1.301,0.094,0.979
	c-0.145-0.32-0.482-1.536-0.609-1.53c-0.113,0.004,0.141,1.331-0.157,0.822l0.019,0.44l0.429,5.746c0,0-0.034,0.368-0.458,0.447
	c-0.054,0.062-0.117,0.108-0.201,0.128c-0.37,0.089-0.474-0.084-0.504-0.211c-0.096-0.03-0.199-0.066-0.312-0.115l0.265-5.96
	l-0.133-1.236c0,0-0.107,0.077-0.334,0.901c-0.229,0.834-0.303,0.705-0.335,0.395l-0.069,0.024c0,0-0.1-0.266-0.332,0.427
	c0.506-1.511-0.51-0.277-0.626,0.145c-0.021-0.282,0.102-0.936,0.102-0.936l-0.289,0.901c0,0-0.227,1.143-0.373,0.963
	c-0.146-0.179-0.021-0.954-0.021-0.954s-0.177,0.958-0.329,0.881c-0.108-0.056,0.143-0.986,0.299-1.52
	c-0.102-0.138-0.171-0.401-0.215-0.653c-0.008,0.003-0.016,0.008-0.022,0.01c-0.206,0.079-0.316,0.707-0.467,0.953
	c-0.067-0.181-0.539-0.499-0.539-0.499s-0.103,0.881-0.297,0.743c-0.193-0.137-0.005-0.75-0.005-0.75s-0.26,0.759-0.465,0.702
	c-0.128-0.036,0.144-0.623,0.361-1.05l-0.398,0.191c0,0-0.263,0.406-0.583,0.657c-1.052,0.828-0.338-0.094-0.338-0.094l0.563-0.615
	l-0.818,0.563c-0.914,0.739-0.264-0.362-0.264-0.362l0.639-0.505l0.734-0.814c0.273-0.189,0.603-0.274,0.857-0.313
	c-0.082,0.056,0.464-0.571,0.464-0.571c-1.909,0.917-0.54-1.055-0.54-1.055s-0.916,1.297-1.227,1.365
	c0.005-0.001-0.051-1.999-0.021-0.903l-0.436,0.54c0,0-0.292,0.668-0.616,0.628c-0.323-0.041-0.181-0.484-0.181-0.484
	s-0.217,0.556-0.539,0.569c-0.321,0.014,0.554-1.116,0.554-1.116l0.42-0.51c-0.478,0.076,0.112-0.442,0.112-0.442
	c0.391-0.234,0.491,0.007,0.514-0.186c0.043-0.371,0.897-0.773,0.698-0.577c0.144-0.144,0.436-0.397,0.695-0.631
	c0.03-0.026,0.058-0.036,0.083-0.039l0.099-0.406l-1.001,1.026l0.045-0.822l-0.919,1.024l0.288-0.777c0,0-0.658,0.629-0.816,0.636
	c-0.28,0.012,0.179-0.5,0.179-0.5s0.573-0.68,0.965-0.916c0.249-0.149,1.083-0.597,2.662-1.028c0,0-0.053-0.525,0.599-0.72
	l0.029-0.087l-0.102-0.126c0,0-0.16,0.008-0.314,0.124c-0.156,0.116-0.301,0.504-0.301,0.504l-0.304-0.533l-0.353,0.233
	c0,0,0.094,0.27-0.104,0.388c-0.195,0.118-0.256-0.372-0.256-0.372s-0.146,0.334-0.254,0.613c-0.11,0.278-0.07-0.654-0.07-0.654
	l-0.567,0.791l0.169-0.718l-0.462,0.458c-0.352,0.234-0.208-0.156-0.208-0.156l-0.462,0.458c-0.637,0.137,0.25-0.721,0.25-0.721
	l0.469-0.293c-0.24,0.01-0.53-0.196-0.133-0.322c0.396-0.127,0.764,0.021,0.764,0.021c0.231-0.229,1.62-0.617,1.62-0.617
	c0.273-0.012,0.284-0.261,0.453-0.217c-0.014-0.304,0.246-0.489,0.388-0.675c-0.292,0-0.544,0.021-0.613,0.083
	c-0.194,0.174-0.429,0.346-0.429,0.346l0.26-0.502l-0.124-0.104c0,0-0.159,0.063-0.349,0.343c-0.188,0.282-0.547,0.352-0.547,0.352
	l0.295-0.592c0.004-0.016,0.015-0.035,0.027-0.056l0.012-0.022l-0.396,0.126c0,0-0.268,0.339-0.544,0.407
	c-0.279,0.066,0.256-0.559,0.256-0.559l-0.349,0.289c-0.313,0.177-0.285-0.098-0.285-0.098l0.693-0.686l1.07-0.318
	c0.477-0.13,1.877-1.174,1.877-1.174s0.033-0.062,0.056-0.21l-0.704,0.081L32.71,7.504c0,0-0.267,0.339-0.378,0.563
	C32.222,8.291,31.9,8.304,31.9,8.304l0.214-0.665l-0.94,0.587l0.389-0.472c-0.005-0.007-0.009-0.016-0.012-0.024
	c-0.082,0.021-0.271,0.07-0.592,0.123C30.52,7.926,30.707,7.645,30.91,7.69c0.203,0.047,0.553-0.242,0.553-0.242l1.912-1.286
	c0,0,0.657-1.073,0.601-1.453c-0.058-0.381,0.255-1.05,0.255-1.05l0.29,1.135l0.214,0.649c0.479,0.58,1.471,1.758,1.701,1.809
	c0.304,0.069,1.054,0.692,1.054,0.692s-0.24,0.011-0.425-0.063c-0.185-0.074-0.672-0.217-0.672-0.217l0.385,0.557
	c0,0-0.942,0.27-0.949-0.104c-0.002-0.25-0.369-0.449-0.615-0.556c0.096,0.239,0.102,0.575,0.102,0.674
	c0.557,0.583,1.512,1.538,1.875,1.635c0.528,0.142,1.313,0.599,1.313,0.599l0.266,0.589c0,0-0.233,0.175-0.611-0.191l-0.291-0.312
	c-0.001-0.001-0.002-0.001-0.002-0.001l0.433,0.744c0,0-0.323-0.04-0.453-0.253c-0.129-0.213-0.295-0.315-0.295-0.315l0.019,0.436
	l-0.33-0.204l-0.219-0.428l-0.233,0.174l-0.53-0.413c-0.016,0.019-0.032,0.033-0.055,0.037l0.209,0.492
	c0.237,0.053,0.458,0.133,0.593,0.251c0.417,0.363,1.015,1.158,1.015,1.158s1.081,0.882,1.41,1.032
	c0.327,0.149-0.143,0.443-0.523,0.022l-0.498-0.416c0,0,0.384,0.53,0.224,0.537c-0.16,0.006-0.506-0.579-0.506-0.579l-0.578-0.358
	c0,0,0.272,0.754,0.107,0.651c-0.164-0.103-0.431-0.691-0.431-0.691l-0.249-0.136c0.112,0.34,0.188,0.631,0.131,0.667
	c-0.067,0.041-0.156-0.132-0.234-0.332c0.008,0.284-0.006,0.586-0.102,0.418c0.184-0.368-0.823-0.126-0.823-0.126l1.051,0.571
	l0.824,0.456c0,0-0.635-0.172-1.247-0.378c0.104,0.121,0.206,0.248,0.271,0.358c0.194,0.319,1.468,0.51,1.468,0.51
	s0.804,0.457,1.298,0.763c0.495,0.308,0.627,0.547,0.627,0.547l-0.797-0.293l-0.745-0.542l0.014,0.327l-0.803-0.457
	c0.378,0.393,0.276,0.807-0.106,0.332c-0.081-0.099-0.213-0.159-0.371-0.193c0.055,0.178,0.074,0.37,0.049,0.507l0.28,0.098
	c0,0,0.13,0.213,0.136,0.377c0.008,0.163,0.306,0.075,0.306,0.075s0.504,0.054,0.628,0.157c-0.214-0.179,0.395,0.201,0.753,0.405
	c0.137,0.078,0.049,0.107,0.46,0.307c0,0,1.004,0.656,0.409,0.615l0.131,0.181C40.578,17.648,41.548,18.7,41.227,18.714z
	 M32.317,20.765c-0.069,0.01-0.079-0.044-0.055-0.13C32.268,20.715,32.283,20.77,32.317,20.765z M30.842,20.398
	c0.039-0.003,0.072-0.063,0.104-0.117C30.971,20.342,30.947,20.387,30.842,20.398z M22.227,27.418
	c-0.436,0.019-0.793-0.707-0.793-0.707s0.243,0.583-0.189,0.676c-0.433,0.092-0.906-0.777-0.906-0.777l-0.684-0.712
	c0,0,0.499,1.252-0.468,0.147c-0.047,0.134-0.186,0.224-0.43,0.207c0,0,1.945,2.066,1.507,2.085
	c-0.435,0.019-0.793-0.707-0.793-0.707s0.243,0.583-0.189,0.675c-0.432,0.092-0.906-0.776-0.906-0.776l-0.685-0.711
	c0,0,0.547,1.311,0.108,1.255c-0.438-0.055-0.265-1.101-0.761-1.228c-0.77-0.197-1.035-0.442-1.092-0.512
	c-0.017-0.025-0.019-0.024,0,0c0.019,0.027,0.051,0.081,0.089,0.188c-0.687-0.036,0.912,1.669,0.25,1.525l0.43,0.983
	c0,0,0.903,2.186,0.623,2.198c-0.281,0.012-0.54-1.089-0.54-1.089s0.179,0.881-0.098,1.005c-0.276,0.123-0.615-1.198-0.615-1.198
	l-0.469-1.092c0,0,0.402,1.985,0.116,1.886c-0.595-0.206-1.24-2.616-1.24-2.616s0.323,1.766,0.128,1.33
	c-0.195-0.436-0.653-2.086-0.829-2.078c-0.151,0.006,0.192,1.807-0.211,1.116l0.025,0.597l0.582,7.799c0,0-0.046,0.499-0.622,0.605
	c-0.072,0.084-0.159,0.146-0.271,0.175c-0.503,0.119-0.645-0.115-0.685-0.287c-0.131-0.042-0.27-0.091-0.425-0.157l0.36-8.09
	l-0.18-1.677c0,0-0.146,0.104-0.453,1.223c-0.313,1.133-0.411,0.957-0.455,0.537l-0.095,0.033c0,0-0.136-0.362-0.45,0.58
	c0.687-2.05-0.692-0.376-0.851,0.196c-0.026-0.382,0.14-1.27,0.14-1.27l-0.394,1.223c0,0-0.307,1.552-0.506,1.307
	c-0.199-0.243-0.03-1.295-0.03-1.295s-0.238,1.301-0.446,1.197c-0.147-0.075,0.194-1.338,0.404-2.062
	c-0.139-0.188-0.23-0.546-0.29-0.888c-0.01,0.005-0.021,0.011-0.03,0.015c-0.281,0.107-0.427,0.992-0.632,1.322
	c-0.042-0.236-0.732-0.706-0.732-0.706s-0.141,1.195-0.404,1.009c-0.262-0.188-0.008-1.02-0.008-1.02s-0.353,1.03-0.63,0.952
	c-0.175-0.048,0.194-0.846,0.489-1.424l-0.54,0.259c0,0-0.357,0.551-0.79,0.892c-1.428,1.125-0.459-0.128-0.459-0.128l0.764-0.834
	l-1.111,0.764c-1.24,1.004-0.359-0.492-0.359-0.492l0.868-0.685l0.996-1.105C6.73,26.8,7.178,26.684,7.522,26.63
	c-0.109,0.076,0.632-0.774,0.632-0.774c-2.592,1.245-0.734-1.433-0.734-1.433s-1.242,1.761-1.665,1.853
	c0.006-0.001-0.069-2.712-0.029-1.225l-0.592,0.732c0,0-0.397,0.907-0.835,0.852c-0.439-0.055-0.247-0.656-0.247-0.656
	s-0.294,0.754-0.73,0.773c-0.435,0.02,0.753-1.516,0.753-1.516l0.569-0.692c-0.649,0.102,0.151-0.601,0.151-0.601
	c0.531-0.319,0.667,0.01,0.699-0.252c0.06-0.503,1.217-1.05,0.947-0.783c0.197-0.194,0.592-0.539,0.944-0.856
	C7.426,22.015,7.465,22.004,7.5,22l0.133-0.552l-1.356,1.395l0.06-1.115l-1.249,1.388l0.391-1.054c0,0-0.895,0.854-1.108,0.864
	c-0.381,0.016,0.243-0.679,0.243-0.679s0.778-0.923,1.31-1.243c0.337-0.203,1.468-0.81,3.611-1.396c0,0-0.072-0.714,0.813-0.979
	l0.039-0.118l-0.137-0.169c0,0-0.217,0.01-0.429,0.167c-0.212,0.157-0.406,0.685-0.406,0.685l-0.412-0.725l-0.478,0.318
	c0,0,0.125,0.365-0.141,0.525c-0.265,0.16-0.348-0.504-0.348-0.504s-0.199,0.454-0.346,0.831c-0.147,0.378-0.092-0.886-0.092-0.886
	l-0.771,1.072l0.23-0.973L6.43,19.469c-0.476,0.318-0.281-0.21-0.281-0.21l-0.627,0.62c-0.865,0.187,0.339-0.978,0.339-0.978
	l0.637-0.398c-0.327,0.014-0.72-0.266-0.183-0.437c0.538-0.171,1.037,0.029,1.037,0.029c0.314-0.31,2.199-0.836,2.199-0.836
	c0.371-0.017,0.387-0.355,0.614-0.295c-0.018-0.412,0.335-0.663,0.528-0.915c-0.397,0-0.739,0.028-0.834,0.112
	c-0.262,0.234-0.579,0.47-0.579,0.47l0.351-0.682l-0.169-0.142c0,0-0.215,0.084-0.471,0.466c-0.256,0.382-0.742,0.478-0.742,0.478
	l0.399-0.805c0.004-0.021,0.018-0.046,0.037-0.074L8.7,15.84l-0.538,0.17c0,0-0.362,0.461-0.74,0.552
	c-0.377,0.091,0.348-0.757,0.348-0.757l-0.474,0.392c-0.425,0.241-0.386-0.133-0.386-0.133l0.94-0.93l1.453-0.434
	c0.646-0.176,2.547-1.594,2.547-1.594s0.046-0.083,0.076-0.285l-0.955,0.11l-0.304-0.729c0,0-0.362,0.46-0.512,0.764
	c-0.15,0.303-0.586,0.321-0.586,0.321l0.289-0.902l-1.273,0.797l0.527-0.64c-0.008-0.01-0.013-0.022-0.019-0.034
	c-0.108,0.03-0.367,0.095-0.803,0.168c-0.595,0.1-0.34-0.282-0.064-0.22c0.275,0.063,0.749-0.329,0.749-0.329l2.596-1.744
	c0,0,0.891-1.457,0.814-1.973c-0.077-0.516,0.347-1.424,0.347-1.424l0.394,1.541l0.29,0.881c0.65,0.788,1.997,2.385,2.306,2.455
	c0.414,0.094,1.432,0.94,1.432,0.94s-0.327,0.014-0.576-0.086c-0.25-0.101-0.913-0.295-0.913-0.295l0.523,0.757
	c0,0-1.277,0.364-1.286-0.142c-0.005-0.338-0.503-0.609-0.836-0.753c0.129,0.324,0.137,0.78,0.137,0.914
	c0.757,0.792,2.052,2.087,2.546,2.219c0.716,0.192,1.78,0.814,1.78,0.814l0.361,0.799c0,0-0.317,0.236-0.829-0.26l-0.396-0.424
	c0-0.001-0.001-0.001-0.001-0.001l0.586,1.009c0,0-0.438-0.055-0.614-0.344c-0.176-0.289-0.4-0.428-0.4-0.428l0.025,0.592
	l-0.447-0.278l-0.298-0.58l-0.317,0.236l-0.719-0.559c-0.021,0.024-0.044,0.045-0.074,0.049l0.284,0.667
	c0.322,0.073,0.622,0.18,0.804,0.34c0.566,0.494,1.376,1.572,1.376,1.572s1.468,1.197,1.914,1.401c0.445,0.203-0.192,0.6-0.708,0.03
	l-0.678-0.564c0,0,0.521,0.72,0.304,0.729c-0.218,0.01-0.688-0.787-0.688-0.787l-0.784-0.485c0,0,0.371,1.022,0.147,0.884
	c-0.225-0.138-0.585-0.939-0.585-0.939l-0.336-0.184c0.152,0.462,0.253,0.856,0.177,0.905c-0.09,0.056-0.212-0.178-0.317-0.451
	c0.009,0.386-0.008,0.794-0.137,0.569c0.248-0.501-1.12-0.173-1.12-0.173l1.429,0.775l1.117,0.62c0,0-0.86-0.235-1.692-0.513
	c0.14,0.163,0.278,0.336,0.368,0.485c0.264,0.434,1.992,0.692,1.992,0.692s1.09,0.621,1.762,1.037
	c0.671,0.416,0.849,0.742,0.849,0.742l-1.08-0.398l-1.013-0.735l0.02,0.444l-1.09-0.621c0.514,0.535,0.375,1.097-0.144,0.452
	c-0.109-0.136-0.289-0.217-0.503-0.264c0.074,0.241,0.101,0.502,0.066,0.688l0.379,0.133c0,0,0.176,0.289,0.187,0.512
	c0.009,0.222,0.412,0.103,0.412,0.103s0.685,0.072,0.854,0.214c-0.292-0.243,0.535,0.272,1.021,0.55
	c0.186,0.106,0.067,0.145,0.625,0.417c0,0,1.362,0.89,0.555,0.833l0.178,0.248C21.347,25.973,22.662,27.399,22.227,27.418z
	 M4.733,32.688c-0.122,0.018-0.138-0.078-0.097-0.226C4.646,32.601,4.672,32.697,4.733,32.688z M2.172,32.052
	c0.066-0.008,0.125-0.078,0.182-0.167C2.368,31.969,2.329,32.034,2.172,32.052z"/>
</svg>
