<?xml version="1.0" encoding="utf-8"?>
<!-- Generator: Adobe Illustrator 14.0.0, SVG Export Plug-In . SVG Version: 6.00 Build 43363)  -->
<!DOCTYPE svg PUBLIC "-//W3C//DTD SVG 1.1//EN" "http://www.w3.org/Graphics/SVG/1.1/DTD/svg11.dtd">
<svg version="1.1" id="Capa_1" xmlns="http://www.w3.org/2000/svg" xmlns:xlink="http://www.w3.org/1999/xlink" x="0px" y="0px"
	 width="64px" height="64px" viewBox="0 0 64 64" enable-background="new 0 0 64 64" xml:space="preserve">
<g>
	<path fill-rule="evenodd" clip-rule="evenodd" d="M63.972,30.079l-29.6,0.619L34.24,0.052C50.256,1.154,63.029,14.02,63.972,30.079
		z M31.868,30.687L11.704,7.239C16.922,2.951,23.527,0.284,30.742,0L31.868,30.687z M5.634,49.47l28.071-16.092l30.291,0.04
		C63.245,50.436,49.218,64,32.02,64C7.747,64-0.036,38.648,5.634,49.47z M3.79,46.794c-2.108-4.272-3.786-9.727-3.786-14.81
		c0-1.657,0.124-3.286,0.368-4.876l29.153,6.31L3.79,46.794z M1.162,23.443c1.381-5.008,3.949-9.52,7.383-13.225L30.339,31.86
		L1.162,23.443z"/>
</g>
</svg>
