<?xml version="1.0" encoding="utf-8"?>
<!-- Generator: Adobe Illustrator 14.0.0, SVG Export Plug-In . SVG Version: 6.00 Build 43363)  -->
<!DOCTYPE svg PUBLIC "-//W3C//DTD SVG 1.1//EN" "http://www.w3.org/Graphics/SVG/1.1/DTD/svg11.dtd">
<svg version="1.1" id="Capa_1" xmlns="http://www.w3.org/2000/svg" xmlns:xlink="http://www.w3.org/1999/xlink" x="0px" y="0px"
	 width="64px" height="64px" viewBox="0 0 64 64" enable-background="new 0 0 64 64" xml:space="preserve">
<g id="save">
	<path fill-rule="evenodd" clip-rule="evenodd" d="M54.523,60H9.475C6.452,60,4,57.549,4,54.521V9.477C4,6.451,6.452,4,9.475,4
		h3.424v0.018L54.523,4C57.547,4,60,6.451,60,9.477v45.045C60,57.549,57.547,60,54.523,60z M10.082,50.179v3.929h3.928v-3.929
		H10.082z M51.235,6.636H12.898v11.179c0,2.327,1.24,3.614,3.509,3.614h31.322c2.267,0,3.506-1.287,3.506-3.614V6.636z
		 M53.296,50.179h-3.929v3.929h3.929V50.179z M47.929,19.084h-3.977c-0.62,0-1.12-0.443-1.12-0.99V8.948
		c0-1.054,1.331-0.988,1.12-0.988h3.977c-0.211,0,1.12-0.065,1.12,0.988v9.146C49.049,18.641,48.548,19.084,47.929,19.084z"/>
</g>
</svg>
