<?xml version="1.0" encoding="utf-8"?>
<!-- Generator: Adobe Illustrator 14.0.0, SVG Export Plug-In . SVG Version: 6.00 Build 43363)  -->
<!DOCTYPE svg PUBLIC "-//W3C//DTD SVG 1.1//EN" "http://www.w3.org/Graphics/SVG/1.1/DTD/svg11.dtd">
<svg version="1.1" id="Capa_1" xmlns="http://www.w3.org/2000/svg" xmlns:xlink="http://www.w3.org/1999/xlink" x="0px" y="0px"
	 width="64px" height="64px" viewBox="0 0 64 64" enable-background="new 0 0 64 64" xml:space="preserve">
<path id="EU_flag" d="M52.842,45.303L36,45.566c-0.221,0.965-2.593-4.002-3.674-4.002H15.004c-1.448,0-2.867-1.218-3.148-2.708
	L8.483,21.055c-0.283-1.491,0.675-2.709,2.123-2.709h17.32c1.381,0,2.706,2.373,3.074,3.77l18.388-0.01l-4.845,11.286L52.842,45.303
	z M54.913,38.602l1.585-2.77l-1.115-2.985l3.119,0.652L61,31.516l0.346,3.169L64,36.445l-2.906,1.308l-0.855,3.071l-2.141-2.361
	L54.913,38.602z M6.237,18.081l5.898,36.549c0.275,1.711-0.887,3.321-2.598,3.598c-1.711,0.274-3.321-0.887-3.595-2.598L0.041,19.08
	c-0.275-1.71,0.887-3.322,2.6-3.599C4.348,15.206,5.959,16.369,6.237,18.081z M53.604,22.854l1.585-2.766l-1.302-2.757l3.307,0.423
	l2.497-1.983l0.346,3.169l2.655,1.762l-2.907,1.307l-0.542,3.071l-2.454-2.362L53.604,22.854z M44.982,13.215l-3.185,0.137
	l1.584-2.766l-1.114-2.987l3.121,0.651l2.494-1.982l0.346,3.17l2.656,1.761l-2.908,1.307l-0.854,3.072L44.982,13.215z M34.227,8.901
	l2.656,1.76l-2.906,1.308l-0.855,3.072l-2.141-2.362l-3.185,0.137l1.585-2.767l-1.113-2.987l3.119,0.653l2.498-1.983L34.227,8.901z"
	/>
</svg>
