<?xml version="1.0" encoding="utf-8"?>
<!-- Generator: Adobe Illustrator 14.0.0, SVG Export Plug-In . SVG Version: 6.00 Build 43363)  -->
<!DOCTYPE svg PUBLIC "-//W3C//DTD SVG 1.1//EN" "http://www.w3.org/Graphics/SVG/1.1/DTD/svg11.dtd">
<svg version="1.1" id="Capa_1" xmlns="http://www.w3.org/2000/svg" xmlns:xlink="http://www.w3.org/1999/xlink" x="0px" y="0px"
	 width="64px" height="64px" viewBox="0 0 64 64" enable-background="new 0 0 64 64" xml:space="preserve">
<path id="film_1_" d="M24,48c0-4.419,3.579-8,7.999-8s8,3.581,8,8s-3.58,8-8,8S24,52.419,24,48z M41.999,32
	c0-4.418,3.581-7.999,8-7.999c4.42,0,7.999,3.581,7.999,7.999c0,4.419-3.579,8-7.999,8C45.58,40,41.999,36.419,41.999,32z M24,16
	c0-4.419,3.579-8,7.999-8s8,3.581,8,8c0,4.42-3.58,8.001-8,8.001S24,20.42,24,16z M8,32c0-4.418,3.58-7.999,7.999-7.999
	C20.419,24.001,24,27.582,24,32c0,4.419-3.581,8-8.001,8C11.58,40,8,36.419,8,32z M27.999,32c0-2.209,1.792-4,4-4
	c2.21,0,4.001,1.79,4.001,4c0,2.21-1.792,4-4.001,4C29.79,36,27.999,34.21,27.999,32z M49.019,59.109
	C50.988,61.986,55.609,64,60.999,64C62.032,64,64,57.792,64,57.792c-3.694-0.538-6.772-2.047-8.5-4.062
	C60.778,48.021,64,40.387,64,32C64,14.327,49.673,0,31.999,0C14.326,0,0,14.327,0,32c0,17.673,14.326,32,31.999,32
	C38.252,64,44.089,62.21,49.019,59.109z"/>
</svg>
