<?xml version="1.0" encoding="utf-8"?>
<!-- Generator: Adobe Illustrator 14.0.0, SVG Export Plug-In . SVG Version: 6.00 Build 43363)  -->
<!DOCTYPE svg PUBLIC "-//W3C//DTD SVG 1.1//EN" "http://www.w3.org/Graphics/SVG/1.1/DTD/svg11.dtd">
<svg version="1.1" id="Capa_1" xmlns="http://www.w3.org/2000/svg" xmlns:xlink="http://www.w3.org/1999/xlink" x="0px" y="0px"
	 width="64px" height="64px" viewBox="0 0 64 64" enable-background="new 0 0 64 64" xml:space="preserve">
<path fill-rule="evenodd" clip-rule="evenodd" d="M60.852,7.776C60.117,9.06,48.773,24.541,41.377,37.348V60.61
	c0,1.872-1.518,3.39-3.391,3.39l-11.36-6.994c-1.873,0-3.391-1.518-3.391-3.392V37.825C15.884,25.117,4.13,9.563,3.083,7.675
	C1.908,5.562,3.206,2.788,5.877,2.788c30.009-6.273,50.292,0,52.164,0C60.465,2.788,62.271,5.297,60.852,7.776z M32.136,2.886
	c-13.157,0-23.822,1.665-23.822,3.72c0,2.054,10.665,3.719,23.822,3.719s23.823-1.665,23.823-3.719
	C55.959,4.551,45.293,2.886,32.136,2.886z"/>
</svg>
