<?xml version="1.0" encoding="utf-8"?>
<!-- Generator: Adobe Illustrator 14.0.0, SVG Export Plug-In . SVG Version: 6.00 Build 43363)  -->
<!DOCTYPE svg PUBLIC "-//W3C//DTD SVG 1.1//EN" "http://www.w3.org/Graphics/SVG/1.1/DTD/svg11.dtd">
<svg version="1.1" id="Capa_1" xmlns="http://www.w3.org/2000/svg" xmlns:xlink="http://www.w3.org/1999/xlink" x="0px" y="0px"
	 width="64px" height="64px" viewBox="0 0 64 64" enable-background="new 0 0 64 64" xml:space="preserve">
<g>
	<path fill-rule="evenodd" clip-rule="evenodd" d="M59.916,32.56c0.006-0.118,0.05-3.608-3.257-4.597
		c-0.51-0.152-0.41-0.578,0.392-0.578h5.625c0.732,0,1.323,1.377,1.323,1.377v3.748C64.024,32.565,59.969,32.537,59.916,32.56z
		 M59.897,26.614c-1.317,0-2.384-1.065-2.384-2.38c0-1.317,1.066-2.384,2.384-2.384s2.38,1.066,2.38,2.384
		C62.277,25.549,61.215,26.614,59.897,26.614z M51.541,26.947c-2.523,0-4.567-2.045-4.567-4.568c0-2.523,2.044-4.568,4.567-4.568
		c2.521,0,4.568,2.045,4.568,4.568C56.109,24.902,54.062,26.947,51.541,26.947z M59.406,31.064v6.998
		c-0.016-0.003-4.811,0.031-9.117,0.056c0.51,0.917,0.802,1.595,0.802,1.595s0.065,17.703-0.068,17.659
		c0.05,0.094-39.478-0.184-39.552-0.174V39.713c0,0,2.84-6.604,6.339-6.604h25.733c0.003-1.15,0.003-2.045,0.003-2.045
		s1.137-2.645,2.539-2.645H56.87C58.272,28.42,59.406,31.064,59.406,31.064z M31.122,29.43c-6.302,0-11.411-5.108-11.411-11.41
		c0-6.302,5.109-11.411,11.411-11.411s11.41,5.108,11.41,11.411C42.532,24.321,37.424,29.43,31.122,29.43z M19.479,31.798
		 M10.153,43.128c0.025,0.006-10.149-0.019-10.152-0.041v-9.12c0,0,1.48-3.443,3.306-3.443h14.049c0.721,0,1.734,0.904,2.123,1.274
		c-0.354,0.053-0.715,0.108-1.144,0.174C9.817,33.283,10.141,42.832,10.153,43.128z M10.249,28.604
		c-3.286,0-5.951-2.663-5.951-5.951c0-3.288,2.665-5.951,5.951-5.951c3.288,0,5.951,2.663,5.951,5.951
		C16.2,25.94,13.537,28.604,10.249,28.604z"/>
</g>
</svg>
