<?xml version="1.0" encoding="utf-8"?>
<!-- Generator: Adobe Illustrator 14.0.0, SVG Export Plug-In . SVG Version: 6.00 Build 43363)  -->
<!DOCTYPE svg PUBLIC "-//W3C//DTD SVG 1.1//EN" "http://www.w3.org/Graphics/SVG/1.1/DTD/svg11.dtd">
<svg version="1.1" id="Capa_1" xmlns="http://www.w3.org/2000/svg" xmlns:xlink="http://www.w3.org/1999/xlink" x="0px" y="0px"
	 width="64px" height="64px" viewBox="0 0 64 64" enable-background="new 0 0 64 64" xml:space="preserve">
<g>
	<path fill-rule="evenodd" clip-rule="evenodd" d="M58.917,34.647l-3.695,1.301c-0.845,0.298-1.769-0.146-2.065-0.991
		c0,0-0.593-1.058-1.406-2.708c-0.631,0.533-3.186,2.718-3.776,3.663c-0.674,1.08-3.646-1.891-4.996-2.701
		c-1.352-0.811-4.863-4.862-5.808-5.942c-0.946-1.081-2.838-2.566-2.838-2.566l-5.806,4.592c0,0-2.448,1.888-4.728,1.216
		c-2.279-0.672-1.197-3.146-1.197-3.146l1.72-3.17l2.434-3.021c0,0,3.647-3.782,4.727-4.187c1.08-0.405,1.205-1.099,3.662-1.063
		c2.456,0.036,6.078,1.756,6.888,2.431c0.811,0.676,3.513-1.08,3.513-1.08s1.193,2.721,2.095,4.581
		c-1.254-4.279-1.927-8.046-1.927-8.046s0.146-1.77,0.991-2.067l3.695-1.3c0.842-0.297,1.769,0.146,2.065,0.991l7.444,21.149
		C60.205,33.425,59.761,34.351,58.917,34.647z M23.591,22.116c0,0-1.917,2.26-2.342,3.02c-0.349,0.682-0.895,2.691-0.893,3.774
		c0.003,1.083,0.083,3.63,5.619,3.125c2.114-0.521,3.774-1.368,3.774-1.368L34.385,27L50.13,42.419
		c0.928,0.943,0.975,2.645,0.031,3.573c-0.946,0.929-2.141,0.484-3.07-0.46l-7.094-6.588l-0.199,0.324L47,46.288
		c0.738,0.749,0.537,1.986-0.128,2.802c-0.428,0.521-1.849,0.729-2.588-0.021L36.95,42.16l-0.312,0.348l6.313,6.082
		c0.598,0.608,0.375,1.805-0.233,2.404c-0.611,0.6-1.698,0.484-2.298-0.126l-6.763-6.832l-0.22,0.301l4.554,4.796
		c0.477,0.483,0.254,2.381-0.229,2.856c-0.484,0.477-2.323,0.549-2.798,0.065l-4.046-4.069c0,0-0.403-0.537-0.992-1.123
		c-0.656-0.651-1.548-0.885-2.263-0.665c0.16-0.754-0.105-2.171-0.78-2.842c-0.699-0.695-2.035-0.963-2.814-0.772
		c0.197-0.77-0.203-1.965-0.901-2.659c-0.666-0.661-2.08-1.202-2.835-1.063c0.208-0.7-0.544-2.014-1.096-2.735
		c-1.808-2.359-4.373-0.949-5.105-0.23l-0.426,0.42c-0.151-0.153-0.306-0.307-0.448-0.457c-0.54-0.216-1.096-0.267-1.527-1.13
		c2.803-5.391,6.237-13.748,6.237-13.748c0-0.623,0.505-1.129,1.129-1.129c0,0,2.862-1.363,8.216-1.053
		C26.396,19.208,23.591,22.116,23.591,22.116z M10.845,36.037c-0.297,0.845-1.222,1.289-2.066,0.991l-3.695-1.3
		c-0.845-0.297-1.289-1.223-0.991-2.066l7.444-21.149c0.297-0.844,1.222-1.288,2.067-0.991l3.695,1.3
		c0.844,0.297,0.99,2.067,0.99,2.067s-1.029,5.772-2.919,11.143C13.539,31.233,10.845,36.037,10.845,36.037z M15.11,37.337
		c0.917-0.902,2.005-1.141,3.107-0.046c0.807,0.803,1.101,1.886,0.842,2.763c0.946-0.175,2.052,0.171,2.887,0.999
		c0.874,0.87,1.209,2.033,0.963,2.998c0.976-0.238,2.152,0.098,3.027,0.967c0.845,0.841,1.176,1.953,0.977,2.896
		c0.895-0.275,2.012,0.017,2.833,0.832c1.102,1.096,0.836,2.32-0.081,3.223l-0.923,0.907c-0.917,0.901-2.137,1.139-3.239,0.045
		c-0.701-0.696-1.013-1.604-0.914-2.405c-1.035,0.441-2.404,0.148-3.394-0.834c-0.875-0.87-1.209-2.034-0.964-2.997
		c-0.976,0.238-2.152-0.099-3.027-0.969c-0.978-0.972-1.281-2.311-0.854-3.325c-0.798,0.074-1.691-0.243-2.377-0.925
		c-1.102-1.095-0.703-2.32,0.214-3.223L15.11,37.337z"/>
</g>
</svg>
