<?xml version="1.0" encoding="utf-8"?>
<!-- Generator: Adobe Illustrator 14.0.0, SVG Export Plug-In . SVG Version: 6.00 Build 43363)  -->
<!DOCTYPE svg PUBLIC "-//W3C//DTD SVG 1.1//EN" "http://www.w3.org/Graphics/SVG/1.1/DTD/svg11.dtd">
<svg version="1.1" id="Capa_1" xmlns="http://www.w3.org/2000/svg" xmlns:xlink="http://www.w3.org/1999/xlink" x="0px" y="0px"
	 width="64px" height="64px" viewBox="0 0 64 64" enable-background="new 0 0 64 64" xml:space="preserve">
<g>
	<path fill-rule="evenodd" clip-rule="evenodd" d="M51.104,38.401 M51.104,42.702h-5.668l-0.063,14.034h-7.956v-8.928
		c0-0.455-0.284-0.845-0.688-1.011c-0.135-0.056-0.284-0.086-0.439-0.086h-5.765c-0.466,0-0.868,0.276-1.039,0.67
		c-0.057,0.131-0.089,0.275-0.089,0.427v8.928l0,0h-8.019V42.702h-6.015l18.345-29.127 M53.799,43.124L42.685,24.579l5.915-8.191
		l11.981,17.156H56.52l0.026,9.58 M14.058,41.565v0.319H8.643v-9.478H4.581l12.387-16.942l6.644,9.394l-6.459,10.255H14.82
		c-0.421,0-0.762,0.333-0.762,0.741v4.173"/>
</g>
</svg>
