<?xml version="1.0" encoding="utf-8"?>
<!-- Generator: Adobe Illustrator 14.0.0, SVG Export Plug-In . SVG Version: 6.00 Build 43363)  -->
<!DOCTYPE svg PUBLIC "-//W3C//DTD SVG 1.1//EN" "http://www.w3.org/Graphics/SVG/1.1/DTD/svg11.dtd">
<svg version="1.1" id="Capa_1" xmlns="http://www.w3.org/2000/svg" xmlns:xlink="http://www.w3.org/1999/xlink" x="0px" y="0px"
	 width="64px" height="64px" viewBox="0 0 64 64" enable-background="new 0 0 64 64" xml:space="preserve">
<path id="justice" d="M60.801,64h-43.2c-0.443,0-0.8-0.359-0.8-0.801v-4.801c0-0.44,0.357-0.799,0.8-0.799H20v-4.001
	c0-0.44,0.358-0.799,0.801-0.799h36.801c0.441,0,0.799,0.359,0.799,0.799V57.6h2.398c0.444,0,0.802,0.358,0.802,0.799v4.801
	C61.601,63.641,61.243,64,60.801,64z M46.488,36.656c-0.516,0.514-1.348,0.515-1.859,0L34.318,26.349L6.199,54.468
	c-0.313,0.312-0.819,0.312-1.133,0l-2.433-2.435c-0.313-0.313-0.313-0.819,0-1.131l28.118-28.118L20.443,12.478
	c-0.512-0.515-0.512-1.347,0-1.861L30.676,0.384c0.514-0.513,1.345-0.513,1.86,0l24.183,24.181c0.513,0.513,0.513,1.346,0,1.86
	L46.488,36.656z"/>
</svg>
