<?xml version="1.0" encoding="utf-8"?>
<!-- Generator: Adobe Illustrator 14.0.0, SVG Export Plug-In . SVG Version: 6.00 Build 43363)  -->
<!DOCTYPE svg PUBLIC "-//W3C//DTD SVG 1.1//EN" "http://www.w3.org/Graphics/SVG/1.1/DTD/svg11.dtd">
<svg version="1.1" id="Capa_1" xmlns="http://www.w3.org/2000/svg" xmlns:xlink="http://www.w3.org/1999/xlink" x="0px" y="0px"
	 width="64px" height="64px" viewBox="0 0 64 64" enable-background="new 0 0 64 64" xml:space="preserve">
<path id="key" d="M57.317,6.73c-4.994-4.804-9.729-2.11-11.432-0.625c-5.307-1.658-8.822-3.635-14.203,1.619
	c-6.828,6.669,0.109,13.051-2.41,15.859c-1.577,1.755-3.569,1.416-4.539,1.632c-0.591,0.132-0.553,1.055-0.553,1.055l2.365,2.42
	l-8.088,8.014l-4.21,4.123l0.033,3.638l-3.319,3.248l-4.073-1.117l-2.064,2.018l-0.728,8.964L6.478,60l3.998-0.221l24.139-22.823
	l2.373,2.425c0,0,0.93,0.063,1.078-0.518c0.236-0.968-0.061-2.976,1.736-4.502c2.863-2.452,9.09,4.634,15.906-2.027
	c5.395-5.271,3.498-8.819,1.965-14.168C59.19,16.499,61.999,11.831,57.317,6.73z M55.614,15.396
	c-1.746,1.689-4.529,1.662-6.227-0.079c-1.686-1.73-1.658-4.509,0.072-6.209c1.746-1.697,4.521-1.66,6.221,0.076
	C57.378,10.917,57.339,13.698,55.614,15.396z"/>
</svg>
