<?xml version="1.0" encoding="utf-8"?>
<!-- Generator: Adobe Illustrator 14.0.0, SVG Export Plug-In . SVG Version: 6.00 Build 43363)  -->
<!DOCTYPE svg PUBLIC "-//W3C//DTD SVG 1.1//EN" "http://www.w3.org/Graphics/SVG/1.1/DTD/svg11.dtd">
<svg version="1.1" id="Capa_1" xmlns="http://www.w3.org/2000/svg" xmlns:xlink="http://www.w3.org/1999/xlink" x="0px" y="0px"
	 width="64px" height="64px" viewBox="0 0 64 64" enable-background="new 0 0 64 64" xml:space="preserve">
<path id="key_new" d="M53.936,47.9h4.025v6.039H64v4.022h-6.039V64h-4.025v-6.038h-6.037v-4.022h6.037V47.9z M57.283,6.684
	c-4.994-4.804-9.729-2.11-11.432-0.625C40.545,4.4,37.029,2.424,31.648,7.678c-6.828,6.669,0.109,13.051-2.41,15.859
	c-1.577,1.755-3.569,1.416-4.539,1.632c-0.591,0.132-0.553,1.055-0.553,1.055l2.365,2.419l-8.088,8.015l-4.21,4.123l0.033,3.638
	l-3.319,3.248l-4.073-1.117L4.79,48.566L4.063,57.53l2.381,2.423l3.998-0.221L34.58,36.909l2.373,2.425c0,0,0.93,0.063,1.078-0.518
	c0.236-0.968-0.061-2.976,1.736-4.502c2.863-2.452,9.09,4.634,15.906-2.027c5.395-5.271,3.498-8.818,1.965-14.168
	C59.156,16.452,61.965,11.784,57.283,6.684z M55.58,15.349c-1.746,1.689-4.529,1.662-6.227-0.079
	c-1.686-1.73-1.658-4.509,0.072-6.209c1.746-1.697,4.521-1.66,6.221,0.076C57.344,10.87,57.305,13.651,55.58,15.349z"/>
</svg>
