<?xml version="1.0" encoding="utf-8"?>
<!-- Generator: Adobe Illustrator 14.0.0, SVG Export Plug-In . SVG Version: 6.00 Build 43363)  -->
<!DOCTYPE svg PUBLIC "-//W3C//DTD SVG 1.1//EN" "http://www.w3.org/Graphics/SVG/1.1/DTD/svg11.dtd">
<svg version="1.1" id="Capa_1" xmlns="http://www.w3.org/2000/svg" xmlns:xlink="http://www.w3.org/1999/xlink" x="0px" y="0px"
	 width="64px" height="64px" viewBox="0 0 64 64" enable-background="new 0 0 64 64" xml:space="preserve">
<path id="lock" d="M47.058,28.236H16.943V17.21c0-7.425,6.741-11.563,15.057-11.563S47.058,9.785,47.058,17.21V28.236z
	 M9.413,28.236c-3.121,0-5.647,2.528-5.647,5.646v24.47C3.766,61.472,6.291,64,9.413,64h45.174c3.119,0,5.647-2.526,5.647-5.647
	v-24.47c0-3.118-2.526-5.646-5.647-5.646h-1.883V16.942C52.704,7.587,45.119,0,35.764,0h-7.527c-9.357,0-16.942,7.585-16.942,16.942
	v11.294H9.413z"/>
</svg>
