<?xml version="1.0" encoding="utf-8"?>
<!-- Generator: Adobe Illustrator 14.0.0, SVG Export Plug-In . SVG Version: 6.00 Build 43363)  -->
<!DOCTYPE svg PUBLIC "-//W3C//DTD SVG 1.1//EN" "http://www.w3.org/Graphics/SVG/1.1/DTD/svg11.dtd">
<svg version="1.1" id="Capa_1" xmlns="http://www.w3.org/2000/svg" xmlns:xlink="http://www.w3.org/1999/xlink" x="0px" y="0px"
	 width="64px" height="64px" viewBox="0 0 64 64" enable-background="new 0 0 64 64" xml:space="preserve">
<path id="spain" d="M15.592,1.45c0.334,0,0.374,0.03,0.391,0.335c0.003,0.05,0.211,0.735,0.309,0.574
	c0.389-0.646,0.935,0.725,1.418,0.725c0.559,0,0.668,0.174,1.256,0.108c0.326-0.037,0.652-0.072,0.978-0.108
	c0,0.117,0.065,0.197,0.176,0.23c0.581,0.173,1.196-0.306,1.781-0.177c0.194,0.042,0.47,0.59,0.713,0.301
	c0.228-0.271,0.887-0.509,1.321-0.54c-0.062,0.121-0.123,0.243-0.182,0.365c0.276,0,0.167,0.181,0.543,0.181
	c0.392,0,0.582-0.104,0.725,0.181c0.068,0.137,0.461-0.013,0.599,0.027c0.15,0.043,0.19,0.153,0.301,0.242
	c0.165,0.132,0.393,0.064,0.58,0.145c0.262,0.112,0.739-0.242,0.517,0.311c0.361,0.013,4.171,0.996,4.171,0.181
	c0.295,0.15,0.285,0.264,0.479-0.031c0.148-0.223,0.27-0.046,0.351,0.129c0.112,0.174,0.63,0.181,0.407-0.09
	c-0.084-0.102-0.164,0.146-0.243-0.075c-0.052-0.137,0.951-0.352,1.125-0.264c0.604,0.304,0.816,0.774,1.579,0.855
	c0.429,0.046,0.561-0.436,1.001-0.523c0.209-0.042,0.534-0.049,0.647,0.18c0.156,0.318,0.548,0.181,0.817,0.181
	c0.291,0.572,1.687,0.558,2.266,0.353c0.437-0.154,0.636-0.728,0.999,0.01c0.322,0,0.244-0.007,0.373,0.134
	c0.15,0.165,0.883,0.047,1.079,0.047c-0.061,0.181,0,0.241,0.181,0.181c-0.062,0.302-0.123,0.604-0.181,0.907
	c0.175-0.058,0.414-0.244,0.586-0.082c0.207,0.195,0.279,0.455,0.607,0.46c0.146-0.006,0.292-0.012,0.438-0.017
	c-0.002,0.124,0.057,0.196,0.176,0.216c0.251,0.044,0.496-0.078,0.749-0.011c0.479,0.128,0.442,0.989,0.816,1.051
	c0.427,0.071,0.923-0.087,1.339-0.167c0.073,0.277,0.544,0.46,0.544,0.726c0.121-0.061,0.241-0.121,0.362-0.181
	c0.138,0.274,0.146,0.464,0.473,0.218c0.21-0.159,0.864-0.161,0.752-0.036c0.283-0.313,0.123,0.036,0.566,0.045
	c0.846,0.018,1.112-0.201,1.112-0.954c0.681,0.104,2.9,1.475,3.444,0.727c-0.076,0.191-0.109,0.436,0.183,0.362
	c0,0.289-0.122,0.853,0.144,1.071c0.273,0.225,0.582-0.048,0.582-0.346c0.357,0.064,0.723,0.111,1.078,0.178
	c0.262,0.05,0.223,0.381,0.422,0.508c0.231,0.148,0.552-0.091,0.745-0.197c0.335-0.184,0.56,0.061,0.871,0.163
	c0.229,0.075,1.339,0.28,1.402-0.073c0.086-0.476,1.103-0.219,1.103-0.76c0.543,0.182,1.087,0.362,1.631,0.543
	c-0.124,0.245-0.178,0.363-0.452,0.454c-0.334,0.111-0.142,0.187-0.354,0.36c-0.299,0.244,0.403,1.103,0.398,1.434
	c-0.008,0.589-0.967,1.135-1.371,1.464c-0.312,0.254-0.656,0.479-1.048,0.586c-0.334,0.092-0.113,0.295-0.311,0.385
	c-0.212,0.098-0.477-0.042-0.575,0.244c-0.082,0.237-0.185,0.329-0.457,0.329c-0.15,0.296-0.364,0.303-0.361,0.606
	c0.002,0.19,0.012,0.394-0.17,0.509c-0.562,0.354-0.608,0.518-1.343,0.487c-0.421-0.018-0.407,0.177-0.711,0.354
	c-0.252,0.147-0.593,0.04-0.864,0.04c0.013,0.139-0.597,0.34-0.559,0.337c-0.173,0.015-0.421-0.059-0.499,0.159
	c-0.127,0.355-0.411,0.21-0.755,0.044c0,0.337-0.447,0.496-0.621,0.727c-0.24,0.318-0.388,0.698-0.467,1.086
	c0.18,0.06,0.239,0,0.18-0.18c0.407,0.207,0.555,0.542,0.294,0.94c-0.138,0.21-0.238,0.442-0.294,0.688
	c-0.302-0.059-0.604-0.119-0.905-0.181c0,0.312-0.188,0.394-0.408,0.55c-0.23,0.163-0.205,0.435-0.268,0.679
	c-0.077,0.297-0.364,0.368-0.528,0.602c-0.269,0.383-0.264,0.719-0.671,1.022c-0.539,0.401-0.402,1.177-1.026,1.497
	c-0.05,0.243-0.436,1.707-0.729,1.633c0.062,0.475-0.036,1.106,0.334,1.481c0.485,0.493,0.229,0.963,0.209,1.602
	c0.522,0,1.279,1.397,1.996,1.449c-0.034,0.312-0.102,0.681-0.328,0.917c-0.221,0.23-0.553,0.083-0.764,0.295
	c-0.188,0.188-0.229,0.411-0.506,0.519c-0.17,0.065-0.461,0.007-0.581,0.168c-0.291,0.393-0.71,0.739-0.729,1.198
	c-0.014,0.336-0.111,1.002-0.54,0.53c0,0.232,0.013,0.315-0.18,0.357c-0.249,0.054,0.206,0.623,0.18,0.729
	c-0.292-0.073-0.257,0.172-0.182,0.361c-0.354,0.175-0.37,0.092-0.331,0.546c0.032,0.38,0.314,1.378,0.086,1.727
	c-0.151,0.231-0.739,0.165-0.974,0.174c-0.494,0.018-0.65,0.479-1.041,0.052c-0.453-0.494-0.551,0.263-0.921,0.372
	c-0.116,0.034-0.209,0.017-0.242,0.163c-0.117,0.528-0.301,0.187-0.675,0.378c-0.328,0.168-0.355,0.74-0.703,0.854
	c-0.201,0.066-0.321,0.189-0.37,0.394c-0.035,0.147-0.081,0.928-0.081,1.33c-0.412-0.138-0.085,0.219,0.012,0.295
	c-0.15-0.118-0.896,0.969-1.014,1.257c-0.154,0.378-0.238,0.264-0.631,0.264c0.226-0.634-0.813-0.58-1.146-0.591
	c-0.464-0.016-0.405,0.18-0.507,0.533c-0.065,0.226-0.368,0.249-0.619,0.263c-0.945,0.054-1.893-0.467-2.858-0.263
	c-0.234,0.05-0.389,0.213-0.492,0.421c-0.24-0.063-0.451-0.178-0.678-0.273c-0.326-0.138-0.814-0.153-1.165-0.128
	c-0.109-0.001-0.205,0.031-0.289,0.099c-0.177,0.192-0.48,0.047-0.769-0.002c-0.4-0.066-0.621,0.176-1.091,0.154
	c-0.18-0.008-0.361-0.032-0.542-0.032c0,0.279-0.3,0.517-0.486,0.678c-0.274,0.23-0.429,0.254-0.615,0.521
	c-0.112,0.162-0.855,0.117-1.02,0.036c-0.334-0.166-0.412-0.123-0.796,0.06c-0.427,0.202-0.659,0.214-0.767,0.663
	c-0.154,0.641-0.538,1.201-0.669,1.85c-0.625-0.206-0.649,0.278-1.236,0.223c-0.294-0.027-0.254-0.262-0.559-0.328
	c-0.13-0.024-0.262-0.043-0.395-0.054c-0.319-0.036-0.08-0.158-0.224-0.358c-0.092-0.129-0.431-0.029-0.551-0.029
	c-0.406,0-0.347-0.234-0.474-0.535c-0.127-0.302-0.504-0.285-0.599-0.618c-0.104-0.366-0.039-0.773-0.101-1.148
	c-0.081-0.488-0.954-0.466-0.872-0.97c0.06-0.368,0.258-0.696,0.109-1.078c-0.139,0.054-0.22,0.014-0.242-0.121
	c0-0.389-0.595-0.767-0.813-0.782c-0.335-0.438-0.851-0.371-0.938-0.548c-0.38-0.767-0.615-0.682-1.447-0.543
	c0-0.58-1.088,0.268-1.088-0.499c0-0.973-0.167-1.271-0.365-2.224c0.421-0.211,0.369-0.388,0.337-0.844
	c-0.009-0.137,0.032-0.208,0.174-0.231c0.333-0.055,0.231-0.169,0.299-0.483c0.102-0.466,0.432-0.734,0.903-0.778
	c0.506-0.05,0.52-0.744,0.641-1.107c-0.463-0.122-0.354-0.434-0.725-0.687c-0.525-0.357-0.454-0.867-0.543-1.49
	c0.395,0,0.264-0.712,0.365-0.954c0.152-0.364,0.632-0.458,0.925-0.673c0.248-0.182,0.176-0.627,0.246-0.892
	c0.153-0.584-0.137-0.701-0.648-0.928c-0.418-0.186-0.49-0.044-0.614-0.541c-0.091-0.362-0.181-0.725-0.272-1.088
	c-0.104-0.413-0.077-0.565-0.382-0.734c-0.232-0.128-0.458-0.658-0.527-0.898c0.183-0.062,0.245-0.001,0.184,0.182
	c0.52-0.173,1.104-0.006,1.758,0.002c0.586,0.008,0.345-0.583,0.687-0.925c0.335-0.334,0.326-1.004,0.294-1.479
	c-0.026-0.386-0.076-0.281-0.396-0.459c-0.298-0.167-0.216-0.547,0.06-0.601c0.655-0.127,0.694-1.389,0.685-1.872
	c-0.007-0.345,0.517-0.959,0.087-1.338c-0.155-0.136-0.004-0.303,0.078-0.503c0.168-0.411-0.123-0.336-0.239-0.658
	c-0.12-0.331-0.148-0.5,0.25-0.599c0.404-0.102,0.421-0.274,0.544-0.635c-0.175-0.058-0.348-0.268-0.019-0.241
	c0.198,0.131,0.324,0.061,0.38-0.211c0.274-0.413,0.189-0.203,0.572-0.143c0.188,0.03,0.523-0.438,0.699-0.553
	c0.327-0.213,0.388-0.551,0.385-0.923c-0.006-0.74-1.447-0.196-1.261-1.067c0.067-0.312,0.178-0.701,0.145-1.021
	c-0.042-0.402-0.882-0.392-0.831-0.181c-0.08-0.325-0.479-0.191-0.707-0.191c-0.513,0-0.584-0.182-0.998-0.182
	c0,0.19-0.355,0.658-0.545,0.696c-0.361,0.072-0.736-0.101-1.088-0.152c0,0.267-0.026,0.516-0.21,0.186
	c-0.258-0.461-0.391-0.538-0.942-0.402c-0.397,0.097-0.279-0.223-0.643,0.028c-0.185,0.127-0.513,0.42-0.758,0.276
	c-0.691-0.408,0.654-2.106-0.607-1.801c-0.443,0.107-0.804,0.399-1.269,0.435c-0.361,0.028-0.558,0.426-1.009,0.551
	c0-0.301-0.094-0.658,0.03-0.947c0.18-0.419,0.392-0.202,0.148-0.685c0.198,0,0.554-0.064,0.315-0.319
	c-0.428-0.457-0.129-0.307-0.097-0.891c0.014-0.251-0.496-0.434-0.39-0.616c0.21-0.361,0.356-0.176,0.356-0.711
	c-0.342,0.035-0.611,0.206-0.907,0.362c0.076-0.19,0.11-0.435-0.182-0.362c0.105-0.398,0.284-0.57-0.015-0.781
	C9.645,7.465,9.444,7.477,9.403,7.304C9.339,7.032,9.593,6.589,9.211,6.459C8.467,6.207,9.203,4.676,9.626,4.718
	c0.584,0.058,0.558-0.008,0.737-0.493c0.123-0.333,0.756-0.308,0.916-0.139c0.22,0.233,0.808,0.101,1.083,0.083
	c0.25-0.017,0.21-0.21,0.421-0.321c0.238-0.125,0.558-0.046,0.812-0.046c-0.162-0.579-0.673-0.419-0.201-0.937
	c0.293-0.323,1.126-0.358,0.929-0.876c0.125,0,0.389,0.095,0.496-0.017c0.259-0.274,0.372-0.007,0.772,0.017
	C15.592,1.809,15.592,1.63,15.592,1.45 M63.094,25.381c0.346-1.036,1.098-0.197,0.564,0.506c-0.321,0.425-0.474,0.971-0.566,1.488
	c-0.364,0-0.388,0.055-0.544,0.362c-0.416,0.105-0.358-0.308-0.687-0.382c-0.313-0.071-0.63,0.02-0.943,0.02
	c-0.201-0.98-0.378-0.953-1.27-0.545c0-0.595-0.68-0.705,0.006-1.06c0.502-0.26,0.825-0.553,1.073-1.048
	c0.203-0.406,0.657-0.068,0.818-0.432c0.082-0.186,0.961-0.468,1.187-0.544c0.061,0.181,0,0.242-0.182,0.181
	c0.227,0.68-0.094,0.333-0.332,0.855C62.034,25.187,62.851,25.352,63.094,25.381 M55.842,29.189
	c0.061,0.181,0.121,0.362,0.182,0.543c-0.357,0-0.333,0.487-0.362,0.727c-0.507,0.112-0.972,0.35-1.45,0.543
	c0-0.399,0.13-0.761,0.168-1.153C54.427,29.363,55.347,29.218,55.842,29.189 M54.936,31.909c0.061-0.181,0.121-0.362,0.181-0.543
	c0.298,0.131,0.585,0.292,0.907,0.361C56.023,32.11,55.144,31.909,54.936,31.909 M25.201,49.314c0,0.302,0,0.604,0,0.906
	c-0.245,0-0.667,0.148-0.792-0.169C24.154,49.402,24.691,49.338,25.201,49.314 M35.898,50.945c0.302,0,0.603,0,0.904,0
	c0,0.302,0,0.604,0,0.906c-0.302,0-0.603,0-0.904,0C35.898,51.55,35.898,51.247,35.898,50.945 M23.752,54.936
	c-0.696,0.179-1.24,0.805-1.997,0.907c0-0.369-0.064-0.807,0.017-1.169c0.047-0.207,0.342-0.197,0.497-0.266
	c0.186-0.081,0.851-0.234,0.955-0.401c0.046-0.114,0.04-0.228-0.018-0.34c0.182-0.061,0.363-0.121,0.545-0.183
	c-0.061,0.183,0,0.243,0.182,0.183C23.745,54.044,23.771,54.526,23.752,54.936 M1.089,55.479c0.58,0.198,1.095,0.218,1.267,0.908
	c-0.336,0-0.181,0.412-0.181,0.604c0,0.392-0.26,0.477-0.546,0.665c-0.011-0.212,0.039-1.038-0.362-0.907
	c0.076-0.189,0.111-0.436-0.181-0.362C1.089,56.084,1.089,55.781,1.089,55.479 M20.849,56.387c0.247,0,0.548-0.071,0.753,0.11
	c0.328,0.291,0.452,0.821,0.141,1.014c-0.175,0.107,0.112,0.452,0.16,0.556c0.05,0.107-0.197,0.421-0.176,0.676
	c0.066,0.829-0.629,0.871-1.281,1.096c-0.366,0.126-0.561,0.354-0.685,0.719c-0.182,0.036-0.365,0.07-0.547,0.103
	c-0.083-0.002-0.166-0.004-0.249-0.006c-0.232-0.185-0.345-0.153-0.339,0.095c-0.073,0.059-0.246-0.479-0.037-0.562
	c0.259-0.104,0.38-0.146,0.609-0.34c0.27-0.228,0.495-0.437,0.614-0.78c0.058-0.166,0.282-0.789,0.49-0.659
	c-0.198-0.123-0.283-0.269,0.078-0.298c0.391-0.033,0.239-0.185,0.104-0.452C20.654,57.657,20.849,56.614,20.849,56.387
	 M9.248,58.379c-0.026,0.514-0.292,1.996-0.906,1.996c-0.164,0.313-0.34,0.378-0.678,0.366c-0.462-0.016-0.413-0.317-0.413-0.729
	c-0.678,0.27-0.722-1.398-0.722-1.814c0.242,0.06,0.483,0.12,0.724,0.181c0-0.233,0.177-0.22,0.349-0.197
	c0.205,0.026,0.224,0.229,0.37,0.141c0.182-0.11,0.386-0.186,0.566-0.294c0.285-0.172,0.387-0.518,0.646-0.72
	c0.233-0.182,0.972-0.051,0.972-0.382c0.461,0,0.308,0.561,0.137,0.76C10.035,57.984,9.634,58.276,9.248,58.379 M4.17,59.469
	c0.853,0,1.549,0.279,0.869,1.116C4.818,60.856,4.188,59.641,4.17,59.469 M12.51,59.648c0.484,0.169,0.969,0.195,1.45,0
	c0,0.34,0.11,0.047,0.162,0.247c0.058,0.221-0.18,0.841,0.203,0.841c-0.126,0.728-0.231,1.236-0.998,1.524
	c-0.78,0.293-1.181-0.437-1.508-0.982c-0.192-0.32-0.251-0.278,0.021-0.681C12.055,60.28,12.332,59.99,12.51,59.648 M1.089,62.55
	c-0.332,0.111-0.475-0.029-0.365-0.362c-0.181,0.062-0.362,0.122-0.543,0.183C0.146,62.181,0.086,62,0,61.827
	c0.283,0,0.652,0.124,0.841-0.173c0.071-0.112,0.24-0.464,0.429-0.373c-0.061,0.182-0.001,0.242,0.181,0.183
	c0,0.182,0,0.362,0,0.544C1.225,62.155,1.158,62.295,1.089,62.55"/>
</svg>
