<?xml version="1.0" encoding="utf-8"?>
<!-- Generator: Adobe Illustrator 14.0.0, SVG Export Plug-In . SVG Version: 6.00 Build 43363)  -->
<!DOCTYPE svg PUBLIC "-//W3C//DTD SVG 1.1//EN" "http://www.w3.org/Graphics/SVG/1.1/DTD/svg11.dtd">
<svg version="1.1" id="Capa_1" xmlns="http://www.w3.org/2000/svg" xmlns:xlink="http://www.w3.org/1999/xlink" x="0px" y="0px"
	 width="64px" height="64px" viewBox="0 0 64 64" enable-background="new 0 0 64 64" xml:space="preserve">
<path fill-rule="evenodd" clip-rule="evenodd" d="M54.908,47.782c0,0,0.997,7.613-10.927,8.111c-3.477,0.146-17.664,0.139-21.14,0
	c-13.49-0.54-13.767-7.619-13.767-7.619s-0.749-5.825,2.003-14.681c0.965-3.104,4.389-8.72,6.671-10.888
	c5.287-5.022,10.835-5.364,10.835-5.364l-6.51-4.59l4.158-0.048l0.355-1.908l3.245,1.39l2.293-3.554l2.16,4.941l4.319-3.954
	L43.192,8l-1.996,4.752l-3.823,4.354c0,0,7.74,4.718,9.725,7.158c2.49,3.062,4.896,6.226,5.862,9.33
	C55.711,42.449,54.908,47.782,54.908,47.782z M36.731,42.787c0-0.201-0.163-0.364-0.363-0.364h-2.003
	c-2.765,0-5.129-1.711-6.106-4.13h3.82c0.279,0,0.508-0.243,0.508-0.545v-0.82c0-0.302-0.229-0.546-0.508-0.546h-4.275
	c-0.014-0.187-0.014-0.93,0-1.114h4.329c0.279,0,0.507-0.245,0.507-0.547V33.9c0-0.301-0.228-0.546-0.507-0.546h-3.874
	c0.978-2.417,3.342-4.13,6.106-4.13h2.003c0.2,0,0.363-0.162,0.363-0.364v-2.336c0-0.202-0.163-0.366-0.363-0.366
	c0,0-2.487-0.008-2.517,0c-4.256,0.224-7.778,3.211-8.827,7.196h-2.409c-0.279,0-0.506,0.245-0.506,0.546v0.82
	c0,0.302,0.227,0.547,0.506,0.547h2.107c-0.011,0.185-0.012,0.928,0,1.114h-2.159c-0.281,0-0.509,0.244-0.509,0.546v0.82
	c0,0.302,0.228,0.545,0.509,0.545h2.461c1.049,3.986,4.571,6.973,8.827,7.196c0.029,0.008,2.517,0,2.517,0
	c0.2,0,0.363-0.163,0.363-0.364V42.787z"/>
</svg>
