<?xml version="1.0" encoding="utf-8"?>
<!-- Generator: Adobe Illustrator 14.0.0, SVG Export Plug-In . SVG Version: 6.00 Build 43363)  -->
<!DOCTYPE svg PUBLIC "-//W3C//DTD SVG 1.1//EN" "http://www.w3.org/Graphics/SVG/1.1/DTD/svg11.dtd">
<svg version="1.1" id="Capa_1" xmlns="http://www.w3.org/2000/svg" xmlns:xlink="http://www.w3.org/1999/xlink" x="0px" y="0px"
	 width="64px" height="64px" viewBox="0 0 64 64" enable-background="new 0 0 64 64" xml:space="preserve">
<path id="edit" d="M43.021,15.913L10.173,43.255l-1.239-1.517l32.849-27.342L43.021,15.913z M47.25,21.091L14.399,48.434
	l-1.237-1.518l32.847-27.341L47.25,21.091z M51.473,26.267L18.626,53.608l-1.24-1.517l32.85-27.341L51.473,26.267z M0.03,54.326
	c-0.327,3.227,2.024,6.107,5.252,6.433l16.477-1.421l40.084-33.671c2.507-2.057,2.883-5.769,0.838-8.288L53.211,5.404
	c-2.043-2.519-5.734-2.892-8.243-0.834L3.995,39.188l-0.034,0.024l0.025,0.03L0.03,54.326z"/>
</svg>
