<?xml version="1.0" encoding="utf-8"?>
<!-- Generator: Adobe Illustrator 14.0.0, SVG Export Plug-In . SVG Version: 6.00 Build 43363)  -->
<!DOCTYPE svg PUBLIC "-//W3C//DTD SVG 1.1//EN" "http://www.w3.org/Graphics/SVG/1.1/DTD/svg11.dtd">
<svg version="1.1" id="Capa_1" xmlns="http://www.w3.org/2000/svg" xmlns:xlink="http://www.w3.org/1999/xlink" x="0px" y="0px"
	 width="64px" height="64px" viewBox="0 0 64 64" enable-background="new 0 0 64 64" xml:space="preserve">
<path fill-rule="evenodd" clip-rule="evenodd" d="M43.015,20.143c-3.545,1.801-6.64,0.435-5.771,0.311
	c0.816-0.118,3.712-3.41,3.751-5.815c-2.057,1.581-4.078,3.114-4.078,3.114s-10.788,9.635-8.601,27.657
	c1.375-0.741,11.326-6.161,11.326-7.701c0-1.655,0.973,0.292,0.973,0.292s-9.445,8.569-11.836,9.792
	C31.148,58.869,33.314,60,33.314,60l-5.451-0.584c0,0-3.793-10.794-2.294-22.298l-5.591-8.853l0.292-0.584l5.799,6.511
	c0.644-3.024,1.705-6.041,3.344-8.866c-0.155-0.38-2.816-6.978-2.816-9.813l0.486,0.097c0,0,1.75,7.178,3.278,8.2
	c1.64-2.431,3.753-4.688,6.457-6.643c1.661-1.201,3.026-2.183,4.146-2.983c-4.652,0.002-7.01,2.483-7.01,2.483
	c-0.558-0.373-0.248-2.544,0.497-4.096s2.979-2.854,5.09-3.599c2.916-1.614,10.548-1.924,10.548-1.924l-0.807,3.165
	C49.282,10.213,46.926,18.157,43.015,20.143z M29.167,15.756c0.08-0.642-1.934-3.665-3.728-3.874
	c-0.912,3.309,0.391,5.471,0.391,5.471c-0.374,0.325-1.857-0.321-2.814-1.155c-0.957-0.833-1.446-2.677-1.562-4.322
	C20.878,9.487,22.151,4,22.151,4l2.092,1.193c0,0,5.187,3.232,5.833,6.399C30.661,14.466,29.085,16.398,29.167,15.756z
	 M25.429,24.663c0.39,3.407-0.097,4.187-0.097,4.187s-4.575-5.257-8.47-4.672c-1.849,2.043,2.239,7.981,3.116,8.468
	c0.876,0.487,0.779,0.585,0.779,0.585s-7.885,0.973-11.196-5.062c-2.239-4.673-3.31-6.522-3.407-14.408
	c0,0,10.222,2.142,11.877,3.212C19.686,18.044,25.041,21.256,25.429,24.663z M37.695,45.204c1.362-0.195,6.425-6.036,5.841-9.833
	c-7.302,0-11.001,3.895-11.001,3.895c-0.875-0.585-0.389-3.992,0.779-6.426c1.168-2.433,4.673-4.478,7.982-5.645
	c4.576-2.532,16.549-3.018,16.549-3.018l-1.265,4.964c0,0-3.7,12.459-9.832,15.575C41.188,47.541,36.331,45.398,37.695,45.204z"/>
</svg>
