<?xml version="1.0" encoding="utf-8"?>
<!-- Generator: Adobe Illustrator 14.0.0, SVG Export Plug-In . SVG Version: 6.00 Build 43363)  -->
<!DOCTYPE svg PUBLIC "-//W3C//DTD SVG 1.1//EN" "http://www.w3.org/Graphics/SVG/1.1/DTD/svg11.dtd">
<svg version="1.1" id="Capa_1" xmlns="http://www.w3.org/2000/svg" xmlns:xlink="http://www.w3.org/1999/xlink" x="0px" y="0px"
	 width="64px" height="64px" viewBox="0 0 64 64" enable-background="new 0 0 64 64" xml:space="preserve">
<g>
	<path fill-rule="evenodd" clip-rule="evenodd" d="M0,60.074v-4.511h64v4.511H0z M3.712,50.657L3.712,50.657h56.572l0,0v4.511H3.712
		V50.657z M6.993,22.377v-4.511l0,0h50.014l0,0v4.511l0,0H6.993L6.993,22.377z M16.052,22.804l0.953,22.287h-6.687l0.796-22.287
		H16.052z M27.832,22.804l0.956,22.287h-6.686l0.792-22.287H27.832z M40.729,22.804l0.953,22.287h-6.686l0.799-22.287H40.729z
		 M52.349,22.804l0.956,22.287h-6.686l0.799-22.287H52.349z M57.007,50.257H6.993v-4.51h50.014V50.257z M29.478,4.813
		c1.182-1.182,3.098-1.182,4.278,0c0,0,25.6,11.906,25.641,12.224H3.833C3.689,16.906,29.478,4.813,29.478,4.813z"/>
</g>
</svg>
