<?xml version="1.0" encoding="utf-8"?>
<!-- Generator: Adobe Illustrator 14.0.0, SVG Export Plug-In . SVG Version: 6.00 Build 43363)  -->
<!DOCTYPE svg PUBLIC "-//W3C//DTD SVG 1.1//EN" "http://www.w3.org/Graphics/SVG/1.1/DTD/svg11.dtd">
<svg version="1.1" id="Capa_1" xmlns="http://www.w3.org/2000/svg" xmlns:xlink="http://www.w3.org/1999/xlink" x="0px" y="0px"
	 width="64px" height="64px" viewBox="0 0 64 64" enable-background="new 0 0 64 64" xml:space="preserve">
<path id="screen_2_" d="M58.001,16c1.103,0,1.998,0.896,1.998,2v28c0,1.104-0.896,2-1.998,2h-52c-1.104,0-2-0.896-2-2V18
	c0-1.104,0.896-2,2-2H58.001z M4.001,10C1.791,10,0,11.79,0,14v36c0,2.209,1.791,4,4.001,4h55.998C62.209,54,64,52.209,64,50V14
	c0-2.21-1.791-4-4.001-4H4.001z"/>
</svg>
