<?xml version="1.0" encoding="utf-8"?>
<!-- Generator: Adobe Illustrator 14.0.0, SVG Export Plug-In . SVG Version: 6.00 Build 43363)  -->
<!DOCTYPE svg PUBLIC "-//W3C//DTD SVG 1.1//EN" "http://www.w3.org/Graphics/SVG/1.1/DTD/svg11.dtd">
<svg version="1.1" id="Capa_1" xmlns="http://www.w3.org/2000/svg" xmlns:xlink="http://www.w3.org/1999/xlink" x="0px" y="0px"
	 width="64px" height="64px" viewBox="0 0 64 64" enable-background="new 0 0 64 64" xml:space="preserve">
<path id="screen_download_2_" d="M28,6V20h-6.524l10.538,10.6L42.627,20H36V6H28z M4.001,10C1.791,10,0,11.791,0,14v36
	c0,2.209,1.791,4,4.001,4h55.998C62.209,54,64,52.209,64,50V14c0-2.21-1.791-4-4.001-4H40v6h18.001c1.103,0,1.998,0.895,1.998,2.001
	v28c0,1.105-0.896,2-1.998,2h-52c-1.104,0-2-0.895-2-2v-28c0-1.106,0.896-2.001,2-2.001H24v-6H4.001z"/>
</svg>
