<?xml version="1.0" encoding="utf-8"?>
<!-- Generator: Adobe Illustrator 14.0.0, SVG Export Plug-In . SVG Version: 6.00 Build 43363)  -->
<!DOCTYPE svg PUBLIC "-//W3C//DTD SVG 1.1//EN" "http://www.w3.org/Graphics/SVG/1.1/DTD/svg11.dtd">
<svg version="1.1" id="Capa_1" xmlns="http://www.w3.org/2000/svg" xmlns:xlink="http://www.w3.org/1999/xlink" x="0px" y="0px"
	 width="64px" height="64px" viewBox="0 0 64 64" enable-background="new 0 0 64 64" xml:space="preserve">
<path id="screen_play_2_" d="M59.999,54H4.001C1.791,54,0,52.209,0,50V14c0-2.21,1.791-4,4.001-4h55.998C62.209,10,64,11.79,64,14
	v36C64,52.21,62.209,54,59.999,54z M59.999,18c0-1.104-0.896-2-1.998-2h-52c-1.104,0-2,0.896-2,2v28.001c0,1.104,0.896,2,2,2h52
	c1.103,0,1.998-0.896,1.998-2V18z M28.112,41.512c-0.421,0.418-1.712,0.174-2.131-0.246V22.029c0.419-0.419,1.71-0.665,2.131-0.245
	l12.91,9.104c0.416,0.42,0.416,1.1,0,1.519L28.112,41.512z"/>
</svg>
