<?xml version="1.0" encoding="utf-8"?>
<!-- Generator: Adobe Illustrator 14.0.0, SVG Export Plug-In . SVG Version: 6.00 Build 43363)  -->
<!DOCTYPE svg PUBLIC "-//W3C//DTD SVG 1.1//EN" "http://www.w3.org/Graphics/SVG/1.1/DTD/svg11.dtd">
<svg version="1.1" id="Capa_1" xmlns="http://www.w3.org/2000/svg" xmlns:xlink="http://www.w3.org/1999/xlink" x="0px" y="0px"
	 width="64px" height="64px" viewBox="0 0 64 64" enable-background="new 0 0 64 64" xml:space="preserve">
<g>
	<path fill-rule="evenodd" clip-rule="evenodd" d="M53.182,46.367c-5.576,4.177-10.33,4.177-15.906,0
		c-3.635-2.729-6.741-2.729-10.373,0c-5.523,4.137-10.025,4.137-15.548,0c-3.675-2.759-6.159-2.759-9.838,0L0,44.342
		c4.469-3.351,8.224-3.484,12.87,0c4.382,3.283,7.615,3.675,12.516,0c4.646-3.484,8.968-3.331,13.409,0
		c4.556,3.417,8.134,3.555,12.867,0c4.652-3.484,7.691-3.484,12.338,0l-1.52,2.025C58.745,43.562,56.917,43.562,53.182,46.367z
		 M53.182,39.505c-5.576,4.178-10.33,4.178-15.906,0c-3.635-2.731-6.741-2.731-10.373,0c-5.523,4.137-10.025,4.137-15.548,0
		c-3.675-2.758-6.159-2.758-9.838,0L0,37.483c4.469-3.354,8.224-3.488,12.87,0c4.382,3.283,7.615,3.675,12.516,0
		c4.646-3.488,8.968-3.331,13.409,0c4.556,3.417,8.134,3.551,12.867,0c4.652-3.488,7.691-3.488,12.338,0l-1.52,2.021
		C58.745,36.7,56.917,36.7,53.182,39.505z M50.865,27.585c-2.898,0-5.248-2.353-5.248-5.252c0-2.898,2.35-5.249,5.248-5.249
		c2.902,0,5.252,2.35,5.252,5.249C56.117,25.232,53.768,27.585,50.865,27.585z M51.25,14.266l-14.497,2.771l9.088,14.259
		l-5.231,3.327c-0.593-0.341-1.195-0.742-1.814-1.208c-4.441-3.33-8.763-3.484-13.409,0c-2.276,1.704-5.56,3.073-7.397,3.144
		l-6.694-2.293l20.05-12.178l-3.334-5.242c-0.164-0.258-0.287-0.526-0.378-0.804c-0.931-1.653-0.418-3.766,1.201-4.796l18.558-3.046
		c1.677-1.068,3.899-0.576,4.964,1.104C53.423,10.979,52.927,13.202,51.25,14.266z M12.87,51.203c4.382,3.287,7.615,3.676,12.516,0
		c4.646-3.484,8.968-3.33,13.409,0c4.556,3.421,8.134,3.556,12.867,0c4.652-3.484,7.691-3.484,12.338,0l-1.52,2.025
		c-3.735-2.805-5.563-2.805-9.299,0c-5.576,4.178-10.33,4.181-15.906,0c-3.635-2.728-6.741-2.728-10.373,0
		c-5.523,4.141-10.025,4.141-15.548,0c-3.675-2.758-6.159-2.758-9.838,0L0,51.203C4.469,47.853,8.224,47.719,12.87,51.203z"/>
</g>
</svg>
