<?xml version="1.0" encoding="utf-8"?>
<!-- Generator: Adobe Illustrator 14.0.0, SVG Export Plug-In . SVG Version: 6.00 Build 43363)  -->
<!DOCTYPE svg PUBLIC "-//W3C//DTD SVG 1.1//EN" "http://www.w3.org/Graphics/SVG/1.1/DTD/svg11.dtd">
<svg version="1.1" id="Capa_1" xmlns="http://www.w3.org/2000/svg" xmlns:xlink="http://www.w3.org/1999/xlink" x="0px" y="0px"
	 width="64px" height="64px" viewBox="0 0 64 64" enable-background="new 0 0 64 64" xml:space="preserve">
<path id="time_finishesd" fill-rule="evenodd" clip-rule="evenodd" d="M53.333,59.259c0.653,0,1.186,0.53,1.186,1.186
	c0,0.653,0,3.556,0,3.556H9.481c0,0,0-2.902,0-3.556c0-0.655,0.53-1.186,1.185-1.186h3.958
	c0.196-15.782,10.506-20.867,10.506-27.247c0-6.411-10.499-6.837-10.597-27.271h-3.867c-0.655,0-1.185-0.531-1.185-1.185
	c0-0.655,0-3.556,0-3.556h45.037c0,0,0,2.9,0,3.556c0,0.654-0.532,1.185-1.186,1.185h-3.627c-0.1,20.434-10.598,20.86-10.598,27.271
	c0,6.38,10.311,11.465,10.508,27.247H53.333z M35.819,32.012c0-6.439,10.5-6.838,10.598-27.271H17.823
	C17.921,25.174,28.42,25.573,28.42,32.012c0,6.189-10.311,11.407-10.507,27.247h0.797c0.553-9.72,8.334-17.764,9.2-18.551
	c0.394-0.354,3.58-2.446,4.082-3.683c0.521,1.236,3.712,3.329,4.091,3.683c0.838,0.792,8.118,8.533,9.125,18.551h1.118
	C46.13,43.419,35.819,38.201,35.819,32.012z"/>
</svg>
