<?xml version="1.0" encoding="utf-8"?>
<!-- Generator: Adobe Illustrator 14.0.0, SVG Export Plug-In . SVG Version: 6.00 Build 43363)  -->
<!DOCTYPE svg PUBLIC "-//W3C//DTD SVG 1.1//EN" "http://www.w3.org/Graphics/SVG/1.1/DTD/svg11.dtd">
<svg version="1.1" id="Capa_1" xmlns="http://www.w3.org/2000/svg" xmlns:xlink="http://www.w3.org/1999/xlink" x="0px" y="0px"
	 width="64px" height="64px" viewBox="0 0 64 64" enable-background="new 0 0 64 64" xml:space="preserve">
<path id="tool" d="M50.391,16.268c0.488,0.488,1.282,0.488,1.771,0l9.889-9.89L64,8.36l-0.05,5.667l-0.052,5.913l-4.044,3.973
	l-4.216,4.144l-5.667-0.049l-5.143-0.045l-30.821,35.42c-0.821,0.823-2.154,0.823-2.977,0c-5.864-1.897-9.336-5.369-10.415-10.415
	c-0.823-0.823-0.823-2.154,0-2.976l35.329-30.741l0.047-5.223l0.05-5.912l4.043-3.972L44.304,0l5.666,0.049l5.913,0.052l1.776,1.809
	l-9.925,9.928c-0.49,0.489-0.49,1.283,0,1.771L50.391,16.268z M16.748,49.512c-0.59,0-1.182,0-1.773,0c0-0.591,0-1.182,0-1.773
	c-1.773,0-5.319,0-5.319,0l-0.021,1.822L7.9,49.574l-0.009,5.163l1.736,0.013l0.027,1.802c0,0,5.333-0.06,5.242-0.109
	c-0.022,0.046,0.021-1.609,0.021-1.609h1.829C16.748,54.833,16.748,51.283,16.748,49.512z"/>
</svg>
