<?xml version="1.0" encoding="utf-8"?>
<!-- Generator: Adobe Illustrator 14.0.0, SVG Export Plug-In . SVG Version: 6.00 Build 43363)  -->
<!DOCTYPE svg PUBLIC "-//W3C//DTD SVG 1.1//EN" "http://www.w3.org/Graphics/SVG/1.1/DTD/svg11.dtd">
<svg version="1.1" id="Capa_1" xmlns="http://www.w3.org/2000/svg" xmlns:xlink="http://www.w3.org/1999/xlink" x="0px" y="0px"
	 width="64px" height="64px" viewBox="0 0 64 64" enable-background="new 0 0 64 64" xml:space="preserve">
<g>
	<path fill-rule="evenodd" clip-rule="evenodd" d="M63.365,33.101c-1.172,4.008,1.009-3.336-6.635-5.572
		c-1.477-0.431-3.285-0.156-4.658,0.387c0.067-0.177,0.161-0.502,0.311-1.009c1.963-6.711-0.756-13.438-6.375-18.44
		C58.479,12.602,66.356,22.869,63.365,33.101z M44.419,8.216c5.491,4.985,8.132,11.635,6.191,18.27
		c-0.143,0.485-0.232,0.8-0.3,0.981c-0.119,0.048-0.237,0.096-0.354,0.143c-0.854-1.227-2.077-2.751-3.584-3.198
		c-1.507-0.448-3.055,0.25-4.441,0.81c-0.587-0.845-1.397-1.762-2.336-2.401l-5.62,19.645c7.866,1.627,17.52,3.543,21.346,4.205
		h1.45v0.225c0.131,0.014,0.225,0.02,0.234,0.008c0,0-0.085,0.074-0.234,0.201v6.107h-1.868v-4.512
		c-3.247,2.773-9.11,7.785-9.11,7.785s-0.096-0.025-0.234-0.063v3.797h-1.869v-4.283c-6.023-1.574-23.361-6.121-29.671-7.998v4.572
		h-1.869v-5.16c-0.295-0.105-0.468-0.18-0.468-0.213c0-5.48-11.448-17.523-11.448-17.523H0.28C0.101,29.313,0,29.145,0,29.145
		l10.981-3.969c0,0,11.448,14.581,11.448,14.718c0,0.113,4.201,1.039,9.67,2.18l5.727-20.013c-1.354-0.236-2.665,0.267-3.917,0.772
		c-0.854-1.226-2.168-2.617-3.675-3.065c-1.507-0.448-2.964,0.117-4.351,0.678c-0.114-0.164-0.239-0.328-0.373-0.492
		c0.051-0.191,0.133-0.466,0.245-0.842c1.964-6.601,7.75-10.742,15.027-11.968c0.407,0.097,0.813,0.201,1.222,0.313l1.05-3.675
		l1.836,0.534L43.833,8.01C44.031,8.076,44.223,8.147,44.419,8.216z M24.159,18.809c-0.15,0.508-0.248,0.83-0.286,1.016
		c-0.859-1.2-2.229-2.413-3.703-2.853c-7.635-2.271-9.788,5.08-8.598,1.08c3.04-10.218,15.23-14.566,27.95-11.271
		C32.087,7.933,26.153,12.107,24.159,18.809z"/>
</g>
</svg>
