<?xml version="1.0" encoding="utf-8"?>
<!-- Generator: Adobe Illustrator 14.0.0, SVG Export Plug-In . SVG Version: 6.00 Build 43363)  -->
<!DOCTYPE svg PUBLIC "-//W3C//DTD SVG 1.1//EN" "http://www.w3.org/Graphics/SVG/1.1/DTD/svg11.dtd">
<svg version="1.1" id="Capa_1" xmlns="http://www.w3.org/2000/svg" xmlns:xlink="http://www.w3.org/1999/xlink" x="0px" y="0px"
	 width="64px" height="64px" viewBox="0 0 64 64" enable-background="new 0 0 64 64" xml:space="preserve">
<g>
	<path fill-rule="evenodd" clip-rule="evenodd" d="M57.059,60h-4.268l-1.089-1.169H12.1L10.812,60H6.941L8.7,58.703v-1.465h1.985
		l7.633-5.63h1.283l-1.155,0.854h27.108l-1.155-0.854h1.283l1.156,0.854h0.064v0.045l6.412,4.731h2.354v1.593h-0.196L57.059,60z
		 M46.902,54.055H17.447l-3.886,3.184h36.776L46.902,54.055z M47.625,45.317v3.909c0,1.114-1.229,2.02-2.744,2.02h-0.229
		c-1.516,0-2.744-0.905-2.744-2.02v-3.676H22.632v3.676c0,1.114-1.228,2.02-2.744,2.02h-0.229c-1.514,0-2.744-0.905-2.744-2.02
		v-3.676h-0.451c-1.062,0-1.855-0.861-1.855-1.924c0,0-1.458-7.01-1.567-16.06c-0.095-7.763,2.323-14.976,2.323-14.976
		c0-1.063,0.999-1.924,2.062-1.924h13.162V6.123H27c-0.586,0-1.061-0.475-1.061-1.062C25.938,4.474,26.413,4,27,4h9.155
		c0.586,0,1.061,0.474,1.061,1.061c0,0.587-0.475,1.062-1.061,1.062h-3.457v4.544h13.491c1.062,0,2.061,0.861,2.061,1.924
		c0,0,2.904,7.384,2.904,15.25c0,8.972-1.599,15.787-1.599,15.787C49.555,44.363,48.396,44.994,47.625,45.317z M20.061,42.506
		c1.448,0,2.622-1.172,2.622-2.621c0-1.448-1.174-2.622-2.622-2.622c-1.449,0-2.624,1.174-2.624,2.622
		C17.438,41.334,18.612,42.506,20.061,42.506z M44.938,12.583H19.512v2.353h25.426V12.583z M45.226,16.964H18.777
		c0,0-1.258,7.947-1.122,17.152c0.137,0.137,28.281,0,28.693,0C46.761,26.56,45.226,16.964,45.226,16.964z M44.287,37.263
		c-1.448,0-2.622,1.174-2.622,2.622c0,1.449,1.174,2.621,2.622,2.621c1.447,0,2.621-1.172,2.621-2.621
		C46.908,38.437,45.734,37.263,44.287,37.263z"/>
</g>
</svg>
