<?xml version="1.0" encoding="utf-8"?>
<!-- Generator: Adobe Illustrator 14.0.0, SVG Export Plug-In . SVG Version: 6.00 Build 43363)  -->
<!DOCTYPE svg PUBLIC "-//W3C//DTD SVG 1.1//EN" "http://www.w3.org/Graphics/SVG/1.1/DTD/svg11.dtd">
<svg version="1.1" id="Capa_1" xmlns="http://www.w3.org/2000/svg" xmlns:xlink="http://www.w3.org/1999/xlink" x="0px" y="0px"
	 width="64px" height="64px" viewBox="0 0 64 64" enable-background="new 0 0 64 64" xml:space="preserve">
<path d="M6.571,15.098V9.229c0-1.08,0.875-1.955,1.955-1.955c0,0,15.765-6.556,18.938-4.409C28.252,1.177,29.951,0,31.938,0
	c2.007,0,3.724,1.198,4.502,2.912c3.943-2.432,19.033,4.362,19.033,4.362c1.079,0,1.956,0.875,1.956,1.955v5.869H6.571z
	 M51.56,60.087c0,2.161-1.75,3.913-3.913,3.913H16.229c-2.161,0-3.912-1.752-3.912-3.913L10.48,17.054h43.035L51.56,60.087z
	 M24.098,22.333h-5.266v34.387h5.266V22.333z M34.633,22.333h-5.266v34.387h5.266V22.333z M45.167,22.333h-5.268v34.387h5.268
	V22.333z"/>
</svg>
