<?xml version="1.0" encoding="utf-8"?>
<!-- Generator: Adobe Illustrator 14.0.0, SVG Export Plug-In . SVG Version: 6.00 Build 43363)  -->
<!DOCTYPE svg PUBLIC "-//W3C//DTD SVG 1.1//EN" "http://www.w3.org/Graphics/SVG/1.1/DTD/svg11.dtd">
<svg version="1.1" id="Capa_1" xmlns="http://www.w3.org/2000/svg" xmlns:xlink="http://www.w3.org/1999/xlink" x="0px" y="0px"
	 width="64px" height="64px" viewBox="0 0 64 64" enable-background="new 0 0 64 64" xml:space="preserve">
<path id="t_shirt_2_" d="M14.223,20.807v34.304L15.236,56c2.439,1.036,9.024,1.778,16.764,1.778c7.741,0,14.325-0.742,16.764-1.778
	l1.015-0.889V20.807l6.233,6.23c0.687,0.688,1.802,0.688,2.49,0l4.981-4.981c0.688-0.688,0.688-1.803,0-2.493L50.143,6.222h-0.364
	h-9.07c-0.821,4.057-4.408,7.11-8.708,7.11c-4.3,0-7.888-3.053-8.712-7.11h-9.064h-0.366L0.514,19.563
	c-0.686,0.69-0.686,1.805,0,2.493l4.983,4.981c0.688,0.688,1.803,0.688,2.491,0L14.223,20.807z"/>
</svg>
