<?xml version="1.0" encoding="utf-8"?>
<!-- Generator: Adobe Illustrator 14.0.0, SVG Export Plug-In . SVG Version: 6.00 Build 43363)  -->
<!DOCTYPE svg PUBLIC "-//W3C//DTD SVG 1.1//EN" "http://www.w3.org/Graphics/SVG/1.1/DTD/svg11.dtd">
<svg version="1.1" id="Capa_1" xmlns="http://www.w3.org/2000/svg" xmlns:xlink="http://www.w3.org/1999/xlink" x="0px" y="0px"
	 width="64px" height="64px" viewBox="0 0 64 64" enable-background="new 0 0 64 64" xml:space="preserve">
<path id="doc_csv_download" d="M50.667,60H13.334c-2.062,0-3.733-1.672-3.733-3.733V7.733C9.601,5.671,11.272,4,13.334,4h29.119
	l11.946,12.318v39.948C54.399,58.328,52.729,60,50.667,60z M15.978,22.454c0.747-0.856,1.718-1.283,2.913-1.283
	c0.791,0,1.465,0.236,2.023,0.709c0.557,0.477,0.945,1.184,1.166,2.123l2.305-0.356c-0.271-1.413-0.893-2.505-1.857-3.273
	c-0.967-0.769-2.209-1.152-3.73-1.152c-1.203,0-2.315,0.281-3.339,0.849c-1.024,0.566-1.785,1.417-2.287,2.55
	c-0.5,1.134-0.75,2.454-0.75,3.966c0,2.338,0.581,4.133,1.746,5.383c1.163,1.254,2.703,1.879,4.618,1.879
	c1.527,0,2.818-0.455,3.867-1.364c1.049-0.911,1.703-2.168,1.957-3.775l-2.332-0.305c-0.168,1.186-0.563,2.066-1.188,2.636
	c-0.623,0.572-1.4,0.857-2.332,0.857c-1.158,0-2.099-0.427-2.819-1.277c-0.72-0.854-1.08-2.22-1.08-4.1
	C14.858,24.665,15.231,23.312,15.978,22.454z M29.076,21.71c0.465-0.36,1.242-0.539,2.332-0.539c0.922,0,1.637,0.201,2.143,0.605
	c0.504,0.403,0.809,0.966,0.914,1.686l2.32-0.316c-0.15-0.904-0.422-1.626-0.816-2.168c-0.396-0.539-1.008-0.968-1.84-1.283
	c-0.828-0.315-1.793-0.474-2.893-0.474c-0.729,0-1.412,0.095-2.049,0.281c-0.637,0.19-1.139,0.42-1.508,0.692
	c-0.492,0.352-0.881,0.794-1.166,1.325c-0.287,0.531-0.428,1.107-0.428,1.733c0,0.684,0.172,1.311,0.52,1.876
	c0.348,0.568,0.855,1.011,1.529,1.331c0.672,0.322,1.877,0.701,3.617,1.141c1.291,0.325,2.101,0.592,2.424,0.803
	c0.468,0.309,0.699,0.73,0.699,1.266c0,0.598-0.265,1.118-0.791,1.561c-0.526,0.445-1.336,0.667-2.424,0.667
	c-1.08,0-1.924-0.25-2.525-0.751c-0.6-0.502-0.967-1.222-1.1-2.161l-2.346,0.369c0.264,1.485,0.871,2.604,1.826,3.359
	c0.953,0.758,2.338,1.135,4.156,1.135c1.1,0,2.082-0.19,2.951-0.574c0.871-0.381,1.535-0.921,1.998-1.621
	c0.461-0.699,0.691-1.444,0.691-2.233c0-0.808-0.189-1.484-0.566-2.03c-0.377-0.543-0.898-0.96-1.563-1.245
	c-0.666-0.285-1.834-0.652-3.513-1.099c-1.158-0.317-1.857-0.519-2.094-0.606c-0.414-0.167-0.717-0.378-0.91-0.635
	c-0.193-0.244-0.289-0.521-0.289-0.828C28.379,22.491,28.609,22.071,29.076,21.71z M38.467,41.277H24.18v4.347h-3.055
	c-0.438,0.438-0.438,1.146,0,1.582l9.484,9.481c0.436,0.438,1.145,0.438,1.58,0l9.484-9.481c0.438-0.438,0.438-1.146,0-1.582h-3.207
	L38.467,41.277L38.467,41.277z M49.094,19.536l-3.111,8.538C45.605,29.111,45.311,30,45.1,30.735
	c-0.271-0.974-0.57-1.915-0.895-2.819l-3.006-8.38h-2.504l5.324,13.995h2.215l5.297-13.995H49.094z"/>
</svg>
