<?xml version="1.0" encoding="utf-8"?>
<!-- Generator: Adobe Illustrator 14.0.0, SVG Export Plug-In . SVG Version: 6.00 Build 43363)  -->
<!DOCTYPE svg PUBLIC "-//W3C//DTD SVG 1.1//EN" "http://www.w3.org/Graphics/SVG/1.1/DTD/svg11.dtd">
<svg version="1.1" id="Capa_1" xmlns="http://www.w3.org/2000/svg" xmlns:xlink="http://www.w3.org/1999/xlink" x="0px" y="0px"
	 width="64px" height="64px" viewBox="0 0 64 64" enable-background="new 0 0 64 64" xml:space="preserve">
<g>
	<path d="M29.68,39.576l-1.109-2.631c-3.556-1.425-6.293-4.458-7.281-8.208h-3.097c-0.354,0-0.639-0.308-0.639-0.688v-1.032
		c0-0.379,0.285-0.687,0.639-0.687h2.716c-0.013-0.231-0.019-0.464-0.019-0.699c0-0.235,0.006-0.468,0.019-0.7h-2.647
		c-0.355,0-0.641-0.308-0.641-0.685v-1.033c0-0.378,0.285-0.687,0.641-0.687h3.029c1.318-5.011,5.752-8.766,11.105-9.047
		c0.039-0.012,3.166,0,3.166,0c0.256,0,0.457,0.206,0.457,0.458v2.939c0,0.254-0.201,0.46-0.457,0.46h-2.521
		c-3.477,0-6.452,2.149-7.682,5.19h4.875c0.353,0,0.638,0.308,0.638,0.686v1.033c0,0.376-0.285,0.686-0.638,0.686h-5.448
		c-0.019,0.231-0.026,0.463-0.026,0.7c0,0.235,0.008,0.468,0.026,0.699h5.38c0.352,0,0.637,0.308,0.637,0.687v1.031
		c0,0.38-0.285,0.688-0.637,0.688h-4.807c0.999,2.476,3.168,4.334,5.814,4.947c0.707-0.58,1.445-1.124,2.231-1.603l2.875,1.756
		c0.905-0.441,1.858-0.8,2.846-1.072l0.994-3.223c1.142-0.205,2.311-0.317,3.51-0.317c1.077,0,2.132,0.09,3.16,0.253l1.082,3.208
		c0.971,0.253,1.907,0.595,2.801,1.008l1.097-0.706V16.319L39.841,4H10.722C8.661,4,6.989,5.672,6.989,7.732v48.536
		c0,2.061,1.672,3.731,3.733,3.731h16.639c-0.825-1.211-1.534-2.508-2.079-3.892l1.4-1.584c0.021-0.041,0.039-0.091,0.06-0.123
		c0.024-0.012,0.052-0.023,0.076-0.037c0-0.023,0-0.051,0-0.074c0.037-0.025,0.073-0.051,0.112-0.076c0-0.025,0-0.051,0-0.076
		c0.037-0.025,0.074-0.051,0.113-0.076c0-0.022,0-0.049,0-0.074c0.039-0.022,0.073-0.051,0.11-0.075c0-0.022,0-0.052,0-0.074
		c0.024-0.015,0.051-0.022,0.076-0.037c0-0.024,0-0.053,0-0.073c0.024-0.017,0.051-0.025,0.077-0.039
		c0.013-0.039,0.025-0.076,0.037-0.115c0.033-0.021,0.068-0.046,0.101-0.066c-0.239-0.849-0.417-1.719-0.517-2.615l-2.99-1.534
		c-0.001-0.143-0.011-0.285-0.011-0.43c0-2.188,0.362-4.289,1.021-6.252l1.721-0.261c0-0.004,0-0.01,0-0.014c0.031,0,0.061,0,0.09,0
		l0.024-0.004c0-0.012,0-0.022,0-0.035c0.263-0.051,0.526-0.1,0.788-0.15c0-0.012,0-0.025,0-0.037c0.051,0,0.102,0,0.152,0
		c0-0.014,0-0.025,0-0.037c0.05,0,0.101,0,0.15,0c0-0.016,0-0.025,0-0.039c0.049,0,0.098,0,0.148,0c0-0.014,0-0.025,0-0.039
		c0.1-0.01,0.199-0.021,0.298-0.032C28.708,41.169,29.157,40.347,29.68,39.576z"/>
	<path d="M59.011,48.803c0-0.001,0-0.004,0-0.006c0-1.846-0.325-3.613-0.92-5.252l-2.589-0.327
		c-0.315-0.664-0.685-1.298-1.103-1.895l0.967-2.465c-1.138-1.341-2.501-2.486-4.032-3.373l-2.206,1.421
		c-0.697-0.323-1.429-0.59-2.186-0.787l-0.845-2.505c-0.804-0.128-1.627-0.198-2.468-0.198c-0.936,0-1.849,0.088-2.74,0.248
		l-0.775,2.516c-0.771,0.213-1.516,0.493-2.223,0.838l-2.244-1.371c-1.497,0.912-2.825,2.072-3.933,3.423l1.024,2.429
		c-0.432,0.637-0.805,1.316-1.118,2.028l-2.576,0.39c-0.513,1.532-0.796,3.174-0.796,4.881c0,0.113,0.007,0.225,0.009,0.336
		l2.333,1.198c0.083,0.731,0.227,1.443,0.428,2.137l-1.712,1.936c0.665,1.69,1.616,3.236,2.8,4.573l2.543-0.579
		c0.494,0.464,1.021,0.89,1.579,1.271l-0.064,2.575c1.566,0.871,3.297,1.478,5.138,1.757l1.569-2.067
		c0.253,0.015,0.504,0.022,0.76,0.022c0.395,0,0.786-0.019,1.172-0.054l1.613,2.021c1.834-0.335,3.557-0.995,5.102-1.92
		l-0.128-2.588c0.521-0.382,1.015-0.801,1.474-1.256l2.556,0.516c1.156-1.382,2.078-2.968,2.697-4.699l-1.764-1.9
		c0.166-0.652,0.281-1.326,0.348-2.012L59.011,48.803z M43.63,53.914c-2.876,0-5.207-2.329-5.207-5.205
		c0-2.877,2.331-5.206,5.207-5.206c2.877,0,5.207,2.329,5.207,5.206C48.837,51.585,46.507,53.914,43.63,53.914z"/>
</g>
</svg>
