<?xml version="1.0" encoding="utf-8"?>
<!-- Generator: Adobe Illustrator 14.0.0, SVG Export Plug-In . SVG Version: 6.00 Build 43363)  -->
<!DOCTYPE svg PUBLIC "-//W3C//DTD SVG 1.1//EN" "http://www.w3.org/Graphics/SVG/1.1/DTD/svg11.dtd">
<svg version="1.1" id="Capa_1" xmlns="http://www.w3.org/2000/svg" xmlns:xlink="http://www.w3.org/1999/xlink" x="0px" y="0px"
	 width="64px" height="64px" viewBox="0 0 64 64" enable-background="new 0 0 64 64" xml:space="preserve">
<g>
	<path d="M45.5,39.438l8.764,0.014l0.139-23.131L42.453,4H13.334C11.273,4,9.6,5.672,9.6,7.733v48.532
		C9.6,58.329,11.273,60,13.334,60h21.238c-1.01-1.908-1.586-4.079-1.586-6.387C32.49,47.326,36.875,40.313,45.5,39.438z"/>
	<path d="M41.268,53.441c0-3.358,2.723-6.08,6.08-6.08h7.229v3.201L64,45.121l-9.424-5.441v3.199h-7.229
		c-5.834,0-10.563,4.729-10.563,10.563c0,5.83,4.729,10.559,10.563,10.559h11.27v-4.48h-11.27
		C43.99,59.52,41.268,56.799,41.268,53.441z"/>
</g>
</svg>
