<?xml version="1.0" encoding="utf-8"?>
<!-- Generator: Adobe Illustrator 14.0.0, SVG Export Plug-In . SVG Version: 6.00 Build 43363)  -->
<!DOCTYPE svg PUBLIC "-//W3C//DTD SVG 1.1//EN" "http://www.w3.org/Graphics/SVG/1.1/DTD/svg11.dtd">
<svg version="1.1" id="Capa_1" xmlns="http://www.w3.org/2000/svg" xmlns:xlink="http://www.w3.org/1999/xlink" x="0px" y="0px"
	 width="64px" height="64px" viewBox="0 0 64 64" enable-background="new 0 0 64 64" xml:space="preserve">
<g id="doc_edit">
	<path d="M31.492,50.98l1.022-1.021l21.886-16.627V15.454L42.946,4H13.334c-2.062,0-3.732,1.671-3.733,3.734v48.532
		c0,2.062,1.672,3.733,3.733,3.733h15.382l1.793-7.002L31.492,50.98z"/>
	<path d="M63.396,43.059l-4.584-6.209c-0.988-1.309-2.846-1.561-4.148-0.564L33.372,53.078l-0.018,0.016l0.014,0.014l-2.256,7.551
		c-0.221,1.625,0.918,3.121,2.545,3.342l8.35-0.436l20.824-16.332C64.132,46.236,64.386,44.367,63.396,43.059z M35.825,54.453
		l17.063-13.256l0.6,0.787L36.425,55.24L35.825,54.453z M37.872,57.141l17.061-13.256l0.602,0.789L38.472,57.928L37.872,57.141z
		 M40.519,60.613l-0.598-0.785l17.061-13.256l0.598,0.787L40.519,60.613z"/>
</g>
</svg>
