<?xml version="1.0" encoding="utf-8"?>
<!-- Generator: Adobe Illustrator 14.0.0, SVG Export Plug-In . SVG Version: 6.00 Build 43363)  -->
<!DOCTYPE svg PUBLIC "-//W3C//DTD SVG 1.1//EN" "http://www.w3.org/Graphics/SVG/1.1/DTD/svg11.dtd">
<svg version="1.1" id="Capa_1" xmlns="http://www.w3.org/2000/svg" xmlns:xlink="http://www.w3.org/1999/xlink" x="0px" y="0px"
	 width="64px" height="64px" viewBox="0 0 64 64" enable-background="new 0 0 64 64" xml:space="preserve">
<path fill-rule="evenodd" clip-rule="evenodd" d="M62.81,36.428L48.544,53.272c-1.123,1.324-4.027,2.699-6.129,0.92
	c-1.086-0.922-2.166-3.958-0.167-6.317c0,0,9.226-10.851,9.223-10.85c0.312-0.337,1.009-0.223,1.362,0.072
	c0.357,0.3,0.518,0.923,0.232,1.288c0.084,0.014-9.132,10.763-9.132,10.763c-1.31,1.545-0.485,2.853-0.007,3.258
	c0.556,0.47,1.582,1.188,3.081-0.583l14.189-16.754c1.727-2.218-0.482-4.875-0.91-5.202c-0.848-0.722-3.705-1.756-5.188-0.004
	L35.742,52.72c-2.056,2.424-1.131,5.622,1.017,7.608c2.599,2.076,5.821,2.469,7.91-0.002L59.59,42.659
	c0.305-0.358,1.025-0.252,1.388,0.052c0.362,0.308,0.521,0.953,0.213,1.32L46.281,61.688c-2.675,3.165-7.551,2.921-10.895,0.238
	c-2.844-2.626-3.872-7.482-1.256-10.57L53.492,28.5c2.122-2.501,6.121-2.576,8.126-0.267C63.211,29.34,65.386,33.037,62.81,36.428z
	 M26.5,52c-2.333,4.334,0.437,8.238,0.5,8.238l-21.736-0.02c-1.869,0-3.387-1.495-3.387-3.364V7.094
	c0-1.873,1.518-3.387,3.387-3.387h29.282l11.666,11.174l-0.149,13.286C46.063,28.344,26.5,52,26.5,52z M8.904,44.511h15.337v-2.904
	H8.904V44.511z M37.293,18.262H8.894v2.901h28.399V18.262z M37.293,26.044H8.894v2.901h28.399V26.044z M32.293,33.826H8.894v2.9
	h23.399V33.826z"/>
</svg>
