<?xml version="1.0" encoding="utf-8"?>
<!-- Generator: Adobe Illustrator 14.0.0, SVG Export Plug-In . SVG Version: 6.00 Build 43363)  -->
<!DOCTYPE svg PUBLIC "-//W3C//DTD SVG 1.1//EN" "http://www.w3.org/Graphics/SVG/1.1/DTD/svg11.dtd">
<svg version="1.1" id="Capa_1" xmlns="http://www.w3.org/2000/svg" xmlns:xlink="http://www.w3.org/1999/xlink" x="0px" y="0px"
	 width="64px" height="64px" viewBox="0 0 64 64" enable-background="new 0 0 64 64" xml:space="preserve">
<path d="M42.453,4h-29.12C11.271,4,9.6,5.671,9.6,7.733v48.534C9.6,58.329,11.271,60,13.333,60h37.335
	c2.061,0,3.732-1.671,3.732-3.734V16.319L42.453,4z M23.866,45.438c0,0.828-0.67,1.498-1.496,1.498h-1.499
	c-0.828,0-1.497-0.67-1.497-1.498v-1.498c0-0.826,0.669-1.498,1.497-1.498h1.499c0.826,0,1.496,0.672,1.496,1.498V45.438z
	 M23.866,37.949c0,0.828-0.67,1.498-1.496,1.498h-1.499c-0.828,0-1.497-0.672-1.497-1.498v-1.498c0-0.827,0.669-1.498,1.497-1.498
	h1.499c0.826,0,1.496,0.671,1.496,1.498V37.949z M23.866,30.462c0,0.826-0.67,1.497-1.496,1.497h-1.499
	c-0.828,0-1.497-0.672-1.497-1.497v-1.499c0-0.827,0.669-1.499,1.497-1.499h1.499c0.826,0,1.496,0.672,1.496,1.499V30.462z
	 M43.338,45.438c0,0.828-0.672,1.498-1.5,1.498H26.863c-0.828,0-1.5-0.67-1.5-1.498v-1.498c0-0.826,0.672-1.498,1.5-1.498h14.975
	c0.828,0,1.5,0.672,1.5,1.498V45.438z M43.338,37.949c0,0.828-0.672,1.498-1.5,1.498H26.863c-0.828,0-1.5-0.672-1.5-1.498v-1.498
	c0-0.827,0.672-1.498,1.5-1.498h14.975c0.828,0,1.5,0.671,1.5,1.498V37.949z M43.338,30.462c0,0.826-0.672,1.497-1.5,1.497H26.863
	c-0.828,0-1.5-0.672-1.5-1.497v-1.499c0-0.827,0.672-1.499,1.5-1.499h14.975c0.828,0,1.5,0.672,1.5,1.499V30.462z"/>
</svg>
