<?xml version="1.0" encoding="utf-8"?>
<!-- Generator: Adobe Illustrator 14.0.0, SVG Export Plug-In . SVG Version: 6.00 Build 43363)  -->
<!DOCTYPE svg PUBLIC "-//W3C//DTD SVG 1.1//EN" "http://www.w3.org/Graphics/SVG/1.1/DTD/svg11.dtd">
<svg version="1.1" id="Capa_1" xmlns="http://www.w3.org/2000/svg" xmlns:xlink="http://www.w3.org/1999/xlink" x="0px" y="0px"
	 width="64px" height="64px" viewBox="0 0 64 64" enable-background="new 0 0 64 64" xml:space="preserve">
<path id="doc_warning" d="M50.833,60H13.501c-2.063,0-3.734-1.67-3.734-3.732V7.734C9.767,5.672,11.438,4,13.501,4h29.121
	l11.944,12.321v39.947C54.566,58.33,52.896,60,50.833,60z M34.967,19.868c-2.488,0-4.979,0-7.466,0c0,6.221,0,12.444,0,18.667
	c2.486,0,4.978,0,7.466,0C34.967,32.313,34.967,26.089,34.967,19.868z M34.967,42.268c-2.488,0-4.979,0-7.466,0
	c0,2.489,0,4.979,0,7.467c2.486,0,4.978,0,7.466,0C34.967,47.245,34.967,44.757,34.967,42.268z"/>
</svg>
