<?xml version="1.0" encoding="utf-8"?>
<!-- Generator: Adobe Illustrator 14.0.0, SVG Export Plug-In . SVG Version: 6.00 Build 43363)  -->
<!DOCTYPE svg PUBLIC "-//W3C//DTD SVG 1.1//EN" "http://www.w3.org/Graphics/SVG/1.1/DTD/svg11.dtd">
<svg version="1.1" id="Capa_1" xmlns="http://www.w3.org/2000/svg" xmlns:xlink="http://www.w3.org/1999/xlink" x="0px" y="0px"
	 width="64px" height="64px" viewBox="0 0 64 64" enable-background="new 0 0 64 64" xml:space="preserve">
<g>
	<path fill-rule="evenodd" clip-rule="evenodd" d="M46.385,23.919v5.799h8.782v2.21h-8.782v8.505h-2.476V21.71h12.624v2.209H46.385z
		 M45.383,17.726L34.654,9.415H14.989c-0.987,0-1.787,0.801-1.787,1.789v8.973H7.838V7.625c0-1.976,1.601-3.578,3.575-3.578h25.029
		l14.303,11.628v4.406h-5.362V17.726z M17.372,21.889c0.919,0.153,1.689,0.445,2.31,0.875c0.622,0.43,1.122,1.033,1.501,1.808
		c0.378,0.774,0.566,1.627,0.566,2.554c0,1.593-0.506,2.939-1.519,4.043c-1.011,1.103-2.842,1.653-5.488,1.653H9.943v7.613H7.467
		V21.71h7.059C15.769,21.71,16.717,21.769,17.372,21.889z M9.943,30.612h4.837c1.6,0,2.736-0.298,3.408-0.895
		c0.671-0.596,1.008-1.435,1.008-2.517c0-0.783-0.197-1.454-0.592-2.011s-0.917-0.925-1.564-1.105
		c-0.417-0.11-1.187-0.166-2.31-0.166H9.943V30.612z M36.895,39.176c-0.616,0.412-1.361,0.727-2.234,0.939
		c-0.872,0.213-1.873,0.318-3.006,0.318h-6.752V21.71h6.446c1.456,0,2.566,0.089,3.332,0.267c1.071,0.248,1.987,0.695,2.744,1.342
		c0.987,0.834,1.726,1.901,2.215,3.199c0.489,1.299,0.733,2.782,0.733,4.452c0,1.422-0.166,2.682-0.497,3.78
		c-0.332,1.1-0.758,2.008-1.277,2.729C38.08,38.197,37.513,38.764,36.895,39.176z M36.856,26.417
		c-0.643-1.052-1.423-1.756-2.343-2.114c-0.663-0.255-1.731-0.384-3.202-0.384H27.38v14.306h3.995c1.232,0,2.202-0.115,2.903-0.346
		c0.701-0.229,1.262-0.551,1.679-0.971c0.586-0.586,1.045-1.375,1.372-2.367s0.491-2.196,0.491-3.609
		C37.82,28.973,37.499,27.468,36.856,26.417z M13.202,52.797c0,0.988,0.8,1.789,1.787,1.789h28.605c0.987,0,1.789-0.801,1.789-1.789
		v-8.752h5.362v12.33c0,1.975-1.602,3.578-3.576,3.578H11.414c-1.975,0-3.575-1.604-3.575-3.578v-12.33h5.363V52.797z"/>
</g>
</svg>
