<?xml version="1.0" encoding="utf-8"?>
<!-- Generator: Adobe Illustrator 14.0.0, SVG Export Plug-In . SVG Version: 6.00 Build 43363)  -->
<!DOCTYPE svg PUBLIC "-//W3C//DTD SVG 1.1//EN" "http://www.w3.org/Graphics/SVG/1.1/DTD/svg11.dtd">
<svg version="1.1" id="Capa_2" xmlns="http://www.w3.org/2000/svg" xmlns:xlink="http://www.w3.org/1999/xlink" x="0px" y="0px"
	 width="64px" height="64px" viewBox="0 0 64 64" enable-background="new 0 0 64 64" xml:space="preserve">
<path id="doc_check_2_1_" d="M50.668,60H13.333C11.271,60,9.6,58.329,9.6,56.268V7.733C9.6,5.671,11.271,4,13.333,4h29.12
	L54.4,16.319v39.946C54.4,58.329,52.729,60,50.668,60z M48.869,23.891l-2.811-2.77c-1.037-1.019-2.713-1.019-3.748,0L26.396,36.798
	l-4.777-4.699c-1.034-1.021-2.713-1.021-3.746,0l-2.812,2.767c-1.035,1.02-1.035,2.673,0,3.691l6.473,6.375l0.167,0.18l2.812,2.77
	c1.033,1.02,2.713,1.02,3.748,0l20.609-20.3C49.904,26.562,49.904,24.909,48.869,23.891z"/>
</svg>
