<?xml version="1.0" encoding="utf-8"?>
<!-- Generator: Adobe Illustrator 14.0.0, SVG Export Plug-In . SVG Version: 6.00 Build 43363)  -->
<!DOCTYPE svg PUBLIC "-//W3C//DTD SVG 1.1//EN" "http://www.w3.org/Graphics/SVG/1.1/DTD/svg11.dtd">
<svg version="1.1" id="Capa_1" xmlns="http://www.w3.org/2000/svg" xmlns:xlink="http://www.w3.org/1999/xlink" x="0px" y="0px"
	 width="64px" height="64px" viewBox="0 0 64 64" enable-background="new 0 0 64 64" xml:space="preserve">
<g id="doc_reg">
	<g>
		<path d="M55.215,50.122c-0.209-0.237-0.5-0.39-0.879-0.453c-0.188-0.026-0.756-0.038-1.701-0.038h-0.91v2.93h0.816
			c1.117,0,1.816-0.047,2.096-0.143c0.277-0.094,0.496-0.257,0.654-0.488c0.156-0.23,0.236-0.519,0.236-0.865
			C55.527,50.674,55.422,50.361,55.215,50.122z"/>
		<path d="M53.26,42.52c-5.93,0-10.74,4.807-10.74,10.74c0,5.93,4.809,10.74,10.74,10.74S64,59.189,64,53.26
			C64,47.326,59.191,42.52,53.26,42.52z M56.078,59.221l-1.688-2.512c-0.598-0.896-1.006-1.463-1.227-1.695
			c-0.221-0.234-0.455-0.395-0.701-0.48c-0.246-0.088,0.271-0.131-0.266-0.131h-0.473v4.82h-2.332V47.68h3.998
			c1.234,0,2.133,0.104,2.688,0.312c0.563,0.206,1.01,0.573,1.344,1.106c0.338,0.528,0.506,1.135,0.506,1.817
			c0,0.866-0.256,1.582-0.764,2.146c-0.512,0.564-1.273,0.92-2.283,1.065c0.504,0.295,0.92,0.618,1.246,0.97
			c0.33,0.352,0.771,0.975,1.328,1.875l1.412,2.25H56.078z"/>
	</g>
	<path d="M53.26,39.77c0.387,0,0.764,0.027,1.143,0.058V16.321L42.455,4H13.334C11.273,4,9.6,5.673,9.6,7.734v48.531
		C9.6,58.33,11.271,60,13.334,60h28.307c-1.113-2.04-1.953-4.379-1.953-6.865C39.688,45.199,45.328,39.77,53.26,39.77z"/>
</g>
</svg>
