<?xml version="1.0" encoding="utf-8"?>
<!-- Generator: Adobe Illustrator 14.0.0, SVG Export Plug-In . SVG Version: 6.00 Build 43363)  -->
<!DOCTYPE svg PUBLIC "-//W3C//DTD SVG 1.1//EN" "http://www.w3.org/Graphics/SVG/1.1/DTD/svg11.dtd">
<svg version="1.1" id="Capa_1" xmlns="http://www.w3.org/2000/svg" xmlns:xlink="http://www.w3.org/1999/xlink" x="0px" y="0px"
	 width="64px" height="64px" viewBox="0 0 64 64" enable-background="new 0 0 64 64" xml:space="preserve">
<path id="doc_send_end" d="M36.459,60H13.334C11.271,60,9.6,58.328,9.6,56.267V7.732C9.601,5.672,11.272,4,13.334,4h29.121
	L54.4,16.318v26.848H36.459V60z M59.846,55.559l-9.178,7.413c-0.936,0.936-2.453,0.936-3.389,0v-1.854h-5.328V49.281h5.328v-1.982
	c0.936-0.936,2.453-0.936,3.389,0l9.178,7.024C60.779,55.257,60.18,54.88,59.846,55.559z M60.908,64V46.805H64V64H60.908z"/>
</svg>
