<?xml version="1.0" encoding="utf-8"?>
<!-- Generator: Adobe Illustrator 14.0.0, SVG Export Plug-In . SVG Version: 6.00 Build 43363)  -->
<!DOCTYPE svg PUBLIC "-//W3C//DTD SVG 1.1//EN" "http://www.w3.org/Graphics/SVG/1.1/DTD/svg11.dtd">
<svg version="1.1" id="Capa_1" xmlns="http://www.w3.org/2000/svg" xmlns:xlink="http://www.w3.org/1999/xlink" x="0px" y="0px"
	 width="64px" height="64px" viewBox="0 0 64 64" enable-background="new 0 0 64 64" xml:space="preserve">
<g>
	<path fill-rule="evenodd" clip-rule="evenodd" d="M57.288,32.842l-2.022,2.021l-5.054-5.054l-0.001-0.001l2.022-2.022
		c1.116-1.116,2.927-1.116,4.043,0l1.012,1.012C58.404,29.915,58.404,31.726,57.288,32.842z M49.976,11.813l-6.655-0.006
		l-0.086-4.54h9.904c0.79,0,1.43,0.64,1.43,1.43l0.005,13.577l-4.596,4.596L49.976,11.813z M38.961,13.55H25.562
		c-1.104,0-2-0.896-2-2V7.1c0-1.104,0.896-2,2-2h1.46c0.301-2.585,2.474-4.6,5.14-4.6S37,2.515,37.301,5.1h1.66c1.105,0,2,0.896,2,2
		v4.45C40.961,12.655,40.066,13.55,38.961,13.55z M49.232,30.853l5.022,5.021L40.101,50.028l-5.055-5.055l14.121-14.121H49.232z
		 M38.971,50.92l-7.969,3.297l3.16-8.105L38.971,50.92z M19.891,38.457h17.274l-4.917,5.095H19.891V38.457z M19.796,19.335h24.381
		v5.094H19.796V19.335z M44.177,33.991H19.796v-5.095h24.381V33.991z M13.998,11.813l-0.006,43.734H49.98l-0.001-12.086l4.598-4.599
		l0.007,19.82c0,0.79-0.641,1.43-1.43,1.43h-0.016H10.834h-0.016c-0.789,0-1.43-0.64-1.43-1.43L9.404,8.698
		c0-0.79,0.64-1.43,1.43-1.43h10.571l-0.086,4.54L13.998,11.813z"/>
</g>
</svg>
