<?xml version="1.0" encoding="utf-8"?>
<!-- Generator: Adobe Illustrator 14.0.0, SVG Export Plug-In . SVG Version: 6.00 Build 43363)  -->
<!DOCTYPE svg PUBLIC "-//W3C//DTD SVG 1.1//EN" "http://www.w3.org/Graphics/SVG/1.1/DTD/svg11.dtd">
<svg version="1.1" id="Capa_1" xmlns="http://www.w3.org/2000/svg" xmlns:xlink="http://www.w3.org/1999/xlink" x="0px" y="0px"
	 width="64px" height="64px" viewBox="0 0 64 64" enable-background="new 0 0 64 64" xml:space="preserve">
<g>
	<path d="M30.112,58.124l-4.494-4.337c-1.631-1.616-1.631-4.23,0-5.843l4.453-4.382c2.43-2.688,4.18-2.688,5.936-1l4.805,4.684
		l5.992-5.859V16.189L34.855,3.869H5.735C3.674,3.869,2,5.541,2,7.603v48.532c0,2.063,1.674,3.734,3.735,3.734h26.124l-1.485-1.462
		L30.112,58.124z"/>
	<path d="M63.259,40.353l-2.686-2.646c-0.988-0.974-2.59-0.974-3.58,0L41.79,52.685l-5.313-5.24c-0.99-0.975-2.594-0.975-3.58,0
		l-2.688,2.645c-0.984,0.973-0.984,2.551,0,3.525l6.936,6.84l0.158,0.172l2.686,2.645c0.988,0.973,2.59,0.973,3.58,0l19.689-19.394
		C64.247,42.903,64.247,41.325,63.259,40.353z"/>
</g>
</svg>
