<?xml version="1.0" encoding="utf-8"?>
<!-- Generator: Adobe Illustrator 14.0.0, SVG Export Plug-In . SVG Version: 6.00 Build 43363)  -->
<!DOCTYPE svg PUBLIC "-//W3C//DTD SVG 1.1//EN" "http://www.w3.org/Graphics/SVG/1.1/DTD/svg11.dtd">
<svg version="1.1" id="Capa_1" xmlns="http://www.w3.org/2000/svg" xmlns:xlink="http://www.w3.org/1999/xlink" x="0px" y="0px"
	 width="64px" height="64px" viewBox="0 0 64 64" enable-background="new 0 0 64 64" xml:space="preserve">
<path fill-rule="evenodd" clip-rule="evenodd" d="M48.599,49.795H15.402c-1.836,0-3.321-1.484-3.321-3.318V3.318
	C12.081,1.485,13.566,0,15.402,0H38.64l13.279,13.279v33.198C51.919,48.311,50.432,49.795,48.599,49.795z M46.938,14.937
	L36.98,4.978h-18.26c-0.917,0-1.659,0.745-1.659,1.662v36.517c0,0.916,0.742,1.658,1.659,1.658h26.559
	c0.915,0,1.659-0.742,1.659-1.658V14.937z M37.074,26.899l-1.345,1.053c-0.729,0.571-1.217,1.237-1.457,2.001
	c-0.15,0.487-0.232,1.236-0.246,2.254h-5.201c0.075-2.149,0.281-3.635,0.608-4.455c0.335-0.821,1.186-1.766,2.561-2.839l1.394-1.084
	c0.456-0.345,0.824-0.713,1.105-1.126c0.509-0.691,0.761-1.452,0.761-2.287c0-0.963-0.28-1.837-0.845-2.628
	c-0.565-0.786-1.596-1.185-3.093-1.185c-1.477,0-2.516,0.484-3.135,1.458c-0.615,0.968-0.924,1.976-0.924,3.017h-5.481
	c0.151-3.607,1.415-6.163,3.786-7.674c1.498-0.963,3.338-1.442,5.521-1.442c2.866,0,5.25,0.685,7.144,2.052
	c1.898,1.372,2.846,3.404,2.846,6.095c0,1.643-0.41,3.034-1.23,4.163C39.362,24.958,38.438,25.835,37.074,26.899z M34.419,40.32
	h-5.706v-5.482h5.706V40.32z M21.57,52.696h20.391c0.432,0.432,0.432,1.135,0,1.566l-9.414,9.412c-0.432,0.434-1.135,0.434-1.567,0
	l-9.409-9.412C21.136,53.831,21.136,53.128,21.57,52.696z"/>
</svg>
