<?xml version="1.0" encoding="utf-8"?>
<!-- Generator: Adobe Illustrator 14.0.0, SVG Export Plug-In . SVG Version: 6.00 Build 43363)  -->
<!DOCTYPE svg PUBLIC "-//W3C//DTD SVG 1.1//EN" "http://www.w3.org/Graphics/SVG/1.1/DTD/svg11.dtd">
<svg version="1.1" id="Capa_1" xmlns="http://www.w3.org/2000/svg" xmlns:xlink="http://www.w3.org/1999/xlink" x="0px" y="0px"
	 width="64px" height="64px" viewBox="0 0 64 64" enable-background="new 0 0 64 64" xml:space="preserve">
<path fill-rule="evenodd" clip-rule="evenodd" d="M53.643,42.212h-3.361L42.199,20.96h3.802l4.562,12.728
	c0.494,1.372,0.947,2.801,1.36,4.281c0.32-1.122,0.77-2.468,1.342-4.041l4.724-12.968h3.7L53.643,42.212z M47.579,17.701
	L36.826,9.376H17.115c-0.99,0-1.792,0.801-1.792,1.792v4.986H9.947V7.582C9.947,5.603,11.551,4,13.531,4h25.087l14.336,11.648v2.414
	h-5.375V17.701z M11.985,20.48c2.307,0,4.195,0.584,5.664,1.75c1.466,1.168,2.407,2.825,2.82,4.973l-3.501,0.541
	c-0.334-1.428-0.924-2.502-1.771-3.222c-0.847-0.72-1.871-1.082-3.071-1.082c-1.813,0-3.288,0.651-4.421,1.951
	c-1.135,1.3-1.701,3.358-1.701,6.172c0,2.855,0.546,4.927,1.64,6.224c1.095,1.293,2.521,1.938,4.282,1.938
	c1.414,0,2.594-0.433,3.541-1.299c0.949-0.867,1.549-2.202,1.801-4.001l3.542,0.461c-0.387,2.438-1.378,4.352-2.972,5.732
	c-1.594,1.378-3.551,2.068-5.871,2.068c-2.909,0-5.247-0.948-7.015-2.852c-1.767-1.899-2.649-4.625-2.649-8.172
	c0-2.294,0.379-4.303,1.14-6.022c0.76-1.723,1.917-3.013,3.472-3.873C8.468,20.911,10.158,20.48,11.985,20.48z M28.353,28.403
	c0.36,0.134,1.42,0.442,3.181,0.92c2.549,0.681,4.325,1.237,5.335,1.671c1.006,0.434,1.795,1.064,2.37,1.89
	c0.57,0.829,0.859,1.854,0.859,3.082c0,1.2-0.35,2.332-1.049,3.393c-0.702,1.062-1.714,1.88-3.034,2.459
	c-1.321,0.582-2.813,0.871-4.481,0.871c-2.761,0-4.866-0.57-6.313-1.72c-1.448-1.147-2.371-2.85-2.771-5.104l3.563-0.559
	c0.199,1.427,0.756,2.521,1.67,3.28c0.914,0.762,2.191,1.14,3.831,1.14c1.653,0,2.882-0.334,3.681-1.009
	c0.801-0.674,1.205-1.463,1.205-2.372c0-0.813-0.356-1.454-1.063-1.919c-0.494-0.322-1.718-0.728-3.681-1.22
	c-2.643-0.667-4.472-1.247-5.494-1.733c-1.02-0.485-1.792-1.161-2.321-2.021c-0.526-0.86-0.79-1.811-0.79-2.851
	c0-0.947,0.217-1.825,0.65-2.632c0.434-0.807,1.024-1.478,1.772-2.01c0.559-0.414,1.323-0.763,2.29-1.051
	c0.969-0.287,2.004-0.431,3.112-0.431c1.668,0,3.134,0.241,4.392,0.721c1.264,0.479,2.192,1.13,2.79,1.951
	c0.604,0.82,1.014,1.917,1.242,3.291l-3.521,0.481c-0.16-1.095-0.626-1.95-1.392-2.562c-0.768-0.613-1.852-0.921-3.252-0.921
	c-1.654,0-2.834,0.274-3.542,0.821c-0.707,0.546-1.06,1.187-1.06,1.922c0,0.465,0.146,0.885,0.44,1.258
	C27.265,27.831,27.728,28.15,28.353,28.403z M15.323,52.832c0,0.989,0.802,1.792,1.792,1.792h28.672c0.99,0,1.792-0.803,1.792-1.792
	v-4.768h5.375v8.352c0,1.979-1.603,3.584-3.583,3.584h-35.84c-1.98,0-3.584-1.604-3.584-3.584v-8.352h5.375V52.832z"/>
</svg>
