<?xml version="1.0" encoding="utf-8"?>
<!-- Generator: Adobe Illustrator 14.0.0, SVG Export Plug-In . SVG Version: 6.00 Build 43363)  -->
<!DOCTYPE svg PUBLIC "-//W3C//DTD SVG 1.1//EN" "http://www.w3.org/Graphics/SVG/1.1/DTD/svg11.dtd">
<svg version="1.1" id="Capa_1" xmlns="http://www.w3.org/2000/svg" xmlns:xlink="http://www.w3.org/1999/xlink" x="0px" y="0px"
	 width="64px" height="64px" viewBox="0 0 64 64" enable-background="new 0 0 64 64" xml:space="preserve">
<g>
	<polygon points="52.873,50.456 52.873,44.185 45.602,44.185 45.602,50.456 39.33,50.456 39.33,57.728 45.602,57.728 45.602,64 
		52.873,64 52.873,57.728 59.145,57.728 59.145,50.456 	"/>
	<path d="M40.984,39.141h12.098V15.441L41.818,3.827H14.374c-1.943,0-3.375,1.423-3.519,3.521v44.744
		c0,2.943,1.576,4.519,3.519,4.519h19.815v-9.673h6.795V39.141z M18.217,15.077h10.828v3.813H18.217V15.077z M18.207,22.335h27.338
		v3.813H18.207V22.335z M18.207,33.623v-3.813h27.338v3.813H18.207z"/>
</g>
</svg>
