<?xml version="1.0" encoding="utf-8"?>
<!-- Generator: Adobe Illustrator 14.0.0, SVG Export Plug-In . SVG Version: 6.00 Build 43363)  -->
<!DOCTYPE svg PUBLIC "-//W3C//DTD SVG 1.1//EN" "http://www.w3.org/Graphics/SVG/1.1/DTD/svg11.dtd">
<svg version="1.1" id="Capa_1" xmlns="http://www.w3.org/2000/svg" xmlns:xlink="http://www.w3.org/1999/xlink" x="0px" y="0px"
	 width="64px" height="64px" viewBox="0 0 64 64" enable-background="new 0 0 64 64" xml:space="preserve">
<g>
	<rect x="18.581" y="18.558" fill="none" width="25.709" height="3.801"/>
	<rect x="18.581" y="26.037" fill="none" width="25.709" height="3.799"/>
	<path fill="none" d="M18.581,34.037v3.799h20.563c1.5-0.655,3.152-1.024,4.893-1.024c0.086,0,0.168,0.011,0.254,0.013v-2.787
		H18.581z"/>
	<g>
		<rect x="18.581" y="26.037" fill="none" width="25.709" height="3.799"/>
		<rect x="18.581" y="18.558" fill="none" width="25.709" height="3.801"/>
		<path d="M58.237,61.355l-4.707-4.619l-0.797-0.783c-0.541,0.809-0.934,1.171-1.875,1.769l0.785,0.879l4.412,4.937
			c0.6,0.6,1.561,0.617,2.182,0.053l0.027-0.026l0.027-0.026C58.854,62.917,58.835,61.955,58.237,61.355z"/>
		<path d="M31.806,49.04c0-5.013,3.021-9.316,7.338-11.204H18.581v-3.799H44.29v2.787c4.258,0.088,7.971,2.35,10.092,5.722
			c-0.121-0.97-0.246-1.674-0.281-1.968V16.32L42.155,4H13.034C10.971,4,9.3,5.671,9.3,7.733v48.534c0,2.062,1.67,3.733,3.733,3.733
			h25.604C34.595,58.005,31.806,53.854,31.806,49.04z M18.581,18.558H44.29v3.801H18.581V18.558z M18.581,26.037H44.29v3.799H18.581
			V26.037z"/>
		<path d="M44.161,39.456c-5.225,0-9.461,4.235-9.461,9.459c0,5.225,4.236,9.459,9.461,9.459c5.221,0,9.457-4.236,9.457-9.459
			C53.618,43.691,49.384,39.456,44.161,39.456z"/>
	</g>
</g>
</svg>
