<?xml version="1.0" encoding="utf-8"?>
<!-- Generator: Adobe Illustrator 14.0.0, SVG Export Plug-In . SVG Version: 6.00 Build 43363)  -->
<!DOCTYPE svg PUBLIC "-//W3C//DTD SVG 1.1//EN" "http://www.w3.org/Graphics/SVG/1.1/DTD/svg11.dtd">
<svg version="1.1" id="Capa_1" xmlns="http://www.w3.org/2000/svg" xmlns:xlink="http://www.w3.org/1999/xlink" x="0px" y="0px"
	 width="64px" height="64px" viewBox="0 0 64 64" enable-background="new 0 0 64 64" xml:space="preserve">
<g>
	<path fill-rule="evenodd" clip-rule="evenodd" d="M53.067,60H10.932c-0.786,0-1.423-0.637-1.423-1.423V5.424
		C9.509,4.638,10.146,4,10.932,4h36.163l-2.657,4.521L14.082,8.526l-0.006,46.939l35.921-0.011l-0.076-12.09l4.57-4.8v20.012
		C54.491,59.363,53.854,60,53.067,60z M48.034,32.258c0,2.062-0.931,3.903-2.393,5.135c0.425,2.64,2.316,14.092,2.316,14.092
		s-4.881-1.888-6.638-1.888c-1.758,0-6.867,1.888-6.867,1.888s1.988-11.559,2.51-14.124c-1.441-1.232-2.357-3.059-2.357-5.103
		c0-3.709,3.007-6.714,6.715-6.714C45.027,25.544,48.034,28.549,48.034,32.258z M20.861,16.828H44.13v5.073H20.861V16.828z
		 M20.861,39.777v-5.072h8.653v5.072H20.861z M20.861,25.768h11.32v5.071h-11.32V25.768z"/>
</g>
</svg>
