<?xml version="1.0" encoding="utf-8"?>
<!-- Generator: Adobe Illustrator 14.0.0, SVG Export Plug-In . SVG Version: 6.00 Build 43363)  -->
<!DOCTYPE svg PUBLIC "-//W3C//DTD SVG 1.1//EN" "http://www.w3.org/Graphics/SVG/1.1/DTD/svg11.dtd">
<svg version="1.1" id="Capa_1" xmlns="http://www.w3.org/2000/svg" xmlns:xlink="http://www.w3.org/1999/xlink" x="0px" y="0px"
	 width="64px" height="64px" viewBox="0 0 64 64" enable-background="new 0 0 64 64" xml:space="preserve">
<path id="doc_reload_1" d="M50.668,60H13.334C11.272,60,9.6,58.328,9.6,56.267V7.733C9.6,5.672,11.272,4,13.334,4h29.123
	L54.4,16.319v39.948C54.4,58.328,52.729,60,50.668,60z M25.91,45.984v-1.792h7.485c6.041,0,10.936-4.896,10.936-10.934h-4.64
	c0,3.477-2.82,6.294-6.296,6.294H25.91v-1.792l-7.352,4.11L25.91,45.984z M37.056,21.452v1.792h-7.487
	c-6.04,0-10.935,4.896-10.935,10.933h4.639c0-3.476,2.819-6.292,6.295-6.292h7.487v1.793l7.884-4.113L37.056,21.452z"/>
</svg>
