<?xml version="1.0" encoding="utf-8"?>
<!-- Generator: Adobe Illustrator 14.0.0, SVG Export Plug-In . SVG Version: 6.00 Build 43363)  -->
<!DOCTYPE svg PUBLIC "-//W3C//DTD SVG 1.1//EN" "http://www.w3.org/Graphics/SVG/1.1/DTD/svg11.dtd">
<svg version="1.1" id="Capa_1" xmlns="http://www.w3.org/2000/svg" xmlns:xlink="http://www.w3.org/1999/xlink" x="0px" y="0px"
	 width="64px" height="64px" viewBox="0 0 64 64" enable-background="new 0 0 64 64" xml:space="preserve">
<g>
	<path fill="none" d="M44.148,52.024c-0.953,0-1.744,0.408-2.369,1.225c-0.623,0.818-0.934,1.843-0.934,3.074
		c0,1.257,0.307,2.283,0.924,3.089c0.615,0.806,1.41,1.211,2.381,1.211c0.957,0,1.746-0.408,2.371-1.219
		c0.623-0.814,0.936-1.841,0.936-3.081c0-1.227-0.316-2.249-0.951-3.07C45.873,52.435,45.088,52.024,44.148,52.024z"/>
	<path d="M38.434,48.182c2.826-2.895,6.283-2.661,9.566-2.581l6.4-0.018v-29.26L42.451,4H13.333c-2.062,0-3.731,1.671-3.731,3.734
		v48.533c0,2.063,1.67,3.732,3.731,3.732h22.175C34.438,54.5,34.838,51.862,38.434,48.182z"/>
	<polygon points="58.924,56.504 63.596,49.367 59.582,49.367 55.584,56.014 55.584,49.367 52.176,49.367 52.176,64 55.584,64 
		55.584,57.433 59.701,64 64,64 	"/>
	<path d="M48.941,50.896c-0.633-0.719-1.363-1.275-2.197-1.665c-0.83-0.392-1.695-0.583-2.594-0.583
		c-0.902,0-1.768,0.191-2.594,0.583c-0.824,0.39-1.553,0.946-2.18,1.665c-0.652,0.728-1.146,1.552-1.482,2.475
		s-0.504,1.908-0.504,2.953c0,1.04,0.168,2.023,0.504,2.949c0.336,0.925,0.83,1.751,1.482,2.48c0.627,0.718,1.355,1.271,2.18,1.663
		C42.383,63.804,43.248,64,44.15,64c0.893,0,1.752-0.196,2.578-0.584c0.832-0.39,1.568-0.945,2.213-1.663
		c0.639-0.728,1.125-1.55,1.459-2.471c0.334-0.92,0.5-1.905,0.5-2.959c0-1.045-0.168-2.032-0.504-2.958
		C50.059,52.439,49.574,51.614,48.941,50.896z M46.521,59.404c-0.625,0.811-1.414,1.219-2.371,1.219
		c-0.971,0-1.766-0.405-2.381-1.211c-0.617-0.806-0.924-1.832-0.924-3.089c0-1.231,0.311-2.256,0.934-3.074
		c0.625-0.816,1.416-1.225,2.369-1.225c0.939,0,1.725,0.41,2.357,1.229c0.635,0.821,0.951,1.844,0.951,3.07
		C47.457,57.563,47.145,58.59,46.521,59.404z"/>
</g>
</svg>
