<?xml version="1.0" encoding="utf-8"?>
<!-- Generator: Adobe Illustrator 14.0.0, SVG Export Plug-In . SVG Version: 6.00 Build 43363)  -->
<!DOCTYPE svg PUBLIC "-//W3C//DTD SVG 1.1//EN" "http://www.w3.org/Graphics/SVG/1.1/DTD/svg11.dtd">
<svg version="1.1" id="Capa_1" xmlns="http://www.w3.org/2000/svg" xmlns:xlink="http://www.w3.org/1999/xlink" x="0px" y="0px"
	 width="64px" height="64px" viewBox="0 0 64 64" enable-background="new 0 0 64 64" xml:space="preserve">
<g id="doc-reload-cancel">
	<path d="M37.252,48.559l10.975-10.975l5.977,5.975l0.465-0.463v-26.85L42.938,3.926H14.337c-2.027,0-3.669,1.671-3.669,3.733
		v48.532c0,2.063,1.642,3.734,3.669,3.734H36.84l5.785-5.676L37.252,48.559z M30.279,23.169h7.354v-1.791l7.744,4.11l-7.744,4.113
		v-1.793h-7.354c-3.412,0-6.181,2.817-6.181,6.292h-4.557C19.542,28.065,24.347,23.169,30.279,23.169z M26.688,44.117v1.793
		l-7.223-4.113l7.221-4.111v1.791h7.354c3.414,0,6.184-2.816,6.184-6.293h4.555c0,6.037-4.805,10.934-10.736,10.934H26.688z"/>
	<polygon points="58.768,53.537 63.998,48.307 58.768,43.076 53.537,48.307 48.307,43.076 43.076,48.307 48.307,53.537 
		43.076,58.77 48.307,64 53.539,58.77 58.768,64 64,58.77 	"/>
</g>
</svg>
