<?xml version="1.0" encoding="utf-8"?>
<!-- Generator: Adobe Illustrator 14.0.0, SVG Export Plug-In . SVG Version: 6.00 Build 43363)  -->
<!DOCTYPE svg PUBLIC "-//W3C//DTD SVG 1.1//EN" "http://www.w3.org/Graphics/SVG/1.1/DTD/svg11.dtd">
<svg version="1.1" id="Capa_1" xmlns="http://www.w3.org/2000/svg" xmlns:xlink="http://www.w3.org/1999/xlink" x="0px" y="0px"
	 width="64px" height="64px" viewBox="0 0 64 64" enable-background="new 0 0 64 64" xml:space="preserve">
<path d="M42.451,4H13.333C11.271,4,9.6,5.671,9.6,7.733v48.534C9.6,58.329,11.271,60,13.333,60h37.333
	c2.063,0,3.734-1.671,3.734-3.734V16.319L42.451,4z M38.137,24.104c0,0.239-0.195,0.434-0.436,0.434h-2.387
	c-3.299,0-6.123,2.04-7.289,4.923h4.625c0.334,0,0.604,0.292,0.604,0.653v0.977c0,0.359-0.27,0.651-0.604,0.651l-5.164,0.001
	c-0.018,0.219-0.027,0.439-0.027,0.663c0,0.223,0.008,0.444,0.027,0.663h5.1c0.334,0,0.605,0.293,0.605,0.652v0.979
	c0,0.359-0.271,0.65-0.605,0.65h-4.561c1.166,2.883,3.99,4.924,7.289,4.924h2.387c0.242,0,0.436,0.195,0.436,0.434v2.788
	c0,0.241-0.195,0.437-0.436,0.437c0,0-2.963,0.008-3.002,0c-5.074-0.269-9.281-3.83-10.531-8.582h-2.938
	c-0.334,0-0.604-0.291-0.604-0.65v-0.979c0-0.359,0.271-0.65,0.604-0.65h2.579c-0.016-0.221-0.02-0.441-0.02-0.664
	c0-0.224,0.004-0.444,0.02-0.663l-2.515-0.001c-0.334,0-0.605-0.292-0.605-0.651v-0.977c0-0.361,0.271-0.653,0.605-0.653h2.874
	c1.25-4.753,5.457-8.313,10.531-8.579c0.039-0.011,3.002,0,3.002,0c0.242,0,0.436,0.193,0.436,0.435V24.104z"/>
</svg>
