<?xml version="1.0" encoding="utf-8"?>
<!-- Generator: Adobe Illustrator 14.0.0, SVG Export Plug-In . SVG Version: 6.00 Build 43363)  -->
<!DOCTYPE svg PUBLIC "-//W3C//DTD SVG 1.1//EN" "http://www.w3.org/Graphics/SVG/1.1/DTD/svg11.dtd">
<svg version="1.1" id="Capa_1" xmlns="http://www.w3.org/2000/svg" xmlns:xlink="http://www.w3.org/1999/xlink" x="0px" y="0px"
	 width="64px" height="64px" viewBox="0 0 64 64" enable-background="new 0 0 64 64" xml:space="preserve">
<g>
	<path d="M60.186,41.761c-5.09-5.089-13.336-5.089-18.424,0c-5.086,5.088-5.086,13.335,0,18.425c5.088,5.086,13.334,5.086,18.424,0
		C65.271,55.096,65.271,46.849,60.186,41.761z M59.268,51.297c0,0.9-0.729,1.63-1.629,1.63h-4.783v4.783
		c0,0.899-0.73,1.628-1.627,1.628h-0.51c-0.9,0-1.629-0.729-1.629-1.628v-4.783h-4.783c-0.898,0-1.627-0.729-1.627-1.63v-0.508
		c0-0.899,0.729-1.629,1.627-1.629h4.783v-4.781c0-0.9,0.73-1.631,1.629-1.631h0.51c0.898,0,1.627,0.73,1.627,1.631v4.781h4.783
		c0.9,0,1.629,0.73,1.629,1.629V51.297z"/>
	<path d="M39,39.001c4.186-4.185,10.01-5.713,15.4-4.604V16.319L42.451,4H13.333C11.272,4,9.6,5.672,9.6,7.732v48.534
		C9.6,58.327,11.272,60,13.333,60H36.66C32.527,53.455,33.299,44.704,39,39.001z"/>
</g>
</svg>
