<?xml version="1.0" encoding="utf-8"?>
<!-- Generator: Adobe Illustrator 14.0.0, SVG Export Plug-In . SVG Version: 6.00 Build 43363)  -->
<!DOCTYPE svg PUBLIC "-//W3C//DTD SVG 1.1//EN" "http://www.w3.org/Graphics/SVG/1.1/DTD/svg11.dtd">
<svg version="1.1" id="Capa_1" xmlns="http://www.w3.org/2000/svg" xmlns:xlink="http://www.w3.org/1999/xlink" x="0px" y="0px"
	 width="64px" height="64px" viewBox="0 0 64 64" enable-background="new 0 0 64 64" xml:space="preserve">
<path id="doc_pdf_download" d="M50.667,60H13.333C11.272,60,9.6,58.328,9.6,56.267V7.733C9.6,5.672,11.272,4,13.333,4h29.122
	L54.4,16.319v39.948C54.4,58.328,52.729,60,50.667,60z M24.533,21.079c-3.111,0-6.223,0-9.333,0c0,4.356,0,8.712,0,13.066
	c1.243,0,2.489,0,3.733,0c0-1.866,0-3.733,0-5.6c1.868,0,3.733,0,5.6,0C24.533,26.057,24.533,23.569,24.533,21.079z M37.526,22.948
	l-1.864,0.003l0.014-1.872c0,0-6.166,0-9.275,0c0,4.356,0,8.712,0,13.066c4.262-0.071,9.303-0.103,9.303-0.103l-0.052-1.844
	l1.947,0.021L37.526,22.948z M38.123,40.105H25.424v3.864h-2.717c-0.388,0.388-0.388,1.019,0,1.405l8.431,8.429
	c0.387,0.388,1.018,0.388,1.404,0l8.43-8.429c0.39-0.389,0.39-1.018,0-1.405h-2.849V40.105L38.123,40.105z M48.801,21.079
	c-3.113,0-6.225,0-9.334,0c0,4.356,0,8.712,0,13.066c1.242,0,2.488,0,3.732,0c0-1.866,0-3.733,0-5.6
	c0.009,0.013,3.638,0.016,3.638,0.016l-0.021-1.882c0,0-3.599,0-3.617,0c0-1.243,0-2.488,0-3.733c1.868,0,3.734,0,5.602,0
	C48.801,22.323,48.801,21.702,48.801,21.079z M30.133,22.945c1.243,0,2.488,0,3.733,0c0,3.112,0,6.224,0,9.333
	c-1.245,0-2.49,0-3.733,0C30.133,29.169,30.133,26.057,30.133,22.945z M18.933,22.945c0.622,0,1.246,0,1.868,0
	c0,1.245,0,2.491,0,3.733c-0.621,0-1.245,0-1.868,0C18.933,25.436,18.933,24.191,18.933,22.945z"/>
</svg>
