<?xml version="1.0" encoding="utf-8"?>
<!-- Generator: Adobe Illustrator 14.0.0, SVG Export Plug-In . SVG Version: 6.00 Build 43363)  -->
<!DOCTYPE svg PUBLIC "-//W3C//DTD SVG 1.1//EN" "http://www.w3.org/Graphics/SVG/1.1/DTD/svg11.dtd">
<svg version="1.1" id="Capa_1" xmlns="http://www.w3.org/2000/svg" xmlns:xlink="http://www.w3.org/1999/xlink" x="0px" y="0px"
	 width="64px" height="64px" viewBox="0 0 64 64" enable-background="new 0 0 64 64" xml:space="preserve">
<path id="doc_pdf" d="M50.666,60H13.333C11.272,60,9.6,58.328,9.6,56.267V7.733C9.6,5.672,11.272,4,13.333,4h29.123L54.4,16.319
	v39.948C54.4,58.328,52.729,60,50.666,60z M24.533,24.635c-3.111,0-6.222,0-9.333,0c0,4.356,0,8.713,0,13.066
	c1.244,0,2.49,0,3.734,0c0-1.866,0-3.733,0-5.601c1.867,0,3.733,0,5.6,0C24.533,29.612,24.533,27.125,24.533,24.635z M37.525,26.504
	l-1.863,0.002l0.013-1.872c0,0-6.166,0-9.274,0c0,4.356,0,8.713,0,13.066c4.262-0.071,9.302-0.103,9.302-0.103l-0.053-1.844
	l1.949,0.021L37.525,26.504z M48.799,24.635c-3.111,0-6.225,0-9.334,0c0,4.356,0,8.713,0,13.066c1.243,0,2.488,0,3.733,0
	c0-1.866,0-3.733,0-5.601c0.01,0.013,3.637,0.017,3.637,0.017l-0.02-1.882c0,0-3.598,0-3.616,0c0-1.243,0-2.488,0-3.733
	c1.868,0,3.734,0,5.602,0C48.799,25.879,48.799,25.258,48.799,24.635z M29.439,25.752c1.401,0,2.806,0,4.212,0
	c0,3.509,0,7.02,0,10.527c-1.406,0-2.811,0-4.212,0C29.439,32.771,29.439,29.261,29.439,25.752z M18.933,26.5
	c0.622,0,1.245,0,1.867,0c0,1.245,0,2.49,0,3.733c-0.621,0-1.244,0-1.867,0C18.933,28.991,18.933,27.747,18.933,26.5z"/>
</svg>
