<?xml version="1.0" encoding="utf-8"?>
<!-- Generator: Adobe Illustrator 14.0.0, SVG Export Plug-In . SVG Version: 6.00 Build 43363)  -->
<!DOCTYPE svg PUBLIC "-//W3C//DTD SVG 1.1//EN" "http://www.w3.org/Graphics/SVG/1.1/DTD/svg11.dtd">
<svg version="1.1" id="Capa_1" xmlns="http://www.w3.org/2000/svg" xmlns:xlink="http://www.w3.org/1999/xlink" x="0px" y="0px"
	 width="64px" height="64px" viewBox="0 0 64 64" enable-background="new 0 0 64 64" xml:space="preserve">
<path fill-rule="evenodd" clip-rule="evenodd" d="M55.091,53.381h-8.553v5.131c0,1.89-1.531,3.421-3.421,3.421H8.909
	c-1.891,0-3.421-1.531-3.421-3.421V14.039c0-1.889,1.53-3.419,3.421-3.419h8.552V5.487c0-1.889,1.531-3.419,3.421-3.419h23.946
	l13.684,13.684V49.96C58.512,51.849,56.979,53.381,55.091,53.381z M12.329,15.751c-0.944,0-1.711,0.765-1.711,1.71v37.629
	c0,0.943,0.767,1.711,1.711,1.711h27.367c0.945,0,1.711-0.768,1.711-1.711v-0.32l0,0V35.207v-9.193L31.145,15.751H12.329z
	 M53.381,17.461L43.117,7.199H24.302c-0.944,0-1.71,0.765-1.71,1.71v1.71h10.263l13.684,13.684v23.946h5.132
	c0.946,0,1.711-0.767,1.711-1.71V17.461z M32.821,32.016h3.161c0.429,0.491,0.429,1.284,0,1.774l-9.35,10.646
	c-0.429,0.49-1.128,0.49-1.557,0L15.728,33.79c-0.431-0.49-0.431-1.283,0-1.774h3.012H32.821z"/>
</svg>
