<?xml version="1.0" encoding="utf-8"?>
<!-- Generator: Adobe Illustrator 14.0.0, SVG Export Plug-In . SVG Version: 6.00 Build 43363)  -->
<!DOCTYPE svg PUBLIC "-//W3C//DTD SVG 1.1//EN" "http://www.w3.org/Graphics/SVG/1.1/DTD/svg11.dtd">
<svg version="1.1" id="Capa_1" xmlns="http://www.w3.org/2000/svg" xmlns:xlink="http://www.w3.org/1999/xlink" x="0px" y="0px"
	 width="64px" height="64px" viewBox="0 0 64 64" enable-background="new 0 0 64 64" xml:space="preserve">
<path id="doc_ztats" d="M50.667,60H13.333C11.272,60,9.6,58.33,9.6,56.268V7.734C9.6,5.672,11.272,4,13.333,4h29.12L54.4,16.321
	v39.946C54.4,58.33,52.728,60,50.667,60z M27.45,31.752c0-0.898-0.727-1.625-1.625-1.625H24.2c-0.899,0-1.627,0.727-1.627,1.625
	v9.753h4.876V31.752z M33.951,21.998c0-0.898-0.728-1.625-1.625-1.625H30.7c-0.896,0-1.624,0.727-1.624,1.625v19.507h4.875V21.998z
	 M40.455,26.875c0-0.897-0.728-1.625-1.625-1.625h-1.627c-0.897,0-1.625,0.728-1.625,1.625v14.63h4.877V26.875z M43.705,43.132
	H19.321v1.625h24.384V43.132z"/>
</svg>
