<?xml version="1.0" encoding="utf-8"?>
<!-- Generator: Adobe Illustrator 14.0.0, SVG Export Plug-In . SVG Version: 6.00 Build 43363)  -->
<!DOCTYPE svg PUBLIC "-//W3C//DTD SVG 1.1//EN" "http://www.w3.org/Graphics/SVG/1.1/DTD/svg11.dtd">
<svg version="1.1" id="Capa_1" xmlns="http://www.w3.org/2000/svg" xmlns:xlink="http://www.w3.org/1999/xlink" x="0px" y="0px"
	 width="64px" height="64px" viewBox="0 0 64 64" enable-background="new 0 0 64 64" xml:space="preserve">
<path id="doc_group_check" d="M60.27,50.668h-3.064v5.594c0,2.061-1.67,3.732-3.732,3.732H16.167c-2.06,0-3.731-1.67-3.731-3.732
	V7.769c0-2.061,1.671-3.732,3.731-3.732h7.481V3.732c0-2.06,1.671-3.732,3.732-3.732h26.113L64,10.631v36.304
	C64,48.998,62.328,50.668,60.27,50.668z M20.704,32.114l-2.809,2.765c-1.033,1.019-1.033,2.671,0,3.689l6.469,6.37l0.167,0.18
	l2.807,2.767c1.034,1.018,2.709,1.018,3.745,0L51.68,27.602c1.031-1.021,1.031-2.671,0-3.69l-2.811-2.766
	c-1.033-1.019-2.707-1.019-3.744,0L29.222,36.809l-4.771-4.694C23.415,31.092,21.739,31.092,20.704,32.114z M51.543,2.542L28,2.531
	c-1.031,0-1.755,1.438-1.755,2.469V4.036h19.022l11.939,12.311v31.727h1.334c1.029,0,2.959-0.237,2.863-1.866V12.498L51.543,2.542z"
	/>
</svg>
