<?xml version="1.0" encoding="utf-8"?>
<!-- Generator: Adobe Illustrator 14.0.0, SVG Export Plug-In . SVG Version: 6.00 Build 43363)  -->
<!DOCTYPE svg PUBLIC "-//W3C//DTD SVG 1.1//EN" "http://www.w3.org/Graphics/SVG/1.1/DTD/svg11.dtd">
<svg version="1.1" id="Capa_1" xmlns="http://www.w3.org/2000/svg" xmlns:xlink="http://www.w3.org/1999/xlink" x="0px" y="0px"
	 width="64px" height="64px" viewBox="0 0 64 64" enable-background="new 0 0 64 64" xml:space="preserve">
<g>
	<path d="M28.68,39.576l-1.312-3.111c1.418-1.729,3.119-3.215,5.038-4.384l2.875,1.756c0.905-0.441,1.858-0.8,2.846-1.072
		l0.994-3.223c1.142-0.205,2.311-0.317,3.51-0.317c1.077,0,2.132,0.09,3.16,0.253l1.082,3.208c0.971,0.253,1.907,0.595,2.801,1.008
		l1.097-0.706V16.319L38.841,4H9.722C7.661,4,5.989,5.672,5.989,7.732v48.536c0,2.061,1.672,3.731,3.733,3.731h16.639
		c-0.826-1.211-1.534-2.508-2.079-3.892l1.4-1.584c0.02-0.041,0.039-0.091,0.059-0.123c0.025-0.012,0.051-0.023,0.076-0.037
		c0-0.023,0-0.051,0-0.074c0.037-0.025,0.074-0.051,0.113-0.076c0-0.025,0-0.051,0-0.076c0.037-0.025,0.074-0.051,0.112-0.076
		c0-0.022,0-0.049,0-0.074c0.039-0.022,0.074-0.051,0.111-0.075c0-0.022,0-0.052,0-0.074c0.025-0.015,0.051-0.022,0.076-0.037
		c0-0.024,0-0.053,0-0.073c0.025-0.017,0.051-0.025,0.077-0.039c0.013-0.039,0.025-0.076,0.037-0.115
		c0.034-0.021,0.069-0.046,0.101-0.066c-0.239-0.849-0.417-1.719-0.517-2.615l-2.99-1.534c-0.001-0.143-0.011-0.285-0.011-0.43
		c0-2.188,0.363-4.289,1.021-6.252l1.721-0.261c0-0.004,0-0.01,0-0.014c0.031,0,0.06,0,0.089,0l0.024-0.004c0-0.012,0-0.022,0-0.035
		c0.263-0.051,0.527-0.1,0.788-0.15c0-0.012,0-0.025,0-0.037c0.051,0,0.102,0,0.152,0c0-0.014,0-0.025,0-0.037
		c0.05,0,0.101,0,0.151,0c0-0.016,0-0.025,0-0.039c0.049,0,0.098,0,0.148,0c0-0.014,0-0.025,0-0.039c0.1-0.01,0.2-0.021,0.298-0.032
		C27.708,41.169,28.157,40.347,28.68,39.576z"/>
	<path d="M58.011,48.803c0-0.001,0-0.004,0-0.006c0-1.846-0.325-3.613-0.92-5.252l-2.589-0.327
		c-0.315-0.664-0.685-1.298-1.103-1.895l0.967-2.465c-1.138-1.341-2.501-2.486-4.032-3.373l-2.206,1.421
		c-0.697-0.323-1.429-0.59-2.186-0.787l-0.845-2.505c-0.804-0.128-1.627-0.198-2.468-0.198c-0.936,0-1.849,0.088-2.74,0.248
		l-0.775,2.516c-0.771,0.213-1.516,0.493-2.223,0.838l-2.244-1.371c-1.497,0.912-2.825,2.072-3.933,3.423l1.024,2.429
		c-0.432,0.637-0.805,1.316-1.118,2.028l-2.576,0.39c-0.513,1.532-0.796,3.174-0.796,4.881c0,0.113,0.007,0.225,0.009,0.336
		l2.333,1.198c0.083,0.731,0.227,1.443,0.428,2.137l-1.712,1.936c0.665,1.69,1.616,3.236,2.8,4.573l2.543-0.579
		c0.494,0.464,1.021,0.89,1.579,1.271l-0.064,2.575c1.566,0.871,3.297,1.478,5.138,1.757l1.569-2.067
		c0.253,0.015,0.504,0.022,0.76,0.022c0.395,0,0.786-0.019,1.172-0.054l1.613,2.021c1.834-0.335,3.557-0.995,5.102-1.92
		l-0.128-2.588c0.521-0.382,1.015-0.801,1.474-1.256l2.556,0.516c1.156-1.382,2.078-2.968,2.697-4.699l-1.764-1.9
		c0.166-0.652,0.281-1.326,0.348-2.012L58.011,48.803z M42.63,53.914c-2.876,0-5.207-2.329-5.207-5.205
		c0-2.877,2.331-5.206,5.207-5.206c2.877,0,5.207,2.329,5.207,5.206C47.837,51.585,45.507,53.914,42.63,53.914z"/>
</g>
</svg>
