<?xml version="1.0" encoding="utf-8"?>
<!-- Generator: Adobe Illustrator 14.0.0, SVG Export Plug-In . SVG Version: 6.00 Build 43363)  -->
<!DOCTYPE svg PUBLIC "-//W3C//DTD SVG 1.1//EN" "http://www.w3.org/Graphics/SVG/1.1/DTD/svg11.dtd">
<svg version="1.1" id="Capa_1" xmlns="http://www.w3.org/2000/svg" xmlns:xlink="http://www.w3.org/1999/xlink" x="0px" y="0px"
	 width="64px" height="64px" viewBox="0 0 64 64" enable-background="new 0 0 64 64" xml:space="preserve">
<path d="M57.844,60H20.51c-2.062,0-3.733-1.672-3.733-3.732V36.619H4.021C2.904,36.619,2,35.752,2,34.684V13.876
	c0-1.068,0.904-1.934,2.021-1.934h12.756V7.731C16.777,5.67,18.448,4,20.51,4h29.12l11.947,12.319v39.947
	C61.577,58.328,59.904,60,57.844,60z M30.35,44.999l8.429,8.433c0.389,0.387,1.018,0.387,1.404,0l8.433-8.433
	c0.388-0.388,0.388-1.017,0-1.403h-2.853v-3.863H33.064v3.863H30.35C29.962,43.982,29.962,44.611,30.35,44.999z M51.785,16.42
	c0-1.236-1.002-2.239-2.238-2.239L5.939,14.199c-0.845,0-1.528,0.655-1.528,1.466v16.764c0,0.807,0.684,1.463,1.528,1.463
	l43.608,0.029c1.236,0,2.238-1.004,2.238-2.242V16.42z M40.172,17.28h2.941v12.002h7.318v2.456H40.171L40.172,17.28L40.172,17.28z
	 M33.414,20.265l-2.892,11.473h-2.835l-2.884-11.473v11.473h-2.735V17.162h4.406l2.646,9.945l2.615-9.945h4.416v14.576h-2.735
	L33.414,20.265L33.414,20.265z M16.029,31.738l-3.231-5.041l-3.241,5.041H6.025l4.982-7.605l-4.515-6.971h3.441l2.922,4.685
	l2.864-4.685h3.411l-4.534,7.079l4.981,7.497H16.029z"/>
</svg>
