<?xml version="1.0" encoding="utf-8"?>
<!-- Generator: Adobe Illustrator 14.0.0, SVG Export Plug-In . SVG Version: 6.00 Build 43363)  -->
<!DOCTYPE svg PUBLIC "-//W3C//DTD SVG 1.1//EN" "http://www.w3.org/Graphics/SVG/1.1/DTD/svg11.dtd">
<svg version="1.1" id="Capa_1" xmlns="http://www.w3.org/2000/svg" xmlns:xlink="http://www.w3.org/1999/xlink" x="0px" y="0px"
	 width="64px" height="64px" viewBox="0 0 64 64" enable-background="new 0 0 64 64" xml:space="preserve">
<path id="doc_unlink_warning" d="M30.45,52.25C25.034,52.209,25.909,60,25.909,60H13.034C10.971,60,9.3,58.33,9.3,56.268V7.734
	C9.3,5.672,10.971,4,13.034,4h29.121l11.945,12.321V52.25C54.101,52.25,30.534,52.125,30.45,52.25z M35.501,18.868
	c-2.488,0-4.98,0-7.467,0c0,6.221,0,12.444,0,18.667c2.486,0,4.979,0,7.467,0C35.501,31.313,35.501,25.089,35.501,18.868z
	 M35.501,41.268c-2.488,0-4.98,0-7.467,0c0,2.489,0,4.978,0,7.467c2.486,0,4.979,0,7.467,0
	C35.501,46.245,35.501,43.757,35.501,41.268z M58.655,64h-8.063c-1.615,0-2.963-1.332-3.269-3.098h-0.04v-3.609h0.04
	c0.306-1.768,1.653-3.1,3.269-3.1h8.063c1.841,0,4.045,1.729,4.045,3.858v2.09C62.701,62.274,60.496,64,58.655,64z M59.188,58.612
	c0-0.986-1.079-1.786-2.411-1.786h-4.306c-0.627,0-1.197,0.179-1.627,0.467v3.609c0.43,0.287,1,0.465,1.627,0.465h4.306
	c1.332,0,2.411-0.8,2.411-1.786V58.612z M44.021,60.987C43.688,62.712,42.36,64,40.771,64h-8.064c-1.841,0-4.044-1.726-4.044-3.858
	v-2.09c0-2.131,2.203-3.858,4.044-3.858h8.064c1.588,0,2.916,1.289,3.249,3.013V60.987L44.021,60.987z M40.517,57.292
	c-0.428-0.289-0.998-0.467-1.625-0.467h-4.306c-1.332,0-2.411,0.801-2.411,1.787v0.969c0,0.986,1.079,1.784,2.411,1.784h4.306
	c0.627,0,1.197-0.176,1.625-0.465V57.292z"/>
</svg>
