<?xml version="1.0" encoding="utf-8"?>
<!-- Generator: Adobe Illustrator 14.0.0, SVG Export Plug-In . SVG Version: 6.00 Build 43363)  -->
<!DOCTYPE svg PUBLIC "-//W3C//DTD SVG 1.1//EN" "http://www.w3.org/Graphics/SVG/1.1/DTD/svg11.dtd">
<svg version="1.1" id="Capa_1" xmlns="http://www.w3.org/2000/svg" xmlns:xlink="http://www.w3.org/1999/xlink" x="0px" y="0px"
	 width="64px" height="64px" viewBox="0 0 64 64" enable-background="new 0 0 64 64" xml:space="preserve">
<g id="doc_new_group">
	<path d="M47.276,0H21.163c-2.062,0-3.732,1.672-3.732,3.732v0.304H9.949c-2.061,0-3.731,1.672-3.731,3.732v48.493
		c0,2.063,1.672,3.732,3.731,3.732h21.868c-4.3-6.158-3.717-14.688,1.776-20.184c4.705-4.705,11.634-5.809,17.396-3.332V16.347
		L39.05,4.036H20.21c0.274-0.785,0.844-1.505,1.572-1.505l23.543,0.011l9.861,9.956v26.652c0.246,0.217,0.496,0.426,0.731,0.661
		c0.706,0.706,1.32,1.467,1.864,2.262V10.631L47.276,0z"/>
	<path d="M35.544,41.761c-5.086,5.088-5.086,13.335,0,18.425c5.088,5.086,13.334,5.086,18.424,0c5.086-5.09,5.086-13.337,0-18.425
		C48.878,36.672,40.632,36.672,35.544,41.761z M53.05,51.297c0,0.9-0.729,1.63-1.629,1.63h-4.783v4.783
		c0,0.899-0.73,1.628-1.627,1.628h-0.51c-0.9,0-1.629-0.729-1.629-1.628v-4.783h-4.783c-0.898,0-1.627-0.729-1.627-1.63v-0.508
		c0-0.899,0.729-1.629,1.627-1.629h4.783v-4.781c0-0.9,0.73-1.631,1.629-1.631h0.51c0.898,0,1.627,0.73,1.627,1.631v4.781h4.783
		c0.9,0,1.629,0.73,1.629,1.629V51.297z"/>
</g>
</svg>
