<?xml version="1.0" encoding="utf-8"?>
<!-- Generator: Adobe Illustrator 14.0.0, SVG Export Plug-In . SVG Version: 6.00 Build 43363)  -->
<!DOCTYPE svg PUBLIC "-//W3C//DTD SVG 1.1//EN" "http://www.w3.org/Graphics/SVG/1.1/DTD/svg11.dtd">
<svg version="1.1" id="Capa_1" xmlns="http://www.w3.org/2000/svg" xmlns:xlink="http://www.w3.org/1999/xlink" x="0px" y="0px"
	 width="64px" height="64px" viewBox="0 0 64 64" enable-background="new 0 0 64 64" xml:space="preserve">
<path d="M42.451,4H13.333C11.271,4,9.6,5.671,9.6,7.733v48.534C9.6,58.329,11.271,60,13.333,60h37.333
	c2.063,0,3.734-1.671,3.734-3.734V16.319L42.451,4z M20.801,30.133h1.807V26.4h1.867v-1.868h-1.809v-3.734h-1.865v-1.924h3.615
	v1.867h3.791V18.99h3.674v1.692h-1.748v3.792h-1.926v1.866h1.807v3.734h1.867v3.792c0,0,1.873-0.038,1.887,0.029
	c0.043,0.268-0.014,1.701-0.045,1.727c-0.037,0.025-3.367-0.007-3.59-0.007c-0.066,0,0.027-3.655,0.002-3.675
	c-0.059-0.04-1.811,0-1.811,0v-1.809h-3.908v1.749h-3.615V30.133z M40.039,45.375l-8.432,8.43c-0.389,0.387-1.018,0.387-1.404,0
	l-8.433-8.43c-0.386-0.389-0.386-1.018,0-1.404h2.716v-3.865h12.701v3.865h2.852C40.428,44.357,40.428,44.986,40.039,45.375z
	 M43.082,32h-9.217V18.934h3.615v11.2h5.602V32z"/>
</svg>
