<?xml version="1.0" encoding="utf-8"?>
<!-- Generator: Adobe Illustrator 14.0.0, SVG Export Plug-In . SVG Version: 6.00 Build 43363)  -->
<!DOCTYPE svg PUBLIC "-//W3C//DTD SVG 1.1//EN" "http://www.w3.org/Graphics/SVG/1.1/DTD/svg11.dtd">
<svg version="1.1" id="Capa_1" xmlns="http://www.w3.org/2000/svg" xmlns:xlink="http://www.w3.org/1999/xlink" x="0px" y="0px"
	 width="64px" height="64px" viewBox="0 0 64 64" enable-background="new 0 0 64 64" xml:space="preserve">
<path id="doc_log" d="M50.667,60H13.333c-2.063,0-3.732-1.672-3.732-3.732V7.733C9.601,5.671,11.271,4,13.333,4h29.121
	l11.945,12.318v39.947C54.399,58.328,52.729,60,50.667,60z M23.481,35.512h-5.601v-11.2h-3.614v13.066h9.215V35.512z M36.593,26.183
	h-1.863l0.012-1.871h-7.408v1.867h-1.867c0.058,0.059-0.014,9.271,0,9.273c0.12,0.03,1.807,0.021,1.807,0
	c0.014,0.05,0.031,1.834,0,1.897c-0.008,0.022,7.498-0.074,7.498-0.074l-0.049-1.848l1.945,0.023L36.593,26.183z M47.864,24.312
	c-3.109,0-6.219,0-9.332,0c0,4.354,0,8.712,0,13.066c1.244,0,2.49,0,3.732,0l5.563,0.017l-0.08-7.482l-3.613,0.06v1.69l1.881,0.079
	l-0.014,3.771h-3.736c0,0,0-8.089,0-9.333c1.867,0,3.736,0,5.602,0C47.864,25.558,47.864,24.933,47.864,24.312z M29.198,26.179
	c1.244,0,2.488,0,3.734,0c0,3.108,0,6.223,0,9.333c-1.246,0-2.49,0-3.734,0C29.198,32.401,29.198,29.287,29.198,26.179z"/>
</svg>
