<?xml version="1.0" encoding="utf-8"?>
<!-- Generator: Adobe Illustrator 14.0.0, SVG Export Plug-In . SVG Version: 6.00 Build 43363)  -->
<!DOCTYPE svg PUBLIC "-//W3C//DTD SVG 1.1//EN" "http://www.w3.org/Graphics/SVG/1.1/DTD/svg11.dtd">
<svg version="1.1" id="Capa_1" xmlns="http://www.w3.org/2000/svg" xmlns:xlink="http://www.w3.org/1999/xlink" x="0px" y="0px"
	 width="64px" height="64px" viewBox="0 0 64 64" enable-background="new 0 0 64 64" xml:space="preserve">
<path fill-rule="evenodd" clip-rule="evenodd" d="M54.143,50.665v5.564c0,2.049-1.66,3.71-3.71,3.71H13.336
	c-2.05,0-3.71-1.661-3.71-3.71V8c0-2.048,1.66-3.708,3.71-3.708h9.273l17.39-0.232L54.374,18.9L54.143,50.665z M48.578,20.985
	L37.448,9.855H17.045c-1.024,0-1.854,0.831-1.854,1.856V52.52c0,1.023,0.83,1.854,1.854,1.854h29.678
	c1.024,0,1.855-0.83,1.855-1.854v-0.348l0,0V20.985z M21.433,32.557H42.25v2.193H21.433V32.557z M21.433,27.541H42.25v2.193H21.433
	V27.541z M21.433,22.526H42.25v2.194H21.433V22.526z M39.023,40.438c0.529,0.533,0.529,1.394,0,1.925l-6.83,5.749
	c-0.532,0.532-1.394,0.532-1.925,0l-6.369-5.749c-0.531-0.531-0.531-1.392,0-1.925H39.023z"/>
</svg>
