<?xml version="1.0" encoding="utf-8"?>
<!-- Generator: Adobe Illustrator 14.0.0, SVG Export Plug-In . SVG Version: 6.00 Build 43363)  -->
<!DOCTYPE svg PUBLIC "-//W3C//DTD SVG 1.1//EN" "http://www.w3.org/Graphics/SVG/1.1/DTD/svg11.dtd">
<svg version="1.1" id="Capa_1" xmlns="http://www.w3.org/2000/svg" xmlns:xlink="http://www.w3.org/1999/xlink" x="0px" y="0px"
	 width="64px" height="64px" viewBox="0 0 64 64" enable-background="new 0 0 64 64" xml:space="preserve">
<path id="doc_resend" d="M50.668,60H13.334C11.272,60,9.6,58.328,9.6,56.267V7.733C9.6,5.672,11.272,4,13.334,4h29.121L54.4,16.319
	v39.948C54.4,58.328,52.729,60,50.668,60z M36.222,20.459v3.499h-7.905c-6.377,0-11.545,5.169-11.545,11.543
	c0,6.375,5.168,11.542,11.545,11.542h12.319v-4.897H28.316c-3.67,0-6.648-2.977-6.648-6.645c0-3.672,2.978-6.645,6.648-6.645h7.905
	v3.499l10.3-5.948L36.222,20.459z"/>
</svg>
