<?xml version="1.0" encoding="utf-8"?>
<!-- Generator: Adobe Illustrator 14.0.0, SVG Export Plug-In . SVG Version: 6.00 Build 43363)  -->
<!DOCTYPE svg PUBLIC "-//W3C//DTD SVG 1.1//EN" "http://www.w3.org/Graphics/SVG/1.1/DTD/svg11.dtd">
<svg version="1.1" id="Capa_1" xmlns="http://www.w3.org/2000/svg" xmlns:xlink="http://www.w3.org/1999/xlink" x="0px" y="0px"
	 width="64px" height="64px" viewBox="0 0 64 64" enable-background="new 0 0 64 64" xml:space="preserve">
<g id="doc_link">
	<path d="M23.676,56.731c0-3.253,2.362-4.887,5.17-4.887h24.81c0.132-0.145,0.267-0.281,0.411-0.408V16.322L42.116,4H12.999
		c-2.062,0-3.581,1.51-3.733,3.735v47.471c0,3.123,1.672,4.794,3.733,4.794h10.682c0-0.026-0.005-0.053-0.005-0.079V56.731z
		 M17.076,15.936h11.488v4.045H17.076V15.936z M17.065,23.636h29.004v4.045H17.065V23.636z M17.065,31.567h29.004v4.044H17.065
		V31.567z M17.065,40.055h29.004V44.1H17.065V40.055z"/>
	<path id="link_1_" d="M43.934,57.266h3.296c0.307-1.774,1.657-3.111,3.281-3.111h8.095c1.85,0,4.061,1.734,4.061,3.873v2.099
		c0,2.141-2.213,3.874-4.061,3.874h-8.095c-1.624,0-2.975-1.336-3.281-3.11h-3.296C43.627,62.664,42.275,64,40.652,64h-8.097
		c-1.847,0-4.06-1.733-4.06-3.874v-2.099c0-2.14,2.213-3.873,4.06-3.873h8.097C42.275,54.154,43.627,55.491,43.934,57.266z
		 M50.162,57.266h1.425c0.705,0,1.278,0.573,1.278,1.278v1.065c0,0.707-0.573,1.278-1.278,1.278h-1.425
		c0.431,0.291,1.001,0.469,1.63,0.469h4.324c1.337,0,2.421-0.804,2.421-1.794v-0.972c0-0.991-1.084-1.791-2.421-1.791h-4.324
		C51.163,56.8,50.593,56.975,50.162,57.266z M38.315,58.544c0-0.705,0.573-1.278,1.28-1.278h1.406
		C40.57,56.977,39.998,56.8,39.37,56.8h-4.323c-1.336,0-2.421,0.8-2.421,1.791v0.971c0,0.99,1.085,1.794,2.421,1.794h4.323
		c0.628,0,1.2-0.177,1.632-0.468h-1.406c-0.707,0-1.28-0.572-1.28-1.279V58.544z"/>
</g>
</svg>
