<?xml version="1.0" encoding="utf-8"?>
<!-- Generator: Adobe Illustrator 14.0.0, SVG Export Plug-In . SVG Version: 6.00 Build 43363)  -->
<!DOCTYPE svg PUBLIC "-//W3C//DTD SVG 1.1//EN" "http://www.w3.org/Graphics/SVG/1.1/DTD/svg11.dtd">
<svg version="1.1" id="Capa_1" xmlns="http://www.w3.org/2000/svg" xmlns:xlink="http://www.w3.org/1999/xlink" x="0px" y="0px"
	 width="64px" height="64px" viewBox="0 0 64 64" enable-background="new 0 0 64 64" xml:space="preserve">
<path id="doc_question" d="M50.668,60H13.334C11.271,60,9.6,58.327,9.6,56.265V7.733C9.6,5.671,11.271,4,13.334,4h26.133
	L54.4,18.933v37.332C54.4,58.327,52.729,60,50.668,60z M28.303,47.479h6.417v-6.166h-6.417V47.479z M39.002,17.895
	c-2.131-1.538-4.809-2.309-8.033-2.309c-2.454,0-4.523,0.54-6.208,1.624c-2.667,1.698-4.087,4.574-4.258,8.627h6.164
	c0-1.168,0.348-2.301,1.038-3.39c0.696-1.094,1.867-1.64,3.527-1.64c1.683,0,2.843,0.448,3.479,1.332
	c0.633,0.889,0.951,1.871,0.951,2.954c0,0.94-0.287,1.796-0.857,2.574c-0.316,0.462-0.73,0.878-1.242,1.267l-1.57,1.219
	c-1.544,1.207-2.501,2.27-2.877,3.194c-0.369,0.921-0.6,2.592-0.685,5.009h5.847c0.02-1.143,0.109-1.984,0.281-2.535
	c0.268-0.858,0.814-1.607,1.639-2.248l1.512-1.186c1.531-1.198,2.57-2.185,3.111-2.957c0.922-1.267,1.383-2.832,1.383-4.68
	C42.203,21.723,41.139,19.436,39.002,17.895z"/>
</svg>
