<?xml version="1.0" encoding="utf-8"?>
<!-- Generator: Adobe Illustrator 14.0.0, SVG Export Plug-In . SVG Version: 6.00 Build 43363)  -->
<!DOCTYPE svg PUBLIC "-//W3C//DTD SVG 1.1//EN" "http://www.w3.org/Graphics/SVG/1.1/DTD/svg11.dtd">
<svg version="1.1" id="Capa_1" xmlns="http://www.w3.org/2000/svg" xmlns:xlink="http://www.w3.org/1999/xlink" x="0px" y="0px"
	 width="64px" height="64px" viewBox="0 0 64 64" enable-background="new 0 0 64 64" xml:space="preserve">
<path id="doc_csv_download" d="M50.667,60H13.334C11.271,60,9.6,58.328,9.6,56.267V7.733C9.6,5.671,11.271,4,13.334,4h29.119
	l11.946,12.319v39.947C54.399,58.328,52.729,60,50.667,60z M17.758,22.626c0.664-0.761,1.527-1.141,2.59-1.141
	c0.703,0,1.302,0.21,1.799,0.63c0.495,0.425,0.84,1.052,1.036,1.887l2.049-0.317c-0.241-1.255-0.793-2.227-1.651-2.909
	c-0.859-0.684-1.963-1.024-3.315-1.024c-1.068,0-2.059,0.25-2.968,0.755c-0.91,0.502-1.587,1.26-2.033,2.267
	c-0.444,1.008-0.667,2.181-0.667,3.525c0,2.078,0.517,3.674,1.552,4.785c1.034,1.115,2.403,1.67,4.106,1.67
	c1.357,0,2.505-0.404,3.438-1.21c0.932-0.81,1.514-1.927,1.739-3.356l-2.073-0.271c-0.149,1.054-0.501,1.836-1.057,2.343
	c-0.554,0.508-1.244,0.762-2.073,0.762c-1.029,0-1.865-0.38-2.506-1.135c-0.64-0.759-0.96-1.973-0.96-3.645
	C16.763,24.591,17.095,23.388,17.758,22.626z M29.401,21.964c0.413-0.32,1.104-0.479,2.073-0.479c0.819,0,1.454,0.179,1.904,0.538
	c0.447,0.357,0.719,0.858,0.813,1.498l2.063-0.281c-0.134-0.803-0.375-1.445-0.727-1.927c-0.352-0.479-0.896-0.86-1.635-1.14
	c-0.736-0.281-1.594-0.422-2.571-0.422c-0.648,0-1.255,0.085-1.821,0.25c-0.567,0.169-1.013,0.373-1.34,0.615
	c-0.438,0.313-0.784,0.706-1.037,1.177c-0.255,0.472-0.381,0.984-0.381,1.541c0,0.608,0.153,1.165,0.462,1.667
	c0.309,0.505,0.76,0.898,1.359,1.183c0.598,0.287,1.669,0.624,3.215,1.014c1.147,0.289,1.866,0.527,2.154,0.714
	c0.415,0.274,0.622,0.648,0.622,1.125c0,0.531-0.236,0.994-0.703,1.387c-0.469,0.396-1.188,0.593-2.155,0.593
	c-0.96,0-1.711-0.222-2.245-0.667c-0.533-0.446-0.859-1.086-0.978-1.92l-2.086,0.327c0.235,1.32,0.774,2.315,1.624,2.986
	c0.847,0.673,2.078,1.008,3.694,1.008c0.977,0,1.851-0.169,2.623-0.51c0.774-0.339,1.364-0.819,1.775-1.44
	c0.41-0.621,0.615-1.284,0.615-1.985c0-0.718-0.169-1.32-0.504-1.805c-0.335-0.483-0.799-0.854-1.389-1.107
	c-0.592-0.252-1.63-0.579-3.122-0.977c-1.028-0.282-1.65-0.461-1.861-0.538c-0.368-0.148-0.638-0.337-0.809-0.565
	c-0.171-0.217-0.257-0.462-0.257-0.736C28.782,22.66,28.986,22.287,29.401,21.964z M37.748,39.359H25.049v3.863h-2.715
	c-0.389,0.389-0.389,1.017,0,1.406l8.43,8.429c0.387,0.387,1.018,0.387,1.405,0l8.43-8.429c0.39-0.391,0.39-1.019,0-1.406h-2.851
	V39.359L37.748,39.359z M47.194,20.032l-2.766,7.589c-0.335,0.922-0.597,1.712-0.784,2.365c-0.24-0.866-0.508-1.702-0.796-2.506
	l-2.672-7.449h-2.226l4.732,12.44h1.969l4.709-12.44H47.194z"/>
</svg>
