<?xml version="1.0" encoding="utf-8"?>
<!-- Generator: Adobe Illustrator 14.0.0, SVG Export Plug-In . SVG Version: 6.00 Build 43363)  -->
<!DOCTYPE svg PUBLIC "-//W3C//DTD SVG 1.1//EN" "http://www.w3.org/Graphics/SVG/1.1/DTD/svg11.dtd">
<svg version="1.1" id="Capa_1" xmlns="http://www.w3.org/2000/svg" xmlns:xlink="http://www.w3.org/1999/xlink" x="0px" y="0px"
	 width="64px" height="64px" viewBox="0 0 64 64" enable-background="new 0 0 64 64" xml:space="preserve">
<g id="doc_unlink">
	<path d="M23.71,56.731c0-3.253,2.362-4.887,5.17-4.887h24.81c0.132-0.145,0.267-0.281,0.411-0.408V16.322L42.15,4H13.033
		C10.971,4,9.452,5.51,9.3,7.735v47.471C9.3,58.329,10.973,60,13.033,60h10.682c0-0.026-0.005-0.053-0.005-0.079V56.731z
		 M17.11,15.936h11.488v4.045H17.11V15.936z M17.1,23.636h29.004v4.045H17.1V23.636z M17.1,31.567h29.004v4.044H17.1V31.567z
		 M17.1,40.055h29.004V44.1H17.1V40.055z"/>
	<path id="unlink_1_" d="M58.655,64h-8.063c-1.615,0-2.963-1.332-3.269-3.098h-0.04v-3.609h0.04c0.306-1.768,1.653-3.1,3.269-3.1
		h8.063c1.841,0,4.045,1.729,4.045,3.858v2.09C62.701,62.274,60.496,64,58.655,64z M59.188,58.612c0-0.986-1.079-1.786-2.411-1.786
		h-4.306c-0.627,0-1.197,0.179-1.627,0.467v3.609c0.43,0.287,1,0.465,1.627,0.465h4.306c1.332,0,2.411-0.8,2.411-1.786V58.612z
		 M44.021,60.987C43.688,62.712,42.36,64,40.771,64h-8.064c-1.841,0-4.044-1.726-4.044-3.858v-2.09c0-2.131,2.203-3.858,4.044-3.858
		h8.064c1.588,0,2.916,1.289,3.249,3.013V60.987L44.021,60.987z M40.517,57.292c-0.428-0.289-0.998-0.467-1.625-0.467h-4.306
		c-1.332,0-2.411,0.801-2.411,1.787v0.969c0,0.986,1.079,1.784,2.411,1.784h4.306c0.627,0,1.197-0.176,1.625-0.465V57.292z"/>
</g>
</svg>
