<?xml version="1.0" encoding="utf-8"?>
<!-- Generator: Adobe Illustrator 14.0.0, SVG Export Plug-In . SVG Version: 6.00 Build 43363)  -->
<!DOCTYPE svg PUBLIC "-//W3C//DTD SVG 1.1//EN" "http://www.w3.org/Graphics/SVG/1.1/DTD/svg11.dtd">
<svg version="1.1" id="Capa_1" xmlns="http://www.w3.org/2000/svg" xmlns:xlink="http://www.w3.org/1999/xlink" x="0px" y="0px"
	 width="64px" height="64px" viewBox="0 0 64 64" enable-background="new 0 0 64 64" xml:space="preserve">
<g>
	<path fill-rule="evenodd" clip-rule="evenodd" d="M57.421,32.848l-2.014,2.013l-5.032-5.031l-0.001-0.001l2.014-2.013
		c1.111-1.112,2.914-1.112,4.025,0l1.008,1.006C58.532,29.935,58.532,31.736,57.421,32.848z M50.374,29.828L50.374,29.828
		L50.374,29.828L50.374,29.828z M40.309,49.959l-5.033-5.032l14.06-14.06H49.4l5,5L40.309,49.959z M31.249,54.13l3.146-8.07
		l4.788,4.787L31.249,54.13z M21.098,39.777v-5.072h8.654v5.072H21.098z M21.098,16.828h23.269v5.073H21.098V16.828z M44.366,30.839
		H21.098v-5.072h23.269V30.839z M14.319,8.526l-0.006,46.939l35.921-0.011l-0.077-12.09l4.571-4.8v20.012
		c0,0.786-0.638,1.423-1.424,1.423H11.169c-0.786,0-1.424-0.637-1.424-1.423V5.424C9.745,4.638,10.383,4,11.169,4h36.163
		l-2.657,4.521L14.319,8.526z"/>
</g>
</svg>
