<?xml version="1.0" encoding="utf-8"?>
<!-- Generator: Adobe Illustrator 14.0.0, SVG Export Plug-In . SVG Version: 6.00 Build 43363)  -->
<!DOCTYPE svg PUBLIC "-//W3C//DTD SVG 1.1//EN" "http://www.w3.org/Graphics/SVG/1.1/DTD/svg11.dtd">
<svg version="1.1" id="Capa_1" xmlns="http://www.w3.org/2000/svg" xmlns:xlink="http://www.w3.org/1999/xlink" x="0px" y="0px"
	 width="64px" height="64px" viewBox="0 0 64 64" enable-background="new 0 0 64 64" xml:space="preserve">
<path d="M42.451,4H13.333C11.271,4,9.6,5.671,9.6,7.733v48.534C9.6,58.329,11.271,60,13.333,60h37.333
	c2.063,0,3.734-1.671,3.734-3.734V16.319L42.451,4z M33.723,41.016c-0.037,0.024-3.367-0.008-3.59-0.008
	c-0.066,0,0.027-3.713,0.002-3.732c-0.059-0.041-1.811,0-1.811,0v-1.81h-3.908v1.75h-3.615v-1.75h1.807v-3.732h1.867v-1.866h-1.809
	v-3.734h-1.865v-1.924h3.615v1.867h3.791v-1.751h3.674v1.692h-1.748v3.792h-1.926v1.866h1.807v3.733h1.867v3.792
	c0,0,1.873-0.039,1.887,0.027C33.811,39.498,33.754,40.99,33.723,41.016z M43.082,37.334h-9.217V24.268h3.615v11.199h5.602V37.334z"
	/>
</svg>
