<?xml version="1.0" encoding="utf-8"?>
<!-- Generator: Adobe Illustrator 14.0.0, SVG Export Plug-In . SVG Version: 6.00 Build 43363)  -->
<!DOCTYPE svg PUBLIC "-//W3C//DTD SVG 1.1//EN" "http://www.w3.org/Graphics/SVG/1.1/DTD/svg11.dtd">
<svg version="1.1" id="Capa_1" xmlns="http://www.w3.org/2000/svg" xmlns:xlink="http://www.w3.org/1999/xlink" x="0px" y="0px"
	 width="64px" height="64px" viewBox="0 0 64 64" enable-background="new 0 0 64 64" xml:space="preserve">
<path d="M53.494,0H27.381c-2.062,0-3.732,1.672-3.732,3.732v0.304h-7.481c-2.061,0-3.731,1.672-3.731,3.732v48.493
	c0,2.063,1.672,3.732,3.731,3.732h37.306c2.063,0,3.732-1.672,3.732-3.732v-5.594h3.064c2.059,0,3.73-1.67,3.73-3.732V10.631
	L53.494,0z M61.404,46.207c0.096,1.629-1.834,1.866-2.863,1.866h-1.334V16.347L45.268,4.036h-18.84c-0.114,0.326-0.183,0-0.183,0
	h0.183C26.702,3.251,27.271,2.531,28,2.531l23.543,0.011l9.861,9.956V46.207z"/>
</svg>
