<?xml version="1.0" encoding="utf-8"?>
<!-- Generator: Adobe Illustrator 14.0.0, SVG Export Plug-In . SVG Version: 6.00 Build 43363)  -->
<!DOCTYPE svg PUBLIC "-//W3C//DTD SVG 1.1//EN" "http://www.w3.org/Graphics/SVG/1.1/DTD/svg11.dtd">
<svg version="1.1" id="Capa_1" xmlns="http://www.w3.org/2000/svg" xmlns:xlink="http://www.w3.org/1999/xlink" x="0px" y="0px"
	 width="64px" height="64px" viewBox="0 0 64 64" enable-background="new 0 0 64 64" xml:space="preserve">
<g>
	<path fill-rule="evenodd" clip-rule="evenodd" d="M61.955,25.42h-6.221c-0.185,3.861-0.503,11.027-0.503,21.46
		c0,0.531-0.731,1.555-1.528,1.555c-1.194,0-1.719-1.076-1.719-1.57c0-1.471,0-7.637,0-8.355c0-0.795,0.025-1.182-0.175-1.182
		c-0.197,0-0.224,0.387-0.224,1.182c0,0.68,0,6.922,0,8.355c0,0.795-0.498,1.494-1.693,1.494c-1.199,0-1.623-0.852-1.623-1.648
		c0-0.135-0.095-21.372-0.146-21.291h-6.585c-0.145,3.523-0.238,10.15-0.238,21.46c0,0.531-0.731,1.555-1.528,1.555
		c-1.194,0-1.719-1.076-1.719-1.57c0-1.471,0-7.637,0-8.355c0-0.795,0.025-1.182-0.175-1.182c-0.197,0-0.224,0.387-0.224,1.182
		c0,0.68,0,6.922,0,8.355c0,0.795-0.498,1.494-1.693,1.494c-1.198,0-1.623-0.852-1.623-1.648c0-12.857-0.053-21.181-0.146-21.291
		h-5.786c0.056,0.173,2.953,12.125,2.953,12.125h-3.191c0,0,0,6.383,0,9.574c0,0.531-0.312,1.584-1.372,1.584
		c-1.172,0-1.421-1.088-1.421-1.584c0-1.475,0-7.658,0-8.379c0-0.797,0.026-1.184-0.175-1.184c-0.198,0-0.224,0.387-0.224,1.184
		c0,0.684,0,6.941,0,8.379c0,0.799-0.375,1.607-1.434,1.607c-1.085,0-1.359-0.809-1.359-1.607c0-0.932,0-9.574,0-9.574h-3.192
		c0,0,2.832-11.937,2.861-12.125h-7.377c0.121,0.21,2.953,12.125,2.953,12.125h-3.191c0,0,0,6.383,0,9.574
		c0,0.531-0.312,1.584-1.372,1.584c-1.172,0-1.421-1.088-1.421-1.584c0-1.475,0-7.658,0-8.379c0-0.797,0.026-1.184-0.175-1.184
		c-0.197,0-0.224,0.387-0.224,1.184c0,0.684,0,6.941,0,8.379c0,0.799-0.375,1.607-1.434,1.607c-1.084,0-1.359-0.809-1.359-1.607
		c0-0.932,0-9.574,0-9.574H5.062c0,0,2.832-11.937,2.861-12.125H2.045C0.436,25.42,0,24.722,0,23.861s0.436-1.559,2.045-1.559h59.91
		C63.566,22.302,64,23,64,23.861S63.566,25.42,61.955,25.42z M51.549,21.581c-1.592,0-3.097-1.465-3.097-3.057
		c0-1.591,1.583-3.25,3.174-3.25c1.592,0,3.136,1.621,3.136,3.212C54.762,20.077,53.141,21.581,51.549,21.581z M37.618,21.581
		c-1.591,0-3.096-1.465-3.096-3.057c0-1.591,1.582-3.25,3.173-3.25c1.592,0,3.136,1.621,3.136,3.212
		C40.831,20.077,39.21,21.581,37.618,21.581z M25.473,21.919c-1.596,0-3.104-1.469-3.104-3.065c0-1.595,1.587-3.259,3.182-3.259
		c1.597,0,3.144,1.624,3.144,3.22C28.693,20.411,27.068,21.919,25.473,21.919z M11.542,21.919c-1.596,0-3.104-1.469-3.104-3.065
		c0-1.595,1.587-3.259,3.182-3.259c1.597,0,3.144,1.624,3.144,3.22C14.763,20.411,13.138,21.919,11.542,21.919z"/>
</g>
</svg>
