<?xml version="1.0" encoding="utf-8"?>
<!-- Generator: Adobe Illustrator 14.0.0, SVG Export Plug-In . SVG Version: 6.00 Build 43363)  -->
<!DOCTYPE svg PUBLIC "-//W3C//DTD SVG 1.1//EN" "http://www.w3.org/Graphics/SVG/1.1/DTD/svg11.dtd">
<svg version="1.1" id="Capa_1" xmlns="http://www.w3.org/2000/svg" xmlns:xlink="http://www.w3.org/1999/xlink" x="0px" y="0px"
	 width="64px" height="64px" viewBox="0 0 64 64" enable-background="new 0 0 64 64" xml:space="preserve">
<g>
	<path fill-rule="evenodd" clip-rule="evenodd" d="M59.591,33.771c-1.188-2.017-4.591-3.79-9.409-5.065v-2.195
		c0,0,0.709-1.65,1.585-1.65h6.731c0.875,0,1.584,1.65,1.584,1.65s0.018,7.267-0.018,7.256
		C60.066,33.77,59.888,33.771,59.591,33.771z M55.094,23.94c-1.576,0-2.853-1.276-2.853-2.851s1.276-2.852,2.853-2.852
		c1.573,0,2.851,1.277,2.851,2.852S56.667,23.94,55.094,23.94z M38.731,26.883v-3.216c0,0,0.71-1.649,1.584-1.649h6.732
		c0.875,0,1.584,1.649,1.584,1.649s0.007,2.579,0.003,4.662C45.713,27.659,42.366,27.163,38.731,26.883z M43.643,21.096
		c-1.575,0-2.852-1.276-2.852-2.851c0-1.575,1.276-2.852,2.852-2.852c1.574,0,2.851,1.277,2.851,2.852
		C46.493,19.82,45.217,21.096,43.643,21.096z M32.006,26.62c-1.614,0-3.186,0.051-4.724,0.135V22.72c0,0,0.709-1.651,1.583-1.651
		h6.733c0.875,0,1.584,1.651,1.584,1.651s0.005,2.11,0.004,4.055C35.504,26.678,33.777,26.62,32.006,26.62z M32.192,20.149
		c-1.575,0-2.852-1.277-2.852-2.852c0-1.574,1.277-2.851,2.852-2.851s2.851,1.277,2.851,2.851
		C35.043,18.872,33.767,20.149,32.192,20.149z M15.418,23.667c0,0,0.709-1.649,1.584-1.649h6.732c0.875,0,1.584,1.649,1.584,1.649
		s0.003,1.548,0.003,3.214c-3.632,0.276-6.98,0.771-9.904,1.439V23.667z M20.329,21.096c-1.575,0-2.852-1.276-2.852-2.851
		c0-1.575,1.277-2.852,2.852-2.852c1.575,0,2.851,1.277,2.851,2.852C23.18,19.82,21.904,21.096,20.329,21.096z M4.443,33.724
		c-0.216,0-0.354-0.001-0.356,0v-7.213c0,0,0.709-1.65,1.584-1.65h6.732c0.875,0,1.583,1.65,1.583,1.65s0.002,0.945,0.003,2.15
		C9.122,29.931,5.669,31.704,4.443,33.724z M8.997,23.94c-1.575,0-2.851-1.276-2.851-2.851s1.276-2.852,2.851-2.852
		s2.851,1.277,2.851,2.852S10.572,23.94,8.997,23.94z M31.997,28.028c15.305,0,27.712,4.372,27.712,9.763
		s-12.407,9.763-27.712,9.763S4.286,43.183,4.286,37.791S16.692,28.028,31.997,28.028z"/>
</g>
</svg>
