<?xml version="1.0" encoding="utf-8"?>
<!-- Generator: Adobe Illustrator 14.0.0, SVG Export Plug-In . SVG Version: 6.00 Build 43363)  -->
<!DOCTYPE svg PUBLIC "-//W3C//DTD SVG 1.1//EN" "http://www.w3.org/Graphics/SVG/1.1/DTD/svg11.dtd">
<svg version="1.1" id="Capa_1" xmlns="http://www.w3.org/2000/svg" xmlns:xlink="http://www.w3.org/1999/xlink" x="0px" y="0px"
	 width="64px" height="64px" viewBox="0 0 64 64" enable-background="new 0 0 64 64" xml:space="preserve">
<path d="M54.266,63.696C54.325,63.8,9.723,63.988,9.637,64V39.262c0,0,3.204-7.451,7.156-7.451h13.025
	c-0.063,0.036-0.111,0.091-0.111,0.167l-1.6,23.161c0,0.198,0.208,0.417,0.208,0.417s4.344,5.121,4.441,5.22
	c0.099,0.098,0.234,0.065,0.297,0.002c0.064-0.063,4.142-5.222,4.142-5.222s0.229-0.23,0.242-0.417l-2.4-23.161
	c0-0.075-0.05-0.131-0.111-0.167H47.19c3.952,0,7.155,7.451,7.155,7.451S54.419,63.746,54.266,63.696z M29.916,31.771h4.912
	c0.038,0,0.065,0.021,0.098,0.04h-5.106C29.848,31.793,29.877,31.771,29.916,31.771z M46.2,17.285
	c0,7.112-6.438,12.874-14.382,12.874c-7.942,0-14.382-5.762-14.382-12.874c0-0.049,0.008-0.096,0.008-0.142h28.75
	C46.192,17.189,46.2,17.236,46.2,17.285z M46.905,12.786c0,2.091-2.05,2.839-4.578,2.839H21.148c-2.529,0-4.579-0.749-4.579-2.839
	l-1.96-5.608c0-2.134,0.828-3.861,3.357-3.861c0,0,5.81-3.316,13.199-3.316c7.77,0,14.108,3.316,14.108,3.316
	c2.615,0,3.088,1.657,2.742,3.861L46.905,12.786z M32.461,7.523l-1.129-1.692l-1.13,1.692l-2.293,0.365l1.598,1.41l-0.292,1.919
	l2.116-0.823l2.114,0.823l-0.291-1.919l1.598-1.41L32.461,7.523z"/>
</svg>
