<?xml version="1.0" encoding="utf-8"?>
<!-- Generator: Adobe Illustrator 14.0.0, SVG Export Plug-In . SVG Version: 6.00 Build 43363)  -->
<!DOCTYPE svg PUBLIC "-//W3C//DTD SVG 1.1//EN" "http://www.w3.org/Graphics/SVG/1.1/DTD/svg11.dtd">
<svg version="1.1" id="Capa_1" xmlns="http://www.w3.org/2000/svg" xmlns:xlink="http://www.w3.org/1999/xlink" x="0px" y="0px"
	 width="64px" height="64px" viewBox="0 0 64 64" enable-background="new 0 0 64 64" xml:space="preserve">
<g>
	<path fill-rule="evenodd" clip-rule="evenodd" d="M52.032,64c-6.61,0-11.942-5.361-11.942-11.976
		c0-6.613,5.332-11.975,11.942-11.975C58.642,40.05,64,45.411,64,52.024C64,58.639,58.642,64,52.032,64z M59.924,51.827
		c0-1.13-1.165-2.043-2.139-2.043H46.231c-0.975,0-2.142,0.913-2.142,2.043v1.108c0,1.127,1.167,2.043,2.142,2.043h11.554
		c0.974,0,2.139-0.916,2.139-2.043V51.827z M56.789,53.584H54.51c-0.331,0-0.634-0.095-0.859-0.247v-1.911
		c0.226-0.154,0.528-0.248,0.859-0.248h2.279c0.704,0,1.277,0.424,1.277,0.947v0.512C58.066,53.159,57.493,53.584,56.789,53.584z
		 M47.226,53.584c-0.705,0-1.276-0.425-1.276-0.947v-0.512c0-0.523,0.571-0.947,1.276-0.947h0.098c0.331,0,2.814,0.094,3.041,0.248
		v1.911c-0.227,0.152-0.528,0.247-0.859,0.247H47.226z"/>
	<circle cx="30.128" cy="16.275" r="12.582"/>
	<g>
		<path d="M37.342,52.017c0-7.675,5.752-13.995,13.18-14.913c-1.518-2.528-4.273-4.225-7.432-4.225H17.167
			c-4.792,0-8.677,3.889-8.677,8.688v17.047c0,0.242,0.019,0.48,0.036,0.718h30.718C38.035,57.165,37.342,54.673,37.342,52.017z"/>
	</g>
</g>
</svg>
