<?xml version="1.0" encoding="utf-8"?>
<!-- Generator: Adobe Illustrator 14.0.0, SVG Export Plug-In . SVG Version: 6.00 Build 43363)  -->
<!DOCTYPE svg PUBLIC "-//W3C//DTD SVG 1.1//EN" "http://www.w3.org/Graphics/SVG/1.1/DTD/svg11.dtd">
<svg version="1.1" id="Capa_1" xmlns="http://www.w3.org/2000/svg" xmlns:xlink="http://www.w3.org/1999/xlink" x="0px" y="0px"
	 width="64px" height="64px" viewBox="0 0 64 64" enable-background="new 0 0 64 64" xml:space="preserve">
<g>
	<circle cx="32.016" cy="16.663" r="12.663"/>
	<g>
		<path d="M45.046,33.376H33.787l1.753,11.991c0,0.367-0.149,0.767-0.149,0.767s-3.219,6.253-3.286,6.433
			c-0.07,0.18-0.167,0.122-0.212,0.005c-0.043-0.116-3.262-6.438-3.262-6.438s-0.162-0.424-0.169-0.767l1.335-11.991H18.955
			c-4.823,0-8.733,3.915-8.733,8.744v17.158c0,0.242,0.018,0.483,0.036,0.722h43.483c0.02-0.238,0.037-0.479,0.037-0.722V42.12
			C53.778,37.291,49.868,33.376,45.046,33.376z"/>
	</g>
</g>
</svg>
