<?xml version="1.0" encoding="utf-8"?>
<!-- Generator: Adobe Illustrator 14.0.0, SVG Export Plug-In . SVG Version: 6.00 Build 43363)  -->
<!DOCTYPE svg PUBLIC "-//W3C//DTD SVG 1.1//EN" "http://www.w3.org/Graphics/SVG/1.1/DTD/svg11.dtd">
<svg version="1.1" id="Capa_1" xmlns="http://www.w3.org/2000/svg" xmlns:xlink="http://www.w3.org/1999/xlink" x="0px" y="0px"
	 width="64px" height="64px" viewBox="0 0 64 64" enable-background="new 0 0 64 64" xml:space="preserve">
<g>
	<circle cx="30.146" cy="16.608" r="12.68"/>
	<path d="M38.706,59.792c-0.011-0.041-0.019-0.083-0.031-0.124c-0.021-0.009-2.177-3.446-2.676-4.715l1.251-1.641
		c-0.087-0.301-0.55-2.24-0.529-2.449l-1.711-0.878c-0.002-0.105-0.008-0.21-0.008-0.317c0-1.608,0.267-3.156,0.75-4.601
		l2.429-0.367c0.295-0.671,0.646-1.313,1.054-1.912l-0.966-2.29c1.044-1.272,2.296-2.366,3.707-3.227l2.116,1.293
		c0.666-0.325,1.368-0.589,2.095-0.79l0.731-2.371c0.512-0.092,1.034-0.149,1.562-0.188c-1.479-1.156-3.328-1.856-5.351-1.856
		H17.002c-4.83,0-8.744,3.92-8.744,8.756v17.183c0,0.243,0.018,0.481,0.036,0.724h30.538c-0.023-0.076-0.041-0.139-0.063-0.196
		C38.749,59.814,38.73,59.805,38.706,59.792z"/>
	<path d="M64,50.474c0,0,0-0.003,0-0.004c0-1.52-0.269-2.978-0.758-4.327l-2.135-0.271c-0.26-0.547-0.563-1.07-0.909-1.562
		l0.797-2.031c-0.937-1.105-2.061-2.049-3.321-2.779l-1.819,1.17c-0.574-0.267-1.178-0.486-1.802-0.648l-0.695-2.064
		c-0.662-0.105-1.341-0.164-2.033-0.164c-0.772,0-1.524,0.072-2.26,0.204l-0.639,2.075c-0.635,0.175-1.249,0.405-1.831,0.688
		l-1.851-1.129c-1.234,0.752-2.328,1.708-3.241,2.82l0.844,2.003c-0.355,0.523-0.662,1.085-0.921,1.672l-2.122,0.321
		c-0.423,1.263-0.657,2.615-0.657,4.021c0,0.094,0.006,0.186,0.007,0.277l1.923,0.987c0.069,0.603,0.188,1.189,0.354,1.761
		l-1.41,1.596c0.547,1.393,1.331,2.667,2.307,3.77l2.096-0.478c0.408,0.382,0.842,0.733,1.301,1.046l-0.053,2.124
		c1.292,0.717,2.718,1.217,4.235,1.447l1.292-1.704c0.209,0.012,0.416,0.019,0.628,0.019c0.324,0,0.646-0.015,0.966-0.044
		l1.329,1.665c1.511-0.276,2.931-0.819,4.204-1.582l-0.106-2.133c0.431-0.314,0.838-0.66,1.216-1.036l2.105,0.427
		c0.953-1.14,1.713-2.446,2.225-3.874l-1.455-1.566c0.137-0.537,0.232-1.093,0.288-1.658L64,50.474z M51.324,54.688
		c-2.371,0-4.292-1.919-4.292-4.289c0-2.373,1.921-4.292,4.292-4.292c2.37,0,4.29,1.919,4.29,4.292
		C55.614,52.769,53.694,54.688,51.324,54.688z"/>
</g>
</svg>
