<?xml version="1.0" encoding="utf-8"?>
<!-- Generator: Adobe Illustrator 14.0.0, SVG Export Plug-In . SVG Version: 6.00 Build 43363)  -->
<!DOCTYPE svg PUBLIC "-//W3C//DTD SVG 1.1//EN" "http://www.w3.org/Graphics/SVG/1.1/DTD/svg11.dtd">
<svg version="1.1" id="Capa_1" xmlns="http://www.w3.org/2000/svg" xmlns:xlink="http://www.w3.org/1999/xlink" x="0px" y="0px"
	 width="64px" height="64px" viewBox="0 0 64 64" enable-background="new 0 0 64 64" xml:space="preserve">
<g>
	<path fill-rule="evenodd" clip-rule="evenodd" d="M56.969,57.341c-3.33,0-6.029-0.783-6.029-1.75c0-0.874,0-0.878,0-1.752
		c0-0.205,0.127-0.399,0.351-0.583c0.828,0.68,3.055,1.168,5.679,1.168c2.625,0,4.852-0.488,5.681-1.168
		C62.872,53.439,63,53.634,63,53.839c0,0.874,0,0.878,0,1.752C63,56.558,60.3,57.341,56.969,57.341z M56.969,53.256
		c-3.33,0-6.029-0.783-6.029-1.75c0-0.874,0-0.879,0-1.753c0-0.205,0.127-0.399,0.351-0.582c0.828,0.68,3.055,1.167,5.679,1.167
		c2.625,0,4.852-0.487,5.681-1.167C62.872,49.354,63,49.548,63,49.753c0,0.874,0,0.879,0,1.753C63,52.473,60.3,53.256,56.969,53.256
		z M56.969,49.171c-3.33,0-6.029-0.784-6.029-1.751c0-0.874,0-0.878,0-1.75c0-0.205,0.127-0.401,0.351-0.585
		c0.828,0.68,3.055,1.168,5.679,1.168c2.625,0,4.852-0.488,5.681-1.168C62.872,45.269,63,45.465,63,45.67c0,0.872,0,0.876,0,1.75
		C63,48.387,60.3,49.171,56.969,49.171z M56.969,45.085c-3.33,0-6.029-0.783-6.029-1.75c0-0.874,0-0.878,0-1.75
		c0-0.205,0.127-0.401,0.351-0.585c0.828,0.68,3.055,1.168,5.679,1.168c2.625,0,4.852-0.488,5.681-1.168
		C62.872,41.184,63,41.38,63,41.585c0,0.872,0,0.876,0,1.75C63,44.302,60.3,45.085,56.969,45.085z M56.969,41
		c-3.33,0-6.029-0.783-6.029-1.75c0-0.874,0-0.876,0-1.75c0-0.968,2.699-1.753,6.029-1.753C60.3,35.747,63,36.532,63,37.5
		c0,0.874,0,0.876,0,1.75C63,40.217,60.3,41,56.969,41z M44.13,57.341c-3.331,0-6.03-0.783-6.03-1.75c0-0.874,0-0.878,0-1.752
		c0-0.205,0.128-0.399,0.351-0.583c0.829,0.68,3.056,1.168,5.68,1.168c2.625,0,4.852-0.488,5.681-1.168
		c0.223,0.184,0.351,0.378,0.351,0.583c0,0.874,0,0.878,0,1.752C50.161,56.558,47.46,57.341,44.13,57.341z M44.13,53.256
		c-3.331,0-6.03-0.783-6.03-1.75c0-0.874,0-0.879,0-1.753c0-0.205,0.128-0.399,0.351-0.582c0.829,0.68,3.056,1.167,5.68,1.167
		c2.625,0,4.852-0.487,5.681-1.167c0.223,0.183,0.351,0.377,0.351,0.582c0,0.874,0,0.879,0,1.753
		C50.161,52.473,47.46,53.256,44.13,53.256z M44.13,49.171c-3.331,0-6.03-0.784-6.03-1.751c0-0.874,0-0.878,0-1.75
		c0-0.967,2.699-1.752,6.03-1.752c3.33,0,6.031,0.785,6.031,1.752c0,0.872,0,0.876,0,1.75C50.161,48.387,47.46,49.171,44.13,49.171z
		 M47.278,41.359c-0.093,0.002-9.945-0.025-9.945-0.025c-0.956,0.004-1.333-0.167-1.688,0.72c-0.228,0.568-0.057,10.8-0.057,10.8
		H16.8V38.415h-0.72v14.438c-4.561-0.028-7.76-0.003-7.781,0V35.308c0,0,2.826-6.575,6.313-6.575H41.44
		c2.678,0,4.96,3.869,5.878,5.669C47.303,34.339,47.445,41.356,47.278,41.359z M28.623,29.045c0-0.092-3.467,0.098-3.543,0
		l-1.224,11.002c0.006,0.309,0.153,0.688,0.153,0.688s2.898,5.695,2.939,5.801c0.04,0.104,0.126,0.155,0.188-0.006
		c0.063-0.162,2.961-5.795,2.961-5.795s0.134-0.358,0.134-0.688L28.623,29.045z M34.589,51.854c0.005,0,1.01,1,1.016,1
		C35.601,52.998,35.589,52.854,34.589,51.854z M27.27,25.066c-6.275,0-11.362-5.088-11.362-11.363
		c0-6.275,5.087-11.363,11.362-11.363s11.364,5.087,11.364,11.363C38.634,19.979,33.545,25.066,27.27,25.066z"/>
</g>
</svg>
