<?xml version="1.0" encoding="utf-8"?>
<!-- Generator: Adobe Illustrator 14.0.0, SVG Export Plug-In . SVG Version: 6.00 Build 43363)  -->
<!DOCTYPE svg PUBLIC "-//W3C//DTD SVG 1.1//EN" "http://www.w3.org/Graphics/SVG/1.1/DTD/svg11.dtd">
<svg version="1.1" id="Capa_1" xmlns="http://www.w3.org/2000/svg" xmlns:xlink="http://www.w3.org/1999/xlink" x="0px" y="0px"
	 width="64px" height="64px" viewBox="0 0 64 64" enable-background="new 0 0 64 64" xml:space="preserve">
<path fill-rule="evenodd" clip-rule="evenodd" d="M51.106,58.474c-2.036-2.037-2.037-5.337-0.003-7.37
	c2.033-2.034,5.333-2.034,7.37,0.003c2.034,2.034,2.036,5.334,0.002,7.369C56.44,60.51,53.141,60.508,51.106,58.474z M41.335,54.227
	c0,0-2.962-2.939-4.607-4.605c-0.167,0.183,4.993-1.271,8.965-5.04c2.151-2.152,3.66-4.694,4.569-7.396
	c-0.033,0.099-0.058,0.198-0.093,0.296l3.956,3.957c0,0,1.216,3.048,0.087,4.179l-8.696,8.697
	C44.385,55.443,41.335,54.227,41.335,54.227z M45.7,17.641c-2.281-2.282-5.001-3.857-7.886-4.737
	c0.024,0.008,0.051,0.012,0.076,0.02l3.047-3.047c0,0,3.05-1.218,4.18-0.088l8.697,8.697c1.129,1.13-0.087,4.179-0.087,4.179
	s-1.655,1.668-3.187,3.197C50.4,26.145,50.107,22.047,45.7,17.641z M50.604,12.896c-2.035-2.034-2.034-5.333,0.002-7.369
	c2.035-2.035,5.335-2.036,7.368-0.003c2.035,2.035,2.033,5.334-0.002,7.369C55.938,14.93,52.638,14.932,50.604,12.896z
	 M18.76,17.648c-4.987,4.987-5.113,9.209-5.041,8.97c-1.681-1.673-3.945-3.954-3.945-3.954s-1.218-3.049-0.087-4.179l8.696-8.697
	c1.131-1.13,4.179,0.088,4.179,0.088l3.298,3.296c0.09-0.032,0.185-0.055,0.275-0.085C23.442,13.996,20.906,15.503,18.76,17.648z
	 M5.527,12.894C3.492,10.858,3.491,7.56,5.524,5.524c2.035-2.033,5.334-2.032,7.37,0.003c2.036,2.036,2.037,5.335,0.002,7.369
	C10.862,14.932,7.563,14.93,5.527,12.894z M13.861,36.146 M20.024,18.914c6.743-6.742,17.671-6.746,24.41-0.007
	c6.738,6.737,6.734,17.665-0.009,24.408s-17.671,6.747-24.409,0.009C13.277,36.585,13.281,25.657,20.024,18.914z M18.751,44.59
	c4.42,4.421,8.466,5.036,8.221,4.84c-1.535,1.538-3.222,3.213-3.222,3.213s-3.049,1.216-4.18,0.086l-8.696-8.696
	c-1.131-1.13,0.087-4.18,0.087-4.18l3.073-3.073c-0.009-0.028-0.015-0.056-0.023-0.083C14.892,39.584,16.467,42.306,18.751,44.59z
	 M13.982,49.519c2.034,2.034,2.033,5.334-0.003,7.368c-2.036,2.036-5.335,2.037-7.369,0.003c-2.034-2.033-2.033-5.333,0.002-7.369
	C8.648,47.485,11.947,47.483,13.982,49.519z"/>
</svg>
