<?xml version="1.0" encoding="utf-8"?>
<!-- Generator: Adobe Illustrator 14.0.0, SVG Export Plug-In . SVG Version: 6.00 Build 43363)  -->
<!DOCTYPE svg PUBLIC "-//W3C//DTD SVG 1.1//EN" "http://www.w3.org/Graphics/SVG/1.1/DTD/svg11.dtd">
<svg version="1.1" id="Capa_1" xmlns="http://www.w3.org/2000/svg" xmlns:xlink="http://www.w3.org/1999/xlink" x="0px" y="0px"
	 width="64px" height="64px" viewBox="0 0 64 64" enable-background="new 0 0 64 64" xml:space="preserve">
<g>
	<path fill-rule="evenodd" clip-rule="evenodd" d="M58.397,36.394c-1.53,0-2.533-3.777-3.063-5.363
		c-0.767-2.298-0.767-2.298-1.53-4.597c-0.817-2.45-0.551-2.656-1.07-2.517c-0.374,0.233-0.077,0.638,0.151,1.715
		c0.594,2.349,4.746,16.893,4.746,16.893h-6.124c0,0,0,12.258,0,18.388c0,1.021-0.599,3.041-2.634,3.041
		c-2.249,0-2.728-2.089-2.728-3.041c0-2.831,0-14.706,0-16.089c0-1.532,0.051-2.276-0.336-2.276c-0.379,0-0.428,0.744-0.428,2.276
		c0,1.31,0,13.328,0,16.089c0,1.533-0.72,3.088-2.753,3.088c-2.081,0-2.608-1.555-2.608-3.088c0-1.787,0-18.388,0-18.388h-6.127
		c0,0,4.769-14.688,5.36-16.855c0.299-0.857,0.675-1.379,0.299-1.528c-0.595-0.224-0.9,1.108-1.063,1.528
		c-0.766,2.298-0.766,2.298-1.531,4.596c-0.766,2.299-2.297,6.896-4.595,6.129c-2.297-0.766-0.767-3.83,0-6.129
		c0.766-2.298,2.298-6.896,3.063-9.194c0.767-2.299,0.767-2.299,1.532-4.597c0.766-2.297,3.063-3.064,4.595-3.064
		c3.062,0,3.049,0,6.125,0c2.529,0,0.552,0,3.829,0c1.53,0,3.061,0.767,3.827,3.064c0.766,2.298,0.766,1.533,1.532,4.597
		c0.765,2.298,1.446,4.346,3.062,9.194C61.461,34.861,60.695,36.394,58.397,36.394z M46.332,12.516
		c-3.063,0-5.958-2.821-5.958-5.887c0-3.064,3.046-6.259,6.107-6.259c3.063,0,6.03,3.12,6.03,6.184
		C52.512,9.619,49.396,12.516,46.332,12.516z M26.745,29.938c0,2.195,0.194,6.137-2.105,6.137c-1.534,0-2.16-1.06-2.16-5.095
		c0-2.427,0-4.181,0-5.909c0-1.509,0.007-1.87-0.384-1.87c-0.393,0-0.302,1.33-0.302,2.375c0,1.932-0.036,29.244-0.036,35.382
		c0,1.021-1.41,2.994-2.944,2.994c-2.301,0-3.313-2.074-3.313-3.028c0-2.834,0-14.728,0-16.11c0-1.536,0.051-2.279-0.336-2.279
		c-0.379,0-0.431,0.743-0.431,2.279c0,1.31,0,13.347,0,16.11c0,1.535-0.961,2.885-3.264,2.885c-2.309,0-3.127-1.645-3.127-3.18
		c0-1.791,0.017-32.76,0.017-34.959c0-2.374,0.004-2.404-0.447-2.404c-0.449,0-0.321,0.379-0.321,2.613
		c0,2.043,0.008,2.94,0.008,6.399c0,2.447,0.022,4.092-2.281,4.092c-2.427,0-2.017-3.772-2.017-6.196c0-2.707,0-6.942,0-9.369
		c0-4.911-0.155-5.065,1.396-6.824c1.138-1.034,2.137-0.933,3.669-0.933c3.068,0,4.563,0.01,7.645,0.01c2.534,0,3.62,0,6.9,0
		c1.534,0,3.068,0.767,3.834,3.069c0.2,1.882,0,1.594,0,4.603C26.745,23.772,26.745,26.943,26.745,29.938z M14.662,12.164
		c-3.066,0-5.967-2.826-5.967-5.896C8.695,3.201,11.746,0,14.812,0c3.067,0,6.042,3.127,6.042,6.195
		C20.854,9.264,17.73,12.164,14.662,12.164z"/>
</g>
</svg>
