<?xml version="1.0" encoding="utf-8"?>
<!-- Generator: Adobe Illustrator 14.0.0, SVG Export Plug-In . SVG Version: 6.00 Build 43363)  -->
<!DOCTYPE svg PUBLIC "-//W3C//DTD SVG 1.1//EN" "http://www.w3.org/Graphics/SVG/1.1/DTD/svg11.dtd">
<svg version="1.1" id="Capa_1" xmlns="http://www.w3.org/2000/svg" xmlns:xlink="http://www.w3.org/1999/xlink" x="0px" y="0px"
	 width="64px" height="64px" viewBox="0 0 64 64" enable-background="new 0 0 64 64" xml:space="preserve">
<g>
	<path d="M30.067,3.944c6.985,0,12.641,5.66,12.641,12.643c0,6.982-5.656,12.642-12.641,12.642c-6.982,0-12.643-5.66-12.643-12.642
		C17.424,9.604,23.084,3.944,30.067,3.944z"/>
	<g>
		<path d="M49.308,37.13c0.207-0.198,0.457-0.325,0.723-0.396c-1.592-2.1-4.102-3.461-6.938-3.461H17.041
			c-4.815,0-8.719,3.91-8.719,8.73v17.132c0,0.242,0.018,0.482,0.036,0.722h27.534L49.308,37.13z"/>
	</g>
	<path d="M63.723,61.405L52.081,41.688c-0.535-0.513-1.406-0.513-1.943,0L38.497,61.405C37.962,61.92,38.274,63.489,38.81,64h24.598
		C63.944,63.489,64.259,61.92,63.723,61.405z M52.796,60.655h-2.714v-1.988h2.714V60.655z M53.195,53.112l-0.566,4.739h-2.455
		l-0.563-4.739v-2.578h3.584V53.112z"/>
</g>
</svg>
