<?xml version="1.0" encoding="utf-8"?>
<!-- Generator: Adobe Illustrator 14.0.0, SVG Export Plug-In . SVG Version: 6.00 Build 43363)  -->
<!DOCTYPE svg PUBLIC "-//W3C//DTD SVG 1.1//EN" "http://www.w3.org/Graphics/SVG/1.1/DTD/svg11.dtd">
<svg version="1.1" id="Capa_1" xmlns="http://www.w3.org/2000/svg" xmlns:xlink="http://www.w3.org/1999/xlink" x="0px" y="0px"
	 width="64px" height="64px" viewBox="0 0 64 64" enable-background="new 0 0 64 64" xml:space="preserve">
<path d="M60.282,64H3.718c-0.565,0-1.023-0.458-1.023-1.022V35.442c0-0.563,0.458-1.022,1.023-1.022h56.564
	c0.564,0,1.023,0.459,1.023,1.022v27.535C61.306,63.542,60.847,64,60.282,64z M39.757,22.901H38.96v8.626H25.04v-8.626h-0.797v8.626
	H19.42V18.366c0-2.007,2.764-4.771,4.772-4.771h15.619c2.008,0,4.77,2.764,4.77,4.771v13.161h-4.824V22.901L39.757,22.901z
	 M32.001,12.866c-3.554,0-6.434-2.882-6.434-6.434c0-3.551,2.88-6.432,6.434-6.432c3.551,0,6.43,2.88,6.43,6.431
	C38.431,9.982,35.552,12.866,32.001,12.866z"/>
</svg>
