<?xml version="1.0" encoding="utf-8"?>
<!-- Generator: Adobe Illustrator 14.0.0, SVG Export Plug-In . SVG Version: 6.00 Build 43363)  -->
<!DOCTYPE svg PUBLIC "-//W3C//DTD SVG 1.1//EN" "http://www.w3.org/Graphics/SVG/1.1/DTD/svg11.dtd">
<svg version="1.1" id="Capa_1" xmlns="http://www.w3.org/2000/svg" xmlns:xlink="http://www.w3.org/1999/xlink" x="0px" y="0px"
	 width="64px" height="64px" viewBox="0 0 64 64" enable-background="new 0 0 64 64" xml:space="preserve">
<g>
	<circle cx="29.857" cy="16.688" r="12.564"/>
	<g>
		<path d="M50.436,37.848c-1.46-2.724-4.331-4.576-7.635-4.576H31.616l1.763,12.063c0,0.364-0.147,0.761-0.147,0.761
			s-3.193,6.204-3.26,6.383c-0.07,0.178-0.166,0.121-0.209,0.006c-0.043-0.117-3.237-6.389-3.237-6.389s-0.16-0.421-0.167-0.761
			L27.7,33.271H16.915c-4.785,0-8.665,3.885-8.665,8.675v17.024c0,0.242,0.017,0.479,0.036,0.717h31.266
			c-1.185-2.129-1.864-4.577-1.864-7.188C37.688,45.021,43.235,38.854,50.436,37.848z"/>
	</g>
	<path id="cancel_4_" d="M52.188,64c-6.524,0-11.813-5.287-11.813-11.813c0-6.524,5.288-11.813,11.813-11.813
		C58.714,40.375,64,45.663,64,52.188C64,58.713,58.714,64,52.188,64z M57.717,49.168c0.575-0.577,0.575-1.512,0-2.086l-0.325-0.327
		c-0.578-0.579-1.513-0.579-2.089,0l-3.067,3.067l-3.065-3.067c-0.577-0.579-1.513-0.579-2.088,0l-0.327,0.327
		c-0.578,0.575-0.578,1.511,0,2.086l3.067,3.065l-3.067,3.067c-0.578,0.577-0.578,1.513,0,2.089l0.327,0.327
		c0.577,0.575,1.511,0.575,2.088,0l3.065-3.067l3.067,3.067c0.576,0.575,1.511,0.575,2.089,0l0.325-0.327
		c0.575-0.578,0.575-1.513,0-2.089l-3.067-3.067L57.717,49.168z"/>
</g>
</svg>
