<?xml version="1.0" encoding="utf-8"?>
<!-- Generator: Adobe Illustrator 14.0.0, SVG Export Plug-In . SVG Version: 6.00 Build 43363)  -->
<!DOCTYPE svg PUBLIC "-//W3C//DTD SVG 1.1//EN" "http://www.w3.org/Graphics/SVG/1.1/DTD/svg11.dtd">
<svg version="1.1" id="Capa_1" xmlns="http://www.w3.org/2000/svg" xmlns:xlink="http://www.w3.org/1999/xlink" x="0px" y="0px"
	 width="64px" height="64px" viewBox="0 0 64 64" enable-background="new 0 0 64 64" xml:space="preserve">
<g>
	<circle cx="29.886" cy="16.628" r="12.596"/>
	<g>
		<path d="M37.375,52.313c0-7.576,5.643-13.817,12.953-14.791c-1.514-2.551-4.287-4.268-7.467-4.268H16.91
			c-4.797,0-8.688,3.895-8.688,8.697V59.02c0,0.242,0.018,0.48,0.037,0.719h31.104C38.105,57.551,37.375,55.02,37.375,52.313z"/>
		<path fill-rule="evenodd" clip-rule="evenodd" d="M61.393,59.644c-4.072,5.04-11.464,5.821-16.505,1.745
			c-5.043-4.074-5.829-11.464-1.756-16.504c4.072-5.04,11.462-5.821,16.506-1.745C64.681,47.215,65.466,54.604,61.393,59.644z
			 M45.413,46.729c-2.74,3.392-2.539,8.194,0.26,11.354l10.896-13.481C52.892,42.527,48.155,43.339,45.413,46.729z M58.852,46.445
			L47.954,59.927c3.679,2.073,8.418,1.263,11.156-2.128C61.851,54.408,61.65,49.605,58.852,46.445z"/>
	</g>
</g>
</svg>
