<?xml version="1.0" encoding="utf-8"?>
<!-- Generator: Adobe Illustrator 14.0.0, SVG Export Plug-In . SVG Version: 6.00 Build 43363)  -->
<!DOCTYPE svg PUBLIC "-//W3C//DTD SVG 1.1//EN" "http://www.w3.org/Graphics/SVG/1.1/DTD/svg11.dtd">
<svg version="1.1" id="Capa_1" xmlns="http://www.w3.org/2000/svg" xmlns:xlink="http://www.w3.org/1999/xlink" x="0px" y="0px"
	 width="64px" height="64px" viewBox="0 0 64 64" enable-background="new 0 0 64 64" xml:space="preserve">
<g>
	<circle cx="29.886" cy="16.628" r="12.596"/>
	<g>
		<path d="M37.375,52.313c0-7.576,5.643-13.818,12.953-14.791c-1.514-2.551-4.287-4.268-7.467-4.268H16.91
			c-4.797,0-8.688,3.895-8.688,8.697V59.02c0,0.242,0.018,0.48,0.037,0.719h31.104C38.105,57.551,37.375,55.02,37.375,52.313z"/>
	</g>
	<path id="cancel_6_" d="M52.313,64c-6.455,0-11.688-5.232-11.688-11.688c0-6.457,5.232-11.688,11.688-11.688
		C58.77,40.625,64,45.855,64,52.313C64,58.768,58.77,64,52.313,64z M57.783,49.324c0.57-0.57,0.57-1.496,0-2.064l-0.322-0.324
		c-0.572-0.572-1.498-0.572-2.064,0l-3.035,3.035l-3.035-3.035c-0.572-0.572-1.496-0.572-2.064,0l-0.326,0.324
		c-0.57,0.57-0.57,1.494,0,2.064l3.035,3.033l-3.035,3.035c-0.57,0.57-0.57,1.496,0,2.066l0.326,0.324
		c0.57,0.568,1.492,0.568,2.064,0l3.035-3.035l3.035,3.035c0.568,0.568,1.494,0.568,2.064,0l0.322-0.324
		c0.57-0.572,0.57-1.496,0-2.066l-3.035-3.035L57.783,49.324z"/>
</g>
</svg>
