<?xml version="1.0" encoding="utf-8"?>
<!-- Generator: Adobe Illustrator 14.0.0, SVG Export Plug-In . SVG Version: 6.00 Build 43363)  -->
<!DOCTYPE svg PUBLIC "-//W3C//DTD SVG 1.1//EN" "http://www.w3.org/Graphics/SVG/1.1/DTD/svg11.dtd">
<svg version="1.1" id="Capa_1" xmlns="http://www.w3.org/2000/svg" xmlns:xlink="http://www.w3.org/1999/xlink" x="0px" y="0px"
	 width="64px" height="64px" viewBox="0 0 64 64" enable-background="new 0 0 64 64" xml:space="preserve">
<path d="M7.889,51.279V60h48.222v-8.721c0,0-5.73-0.692-13.389-5.326c-1.723-1.042-4.049-2.897-1.764-12.897l0.047-0.214
	c1.488-0.777,2.705-2.543,3.113-4.806c0.361-2.01,0.008-3.966-0.836-5.378l1.104-4.93c0,0,0.262-2.14,0.211-3.256
	c-0.053-1.167-0.289-2.007-0.494-2.954c-0.465-2.161-2.289-4.226-2.289-4.226h-0.02C40.506,5.888,36.564,4.01,32.019,4h-0.037
	c-4.548,0.01-8.488,1.888-9.778,3.292h-0.02c0,0-1.823,2.065-2.289,4.226c-0.204,0.947-0.438,1.789-0.493,2.954
	c-0.052,1.116,0.215,3.256,0.215,3.256l1.101,4.93c-0.844,1.412-1.198,3.368-0.836,5.378c0.409,2.263,1.625,4.029,3.112,4.806
	l0.048,0.214c2.283,10-0.04,11.855-1.763,12.897C13.621,50.587,7.889,51.279,7.889,51.279z"/>
</svg>
