<?xml version="1.0" encoding="utf-8"?>
<!-- Generator: Adobe Illustrator 14.0.0, SVG Export Plug-In . SVG Version: 6.00 Build 43363)  -->
<!DOCTYPE svg PUBLIC "-//W3C//DTD SVG 1.1//EN" "http://www.w3.org/Graphics/SVG/1.1/DTD/svg11.dtd">
<svg version="1.1" id="Capa_1" xmlns="http://www.w3.org/2000/svg" xmlns:xlink="http://www.w3.org/1999/xlink" x="0px" y="0px"
	 width="64px" height="64px" viewBox="0 0 64 64" enable-background="new 0 0 64 64" xml:space="preserve">
<g>
	<circle cx="29.868" cy="16.54" r="12.649"/>
	<g>
		<path d="M41.678,41.678c2.466-2.466,5.583-3.875,8.797-4.252c-1.546-2.447-4.266-4.078-7.372-4.078h-11.26l1.776,12.146
			c0,0.367-0.15,0.764-0.15,0.764s-3.214,6.248-3.282,6.428c-0.07,0.179-0.167,0.121-0.212,0.005
			c-0.042-0.118-3.257-6.433-3.257-6.433s-0.162-0.421-0.169-0.764l1.351-12.146H17.042c-4.817,0-8.724,3.91-8.724,8.733v17.141
			c0,0.244,0.018,0.482,0.036,0.722h31.131C36.002,54.207,36.722,46.635,41.678,41.678z"/>
	</g>
	<path d="M60.548,43.888c-4.598-4.601-12.06-4.601-16.66,0s-4.601,12.061,0,16.662c4.601,4.601,12.063,4.601,16.66,0
		C65.15,55.948,65.15,48.488,60.548,43.888z M59.719,52.514c0,0.814-0.658,1.472-1.472,1.472h-4.325v4.325
		c0,0.813-0.66,1.474-1.472,1.474h-0.461c-0.813,0-1.472-0.66-1.472-1.474v-4.325H46.19c-0.812,0-1.471-0.657-1.471-1.472v-0.46
		c0-0.812,0.657-1.472,1.471-1.472h4.327v-4.325c0-0.813,0.658-1.474,1.472-1.474h0.461c0.812,0,1.472,0.66,1.472,1.474v4.325h4.325
		c0.813,0,1.472,0.658,1.472,1.472V52.514z"/>
</g>
</svg>
