<?xml version="1.0" encoding="utf-8"?>
<!-- Generator: Adobe Illustrator 14.0.0, SVG Export Plug-In . SVG Version: 6.00 Build 43363)  -->
<!DOCTYPE svg PUBLIC "-//W3C//DTD SVG 1.1//EN" "http://www.w3.org/Graphics/SVG/1.1/DTD/svg11.dtd">
<svg version="1.1" id="Capa_1" xmlns="http://www.w3.org/2000/svg" xmlns:xlink="http://www.w3.org/1999/xlink" x="0px" y="0px"
	 width="64px" height="64px" viewBox="0 0 64 64" enable-background="new 0 0 64 64" xml:space="preserve">
<g>
	<circle cx="30.038" cy="16.548" r="12.582"/>
	<g>
		<path d="M37.252,52.29c0-7.675,5.752-13.995,13.18-14.913c-1.518-2.528-4.273-4.225-7.432-4.225H17.077
			c-4.792,0-8.677,3.889-8.677,8.688v17.047c0,0.242,0.019,0.48,0.036,0.718h30.718C37.945,57.438,37.252,54.946,37.252,52.29z"/>
	</g>
	<path d="M52.293,40.583c-6.467,0-11.709,5.242-11.709,11.707c0,6.466,5.242,11.71,11.709,11.71S64,58.756,64,52.29
		C64,45.825,58.76,40.583,52.293,40.583z M50.443,57.414l-2.17-2.175l-2.199-2.204l2.17-2.173l2.205,2.2l5.891-5.894l2.174,2.175
		L50.443,57.414z"/>
</g>
</svg>
