<?xml version="1.0" encoding="utf-8"?>
<!-- Generator: Adobe Illustrator 14.0.0, SVG Export Plug-In . SVG Version: 6.00 Build 43363)  -->
<!DOCTYPE svg PUBLIC "-//W3C//DTD SVG 1.1//EN" "http://www.w3.org/Graphics/SVG/1.1/DTD/svg11.dtd">
<svg version="1.1" id="Capa_1" xmlns="http://www.w3.org/2000/svg" xmlns:xlink="http://www.w3.org/1999/xlink" x="0px" y="0px"
	 width="64px" height="64px" viewBox="0 0 64 64" enable-background="new 0 0 64 64" xml:space="preserve">
<g id="user_silence">
	<circle cx="32.373" cy="16.475" r="12.663"/>
	<path id="question_1_" d="M54.797,64h-3.951v-3.795h3.951V64z M58.551,52.889c-0.332,0.475-0.973,1.083-1.914,1.819l-0.93,0.731
		c-0.508,0.395-0.844,0.855-1.01,1.383c-0.105,0.338-0.162,0.858-0.172,1.562h-3.6c0.051-1.488,0.195-2.516,0.42-3.085
		c0.232-0.566,0.82-1.221,1.771-1.964l0.965-0.75c0.318-0.24,0.572-0.495,0.768-0.782c0.354-0.477,0.529-1.005,0.529-1.581
		c0-0.67-0.197-1.272-0.588-1.82c-0.391-0.545-1.104-0.818-2.141-0.818c-1.023,0-1.744,0.334-2.172,1.008
		c-0.424,0.67-0.639,1.367-0.639,2.087h-3.795c0.105-2.495,0.98-4.265,2.621-5.312c1.039-0.667,2.311-0.999,3.82-0.999
		c1.984,0,3.637,0.476,4.945,1.422c1.316,0.948,1.973,2.355,1.973,4.219C59.404,51.146,59.117,52.107,58.551,52.889z"/>
	<path d="M41.539,52.563c0-7.824,3.344-12.167,11.168-12.167c0.441,0,0.877,0.026,1.311,0.066c-0.699-4.127-4.279-7.273-8.6-7.273
		H19.329c-4.822,0-8.732,3.915-8.732,8.743V59.09c0,0.243,0.017,0.484,0.036,0.723h30.924L41.539,52.563z"/>
</g>
</svg>
