<?xml version="1.0" encoding="utf-8"?>
<!-- Generator: Adobe Illustrator 14.0.0, SVG Export Plug-In . SVG Version: 6.00 Build 43363)  -->
<!DOCTYPE svg PUBLIC "-//W3C//DTD SVG 1.1//EN" "http://www.w3.org/Graphics/SVG/1.1/DTD/svg11.dtd">
<svg version="1.1" id="Capa_1" xmlns="http://www.w3.org/2000/svg" xmlns:xlink="http://www.w3.org/1999/xlink" x="0px" y="0px"
	 width="64px" height="64px" viewBox="0 0 64 64" enable-background="new 0 0 64 64" xml:space="preserve">
<path id="add_1_" d="M57.714,39.264H39.261v18.454c0,3.471-2.812,6.282-6.281,6.282h-1.962c-3.471,0-6.284-2.812-6.284-6.282V39.264
	H6.281C2.812,39.264,0,36.449,0,32.98v-1.963c0-3.469,2.812-6.282,6.281-6.282h18.455V6.282C24.736,2.813,27.549,0,31.019,0h1.962
	c3.47,0,6.281,2.813,6.281,6.282v18.455h18.453c3.469,0,6.284,2.813,6.284,6.282v1.963C63.998,36.45,61.183,39.264,57.714,39.264z"
	/>
</svg>
