<?xml version="1.0" encoding="utf-8"?>
<!-- Generator: Adobe Illustrator 14.0.0, SVG Export Plug-In . SVG Version: 6.00 Build 43363)  -->
<!DOCTYPE svg PUBLIC "-//W3C//DTD SVG 1.1//EN" "http://www.w3.org/Graphics/SVG/1.1/DTD/svg11.dtd">
<svg version="1.1" id="Capa_1" xmlns="http://www.w3.org/2000/svg" xmlns:xlink="http://www.w3.org/1999/xlink" x="0px" y="0px"
	 width="64px" height="64px" viewBox="0 0 64 64" enable-background="new 0 0 64 64" xml:space="preserve">
<path id="add_2" d="M57.714,43.034H43.231v14.684c0,3.469-2.813,6.282-6.282,6.282h-9.703c-3.47,0-6.282-2.813-6.282-6.282V43.034
	H6.282C2.812,43.034,0,39.427,0,35.958v-8.71c0-3.469,2.812-6.283,6.282-6.283h14.683V6.282C20.965,2.813,23.778,0,27.248,0h9.703
	c3.469,0,6.283,2.813,6.283,6.282v14.684h14.482c3.469,0,6.284,2.814,6.284,6.283v8.709C63.998,39.427,61.183,43.034,57.714,43.034z
	"/>
</svg>
