<?xml version="1.0" encoding="utf-8"?>
<!-- Generator: Adobe Illustrator 14.0.0, SVG Export Plug-In . SVG Version: 6.00 Build 43363)  -->
<!DOCTYPE svg PUBLIC "-//W3C//DTD SVG 1.1//EN" "http://www.w3.org/Graphics/SVG/1.1/DTD/svg11.dtd">
<svg version="1.1" id="Capa_1" xmlns="http://www.w3.org/2000/svg" xmlns:xlink="http://www.w3.org/1999/xlink" x="0px" y="0px"
	 width="64px" height="64px" viewBox="0 0 64 64" enable-background="new 0 0 64 64" xml:space="preserve">
<g>
	<rect x="55.442" y="60.205" width="3.951" height="3.795"/>
	<path d="M62.028,45.789c-1.31-0.946-2.962-1.422-4.945-1.422c-1.51,0-2.782,0.332-3.821,0.999c-1.64,1.047-2.516,2.816-2.62,5.312
		h3.794c0-0.72,0.216-1.417,0.64-2.087c0.428-0.674,1.148-1.008,2.171-1.008c1.037,0,1.75,0.273,2.141,0.818
		c0.391,0.548,0.588,1.15,0.588,1.82c0,0.576-0.176,1.104-0.529,1.581c-0.195,0.287-0.448,0.542-0.767,0.782l-0.965,0.75
		c-0.952,0.743-1.54,1.397-1.771,1.964c-0.225,0.569-0.369,1.597-0.421,3.085h3.6c0.01-0.703,0.067-1.224,0.173-1.562
		c0.165-0.527,0.501-0.988,1.009-1.383l0.93-0.731c0.942-0.736,1.583-1.345,1.915-1.819C63.714,52.107,64,51.146,64,50.008
		C64,48.145,63.345,46.737,62.028,45.789z"/>
	<rect x="34.734" y="11" width="7" height="7"/>
	<rect x="46.109" y="32" width="7" height="7"/>
	<rect x="34.734" y="32" width="7" height="7"/>
	<rect x="34.734" y="21.5" width="7" height="7"/>
	<rect x="46.109" y="11" width="7" height="7"/>
	<rect x="46.109" y="21.5" width="7" height="7"/>
	<rect x="10.973" y="31.973" width="7" height="7"/>
	<rect x="23.25" y="11" width="7" height="7"/>
	<rect x="10.973" y="21.473" width="7" height="7"/>
	<path d="M25,56.391H7.391v-49H56.5v31.755H60V4H4v56h34.855V47.896c0-0.234,0.018-0.465,0.035-0.694v-4.556H25V56.391z"/>
	<rect x="10.973" y="10.973" width="7" height="7"/>
	<rect x="23.25" y="32" width="7" height="7"/>
	<rect x="23.25" y="21.5" width="7" height="7"/>
</g>
</svg>
