<?xml version="1.0" encoding="utf-8"?>
<!-- Generator: Adobe Illustrator 14.0.0, SVG Export Plug-In . SVG Version: 6.00 Build 43363)  -->
<!DOCTYPE svg PUBLIC "-//W3C//DTD SVG 1.1//EN" "http://www.w3.org/Graphics/SVG/1.1/DTD/svg11.dtd">
<svg version="1.1" id="Capa_1" xmlns="http://www.w3.org/2000/svg" xmlns:xlink="http://www.w3.org/1999/xlink" x="0px" y="0px"
	 width="64px" height="64px" viewBox="0 0 64 64" enable-background="new 0 0 64 64" xml:space="preserve">
<path fill-rule="evenodd" clip-rule="evenodd" d="M56.166,16.869L31.78,45.662c-1.92,2.264-6.886,4.615-10.479,1.574
	c-1.856-1.576-3.701-6.767-0.283-10.802c0,0,15.77-18.548,15.766-18.545c0.533-0.577,1.725-0.381,2.328,0.125
	c0.61,0.51,0.883,1.575,0.396,2.202c0.146,0.022-15.608,18.397-15.608,18.397c-2.239,2.642-0.829,4.876-0.011,5.569
	c0.948,0.803,2.702,2.029,5.266-0.997L53.41,14.544c2.949-3.789-0.827-8.332-1.556-8.892c-1.452-1.233-6.334-3.001-8.869-0.006
	L9.895,44.719c-3.514,4.143-1.933,9.61,1.737,13.005c4.443,3.549,9.952,4.22,13.522-0.002L50.661,27.52
	c0.521-0.614,1.751-0.431,2.372,0.09c0.618,0.525,0.892,1.629,0.364,2.255L27.91,60.048c-4.572,5.409-12.907,4.993-18.623,0.406
	c-4.861-4.488-6.62-12.791-2.147-18.068l33.099-39.07c3.628-4.276,10.464-4.403,13.891-0.457
	C56.854,4.75,60.569,11.072,56.166,16.869z"/>
</svg>
