<?xml version="1.0" encoding="utf-8"?>
<!-- Generator: Adobe Illustrator 14.0.0, SVG Export Plug-In . SVG Version: 6.00 Build 43363)  -->
<!DOCTYPE svg PUBLIC "-//W3C//DTD SVG 1.1//EN" "http://www.w3.org/Graphics/SVG/1.1/DTD/svg11.dtd">
<svg version="1.1" id="Capa_1" xmlns="http://www.w3.org/2000/svg" xmlns:xlink="http://www.w3.org/1999/xlink" x="0px" y="0px"
	 width="64px" height="64px" viewBox="0 0 64 64" enable-background="new 0 0 64 64" xml:space="preserve">
<path d="M54.112,45.114L40.996,32L54.11,18.886c2.504-2.504,2.52-6.549,0.035-9.033c-2.483-2.484-6.528-2.468-9.033,0.036L32,23.003
	L18.886,9.889c-2.504-2.504-6.549-2.52-9.033-0.036c-2.484,2.484-2.468,6.528,0.036,9.033L23.003,32L9.889,45.114
	c-2.505,2.505-2.52,6.548-0.036,9.032c2.484,2.484,6.528,2.47,9.033-0.034L32,40.996l13.114,13.115
	c2.505,2.505,6.548,2.519,9.032,0.034C56.631,51.663,56.616,47.619,54.112,45.114z"/>
</svg>
