<?xml version="1.0" encoding="utf-8"?>
<!-- Generator: Adobe Illustrator 14.0.0, SVG Export Plug-In . SVG Version: 6.00 Build 43363)  -->
<!DOCTYPE svg PUBLIC "-//W3C//DTD SVG 1.1//EN" "http://www.w3.org/Graphics/SVG/1.1/DTD/svg11.dtd">
<svg version="1.1" id="Capa_1" xmlns="http://www.w3.org/2000/svg" xmlns:xlink="http://www.w3.org/1999/xlink" x="0px" y="0px"
	 width="64px" height="64px" viewBox="0 0 64 64" enable-background="new 0 0 64 64" xml:space="preserve">
<path id="cancel_1_" d="M49.845,9.057c-1.407-1.408-3.688-1.408-5.097,0L32.001,21.799L19.255,9.058
	c-1.408-1.408-3.691-1.408-5.099,0l-5.099,5.098c-1.41,1.408-1.41,3.691,0,5.098L21.8,32L9.058,44.746
	c-1.41,1.406-1.41,3.689,0,5.097l5.097,5.099c1.409,1.408,3.691,1.408,5.099,0L32,42.198l12.748,12.745
	c1.407,1.407,3.688,1.407,5.096,0l5.099-5.099c1.409-1.408,1.409-3.69,0-5.098L42.199,32.001l12.744-12.746
	c1.409-1.41,1.409-3.692,0-5.1L49.845,9.057z"/>
</svg>
