<?xml version="1.0" encoding="utf-8"?>
<!-- Generator: Adobe Illustrator 14.0.0, SVG Export Plug-In . SVG Version: 6.00 Build 43363)  -->
<!DOCTYPE svg PUBLIC "-//W3C//DTD SVG 1.1//EN" "http://www.w3.org/Graphics/SVG/1.1/DTD/svg11.dtd">
<svg version="1.1" id="Capa_1" xmlns="http://www.w3.org/2000/svg" xmlns:xlink="http://www.w3.org/1999/xlink" x="0px" y="0px"
	 width="64px" height="64px" viewBox="0 0 64 64" enable-background="new 0 0 64 64" xml:space="preserve">
<path id="on_air" d="M58.916,24.003c-14.866-14.501-38.965-14.501-53.83,0L0,19.043l0.721-0.717
	c17.274-16.852,45.283-16.852,62.557,0L64,19.043L58.916,24.003z M54.474,28.563l0.521,0.53l-3.673,3.672
	c-10.737-10.738-28.149-10.738-38.886,0l-3.675-3.672l0.521-0.53C21.76,16.084,41.994,16.084,54.474,28.563z M46.065,36.973
	l0.516,0.534l-3.667,3.669c-6.096-6.096-15.977-6.096-22.072,0l-3.668-3.669l0.516-0.534C25.524,29.135,38.23,29.136,46.065,36.973z
	 M36.839,46.323c2.744,2.742,2.744,7.19,0,9.933c-2.741,2.743-7.189,2.743-9.933,0c-2.742-2.742-2.742-7.19,0-9.933
	C29.649,43.579,34.098,43.579,36.839,46.323z"/>
</svg>
