<?xml version="1.0" encoding="utf-8"?>
<!-- Generator: Adobe Illustrator 14.0.0, SVG Export Plug-In . SVG Version: 6.00 Build 43363)  -->
<!DOCTYPE svg PUBLIC "-//W3C//DTD SVG 1.1//EN" "http://www.w3.org/Graphics/SVG/1.1/DTD/svg11.dtd">
<svg version="1.1" id="Capa_1" xmlns="http://www.w3.org/2000/svg" xmlns:xlink="http://www.w3.org/1999/xlink" x="0px" y="0px"
	 width="64px" height="64px" viewBox="0 0 64 64" enable-background="new 0 0 64 64" xml:space="preserve">
<path id="arrow_back_6_1_" d="M11.471,12.156c-1.63,0-2.953,1.366-2.953,3.053v33.583c0,1.685,1.323,3.052,2.953,3.052h5.366
	c1.631,0,2.953-1.367,2.953-3.052V15.209c0-1.687-1.322-3.053-2.953-3.053H11.471z M24.526,49.359c0-1.813,0-33.656,0-34.908
	c0-1.622,1.502-2.831,2.986-1.882c1.189,0.761,24.951,16.108,26.979,17.421c1.331,0.862,1.312,2.918,0,3.781
	c-1.46,0.963-25.314,16.385-27.042,17.457C26.187,52.016,24.526,51.146,24.526,49.359z"/>
</svg>
