<?xml version="1.0" encoding="utf-8"?>
<!-- Generator: Adobe Illustrator 14.0.0, SVG Export Plug-In . SVG Version: 6.00 Build 43363)  -->
<!DOCTYPE svg PUBLIC "-//W3C//DTD SVG 1.1//EN" "http://www.w3.org/Graphics/SVG/1.1/DTD/svg11.dtd">
<svg version="1.1" id="Capa_1" xmlns="http://www.w3.org/2000/svg" xmlns:xlink="http://www.w3.org/1999/xlink" x="0px" y="0px"
	 width="64px" height="64px" viewBox="0 0 64 64" enable-background="new 0 0 64 64" xml:space="preserve">
<path id="arrow_back_6_3_" d="M0.111,49.048C0.105,47.275,0.004,16.181,0,14.958c-0.006-1.584,1.456-2.769,2.909-1.847
	c1.164,0.74,24.418,15.65,26.403,16.925c1.302,0.838,1.287,2.844,0.012,3.693C27.9,34.673,4.655,49.811,2.973,50.863
	C1.74,51.635,0.117,50.792,0.111,49.048z M33.826,49.109c-0.006-1.771-0.107-32.867-0.111-34.09
	c-0.006-1.584,1.456-2.769,2.909-1.847c1.164,0.74,24.418,15.65,26.403,16.925c1.302,0.838,1.287,2.844,0.012,3.692
	c-1.424,0.944-24.669,16.083-26.352,17.135C35.455,51.697,33.832,50.855,33.826,49.109z"/>
</svg>
