<?xml version="1.0" encoding="utf-8"?>
<!-- Generator: Adobe Illustrator 14.0.0, SVG Export Plug-In . SVG Version: 6.00 Build 43363)  -->
<!DOCTYPE svg PUBLIC "-//W3C//DTD SVG 1.1//EN" "http://www.w3.org/Graphics/SVG/1.1/DTD/svg11.dtd">
<svg version="1.1" id="Capa_1" xmlns="http://www.w3.org/2000/svg" xmlns:xlink="http://www.w3.org/1999/xlink" x="0px" y="0px"
	 width="64px" height="64px" viewBox="0 0 64 64" enable-background="new 0 0 64 64" xml:space="preserve">
<path fill-rule="evenodd" clip-rule="evenodd" d="M59.307,64H27.539c-1.754,0-3.178-1.424-3.178-3.18V41.102
	C13.465,38.69,10.938,34.59,10.659,28.64c2.434,4.206,4.801,7.302,13.702,7.155V19.496c0-1.755,1.424-3.178,3.178-3.178h22.236
	l12.708,12.716V60.82C62.483,62.576,61.062,64,59.307,64z M57.717,30.622h-9.528v-9.537H30.716c-0.877,0-1.589,0.712-1.589,1.59
	v12.792c1.253-0.139,2.566-0.307,4.021-0.539l-0.151-4.624l0,0c0,0,8.69,7.751,8.567,8.4c-0.104-0.48-8.567,8.629-8.567,8.629
	l0.151-4.85c-1.438-0.158-2.756-0.337-4.021-0.526v15.685c0,0.878,0.712,1.59,1.589,1.59H56.13c0.877,0,1.587-0.712,1.587-1.59
	V30.622z M33.702,49.695h19.251v3.179H33.702V49.695z M41.287,43.337h11.666v3.179h-14.93L41.287,43.337z M44.195,36.98h8.758v3.179
	h-8.758V36.98z M20.445,30.198h-5.733l-1.709-3.179h7.442V30.198z M10.783,20.663h9.662v3.179h-9.662V20.663z M25.343,4.769H7.871
	c-0.878,0-1.589,0.711-1.589,1.589v34.967c0,0.878,0.711,1.589,1.589,1.589h12.574v4.769H4.694c-1.755,0-3.178-1.424-3.178-3.18
	V3.179C1.517,1.423,2.939,0,4.694,0h22.236l12.708,12.716v0.556H25.343V4.769z"/>
</svg>
