<?xml version="1.0" encoding="utf-8"?>
<!-- Generator: Adobe Illustrator 14.0.0, SVG Export Plug-In . SVG Version: 6.00 Build 43363)  -->
<!DOCTYPE svg PUBLIC "-//W3C//DTD SVG 1.1//EN" "http://www.w3.org/Graphics/SVG/1.1/DTD/svg11.dtd">
<svg version="1.1" id="Capa_1" xmlns="http://www.w3.org/2000/svg" xmlns:xlink="http://www.w3.org/1999/xlink" x="0px" y="0px"
	 width="64px" height="64px" viewBox="0 0 64 64" enable-background="new 0 0 64 64" xml:space="preserve">
<path fill-rule="evenodd" clip-rule="evenodd" d="M59.307,64H27.539c-1.754,0-3.177-1.423-3.177-3.18V19.496
	c0-1.755,1.423-3.179,3.177-3.179h22.236l12.708,12.717V60.82C62.483,62.577,61.062,64,59.307,64z M57.718,30.622h-9.53v-9.537
	H30.715c-0.876,0-1.588,0.712-1.588,1.59v34.967c0,0.878,0.712,1.59,1.588,1.59h25.416c0.876,0,1.587-0.712,1.587-1.59V30.622z
	 M33.702,49.695h19.251v3.179H33.702V49.695z M33.827,43.337h19.126v3.179H33.827V43.337z M33.628,36.979h19.325v3.179H33.628
	V36.979z M36.343,8.064h4.675v4.406h-4.675V8.064z M36.343,0h1.499c1.754,0,3.176,1.423,3.176,3.179v1.677h-4.675V0z M27.64,0h4.352
	v4.769H27.64V0z M19.248,0h4.351v4.769h-4.351V0z M10.544,42.914h4.352v4.768h-4.352V42.914z M10.544,0h4.352v4.769h-4.352V0z
	 M1.517,44.502v-1.518h4.676v4.697H4.694C2.94,47.682,1.517,46.259,1.517,44.502z M1.517,34.227h4.676v4.406H1.517V34.227z
	 M1.517,25.524h4.676v4.352H1.517V25.524z M1.517,16.821h4.676v4.351H1.517V16.821z M1.517,8.064h4.676v4.406H1.517V8.064z
	 M1.517,3.179C1.517,1.423,2.94,0,4.694,0h1.499v4.855H1.517V3.179z M23.765,47.682h-4.517v-4.768h4.517V47.682z"/>
</svg>
