<?xml version="1.0" encoding="utf-8"?>
<!-- Generator: Adobe Illustrator 14.0.0, SVG Export Plug-In . SVG Version: 6.00 Build 43363)  -->
<!DOCTYPE svg PUBLIC "-//W3C//DTD SVG 1.1//EN" "http://www.w3.org/Graphics/SVG/1.1/DTD/svg11.dtd">
<svg version="1.1" id="Capa_1" xmlns="http://www.w3.org/2000/svg" xmlns:xlink="http://www.w3.org/1999/xlink" x="0px" y="0px"
	 width="64px" height="64px" viewBox="0 0 64 64" enable-background="new 0 0 64 64" xml:space="preserve">
<path id="email_3" d="M43.159,39.18L64,20.068v38.224L43.159,39.18z M61.587,17.567c-2.343,2.16-24.562,22.646-25.881,23.896
	c-1.91,1.815-4.271,1.619-6.398,0C27.283,39.921,3.474,17.514,3.474,17.514H3.381c0,0,0.025-0.025,0.048-0.044
	c-0.021-0.021-0.048-0.045-0.048-0.045h0.094c-0.298-0.216,58.236-0.356,58.112-0.053h0.214c0,0-0.042,0.04-0.106,0.098
	c0.064,0.059,0.106,0.098,0.106,0.098H61.587z M0,58.292V20.068L20.844,39.18L0,58.292z M29.309,46.649
	c2.127,1.619,4.487,1.815,6.397,0c0.396-0.373,2.665-2.476,5.713-5.288l19.795,18.153C60.904,59.812,60.487,60,60.022,60H5.048
	C4.478,60,4,59.709,3.685,59.284l19.653-18.02C26.379,44.074,28.716,46.197,29.309,46.649z"/>
</svg>
