<?xml version="1.0" encoding="utf-8"?>
<!-- Generator: Adobe Illustrator 14.0.0, SVG Export Plug-In . SVG Version: 6.00 Build 43363)  -->
<!DOCTYPE svg PUBLIC "-//W3C//DTD SVG 1.1//EN" "http://www.w3.org/Graphics/SVG/1.1/DTD/svg11.dtd">
<svg version="1.1" id="Capa_1" xmlns="http://www.w3.org/2000/svg" xmlns:xlink="http://www.w3.org/1999/xlink" x="0px" y="0px"
	 width="64px" height="64px" viewBox="0 0 64 64" enable-background="new 0 0 64 64" xml:space="preserve">
<path id="email_open" d="M43.159,44.35L64,26.314v36.075L43.159,44.35z M61.587,23.954c-2.342,2.038-24.562,21.373-25.881,22.552
	c-1.912,1.713-4.271,1.527-6.397,0C27.284,45.05,5.043,25.294,3.475,23.902H3.38c0,0,0.026-0.022,0.047-0.042
	c-0.021-0.019-0.047-0.042-0.047-0.042h0.095c1.568-1.39,23.809-21.147,25.834-22.602c2.126-1.528,4.485-1.713,6.397,0
	c1.319,1.18,23.539,20.514,25.881,22.552h0.214c0,0-0.042,0.037-0.107,0.093c0.065,0.056,0.107,0.093,0.107,0.093H61.587z M0,62.389
	V26.314L20.843,44.35L0,62.389z M29.309,51.4c2.126,1.527,4.485,1.711,6.397,0c0.395-0.354,2.666-2.336,5.712-4.991l19.798,17.132
	C60.905,63.822,60.487,64,60.023,64H5.047C4.478,64,4,63.725,3.684,63.325l19.653-17.009C26.378,48.971,28.715,50.975,29.309,51.4z"
	/>
</svg>
