<?xml version="1.0" encoding="utf-8"?>
<!-- Generator: Adobe Illustrator 14.0.0, SVG Export Plug-In . SVG Version: 6.00 Build 43363)  -->
<!DOCTYPE svg PUBLIC "-//W3C//DTD SVG 1.1//EN" "http://www.w3.org/Graphics/SVG/1.1/DTD/svg11.dtd">
<svg version="1.1" id="Capa_1" xmlns="http://www.w3.org/2000/svg" xmlns:xlink="http://www.w3.org/1999/xlink" x="0px" y="0px"
	 width="64px" height="64px" viewBox="0 0 64 64" enable-background="new 0 0 64 64" xml:space="preserve">
<path id="new_tag_1_" d="M60.887,55.829c-4.146,4.147-10.875,4.147-15.023,0c-4.149-4.151-4.149-10.877,0-15.026
	c4.148-4.15,10.878-4.15,15.023,0C65.038,44.951,65.038,51.678,60.887,55.829z M60.141,48.166c0-0.734-0.595-1.327-1.328-1.327h-3.9
	v-3.903c0-0.732-0.594-1.326-1.329-1.326H53.17c-0.734,0-1.33,0.594-1.33,1.326v3.903h-3.9c-0.733,0-1.328,0.593-1.328,1.327v0.415
	c0,0.733,0.595,1.328,1.328,1.328h3.9v3.901c0,0.733,0.596,1.328,1.33,1.328h0.413c0.735,0,1.329-0.595,1.329-1.328v-3.901h3.9
	c0.733,0,1.328-0.595,1.328-1.328V48.166z M44.123,38.561c-2.896,2.896-4.02,6.864-3.445,10.625H1.5c-0.828,0-1.5-0.672-1.5-1.5
	V16.561c0-0.829,0.672-1.5,1.5-1.5h52.874c0.827,0,1.5,0.671,1.5,1.5v18.757C51.797,34.303,47.311,35.373,44.123,38.561z
	 M40.659,31.667h-29.57v1.929h29.57V31.667z M40.697,37.709l-16.1-0.042v1.929l16.1,0.043V37.709z M49.016,21.382h-5.142v5.143
	h5.142V21.382z"/>
</svg>
