<?xml version="1.0" encoding="utf-8"?>
<!-- Generator: Adobe Illustrator 14.0.0, SVG Export Plug-In . SVG Version: 6.00 Build 43363)  -->
<!DOCTYPE svg PUBLIC "-//W3C//DTD SVG 1.1//EN" "http://www.w3.org/Graphics/SVG/1.1/DTD/svg11.dtd">
<svg version="1.1" id="Capa_1" xmlns="http://www.w3.org/2000/svg" xmlns:xlink="http://www.w3.org/1999/xlink" x="0px" y="0px"
	 width="64px" height="64px" viewBox="0 0 64 64" enable-background="new 0 0 64 64" xml:space="preserve">
<path id="euro" d="M7.872,25.634c0-0.998,0.753-1.808,1.682-1.808h7.977C21.003,10.636,32.676,0.751,46.76,0.013
	c0.105-0.029,8.336,0,8.336,0c0.666,0,1.207,0.541,1.207,1.207v7.733c0,0.667-0.541,1.207-1.207,1.207h-6.631
	c-9.152,0-16.988,5.661-20.22,13.665h12.827c0.928,0,1.68,0.811,1.68,1.808v2.714c0,0.999-0.752,1.809-1.68,1.809H26.739
	c-0.053,0.608-0.076,1.221-0.076,1.842c0,0.62,0.023,1.236,0.076,1.841h14.155c0.93,0,1.684,0.812,1.684,1.81v2.715
	c0,0.998-0.754,1.808-1.684,1.808H28.245c3.232,8.004,11.067,13.664,20.22,13.664h6.631c0.666,0,1.207,0.542,1.207,1.209v7.737
	c0,0.665-0.541,1.207-1.207,1.207c0,0-8.23,0.027-8.336,0c-14.084-0.74-25.756-10.623-29.229-23.814H9.378
	c-0.928,0-1.681-0.81-1.681-1.809v-2.713c0-1,0.753-1.81,1.681-1.81h7.151c-0.033-0.609-0.053-1.224-0.053-1.842
	c0-0.618,0.021-1.232,0.053-1.842H9.554c-0.929,0-1.682-0.81-1.682-1.808V25.634z"/>
</svg>
