<?xml version="1.0" encoding="utf-8"?>
<!-- Generator: Adobe Illustrator 14.0.0, SVG Export Plug-In . SVG Version: 6.00 Build 43363)  -->
<!DOCTYPE svg PUBLIC "-//W3C//DTD SVG 1.1//EN" "http://www.w3.org/Graphics/SVG/1.1/DTD/svg11.dtd">
<svg version="1.1" id="Capa_1" xmlns="http://www.w3.org/2000/svg" xmlns:xlink="http://www.w3.org/1999/xlink" x="0px" y="0px"
	 width="64px" height="64px" viewBox="0 0 64 64" enable-background="new 0 0 64 64" xml:space="preserve">
<path d="M60.27,51.975c-4.052,5.082-10.56,8.375-17.896,8.375c-7.337,0-13.844-3.293-17.897-8.375h-0.035
	c4.062-5.078,10.58-8.371,17.932-8.371c7.351,0,13.871,3.293,17.931,8.371H60.27z M41.977,45.596c-3.521,0-6.379,2.856-6.379,6.379
	c0,3.524,2.856,6.381,6.379,6.381c3.521,0,6.375-2.855,6.375-6.381C48.352,48.452,45.496,45.596,41.977,45.596z M41.977,55.166
	c-1.764,0-3.188-1.43-3.188-3.191c0-1.76,1.426-3.188,3.188-3.188c1.758,0,3.187,1.429,3.187,3.188
	C45.162,53.736,43.734,55.166,41.977,55.166z M19.117,52.103l-8.557,0.019c-1.461,0-2.648-1.187-2.648-2.65V23.356
	c0-1.463,1.187-2.65,2.648-2.65h22.512v-2.042c0-0.732,0.592-1.325,1.323-1.325h18.205c0.731,0,2.151,0.593,2.151,1.325v2.137
	c1.142,0.296,1.16,1.323,1.16,2.555v20.038c-4.343-2.107-9.281-3.306-14.527-3.306C31.059,40.088,24.822,44.966,19.117,52.103z"/>
</svg>
