<?xml version="1.0" encoding="utf-8"?>
<!-- Generator: Adobe Illustrator 14.0.0, SVG Export Plug-In . SVG Version: 6.00 Build 43363)  -->
<!DOCTYPE svg PUBLIC "-//W3C//DTD SVG 1.1//EN" "http://www.w3.org/Graphics/SVG/1.1/DTD/svg11.dtd">
<svg version="1.1" id="Capa_1" xmlns="http://www.w3.org/2000/svg" xmlns:xlink="http://www.w3.org/1999/xlink" x="0px" y="0px"
	 width="64px" height="64px" viewBox="0 0 64 64" enable-background="new 0 0 64 64" xml:space="preserve">
<path d="M53.197,51.97H10.495c-1.463,0-2.648-1.186-2.648-2.646V23.208c0-1.464,1.186-2.65,2.648-2.65h22.509v-2.041
	c0-0.733,0.594-1.325,1.324-1.325h18.207c0.732,0,2.152,0.592,2.152,1.325v2.137c1.143,0.293,1.158,1.323,1.158,2.554v26.115
	C55.846,50.784,54.658,51.97,53.197,51.97z M23.804,16.926c3.294-3.271-0.186-14.231-17.217-13.521L6.376,0
	c0,0-5.246,6.898-5.37,6.503c-0.243-0.098,6.479,5.42,6.479,5.42L7.077,8.696C17.118,4.511,26.375,13.914,23.804,16.926z"/>
</svg>
