<?xml version="1.0" encoding="utf-8"?>
<!-- Generator: Adobe Illustrator 14.0.0, SVG Export Plug-In . SVG Version: 6.00 Build 43363)  -->
<!DOCTYPE svg PUBLIC "-//W3C//DTD SVG 1.1//EN" "http://www.w3.org/Graphics/SVG/1.1/DTD/svg11.dtd">
<svg version="1.1" id="Capa_1" xmlns="http://www.w3.org/2000/svg" xmlns:xlink="http://www.w3.org/1999/xlink" x="0px" y="0px"
	 width="64px" height="64px" viewBox="0 0 64 64" enable-background="new 0 0 64 64" xml:space="preserve">
<path d="M53.042,52.23H10.338c-1.462,0-2.649-1.187-2.649-2.649V23.467c0-1.463,1.187-2.65,2.649-2.65H32.85v-2.041
	c0-0.733,0.591-1.325,1.321-1.325h18.207c0.731,0,2.152,0.592,2.152,1.325v2.136c1.143,0.293,1.159,1.322,1.159,2.554V49.58
	C55.689,51.044,54.503,52.23,53.042,52.23z M20.349,13.198l-2.175,2.391c0,0,8.615-0.648,8.362-0.708
	c-0.327,0.251-0.652-8.353-0.652-8.353l-2.115,2.648C10.328-1.127,1.24,5.797,2.05,10.336C1.68,6.42,14.575,4.062,20.349,13.198z"/>
</svg>
