<?xml version="1.0" encoding="utf-8"?>
<!-- Generator: Adobe Illustrator 14.0.0, SVG Export Plug-In . SVG Version: 6.00 Build 43363)  -->
<!DOCTYPE svg PUBLIC "-//W3C//DTD SVG 1.1//EN" "http://www.w3.org/Graphics/SVG/1.1/DTD/svg11.dtd">
<svg version="1.1" id="Capa_1" xmlns="http://www.w3.org/2000/svg" xmlns:xlink="http://www.w3.org/1999/xlink" x="0px" y="0px"
	 width="64px" height="64px" viewBox="0 0 64 64" enable-background="new 0 0 64 64" xml:space="preserve">
<path fill-rule="evenodd" clip-rule="evenodd" d="M59.159,59.988V36.11h-4.856v-4.588l4.856-0.007V11.592
	c0-0.865-0.7-1.567-1.566-1.567H6.587c-0.865,0-1.566,0.702-1.566,1.567l0.01,19.93h4.544v4.588H5.021v9.403L0,45.521V10.659
	C0,7.534,2.702,5,5.817,5l52.37,0.187c3.114,0,5.771,2.656,5.843,5.701l0.042,49.037L59.159,59.988z M31.416,18.909H10.021v-3.036
	h21.395V18.909z M24.83,23.487H10.025v-3.036H24.83V23.487z M22.992,36.11h-8.944v-4.588h8.944V36.11z M36.411,36.11h-8.944v-4.588
	h8.944V36.11z M49.83,36.11h-8.946v-4.588h8.946V36.11z M47.351,19.024c0-1.711,1.386-3.098,3.097-3.098s3.099,1.387,3.099,3.098
	c0,0.612-0.178,1.181-0.484,1.661c0.271,0.271,1.514,1.51,1.689,1.687c0.232,0.232,0.231,0.608,0,0.84
	c-0.23,0.231-0.604,0.232-0.838,0.006v0.001l-1.672-1.671c-0.507,0.36-1.125,0.573-1.794,0.573
	C48.736,22.122,47.351,20.735,47.351,19.024z"/>
</svg>
