<?xml version="1.0" encoding="utf-8"?>
<!-- Generator: Adobe Illustrator 14.0.0, SVG Export Plug-In . SVG Version: 6.00 Build 43363)  -->
<!DOCTYPE svg PUBLIC "-//W3C//DTD SVG 1.1//EN" "http://www.w3.org/Graphics/SVG/1.1/DTD/svg11.dtd">
<svg version="1.1" id="Capa_1" xmlns="http://www.w3.org/2000/svg" xmlns:xlink="http://www.w3.org/1999/xlink" x="0px" y="0px"
	 width="64px" height="64px" viewBox="0 0 64 64" enable-background="new 0 0 64 64" xml:space="preserve">
<path fill-rule="evenodd" clip-rule="evenodd" d="M57.044,45.942H6.996c-2.003,0-3.626-1.623-3.626-3.629V3.629
	C3.37,1.625,4.993,0,6.996,0h50.048c2.003,0,3.627,1.625,3.627,3.629v38.685C60.671,44.319,59.047,45.942,57.044,45.942z
	 M53.843,8.618c0-1.002-0.812-1.814-1.813-1.814H12.01c-1.001,0-1.813,0.812-1.813,1.814v28.663c0,1.001,0.813,1.814,1.813,1.814
	H52.03c1.001,0,1.813-0.813,1.813-1.814V8.618z M25.423,27.172l3.429,3.43l10.29-10.289l6.859,13.719H18.563L25.423,27.172z
	 M23.708,20.313c-2.841,0-5.145-2.303-5.145-5.145c0-2.841,2.304-5.145,5.145-5.145s5.144,2.303,5.144,5.145
	C28.852,18.01,26.549,20.313,23.708,20.313z M60.676,55.633H3.324v-4.991h57.352C60.627,50.594,60.676,55.633,60.676,55.633z
	 M40.029,64H3.324v-4.991h36.705C39.98,58.962,40.029,64,40.029,64z"/>
</svg>
