<?xml version="1.0" encoding="utf-8"?>
<!-- Generator: Adobe Illustrator 14.0.0, SVG Export Plug-In . SVG Version: 6.00 Build 43363)  -->
<!DOCTYPE svg PUBLIC "-//W3C//DTD SVG 1.1//EN" "http://www.w3.org/Graphics/SVG/1.1/DTD/svg11.dtd">
<svg version="1.1" id="Capa_1" xmlns="http://www.w3.org/2000/svg" xmlns:xlink="http://www.w3.org/1999/xlink" x="0px" y="0px"
	 width="64px" height="64px" viewBox="0 0 64 64" enable-background="new 0 0 64 64" xml:space="preserve">
<path id="inbox_3" d="M63.316,56.267v3.565H1.354v-3.887L0,57.455V45.199l14.625-16.335V41.12l-3.654,4.079h42.518l-4.111-4.505
	V28.438L64,44.774V57.03L63.316,56.267z M15.317,28.174h11.831l4.949,5.771c0.525,0.613,1.379,0.613,1.906,0l4.946-5.771h9.721
	v11.238H15.317V28.174z M34.004,28.837c-0.526,0.614-1.381,0.613-1.905,0L20.664,15.504c-0.527-0.615-0.527-1.609,0-2.224h3.684
	V7.168h17.224v6.112h3.865c0.527,0.613,0.527,1.607,0,2.224L34.004,28.837z"/>
</svg>
