<?xml version="1.0" encoding="utf-8"?>
<!-- Generator: Adobe Illustrator 14.0.0, SVG Export Plug-In . SVG Version: 6.00 Build 43363)  -->
<!DOCTYPE svg PUBLIC "-//W3C//DTD SVG 1.1//EN" "http://www.w3.org/Graphics/SVG/1.1/DTD/svg11.dtd">
<svg version="1.1" id="Capa_1" xmlns="http://www.w3.org/2000/svg" xmlns:xlink="http://www.w3.org/1999/xlink" x="0px" y="0px"
	 width="64px" height="64px" viewBox="0 0 64 64" enable-background="new 0 0 64 64" xml:space="preserve">
<path fill-rule="evenodd" clip-rule="evenodd" d="M45.989,42.271V17.234L34.507,5.746H13.458c-1.056,0-1.915,0.857-1.915,1.915
	v42.128c0,1.058,0.858,1.915,1.915,1.915h6.666l-0.062,5.745H9.63c-2.114,0-3.828-1.716-3.828-3.831V3.83
	C5.803,1.715,7.517,0,9.63,0h26.792L51.73,15.32v26.952H45.989z M30.83,49.429c0.054,0,9.45,0.004,9.489,0.004
	c3.691,0,6.686,3.258,6.686,7.278c0,0.107-0.013,0.302-0.013,0.302c-0.209,0.909-0.978,1.556-1.878,1.556
	c-0.958,0-1.729-0.729-1.878-1.726c0,0-0.003-0.109-0.003-0.132c0-1.903-1.417-3.445-3.165-3.445c-0.019,0-9.166-0.002-9.19-0.002
	c-1.749,0-3.167,1.543-3.167,3.446s1.418,3.446,3.167,3.446c0.896,0,2.192-0.004,2.192-0.004c0.505,1.604,1.513,2.956,2.817,3.831
	c0,0-2.485,0.002-5.058,0.002c-3.691,0-6.685-3.259-6.685-7.279C24.146,52.687,27.139,49.429,30.83,49.429z M35.35,56.415
	c0.209-0.909,0.979-1.556,1.879-1.556c0.958,0,1.729,0.729,1.877,1.725c0,0,0.003,0.109,0.003,0.132
	c0,1.903,1.417,3.446,3.166,3.446c0.018,0,9.166,0.002,9.19,0.002c1.749,0,3.165-1.542,3.165-3.445s-1.416-3.447-3.165-3.447
	c-0.896,0-2.192,0.005-2.192,0.005c-0.507-1.605-1.513-2.956-2.817-3.833c0,0,2.485-0.001,5.056-0.001
	c3.693,0,6.687,3.258,6.687,7.278c0,4.02-2.993,7.279-6.687,7.279c-0.052,0-9.448-0.005-9.486-0.005
	c-3.693,0-6.687-3.259-6.687-7.277C35.338,56.609,35.35,56.415,35.35,56.415z"/>
</svg>
