<?xml version="1.0" encoding="utf-8"?>
<!-- Generator: Adobe Illustrator 14.0.0, SVG Export Plug-In . SVG Version: 6.00 Build 43363)  -->
<!DOCTYPE svg PUBLIC "-//W3C//DTD SVG 1.1//EN" "http://www.w3.org/Graphics/SVG/1.1/DTD/svg11.dtd">
<svg version="1.1" id="Capa_1" xmlns="http://www.w3.org/2000/svg" xmlns:xlink="http://www.w3.org/1999/xlink" x="0px" y="0px"
	 width="64px" height="64px" viewBox="0 0 64 64" enable-background="new 0 0 64 64" xml:space="preserve">
<path fill-rule="evenodd" clip-rule="evenodd" d="M51.513,64c-0.055,0-9.451-0.005-9.488-0.005c-3.692,0-6.687-3.259-6.687-7.279
	c0-0.106,0.013-0.301,0.013-0.301c0.209-0.909,0.977-1.555,1.878-1.555c0.957,0,1.729,0.728,1.879,1.724
	c0,0,0.002,0.109,0.002,0.132c0,1.903,1.418,3.445,3.164,3.445c0.02,0,9.167,0.003,9.191,0.003c1.749,0,3.167-1.542,3.167-3.445
	s-1.418-3.448-3.167-3.448c-0.896,0-2.191,0.006-2.191,0.006c-0.506-1.604-1.515-2.957-2.817-3.833c0,0,2.483-0.001,5.057-0.001
	c3.691,0,6.684,3.258,6.684,7.278S55.204,64,51.513,64z M45.99,17.234L34.509,5.745H13.457c-1.056,0-1.913,0.857-1.913,1.915v42.128
	c0,1.058,0.857,1.916,1.913,1.916h6.666l-0.061,5.744H9.63c-2.112,0-3.826-1.716-3.826-3.831V3.83C5.804,1.715,7.518,0,9.63,0
	h26.792l15.31,15.319v26.952H45.99V17.234z M23.754,27.685c0.981,0.981,0.984,2.571,0.005,3.551
	c-0.979,0.979-2.569,0.978-3.552-0.005c-0.981-0.98-0.984-2.57-0.004-3.551C21.183,26.701,22.772,26.703,23.754,27.685z
	 M31.797,16.203c7.283,7.283,7.298,19.074,0.033,26.339l-0.07,0.064l-2.63-2.63l0.152-0.151c5.777-5.778,5.765-15.159-0.027-20.952
	l-0.139-0.138l2.605-2.605L31.797,16.203z M24.643,23.209l2.55-2.549l0.208,0.208c4.715,4.716,4.725,12.351,0.021,17.054
	l-0.173,0.174l-2.563-2.563l0.081-0.083c3.346-3.345,3.34-8.777-0.016-12.133L24.643,23.209z M30.831,49.427
	c0.053,0,9.449,0.006,9.486,0.006c3.694,0,6.687,3.258,6.687,7.278c0,0.107-0.01,0.302-0.01,0.302
	c-0.21,0.909-0.979,1.557-1.881,1.557c-0.957,0-1.729-0.729-1.876-1.727c0,0-0.003-0.109-0.003-0.132
	c0-1.903-1.417-3.445-3.166-3.445c-0.018,0-9.166-0.002-9.19-0.002c-1.748,0-3.165,1.542-3.165,3.445
	c0,1.905,1.417,3.447,3.165,3.447c0.896,0,2.19-0.003,2.19-0.003c0.509,1.603,1.515,2.955,2.817,3.832c0,0-2.483,0-5.055,0
	c-3.692,0-6.686-3.259-6.686-7.279C24.146,52.688,27.139,49.427,30.831,49.427z"/>
</svg>
