<?xml version="1.0" encoding="utf-8"?>
<!-- Generator: Adobe Illustrator 14.0.0, SVG Export Plug-In . SVG Version: 6.00 Build 43363)  -->
<!DOCTYPE svg PUBLIC "-//W3C//DTD SVG 1.1//EN" "http://www.w3.org/Graphics/SVG/1.1/DTD/svg11.dtd">
<svg version="1.1" id="Capa_1" xmlns="http://www.w3.org/2000/svg" xmlns:xlink="http://www.w3.org/1999/xlink" x="0px" y="0px"
	 width="64px" height="64px" viewBox="0 0 64 64" enable-background="new 0 0 64 64" xml:space="preserve">
<path fill-rule="evenodd" clip-rule="evenodd" d="M45.99,42.272V17.234L34.508,5.745H13.457c-1.057,0-1.915,0.858-1.915,1.916
	v42.129c0,1.058,0.857,1.915,1.915,1.915h6.667l-0.061,5.744H9.629c-2.114,0-3.828-1.714-3.828-3.829V3.829
	C5.802,1.715,7.516,0,9.629,0h26.792l15.311,15.319v26.953H45.99z M30.83,49.43c0.053,0,9.45,0.003,9.489,0.003
	c3.691,0,6.687,3.259,6.687,7.278c0,0.107-0.013,0.302-0.013,0.302c-0.209,0.911-0.979,1.557-1.88,1.557
	c-0.956,0-1.728-0.729-1.877-1.726c0,0-0.003-0.108-0.003-0.132c0-1.903-1.417-3.446-3.166-3.446c-0.018,0-9.165-0.001-9.189-0.001
	c-1.749,0-3.167,1.543-3.167,3.446s1.418,3.445,3.167,3.445c0.896,0,2.19-0.003,2.19-0.003c0.507,1.604,1.514,2.955,2.819,3.832
	c0,0-2.485,0.002-5.058,0.002c-3.691,0-6.686-3.26-6.686-7.279C24.145,52.688,27.139,49.43,30.83,49.43z M35.35,56.417
	c0.209-0.91,0.979-1.557,1.879-1.557c0.957,0,1.729,0.729,1.878,1.725c0,0,0.002,0.108,0.002,0.132c0,1.903,1.418,3.447,3.166,3.447
	c0.018,0,9.166,0.001,9.191,0.001c1.747,0,3.165-1.543,3.165-3.446s-1.418-3.445-3.165-3.445c-0.896,0-2.192,0.002-2.192,0.002
	c-0.507-1.603-1.514-2.954-2.818-3.831c0,0,2.486-0.001,5.057-0.001c3.692,0,6.687,3.258,6.687,7.277
	c0,4.021-2.994,7.279-6.687,7.279c-0.052,0-9.45-0.003-9.488-0.003c-3.692,0-6.686-3.259-6.686-7.278
	C35.338,56.611,35.35,56.417,35.35,56.417z M17.291,40.215h21.061c0,0-0.059,3.864-0.022,3.83H17.291V40.215z M17.291,24.895h12.792
	v3.831H17.291V24.895z M38.125,36.344l-20.834,0.041v-3.83h20.803L38.125,36.344z"/>
</svg>
