<?xml version="1.0" encoding="utf-8"?>
<!-- Generator: Adobe Illustrator 14.0.0, SVG Export Plug-In . SVG Version: 6.00 Build 43363)  -->
<!DOCTYPE svg PUBLIC "-//W3C//DTD SVG 1.1//EN" "http://www.w3.org/Graphics/SVG/1.1/DTD/svg11.dtd">
<svg version="1.1" id="Capa_1" xmlns="http://www.w3.org/2000/svg" xmlns:xlink="http://www.w3.org/1999/xlink" x="0px" y="0px"
	 width="64px" height="64px" viewBox="0 0 64 64" enable-background="new 0 0 64 64" xml:space="preserve">
<path fill-rule="evenodd" clip-rule="evenodd" d="M51.666,37.395V15.246L41.509,5.082H22.888c-0.936,0-1.693,0.759-1.693,1.694
	l-0.351,0.608H34.34l13.543,13.553v23.842h-5.078V22.631L32.646,12.467h-18.62c-0.936,0-1.694,0.758-1.694,1.694V51.43
	c0,0.935,0.759,1.693,1.694,1.693h5.896l-0.11,5.081h-9.172c-1.871,0-3.387-1.517-3.387-3.388V10.773
	c0-1.871,1.516-3.388,3.387-3.388h5.476V3.388C16.116,1.517,17.632,0,19.502,0h23.7l13.544,13.552v23.842H51.666z M36.004,46.347
	H17.417v-3.388h18.587V46.347z M17.417,29.407h11.316v3.388H17.417V29.407z M36.004,39.57H17.417v-3.387h18.587V39.57z
	 M29.395,51.109c0.047,0,8.359,0.005,8.394,0.005c3.266,0,5.914,2.882,5.914,6.438c0,0.097-0.011,0.269-0.011,0.269
	c-0.185,0.804-0.865,1.375-1.661,1.376c-0.848,0-1.529-0.645-1.662-1.526c0,0-0.002-0.097-0.002-0.116
	c0-1.684-1.254-3.049-2.8-3.049c-0.017,0-8.108-0.002-8.13-0.002c-1.548,0-2.802,1.364-2.802,3.048s1.254,3.05,2.802,3.05
	c0.793,0,1.938-0.004,1.938-0.004c0.447,1.419,1.339,2.614,2.492,3.389c0,0-2.197,0.003-4.473,0.003
	c-3.267,0-5.915-2.883-5.915-6.439C23.479,53.993,26.128,51.109,29.395,51.109z M33.392,57.291c0.186-0.805,0.866-1.377,1.663-1.377
	c0.847,0,1.529,0.646,1.66,1.526c0,0,0.002,0.098,0.002,0.117c0,1.684,1.254,3.048,2.801,3.048c0.016,0,8.108,0.002,8.131,0.002
	c1.546,0,2.8-1.365,2.8-3.049s-1.254-3.049-2.8-3.049c-0.794,0-1.939,0.004-1.939,0.004c-0.448-1.42-1.339-2.615-2.492-3.39
	c0,0,2.198-0.001,4.472-0.001c3.268,0,5.915,2.882,5.915,6.439c0,3.554-2.647,6.438-5.915,6.438c-0.046,0-8.358-0.003-8.393-0.003
	c-3.267,0-5.914-2.883-5.914-6.439C33.382,57.463,33.392,57.291,33.392,57.291z"/>
</svg>
