<?xml version="1.0" encoding="utf-8"?>
<!-- Generator: Adobe Illustrator 14.0.0, SVG Export Plug-In . SVG Version: 6.00 Build 43363)  -->
<!DOCTYPE svg PUBLIC "-//W3C//DTD SVG 1.1//EN" "http://www.w3.org/Graphics/SVG/1.1/DTD/svg11.dtd">
<svg version="1.1" id="Capa_1" xmlns="http://www.w3.org/2000/svg" xmlns:xlink="http://www.w3.org/1999/xlink" x="0px" y="0px"
	 width="64px" height="64px" viewBox="0 0 64 64" enable-background="new 0 0 64 64" xml:space="preserve">
<path id="list" d="M20.001,44.052c-2.21,0-4.001,1.792-4.001,4.002v4c0,2.209,1.792,3.998,4.001,3.998h39.997
	c2.211,0,4.002-1.789,4.002-3.998v-4c0-2.211-1.793-4.002-4.002-4.002H20.001z M20.001,26.086c-2.21,0-4.001,1.791-4.001,4v3.999
	c0,2.209,1.792,3.998,4.001,3.998h39.997c2.211,0,4.002-1.789,4.002-3.998v-3.999c0-2.211-1.793-4-4.002-4H20.001z M20.001,7.948
	c-2.21,0-4.001,1.791-4.001,4v4c0,2.208,1.792,4,4.001,4h39.997c2.211,0,4.002-1.791,4.002-4v-4c0-2.209-1.793-4-4.002-4H20.001z
	 M4,44.052c-2.209,0-4,1.792-4,4.002v4c0,2.209,1.792,3.998,4,3.998h4.001c2.208,0,3.999-1.789,3.999-3.998v-4
	c0-2.211-1.791-4.002-3.999-4.002H4z M4,26.086c-2.209,0-4,1.791-4,4v3.999c0,2.209,1.792,3.998,4,3.998h4.001
	c2.208,0,3.999-1.789,3.999-3.998v-3.999c0-2.211-1.791-4-3.999-4H4z M4,7.948c-2.209,0-4,1.791-4,4v4c0,2.208,1.792,4,4,4h4.001
	c2.208,0,3.999-1.791,3.999-4v-4c0-2.209-1.791-4-3.999-4H4z"/>
</svg>
