<?xml version="1.0" encoding="utf-8"?>
<!-- Generator: Adobe Illustrator 14.0.0, SVG Export Plug-In . SVG Version: 6.00 Build 43363)  -->
<!DOCTYPE svg PUBLIC "-//W3C//DTD SVG 1.1//EN" "http://www.w3.org/Graphics/SVG/1.1/DTD/svg11.dtd">
<svg version="1.1" id="Capa_1" xmlns="http://www.w3.org/2000/svg" xmlns:xlink="http://www.w3.org/1999/xlink" x="0px" y="0px"
	 width="64px" height="64px" viewBox="0 0 64 64" enable-background="new 0 0 64 64" xml:space="preserve">
<path id="locate_check" d="M44.316,38.399C40.301,43.215,32.001,64,32.001,64s-8.35-20.885-12.367-25.601
	c-3.227-3.788-9.528-11.285-9.528-16.641C10.105,9.741,19.908,0,32.001,0s21.894,9.741,21.894,21.759
	C53.895,27.034,47.457,34.634,44.316,38.399z M32.001,7.36c-7.113,0-12.882,5.73-12.882,12.8s5.769,12.8,12.882,12.8
	c7.112,0,12.878-5.73,12.878-12.8S39.113,7.36,32.001,7.36z M30.563,26.634c-0.48,0.473-1.258,0.473-1.736,0l-1.304-1.284
	l-0.077-0.083l-3-2.955c-0.479-0.472-0.479-1.238,0-1.711l1.304-1.284c0.479-0.473,1.258-0.473,1.736,0l2.212,2.179l7.377-7.266
	c0.48-0.472,1.258-0.472,1.736,0l1.303,1.284c0.479,0.473,0.479,1.239,0,1.711L30.563,26.634z"/>
</svg>
