<?xml version="1.0" encoding="utf-8"?>
<!-- Generator: Adobe Illustrator 14.0.0, SVG Export Plug-In . SVG Version: 6.00 Build 43363)  -->
<!DOCTYPE svg PUBLIC "-//W3C//DTD SVG 1.1//EN" "http://www.w3.org/Graphics/SVG/1.1/DTD/svg11.dtd">
<svg version="1.1" id="Capa_1" xmlns="http://www.w3.org/2000/svg" xmlns:xlink="http://www.w3.org/1999/xlink" x="0px" y="0px"
	 width="64px" height="64px" viewBox="0 0 64 64" enable-background="new 0 0 64 64" xml:space="preserve">
<path fill-rule="evenodd" clip-rule="evenodd" d="M49.26,43.095l7.575,17.897C57.521,62.615,56.646,64,54.844,64H9.156
	c-1.803,0-2.678-1.385-1.991-3.008l7.573-17.897c0.316-0.75,1.5-1.337,2.653-1.337h9.454c-1.831-3.933-3.753-7.671-5.102-9.254
	c-2.729-3.209-8.059-9.553-8.059-14.085C13.684,8.247,21.976,0,32.204,0s18.521,8.247,18.521,18.418
	c0,4.464-5.445,10.897-8.103,14.085c-1.344,1.611-3.251,5.339-5.069,9.254h9.054C47.759,41.758,48.942,42.345,49.26,43.095z
	 M43.099,17.064c0-5.984-4.878-10.834-10.895-10.834S21.31,11.081,21.31,17.064s4.878,10.834,10.895,10.834
	S43.099,23.048,43.099,17.064z M36.62,43.798c-2.396,5.317-4.416,10.375-4.416,10.375s-2.024-5.06-4.423-10.375H17.733
	c-0.605,0-1.217,0.322-1.367,0.729L11.28,58.264c-0.269,0.728,0.186,1.332,1.023,1.332h39.395c0.838,0,1.292-0.604,1.022-1.332
	l-5.088-13.737c-0.149-0.406-0.76-0.729-1.366-0.729H36.62z"/>
</svg>
