<?xml version="1.0" encoding="utf-8"?>
<!-- Generator: Adobe Illustrator 14.0.0, SVG Export Plug-In . SVG Version: 6.00 Build 43363)  -->
<!DOCTYPE svg PUBLIC "-//W3C//DTD SVG 1.1//EN" "http://www.w3.org/Graphics/SVG/1.1/DTD/svg11.dtd">
<svg version="1.1" id="Capa_1" xmlns="http://www.w3.org/2000/svg" xmlns:xlink="http://www.w3.org/1999/xlink" x="0px" y="0px"
	 width="64px" height="64px" viewBox="0 0 64 64" enable-background="new 0 0 64 64" xml:space="preserve">
<path id="locate_3" d="M19.891,19.026c0-6.688,5.423-12.108,12.109-12.108c6.685,0,12.107,5.421,12.107,12.108
	c0,6.687-5.423,12.108-12.107,12.108C25.313,31.134,19.891,25.714,19.891,19.026z M12.973,19.026
	c0,10.508,8.521,19.027,19.027,19.027s19.027-8.521,19.027-19.027C51.027,8.519,42.508,0,32,0C21.492,0,12.973,8.519,12.973,19.026z
	 M25.188,41.623C29.313,46.466,32,64,32,64s2.712-17.487,6.839-22.433l-6.946,0.486L25.188,41.623z"/>
</svg>
