<?xml version="1.0" encoding="utf-8"?>
<!-- Generator: Adobe Illustrator 14.0.0, SVG Export Plug-In . SVG Version: 6.00 Build 43363)  -->
<!DOCTYPE svg PUBLIC "-//W3C//DTD SVG 1.1//EN" "http://www.w3.org/Graphics/SVG/1.1/DTD/svg11.dtd">
<svg version="1.1" id="Capa_1" xmlns="http://www.w3.org/2000/svg" xmlns:xlink="http://www.w3.org/1999/xlink" x="0px" y="0px"
	 width="64px" height="64px" viewBox="0 0 64 64" enable-background="new 0 0 64 64" xml:space="preserve">
<path id="locate" d="M42.458,36.399c-0.027,0.192-0.075,0.388-0.145,0.583c-0.406,1.148-8.602,24.103-9.302,26.06
	c-0.46,1.288-1.558,1.266-2.02,0c-0.515-1.411-8.75-24.45-9.322-26.119c-0.06-0.169-0.1-0.344-0.123-0.522
	c-5.97-3.416-9.97-9.671-9.97-16.822C11.576,8.766,20.72,0,32,0c11.278,0,20.423,8.766,20.423,19.579
	C52.423,26.729,48.427,32.981,42.458,36.399z"/>
</svg>
