<?xml version="1.0" encoding="utf-8"?>
<!-- Generator: Adobe Illustrator 14.0.0, SVG Export Plug-In . SVG Version: 6.00 Build 43363)  -->
<!DOCTYPE svg PUBLIC "-//W3C//DTD SVG 1.1//EN" "http://www.w3.org/Graphics/SVG/1.1/DTD/svg11.dtd">
<svg version="1.1" id="Capa_1" xmlns="http://www.w3.org/2000/svg" xmlns:xlink="http://www.w3.org/1999/xlink" x="0px" y="0px"
	 width="64px" height="64px" viewBox="0 0 64 64" enable-background="new 0 0 64 64" xml:space="preserve">
<path id="locate_plus" d="M19.119,20.16c0-7.069,5.768-12.8,12.881-12.8c7.113,0,12.878,5.73,12.878,12.8S39.113,32.96,32,32.96
	C24.887,32.96,19.119,27.229,19.119,20.16z M10.105,21.759c0,5.355,6.302,12.851,9.528,16.641C23.651,43.115,32,64,32,64
	s8.3-20.785,12.316-25.601c3.141-3.766,9.578-11.365,9.578-16.641C53.895,9.741,44.094,0,32,0C19.908,0,10.105,9.741,10.105,21.759z
	 M30.316,13.474v5.054h-5.052v3.367h5.052v5.053h3.37v-5.053h5.051v-3.367h-5.051v-5.054H30.316z"/>
</svg>
