<?xml version="1.0" encoding="utf-8"?>
<!-- Generator: Adobe Illustrator 14.0.0, SVG Export Plug-In . SVG Version: 6.00 Build 43363)  -->
<!DOCTYPE svg PUBLIC "-//W3C//DTD SVG 1.1//EN" "http://www.w3.org/Graphics/SVG/1.1/DTD/svg11.dtd">
<svg version="1.1" id="Capa_1" xmlns="http://www.w3.org/2000/svg" xmlns:xlink="http://www.w3.org/1999/xlink" x="0px" y="0px"
	 width="64px" height="64px" viewBox="0 0 64 64" enable-background="new 0 0 64 64" xml:space="preserve">
<g>
	<path fill-rule="evenodd" clip-rule="evenodd" d="M35.865,50.362H12.161c-1.127,0-2.039-0.914-2.039-2.04V15.677
		c0-1.128,0.912-2.041,2.039-2.041h29.477v12.243h12.241v9.959c2.117,0.213,4.199,0.838,6.121,1.869V23.839L43.678,7.516H8.081
		C5.827,7.516,4,9.342,4,11.597v40.807c0,2.253,1.827,4.081,4.081,4.081h28.244C35.791,54.484,35.635,52.408,35.865,50.362z"/>
	<path d="M60.548,43.888c-4.598-4.601-12.06-4.601-16.66,0s-4.601,12.061,0,16.662c4.601,4.601,12.063,4.601,16.66,0
		C65.15,55.948,65.15,48.488,60.548,43.888z M59.719,52.514c0,0.814-0.658,1.472-1.472,1.472h-4.325v4.325
		c0,0.813-0.66,1.474-1.472,1.474h-0.461c-0.813,0-1.472-0.66-1.472-1.474v-4.325H46.19c-0.812,0-1.471-0.657-1.471-1.472v-0.46
		c0-0.812,0.657-1.472,1.471-1.472h4.327v-4.325c0-0.813,0.658-1.474,1.472-1.474h0.461c0.812,0,1.472,0.66,1.472,1.474v4.325h4.325
		c0.813,0,1.472,0.658,1.472,1.472V52.514z"/>
</g>
</svg>
