<?xml version="1.0" encoding="utf-8"?>
<!-- Generator: Adobe Illustrator 14.0.0, SVG Export Plug-In . SVG Version: 6.00 Build 43363)  -->
<!DOCTYPE svg PUBLIC "-//W3C//DTD SVG 1.1//EN" "http://www.w3.org/Graphics/SVG/1.1/DTD/svg11.dtd">
<svg version="1.1" id="Capa_1" xmlns="http://www.w3.org/2000/svg" xmlns:xlink="http://www.w3.org/1999/xlink" x="0px" y="0px"
	 width="64px" height="64px" viewBox="0 0 64 64" enable-background="new 0 0 64 64" xml:space="preserve">
<g>
	<path d="M39.07,50.362h-26.91c-1.127,0-2.039-0.914-2.039-2.04V15.677c0-1.128,0.912-2.041,2.039-2.041h29.477v12.243h12.241
		v13.574L60,49.966V23.839L43.678,7.516H8.081C5.827,7.516,4,9.342,4,11.597v40.807c0,2.253,1.827,4.081,4.081,4.081h27.425
		L39.07,50.362z"/>
	<path id="warning_2_1_" d="M63.061,64H36.252c-0.868-0.164-1.368-1.239-0.342-2.866l12.688-21.793c0.586-0.563,1.531-0.563,2.115,0
		l12.688,21.793C64.487,62.479,63.928,63.836,63.061,64z M47.992,60.305h2.959v-2.196h-2.959V60.305z M51.382,49.121H47.48v2.851
		l0.613,5.233h2.673l0.615-5.233V49.121z"/>
</g>
</svg>
