<?xml version="1.0" encoding="utf-8"?>
<!-- Generator: Adobe Illustrator 14.0.0, SVG Export Plug-In . SVG Version: 6.00 Build 43363)  -->
<!DOCTYPE svg PUBLIC "-//W3C//DTD SVG 1.1//EN" "http://www.w3.org/Graphics/SVG/1.1/DTD/svg11.dtd">
<svg version="1.1" id="Capa_1" xmlns="http://www.w3.org/2000/svg" xmlns:xlink="http://www.w3.org/1999/xlink" x="0px" y="0px"
	 width="64px" height="64px" viewBox="0 0 64 64" enable-background="new 0 0 64 64" xml:space="preserve">
<path fill-rule="evenodd" clip-rule="evenodd" d="M37.76,8.942H16.639c-1.061,0-1.92,0.86-1.92,1.922v42.272
	c0,1.063,0.859,1.922,1.92,1.922h30.723c1.061,0,1.921-0.859,1.921-1.922V20.471L37.76,8.942z M55.042,18.55v38.428
	c0,2.123-1.719,3.844-3.84,3.844H12.798c-2.12,0-3.84-1.721-3.84-3.844V7.021c0-2.122,1.72-3.843,3.84-3.843h26.883L55.042,18.55z
	 M20.486,35.844v3.842h20.986v-3.842H20.486z M20.486,43.529v3.844h21.031v-3.844H20.486z M20.486,28.157v3.844h12.835v-3.844
	H20.486z"/>
</svg>
