<?xml version="1.0" encoding="utf-8"?>
<!-- Generator: Adobe Illustrator 14.0.0, SVG Export Plug-In . SVG Version: 6.00 Build 43363)  -->
<!DOCTYPE svg PUBLIC "-//W3C//DTD SVG 1.1//EN" "http://www.w3.org/Graphics/SVG/1.1/DTD/svg11.dtd">
<svg version="1.1" id="Capa_1" xmlns="http://www.w3.org/2000/svg" xmlns:xlink="http://www.w3.org/1999/xlink" x="0px" y="0px"
	 width="64px" height="64px" viewBox="0 0 64 64" enable-background="new 0 0 64 64" xml:space="preserve">
<path fill-rule="evenodd" clip-rule="evenodd" d="M58.918,64H26.953c-1.765,0-3.195-1.433-3.195-3.2V19.22
	c0-1.766,1.431-3.199,3.195-3.199h22.376l12.785,12.795V60.8C62.114,62.567,60.683,64,58.918,64z M57.32,30.415h-9.591v-9.596
	h-17.58c-0.883,0-1.598,0.716-1.598,1.599v35.185c0,0.884,0.715,1.599,1.598,1.599h25.571c0.883,0,1.6-0.715,1.6-1.599V30.415z
	 M33.374,50.263h19.37v3.198h-19.37V50.263z M33.344,43.865h19.4v3.198h-19.4V43.865z M33.425,37.469h19.319v3.198H33.425V37.469z
	 M23.672,12.842c-1.691,0-3.063,1.373-3.063,3.065v34.599H5.241c-1.853,0-3.355-1.507-3.355-3.364V3.422
	C1.886,1.565,3.552,0,5.405,0l35.137,0.06c1.854,0,3.355,1.505,3.355,3.362v9.16l-0.001,0.261H23.672z M35.476,4.888
	c0-0.317-0.257-0.575-0.573-0.575H10.966c-0.317,0-0.574,0.258-0.574,0.575v3.028c0,0.317,0.257,0.574,0.574,0.574h23.936
	c0.316,0,0.573-0.257,0.573-0.574V4.888z"/>
</svg>
