<?xml version="1.0" encoding="utf-8"?>
<!-- Generator: Adobe Illustrator 14.0.0, SVG Export Plug-In . SVG Version: 6.00 Build 43363)  -->
<!DOCTYPE svg PUBLIC "-//W3C//DTD SVG 1.1//EN" "http://www.w3.org/Graphics/SVG/1.1/DTD/svg11.dtd">
<svg version="1.1" id="Capa_1" xmlns="http://www.w3.org/2000/svg" xmlns:xlink="http://www.w3.org/1999/xlink" x="0px" y="0px"
	 width="64px" height="64px" viewBox="0 0 64 64" enable-background="new 0 0 64 64" xml:space="preserve">
<g>
	<path fill-rule="evenodd" clip-rule="evenodd" d="M62.714,40.261h-0.805v14.606c0,0.713-0.576,1.287-1.287,1.287h-6.107
		l0.041-11.664c0-0.71-0.576-1.286-1.286-1.286H9.828c-0.71,0-1.287,0.576-1.287,1.286l0.003,11.664H3.538
		c-0.71,0-1.287-0.574-1.287-1.287V40.261H1.287C0.576,40.261,0,39.685,0,38.975v-3.056c0-0.71,0.576-1.286,1.287-1.286h0.965V34.15
		c0-0.711,0.576-1.286,1.287-1.286h57.084c0.711,0,1.287,0.575,1.287,1.286v0.482h0.805c0.71,0,1.286,0.576,1.286,1.286v3.056
		C64,39.685,63.424,40.261,62.714,40.261z M15.116,5.367h32.482v25.761H15.116V5.367z M10.794,45.432
		c0-0.644,0.528-1.166,1.179-1.166h39.309c0.65,0,1.18,0.522,1.18,1.166l0.146,11.971c0,0.68-0.539,1.23-1.2,1.23H11.916
		c-0.664,0-1.202-0.551-1.202-1.23L10.794,45.432z"/>
</g>
</svg>
