<?xml version="1.0" encoding="utf-8"?>
<!-- Generator: Adobe Illustrator 14.0.0, SVG Export Plug-In . SVG Version: 6.00 Build 43363)  -->
<!DOCTYPE svg PUBLIC "-//W3C//DTD SVG 1.1//EN" "http://www.w3.org/Graphics/SVG/1.1/DTD/svg11.dtd">
<svg version="1.1" id="Capa_1" xmlns="http://www.w3.org/2000/svg" xmlns:xlink="http://www.w3.org/1999/xlink" x="0px" y="0px"
	 width="64px" height="64px" viewBox="0 0 64 64" enable-background="new 0 0 64 64" xml:space="preserve">
<path id="question" d="M55.03,0H8.966C4.017,0,0,4.014,0,8.963v46.076C0,59.987,4.017,64,8.966,64H55.03
	c4.956,0,8.97-4.013,8.97-8.961V8.963C64,4.014,59.986,0,55.03,0z M35.204,54.625h-8.939v-8.589h8.939V54.625z M43.698,29.478
	c-0.75,1.075-2.198,2.449-4.332,4.118l-2.104,1.653c-1.147,0.894-1.909,1.938-2.285,3.131c-0.236,0.768-0.365,1.939-0.388,3.534
	h-8.147c0.117-3.367,0.441-5.695,0.953-6.981c0.522-1.284,1.855-2.765,4.009-4.446l2.183-1.698c0.717-0.542,1.292-1.121,1.732-1.766
	c0.798-1.082,1.194-2.276,1.194-3.583c0-1.51-0.443-2.877-1.325-4.117c-0.885-1.231-2.5-1.856-4.846-1.856
	c-2.313,0-3.942,0.759-4.913,2.285c-0.959,1.517-1.446,3.094-1.446,4.725h-8.583c0.236-5.65,2.215-9.656,5.931-12.021
	c2.349-1.511,5.228-2.262,8.646-2.262c4.491,0,8.225,1.076,11.194,3.214c2.974,2.149,4.458,5.335,4.458,9.549
	C45.628,25.534,44.985,27.712,43.698,29.478z"/>
</svg>
