<?xml version="1.0" encoding="utf-8"?>
<!-- Generator: Adobe Illustrator 14.0.0, SVG Export Plug-In . SVG Version: 6.00 Build 43363)  -->
<!DOCTYPE svg PUBLIC "-//W3C//DTD SVG 1.1//EN" "http://www.w3.org/Graphics/SVG/1.1/DTD/svg11.dtd">
<svg version="1.1" id="Capa_1" xmlns="http://www.w3.org/2000/svg" xmlns:xlink="http://www.w3.org/1999/xlink" x="0px" y="0px"
	 width="64px" height="64px" viewBox="0 0 64 64" enable-background="new 0 0 64 64" xml:space="preserve">
<path id="quotes_end" d="M35.936,23.065c0.436,1.342,1.192,2.575,2.243,3.687c1.102,1.16,2.551,2.062,4.345,2.709
	c1.797,0.648,4.104,0.977,6.949,0.977h3.859c-0.461,4.748-2.154,8.788-5.077,12.131c-2.923,3.333-6.974,6.262-12.153,8.776
	l3.141,4.87c6.823-2.902,12.654-7.152,17.502-12.766C61.59,37.836,64,32.27,64,26.752c0-5.932-1.397-10.582-4.217-13.939
	c-2.821-3.356-6.859-5.028-12.117-5.028c-3.333,0-6.23,1.11-8.694,3.332c-2.46,2.222-3.69,4.821-3.69,7.788
	C35.281,20.333,35.498,21.723,35.936,23.065L35.936,23.065z M0.653,23.065c0.435,1.342,1.192,2.575,2.244,3.687
	c1.103,1.16,2.552,2.062,4.346,2.709c1.795,0.648,4.102,0.977,6.95,0.977h3.857c-0.462,4.748-2.154,8.788-5.078,12.131
	C10.05,45.902,6,48.831,0.821,51.346l3.14,4.87c6.82-2.902,12.654-7.152,17.5-12.766c4.847-5.614,7.258-11.181,7.258-16.698
	c0-5.932-1.397-10.582-4.218-13.939c-2.821-3.356-6.859-5.028-12.115-5.028c-3.334,0-6.231,1.11-8.692,3.332
	C1.229,13.337,0,15.937,0,18.903C0,20.333,0.217,21.723,0.653,23.065L0.653,23.065z"/>
</svg>
