<?xml version="1.0" encoding="utf-8"?>
<!-- Generator: Adobe Illustrator 14.0.0, SVG Export Plug-In . SVG Version: 6.00 Build 43363)  -->
<!DOCTYPE svg PUBLIC "-//W3C//DTD SVG 1.1//EN" "http://www.w3.org/Graphics/SVG/1.1/DTD/svg11.dtd">
<svg version="1.1" id="Capa_1" xmlns="http://www.w3.org/2000/svg" xmlns:xlink="http://www.w3.org/1999/xlink" x="0px" y="0px"
	 width="64px" height="64px" viewBox="0 0 64 64" enable-background="new 0 0 64 64" xml:space="preserve">
<path id="save_2" d="M60,64H4.001C1.792,64,0,62.21,0,60V4c0-2.209,1.792-4,4.001-4H60c2.208,0,4,1.791,4,4v56
	C64,62.21,62.208,64,60,64z M31.74,13.529c-10.346,0-18.733,8.385-18.733,18.73s8.389,18.732,18.733,18.732
	s18.732-8.387,18.732-18.732C50.473,21.915,42.085,13.529,31.74,13.529z M59.317,4.683h-4.685v4.684h4.685V4.683z M32.859,42.085
	c-0.354,0.413-0.925,0.413-1.276,0l-7.669-8.94c-0.354-0.41-0.354-1.079,0-1.489h2.471v-8.402h11.548v8.402h2.591
	c0.356,0.41,0.356,1.079,0,1.489L32.859,42.085z"/>
</svg>
