<?xml version="1.0" encoding="utf-8"?>
<!-- Generator: Adobe Illustrator 14.0.0, SVG Export Plug-In . SVG Version: 6.00 Build 43363)  -->
<!DOCTYPE svg PUBLIC "-//W3C//DTD SVG 1.1//EN" "http://www.w3.org/Graphics/SVG/1.1/DTD/svg11.dtd">
<svg version="1.1" id="Capa_1" xmlns="http://www.w3.org/2000/svg" xmlns:xlink="http://www.w3.org/1999/xlink" x="0px" y="0px"
	 width="64px" height="64px" viewBox="0 0 64 64" enable-background="new 0 0 64 64" xml:space="preserve">
<path id="inbox_2" d="M57.545,64H6.453c-1.886,0-3.42-1.434-3.612-3.27H2.805v-0.375c0-0.002,0-0.003,0-0.003v-0.002v-17.26h3.648
	v13.611c0,1.006,0.819,1.823,1.825,1.823h47.443c1.008,0,1.823-0.817,1.823-1.825l0,0V42.75l3.595-0.058v17.602l0.056,0.058
	C61.193,62.367,59.561,64,57.545,64z M39.634,29.509v5.707h3.611c0.492,0.574,0.492,1.502,0,2.075L32.566,49.746
	c-0.491,0.573-1.288,0.572-1.78,0L20.108,37.291c-0.49-0.573-0.49-1.501,0-2.075h3.441v-5.707H39.634z M48.086,22.211H13.668
	c-0.54,0-0.976-0.437-0.976-0.976V0.976C12.692,0.437,13.128,0,13.668,0h34.418c0.54,0,0.978,0.437,0.978,0.976v20.259
	C49.063,21.775,48.626,22.211,48.086,22.211z M39.159,10.809H19.91v1.254h19.249V10.809z M39.432,14.715H28.704v1.255h10.728V14.715
	L39.432,14.715z M44.599,4.114h-3.348v3.348h3.348V4.114z"/>
</svg>
