<?xml version="1.0" encoding="utf-8"?>
<!-- Generator: Adobe Illustrator 14.0.0, SVG Export Plug-In . SVG Version: 6.00 Build 43363)  -->
<!DOCTYPE svg PUBLIC "-//W3C//DTD SVG 1.1//EN" "http://www.w3.org/Graphics/SVG/1.1/DTD/svg11.dtd">
<svg version="1.1" id="Capa_1" xmlns="http://www.w3.org/2000/svg" xmlns:xlink="http://www.w3.org/1999/xlink" x="0px" y="0px"
	 width="64px" height="64px" viewBox="0 0 64 64" enable-background="new 0 0 64 64" xml:space="preserve">
<path id="save_3" d="M59.556,59.723H4.447C1.991,59.723,0,57.211,0,54.114v-9.537c0-3.097,1.991-5.607,4.447-5.607h55.108
	C62.01,38.97,64,41.48,64,44.577v9.537C64,57.211,62.01,59.723,59.556,59.723z M57.244,42.735h-3.651v3.648h3.651V42.735z
	 M32.242,32.093c-0.484,0.565-1.269,0.565-1.751,0L19.984,19.838c-0.483-0.564-0.483-1.478,0-2.044h3.385V6.278h15.829v11.516h3.554
	c0.482,0.566,0.482,1.48,0,2.044L32.242,32.093z"/>
</svg>
