<?xml version="1.0" encoding="utf-8"?>
<!-- Generator: Adobe Illustrator 14.0.0, SVG Export Plug-In . SVG Version: 6.00 Build 43363)  -->
<!DOCTYPE svg PUBLIC "-//W3C//DTD SVG 1.1//EN" "http://www.w3.org/Graphics/SVG/1.1/DTD/svg11.dtd">
<svg version="1.1" id="Capa_1" xmlns="http://www.w3.org/2000/svg" xmlns:xlink="http://www.w3.org/1999/xlink" x="0px" y="0px"
	 width="64px" height="64px" viewBox="0 0 64 64" enable-background="new 0 0 64 64" xml:space="preserve">
<path id="inbox" d="M59.999,60.295H4.001c-2.064,0-3.748-1.572-3.958-3.579H0.003v-0.415c0-0.002-0.002-0.002-0.002-0.004h0.002
	V37.381h4v14.918c0.002,1.104,0.896,2,2,2h51.996c1.105,0,2-0.897,2-2.002v0.001V37.006l3.938-0.063v19.291l0.063,0.062
	C63.999,58.505,62.207,60.295,59.999,60.295z M32.621,44.674c-0.539,0.628-1.411,0.627-1.951,0L18.968,31.025
	c-0.536-0.629-0.536-1.646,0-2.275h3.771v-6.255h17.629v6.255h3.958c0.538,0.628,0.538,1.646,0,2.275L32.621,44.674z"/>
</svg>
