<?xml version="1.0" encoding="utf-8"?>
<!-- Generator: Adobe Illustrator 14.0.0, SVG Export Plug-In . SVG Version: 6.00 Build 43363)  -->
<!DOCTYPE svg PUBLIC "-//W3C//DTD SVG 1.1//EN" "http://www.w3.org/Graphics/SVG/1.1/DTD/svg11.dtd">
<svg version="1.1" id="Capa_1" xmlns="http://www.w3.org/2000/svg" xmlns:xlink="http://www.w3.org/1999/xlink" x="0px" y="0px"
	 width="64px" height="64px" viewBox="0 0 64 64" enable-background="new 0 0 64 64" xml:space="preserve">
<path fill-rule="evenodd" clip-rule="evenodd" d="M48.576,64c-5.779,0-10.604-4.101-11.719-9.55c-0.135-0.656-0.9-5.517-1.166-7.461
	c-0.242-1.765-2.086-4.897-2.086-4.897S4.85,15.28,12.655,1.133c1.262-2.004,2.51-0.33,2.51-0.33S39.646,37.354,38.43,36.262
	c2.523,6.056,7.82,3.81,10.146,3.81c6.609,0,11.967,5.355,11.967,11.964C60.543,58.643,55.186,64,48.576,64z M32.147,31.051
	c-1.239,0-2.243,1.02-2.243,2.277s1.004,2.277,2.243,2.277c1.238,0,2.242-1.02,2.242-2.277S33.385,31.051,32.147,31.051z
	 M48.881,45.017c-3.924,0-7.102,3.23-7.102,7.214s3.178,7.213,7.102,7.213c3.922,0,7.102-3.229,7.102-7.213
	S52.803,45.017,48.881,45.017z M33.436,23.844c3.236-4.847,15.398-23.189,15.398-23.189s1.248-1.673,2.51,0.33
	c3.371,5.352,3.172,14.202-11.496,32.564L33.436,23.844z M24.96,37.851l5.434,4.095c0,0-1.843,3.13-2.085,4.897
	c-0.268,1.943-1.032,6.803-1.167,7.458c-1.116,5.451-5.939,9.55-11.72,9.55c-6.608,0-11.965-5.356-11.965-11.963
	c0-6.608,5.357-11.966,11.965-11.966C17.598,39.922,23.402,41.591,24.96,37.851z M8.018,52.083c0,3.983,3.18,7.214,7.101,7.214
	c3.923,0,7.102-3.23,7.102-7.214c0-3.984-3.179-7.214-7.102-7.214C11.198,44.869,8.018,48.099,8.018,52.083z"/>
</svg>
