<?xml version="1.0" encoding="utf-8"?>
<!-- Generator: Adobe Illustrator 14.0.0, SVG Export Plug-In . SVG Version: 6.00 Build 43363)  -->
<!DOCTYPE svg PUBLIC "-//W3C//DTD SVG 1.1//EN" "http://www.w3.org/Graphics/SVG/1.1/DTD/svg11.dtd">
<svg version="1.1" id="Capa_1" xmlns="http://www.w3.org/2000/svg" xmlns:xlink="http://www.w3.org/1999/xlink" x="0px" y="0px"
	 width="64px" height="64px" viewBox="0 0 64 64" enable-background="new 0 0 64 64" xml:space="preserve">
<path fill-rule="evenodd" clip-rule="evenodd" d="M44.076,47.104c-0.972,0.972-2.545,0.974-3.519,0.006
	c-0.739-0.74-5.927-5.938-7.062-7.074c-2.009,1.278-4.394,2.023-6.953,2.023c-7.16,0-12.965-5.803-12.965-12.966
	c0-7.16,5.805-12.965,12.965-12.965c7.161,0,12.966,5.805,12.966,12.965c0,2.801-0.89,5.389-2.398,7.509l6.996,6.997l-0.006,0.006
	C45.048,44.58,45.041,46.14,44.076,47.104z M26.543,20.535c-4.728,0-8.561,3.833-8.561,8.561s3.833,8.561,8.561,8.561
	c4.727,0,8.561-3.833,8.561-8.561S31.27,20.535,26.543,20.535z M40.55,47.104c0.002,0.002,0.005,0.005,0.008,0.006
	C40.671,47.225,40.682,47.234,40.55,47.104z M23.98,5.021h30.423c0.865,0,1.567,0.701,1.567,1.566v51.007
	c0,0.865-0.702,1.566-1.567,1.566H4.011L4.004,64l51.037-0.043c3.115,0,5.768-2.655,5.768-5.77l0.188-52.37
	c0-3.116-2.533-5.642-5.66-5.642L23.973,0L23.98,5.021z"/>
</svg>
