<?xml version="1.0" encoding="utf-8"?>
<!-- Generator: Adobe Illustrator 14.0.0, SVG Export Plug-In . SVG Version: 6.00 Build 43363)  -->
<!DOCTYPE svg PUBLIC "-//W3C//DTD SVG 1.1//EN" "http://www.w3.org/Graphics/SVG/1.1/DTD/svg11.dtd">
<svg version="1.1" id="Capa_1" xmlns="http://www.w3.org/2000/svg" xmlns:xlink="http://www.w3.org/1999/xlink" x="0px" y="0px"
	 width="64px" height="64px" viewBox="0 0 64 64" enable-background="new 0 0 64 64" xml:space="preserve">
<path id="search" d="M27.294,20.706c0-8.318,6.742-15.059,15.058-15.059c8.317,0,15.058,6.742,15.058,15.059
	c0,8.316-6.741,15.057-15.058,15.057S27.294,29.021,27.294,20.706z M21.648,20.706c0,11.435,9.27,20.704,20.706,20.704
	c11.435,0,20.705-9.27,20.705-20.704C63.059,9.27,53.787,0,42.353,0S21.648,9.27,21.648,20.706z M2.583,54.635
	c-2.123,2.122-2.189,5.528-0.19,7.725l0.093,0.095l0.097,0.094c2.193,1.999,5.602,1.933,7.723-0.188l18.391-20.583
	c-3.323-2.115-4.716-3.397-6.632-6.259L2.583,54.635z"/>
</svg>
