<?xml version="1.0" encoding="utf-8"?>
<!-- Generator: Adobe Illustrator 14.0.0, SVG Export Plug-In . SVG Version: 6.00 Build 43363)  -->
<!DOCTYPE svg PUBLIC "-//W3C//DTD SVG 1.1//EN" "http://www.w3.org/Graphics/SVG/1.1/DTD/svg11.dtd">
<svg version="1.1" id="Capa_1" xmlns="http://www.w3.org/2000/svg" xmlns:xlink="http://www.w3.org/1999/xlink" x="0px" y="0px"
	 width="64px" height="64px" viewBox="0 0 64 64" enable-background="new 0 0 64 64" xml:space="preserve">
<path id="zoom_minus" d="M27.298,20.704c0-8.317,6.74-15.058,15.058-15.058c8.315,0,15.06,6.742,15.06,15.058
	s-6.745,15.059-15.06,15.059C34.038,35.763,27.298,29.02,27.298,20.704z M21.65,20.704c0,11.436,9.272,20.706,20.703,20.706
	c11.437,0,20.704-9.271,20.704-20.706C63.058,9.27,53.79,0,42.354,0C30.922,0,21.65,9.27,21.65,20.704z M32.943,18.823v3.765h18.822
	v-3.765H32.943z M2.585,54.636c-2.124,2.121-2.188,5.528-0.191,7.725l0.096,0.094l0.095,0.093c2.195,2,5.602,1.935,7.723-0.187
	l18.392-20.584c-3.323-2.116-4.716-3.396-6.634-6.259L2.585,54.636z"/>
</svg>
