<?xml version="1.0" encoding="utf-8"?>
<!-- Generator: Adobe Illustrator 14.0.0, SVG Export Plug-In . SVG Version: 6.00 Build 43363)  -->
<!DOCTYPE svg PUBLIC "-//W3C//DTD SVG 1.1//EN" "http://www.w3.org/Graphics/SVG/1.1/DTD/svg11.dtd">
<svg version="1.1" id="Capa_1" xmlns="http://www.w3.org/2000/svg" xmlns:xlink="http://www.w3.org/1999/xlink" x="0px" y="0px"
	 width="64px" height="64px" viewBox="0 0 64 64" enable-background="new 0 0 64 64" xml:space="preserve">
<path id="open_new_window" d="M64,5.516l-0.782,17.201l-6.585-6.586L40.736,32.028l-3.248-3.25l15.895-15.897l-6.585-6.586L64,5.516
	z M7.693,18.095c-1.063,0-1.923,0.861-1.923,1.923v30.772c0,1.063,0.861,1.922,1.923,1.922h42.311c1.062,0,1.925-0.859,1.925-1.922
	V31.859h5.77v22.778c0,2.125-1.722,3.848-3.845,3.848H3.847C1.722,58.484,0,56.762,0,54.637V16.172c0-2.124,1.722-3.848,3.847-3.848
	h34.437v5.771H7.693z"/>
</svg>
