<?xml version="1.0" encoding="utf-8"?>
<!-- Generator: Adobe Illustrator 14.0.0, SVG Export Plug-In . SVG Version: 6.00 Build 43363)  -->
<!DOCTYPE svg PUBLIC "-//W3C//DTD SVG 1.1//EN" "http://www.w3.org/Graphics/SVG/1.1/DTD/svg11.dtd">
<svg version="1.1" id="Capa_1" xmlns="http://www.w3.org/2000/svg" xmlns:xlink="http://www.w3.org/1999/xlink" x="0px" y="0px"
	 width="64px" height="64px" viewBox="0 0 64 64" enable-background="new 0 0 64 64" xml:space="preserve">
<g>
	<path fill-rule="evenodd" clip-rule="evenodd" d="M62.401,11.881l-3.855,3.805l-9.637-9.512V6.173l-0.002,0.001l0,0l3.857-3.807
		c2.128-2.102,5.579-2.102,7.71,0l1.927,1.902C64.531,6.372,64.531,9.78,62.401,11.881z M18.31,36.855l9.168,9.051L12.285,52.11
		L18.31,36.855z M29.634,44.228l-9.638-9.514L46.919,8.137h0.126l9.573,9.452L29.634,44.228z M5.498,12.037l-0.01,45.82
		l46.411-0.021l-0.146-29.827l5.493-5.319v37.829c0,1.487-1.221,2.691-2.728,2.691H2.727c-1.505,0-2.725-1.204-2.725-2.691V9.391
		c0-1.486,1.22-2.69,2.725-2.69h40.355l-5.089,5.325L5.498,12.037z"/>
</g>
</svg>
