<?xml version="1.0" encoding="utf-8"?>
<!-- Generator: Adobe Illustrator 14.0.0, SVG Export Plug-In . SVG Version: 6.00 Build 43363)  -->
<!DOCTYPE svg PUBLIC "-//W3C//DTD SVG 1.1//EN" "http://www.w3.org/Graphics/SVG/1.1/DTD/svg11.dtd">
<svg version="1.1" id="Capa_1" xmlns="http://www.w3.org/2000/svg" xmlns:xlink="http://www.w3.org/1999/xlink" x="0px" y="0px"
	 width="64px" height="64px" viewBox="0 0 64 64" enable-background="new 0 0 64 64" xml:space="preserve">
<path id="sound_off" d="M57.452,23.442c-0.524-0.525-1.377-0.525-1.899,0l-4.754,4.753l-4.756-4.753c-0.523-0.525-1.376-0.525-1.9,0
	l-1.904,1.9c-0.522,0.526-0.522,1.378,0,1.903L46.993,32l-4.755,4.754c-0.523,0.525-0.523,1.376,0,1.9l1.902,1.902
	c0.525,0.524,1.377,0.524,1.901,0l4.756-4.754l4.753,4.754c0.523,0.524,1.377,0.524,1.9,0l1.9-1.902c0.525-0.524,0.525-1.375,0-1.9
	L54.604,32l4.75-4.754c0.525-0.524,0.525-1.377,0-1.903L57.452,23.442z M7.833,21.259c-1.979,0-3.58,1.604-3.58,3.581v14.32
	c0,1.979,1.603,3.581,3.58,3.581h10.965L29.246,53.48c2.016,0,3.65-1.603,3.65-3.578V14.099c0-1.977-1.636-3.579-3.65-3.579
	L18.686,21.259H7.833z"/>
</svg>
