<?xml version="1.0" encoding="utf-8"?>
<!-- Generator: Adobe Illustrator 14.0.0, SVG Export Plug-In . SVG Version: 6.00 Build 43363)  -->
<!DOCTYPE svg PUBLIC "-//W3C//DTD SVG 1.1//EN" "http://www.w3.org/Graphics/SVG/1.1/DTD/svg11.dtd">
<svg version="1.1" id="Capa_1" xmlns="http://www.w3.org/2000/svg" xmlns:xlink="http://www.w3.org/1999/xlink" x="0px" y="0px"
	 width="64px" height="64px" viewBox="0 0 64 64" enable-background="new 0 0 64 64" xml:space="preserve">
<path id="sound_on_2_1_" d="M44.78,16.488c4.216,3.282,6.992,8.87,6.992,15.213c0,6.342-2.776,11.932-6.992,15.212v4.065
	c6.811-3.041,11.648-10.791,11.648-19.869S51.59,14.283,44.78,11.242V16.488z M11.126,21.333c-1.962,0-3.555,1.592-3.555,3.557
	v14.221c0,1.965,1.593,3.557,3.555,3.557h10.89l10.375,10.665c2.003,0,3.626-1.591,3.626-3.556V14.221
	c0-1.962-1.623-3.554-3.626-3.554L21.904,21.333H11.126z"/>
</svg>
