<?xml version="1.0" encoding="utf-8"?>
<!-- Generator: Adobe Illustrator 14.0.0, SVG Export Plug-In . SVG Version: 6.00 Build 43363)  -->
<!DOCTYPE svg PUBLIC "-//W3C//DTD SVG 1.1//EN" "http://www.w3.org/Graphics/SVG/1.1/DTD/svg11.dtd">
<svg version="1.1" id="Capa_1" xmlns="http://www.w3.org/2000/svg" xmlns:xlink="http://www.w3.org/1999/xlink" x="0px" y="0px"
	 width="64px" height="64px" viewBox="0 0 64 64" enable-background="new 0 0 64 64" xml:space="preserve">
<path id="stats_1_" d="M48.94,15.06c-2.079,0-3.766,1.685-3.766,3.763v41.413c0,2.079,1.687,3.765,3.766,3.765h7.53
	c2.079,0,3.764-1.686,3.764-3.765V18.823c0-2.078-1.685-3.763-3.764-3.763H48.94z M28.236,0c-2.08,0-3.765,1.686-3.765,3.765v56.471
	c0,2.079,1.685,3.765,3.765,3.765h7.527c2.079,0,3.766-1.686,3.766-3.765V3.765C39.529,1.686,37.843,0,35.764,0H28.236z
	 M7.529,30.118c-2.08,0-3.764,1.686-3.764,3.765v26.353C3.766,62.313,5.449,64,7.529,64h7.53c2.079,0,3.763-1.687,3.763-3.765
	V33.883c0-2.079-1.684-3.765-3.763-3.765H7.529z"/>
</svg>
