<?xml version="1.0" encoding="utf-8"?>
<!-- Generator: Adobe Illustrator 14.0.0, SVG Export Plug-In . SVG Version: 6.00 Build 43363)  -->
<!DOCTYPE svg PUBLIC "-//W3C//DTD SVG 1.1//EN" "http://www.w3.org/Graphics/SVG/1.1/DTD/svg11.dtd">
<svg version="1.1" id="Capa_1" xmlns="http://www.w3.org/2000/svg" xmlns:xlink="http://www.w3.org/1999/xlink" x="0px" y="0px"
	 width="64px" height="64px" viewBox="0 0 64 64" enable-background="new 0 0 64 64" xml:space="preserve">
<path id="add_row_up" d="M28.001,45.769c-2.209,0-4,1.747-4,3.9v3.901c0,2.154,1.792,3.901,4,3.901h31.997c2.209,0,4-1.747,4-3.901
	v-3.901c0-2.153-1.791-3.9-4-3.9H28.001z M28.001,28.214c-2.209,0-4,1.746-4,3.901v3.9c0,2.154,1.792,3.901,4,3.901h31.997
	c2.209,0,4-1.747,4-3.901v-3.9c0-2.155-1.791-3.901-4-3.901H28.001z M20.002,10.659c-2.209,0-4.001,1.747-4.001,3.901v3.9
	c0,2.156,1.792,3.901,4.001,3.901h31.996c2.209,0,4.001-1.746,4.001-3.901v-3.9c0-2.155-1.792-3.901-4.001-3.901H20.002z
	 M0.002,25.747c0-0.96,0-17.836,0-18.501c0-0.861,1.29-0.891,1.857-0.387c0.457,0.403,8.831,7.926,9.606,8.621
	c0.509,0.458,0.5,1.546,0,2.006c-0.558,0.51-8.975,8.23-9.634,8.796C1.347,26.7,0.002,26.695,0.002,25.747z"/>
</svg>
