<?xml version="1.0" encoding="utf-8"?>
<!-- Generator: Adobe Illustrator 14.0.0, SVG Export Plug-In . SVG Version: 6.00 Build 43363)  -->
<!DOCTYPE svg PUBLIC "-//W3C//DTD SVG 1.1//EN" "http://www.w3.org/Graphics/SVG/1.1/DTD/svg11.dtd">
<svg version="1.1" id="Capa_1" xmlns="http://www.w3.org/2000/svg" xmlns:xlink="http://www.w3.org/1999/xlink" x="0px" y="0px"
	 width="64px" height="64px" viewBox="0 0 64 64" enable-background="new 0 0 64 64" xml:space="preserve">
<path id="eye_1_" d="M62.778,64H27.905c-1.13-0.209-1.781-1.572-0.446-3.636l16.506-27.648c0.758-0.716,1.99-0.714,2.748,0
	L63.22,60.365C64.634,62.07,63.905,63.791,62.778,64z M43.177,59.312h3.85v-2.785h-3.85V59.312z M47.585,45.123h-5.074v3.618
	l0.797,6.64h3.477l0.801-6.64V45.123z M29.765,29.906H11.769c-2.208,0-4,1.747-4,3.9v3.901c0,2.154,1.792,3.901,4,3.901h17.996
	c2.209,0,4-1.747,4-3.901v-3.901C33.765,31.653,31.974,29.906,29.765,29.906z M11.769,24.055h31.996c2.209,0,4-1.747,4-3.899v-3.902
	c0-2.154-1.791-3.9-4-3.9H11.769c-2.208,0-4,1.746-4,3.9v3.902C7.769,22.31,9.561,24.055,11.769,24.055z"/>
</svg>
