<?xml version="1.0" encoding="utf-8"?>
<!-- Generator: Adobe Illustrator 14.0.0, SVG Export Plug-In . SVG Version: 6.00 Build 43363)  -->
<!DOCTYPE svg PUBLIC "-//W3C//DTD SVG 1.1//EN" "http://www.w3.org/Graphics/SVG/1.1/DTD/svg11.dtd">
<svg version="1.1" id="Capa_1" xmlns="http://www.w3.org/2000/svg" xmlns:xlink="http://www.w3.org/1999/xlink" x="0px" y="0px"
	 width="64px" height="64px" viewBox="0 0 64 64" enable-background="new 0 0 64 64" xml:space="preserve">
<g id="copy_column">
	<path d="M36,28.893v31.205C36,62.252,37.79,64,39.999,64h4c2.208,0,3.999-1.748,3.999-3.902V28.893
		c0-2.154-1.791-3.902-3.999-3.902h-4C37.79,24.991,36,26.739,36,28.893z"/>
	<path d="M16.002,3.902v31.205c0,2.154,1.791,3.902,3.999,3.902h4.001c2.208,0,3.999-1.748,3.999-3.902V3.902
		C28.001,1.749,26.21,0,24.002,0h-4.001C17.792,0,16.002,1.749,16.002,3.902z"/>
	<path id="Undo_5_" d="M36.817,16.54l4.858,4.92l4.988-4.92l-2.804,0.086C43.688,3.139,33.188,5.415,30.854,6.716
		c1.832,0.162,9.833-1.627,8.638,9.911L36.817,16.54L36.817,16.54z"/>
</g>
</svg>
