<?xml version="1.0" encoding="utf-8"?>
<!-- Generator: Adobe Illustrator 14.0.0, SVG Export Plug-In . SVG Version: 6.00 Build 43363)  -->
<!DOCTYPE svg PUBLIC "-//W3C//DTD SVG 1.1//EN" "http://www.w3.org/Graphics/SVG/1.1/DTD/svg11.dtd">
<svg version="1.1" id="Capa_1" xmlns="http://www.w3.org/2000/svg" xmlns:xlink="http://www.w3.org/1999/xlink" x="0px" y="0px"
	 width="64px" height="64px" viewBox="0 0 64 64" enable-background="new 0 0 64 64" xml:space="preserve">
<g id="add_row">
	<path d="M28.775,29.969H11.779c-2.208,0-4,1.747-4,3.9v3.901c0,2.154,1.792,3.901,4,3.901h16.996c2.209,0,4-1.747,4-3.901v-3.901
		C32.775,31.716,30.984,29.969,28.775,29.969z"/>
	<path d="M11.779,24.117h31.995c2.209,0,4-1.747,4-3.899v-3.902c0-2.154-1.791-3.9-4-3.9H11.779c-2.208,0-4,1.746-4,3.9v3.902
		C7.779,22.372,9.571,24.117,11.779,24.117z"/>
	<path d="M51.759,51.764l10.22,0.12c1.13,0.015,2.035-0.892,2.021-2.022l-0.052-4.087c-0.013-1.126-0.942-2.056-2.066-2.067
		l-10.225-0.13l-0.132-10.227c-0.014-1.126-0.943-2.056-2.07-2.069l-4.089-0.054c-1.131-0.014-2.036,0.893-2.022,2.021l0.126,10.226
		l-10.223-0.128c-1.131-0.013-2.035,0.892-2.021,2.021l0.05,4.089c0.018,1.128,0.945,2.056,2.069,2.069l10.229,0.13l0.127,10.227
		c0.015,1.125,0.944,2.055,2.069,2.069L49.859,64c1.128,0.015,2.033-0.89,2.021-2.021L51.759,51.764z"/>
</g>
</svg>
