<?xml version="1.0" encoding="utf-8"?>
<!-- Generator: Adobe Illustrator 14.0.0, SVG Export Plug-In . SVG Version: 6.00 Build 43363)  -->
<!DOCTYPE svg PUBLIC "-//W3C//DTD SVG 1.1//EN" "http://www.w3.org/Graphics/SVG/1.1/DTD/svg11.dtd">
<svg version="1.1" id="Capa_1" xmlns="http://www.w3.org/2000/svg" xmlns:xlink="http://www.w3.org/1999/xlink" x="0px" y="0px"
	 width="64px" height="64px" viewBox="0 0 64 64" enable-background="new 0 0 64 64" xml:space="preserve">
<path id="add_row_down" d="M20.003,41.608c-2.208,0-4.001,1.747-4.001,3.9v3.901c0,2.154,1.793,3.901,4.001,3.901h31.995
	c2.209,0,4-1.747,4-3.901v-3.901c0-2.153-1.791-3.9-4-3.9H20.003z M28,24.056c-2.208,0-4,1.746-4,3.9v3.902
	c0,2.154,1.793,3.899,4,3.899h31.996c2.209,0,4-1.747,4-3.899v-3.902c0-2.154-1.791-3.9-4-3.9H28z M28.001,6.501
	c-2.208,0-4,1.747-4,3.9v3.9c0,2.156,1.792,3.901,4,3.901h31.995c2.209,0,4.001-1.746,4.001-3.901v-3.9c0-2.154-1.792-3.9-4.001-3.9
	H28.001z M0.003,56.698c0-0.962,0-17.837,0-18.501c0-0.859,1.289-0.89,1.857-0.387c0.455,0.403,8.83,7.925,9.604,8.62
	c0.509,0.46,0.5,1.547,0,2.006c-0.558,0.511-8.974,8.231-9.634,8.796C1.347,57.651,0.003,57.646,0.003,56.698z"/>
</svg>
