<?xml version="1.0" encoding="utf-8"?>
<!-- Generator: Adobe Illustrator 14.0.0, SVG Export Plug-In . SVG Version: 6.00 Build 43363)  -->
<!DOCTYPE svg PUBLIC "-//W3C//DTD SVG 1.1//EN" "http://www.w3.org/Graphics/SVG/1.1/DTD/svg11.dtd">
<svg version="1.1" id="Capa_1" xmlns="http://www.w3.org/2000/svg" xmlns:xlink="http://www.w3.org/1999/xlink" x="0px" y="0px"
	 width="64px" height="64px" viewBox="0 0 64 64" enable-background="new 0 0 64 64" xml:space="preserve">
<g id="delete_row-2">
	<path d="M28.998,32.911H12.002c-2.208,0-4,1.747-4,3.9v3.901c0,2.154,1.792,3.901,4,3.901h16.996c2.209,0,4-1.747,4-3.901v-3.901
		C32.998,34.658,31.207,32.911,28.998,32.911z"/>
	<path d="M12.002,27.06h31.995c2.209,0,4-1.747,4-3.899v-3.902c0-2.154-1.791-3.9-4-3.9H12.002c-2.208,0-4,1.746-4,3.9v3.902
		C8.002,25.314,9.794,27.06,12.002,27.06z"/>
	<path d="M56.081,50.56l7.312-7.142c0.81-0.788,0.81-2.069,0-2.859l-2.927-2.854c-0.806-0.787-2.12-0.787-2.923,0l-7.322,7.138
		l-7.324-7.138c-0.806-0.787-2.12-0.787-2.927,0l-2.93,2.854c-0.809,0.79-0.809,2.071,0,2.859l7.319,7.142l-7.319,7.138
		c-0.809,0.791-0.809,2.07,0,2.857l2.927,2.856c0.81,0.785,2.122,0.785,2.927,0l7.325-7.142l7.32,7.142
		c0.807,0.785,2.121,0.785,2.927,0l2.925-2.856c0.809-0.787,0.809-2.066,0-2.857L56.081,50.56z"/>
</g>
</svg>
