<?xml version="1.0" encoding="utf-8"?>
<!-- Generator: Adobe Illustrator 14.0.0, SVG Export Plug-In . SVG Version: 6.00 Build 43363)  -->
<!DOCTYPE svg PUBLIC "-//W3C//DTD SVG 1.1//EN" "http://www.w3.org/Graphics/SVG/1.1/DTD/svg11.dtd">
<svg version="1.1" id="Capa_1" xmlns="http://www.w3.org/2000/svg" xmlns:xlink="http://www.w3.org/1999/xlink" x="0px" y="0px"
	 width="64px" height="64px" viewBox="0 0 64 64" enable-background="new 0 0 64 64" xml:space="preserve">
<path id="add_column_left" d="M22.392,20.003c0-2.207-1.747-4.001-3.9-4.001H14.59c-2.154,0-3.901,1.794-3.901,4.001v31.995
	c0,2.209,1.747,4,3.901,4h3.901c2.153,0,3.9-1.791,3.9-4V20.003z M39.944,28.001c0-2.208-1.746-4.001-3.9-4.001h-3.901
	c-2.154,0-3.899,1.793-3.899,4.001v31.995c0,2.209,1.747,4,3.899,4h3.901c2.154,0,3.9-1.791,3.9-4V28.001z M57.498,28.002
	c0-2.209-1.746-4.001-3.9-4.001h-3.9c-2.155,0-3.901,1.792-3.901,4.001v31.994c0,2.209,1.746,4.001,3.901,4.001h3.9
	c2.154,0,3.9-1.792,3.9-4.001V28.002z M7.302,0.003c0.962,0,17.837,0,18.501,0c0.859,0,0.89,1.289,0.387,1.857
	c-0.403,0.455-7.925,8.83-8.62,9.604c-0.46,0.509-1.547,0.501-2.006,0c-0.511-0.558-8.231-8.974-8.796-9.634
	C6.349,1.347,6.354,0.003,7.302,0.003z"/>
</svg>
