<?xml version="1.0" encoding="utf-8"?>
<!-- Generator: Adobe Illustrator 14.0.0, SVG Export Plug-In . SVG Version: 6.00 Build 43363)  -->
<!DOCTYPE svg PUBLIC "-//W3C//DTD SVG 1.1//EN" "http://www.w3.org/Graphics/SVG/1.1/DTD/svg11.dtd">
<svg version="1.1" id="Capa_1" xmlns="http://www.w3.org/2000/svg" xmlns:xlink="http://www.w3.org/1999/xlink" x="0px" y="0px"
	 width="64px" height="64px" viewBox="0 0 64 64" enable-background="new 0 0 64 64" xml:space="preserve">
<path fill-rule="evenodd" clip-rule="evenodd" d="M25.264,26.947v-4.491h35.929v4.491H25.264z M25.264,4.492h35.929v4.491H25.264
	V4.492z M9.586,60.736c0,0-1.261,3.264-4.568,3.264c-1.792,0-2.152,0-2.21,0v-3.368c4.491,0,4.491,0.034,4.491-4.516V43.875H2.808
	V40.42h4.491V7.945c0-4.55,0-4.576-4.491-4.576V0c0.058,0,0.418,0,2.21,0c3.308,0,4.568,3.264,4.568,3.264S10.659,0,13.965,0
	c2.096,0,2.304,0,2.316,0v3.369c-4.491,0-4.491-0.044-4.491,4.576V40.42h4.491v3.455H11.79v12.18c0,4.62,0,4.577,4.491,4.577V64
	c-0.013,0-0.221,0-2.316,0C10.659,64,9.586,60.736,9.586,60.736z M47.719,17.965H25.264v-4.491h22.455V17.965z M47.719,35.93H25.264
	v-4.491h22.455V35.93z"/>
</svg>
