<?xml version="1.0" encoding="utf-8"?>
<!-- Generator: Adobe Illustrator 14.0.0, SVG Export Plug-In . SVG Version: 6.00 Build 43363)  -->
<!DOCTYPE svg PUBLIC "-//W3C//DTD SVG 1.1//EN" "http://www.w3.org/Graphics/SVG/1.1/DTD/svg11.dtd">
<svg version="1.1" id="Capa_1" xmlns="http://www.w3.org/2000/svg" xmlns:xlink="http://www.w3.org/1999/xlink" x="0px" y="0px"
	 width="64px" height="64px" viewBox="0 0 64 64" enable-background="new 0 0 64 64" xml:space="preserve">
<path fill-rule="evenodd" clip-rule="evenodd" d="M56.214,63.996c-0.051,0-9.071-0.004-9.107-0.004
	c-3.545,0-6.419-3.129-6.419-6.986c0-0.104,0.012-0.291,0.012-0.291c0.2-0.872,0.939-1.492,1.804-1.492
	c0.919,0,1.659,0.699,1.803,1.656c0,0,0.002,0.104,0.002,0.125c0,1.827,1.36,3.309,3.039,3.309c0.018,0,8.799,0.002,8.821,0.002
	c1.68,0,3.04-1.481,3.04-3.309s-1.36-3.308-3.04-3.308c-0.858,0-2.103,0.004-2.103,0.004c-0.485-1.541-1.452-2.838-2.704-3.679
	c0,0,2.385-0.002,4.853-0.002c3.545,0,6.419,3.129,6.419,6.987C62.633,60.868,59.759,63.996,56.214,63.996z M51.877,57.287
	c-0.201,0.875-0.939,1.495-1.805,1.495c-0.919,0-1.659-0.7-1.802-1.656c0,0-0.002-0.105-0.002-0.126c0-1.826-1.361-3.307-3.04-3.307
	c-0.017,0-8.798-0.003-8.821-0.003c-1.679,0-3.04,1.481-3.04,3.308c0,1.827,1.361,3.308,3.04,3.308c0.86,0,2.104-0.002,2.104-0.002
	c0.486,1.539,1.452,2.837,2.704,3.677c0,0-2.384,0.002-4.854,0.002c-3.544,0-6.418-3.128-6.418-6.987
	c0-3.858,2.874-6.986,6.418-6.986c0.052,0,9.071,0.003,9.108,0.003c3.545,0,6.418,3.128,6.418,6.986
	C51.888,57.102,51.877,57.287,51.877,57.287z M23.822,22.456h35.93v4.493h-35.93V22.456z M23.822,4.491h35.93v4.492h-35.93V4.491z
	 M8.146,60.737c0,0-1.261,3.263-4.568,3.263c-1.793,0-2.153,0-2.211,0v-3.369c4.491,0,4.491,0.036,4.491-4.515V43.875H1.367v-3.454
	h4.491V7.946c0-4.551,0-4.577-4.491-4.577V0c0.058,0,0.417,0,2.211,0c3.307,0,4.568,3.264,4.568,3.264S9.219,0,12.525,0
	c2.095,0,2.304,0,2.315,0v3.369c-4.491,0-4.491-0.044-4.491,4.577v32.475h4.491v3.454h-4.491v12.179c0,4.621,0,4.577,4.491,4.577V64
	c-0.011,0-0.22,0-2.315,0C9.219,64,8.146,60.737,8.146,60.737z M46.278,17.965H23.822v-4.492h22.456V17.965z M46.278,35.93H23.822
	v-4.491h22.456V35.93z"/>
</svg>
