<?xml version="1.0" encoding="utf-8"?>
<!-- Generator: Adobe Illustrator 14.0.0, SVG Export Plug-In . SVG Version: 6.00 Build 43363)  -->
<!DOCTYPE svg PUBLIC "-//W3C//DTD SVG 1.1//EN" "http://www.w3.org/Graphics/SVG/1.1/DTD/svg11.dtd">
<svg version="1.1" id="Capa_1" xmlns="http://www.w3.org/2000/svg" xmlns:xlink="http://www.w3.org/1999/xlink" x="0px" y="0px"
	 width="64px" height="64px" viewBox="0 0 64 64" enable-background="new 0 0 64 64" xml:space="preserve">
<path fill-rule="evenodd" clip-rule="evenodd" d="M55.615,64c-0.065,0-11.851-0.006-11.898-0.006c-4.631,0-8.384-4.128-8.384-9.222
	c0-0.137,0.014-0.383,0.014-0.383c0.263-1.153,1.228-1.972,2.356-1.972c1.2,0,2.17,0.925,2.355,2.187c0,0,0.003,0.138,0.003,0.166
	c0,2.411,1.777,4.367,3.971,4.367c0.021,0,11.493,0.002,11.524,0.002c2.193,0,3.97-1.956,3.97-4.365c0-2.412-1.776-4.367-3.97-4.367
	c-1.124,0-2.748,0.004-2.748,0.004c-0.636-2.033-1.898-3.745-3.534-4.855c0,0,3.115-0.002,6.341-0.002
	c4.631,0,8.385,4.129,8.385,9.223S60.246,64,55.615,64z M50.52,8.716c0-1.014-0.813-1.834-1.815-1.834H8.649
	c-1.004,0-1.815,0.821-1.815,1.834v37.979c0,1.014,0.812,1.835,1.815,1.835h6.08c-0.203,0.02-0.085,6.82-0.175,6.925H3.629
	C1.625,55.455,0,53.813,0,51.786V3.67C0,1.643,1.625,0,3.629,0h50.094c2.005,0,3.63,1.643,3.63,3.67v33.503H50.52V8.716z
	 M23.152,37.044V17.596c0.419-0.423,1.713-0.672,2.132-0.248l12.906,9.205c0.419,0.423,0.419,1.111,0,1.534l-12.906,9.206
	C24.865,37.715,23.571,37.468,23.152,37.044z M29.681,45.536c0.066,0,11.851,0.004,11.898,0.004c4.63,0,8.384,4.13,8.384,9.225
	c0,0.136-0.014,0.381-0.014,0.381c-0.263,1.154-1.229,1.974-2.356,1.974c-1.201,0-2.168-0.926-2.355-2.188
	c0,0-0.003-0.138-0.003-0.167c0-2.411-1.777-4.367-3.97-4.367c-0.022,0-11.494-0.001-11.525-0.001c-2.192,0-3.97,1.954-3.97,4.368
	c0,2.409,1.777,4.365,3.97,4.365c1.124,0,2.749-0.004,2.749-0.004c0.635,2.032,1.896,3.743,3.533,4.854c0,0-3.116,0.002-6.341,0.002
	c-4.631,0-8.385-4.129-8.385-9.224C21.296,49.666,25.05,45.536,29.681,45.536z"/>
</svg>
