<?xml version="1.0" encoding="utf-8"?>
<!-- Generator: Adobe Illustrator 14.0.0, SVG Export Plug-In . SVG Version: 6.00 Build 43363)  -->
<!DOCTYPE svg PUBLIC "-//W3C//DTD SVG 1.1//EN" "http://www.w3.org/Graphics/SVG/1.1/DTD/svg11.dtd">
<svg version="1.1" id="Capa_1" xmlns="http://www.w3.org/2000/svg" xmlns:xlink="http://www.w3.org/1999/xlink" x="0px" y="0px"
	 width="64px" height="64px" viewBox="0 0 64 64" enable-background="new 0 0 64 64" xml:space="preserve">
<path id="arrobe" d="M57.151,48.992c-1.926,2.808-4.826,5.191-8.699,7.154c-3.875,1.961-8.68,2.941-14.414,2.941
	c-5.36,0-10.248-0.937-14.658-2.813c-4.409-1.873-7.779-4.775-10.11-8.699c-2.332-3.928-3.498-8.61-3.498-14.044
	c0-5.191,1.166-10.056,3.501-14.592c2.334-4.538,5.62-8.021,9.86-10.449c4.238-2.43,8.923-3.644,14.048-3.644
	c4.493,0,8.598,0.964,12.312,2.894c3.714,1.929,6.507,4.5,8.381,7.715c1.873,3.214,2.81,6.671,2.81,10.372
	c0,3.171-0.728,6.246-2.185,9.228c-1.456,2.983-3.433,5.36-5.929,7.132c-1.883,1.354-3.404,2.029-4.564,2.029
	c-0.636,0-1.177-0.216-1.627-0.65c-0.447-0.434-0.673-0.949-0.673-1.55c0-0.333,0.328-2.057,0.983-5.168l4.728-22.378h-5.847
	l-1.151,5.178c-1.245-2.066-2.731-3.606-4.46-4.617c-1.727-1.01-3.541-1.517-5.442-1.517c-2.493,0-5.061,0.89-7.705,2.667
	c-2.646,1.779-4.859,4.439-6.642,7.982s-2.674,7.083-2.674,10.615c0,2.867,0.575,5.5,1.725,7.899
	c1.147,2.399,2.643,4.179,4.48,5.333c1.838,1.155,3.73,1.732,5.68,1.732c1.771,0,3.539-0.504,5.303-1.516
	c1.761-1.011,3.353-2.35,4.775-4.017c0.131,1.365,0.339,2.326,0.622,2.886c0.438,0.872,1.121,1.542,2.049,2.011
	c0.931,0.469,2.147,0.704,3.655,0.704c4.719,0,9.068-2.239,13.047-6.721c4.458-4.989,6.686-10.702,6.686-17.134
	c0-4.503-1.062-8.673-3.184-12.511c-2.497-4.458-5.906-7.812-10.229-10.064C43.781,1.128,38.903,0,33.476,0
	c-7.003,0-12.964,1.597-17.878,4.792C10.683,7.982,6.891,12.586,4.22,18.597C2.03,23.496,0.937,28.652,0.937,34.065
	c0,4.855,0.919,9.379,2.757,13.569c1.463,3.306,3.639,6.227,6.527,8.764c2.885,2.542,6.378,4.442,10.478,5.707
	C24.799,63.369,29.276,64,34.132,64c5.27,0,9.774-0.706,13.514-2.118c3.738-1.411,6.965-3.328,9.676-5.754
	c2.713-2.424,4.627-4.805,5.742-7.136H57.151z M37.366,34.81c-0.788,2.256-1.803,4.117-3.036,5.585
	c-1.238,1.467-2.535,2.571-3.892,3.317c-1.355,0.744-2.648,1.117-3.874,1.117c-1.838,0-3.468-0.845-4.892-2.533
	c-1.423-1.688-2.134-4.056-2.134-7.1c0-1.912,0.351-4.014,1.051-6.301c0.7-2.29,1.63-4.234,2.789-5.834
	c1.161-1.601,2.359-2.761,3.597-3.485c1.235-0.722,2.555-1.083,3.956-1.083c2.122,0,3.923,0.833,5.399,2.501
	c1.477,1.668,2.215,4.011,2.215,7.034C38.547,30.292,38.153,32.554,37.366,34.81z"/>
</svg>
