<?xml version="1.0" encoding="utf-8"?>
<!-- Generator: Adobe Illustrator 14.0.0, SVG Export Plug-In . SVG Version: 6.00 Build 43363)  -->
<!DOCTYPE svg PUBLIC "-//W3C//DTD SVG 1.1//EN" "http://www.w3.org/Graphics/SVG/1.1/DTD/svg11.dtd">
<svg version="1.1" id="Capa_1" xmlns="http://www.w3.org/2000/svg" xmlns:xlink="http://www.w3.org/1999/xlink" x="0px" y="0px"
	 width="64px" height="64px" viewBox="0 0 64 64" enable-background="new 0 0 64 64" xml:space="preserve">
<path id="arrow_back_6_5_" d="M63.889,14.952c0.006,1.772,0.107,32.868,0.111,34.09c0.006,1.584-1.456,2.77-2.909,1.848
	c-1.163-0.74-24.418-15.65-26.403-16.926c-1.301-0.838-1.287-2.844-0.012-3.692c1.424-0.944,24.67-16.083,26.352-17.135
	C62.26,12.364,63.883,13.208,63.889,14.952z M30.173,14.89c0.006,1.771,0.107,32.867,0.111,34.09
	c0.006,1.584-1.456,2.77-2.909,1.848c-1.164-0.74-24.418-15.65-26.403-16.926c-1.302-0.838-1.287-2.844-0.012-3.692
	c1.424-0.944,24.669-16.083,26.352-17.135C28.544,12.302,30.167,13.145,30.173,14.89z"/>
</svg>
