<?xml version="1.0" encoding="utf-8"?>
<!-- Generator: Adobe Illustrator 14.0.0, SVG Export Plug-In . SVG Version: 6.00 Build 43363)  -->
<!DOCTYPE svg PUBLIC "-//W3C//DTD SVG 1.1//EN" "http://www.w3.org/Graphics/SVG/1.1/DTD/svg11.dtd">
<svg version="1.1" id="Capa_1" xmlns="http://www.w3.org/2000/svg" xmlns:xlink="http://www.w3.org/1999/xlink" x="0px" y="0px"
	 width="64px" height="64px" viewBox="0 0 64 64" enable-background="new 0 0 64 64" xml:space="preserve">
<path id="pause" d="M41.491,12.479c-1.648,0-2.984,1.344-2.984,3.004V48.52c0,1.658,1.336,3.002,2.984,3.002h5.421
	c1.646,0,2.982-1.344,2.982-3.002V15.482c0-1.66-1.336-3.004-2.982-3.004L41.491,12.479L41.491,12.479z M17.089,12.479
	c-1.646,0-2.983,1.345-2.983,3.004V48.52c0,1.658,1.337,3.002,2.983,3.002h5.421c1.649,0,2.982-1.344,2.982-3.002V15.482
	c0-1.66-1.333-3.004-2.982-3.004L17.089,12.479L17.089,12.479z"/>
</svg>
