<?xml version="1.0" encoding="utf-8"?>
<!-- Generator: Adobe Illustrator 14.0.0, SVG Export Plug-In . SVG Version: 6.00 Build 43363)  -->
<!DOCTYPE svg PUBLIC "-//W3C//DTD SVG 1.1//EN" "http://www.w3.org/Graphics/SVG/1.1/DTD/svg11.dtd">
<svg version="1.1" id="Capa_1" xmlns="http://www.w3.org/2000/svg" xmlns:xlink="http://www.w3.org/1999/xlink" x="0px" y="0px"
	 width="64px" height="64px" viewBox="0 0 64 64" enable-background="new 0 0 64 64" xml:space="preserve">
<g>
	<path fill-rule="evenodd" clip-rule="evenodd" d="M53.631,50.821c-2.428,0-4.514-1.324-5.587-3.251h-9.801
		c-1.074,1.927-3.16,3.251-5.588,3.251c-2.428,0-4.512-1.324-5.587-3.251H15.957c-1.075,1.927-3.16,3.251-5.588,3.251
		C6.851,50.821,4,48.073,4,44.683c0-3.39,2.851-6.139,6.369-6.139c2.79,0,5.133,1.739,5.996,4.146h10.276
		c0.602-1.68,1.932-3.031,3.632-3.694v-8.623c-3.857-1.01-6.698-4.401-6.698-8.439c0-4.835,4.066-8.755,9.082-8.755
		s9.083,3.92,9.083,8.755c0,3.936-2.695,7.265-6.403,8.366v8.833c1.554,0.699,2.761,1.983,3.328,3.558h8.97
		c0.862-2.407,3.207-4.146,5.996-4.146c3.518,0,6.369,2.749,6.369,6.139C60,48.073,57.148,50.821,53.631,50.821z"/>
</g>
</svg>
