<?xml version="1.0" encoding="utf-8"?>
<!-- Generator: Adobe Illustrator 14.0.0, SVG Export Plug-In . SVG Version: 6.00 Build 43363)  -->
<!DOCTYPE svg PUBLIC "-//W3C//DTD SVG 1.1//EN" "http://www.w3.org/Graphics/SVG/1.1/DTD/svg11.dtd">
<svg version="1.1" id="Capa_1" xmlns="http://www.w3.org/2000/svg" xmlns:xlink="http://www.w3.org/1999/xlink" x="0px" y="0px"
	 width="64px" height="64px" viewBox="0 0 64 64" enable-background="new 0 0 64 64" xml:space="preserve">
<path fill-rule="evenodd" clip-rule="evenodd" d="M63.169,25.393L44.145,42.305c-0.087,0.109-0.147,0.232-0.258,0.326l-2.476,2.102
	l-0.907,0.809c-0.413,0.33-0.909,0.479-1.4,0.475c-0.636,0.006-1.271-0.248-1.715-0.771l-7.149-8.43l6.624-5.887l2.906,3.424
	L57.635,18.47c0.956-0.764,2.35-0.609,3.113,0.346l2.767,3.462C64.278,23.234,64.124,24.628,63.169,25.393z M17.18,42.305
	c-0.087,0.109-0.147,0.232-0.258,0.326l-2.476,2.102l-0.907,0.809c-0.414,0.33-0.909,0.479-1.401,0.475
	c-0.636,0.006-1.271-0.248-1.715-0.771l-9.898-11.67c-0.792-0.932-0.677-2.331,0.255-3.123l3.377-2.868
	c0.933-0.792,2.331-0.678,3.122,0.255l5.524,6.513L30.671,18.47c0.955-0.764,2.348-0.609,3.113,0.346l2.767,3.462
	c0.764,0.956,0.608,2.35-0.346,3.115L17.18,42.305z"/>
</svg>
