<?xml version="1.0" encoding="utf-8"?>
<!-- Generator: Adobe Illustrator 14.0.0, SVG Export Plug-In . SVG Version: 6.00 Build 43363)  -->
<!DOCTYPE svg PUBLIC "-//W3C//DTD SVG 1.1//EN" "http://www.w3.org/Graphics/SVG/1.1/DTD/svg11.dtd">
<svg version="1.1" id="Capa_1" xmlns="http://www.w3.org/2000/svg" xmlns:xlink="http://www.w3.org/1999/xlink" x="0px" y="0px"
	 width="64px" height="64px" viewBox="0 0 64 64" enable-background="new 0 0 64 64" xml:space="preserve">
<path id="email" d="M64,45.119V18.88L43.014,32L64,45.119z M0.509,52.621C1.438,54.663,3.548,56.088,6,56.088h52
	c2.441,0,4.547-1.414,5.482-3.441C63.816,51.923,64,51.124,64,50.279L38.88,34.58L32,38.882l-6.88-4.302L0,50.279
	C0,51.111,0.184,51.906,0.509,52.621z M0,18.88v26.239L20.987,32L0,18.88z M6,7.912c-2.452,0-4.563,1.423-5.491,3.467
	C0.182,12.096,0,12.885,0,13.719l32,20.001l32-20.001c0-0.842-0.186-1.644-0.518-2.366c-0.937-2.028-3.041-3.44-5.482-3.44L6,7.912
	L6,7.912z"/>
</svg>
