<?xml version="1.0" encoding="utf-8"?>
<!-- Generator: Adobe Illustrator 14.0.0, SVG Export Plug-In . SVG Version: 6.00 Build 43363)  -->
<!DOCTYPE svg PUBLIC "-//W3C//DTD SVG 1.1//EN" "http://www.w3.org/Graphics/SVG/1.1/DTD/svg11.dtd">
<svg version="1.1" id="Capa_1" xmlns="http://www.w3.org/2000/svg" xmlns:xlink="http://www.w3.org/1999/xlink" x="0px" y="0px"
	 width="64px" height="64px" viewBox="0 0 64 64" enable-background="new 0 0 64 64" xml:space="preserve">
<path d="M63.463,45.096L51.188,56.007c-0.055,0.071-0.095,0.152-0.166,0.211l-1.599,1.357l-0.585,0.519
	c-0.268,0.215-0.586,0.311-0.902,0.309c-0.41,0.004-0.822-0.159-1.107-0.498l-6.387-7.527c-0.512-0.604-0.438-1.507,0.164-2.018
	l2.179-1.852c0.604-0.51,1.505-0.438,2.017,0.164l3.563,4.204l11.529-10.248c0.616-0.495,1.518-0.394,2.01,0.222l1.785,2.235
	C64.182,43.702,64.08,44.602,63.463,45.096z M45.299,43.761c-0.918-1.079-2.853-1.689-3.933-0.773l-4.388,3.479
	c-1.077,0.917-1.052,2.854-0.135,3.935l1.029,1.517H10.416c-1.462,0-2.648-1.187-2.648-2.65V23.151c0-1.463,1.186-2.651,2.648-2.651
	h22.511v-2.041c0-0.732,0.594-1.326,1.324-1.326h18.208c0.73,0,2.151,0.593,2.151,1.326v2.136c1.142,0.296,1.157,1.323,1.157,2.557
	v19.054l-6.863,6.104L45.299,43.761z"/>
</svg>
