<?xml version="1.0" encoding="utf-8"?>
<!-- Generator: Adobe Illustrator 14.0.0, SVG Export Plug-In . SVG Version: 6.00 Build 43363)  -->
<!DOCTYPE svg PUBLIC "-//W3C//DTD SVG 1.1//EN" "http://www.w3.org/Graphics/SVG/1.1/DTD/svg11.dtd">
<svg version="1.1" id="Capa_1" xmlns="http://www.w3.org/2000/svg" xmlns:xlink="http://www.w3.org/1999/xlink" x="0px" y="0px"
	 width="64px" height="64px" viewBox="0 0 64 64" enable-background="new 0 0 64 64" xml:space="preserve">
<path d="M59.952,28.868l-4.027,20.214c-0.585,1.813-2.013,2.534-3.083,2.824c-0.505,0.157-0.989,0.229-1.384,0.229H10.696
	C9.618,52.135,8,51.091,8,49.199V21.306c0-1.605,1.229-2.907,2.741-2.907h23.041v-2.239c0-0.803,1.041-1.454,1.797-1.454h16.873
	c0.756,0,2.651-0.249,2.651,1.454v3.195c1.224-0.009,1.195,0.417,1.198,1.952v5.049l1.862-0.007
	C59.202,26.327,60.233,27.725,59.952,28.868z M51.239,22.301v-2.954c0-1.341-1.156-1.144-1.752-1.144H38.682
	c-0.597,0-1.079,0.511-1.079,1.144v2.874H13.136c-1.19,0-1.304,0.171-1.304,1.435v14.117l2.603-9.334
	c0.334-1.356,1.249-2.212,2.734-2.212l34.943-0.05c0,0-0.008-3.257-0.011-3.38C52.091,22.362,51.956,22.25,51.239,22.301z"/>
</svg>
