<?xml version="1.0" encoding="utf-8"?>
<!-- Generator: Adobe Illustrator 14.0.0, SVG Export Plug-In . SVG Version: 6.00 Build 43363)  -->
<!DOCTYPE svg PUBLIC "-//W3C//DTD SVG 1.1//EN" "http://www.w3.org/Graphics/SVG/1.1/DTD/svg11.dtd">
<svg version="1.1" id="Capa_1" xmlns="http://www.w3.org/2000/svg" xmlns:xlink="http://www.w3.org/1999/xlink" x="0px" y="0px"
	 width="64px" height="64px" viewBox="0 0 64 64" enable-background="new 0 0 64 64" xml:space="preserve">
<path fill-rule="evenodd" clip-rule="evenodd" d="M55.614,64c-0.065,0-11.85-0.006-11.897-0.006c-4.631,0-8.384-4.129-8.384-9.222
	c0-0.137,0.014-0.384,0.014-0.384c0.263-1.152,1.227-1.971,2.356-1.971c1.2,0,2.168,0.924,2.354,2.187c0,0,0.004,0.138,0.004,0.166
	c0,2.411,1.776,4.367,3.969,4.367c0.023,0,11.495,0.002,11.526,0.002c2.192,0,3.97-1.956,3.97-4.365c0-2.412-1.777-4.368-3.97-4.368
	c-1.125,0-2.749,0.004-2.749,0.004c-0.635-2.032-1.898-3.744-3.534-4.854c0,0,3.116-0.002,6.341-0.002
	c4.631,0,8.386,4.129,8.386,9.223C64,59.869,60.245,64,55.614,64z M50.52,8.716c0-1.013-0.813-1.834-1.815-1.834H8.647
	c-1.002,0-1.814,0.821-1.814,1.834v37.979c0,1.014,0.813,1.835,1.814,1.835h6.082c-0.203,0.02-0.086,6.82-0.175,6.925H3.629
	C1.625,55.455,0,53.813,0,51.786V3.67C0,1.643,1.625,0,3.629,0h50.094c2.005,0,3.63,1.643,3.63,3.67v33.503H50.52V8.716z
	 M20.356,14.898c2.844,0,5.149,2.329,5.149,5.203c0,2.873-2.306,5.202-5.149,5.202s-5.148-2.329-5.148-5.202
	C15.208,17.227,17.513,14.898,20.356,14.898z M25.506,35.709l10.298-10.406l7.759,13.947l-28.354-0.072l6.865-6.938L25.506,35.709z
	 M29.681,45.536c0.065,0,11.85,0.004,11.896,0.004c4.633,0,8.386,4.13,8.386,9.224c0,0.137-0.014,0.381-0.014,0.381
	c-0.264,1.155-1.229,1.974-2.358,1.974c-1.2,0-2.168-0.925-2.354-2.187c0,0-0.004-0.138-0.004-0.168c0-2.41-1.776-4.366-3.97-4.366
	c-0.022,0-11.493-0.001-11.525-0.001c-2.192,0-3.97,1.954-3.97,4.367c0,2.41,1.777,4.366,3.97,4.366
	c1.125,0,2.749-0.004,2.749-0.004c0.636,2.032,1.897,3.743,3.534,4.854c0,0-3.117,0.002-6.341,0.002
	c-4.631,0-8.385-4.129-8.385-9.225C21.296,49.666,25.05,45.536,29.681,45.536z"/>
</svg>
