<?xml version="1.0" encoding="utf-8"?>
<!-- Generator: Adobe Illustrator 14.0.0, SVG Export Plug-In . SVG Version: 6.00 Build 43363)  -->
<!DOCTYPE svg PUBLIC "-//W3C//DTD SVG 1.1//EN" "http://www.w3.org/Graphics/SVG/1.1/DTD/svg11.dtd">
<svg version="1.1" id="Capa_1" xmlns="http://www.w3.org/2000/svg" xmlns:xlink="http://www.w3.org/1999/xlink" x="0px" y="0px"
	 width="64px" height="64px" viewBox="0 0 64 64" enable-background="new 0 0 64 64" xml:space="preserve">
<path id="mailbox" d="M63.316,57.304v3.775H1.354v-3.887L0,58.704V46.448l14.625-16.335v12.256l-3.652,4.077h42.621l-4.216-4.716
	V29.475L64,45.81v12.256L63.316,57.304z M51.768,25.188l-2.327-2.282l3.869-5.02l2.398-2.448l3.399,3.329l-2.399,2.448
	L51.768,25.188z M43.779,19.432l-3.654-1.718l2.479-7.452l1.806-3.843l5.334,2.509l-1.807,3.842L43.779,19.432z M28.998,15.032
	l-1.037-7.783l-0.06-4.247l5.895-0.083l0.059,4.246l-0.818,7.81L28.998,15.032z M48.672,40.659H15.317V29.42h33.354V40.659z
	 M13.914,12.599L12.15,8.736l5.359-2.45l1.765,3.862l2.398,7.477L18,19.304L13.914,12.599z M10.82,25.129l-5.101-3.761l-2.498-2.348
	l3.258-3.469L8.977,17.9l4.074,4.854L10.82,25.129z"/>
</svg>
