<?xml version="1.0" encoding="utf-8"?>
<!-- Generator: Adobe Illustrator 14.0.0, SVG Export Plug-In . SVG Version: 6.00 Build 43363)  -->
<!DOCTYPE svg PUBLIC "-//W3C//DTD SVG 1.1//EN" "http://www.w3.org/Graphics/SVG/1.1/DTD/svg11.dtd">
<svg version="1.1" id="Capa_1" xmlns="http://www.w3.org/2000/svg" xmlns:xlink="http://www.w3.org/1999/xlink" x="0px" y="0px"
	 width="64px" height="64px" viewBox="0 0 64 64" enable-background="new 0 0 64 64" xml:space="preserve">
<path id="info" d="M32.888,6.377c0,3.802,2.874,6.379,6.413,6.379c3.542,0,6.414-2.578,6.414-6.379c0-3.8-2.871-6.377-6.414-6.377
	C35.761,0,32.888,2.578,32.888,6.377z M18.285,28.75c0,0.754,0.206,2.398,0.359,3.526l3.148-3.893l2.448-2.842
	c1.159-1.269,2.496-2.156,3.183-1.915c0.684,0.24,1.059,1.042,0.836,1.794l-9.261,30.673c-0.964,3.188,0.656,6.597,3.622,7.617
	c0.683,0.234,1.378,0.323,2.055,0.278l0.187,0.011c7.084,0,11.937-5.21,16.144-11.524c0-0.754-0.206-2.396-0.36-3.526l-3.146,3.894
	l-2.448,2.843c-1.159,1.269-2.602,2.155-3.285,1.916c-0.634-0.224-1-0.926-0.876-1.626l9.325-30.82
	c0.966-3.188-0.658-6.6-3.622-7.618c-0.692-0.239-2.133-0.313-2.163-0.313C27.345,17.225,22.493,22.437,18.285,28.75z"/>
</svg>
