<?xml version="1.0" encoding="utf-8"?>
<!-- Generator: Adobe Illustrator 14.0.0, SVG Export Plug-In . SVG Version: 6.00 Build 43363)  -->
<!DOCTYPE svg PUBLIC "-//W3C//DTD SVG 1.1//EN" "http://www.w3.org/Graphics/SVG/1.1/DTD/svg11.dtd">
<svg version="1.1" id="Capa_1" xmlns="http://www.w3.org/2000/svg" xmlns:xlink="http://www.w3.org/1999/xlink" x="0px" y="0px"
	 width="64px" height="64px" viewBox="0 0 64 64" enable-background="new 0 0 64 64" xml:space="preserve">
<path fill-rule="evenodd" clip-rule="evenodd" d="M12.566,18.308c0.099,0,17.76,0.006,17.832,0.006
	c6.939,0,12.565,6.125,12.565,13.681c0,0.201-0.021,0.566-0.021,0.566c-0.394,1.711-1.839,2.925-3.533,2.925
	c-1.798,0-3.249-1.37-3.528-3.242c0,0-0.004-0.205-0.004-0.247c0-3.578-2.664-6.478-5.95-6.478c-0.034,0-17.227-0.003-17.273-0.003
	c-3.286,0-5.949,2.899-5.949,6.477s2.663,6.477,5.949,6.477c1.685,0,4.119-0.006,4.119-0.006c0.953,3.016,2.845,5.554,5.297,7.201
	c0,0-4.671,0.003-9.503,0.003C5.626,45.667,0,39.542,0,31.987C0,24.432,5.626,18.308,12.566,18.308z M21.059,31.439
	c0.394-1.711,1.839-2.925,3.533-2.925c1.798,0,3.248,1.37,3.527,3.242c0,0,0.005,0.205,0.005,0.248c0,3.577,2.664,6.477,5.949,6.477
	c0.034,0,17.228,0.003,17.273,0.003c3.286,0,5.95-2.899,5.95-6.477s-2.664-6.477-5.95-6.477c-1.685,0-4.119,0.006-4.119,0.006
	c-0.952-3.015-2.845-5.554-5.296-7.201c0,0,4.67-0.003,9.502-0.003c6.94,0,12.566,6.125,12.566,13.68
	c0,7.556-5.626,13.68-12.566,13.68c-0.099,0-17.759-0.007-17.831-0.007c-6.939,0-12.565-6.124-12.565-13.68
	C21.037,31.805,21.059,31.439,21.059,31.439z"/>
</svg>
