<?xml version="1.0" encoding="utf-8"?>
<!-- Generator: Adobe Illustrator 14.0.0, SVG Export Plug-In . SVG Version: 6.00 Build 43363)  -->
<!DOCTYPE svg PUBLIC "-//W3C//DTD SVG 1.1//EN" "http://www.w3.org/Graphics/SVG/1.1/DTD/svg11.dtd">
<svg version="1.1" id="Capa_1" xmlns="http://www.w3.org/2000/svg" xmlns:xlink="http://www.w3.org/1999/xlink" x="0px" y="0px"
	 width="64px" height="64px" viewBox="0 0 64 64" enable-background="new 0 0 64 64" xml:space="preserve">
<path id="link" d="M28.913,28.607h6.174c0.574-3.324,3.105-5.828,6.146-5.828h15.163c3.461,0,7.604,3.249,7.604,7.256v3.93
	c0,4.007-4.143,7.256-7.604,7.256H41.233c-3.041,0-5.572-2.506-6.146-5.828h-6.174c-0.572,3.322-3.106,5.828-6.145,5.828H7.604
	C4.143,41.221,0,37.973,0,33.965v-3.93c0-4.006,4.143-7.256,7.604-7.256h15.165C25.806,22.779,28.34,25.283,28.913,28.607z
	 M40.579,28.607h2.669c1.321,0,2.393,1.071,2.393,2.395v1.993c0,1.324-1.072,2.396-2.393,2.396h-2.669
	c0.806,0.545,1.877,0.876,3.054,0.876h8.098c2.506,0,4.535-1.504,4.535-3.358v-1.82c0-1.855-2.029-3.358-4.535-3.358h-8.098
	C42.456,27.731,41.385,28.063,40.579,28.607z M18.392,31.003c0-1.324,1.073-2.395,2.395-2.395h2.634
	c-0.808-0.545-1.878-0.876-3.055-0.876H12.27c-2.506,0-4.537,1.503-4.537,3.358v1.819c0,1.854,2.031,3.359,4.537,3.359h8.096
	c1.175,0,2.247-0.331,3.055-0.876h-2.634c-1.323,0-2.395-1.072-2.395-2.395V31.003z"/>
</svg>
