<?xml version="1.0" encoding="utf-8"?>
<!-- Generator: Adobe Illustrator 14.0.0, SVG Export Plug-In . SVG Version: 6.00 Build 43363)  -->
<!DOCTYPE svg PUBLIC "-//W3C//DTD SVG 1.1//EN" "http://www.w3.org/Graphics/SVG/1.1/DTD/svg11.dtd">
<svg version="1.1" id="Capa_1" xmlns="http://www.w3.org/2000/svg" xmlns:xlink="http://www.w3.org/1999/xlink" x="0px" y="0px"
	 width="64px" height="64px" viewBox="0 0 64 64" enable-background="new 0 0 64 64" xml:space="preserve">
<path fill-rule="evenodd" clip-rule="evenodd" d="M28.928,45.812c0.065,0,11.795,0.005,11.844,0.005
	c4.608,0,8.345,4.066,8.345,9.085c0,0.135-0.014,0.377-0.014,0.377c-0.262,1.137-1.222,1.942-2.346,1.942
	c-1.196,0-2.158-0.911-2.344-2.153c0,0-0.004-0.136-0.004-0.164c0-2.376-1.77-4.303-3.951-4.303c-0.022,0-11.441-0.003-11.473-0.003
	c-2.182,0-3.951,1.928-3.951,4.303c0,2.376,1.77,4.303,3.951,4.303c1.118,0,2.735-0.005,2.735-0.005
	c0.633,2.004,1.89,3.689,3.519,4.784c0,0-3.102,0.001-6.312,0.001c-4.609,0-8.346-4.068-8.346-9.085
	C20.582,49.879,24.318,45.812,28.928,45.812z M34.567,54.534c0.262-1.137,1.222-1.943,2.347-1.943c1.195,0,2.157,0.91,2.343,2.153
	c0,0,0.004,0.136,0.004,0.164c0,2.377,1.77,4.303,3.952,4.303c0.021,0,11.441,0.002,11.472,0.002c2.183,0,3.951-1.927,3.951-4.302
	c0-2.376-1.769-4.303-3.951-4.303c-1.118,0-2.735,0.005-2.735,0.005c-0.633-2.002-1.89-3.688-3.519-4.783
	c0,0,3.103-0.002,6.312-0.002c4.61,0,8.347,4.068,8.347,9.087S59.353,64,54.742,64c-0.065,0-11.795-0.004-11.844-0.004
	c-4.608,0-8.345-4.068-8.345-9.085C34.554,54.776,34.567,54.534,34.567,54.534z M0.911,9.766h53.695V0H0.911V9.766z M0.911,48.824
	h14.552c0,0,1.39-9.07,13.2-9.765c6.947,0-27.752,0-27.752,0V48.824z M54.239,19.604L0.911,19.531v9.764h53.328V19.604z"/>
</svg>
