<?xml version="1.0" encoding="utf-8"?>
<!-- Generator: Adobe Illustrator 14.0.0, SVG Export Plug-In . SVG Version: 6.00 Build 43363)  -->
<!DOCTYPE svg PUBLIC "-//W3C//DTD SVG 1.1//EN" "http://www.w3.org/Graphics/SVG/1.1/DTD/svg11.dtd">
<svg version="1.1" id="Capa_1" xmlns="http://www.w3.org/2000/svg" xmlns:xlink="http://www.w3.org/1999/xlink" x="0px" y="0px"
	 width="64px" height="64px" viewBox="0 0 64 64" enable-background="new 0 0 64 64" xml:space="preserve">
<path id="locate_2" d="M19.121,20.164c0-7.07,5.766-12.805,12.883-12.805c7.109,0,12.875,5.734,12.875,12.805
	c0,7.063-5.766,12.797-12.875,12.797C24.887,32.961,19.121,27.227,19.121,20.164z M10.105,21.758c0,5.359,6.305,12.852,9.531,16.641
	C23.652,43.109,32.004,64,32.004,64s8.297-20.781,12.313-25.602c3.141-3.766,9.578-11.367,9.578-16.641
	C53.895,9.742,44.098,0,32.004,0S10.105,9.742,10.105,21.758z"/>
</svg>
