<?xml version="1.0" encoding="utf-8"?>
<!-- Generator: Adobe Illustrator 14.0.0, SVG Export Plug-In . SVG Version: 6.00 Build 43363)  -->
<!DOCTYPE svg PUBLIC "-//W3C//DTD SVG 1.1//EN" "http://www.w3.org/Graphics/SVG/1.1/DTD/svg11.dtd">
<svg version="1.1" id="Capa_1" xmlns="http://www.w3.org/2000/svg" xmlns:xlink="http://www.w3.org/1999/xlink" x="0px" y="0px"
	 width="64px" height="64px" viewBox="0 0 64 64" enable-background="new 0 0 64 64" xml:space="preserve">
<path id="locate_warning" d="M44.316,38.399C40.301,43.215,32,64,32,64s-8.35-20.885-12.367-25.601
	c-3.227-3.788-9.528-11.285-9.528-16.641C10.105,9.741,19.908,0,32,0c12.093,0,21.894,9.741,21.894,21.759
	C53.895,27.034,47.457,34.634,44.316,38.399z M32,7.36c-7.113,0-12.881,5.73-12.881,12.8S24.887,32.96,32,32.96
	c7.113,0,12.878-5.73,12.878-12.8S39.113,7.36,32,7.36z M29.786,24.018l-0.953-7.996v-4.355h6.046v4.355l-0.953,7.996H29.786z
	 M34.213,28.753h-4.585v-3.355h4.585V28.753z"/>
</svg>
