<?xml version="1.0" encoding="utf-8"?>
<!-- Generator: Adobe Illustrator 14.0.0, SVG Export Plug-In . SVG Version: 6.00 Build 43363)  -->
<!DOCTYPE svg PUBLIC "-//W3C//DTD SVG 1.1//EN" "http://www.w3.org/Graphics/SVG/1.1/DTD/svg11.dtd">
<svg version="1.1" id="Capa_1" xmlns="http://www.w3.org/2000/svg" xmlns:xlink="http://www.w3.org/1999/xlink" x="0px" y="0px"
	 width="64px" height="64px" viewBox="0 0 64 64" enable-background="new 0 0 64 64" xml:space="preserve">
<g id="new_email">
	<polygon points="0,18.88 0,45.119 20.987,32 	"/>
	<path d="M64,40.362V18.88L43.014,32l6.074,3.797C54.324,34.805,59.941,36.325,64,40.362z"/>
	<path d="M64,13.719c0-0.842-0.186-1.644-0.518-2.366C62.546,9.325,60.441,7.913,58,7.913H6V7.912c-2.452,0-4.563,1.423-5.491,3.467
		C0.182,12.096,0,12.885,0,13.719l32,20.002L64,13.719z"/>
	<path d="M40.396,40.396c1.072-1.072,2.262-1.95,3.517-2.671L38.88,34.58L32,38.882l-6.88-4.302L0,50.279
		c0,0.832,0.184,1.627,0.509,2.342C1.438,54.663,3.548,56.088,6,56.088h29.972C34.678,50.631,36.141,44.652,40.396,40.396z"/>
	<path d="M60.548,43.888c-4.598-4.601-12.06-4.601-16.66,0s-4.601,12.061,0,16.662c4.601,4.601,12.063,4.601,16.66,0
		C65.15,55.948,65.15,48.488,60.548,43.888z M59.719,52.514c0,0.814-0.658,1.472-1.472,1.472h-4.325v4.325
		c0,0.813-0.66,1.474-1.472,1.474h-0.461c-0.813,0-1.472-0.66-1.472-1.474v-4.325H46.19c-0.812,0-1.471-0.657-1.471-1.472v-0.46
		c0-0.812,0.657-1.472,1.471-1.472h4.327v-4.325c0-0.813,0.658-1.474,1.472-1.474h0.461c0.812,0,1.472,0.66,1.472,1.474v4.325h4.325
		c0.813,0,1.472,0.658,1.472,1.472V52.514z"/>
</g>
</svg>
