<?xml version="1.0" encoding="utf-8"?>
<!-- Generator: Adobe Illustrator 14.0.0, SVG Export Plug-In . SVG Version: 6.00 Build 43363)  -->
<!DOCTYPE svg PUBLIC "-//W3C//DTD SVG 1.1//EN" "http://www.w3.org/Graphics/SVG/1.1/DTD/svg11.dtd">
<svg version="1.1" id="Capa_1" xmlns="http://www.w3.org/2000/svg" xmlns:xlink="http://www.w3.org/1999/xlink" x="0px" y="0px"
	 width="64px" height="64px" viewBox="0 0 64 64" enable-background="new 0 0 64 64" xml:space="preserve">
<g id="new_folder">
	<path d="M40.985,40.985c5.153-5.153,12.962-6.011,19.015-2.602V18.739c0-1.438-0.021-2.636-1.352-2.98V13.27
		c0-0.854-1.656-1.546-2.511-1.546H34.896c-0.854,0-1.545,0.691-1.545,1.546v2.38H7.089C5.384,15.649,4,17.033,4,18.739v30.448
		c0,1.703,1.384,3.088,3.089,3.088h29.247C36.321,48.19,37.869,44.102,40.985,40.985z"/>
	<path d="M60.548,43.888c-4.598-4.601-12.06-4.601-16.66,0s-4.601,12.061,0,16.662c4.601,4.601,12.063,4.601,16.66,0
		C65.15,55.948,65.15,48.488,60.548,43.888z M59.719,52.514c0,0.814-0.658,1.472-1.472,1.472h-4.325v4.325
		c0,0.813-0.66,1.474-1.472,1.474h-0.461c-0.813,0-1.472-0.66-1.472-1.474v-4.325H46.19c-0.812,0-1.471-0.657-1.471-1.472v-0.46
		c0-0.812,0.657-1.472,1.471-1.472h4.327v-4.325c0-0.813,0.658-1.474,1.472-1.474h0.461c0.812,0,1.472,0.66,1.472,1.474v4.325h4.325
		c0.813,0,1.472,0.658,1.472,1.472V52.514z"/>
</g>
</svg>
