<?xml version="1.0" encoding="utf-8"?>
<!-- Generator: Adobe Illustrator 14.0.0, SVG Export Plug-In . SVG Version: 6.00 Build 43363)  -->
<!DOCTYPE svg PUBLIC "-//W3C//DTD SVG 1.1//EN" "http://www.w3.org/Graphics/SVG/1.1/DTD/svg11.dtd">
<svg version="1.1" id="Capa_1" xmlns="http://www.w3.org/2000/svg" xmlns:xlink="http://www.w3.org/1999/xlink" x="0px" y="0px"
	 width="64px" height="64px" viewBox="0 0 64 64" enable-background="new 0 0 64 64" xml:space="preserve">
<path id="outbox" d="M63.316,56.062v3.777H1.354v-3.886L0,57.464V45.206l14.625-16.335v12.256l-3.652,4.079L53.7,45.313
	l-4.323-4.824V28.233L64,44.569v12.256L63.316,56.062z M15.317,28.182h33.354v11.236H15.317V28.182z M32.177,4.675
	c0.527-0.614,1.381-0.614,1.905,0l11.436,13.334c0.527,0.614,0.527,1.61,0,2.223h-3.685v11.462H24.61V20.233h-3.866
	c-0.527-0.613-0.527-1.609,0-2.223L32.177,4.675z"/>
</svg>
