<?xml version="1.0" encoding="utf-8"?>
<!-- Generator: Adobe Illustrator 14.0.0, SVG Export Plug-In . SVG Version: 6.00 Build 43363)  -->
<!DOCTYPE svg PUBLIC "-//W3C//DTD SVG 1.1//EN" "http://www.w3.org/Graphics/SVG/1.1/DTD/svg11.dtd">
<svg version="1.1" id="Capa_1" xmlns="http://www.w3.org/2000/svg" xmlns:xlink="http://www.w3.org/1999/xlink" x="0px" y="0px"
	 width="64px" height="64px" viewBox="0 0 64 64" enable-background="new 0 0 64 64" xml:space="preserve">
<g>
	<path fill-rule="evenodd" clip-rule="evenodd" d="M62.162,29.544c-2.697,3.08-7.38,3.388-10.459,0.691
		c-3.076-2.697-3.387-7.38-0.689-10.459s7.38-3.389,10.459-0.691C64.552,21.783,64.859,26.465,62.162,29.544z M24.655,60.447
		c-0.837,1.617-2.827,2.246-4.441,1.409l-6.581-3.409c-1.616-0.836-2.246-2.823-1.411-4.439L38.359,3.553
		c0.838-1.616,2.827-2.247,4.441-1.41l6.58,3.41c1.617,0.837,2.247,2.825,1.411,4.441L24.655,60.447z M2.529,44.255
		c-3.079-2.697-3.39-7.38-0.692-10.46c2.698-3.078,7.38-3.388,10.459-0.691c3.079,2.697,3.39,7.38,0.692,10.459
		S5.608,46.952,2.529,44.255z"/>
</g>
</svg>
