<?xml version="1.0" encoding="utf-8"?>
<!-- Generator: Adobe Illustrator 14.0.0, SVG Export Plug-In . SVG Version: 6.00 Build 43363)  -->
<!DOCTYPE svg PUBLIC "-//W3C//DTD SVG 1.1//EN" "http://www.w3.org/Graphics/SVG/1.1/DTD/svg11.dtd">
<svg version="1.1" id="Capa_1" xmlns="http://www.w3.org/2000/svg" xmlns:xlink="http://www.w3.org/1999/xlink" x="0px" y="0px"
	 width="64px" height="64px" viewBox="0 0 64 64" enable-background="new 0 0 64 64" xml:space="preserve">
<path id="quotes_up" d="M28.063,40.796c-0.435-1.321-1.192-2.534-2.242-3.629c-1.105-1.142-2.554-2.03-4.347-2.667
	c-1.796-0.639-4.103-0.962-6.951-0.962h-3.859c0.462-4.674,2.155-8.65,5.078-11.943c2.922-3.279,6.976-6.163,12.155-8.639
	l-3.141-4.794c-6.822,2.859-12.655,7.041-17.5,12.567C2.411,26.257,0,31.735,0,37.167c0,5.84,1.395,10.417,4.218,13.722
	c2.819,3.305,6.857,4.949,12.114,4.949c3.333,0,6.232-1.093,8.694-3.279c2.461-2.187,3.693-4.746,3.693-7.666
	C28.719,43.486,28.499,42.117,28.063,40.796L28.063,40.796z M63.348,40.796c-0.437-1.321-1.193-2.534-2.246-3.629
	c-1.102-1.142-2.55-2.03-4.346-2.667c-1.794-0.639-4.102-0.962-6.948-0.962h-3.859c0.463-4.674,2.155-8.65,5.077-11.943
	c2.923-3.279,6.974-6.163,12.153-8.639l-3.141-4.794c-6.822,2.859-12.653,7.041-17.5,12.567c-4.846,5.527-7.256,11.006-7.256,16.438
	c0,5.84,1.396,10.417,4.215,13.722c2.821,3.305,6.859,4.949,12.118,4.949c3.332,0,6.23-1.093,8.692-3.279
	C62.768,50.372,64,47.813,64,44.893C64,43.486,63.782,42.117,63.348,40.796L63.348,40.796z"/>
</svg>
