<?xml version="1.0" encoding="utf-8"?>
<!-- Generator: Adobe Illustrator 14.0.0, SVG Export Plug-In . SVG Version: 6.00 Build 43363)  -->
<!DOCTYPE svg PUBLIC "-//W3C//DTD SVG 1.1//EN" "http://www.w3.org/Graphics/SVG/1.1/DTD/svg11.dtd">
<svg version="1.1" id="Capa_1" xmlns="http://www.w3.org/2000/svg" xmlns:xlink="http://www.w3.org/1999/xlink" x="0px" y="0px"
	 width="64px" height="64px" viewBox="0 0 64 64" enable-background="new 0 0 64 64" xml:space="preserve">
<path id="rss" d="M53.323,53.334h-6.779c0-19.817-16.064-35.879-35.876-35.879v-6.778l0.967-0.012
	c23.029,0,41.699,18.669,41.699,41.699L53.323,53.334z M37.797,53.334h-6.768c0-11.247-9.118-20.364-20.361-20.364V26.2l0.967-0.02
	c14.459,0,26.181,11.722,26.181,26.183L37.797,53.334z M10.667,47.514c0-3.212,2.603-5.818,5.818-5.818
	c3.211,0,5.816,2.604,5.816,5.818c0,3.213-2.604,5.819-5.816,5.819C13.271,53.334,10.667,50.729,10.667,47.514z M6.4,0
	C2.865,0,0,2.865,0,6.4v51.201C0,61.135,2.864,64,6.4,64h51.201C61.135,64,64,61.135,64,57.601V6.4C64,2.866,61.135,0,57.601,0H6.4z
	"/>
</svg>
