<?xml version="1.0" encoding="utf-8"?>
<!-- Generator: Adobe Illustrator 14.0.0, SVG Export Plug-In . SVG Version: 6.00 Build 43363)  -->
<!DOCTYPE svg PUBLIC "-//W3C//DTD SVG 1.1//EN" "http://www.w3.org/Graphics/SVG/1.1/DTD/svg11.dtd">
<svg version="1.1" id="Capa_1" xmlns="http://www.w3.org/2000/svg" xmlns:xlink="http://www.w3.org/1999/xlink" x="0px" y="0px"
	 width="64px" height="64px" viewBox="0 0 64 64" enable-background="new 0 0 64 64" xml:space="preserve">
<path id="rss_2" d="M63.986,63.999L64,62.545C64,28.002,35.998,0,1.457,0L0,0.016v10.167c29.724,0,53.82,24.096,53.82,53.817
	L63.986,63.999L63.986,63.999z M40.698,63.999l0.027-1.454c0-21.689-17.583-39.273-39.269-39.273L0,23.302v10.152
	c16.87,0,30.545,13.677,30.545,30.544L40.698,63.999L40.698,63.999z M0,55.272c0,4.818,3.907,8.727,8.728,8.727
	c4.819,0,8.727-3.908,8.727-8.727c0-4.819-3.907-8.728-8.727-8.728C3.907,46.545,0,50.453,0,55.272z"/>
</svg>
