<?xml version="1.0" encoding="utf-8"?>
<!-- Generator: Adobe Illustrator 14.0.0, SVG Export Plug-In . SVG Version: 6.00 Build 43363)  -->
<!DOCTYPE svg PUBLIC "-//W3C//DTD SVG 1.1//EN" "http://www.w3.org/Graphics/SVG/1.1/DTD/svg11.dtd">
<svg version="1.1" id="Capa_1" xmlns="http://www.w3.org/2000/svg" xmlns:xlink="http://www.w3.org/1999/xlink" x="0px" y="0px"
	 width="64px" height="64px" viewBox="0 0 64 64" enable-background="new 0 0 64 64" xml:space="preserve">
<path id="save_4" d="M55.649,49.981C43.734,63.038,23.49,63.965,10.431,52.047C-2.625,40.131-3.55,19.886,8.364,6.829
	c0.348-0.381,0.724-0.715,1.084-1.074l5.911,5.393c-0.362,0.354-0.738,0.694-1.085,1.075c-8.937,9.792-8.241,24.977,1.552,33.915
	c9.793,8.938,24.977,8.243,33.915-1.55c8.663-9.491,8.25-24.035-0.702-33.058c-0.285-0.095,5.881-6.444,5.394-5.911
	C66.646,17.627,67.292,37.224,55.649,49.981z M32.598,36.941c-0.518,0.604-0.637,0.604-1.153,0L20.176,23.8
	c-0.518-0.604-0.518-1.584,0-2.189h3.629V10.826h16.25V21.61h3.808c0.52,0.604,0.52,1.586,0,2.189L32.598,36.941z"/>
</svg>
