<?xml version="1.0" encoding="utf-8"?>
<!-- Generator: Adobe Illustrator 14.0.0, SVG Export Plug-In . SVG Version: 6.00 Build 43363)  -->
<!DOCTYPE svg PUBLIC "-//W3C//DTD SVG 1.1//EN" "http://www.w3.org/Graphics/SVG/1.1/DTD/svg11.dtd">
<svg version="1.1" id="Capa_1" xmlns="http://www.w3.org/2000/svg" xmlns:xlink="http://www.w3.org/1999/xlink" x="0px" y="0px"
	 width="64px" height="64px" viewBox="0 0 64 64" enable-background="new 0 0 64 64" xml:space="preserve">
<path id="save_5" d="M60,60.191H4.001c-2.063,0-3.751-1.563-3.962-3.578H0v-0.406v-0.016l0,0V20.703h6.001V52.19
	c0,1.109,0.898,2.001,2,2.001h47.998C57.108,54.191,58,53.3,58,52.19l0,0V20.328l5.938-0.063v35.864L64,56.191
	C64,58.41,62.219,60.191,60,60.191z M32.621,43.424c-0.539,0.641-1.406,0.641-1.945,0L18.971,29.782
	c-0.539-0.625-0.539-1.656,0-2.282h3.767V14.67h17.635V27.5h3.954c0.547,0.625,0.547,1.657,0,2.282L32.621,43.424z"/>
</svg>
