<?xml version="1.0" encoding="utf-8"?>
<!-- Generator: Adobe Illustrator 14.0.0, SVG Export Plug-In . SVG Version: 6.00 Build 43363)  -->
<!DOCTYPE svg PUBLIC "-//W3C//DTD SVG 1.1//EN" "http://www.w3.org/Graphics/SVG/1.1/DTD/svg11.dtd">
<svg version="1.1" id="Capa_1" xmlns="http://www.w3.org/2000/svg" xmlns:xlink="http://www.w3.org/1999/xlink" x="0px" y="0px"
	 width="64px" height="64px" viewBox="0 0 64 64" enable-background="new 0 0 64 64" xml:space="preserve">
<path id="share" d="M37.063,10.496c0,0.929,0.127,1.829,0.359,2.688L22.676,23.645c-1.815-1.344-4.083-2.141-6.541-2.141
	c-5.964,0-10.801,4.699-10.801,10.496c0,5.798,4.837,10.496,10.801,10.496c2.459,0,4.726-0.796,6.541-2.139l14.747,10.46
	c-0.232,0.857-0.359,1.76-0.359,2.688C37.063,59.301,41.898,64,47.865,64c5.964,0,10.801-4.699,10.801-10.495
	c0-5.798-4.837-10.496-10.801-10.496c-2.009,0-3.89,0.535-5.5,1.463L26.836,33.448c0.067-0.471,0.1-0.957,0.1-1.448
	c0-0.49-0.032-0.977-0.1-1.45l15.529-11.021c1.61,0.928,3.491,1.464,5.5,1.464c5.964,0,10.801-4.699,10.801-10.497
	C58.666,4.699,53.829,0,47.865,0C41.898,0,37.063,4.699,37.063,10.496z"/>
</svg>
