<?xml version="1.0" encoding="utf-8"?>
<!-- Generator: Adobe Illustrator 14.0.0, SVG Export Plug-In . SVG Version: 6.00 Build 43363)  -->
<!DOCTYPE svg PUBLIC "-//W3C//DTD SVG 1.1//EN" "http://www.w3.org/Graphics/SVG/1.1/DTD/svg11.dtd">
<svg version="1.1" id="Capa_1" xmlns="http://www.w3.org/2000/svg" xmlns:xlink="http://www.w3.org/1999/xlink" x="0px" y="0px"
	 width="64px" height="64px" viewBox="0 0 64 64" enable-background="new 0 0 64 64" xml:space="preserve">
<g>
	<path fill-rule="evenodd" clip-rule="evenodd" d="M61.754,13.778l-4.728,4.729L45.206,6.686l-2.365,2.365l11.82,11.82l1.92-1.919
		l-13.979,13.98L31.387,20.503L49.934,1.958c2.61-2.61,6.845-2.61,9.457,0l2.363,2.365C64.365,6.934,64.365,11.168,61.754,13.778z
		 M58.035,64L3.818,3.909L8.11,0.037l54.216,60.091L58.035,64z M9.14,42.753l-1.084,1.084l0,0L9.14,42.753z M18.92,56.053
		l-18.632,7.71l7.389-18.954L18.92,56.053z M9.744,42.147l12.674-12.493l11.394,12.247L19.877,55.656h-0.002l1.689-1.689
		L9.744,42.147z"/>
</g>
</svg>
