<?xml version="1.0" encoding="utf-8"?>
<!-- Generator: Adobe Illustrator 14.0.0, SVG Export Plug-In . SVG Version: 6.00 Build 43363)  -->
<!DOCTYPE svg PUBLIC "-//W3C//DTD SVG 1.1//EN" "http://www.w3.org/Graphics/SVG/1.1/DTD/svg11.dtd">
<svg version="1.1" id="Capa_1" xmlns="http://www.w3.org/2000/svg" xmlns:xlink="http://www.w3.org/1999/xlink" x="0px" y="0px"
	 width="64px" height="64px" viewBox="0 0 64 64" enable-background="new 0 0 64 64" xml:space="preserve">
<path id="sound_on_2" d="M37.209,17.378c4.215,3.282,6.991,8.869,6.991,15.213c0,6.343-2.776,11.933-6.991,15.212v4.065
	C44.02,48.827,48.857,41.078,48.857,32s-4.84-16.827-11.648-19.868V17.378z M47.691,61.333C57.279,56.48,64,45.175,64,32
	c0-13.173-6.721-24.48-16.309-29.333v5.818C54.657,13.179,59.339,21.953,59.339,32s-4.682,18.82-11.646,23.516v5.817H47.691z
	 M3.554,22.222C1.592,22.222,0,23.814,0,25.778V40c0,1.964,1.592,3.557,3.554,3.557h10.89l10.375,10.666
	c2.002,0,3.626-1.591,3.626-3.555V15.11c0-1.962-1.624-3.554-3.626-3.554L14.333,22.222H3.554z"/>
</svg>
