<?xml version="1.0" encoding="utf-8"?>
<!-- Generator: Adobe Illustrator 14.0.0, SVG Export Plug-In . SVG Version: 6.00 Build 43363)  -->
<!DOCTYPE svg PUBLIC "-//W3C//DTD SVG 1.1//EN" "http://www.w3.org/Graphics/SVG/1.1/DTD/svg11.dtd">
<svg version="1.1" id="Capa_1" xmlns="http://www.w3.org/2000/svg" xmlns:xlink="http://www.w3.org/1999/xlink" x="0px" y="0px"
	 width="64px" height="64px" viewBox="0 0 64 64" enable-background="new 0 0 64 64" xml:space="preserve">
<g id="copy_row">
	<path d="M4.003,29.003h31.994c2.209,0,4.002-1.746,4.002-3.901v-3.901c0-2.153-1.793-3.9-4.002-3.9H4.003
		c-2.209,0-4.001,1.747-4.001,3.9v3.901C0.002,27.258,1.793,29.003,4.003,29.003z"/>
	<path d="M28.004,46.558h31.995c2.209,0,3.999-1.747,3.999-3.899v-3.903c0-2.154-1.79-3.899-3.999-3.899H28.004
		c-2.208,0-4.001,1.745-4.001,3.899v3.903C24.003,44.813,25.796,46.558,28.004,46.558z"/>
	<path id="Undo_4_" d="M16.908,37.096l5.045,4.739l-5.045,4.864l0.089-2.732C3.168,43.797,5.502,33.557,6.835,31.281
		c0.166,1.787-1.667,9.59,10.162,8.424l-0.089-2.607V37.096z"/>
</g>
</svg>
