<?xml version="1.0" encoding="utf-8"?>
<!-- Generator: Adobe Illustrator 14.0.0, SVG Export Plug-In . SVG Version: 6.00 Build 43363)  -->
<!DOCTYPE svg PUBLIC "-//W3C//DTD SVG 1.1//EN" "http://www.w3.org/Graphics/SVG/1.1/DTD/svg11.dtd">
<svg version="1.1" id="Capa_1" xmlns="http://www.w3.org/2000/svg" xmlns:xlink="http://www.w3.org/1999/xlink" x="0px" y="0px"
	 width="64px" height="64px" viewBox="0 0 64 64" enable-background="new 0 0 64 64" xml:space="preserve">
<path id="eye_1_" d="M52.498,25.925H11.502c-2.208,0-4,1.747-4,3.9v3.901c0,2.154,1.792,3.901,4,3.901h40.996
	c2.209,0,4-1.747,4-3.901v-3.901C56.498,27.672,54.707,25.925,52.498,25.925z M11.502,20.073h40.995c2.209,0,4-1.747,4-3.899v-3.902
	c0-2.154-1.791-3.899-4-3.899H11.502c-2.208,0-4,1.745-4,3.899v3.902C7.502,18.328,9.294,20.073,11.502,20.073z M52.498,43.925
	H11.502c-2.208,0-4,1.747-4,3.9v3.901c0,2.154,1.792,3.901,4,3.901h40.996c2.209,0,4-1.747,4-3.901v-3.901
	C56.498,45.672,54.707,43.925,52.498,43.925z"/>
</svg>
