<?xml version="1.0" encoding="utf-8"?>
<!-- Generator: Adobe Illustrator 14.0.0, SVG Export Plug-In . SVG Version: 6.00 Build 43363)  -->
<!DOCTYPE svg PUBLIC "-//W3C//DTD SVG 1.1//EN" "http://www.w3.org/Graphics/SVG/1.1/DTD/svg11.dtd">
<svg version="1.1" id="Capa_1" xmlns="http://www.w3.org/2000/svg" xmlns:xlink="http://www.w3.org/1999/xlink" x="0px" y="0px"
	 width="64px" height="64px" viewBox="0 0 64 64" enable-background="new 0 0 64 64" xml:space="preserve">
<path id="add_column_right" d="M18.231,28.001c0-2.209-1.747-4-3.9-4H10.43c-2.154,0-3.901,1.792-3.901,4v31.997
	c0,2.209,1.747,4,3.901,4h3.901c2.153,0,3.9-1.791,3.9-4V28.001z M35.785,28.001c0-2.209-1.745-4-3.9-4h-3.9
	c-2.154,0-3.901,1.792-3.901,4v31.997c0,2.209,1.747,4,3.901,4h3.9c2.155,0,3.9-1.791,3.9-4V28.001z M53.341,20.002
	c0-2.209-1.747-4.001-3.901-4.001h-3.9c-2.156,0-3.901,1.792-3.901,4.001v31.996c0,2.209,1.745,4.001,3.901,4.001h3.9
	c2.154,0,3.901-1.792,3.901-4.001V20.002z M38.253,0.002c0.96,0,17.837,0,18.501,0c0.861,0,0.891,1.29,0.387,1.857
	c-0.402,0.457-7.926,8.831-8.621,9.606c-0.458,0.509-1.546,0.5-2.006,0c-0.51-0.558-8.23-8.975-8.796-9.634
	C37.3,1.347,37.305,0.002,38.253,0.002z"/>
</svg>
