<?xml version="1.0" encoding="utf-8"?>
<!-- Generator: Adobe Illustrator 14.0.0, SVG Export Plug-In . SVG Version: 6.00 Build 43363)  -->
<!DOCTYPE svg PUBLIC "-//W3C//DTD SVG 1.1//EN" "http://www.w3.org/Graphics/SVG/1.1/DTD/svg11.dtd">
<svg version="1.1" id="Capa_1" xmlns="http://www.w3.org/2000/svg" xmlns:xlink="http://www.w3.org/1999/xlink" x="0px" y="0px"
	 width="64px" height="64px" viewBox="0 0 64 64" enable-background="new 0 0 64 64" xml:space="preserve">
<path id="text" d="M4,44c-2.209,0-4,1.791-4,4.001V52c0,2.211,1.792,4.001,4,4.001h55.998C62.209,56.001,64,54.209,64,52v-4
	c0-2.21-1.793-4-4.002-4H4L4,44z M4,25.999c-2.209,0-4,1.791-4,4v4c0,2.209,1.792,3.999,4,3.999h55.998
	c2.211,0,4.002-1.79,4.002-3.999v-4c0-2.21-1.793-4-4.002-4H4z M4,7.999c-2.209,0-4,1.792-4,4v4C0,18.209,1.792,20,4,20h55.998
	C62.209,20,64,18.21,64,15.999v-4c0-2.208-1.793-4-4.002-4H4z"/>
</svg>
