<?xml version="1.0" encoding="utf-8"?>
<!-- Generator: Adobe Illustrator 14.0.0, SVG Export Plug-In . SVG Version: 6.00 Build 43363)  -->
<!DOCTYPE svg PUBLIC "-//W3C//DTD SVG 1.1//EN" "http://www.w3.org/Graphics/SVG/1.1/DTD/svg11.dtd">
<svg version="1.1" id="Capa_1" xmlns="http://www.w3.org/2000/svg" xmlns:xlink="http://www.w3.org/1999/xlink" x="0px" y="0px"
	 width="64px" height="64px" viewBox="0 0 64 64" enable-background="new 0 0 64 64" xml:space="preserve">
<g>
	<path fill-rule="evenodd" clip-rule="evenodd" d="M32.002,60C18.033,60,6.71,48.677,6.71,34.709c0-8.993,4.72-16.853,11.79-21.336
		v8.514c-3.146,3.313-5.103,7.77-5.103,12.701c0,10.205,8.275,18.48,18.481,18.48c10.208,0,18.482-8.275,18.482-18.48
		c0-4.644-1.739-8.861-4.567-12.108v-8.958c6.917,4.513,11.496,12.31,11.496,21.188C57.29,48.677,45.97,60,32.002,60z M28.474,4
		h8.681v27.288h-8.681V4z"/>
</g>
</svg>
