<?xml version="1.0" encoding="utf-8"?>
<!-- Generator: Adobe Illustrator 14.0.0, SVG Export Plug-In . SVG Version: 6.00 Build 43363)  -->
<!DOCTYPE svg PUBLIC "-//W3C//DTD SVG 1.1//EN" "http://www.w3.org/Graphics/SVG/1.1/DTD/svg11.dtd">
<svg version="1.1" id="Capa_1" xmlns="http://www.w3.org/2000/svg" xmlns:xlink="http://www.w3.org/1999/xlink" x="0px" y="0px"
	 width="64px" height="64px" viewBox="0 0 64 64" enable-background="new 0 0 64 64" xml:space="preserve">
<path d="M56.395,41.221H41.232c-3.038,0-5.571-2.505-6.146-5.828H35.01v-6.784h0.076c0.573-3.323,3.108-5.827,6.146-5.827h15.162
	c3.462,0,7.605,3.248,7.605,7.255v3.933C64,37.973,59.856,41.221,56.395,41.221z M57.396,31.09c0-1.854-2.029-3.358-4.535-3.358
	h-8.096c-1.177,0-2.25,0.332-3.056,0.876v6.784c0.806,0.544,1.879,0.877,3.056,0.877h8.096c2.506,0,4.535-1.503,4.535-3.359V31.09z
	 M28.877,35.556c-0.626,3.242-3.121,5.665-6.109,5.665H7.604C4.144,41.221,0,37.973,0,33.966v-3.932
	c0-4.006,4.144-7.255,7.604-7.255h15.165c2.987,0,5.481,2.424,6.109,5.664V35.556z M22.288,28.608
	c-0.807-0.544-1.878-0.876-3.056-0.876h-8.096c-2.504-0.001-4.534,1.504-4.534,3.357v1.821c0,1.854,2.03,3.358,4.535,3.358h8.096
	c1.177,0,2.249-0.333,3.056-0.877L22.288,28.608L22.288,28.608z"/>
</svg>
