<?xml version="1.0" encoding="utf-8"?>
<!-- Generator: Adobe Illustrator 14.0.0, SVG Export Plug-In . SVG Version: 6.00 Build 43363)  -->
<!DOCTYPE svg PUBLIC "-//W3C//DTD SVG 1.1//EN" "http://www.w3.org/Graphics/SVG/1.1/DTD/svg11.dtd">
<svg version="1.1" id="Capa_1" xmlns="http://www.w3.org/2000/svg" xmlns:xlink="http://www.w3.org/1999/xlink" x="0px" y="0px"
	 width="64px" height="64px" viewBox="0 0 64 64" enable-background="new 0 0 64 64" xml:space="preserve">
<path fill-rule="evenodd" clip-rule="evenodd" d="M55.725,15.677l-3.179-3.27c-0.176,0.481-0.445,0.938-0.814,1.337l-2.219,2.403
	l-7.049-7.076l1.939-2.101c0.502-0.544,1.124-0.9,1.786-1.099L42.6,2.181L44.841,0l13.126,13.496L55.725,15.677z M50.466,21.617
	l-2.241,2.18l-2.962-3.045L28.72,38.676l-7.328-6.771l16.904-18.316L35.1,10.302l2.1-2.042L50.466,21.617z M20.222,33.54
	l6.971,6.442l-10.34,4.771l-6.322,6.061c0.514,1.292,1.912,4.815,2.026,5.116c0.799,0.126,2.211,1.084,2.314,3.676
	c0.081,2.34-1.831,4.306-4.27,4.392c-2.438,0.085-4.481-1.743-4.563-4.084c-0.103-2.939,1.497-4.008,2.055-3.841
	c0.057-0.179,0.881-2.772,1.401-4.41L9.043,51.22l7.597-7.28L20.222,33.54z"/>
</svg>
