<?xml version="1.0" encoding="utf-8"?>
<!-- Generator: Adobe Illustrator 14.0.0, SVG Export Plug-In . SVG Version: 6.00 Build 43363)  -->
<!DOCTYPE svg PUBLIC "-//W3C//DTD SVG 1.1//EN" "http://www.w3.org/Graphics/SVG/1.1/DTD/svg11.dtd">
<svg version="1.1" id="Capa_1" xmlns="http://www.w3.org/2000/svg" xmlns:xlink="http://www.w3.org/1999/xlink" x="0px" y="0px"
	 width="64px" height="64px" viewBox="0 0 64 64" enable-background="new 0 0 64 64" xml:space="preserve">
<path id="resend_3" d="M45.384,50.523H32.639v3.05l-7.979-7l7.979-7.001v3.052h12.745c5.92,0,10.718-4.799,10.718-10.715
	c0-5.919-4.798-10.716-10.718-10.716v-7.899C55.666,13.294,64,21.628,64,31.909C64,42.188,55.666,50.523,45.384,50.523z
	 M31.361,21.375H18.615c-5.919,0-10.719,4.798-10.719,10.715c0,5.918,4.8,10.716,10.719,10.716v7.898C8.333,50.704,0,42.371,0,32.09
	c0-10.278,8.333-18.614,18.615-18.614h12.746v-3.049l7.978,7l-7.978,7.001V21.375z"/>
</svg>
