<?xml version="1.0" encoding="utf-8"?>
<!-- Generator: Adobe Illustrator 14.0.0, SVG Export Plug-In . SVG Version: 6.00 Build 43363)  -->
<!DOCTYPE svg PUBLIC "-//W3C//DTD SVG 1.1//EN" "http://www.w3.org/Graphics/SVG/1.1/DTD/svg11.dtd">
<svg version="1.1" id="Capa_1" xmlns="http://www.w3.org/2000/svg" xmlns:xlink="http://www.w3.org/1999/xlink" x="0px" y="0px"
	 width="64px" height="64px" viewBox="0 0 64 64" enable-background="new 0 0 64 64" xml:space="preserve">
<path id="arrow_back_3" d="M12.72,33.569c0.092,0.186,30.205,30.205,30.205,30.205c0.419,0.419,1.279,0.238,1.922-0.402l5.804-5.806
	c0.643-0.641,0.821-1.502,0.403-1.921c0,0-17.696-16.864-17.991-17.156c-6.768-7.359-3.33-7.469-0.093-11.589L51.054,8.355
	c0.418-0.421,0.239-1.281-0.403-1.922l-5.804-5.806c-0.643-0.642-1.503-0.821-1.922-0.401L12.72,30.433
	C12.895,30.258,12.72,33.478,12.72,33.569z"/>
</svg>
