<?xml version="1.0" encoding="utf-8"?>
<!-- Generator: Adobe Illustrator 14.0.0, SVG Export Plug-In . SVG Version: 6.00 Build 43363)  -->
<!DOCTYPE svg PUBLIC "-//W3C//DTD SVG 1.1//EN" "http://www.w3.org/Graphics/SVG/1.1/DTD/svg11.dtd">
<svg version="1.1" id="Capa_1" xmlns="http://www.w3.org/2000/svg" xmlns:xlink="http://www.w3.org/1999/xlink" x="0px" y="0px"
	 width="64px" height="64px" viewBox="0 0 64 64" enable-background="new 0 0 64 64" xml:space="preserve">
<path id="turn_right" fill-rule="evenodd" clip-rule="evenodd" d="M54.732,33.738l-9.266-9.268h5.428
	c-0.049-0.135-0.101-0.269-0.153-0.402c-3.22-8.159-11.175-13.933-20.479-13.933c-12.155,0-22.009,9.854-22.009,22.009
	c0,12.156,9.854,22.01,22.009,22.01c8.939,0,16.635-5.33,20.081-12.988c0.032-0.072,0.055-0.15,0.087-0.225l5.904,5.867
	c-0.04,0.068-0.068,0.146-0.107,0.215c-0.01,0.016-0.02,0.031-0.026,0.045c-5.209,8.998-14.94,15.049-26.083,15.049
	C13.483,62.117,0,48.633,0,32C0,15.366,13.483,1.883,30.117,1.883c13.904,0,25.606,9.421,29.074,22.229
	c0.032,0.117,0.042,0.241,0.071,0.359H64L54.732,33.738z"/>
</svg>
