<?xml version="1.0" encoding="utf-8"?>
<!-- Generator: Adobe Illustrator 14.0.0, SVG Export Plug-In . SVG Version: 6.00 Build 43363)  -->
<!DOCTYPE svg PUBLIC "-//W3C//DTD SVG 1.1//EN" "http://www.w3.org/Graphics/SVG/1.1/DTD/svg11.dtd">
<svg version="1.1" id="Capa_1" xmlns="http://www.w3.org/2000/svg" xmlns:xlink="http://www.w3.org/1999/xlink" x="0px" y="0px"
	 width="64px" height="64px" viewBox="0 0 64 64" enable-background="new 0 0 64 64" xml:space="preserve">
<path id="arrow_back" d="M11.714,29.184c-0.021,0.062-0.044,0.122-0.065,0.184c-1.22,3.193-0.751,6.686,1.567,8.944l24.214,23.587
	c3.266,3.181,8.896,2.695,12.576-1.083c3.683-3.779,4.019-9.422,0.752-12.603L34.387,32.264l16.256-16.689
	c3.182-3.265,2.696-8.897-1.082-12.578c-3.779-3.68-9.42-4.017-12.602-0.752L13.967,25.709c-0.529,0.549-0.973,1.137-1.364,1.748
	C12.318,27.877,11.768,29.048,11.714,29.184z"/>
</svg>
