<?xml version="1.0" encoding="utf-8"?>
<!-- Generator: Adobe Illustrator 14.0.0, SVG Export Plug-In . SVG Version: 6.00 Build 43363)  -->
<!DOCTYPE svg PUBLIC "-//W3C//DTD SVG 1.1//EN" "http://www.w3.org/Graphics/SVG/1.1/DTD/svg11.dtd">
<svg version="1.1" id="Capa_1" xmlns="http://www.w3.org/2000/svg" xmlns:xlink="http://www.w3.org/1999/xlink" x="0px" y="0px"
	 width="64px" height="64px" viewBox="0 0 64 64" enable-background="new 0 0 64 64" xml:space="preserve">
<path id="arrow_back" d="M52.285,34.815c0.022-0.062,0.046-0.121,0.065-0.184c1.221-3.194,0.752-6.687-1.567-8.944L26.57,2.101
	c-3.266-3.18-8.896-2.696-12.578,1.083c-3.681,3.779-4.018,9.422-0.751,12.603l16.373,15.949l-16.256,16.69
	c-3.182,3.265-2.696,8.897,1.082,12.578c3.78,3.68,9.421,4.017,12.602,0.752l22.99-23.466c0.53-0.548,0.974-1.138,1.364-1.748
	C51.683,36.123,52.231,34.952,52.285,34.815z"/>
</svg>
