<?xml version="1.0" encoding="utf-8"?>
<!-- Generator: Adobe Illustrator 14.0.0, SVG Export Plug-In . SVG Version: 6.00 Build 43363)  -->
<!DOCTYPE svg PUBLIC "-//W3C//DTD SVG 1.1//EN" "http://www.w3.org/Graphics/SVG/1.1/DTD/svg11.dtd">
<svg version="1.1" id="Capa_1" xmlns="http://www.w3.org/2000/svg" xmlns:xlink="http://www.w3.org/1999/xlink" x="0px" y="0px"
	 width="64px" height="64px" viewBox="0 0 64 64" enable-background="new 0 0 64 64" xml:space="preserve">
<path id="acceda2" d="M59.217,29.049c-1.609,0-3.031-0.788-3.896-1.995l-0.03-0.042c-0.065-0.106-0.132-0.211-0.202-0.315
	c-1.674-2.481-4.548-3.911-7.81-3.911c-5.168,0-9.357,4.143-9.357,9.252c0,0.169,0.004,0.335,0.013,0.502
	c0.035,0.352,0.083,0.766,0.139,1.153c0.119,0.658,0.31,1.293,0.563,1.894c0.275,0.601,0.685,1.375,1.248,2.118
	c0.367,0.468,0.777,0.898,1.229,1.287c0.339,0.273,0.744,0.534,1.095,0.744c0.437,0.183,0.84,0.428,1.198,0.724
	c1.181,0.532,2.492,0.83,3.874,0.83c3.148,0,5.931-1.308,7.627-3.632c0.769-1.59,2.411-2.689,4.312-2.689
	c1.683,0,3.16,0.86,4.011,2.157c0.065,0.094,0.121,0.191,0.174,0.288c0.297,0.53,0.491,1.122,0.562,1.753
	c0.12,0.978-0.06,1.985-0.596,2.856c-0.094,0.167-0.199,0.325-0.314,0.479c-3.407,4.966-9.164,8.229-15.69,8.229
	c-3.41,0-6.608-0.891-9.372-2.448c-0.004-0.002-0.008-0.004-0.014-0.006c-0.014-0.004-0.113-0.048-0.123-0.052
	c-0.252-0.108-2.705-1.688-3.486-2.557c-0.177-0.197-1.248-1.233-1.248-1.233c-3.471,3.862-8.533,6.294-14.171,6.294
	C8.483,50.733,0,42.347,0,32c0-10.348,8.483-18.733,18.949-18.733c5.657,0,10.734,2.451,14.205,6.338
	c3.473-3.887,8.55-6.338,14.208-6.338c6.709,0,12.608,3.45,15.975,8.655c0.064,0.102,0.122,0.211,0.171,0.329
	c0.31,0.627,0.485,1.333,0.485,2.077C63.992,26.935,61.854,29.049,59.217,29.049z M18.866,22.788c-5.169,0-9.36,4.143-9.36,9.252
	c0,5.11,4.19,9.253,9.36,9.253c5.17,0,9.36-4.144,9.36-9.253C28.227,26.931,24.036,22.788,18.866,22.788z"/>
</svg>
