<?xml version="1.0" encoding="utf-8"?>
<!-- Generator: Adobe Illustrator 14.0.0, SVG Export Plug-In . SVG Version: 6.00 Build 43363)  -->
<!DOCTYPE svg PUBLIC "-//W3C//DTD SVG 1.1//EN" "http://www.w3.org/Graphics/SVG/1.1/DTD/svg11.dtd">
<svg version="1.1" id="Capa_1" xmlns="http://www.w3.org/2000/svg" xmlns:xlink="http://www.w3.org/1999/xlink" x="0px" y="0px"
	 width="64px" height="64px" viewBox="0 0 64 64" enable-background="new 0 0 64 64" xml:space="preserve">
<path id="acceda" d="M43.454,52.546c-4.242,0-8.183-1.285-11.454-3.487c-3.273,2.202-7.214,3.487-11.454,3.487
	C9.199,52.546,0,43.348,0,32c0-11.347,9.199-20.546,20.546-20.546c4.241,0,8.182,1.285,11.454,3.486
	c3.273-2.201,7.214-3.486,11.454-3.486C54.802,11.454,64,20.653,64,32C64,43.348,54.802,52.546,43.454,52.546z M56,23.746
	c-2.706-4.233-7.449-7.039-12.848-7.039c-4.548,0-8.631,1.994-11.424,5.156c-2.791-3.162-6.875-5.156-11.422-5.156
	c-8.415,0-15.237,6.822-15.237,15.237c0,8.417,6.822,15.239,15.237,15.239c4.534,0,8.606-1.979,11.396-5.121
	c0,0,0.861,0.843,1.004,1.004c0.627,0.705,2.601,1.99,2.803,2.079c0.008,0.004,0.089,0.038,0.101,0.042
	c0.004,0.002,0.008,0.002,0.01,0.004c2.223,1.268,4.795,1.992,7.535,1.992c5.248,0,9.88-2.654,12.617-6.692
	c0.095-0.125,0.178-0.254,0.254-0.389c0.431-0.711,0.576-1.531,0.479-2.326c-0.057-0.512-0.213-0.993-0.449-1.424
	c-0.044-0.08-0.089-0.158-0.142-0.234c-0.684-1.056-1.872-1.755-3.225-1.755c-1.53,0-2.853,0.895-3.467,2.189
	c-1.365,1.888-3.604,2.952-6.135,2.952c-1.111,0-2.166-0.244-3.113-0.675c-0.29-0.242-0.613-0.441-0.965-0.589
	c-0.282-0.171-0.608-0.383-0.881-0.606c-0.361-0.316-0.692-0.666-0.986-1.047c-0.454-0.604-0.783-1.234-1.004-1.722
	c-0.204-0.489-0.356-1.004-0.452-1.54c-0.046-0.316-0.083-0.653-0.111-0.94c-0.008-0.135-0.012-0.271-0.012-0.407
	c0-4.157,3.369-7.526,7.525-7.526c2.623,0,4.933,1.163,6.28,3.181c0.058,0.084,0.111,0.17,0.164,0.256l0.022,0.034
	c0.696,0.981,1.84,1.622,3.135,1.622c2.121,0,3.839-1.719,3.839-3.839c0-0.607-0.142-1.181-0.391-1.691
	C56.098,23.917,56.054,23.829,56,23.746z M20.24,39.504c-4.157,0-7.525-3.369-7.525-7.526c0-4.157,3.369-7.526,7.525-7.526
	c4.157,0,7.526,3.369,7.526,7.526C27.766,36.135,24.397,39.504,20.24,39.504z"/>
</svg>
