<?xml version="1.0" encoding="utf-8"?>
<!-- Generator: Adobe Illustrator 14.0.0, SVG Export Plug-In . SVG Version: 6.00 Build 43363)  -->
<!DOCTYPE svg PUBLIC "-//W3C//DTD SVG 1.1//EN" "http://www.w3.org/Graphics/SVG/1.1/DTD/svg11.dtd">
<svg version="1.1" id="Capa_1" xmlns="http://www.w3.org/2000/svg" xmlns:xlink="http://www.w3.org/1999/xlink" x="0px" y="0px"
	 width="64px" height="64px" viewBox="0 0 64 64" enable-background="new 0 0 64 64" xml:space="preserve">
<path id="batlog" fill-rule="evenodd" clip-rule="evenodd" d="M32,51.282C14.327,51.282,0,42.649,0,32
	c0-10.649,14.327-19.282,32-19.282S64,21.351,64,32C64,42.649,49.673,51.282,32,51.282z M45.298,17.451
	c5.329,6.663-10.455,17.246-10.046-0.794c0,0.205-3.561,3.151-3.561,3.151l-3.537-3.1c1.231,18.04-15.452,7.918-9.583,0.563
	C-2.211,23.499-1.239,38.772,13.728,44c0,0-2.87-3.845,0-6.715c3.997-2.152,8.01,2.432,7.907,2.432c4.714-7.688,10.21,5,10.21,5
	s6.336-13.463,10.538-5.159c0,0,5.322-5.22,8.397-1.734c2.563,2.666-0.64,6.637-0.64,6.534
	C67.258,35.851,64.055,22.884,45.298,17.451z"/>
</svg>
