<?xml version="1.0" encoding="utf-8"?>
<!-- Generator: Adobe Illustrator 14.0.0, SVG Export Plug-In . SVG Version: 6.00 Build 43363)  -->
<!DOCTYPE svg PUBLIC "-//W3C//DTD SVG 1.1//EN" "http://www.w3.org/Graphics/SVG/1.1/DTD/svg11.dtd">
<svg version="1.1" id="Capa_1" xmlns="http://www.w3.org/2000/svg" xmlns:xlink="http://www.w3.org/1999/xlink" x="0px" y="0px"
	 width="64px" height="64px" viewBox="0 0 64 64" enable-background="new 0 0 64 64" xml:space="preserve">
<g>
	<path fill-rule="evenodd" clip-rule="evenodd" d="M64,35.834l-12.981,7.795l-6.203,3.725l-12.688-9.746l-12.693,9.746l-6.118-3.627
		L0,35.834l13.383-10.188L0,15.458L19.434,2.791l12.693,10.896L45.111,2.791L64,14.867L51.603,25.203L64,35.834z M32.165,14.252
		l-18.55,11.216l18.384,11.589l18.499-12.266L32.165,14.252z M19.512,49.516l0.572-0.438l12.043-9.248l12.038,9.248l0.578,0.441
		l0.621-0.375l5.654-3.395v3.088L31.955,61.209l-18.64-12.455v-2.91l5.575,3.305L19.512,49.516z"/>
</g>
</svg>
