<?xml version="1.0" encoding="utf-8"?>
<!-- Generator: Adobe Illustrator 14.0.0, SVG Export Plug-In . SVG Version: 6.00 Build 43363)  -->
<!DOCTYPE svg PUBLIC "-//W3C//DTD SVG 1.1//EN" "http://www.w3.org/Graphics/SVG/1.1/DTD/svg11.dtd">
<svg version="1.1" id="Capa_1" xmlns="http://www.w3.org/2000/svg" xmlns:xlink="http://www.w3.org/1999/xlink" x="0px" y="0px"
	 width="64px" height="64px" viewBox="0 0 64 64" enable-background="new 0 0 64 64" xml:space="preserve">
<g id="logos">
	<path id="acceda2" display="none" d="M36.883,34.789c-0.304,0-0.572-0.15-0.736-0.377l-0.005-0.008
		c-0.013-0.02-0.025-0.041-0.038-0.061c-0.316-0.469-0.859-0.738-1.476-0.738c-0.977,0-1.767,0.783-1.767,1.748
		c0,0.031,0,0.063,0.001,0.096c0.007,0.064,0.017,0.143,0.026,0.217c0.023,0.123,0.059,0.244,0.106,0.357
		c0.052,0.113,0.13,0.26,0.235,0.4c0.07,0.088,0.147,0.168,0.232,0.242c0.064,0.051,0.141,0.102,0.207,0.141
		c0.083,0.035,0.158,0.08,0.227,0.137c0.222,0.1,0.47,0.156,0.73,0.156c0.596,0,1.121-0.246,1.441-0.684
		c0.145-0.303,0.455-0.508,0.814-0.508c0.318,0,0.598,0.162,0.757,0.406c0.014,0.018,0.024,0.035,0.033,0.055
		c0.057,0.1,0.093,0.211,0.106,0.33c0.023,0.186-0.012,0.375-0.113,0.539c-0.017,0.031-0.037,0.063-0.059,0.092
		c-0.643,0.938-1.731,1.553-2.964,1.553c-0.645,0-1.247-0.168-1.771-0.461c-0.001,0-0.001,0-0.003-0.002
		c-0.001-0.002-0.02-0.01-0.022-0.01c-0.048-0.021-0.511-0.318-0.658-0.482c-0.033-0.037-0.236-0.234-0.236-0.234
		c-0.655,0.73-1.612,1.189-2.678,1.189c-1.977,0-3.579-1.584-3.579-3.537c0-1.955,1.602-3.539,3.579-3.539
		c1.068,0,2.027,0.463,2.684,1.197c0.655-0.734,1.615-1.197,2.684-1.197c1.268,0,2.381,0.651,3.018,1.634
		c0.012,0.02,0.022,0.041,0.032,0.063c0.059,0.119,0.091,0.252,0.091,0.393C37.785,34.389,37.381,34.789,36.883,34.789z
		 M29.262,33.605c-0.977,0-1.769,0.783-1.769,1.748s0.792,1.748,1.769,1.748c0.976,0,1.768-0.783,1.768-1.748
		S30.237,33.605,29.262,33.605z"/>
	<path id="acceda" display="none" d="M33.905,39.227c-0.8,0-1.547-0.242-2.163-0.658c-0.617,0.416-1.364,0.658-2.163,0.658
		c-2.143,0-3.882-1.738-3.882-3.881s1.739-3.881,3.882-3.881c0.799,0,1.547,0.244,2.163,0.658c0.616-0.414,1.363-0.658,2.163-0.658
		c2.143,0,3.881,1.739,3.881,3.881S36.048,39.227,33.905,39.227z M36.275,33.787c-0.511-0.799-1.407-1.331-2.427-1.331
		c-0.858,0-1.631,0.377-2.156,0.973c-0.529-0.596-1.3-0.973-2.158-0.973c-1.591,0-2.88,1.288-2.88,2.877s1.289,2.877,2.88,2.877
		c0.856,0,1.623-0.371,2.151-0.965c0,0,0.162,0.158,0.188,0.189c0.119,0.135,0.493,0.375,0.532,0.391c0,0.004,0.015,0.01,0.018,0.01
		c0,0,0,0,0.004,0c0.419,0.238,0.902,0.375,1.421,0.375c0.993,0,1.867-0.498,2.383-1.262c0.018-0.023,0.036-0.049,0.051-0.074
		c0.079-0.133,0.107-0.289,0.088-0.438c-0.009-0.098-0.038-0.189-0.085-0.27c-0.007-0.016-0.015-0.029-0.026-0.045
		c-0.128-0.199-0.353-0.332-0.608-0.332c-0.289,0-0.537,0.17-0.654,0.414c-0.258,0.357-0.683,0.557-1.158,0.557
		c-0.209,0-0.41-0.047-0.59-0.127c-0.054-0.045-0.115-0.082-0.181-0.111c-0.056-0.031-0.114-0.072-0.168-0.113
		c-0.067-0.061-0.13-0.127-0.186-0.199c-0.086-0.113-0.147-0.232-0.188-0.324c-0.039-0.092-0.068-0.189-0.086-0.291
		c-0.009-0.061-0.016-0.123-0.021-0.178c-0.004-0.025-0.004-0.051-0.004-0.076c0-0.785,0.635-1.422,1.423-1.422
		c0.493,0,0.929,0.219,1.184,0.602c0.011,0.016,0.023,0.031,0.033,0.049l0.003,0.006c0.133,0.186,0.348,0.307,0.593,0.307
		c0.401,0,0.727-0.326,0.727-0.727c0-0.113-0.028-0.223-0.074-0.318C36.293,33.82,36.284,33.801,36.275,33.787z M29.52,36.762
		c-0.785,0-1.42-0.637-1.42-1.42c0-0.785,0.635-1.422,1.42-1.422s1.423,0.637,1.423,1.422C30.942,36.125,30.305,36.762,29.52,36.762
		z"/>
	<path id="aeval" display="none" d="M25.79,35.014c-0.186,2.029-0.034,2.758-0.034,2.758s0.373,0.98,0.49,0.98
		c0.271,0.592,3.926,1.557,4.653,1.59c0.846,0.084,1.304-0.271,1.387-0.404c0.084-0.137,0.221-0.172,0.221-0.172V40.9h1.928V38.6
		c0,0,0.829,0.559,1.607,0.627c0.171,0,1.71,0.016,1.71,0.016v-1.641h-1.167c0,0-1.846-0.457-2.049-1.371
		c-0.066-0.49,0.051-0.508,0.051-0.508h3.165l0.018-1.674c0,0-3.554-0.033-3.655,0.016c-0.034-0.102,0-0.473,0-0.473
		s0.542-1.506,1.862-1.895c1.319-0.39,1.81-0.238,1.81-0.238v-1.657c0,0-4.365-0.389-5.364,3.402
		c-0.117,0.389-0.15,0.609-0.15,0.609s-1.017-0.355-2.572-0.34c-1.557,0.016-1.286,0.033-1.286,0.033S26.095,33.813,25.79,35.014z
		 M29.462,35.166c0,0,1.049-0.035,1.42,0.016c0.391-0.084,1.507,0.475,1.507,0.475v1.725c0,0-0.117,0.594-0.221,0.711
		c-0.101,0.119-0.338,0.779-2.724,0.236c-1.049-0.338-1.472-0.844-1.472-1.049c0-0.203,0-1.285,0-1.285s0.439-0.576,0.913-0.711
		S29.462,35.166,29.462,35.166z"/>
	<path id="administracion_electronica" display="none" d="M34.063,41.391h-3.436c2.075-1.09,3.286-3.373,3.286-6.014
		c0-2.693-1.269-5.014-3.41-6.076h3.5c1.479,1.54,2.397,3.693,2.397,6.076C36.4,37.729,35.507,39.854,34.063,41.391z M28.393,38.836
		h-0.312c-0.551,0-0.997-0.447-0.997-0.998v-0.311c0-0.551,0.446-0.998,0.997-0.998h0.312c0.552,0,0.997,0.447,0.997,0.998v0.311
		C29.39,38.389,28.944,38.836,28.393,38.836z M28.393,34.412h-0.312c-0.551,0-0.997-0.447-0.997-0.998v-0.313
		c0-0.549,0.446-0.996,0.997-0.996h0.312c0.552,0,0.997,0.447,0.997,0.996v0.313C29.39,33.965,28.944,34.412,28.393,34.412z"/>
	<path id="spain_shield" display="none" d="M31.613,29.455h-0.025l-0.023-0.024h-0.035l-0.059,0.06v0.153
		c0.102,0.016,0.153,0.034,0.153,0.058v0.071c-0.126,0.103-0.188,0.192-0.188,0.271v0.094l0.058,0.141
		c-0.038,0-0.058,0.017-0.058,0.047c-0.039-0.077-0.091-0.118-0.153-0.118l-0.071,0.071v0.094h-0.059V30.36l0.036-0.059v-0.06
		l-0.072-0.069h-0.034l-0.083,0.058l-0.071-0.058h-0.069c-0.031,0-0.051,0.03-0.059,0.094l-0.083-0.06h-0.012
		c-0.078,0-0.118,0.04-0.118,0.118l-0.069-0.059c-0.087,0-0.13,0.044-0.13,0.13h-0.023l-0.024-0.024h-0.071
		c-0.039,0-0.059,0.047-0.059,0.142l-0.011-0.024c-0.047,0-0.099,0.024-0.154,0.071c0-0.031-0.026-0.056-0.082-0.071l-0.106,0.06
		l-0.083-0.06h-0.046c-0.032,0-0.052,0.024-0.06,0.071h-0.036c0-0.031-0.026-0.056-0.081-0.071c-0.04,0-0.075,0.04-0.106,0.118
		l-0.082-0.06h-0.069c-0.039,0-0.06,0.036-0.06,0.106l-0.094-0.047c-0.063,0-0.094,0.047-0.094,0.142h-0.023l-0.047-0.036h-0.036
		c-0.047,0-0.074,0.044-0.082,0.13h-0.094l-0.071,0.082v0.06l0.012,0.012c-0.094,0-0.141,0.027-0.141,0.082v0.048l0.035,0.059
		c-0.087,0-0.13,0.02-0.13,0.059v0.071l0.048,0.082c-0.056,0-0.091,0.023-0.106,0.07c0,0.079,0.022,0.118,0.07,0.118v0.035
		c-0.039,0-0.059,0.012-0.059,0.035v0.083c0.031,0.046,0.063,0.07,0.094,0.07l-0.035,0.059v0.071c0,0.039,0.031,0.059,0.094,0.059
		l-0.012,0.071c0,0.063,0.036,0.094,0.106,0.094l-0.011,0.094v0.047c0.155,0.017,0.254,0.052,0.293,0.106
		c0.047,0.189,0.121,0.283,0.224,0.283c0.165,0.18,0.298,0.275,0.4,0.283c0,0.109,0.055,0.164,0.165,0.164
		c-0.009,0.063-0.028,0.094-0.058,0.094c0,0.031,0.049,0.063,0.152,0.094v0.059l-0.059,0.096c0,0.117,0.152,0.191,0.458,0.223v0.023
		h-1.507l-0.034,0.035v2.096c-0.347-0.078-0.616-0.117-0.813-0.117h-0.247c-0.862,0.078-1.378,0.279-1.542,0.6
		c0.109,0.33,0.181,0.494,0.212,0.494l0.105-0.129c0.408-0.268,0.859-0.4,1.354-0.4c0.619,0.063,0.93,0.125,0.93,0.189v2.941
		c0,0.66,0.329,1.154,0.988,1.484c0.739,0.313,1.383,0.469,1.933,0.469h0.294c0.69,0,1.433-0.207,2.224-0.625
		c0.448-0.375,0.671-0.771,0.671-1.188V39.07l0.024-0.094l-0.024-0.012l0.024-0.082v-0.012l-0.024-0.023v-0.023l0.024-0.012
		l-0.024-0.059l0.024-0.096v-0.023l-0.024-0.012l0.024-0.023v-0.129l-0.024-1.955c0.087-0.086,0.401-0.148,0.943-0.188
		c0.462,0.047,0.745,0.104,0.846,0.166c0.394,0.133,0.589,0.258,0.589,0.375c0.04,0,0.109-0.16,0.211-0.482
		c0-0.055-0.029-0.113-0.092-0.176c-0.434-0.299-0.942-0.447-1.532-0.447l-0.022,0.012l-0.071-0.012
		c-0.424,0.023-0.706,0.059-0.848,0.105v-0.012l-0.023-0.023v-2.047c0-0.025-0.075-0.045-0.224-0.061l-0.012,0.023l-0.059-0.023
		h-0.024l-0.012,0.023l-0.117-0.023h-0.847l-0.282,0.023v-0.023c0.313-0.055,0.47-0.129,0.47-0.223l-0.058-0.096v-0.035
		c0-0.031,0.047-0.059,0.14-0.082v-0.059l-0.059-0.047l0.059-0.059c0.086,0,0.13-0.043,0.13-0.131
		c0.117-0.031,0.235-0.121,0.353-0.27c0.126-0.047,0.189-0.082,0.189-0.107c0.069-0.188,0.134-0.283,0.188-0.283
		c0.126,0,0.188-0.012,0.188-0.035v-0.023l-0.023-0.094l0.082-0.06v-0.105c0.04,0,0.071-0.026,0.094-0.083v-0.058l-0.035-0.047
		l0.106-0.084c0-0.085-0.032-0.128-0.094-0.128v-0.024c0.062,0,0.094-0.036,0.094-0.106c-0.024-0.055-0.055-0.083-0.094-0.083
		v-0.012l0.058-0.094c-0.015-0.063-0.065-0.094-0.153-0.094l0.036-0.116c0-0.047-0.048-0.07-0.141-0.07v-0.023l0.012-0.012v-0.049
		c0-0.047-0.056-0.07-0.166-0.07l0.024-0.023c0-0.07-0.046-0.106-0.141-0.106l-0.048,0.036h-0.022c0-0.103-0.031-0.153-0.096-0.153
		l-0.093,0.059c0-0.086-0.032-0.13-0.096-0.13l-0.117,0.071c0-0.071-0.042-0.105-0.129-0.105l-0.07,0.047l-0.118-0.071
		c-0.047,0-0.07,0.024-0.07,0.071h-0.024l-0.07-0.047h-0.06l-0.07,0.047c-0.039-0.031-0.087-0.047-0.141-0.047
		c-0.032-0.095-0.063-0.142-0.094-0.142h-0.012l-0.095,0.023c0-0.086-0.031-0.13-0.094-0.13l-0.096,0.059
		c0-0.055-0.026-0.094-0.081-0.117h-0.047l-0.082,0.059c0-0.039-0.024-0.069-0.071-0.094h-0.059l-0.07,0.059l-0.083-0.059h-0.035
		c-0.047,0.016-0.07,0.051-0.07,0.105l-0.095-0.07c-0.094,0-0.142,0.039-0.142,0.117l-0.07-0.047c0.047-0.078,0.07-0.141,0.07-0.188
		c0-0.125-0.063-0.22-0.188-0.282v-0.141h0.095l0.047-0.048v-0.129l-0.047-0.035H31.85v-0.118L31.814,29.3h-0.153
		C31.637,29.301,31.62,29.352,31.613,29.455L31.613,29.455z M31.777,29.383v0.13h0.094l0.035,0.035v0.035h-0.094l-0.035,0.035v0.424
		l0.035,0.036h0.13v0.07h-0.424v-0.071h0.142l0.047-0.035v-0.424l-0.047-0.035h-0.106v-0.059c0.102-0.008,0.153-0.023,0.153-0.047
		v-0.095H31.777L31.777,29.383z M31.624,29.89v0.105h-0.105C31.565,29.925,31.6,29.89,31.624,29.89L31.624,29.89z M31.872,29.902
		l0.07,0.094h-0.094l-0.012-0.094H31.872z M31.896,30.231v0.035l-0.142,0.059l-0.188-0.059v-0.035H31.896z M30.929,30.243v0.035
		H30.87v-0.035H30.929z M31.117,30.243v0.06h-0.034v-0.06H31.117z M32.366,30.243h0.012v0.06h-0.036l-0.022-0.024L32.366,30.243z
		 M32.59,30.243v0.035l-0.024,0.024l-0.035-0.036v-0.024L32.59,30.243L32.59,30.243z M30.706,30.278l0.012,0.024v0.022l-0.012,0.013
		l-0.035-0.035v-0.024H30.706z M31.33,30.278l0.012,0.024l-0.036,0.035h-0.022v-0.06H31.33z M32.178,30.278v0.06h-0.047v-0.06
		H32.178z M32.778,30.278h0.011v0.06h-0.035l-0.012-0.013L32.778,30.278z M32.272,30.302l0.035,0.069h-0.06v-0.069H32.272z
		 M30.836,30.361h-0.06v-0.023l0.024-0.013L30.836,30.361z M31.023,30.325v0.036h-0.059v-0.036H31.023z M32.461,30.325l0.035,0.036
		h-0.059v-0.036H32.461z M32.683,30.361v0.012l-0.059-0.012v-0.023l0.024-0.013L32.683,30.361z M30.494,30.337h0.024v0.059h-0.036
		l-0.024-0.023L30.494,30.337z M30.624,30.396v0.023h-0.036v-0.059L30.624,30.396z M31.53,30.361v0.035h-0.059v-0.035H31.53z
		 M31.99,30.361v0.035l-0.025,0.022l-0.034-0.047V30.36L31.99,30.361L31.99,30.361z M33.001,30.361l-0.034,0.035h-0.024v-0.035
		H33.001z M31.377,30.372h0.024v0.059h-0.036l-0.023-0.012L31.377,30.372z M31.519,30.843c0-0.313,0.066-0.472,0.199-0.472h0.024
		c0.063,0,0.118,0.04,0.164,0.118c0.024,0.447,0.056,0.754,0.095,0.918l-0.129,0.142h-0.024c0.04-0.078,0.078-0.117,0.117-0.117
		l-0.059-0.542c0-0.313-0.055-0.471-0.164-0.471h-0.024c-0.039,0-0.081,0.016-0.13,0.047c-0.03,0.487-0.069,0.789-0.116,0.906
		l0.142,0.177v0.012l-0.154-0.129C31.498,31.22,31.519,31.024,31.519,30.843L31.519,30.843z M32.119,30.396v0.035h-0.083l0.024-0.06
		L32.119,30.396z M30.965,30.419c0.33,0.047,0.495,0.094,0.495,0.142v0.023c-0.173-0.087-0.338-0.13-0.495-0.13
		c-0.425,0-0.679,0.181-0.765,0.541v0.095c0,0.134,0.065,0.259,0.199,0.376c0,0.048-0.03,0.099-0.093,0.153l0.035-0.129
		c-0.126-0.142-0.189-0.286-0.189-0.437C30.152,30.694,30.424,30.482,30.965,30.419L30.965,30.419z M30.458,30.49h-0.022
		l-0.036-0.035V30.43L30.458,30.49z M32.461,30.43h0.093c0.502,0.063,0.754,0.279,0.754,0.648c0,0.134-0.063,0.271-0.188,0.411
		l0.035,0.105v0.024h-0.035l-0.059-0.117V31.49c0.133-0.141,0.199-0.274,0.199-0.4v-0.13c-0.117-0.329-0.353-0.494-0.706-0.494
		h-0.141c-0.141,0-0.278,0.039-0.412,0.118H31.99C32.014,30.505,32.17,30.455,32.461,30.43L32.461,30.43z M30.341,30.455v0.035
		h-0.047v-0.035H30.341z M33.154,30.455h0.013v0.059h-0.036l-0.012-0.023L33.154,30.455z M30.27,30.937
		c0.126-0.274,0.354-0.412,0.684-0.412c0.188,0,0.356,0.052,0.506,0.153l-0.023,0.13v0.224c-0.149,0-0.299,0.027-0.447,0.082
		l-0.648,0.188c-0.046-0.078-0.071-0.149-0.071-0.212L30.27,30.937L30.27,30.937z M32.366,30.548h0.199
		c0.338,0,0.547,0.157,0.624,0.472c-0.008,0.196-0.047,0.294-0.117,0.294c-0.511-0.189-0.858-0.282-1.047-0.282v-0.165l-0.024-0.188
		C32.127,30.6,32.248,30.557,32.366,30.548L32.366,30.548z M29.776,30.561v0.047l-0.012,0.012l-0.035-0.035v-0.023H29.776z
		 M29.576,30.584v0.035h-0.059v-0.035H29.576z M29.988,30.584v0.035h-0.06v-0.035H29.988z M30.2,30.584v0.035h-0.059v-0.035H30.2z
		 M33.319,30.584v0.035l-0.012,0.022l-0.048-0.034v-0.024L33.319,30.584L33.319,30.584z M33.531,30.584v0.035l-0.024,0.022
		l-0.035-0.034v-0.024L33.531,30.584L33.531,30.584z M33.731,30.584v0.035h-0.047v-0.035H33.731z M33.919,30.584l0.023,0.023
		l-0.034,0.034h-0.024v-0.058H33.919z M29.353,30.62l0.011,0.022v0.013l-0.011,0.023l-0.048-0.035V30.62H29.353L29.353,30.62z
		 M29.458,30.62l0.024,0.058l-0.06,0.035l0.025-0.094L29.458,30.62L29.458,30.62z M29.671,30.62l0.012,0.058h-0.048v-0.023
		L29.671,30.62z M34.155,30.655v0.023h-0.059v-0.035l0.011-0.023L34.155,30.655z M29.857,30.642h0.013v0.035h-0.047L29.857,30.642z
		 M30.081,30.678h-0.059v-0.023l0.024-0.013L30.081,30.678z M31.707,30.655l-0.059,0.059h-0.024v-0.071L31.707,30.655z
		 M31.813,30.642v0.071l-0.059-0.059L31.813,30.642z M33.825,30.678v0.023h-0.047v-0.047l0.012-0.012L33.825,30.678z M34.014,30.642
		l0.023,0.059v0.013h-0.07l0.034-0.071H34.014z M34.344,30.701l0.011,0.013l-0.035,0.036h-0.023v-0.036l0.023-0.013H34.344z
		 M29.259,30.713l0.035,0.036l-0.059,0.023v-0.06H29.259L29.259,30.713z M34.202,30.713h0.023v0.06h-0.059v-0.024L34.202,30.713z
		 M28.787,31.267c0.157-0.346,0.482-0.519,0.978-0.519h0.188v0.048h-0.024l-0.152-0.023l-0.2,0.023
		c-0.518,0.11-0.778,0.302-0.778,0.576v0.118c0,0.118,0.052,0.224,0.153,0.318c-0.047,0.109-0.09,0.18-0.128,0.212h-0.025
		l0.095-0.212c-0.087-0.102-0.129-0.22-0.129-0.353v-0.024L28.787,31.267z M30.059,30.749h0.022v0.06h-0.034l-0.024-0.012
		L30.059,30.749z M31.754,30.749v0.048h-0.047v-0.048H31.754z M33.637,30.749l0.271,0.024c0.525,0.117,0.788,0.325,0.788,0.623
		v0.071c0,0.134-0.043,0.255-0.13,0.364v0.036l0.071,0.129v0.036c-0.022,0-0.066-0.067-0.13-0.2c0.102-0.11,0.154-0.22,0.154-0.33
		v-0.047c0-0.439-0.389-0.659-1.165-0.659v-0.023L33.637,30.749z M29.105,30.808l-0.035,0.035h-0.024v-0.07L29.105,30.808z
		 M28.976,30.796l0.012,0.012l-0.036,0.035H28.94v-0.047H28.976z M34.414,30.796v0.047h-0.06v-0.035L34.414,30.796z M34.532,30.808
		v0.058h-0.048v-0.058H34.532z M31.684,30.89l-0.06,0.012v-0.07L31.684,30.89z M31.837,30.832v0.069l-0.059-0.012L31.837,30.832z
		 M29.776,30.843l0.235,0.023v0.023c-0.039,0-0.071,0.023-0.094,0.07v0.06l0.047,0.059l-0.047,0.07v0.071
		c0,0.039,0.023,0.059,0.07,0.059v0.023l-0.035,0.035h-0.248c-0.149,0-0.419,0.095-0.813,0.283l-0.011-0.13v-0.094
		C28.882,31.09,29.18,30.906,29.776,30.843L29.776,30.843z M33.602,30.866h0.035c0.165,0,0.278,0.013,0.341,0.035
		c0.4,0.103,0.602,0.269,0.602,0.495v0.106c0,0.095-0.017,0.146-0.047,0.153c-0.329-0.212-0.66-0.318-0.989-0.318h-0.071v-0.024
		l0.071-0.094v-0.048l-0.047-0.082l0.047-0.094l-0.071-0.106L33.602,30.866z M28.823,30.925v0.035l-0.024,0.024l-0.035-0.049v-0.012
		L28.823,30.925L28.823,30.925z M31.718,30.937h0.024l0.036,0.048v0.047h-0.095v-0.047L31.718,30.937z M34.696,30.937v0.048
		l-0.023,0.012l-0.036-0.036v-0.023H34.696z M30.022,30.96h0.024v0.036l-0.024,0.023h-0.011l-0.024-0.023L30.022,30.96z
		 M33.472,30.997v0.023h-0.059v-0.035l0.024-0.024L33.472,30.997z M28.67,31.079h0.023v0.034l-0.023,0.012h-0.012l-0.023-0.012
		L28.67,31.079z M31.648,31.079v0.012l-0.035,0.034v-0.046H31.648z M34.825,31.09v0.034l-0.023,0.024l-0.035-0.035V31.09H34.825z
		 M30.424,31.361c0.501-0.165,0.835-0.247,1.001-0.247l0.011,0.012l-0.069,0.307l0.152,0.152H31.46l0.07,0.283l-0.247-0.059h-0.012
		l-0.024,0.023l0.024,0.07l-0.212,0.153v0.012c0.023,0.048,0.094,0.094,0.212,0.141l-0.024,0.071v0.023l0.024,0.013
		c0.126-0.009,0.243-0.043,0.353-0.107h0.024c-0.018,0.212-0.099,0.319-0.247,0.319c-0.118,0-0.202-0.05-0.248-0.154l0.023-0.116
		c0-0.049-0.031-0.091-0.094-0.131h-0.06c-0.023,0-0.047,0.04-0.069,0.118L31,32.397c0,0.088-0.075,0.15-0.224,0.189
		c-0.188-0.031-0.282-0.114-0.282-0.247v-0.023l0.306,0.035h0.012l0.023-0.012L30.8,32.246c0.031,0,0.086-0.052,0.165-0.153
		c-0.04-0.063-0.103-0.095-0.188-0.095L30.74,31.88l-0.211,0.095h-0.011l0.035-0.2l-0.024-0.06l-0.105,0.035l-0.035-0.07
		l0.105-0.212c-0.024-0.047-0.055-0.07-0.095-0.07v-0.037H30.424L30.424,31.361z M32.283,31.149l0.777,0.224l-0.094,0.095v0.023
		l0.105,0.2l-0.012,0.059l-0.093-0.012h-0.024l-0.012,0.012l0.012,0.188v0.035l-0.164-0.07c-0.04,0-0.06,0.023-0.06,0.07
		c-0.142,0.055-0.212,0.095-0.212,0.118v0.022c0.047,0.063,0.098,0.107,0.153,0.13l-0.012,0.071l0.034,0.035h0.071
		c0.095,0,0.166-0.012,0.213-0.035v0.058c0,0.103-0.075,0.174-0.224,0.211h-0.025c-0.118,0-0.2-0.057-0.247-0.176l0.036-0.128
		v-0.072l-0.07-0.081h-0.036c-0.04,0.008-0.071,0.051-0.094,0.129l0.012,0.118c0,0.07-0.068,0.122-0.2,0.154h-0.024
		c-0.156,0-0.243-0.095-0.26-0.284V32.22c0.181,0.063,0.307,0.095,0.378,0.095h0.011l-0.011-0.095v-0.012
		c0.117-0.047,0.184-0.094,0.2-0.141c-0.071-0.087-0.146-0.134-0.224-0.142v-0.023l0.023-0.023v-0.071l-0.271,0.06l0.083-0.224
		c0-0.039-0.028-0.06-0.083-0.06l0.141-0.129l-0.06-0.33l0.013-0.012L32.283,31.149z M31.813,31.244l-0.059,0.059h-0.047
		l-0.059-0.059V31.22l0.059-0.071C31.762,31.149,31.798,31.18,31.813,31.244L31.813,31.244z M30.022,31.172v0.048l-0.035-0.035
		v-0.013H30.022L30.022,31.172z M33.448,31.172h0.023v0.048h-0.034l-0.024-0.013L33.448,31.172z M28.693,31.208v0.013l-0.024,0.023
		l-0.035-0.036H28.693z M28.574,31.267l0.025,0.012l-0.036,0.035H28.54v-0.047H28.574L28.574,31.267z M34.896,31.279h0.023v0.059
		h-0.035l-0.023-0.023L34.896,31.279z M31.613,31.302l0.011,0.059h-0.011v0.034h-0.048v-0.093H31.613z M31.896,31.302v0.093h-0.048
		l-0.011-0.058h0.011v-0.035H31.896L31.896,31.302z M30.105,31.373v0.023h-0.059v-0.035l0.012-0.023L30.105,31.373z M33.413,31.361
		v0.034l-0.012,0.013l-0.046-0.035v-0.012H33.413z M28.61,31.373v0.035L28.6,31.432l-0.036-0.037L28.61,31.373z M30.2,31.396v0.012
		l-0.048,0.048v-0.06H30.2z M33.308,31.432v0.023h-0.059l0.011-0.06L33.308,31.432z M34.861,31.396l0.035,0.036H34.85v-0.036H34.861
		z M29.74,31.408h0.225l0.116,0.082c0,0.102,0.045,0.154,0.13,0.154l-0.034,0.14c-0.088,0-0.13,0.021-0.13,0.06l0.095,0.177v0.012
		h-0.213l-0.012,0.023l0.012,0.095c-0.055,0-0.105,0.043-0.152,0.13c0,0.047,0.063,0.086,0.188,0.117h0.023l-0.023,0.047v0.023
		l0.023,0.024c0.085-0.008,0.181-0.056,0.281-0.142h0.036v0.117c0,0.103-0.066,0.173-0.2,0.212h-0.059l-0.13-0.047
		c0-0.125-0.046-0.212-0.14-0.259H29.74c-0.046,0.023-0.07,0.063-0.07,0.118c0,0.063,0.024,0.106,0.07,0.129
		c-0.016,0.102-0.039,0.152-0.07,0.152h-0.035c-0.078,0-0.161-0.051-0.247-0.152l0.247-0.059l-0.059-0.071l0.129-0.177
		c0-0.031-0.083-0.055-0.247-0.071c0-0.063-0.012-0.094-0.036-0.094l-0.211,0.13H29.2c0-0.096-0.06-0.17-0.177-0.225l-0.036,0.035
		l-0.07-0.023c0-0.047,0.043-0.134,0.129-0.259l-0.095-0.095C29.243,31.51,29.505,31.408,29.74,31.408L29.74,31.408z M33.507,31.408
		h0.036c0.298,0,0.612,0.103,0.941,0.306v0.024l-0.07,0.094l0.152,0.224l-0.082,0.059v-0.022l-0.011-0.023
		c-0.104,0-0.165,0.077-0.188,0.235h-0.024l-0.2-0.143c-0.031,0-0.047,0.032-0.047,0.095l-0.224,0.048v0.012
		c0,0.07,0.032,0.122,0.094,0.152h0.024c-0.009,0.064-0.028,0.095-0.06,0.095c0,0.039,0.086,0.059,0.259,0.059
		c-0.094,0.109-0.188,0.164-0.282,0.164c-0.04-0.023-0.07-0.059-0.094-0.105l0.083-0.152c0-0.072-0.027-0.115-0.083-0.13
		c-0.063,0-0.109,0.036-0.141,0.107v0.082l0.011,0.012l-0.153,0.094c-0.188-0.016-0.281-0.082-0.281-0.2V32.35h0.022l0.282,0.154
		h0.025l0.011-0.012l-0.011-0.095c0.102,0,0.168-0.031,0.199-0.094V32.28c-0.023-0.049-0.074-0.092-0.152-0.13l0.023-0.061
		c0-0.039-0.012-0.059-0.035-0.059h-0.024l-0.188,0.024l0.118-0.212l-0.036-0.035h-0.094l-0.047-0.13l0.117-0.094v-0.094
		C33.409,31.491,33.452,31.462,33.507,31.408L33.507,31.408z M28.693,31.456c0,0.125,0.043,0.255,0.13,0.388l-0.06,0.06h-0.012
		l-0.082-0.259v-0.189L28.693,31.456L28.693,31.456z M28.54,31.467v0.035h-0.059v-0.035H28.54z M34.79,31.467l0.012,0.082
		c0,0.087-0.03,0.212-0.094,0.377h-0.012l-0.059-0.083c0.087-0.109,0.13-0.235,0.13-0.376H34.79z M31.742,31.491h0.012l0.059,0.165
		v0.058h0.035l0.059-0.035h0.024l-0.094,0.247l-0.095-0.023h-0.024l-0.094,0.023l-0.07-0.247h0.012l0.059,0.035h0.024
		C31.679,31.565,31.71,31.491,31.742,31.491L31.742,31.491z M34.979,31.491v0.035l-0.023,0.023l-0.035-0.047v-0.012H34.979z
		 M30.211,31.549v0.012h-0.059v-0.035l0.023-0.023L30.211,31.549z M33.308,31.526v0.035l-0.023,0.023l-0.036-0.035v-0.023H33.308z
		 M28.6,31.584v0.035h-0.025l-0.035-0.035H28.6z M34.92,31.596l-0.035,0.048h-0.023v-0.048H34.92z M28.516,31.679h0.024v0.059
		h-0.035l-0.024-0.024L28.516,31.679z M30.294,31.691l0.105,0.188c0.024,0,0.036-0.016,0.036-0.048h0.023v0.048l-0.023,0.142h-0.047
		l-0.119,0.034c-0.03-0.008-0.069-0.066-0.117-0.177l0.095,0.023v-0.118l0.022-0.094L30.294,31.691L30.294,31.691z M33.071,31.879
		c0.063-0.126,0.103-0.188,0.118-0.188h0.024l0.035,0.235l0.06-0.047h0.011l-0.094,0.188l-0.059-0.036h-0.13l-0.036-0.2l0.06,0.047
		L33.071,31.879L33.071,31.879z M34.955,31.691v0.059l-0.035-0.035v-0.023H34.955z M28.61,31.75v0.059H28.6l-0.025-0.024
		L28.61,31.75z M34.861,31.773l0.023,0.012l-0.036,0.048v-0.059L34.861,31.773L34.861,31.773z M28.6,31.867l0.011,0.013
		l-0.036,0.047h-0.011v-0.047l0.011-0.013H28.6z M34.885,31.879h0.012v0.058h-0.035l-0.013-0.012L34.885,31.879z M31.588,31.997
		v0.023l-0.022,0.012v0.095l0.022,0.023c-0.085,0.047-0.16,0.07-0.223,0.07l-0.023-0.094c-0.079,0-0.142-0.02-0.188-0.059v-0.013
		l0.023-0.023c0.125-0.023,0.188-0.047,0.188-0.07v-0.036l-0.023-0.023C31.421,31.903,31.503,31.934,31.588,31.997L31.588,31.997z
		 M32.095,31.903h0.024l-0.024,0.059v0.012c0.079,0,0.149,0.031,0.213,0.095v0.023l-0.213,0.07v0.023l0.024,0.023v0.013
		c-0.063,0-0.138-0.024-0.224-0.071l0.011-0.082l-0.011-0.095L32.095,31.903z M34.79,31.938v0.059h-0.023l-0.011-0.023L34.79,31.938
		z M31.707,31.973h0.011c0.063,0,0.104,0.027,0.119,0.082c0,0.055-0.039,0.09-0.119,0.105l-0.069-0.069v-0.06L31.707,31.973z
		 M30.671,31.997h0.012v0.023l-0.012,0.012v0.023c0.124,0.008,0.188,0.028,0.188,0.06v0.012c-0.102,0.047-0.153,0.079-0.153,0.095
		v0.023l0.012,0.013h-0.047l-0.142-0.013v-0.036l-0.011-0.141L30.671,31.997z M32.813,32.021l0.154,0.047l-0.024,0.14v0.036
		l-0.164,0.036h-0.024l0.024-0.06c0-0.016-0.06-0.048-0.177-0.095v-0.012l0.022-0.023c0.127-0.017,0.189-0.036,0.189-0.06
		L32.813,32.021L32.813,32.021z M28.693,32.068v0.023h-0.035v-0.06L28.693,32.068z M34.802,32.055l0.023,0.013l-0.035,0.046h-0.023
		v-0.059H34.802z M30.365,32.091c0.063,0,0.093,0.039,0.093,0.116v0.013l-0.059,0.06h-0.059c-0.024-0.009-0.047-0.039-0.071-0.096
		C30.302,32.123,30.334,32.091,30.365,32.091L30.365,32.091z M30.059,32.114c0.118,0,0.176,0.063,0.176,0.189
		c-0.07,0.047-0.129,0.069-0.176,0.069c0-0.039-0.063-0.069-0.188-0.093c0.008-0.032,0.066-0.072,0.176-0.119V32.15l-0.023-0.024
		v-0.012H30.059L30.059,32.114z M33.071,32.114h0.06l0.059,0.047v0.06l-0.059,0.06h-0.06l-0.047-0.06v-0.06L33.071,32.114z
		 M28.857,32.126c0.063,0,0.114,0.031,0.153,0.095c0.023,0,0.035-0.021,0.035-0.06h0.024c0.031,0.016,0.047,0.055,0.047,0.118v0.129
		l-0.047,0.023c-0.094-0.125-0.196-0.188-0.306-0.188h-0.036V32.22C28.736,32.181,28.779,32.15,28.857,32.126L28.857,32.126z
		 M33.355,32.126h0.093v0.023l-0.011,0.012c0.108,0.071,0.164,0.118,0.164,0.142l-0.095,0.012h-0.094v0.082
		c-0.039,0-0.094-0.031-0.164-0.094V32.28l0.011-0.023V32.15L33.355,32.126z M34.602,32.15c0.071,0,0.123,0.031,0.154,0.095v0.012
		h-0.083c-0.087,0-0.165,0.063-0.235,0.188l-0.083-0.047v-0.094c0-0.063,0.02-0.103,0.06-0.118h0.023v0.036h0.036
		C34.528,32.173,34.571,32.15,34.602,32.15L34.602,32.15z M31.083,32.208l0.012,0.047c0,0.04-0.012,0.06-0.036,0.06h-0.011
		l-0.024-0.06l0.024-0.047H31.083z M32.438,32.208v0.106l-0.024,0.023l-0.036-0.035v-0.048L32.438,32.208z M31.754,32.244
		c0.04,0.236,0.142,0.352,0.307,0.352h0.07c0.164-0.037,0.247-0.101,0.247-0.188c0.087,0.165,0.199,0.247,0.341,0.247
		c0.228-0.047,0.342-0.148,0.342-0.305h0.012l0.023,0.023l-0.023,0.059c0,0.18,0.113,0.295,0.341,0.342
		c0.149-0.039,0.225-0.078,0.225-0.117h0.024l0.022,0.023c0.008,0.117,0.055,0.176,0.141,0.176c0.095,0,0.221-0.066,0.378-0.199
		h0.022c-0.117,0.172-0.235,0.258-0.353,0.258H33.79c-0.055-0.016-0.105-0.07-0.153-0.164l-0.188,0.059
		c-0.195,0-0.333-0.09-0.412-0.27c-0.103,0.102-0.195,0.152-0.283,0.152h-0.094c-0.063,0-0.148-0.051-0.258-0.152h-0.023
		c-0.118,0.078-0.2,0.117-0.247,0.117c-0.165,0-0.295-0.07-0.389-0.212c-0.126,0.142-0.232,0.212-0.318,0.212
		c-0.119,0-0.228-0.039-0.33-0.117h-0.012c-0.11,0.102-0.212,0.152-0.306,0.152h-0.034c-0.118,0-0.213-0.051-0.284-0.152
		c-0.124,0.164-0.23,0.246-0.316,0.246h-0.13l-0.154-0.059c-0.069,0.117-0.141,0.178-0.211,0.178h-0.012
		c-0.15,0-0.275-0.092-0.376-0.271h0.011c0.156,0.141,0.271,0.211,0.341,0.211h0.072c0.076-0.039,0.116-0.102,0.116-0.188h0.036
		c0.071,0.063,0.146,0.094,0.224,0.094h0.022c0.205-0.031,0.308-0.119,0.308-0.259v-0.142h0.035c0,0.149,0.105,0.252,0.318,0.305
		c0.172,0,0.277-0.074,0.316-0.223h0.024c0.087,0.11,0.172,0.165,0.26,0.165h0.082c0.165,0,0.263-0.117,0.295-0.352H31.754
		L31.754,32.244L31.754,32.244z M29.363,32.28l0.059,0.059h0.166v0.012l-0.13,0.117l0.035,0.06l-0.141,0.01
		c-0.047,0-0.099-0.029-0.152-0.093C29.2,32.389,29.254,32.333,29.363,32.28L29.363,32.28z M34.285,32.431v0.013l-0.095,0.093
		h-0.213l0.036-0.046l-0.129-0.142c0.141,0,0.212-0.023,0.212-0.069C34.19,32.326,34.253,32.377,34.285,32.431L34.285,32.431z
		 M29.823,32.527l-0.024,0.057c-0.015,0-0.034-0.025-0.059-0.082l0.024-0.058C29.78,32.444,29.799,32.472,29.823,32.527
		L29.823,32.527z M33.719,32.467h0.013v0.023l-0.013,0.095H33.66C33.66,32.523,33.681,32.484,33.719,32.467L33.719,32.467z
		 M29.2,32.563v0.023l-0.036,0.035c-0.055-0.031-0.086-0.063-0.094-0.094v-0.025l0.011-0.011
		C29.136,32.492,29.175,32.514,29.2,32.563L29.2,32.563z M34.354,32.502h0.023l0.036,0.035l-0.07,0.082h-0.059v-0.033L34.354,32.502
		z M31.813,32.633v0.023l-0.095-0.023h-0.034l-0.023,0.023v-0.035l0.023-0.023c0.038,0,0.058-0.012,0.058-0.035L31.813,32.633z
		 M31.143,32.633v0.047h-0.084v-0.047l0.024-0.012L31.143,32.633z M32.378,32.633l0.035,0.047h-0.071v-0.047H32.378z M30.458,32.656
		l0.071,0.035v0.035h-0.13l0.036-0.07H30.458L30.458,32.656z M33.001,32.68h0.023l0.047,0.047v0.023l-0.129-0.023L33.001,32.68z
		 M31.742,32.715c0.416,0.008,0.828,0.039,1.235,0.094c0.433,0.07,0.715,0.146,0.848,0.225v0.012
		c-0.666-0.174-1.317-0.26-1.953-0.26h-0.284c-0.65,0-1.29,0.082-1.917,0.248h-0.024v-0.035
		C30.29,32.809,30.989,32.715,31.742,32.715L31.742,32.715z M27.197,32.844v0.012l0.048,0.047c-0.031,0.023-0.048,0.068-0.048,0.131
		h-0.069l-0.224,0.035l-0.06-0.023c-0.181,0.109-0.274,0.191-0.282,0.246c0,0.094,0.063,0.189,0.188,0.283l0.023-0.012h0.035v0.012
		h-0.035v0.023c0.032,0.055,0.047,0.117,0.047,0.188v0.014H26.6l-0.036,0.047v0.352c0.125,0.07,0.195,0.125,0.211,0.166v0.047
		c-0.039,0-0.069,0.023-0.094,0.07v0.035c0,0.039,0.024,0.059,0.071,0.059v1.283l0.022,0.012l0.047-0.047v-1.176h0.648v1.059
		l0.012,0.021l0.047-0.045v-0.988l-0.023-0.023h0.023l0.012-0.023h0.035v1.059h0.047v-1.012l0.035-0.047h0.071v1.033l0.035,0.047
		l0.049-0.047v-1.105c0.03,0,0.054-0.023,0.07-0.07l-0.095-0.119v-0.023l0.095-0.105c0.078,0,0.116-0.02,0.116-0.059v-0.354
		l-0.047-0.047h-0.235l0.047-0.223h-0.035v-0.035l0.082,0.035l0.142-0.152V33.35c0-0.094-0.079-0.195-0.235-0.305l-0.083,0.023
		h-0.012l-0.153-0.035h-0.118l-0.034-0.131l0.034-0.047l-0.07-0.07h-0.024L27.197,32.844z M31.436,32.855h0.601
		c0.416,0,0.965,0.08,1.648,0.236v0.035l-0.283,0.035c0.07,0.086,0.126,0.129,0.165,0.129v0.084h-0.023
		c-0.604-0.158-1.213-0.236-1.825-0.236c-0.636,0-1.236,0.078-1.801,0.236v-0.061l0.142-0.152v-0.023l-0.26-0.035
		C29.925,33.002,30.47,32.918,31.436,32.855L31.436,32.855z M36.144,32.939l0.036,0.059l-0.071,0.129v-0.082h-0.023
		c-0.024,0-0.035,0.02-0.035,0.059h-0.022c0-0.039-0.013-0.059-0.036-0.059H35.98v0.082l-0.061-0.059l-0.035,0.035l0.035,0.059
		h-0.022l-0.106-0.059c-0.031,0-0.047,0.02-0.047,0.059h-0.013c0-0.039-0.012-0.059-0.034-0.059h-0.024l-0.024,0.023l0.024,0.059
		v0.012h-0.035l-0.023-0.059l-0.035,0.047l0.035,0.035v0.012l-0.012,0.025h-0.023l-0.025-0.025H35.52v0.025l0.034,0.059v0.012
		l-0.047,0.023l0.035,0.059v0.012l-0.022,0.023l0.022,0.023h0.012l0.025-0.023h0.023v0.023l-0.023,0.014v0.023
		c0.125,0.086,0.195,0.191,0.212,0.316h-0.249l-0.035,0.035v0.4l0.013,0.012c0.095,0,0.156,0.039,0.188,0.119v0.023l-0.094,0.094
		v0.035c0,0.039,0.026,0.059,0.081,0.059v1.107l0.035,0.035l0.036-0.035V34.67h0.623l0.037,0.035v1.096h0.035v-1.096l-0.011-0.012
		h0.011l0.023-0.023h0.035l0.024,0.023v0.012l-0.024,0.023v1.096l0.024,0.012l0.035-0.035V34.67h0.094v1.189l0.035,0.035
		l0.036-0.035V34.6c0.055,0,0.083-0.02,0.083-0.059v-0.023l-0.095-0.105v-0.047l0.012-0.012c0.039,0,0.059-0.021,0.059-0.061
		c0.079-0.016,0.118-0.035,0.118-0.059v-0.377l-0.047-0.035H36.65v-0.023l0.06-0.189v-0.012h-0.036v-0.023h0.036l0.023,0.023h0.012
		l0.153-0.131v-0.045l-0.022-0.014l0.046-0.033v-0.049h-0.059v-0.035l0.059-0.012l-0.046-0.047H36.84l-0.012,0.023l0.012-0.094
		h-0.06v0.035h-0.012v-0.07H36.71v0.035l-0.036-0.035l-0.128,0.035h-0.024v-0.023l0.024-0.012V33.09l-0.024-0.021
		c-0.022,0-0.035,0.02-0.035,0.059h-0.035V33.09l0.011-0.021h-0.011l-0.024-0.025c-0.023,0-0.035,0.02-0.035,0.061h-0.023
		l-0.011-0.061c-0.032,0-0.049,0.027-0.049,0.082h-0.012c0-0.063-0.012-0.105-0.035-0.129l0.035-0.059l-0.082-0.082L36.144,32.939z
		 M31.117,33.01c0.04,0.078,0.079,0.117,0.119,0.117c0.055-0.023,0.086-0.051,0.094-0.082v-0.07
		c-0.008-0.023-0.039-0.049-0.094-0.07C31.157,32.934,31.117,32.971,31.117,33.01L31.117,33.01z M31.436,32.973v0.061
		c0.024,0.047,0.067,0.07,0.13,0.07h0.341c0.087,0,0.13-0.043,0.13-0.131l-0.07-0.07h-0.447L31.436,32.973z M32.153,32.973v0.072
		c0.009,0.031,0.04,0.059,0.095,0.082c0.079-0.039,0.118-0.08,0.118-0.119c-0.032-0.055-0.059-0.086-0.083-0.094h-0.07
		L32.153,32.973z M30.494,33.045v0.059c0.008,0.031,0.04,0.059,0.094,0.082c0.268,0,0.401-0.059,0.401-0.178l-0.06-0.068
		C30.639,32.939,30.494,32.973,30.494,33.045L30.494,33.045z M32.496,33.01v0.059c0.022,0.078,0.159,0.117,0.411,0.117
		c0.024-0.008,0.047-0.039,0.07-0.094c0-0.102-0.137-0.152-0.412-0.152L32.496,33.01z M31.942,32.973l0.022,0.025l-0.034,0.035
		h-0.377l-0.035-0.035v-0.025H31.942z M31.247,32.998v0.035h-0.059v-0.035H31.247z M30.906,33.01v0.023
		c0,0.023-0.105,0.047-0.318,0.07v-0.012l-0.011-0.023v-0.023L30.906,33.01z M32.907,33.068v0.023l-0.024,0.012l-0.317-0.035v-0.061
		L32.907,33.068z M30.142,33.09v0.07l0.069,0.072c0.087,0,0.13-0.043,0.13-0.131l-0.071-0.07h-0.022
		C30.185,33.033,30.149,33.053,30.142,33.09L30.142,33.09z M33.131,33.104v0.059l0.082,0.07h0.047l0.083-0.07
		c0-0.072-0.031-0.115-0.094-0.129C33.193,33.033,33.154,33.057,33.131,33.104L33.131,33.104z M27.293,33.068v0.129l-0.037,0.035
		v-0.164H27.293z M26.846,33.104c0.086,0,0.18,0.09,0.282,0.271v0.01h-0.036c0-0.029-0.031-0.074-0.094-0.129h-0.023v0.094h-0.035
		l-0.023-0.023l0.046-0.047c-0.055-0.102-0.102-0.154-0.142-0.154v-0.023h0.025V33.104z M27.693,33.104h0.034v0.023l-0.129,0.059
		v0.035h0.035l-0.035,0.059l0.035,0.037l-0.035,0.035h-0.035v-0.023l0.011-0.014v-0.082c-0.07,0.07-0.105,0.123-0.105,0.152h-0.036
		C27.434,33.299,27.52,33.205,27.693,33.104L27.693,33.104z M30.247,33.104l0.022,0.023v0.012l-0.022,0.023l-0.036-0.035v-0.023
		H30.247z M33.26,33.139v0.021h-0.047v-0.033l0.012-0.025L33.26,33.139z M36.238,33.186v0.035l-0.035,0.035v-0.119L36.238,33.186z
		 M36.027,33.16h0.081v0.061h-0.176l-0.012,0.012v-0.012C35.921,33.189,35.956,33.17,36.027,33.16L36.027,33.16z M36.357,33.16
		h0.046l0.094,0.025v0.033h-0.189v-0.021L36.357,33.16z M29.894,33.197l-0.059,0.059l-0.036-0.035v-0.023l0.024-0.012L29.894,33.197
		z M26.916,33.197l0.047,0.035h0.012v-0.012l-0.035-0.035h-0.023V33.197L26.916,33.197z M33.637,33.197l0.048,0.035v0.023h-0.059
		l-0.036-0.035v-0.023H33.637z M29.857,33.48c0.503-0.174,1.123-0.26,1.86-0.26c0.778,0,1.413,0.094,1.908,0.283l-0.06,0.059h-0.023
		v-0.049c-0.479-0.156-1.087-0.234-1.825-0.234c-0.532,0-0.996,0.043-1.389,0.129c-0.267,0.025-0.4,0.074-0.4,0.154
		c-0.048-0.023-0.069-0.043-0.069-0.059V33.48H29.857z M35.744,33.221h0.023l0.036,0.035c-0.063,0-0.115,0.012-0.154,0.035h-0.011
		v-0.012C35.638,33.248,35.673,33.229,35.744,33.221L35.744,33.221z M36.674,33.221c0.063,0,0.106,0.023,0.13,0.07l-0.164-0.035
		v-0.035H36.674L36.674,33.221z M27.28,33.256h0.012v0.059h-0.036l-0.011-0.023L27.28,33.256z M36.238,33.291v0.059h-0.023
		l-0.035-0.035v-0.023H36.238z M35.921,33.326v0.049h-0.06v-0.049H35.921z M31.718,33.35c0.486,0,1.001,0.051,1.542,0.152v0.035
		c-0.549,0.104-1.042,0.154-1.482,0.154c-0.534,0-1.06-0.059-1.577-0.178v-0.012C30.702,33.402,31.209,33.35,31.718,33.35
		L31.718,33.35z M27.058,33.375l0.034,0.033l-0.024,0.094h-0.01l-0.049-0.035l-0.011,0.014h-0.023l0.06-0.059v-0.014l-0.024-0.023
		v-0.012h0.047L27.058,33.375L27.058,33.375z M27.527,33.375h0.012v0.033l-0.012,0.014l0.071,0.08l-0.059-0.023h-0.013l-0.022,0.023
		l-0.06-0.059L27.527,33.375z M36.309,33.408h-0.047v-0.023l0.012-0.01L36.309,33.408z M26.904,33.385h0.011v0.037h-0.047
		L26.904,33.385z M27.245,33.408v0.035h0.071v-0.035h0.094v0.014c0,0.031-0.043,0.051-0.13,0.059
		c-0.086-0.008-0.13-0.027-0.13-0.059v-0.014H27.245z M30.906,33.703v0.023h-0.094c-0.149,0-0.424-0.051-0.824-0.152v-0.012
		l0.023-0.023C30.42,33.648,30.718,33.703,30.906,33.703L30.906,33.703z M32.565,33.727c0.416-0.063,0.719-0.117,0.906-0.164v0.035
		c-0.259,0.063-0.548,0.113-0.871,0.152h-0.035V33.727z M27.092,33.596l0.013,0.014l-0.037,0.047h-0.01v-0.059h0.034V33.596z
		 M27.187,33.596l0.011,0.061H27.15v-0.023L27.187,33.596z M27.479,33.596h0.025l-0.025,0.072l-0.035-0.037L27.479,33.596z
		 M36.027,33.609v0.082h-0.036v-0.082H36.027z M36.144,33.609v0.082h-0.035l-0.023-0.082H36.144z M36.332,33.609v0.023
		c0,0.039-0.012,0.059-0.035,0.059l0.012-0.082H36.332L36.332,33.609z M36.451,33.656v0.035h-0.06v-0.059l0.012-0.023L36.451,33.656
		z M26.881,33.633l0.035,0.035v0.023h-0.035l-0.013-0.059H26.881z M27.693,33.633l-0.06,0.059v-0.059H27.693z M35.861,33.656v0.047
		h-0.023l-0.035-0.035v-0.012H35.861z M36.64,33.656l-0.024,0.07H36.58l-0.024-0.023l0.024-0.047H36.64z M27.15,33.703v0.023h-0.083
		v-0.023H27.15z M27.469,33.703v0.023h-0.083v-0.023H27.469z M26.963,33.727h0.07v0.023c-0.063,0-0.094,0.012-0.094,0.037h-0.059
		V33.75L26.963,33.727z M27.599,33.727v0.023h-0.094v-0.023H27.599z M36.215,33.727l0.33,0.023v0.012h-0.06l-0.271-0.012
		c-0.204,0-0.33,0.018-0.377,0.049h-0.012C35.826,33.75,35.956,33.727,36.215,33.727L36.215,33.727z M27.668,33.75l-0.034,0.037
		h-0.012V33.75H27.668z M28.857,33.822l0.166,0.023h2.683v2.213l-0.023,0.023c-0.212,0.039-0.4,0.125-0.566,0.258h-0.223V35.48
		c0.07,0,0.105-0.012,0.105-0.035v-0.4l-0.035-0.035h-0.152v-0.223c0.055,0,0.082-0.016,0.082-0.047v-0.201l-0.034-0.035H30.8
		c-0.023,0-0.035,0.016-0.035,0.047h-0.047c0-0.031-0.012-0.047-0.035-0.047H30.61c-0.023,0-0.034,0.016-0.034,0.047h-0.024
		c0-0.031-0.012-0.047-0.035-0.047h-0.06l-0.035,0.035v0.225c0.047,0,0.072,0.012,0.072,0.035v0.176l-0.037,0.035h-0.058v-0.564
		c0.079,0,0.117-0.012,0.117-0.035v-0.236l-0.034-0.035h-0.083c-0.024,0-0.035,0.02-0.035,0.059H30.34
		c0-0.039-0.012-0.059-0.035-0.059h-0.106c-0.031,0-0.047,0.02-0.047,0.059l-0.071-0.059h-0.059l-0.035,0.035v0.236
		c0,0.023,0.031,0.035,0.094,0.035v0.564l-0.093-0.023v-0.223c0.047,0,0.07-0.014,0.07-0.035v-0.189l-0.035-0.037h-0.059
		c-0.023,0-0.036,0.018-0.036,0.049h-0.011c0-0.031-0.015-0.049-0.047-0.049h-0.071c-0.023,0-0.035,0.018-0.035,0.049l-0.081-0.047
		h-0.048l-0.047,0.035v0.201l0.022,0.023c0.047,0,0.072,0.012,0.072,0.035v0.188h-0.142l-0.048,0.035v0.424
		c0,0.023,0.032,0.035,0.095,0.035v0.824l0.022,0.023h-0.022l-0.012,0.012H29.4l-0.037,0.047v0.447l0.025,0.023l0.881,0.012h0.531
		l-0.083,0.4h-1.919l-0.01-0.057l0.01-0.025v-3.33l-0.01-0.012L28.857,33.822z M34.708,33.846v3.424l-0.012,0.012l-0.13-0.012
		h-1.788c0-0.486-0.229-0.859-0.684-1.119c-0.196-0.039-0.294-0.07-0.294-0.094v-2.211H34.708z M26.786,33.881h1.119l0.012,0.012
		v0.023l-0.012,0.023v0.199l0.012,0.023h-1.283l0.023-0.211l-0.023-0.07l0.023-0.023L26.786,33.881z M36.839,33.891v0.307h-1.225
		l-0.035-0.035v-0.271H36.839z M33.401,34.01l-0.023,0.023l0.035,0.141v0.059c-0.07,0.033-0.106,0.061-0.106,0.084l-0.047,0.035
		c-0.125,0-0.188,0.018-0.188,0.059l0.059,0.141h0.13v0.023l-0.012,0.023l-0.118-0.023c-0.142-0.102-0.228-0.152-0.26-0.152h-0.081
		l-0.035,0.035c0.109,0.141,0.204,0.213,0.282,0.213h0.083v0.033c-0.04,0-0.059,0.012-0.059,0.035l0.07,0.094
		c-0.008,0.041-0.043,0.061-0.106,0.061h-0.141c-0.252-0.111-0.377-0.197-0.377-0.26l0.059-0.152v-0.023
		c0-0.064-0.022-0.107-0.071-0.131H32.46v0.059l-0.059,0.154c-0.057-0.047-0.115-0.074-0.177-0.082
		c-0.063,0.016-0.094,0.035-0.094,0.059v0.023c0.055,0,0.094,0.035,0.117,0.107h0.035v0.023c-0.109,0.045-0.165,0.102-0.165,0.164
		l0.013,0.023l0.094-0.023h0.153l0.024,0.023c0,0.039,0.011,0.059,0.034,0.059l-0.07,0.059c0,0.023,0.036,0.039,0.105,0.047v0.049
		l-0.011,0.01c0.172,0.063,0.271,0.125,0.294,0.189c-0.095,0.086-0.168,0.129-0.224,0.129h-0.059c0-0.047-0.02-0.07-0.059-0.07
		h-0.105l-0.083,0.059v0.012c0.079,0.023,0.126,0.055,0.141,0.096v0.023c-0.062,0-0.114,0.043-0.152,0.129l0.011,0.023l0.06-0.023
		l0.094,0.023c0.039,0.125,0.078,0.189,0.118,0.189l0.035-0.037v-0.023l-0.023-0.023l0.058-0.07v-0.094l0.13-0.025l0.023,0.082
		l0.118-0.094h0.012l0.022,0.012h0.037c0-0.039,0.031-0.072,0.093-0.105h0.037c0.093,0.197,0.2,0.295,0.317,0.295v0.047h-0.2
		c-0.117,0-0.177,0.098-0.177,0.295c0.055,0.047,0.083,0.086,0.083,0.117h0.035l0.023-0.023v0.035l-0.047,0.047h-0.094l-0.012-0.023
		c-0.024-0.102-0.083-0.154-0.177-0.154c-0.063,0.01-0.094,0.029-0.094,0.059v0.025c0.047,0,0.086,0.035,0.118,0.105v0.023h-0.026
		l-0.01-0.023h-0.025c-0.086,0.039-0.138,0.082-0.152,0.129l0.047,0.047l0.047-0.047l0.094,0.061h0.025l0.022-0.014
		c0,0.135,0.024,0.199,0.07,0.199h0.024l0.069-0.186l0.308,0.033l0.047-0.07l-0.047-0.307h0.011l0.024-0.012h0.105v0.012
		l-0.012,0.025v0.059c0,0.094,0.052,0.188,0.153,0.281l0.035-0.035l0.036,0.035c0.024,0,0.035-0.025,0.035-0.082l0.059,0.061v0.057
		c-0.204,0.023-0.306,0.078-0.306,0.166l0.024,0.023l0.07-0.037l0.083,0.012l-0.037,0.154v0.037l0.048,0.059h0.024
		c0-0.055,0.031-0.086,0.093-0.094L33.875,37l0.035-0.035v-0.012l-0.024-0.023l0.059-0.072v-0.047l-0.035-0.047V36.74
		c0-0.094,0.043-0.199,0.129-0.318v-0.023l-0.035-0.059c-0.117-0.07-0.177-0.137-0.177-0.201c0-0.061,0.027-0.125,0.083-0.188
		c0.188,0,0.294-0.105,0.317-0.316v-0.049c-0.102-0.32-0.152-0.514-0.152-0.576c0-0.07,0.03-0.121,0.094-0.152
		c0.109-0.189,0.181-0.291,0.212-0.307c0-0.025-0.028-0.035-0.083-0.035v-0.012c0.063-0.078,0.095-0.148,0.095-0.213v-0.023
		l-0.012-0.012l-0.188,0.129h-0.024l-0.034-0.094l-0.025,0.023c-0.07,0.166-0.117,0.408-0.14,0.73l0.105,0.541
		c0,0.094-0.035,0.158-0.105,0.189h-0.153c-0.125-0.096-0.221-0.252-0.283-0.471h0.035v0.047h0.06v-0.213l0.059,0.061
		c0.016,0,0.032-0.033,0.047-0.096V35.08l-0.012-0.012v-0.023h0.035l0.023,0.059l0.036-0.035v-0.023
		c0-0.049-0.032-0.102-0.094-0.166v-0.057h0.011l0.023,0.012h0.024l-0.024-0.225v-0.059c0.009-0.033,0.06-0.047,0.154-0.047h0.059
		l0.011,0.012v-0.012l0.024-0.023c0-0.025-0.043-0.047-0.129-0.07l0.012-0.084c0-0.023-0.035-0.035-0.106-0.035
		c0-0.078-0.016-0.117-0.048-0.117h-0.093l-0.037-0.094l-0.058,0.023l-0.13-0.096h-0.013V34.01z M33.602,34.221l0.035,0.037v0.01
		l-0.047-0.047H33.602z M33.719,34.316l0.036,0.035h-0.023l-0.036-0.035H33.719z M27.716,34.326v0.082h-0.87v-0.082H27.716z
		 M36.65,34.352v0.094h-0.859v-0.094H36.65z M33.401,34.363l0.036,0.047h-0.036l-0.046-0.047H33.401z M27.787,34.48v0.035h-0.919
		l-0.094-0.012V34.48H27.787z M35.731,34.504h0.201l0.141,0.012l0.013-0.012v0.012h0.647v0.023h-1.036L35.731,34.504z M29.857,35.68
		h0.036l0.06,0.059v0.154l-0.036,0.035h-0.094v-0.201L29.857,35.68z M30.588,35.68h0.036c0.039,0.018,0.059,0.057,0.059,0.119v0.094
		l-0.036,0.035h-0.093v-0.201L30.588,35.68z M27.716,35.963c0.009-0.086,0.024-0.129,0.048-0.129h0.023
		c-0.094,0.273-0.157,0.41-0.188,0.41h-0.024l-0.2-0.375v-0.012h0.105l0.143,0.26L27.716,35.963z M28.094,35.834l0.105,0.035v0.047
		l-0.13-0.047l-0.059,0.059v0.023l0.188,0.154v0.07c-0.008,0.039-0.051,0.07-0.129,0.094c-0.102-0.008-0.154-0.027-0.154-0.059
		v-0.035h0.023l0.072,0.059h0.059l0.058-0.059V36.15l-0.188-0.162C27.939,35.908,27.99,35.857,28.094,35.834L28.094,35.834z
		 M35.355,36.15c0.047-0.195,0.082-0.293,0.106-0.293h0.023l-0.118,0.412h-0.046l-0.248-0.342v-0.012l0.094-0.023l0.165,0.258
		H35.355z M35.731,35.857v0.354h0.153v0.035h-0.247v-0.389H35.731z M36.169,35.869h0.069l0.035,0.047v0.012h-0.012l-0.023-0.012
		h-0.058c-0.041,0-0.061,0.119-0.061,0.354h-0.093l0.022-0.318c0-0.039-0.039-0.059-0.118-0.059v-0.035L36.169,35.869z
		 M27.104,35.916c0.038,0.219,0.07,0.33,0.093,0.33l0.142-0.012v0.035l-0.248,0.035l-0.082-0.377L27.104,35.916z M36.686,36.045
		c0,0.072-0.035,0.105-0.105,0.105v0.025l0.07,0.211c-0.087,0-0.148-0.07-0.188-0.211c-0.031,0-0.051,0.051-0.059,0.152
		l-0.071-0.023c0-0.086,0.025-0.211,0.071-0.375C36.592,35.951,36.686,35.99,36.686,36.045L36.686,36.045z M26.786,35.988
		c0.063,0,0.103,0.039,0.118,0.117c-0.031,0.055-0.091,0.102-0.177,0.141l0.047,0.176l-0.059,0.012
		c-0.102-0.195-0.153-0.32-0.153-0.377L26.786,35.988z M36.462,36.082c0,0.039,0.012,0.057,0.035,0.057h0.048
		c0.03-0.014,0.047-0.055,0.047-0.115l-0.071-0.061C36.497,35.963,36.478,36.002,36.462,36.082L36.462,36.082z M26.68,36.045
		l-0.022,0.012c0.022,0.102,0.047,0.154,0.07,0.154l0.082-0.061c0-0.061-0.021-0.096-0.059-0.105H26.68L26.68,36.045z M37.063,36.15
		l0.059,0.049c-0.024,0.094-0.035,0.223-0.035,0.387v0.025l-0.095-0.025v-0.129l-0.117-0.094h-0.035l-0.072,0.059h-0.058
		L37.063,36.15z M30.87,37c0.174-0.535,0.464-0.801,0.872-0.801c0.156,0.008,0.263,0.031,0.318,0.07
		c0.416,0.221,0.622,0.564,0.622,1.035c0,0.109-0.02,0.229-0.059,0.354c-0.172,0.502-0.453,0.752-0.846,0.752L31.59,38.4
		c-0.502-0.182-0.754-0.537-0.754-1.072v-0.023C30.836,37.156,30.848,37.055,30.87,37L30.87,37z M36.897,36.328
		c0.008,0.023,0.039,0.047,0.094,0.072l0.036-0.107V36.27h-0.06L36.897,36.328z M27.574,36.387v0.895l0.024,0.023h0.023l0.012-0.023
		l-0.012-0.07l0.012-0.164l-0.012-0.461l0.012-0.223l-0.012-0.023L27.574,36.387z M27.728,36.387v0.824l0.024,0.023
		c0.117-0.072,0.235-0.172,0.354-0.307v-0.023c-0.071-0.07-0.17-0.105-0.296-0.105v-0.412l-0.046-0.047L27.728,36.387z M35.697,36.4
		v0.41c-0.204,0.039-0.306,0.08-0.306,0.117v0.025c0.133,0.148,0.251,0.246,0.353,0.293v-0.012l0.023-0.023V36.4l-0.036-0.037
		L35.697,36.4z M27.469,37.34l0.012,0.023l0.047-0.035v-0.941h-0.059V37.34z M30.234,36.422c0.063,0,0.106,0.023,0.13,0.072v0.305
		h-0.247v-0.283C30.149,36.453,30.188,36.422,30.234,36.422L30.234,36.422z M31.023,37.328l0.024,0.189
		c0.148,0.447,0.361,0.67,0.636,0.67h0.188c0.4-0.156,0.6-0.426,0.6-0.813v-0.141l-0.059-0.307
		c-0.181-0.336-0.373-0.506-0.577-0.506H31.66C31.236,36.564,31.023,36.865,31.023,37.328L31.023,37.328z M31.754,36.494h0.094
		c0.37,0.139,0.555,0.402,0.555,0.787v0.059c0,0.111-0.014,0.191-0.036,0.248c-0.118,0.352-0.322,0.529-0.613,0.529h-0.069
		c-0.378-0.109-0.566-0.361-0.566-0.754v-0.117C31.182,36.744,31.392,36.494,31.754,36.494L31.754,36.494z M36.427,37.588h0.035
		v-1.094h-0.035V37.588z M26.751,36.553v0.117l-0.13-0.023h-0.022c-0.087,0-0.173,0.07-0.259,0.211v0.072l0.105,0.117
		c0.204,0.039,0.306,0.07,0.306,0.094v0.518l0.036,0.047l0.035-0.047v-1.107l-0.036-0.035L26.751,36.553z M36.521,37.646h0.06
		v-1.131h-0.06V37.646z M36.674,36.586v1.096l0.035,0.035h0.036v-0.576c0.188,0,0.326-0.063,0.411-0.189
		c0-0.094-0.066-0.184-0.2-0.271h-0.211v-0.094l-0.036-0.033L36.674,36.586z M31.33,36.904l0.012,0.082
		c-0.087,0-0.138,0.031-0.153,0.096c0,0.039,0.021,0.082,0.059,0.129l0.059-0.023c0.04,0,0.06,0.016,0.06,0.047
		c-0.056,0-0.083,0.012-0.083,0.035v0.012l0.047,0.047L31.305,37.4v0.021l0.024,0.012h0.013l0.023-0.012l0.059,0.037h0.012
		l0.035-0.037l0.06,0.012h0.023l-0.023-0.07l0.058-0.082V37.27c0-0.023-0.023-0.035-0.07-0.035v-0.047h0.012l0.094,0.023l0.06-0.119
		c0-0.061-0.056-0.096-0.165-0.105v-0.023l0.012-0.012v-0.023c0-0.094-0.031-0.164-0.094-0.211h-0.012
		C31.362,36.779,31.33,36.842,31.33,36.904L31.33,36.904z M31.965,36.904l0.025,0.082c-0.088,0-0.139,0.025-0.153,0.072v0.082
		l0.059,0.07l0.095-0.023v0.047c-0.041,0-0.06,0.012-0.06,0.035v0.035c0,0.023,0.02,0.035,0.06,0.035L31.942,37.4v0.023l0.022,0.012
		h0.025l0.011-0.012l0.06,0.035h0.023l0.048-0.035h0.021l0.025,0.012l0.011-0.012l-0.011-0.059l0.035-0.061V37.27
		c0-0.023-0.02-0.035-0.06-0.035v-0.047l0.095,0.025c0.039-0.01,0.059-0.049,0.059-0.119v-0.035c-0.016-0.047-0.066-0.07-0.154-0.07
		v-0.023l0.025-0.012c0-0.104-0.032-0.182-0.095-0.238h-0.023C31.998,36.787,31.965,36.85,31.965,36.904L31.965,36.904z
		 M27.386,37.494c-0.666,0.258-1.059,0.453-1.177,0.588l0.048,0.412v0.012h0.046l0.318-0.199c0.62-0.197,1.135-0.477,1.543-0.838
		c0-0.297-0.02-0.445-0.059-0.445C27.979,37.148,27.74,37.305,27.386,37.494L27.386,37.494z M35.319,37.459
		c0.205,0.219,0.448,0.4,0.73,0.541c0.651,0.244,1.028,0.422,1.13,0.541c0.04,0,0.07-0.137,0.095-0.412
		c-0.032-0.094-0.2-0.199-0.507-0.318c-0.746-0.322-1.206-0.576-1.377-0.766C35.367,37.047,35.344,37.184,35.319,37.459
		L35.319,37.459z M31.648,37.494l0.012,0.07c-0.079,0-0.126,0.027-0.142,0.082v0.012c0,0.047,0.016,0.094,0.047,0.141l0.083-0.047
		l0.035,0.059c-0.047,0-0.07,0.012-0.07,0.035v0.025l0.035,0.035l-0.024,0.082V38l0.024,0.023h0.012L31.685,38h0.022l0.048,0.035
		L31.802,38l0.046,0.023h0.024l-0.024-0.059V37.93l0.06-0.059v-0.023c0-0.023-0.023-0.035-0.071-0.035v-0.035h0.012l0.095,0.023
		l0.047-0.154c-0.023-0.055-0.07-0.082-0.142-0.082v-0.047c0-0.104-0.031-0.174-0.094-0.213h-0.013
		C31.679,37.367,31.648,37.43,31.648,37.494L31.648,37.494z M28.799,37.377l0.024-0.014h0.153l0.094,0.014V37.4l-0.024,0.023v2.707
		l0.024,0.129c-0.181-0.219-0.271-0.479-0.271-0.775V37.4l-0.01-0.023H28.799z M29.729,37.377v3.412
		c-0.205-0.07-0.308-0.129-0.308-0.176v-3.236H29.729z M30.399,37.377v3.482l-0.035,0.035h-0.247l-0.036-0.035v-3.482H30.399z
		 M34.673,37.377l0.035,0.045v1.896c0,0.283-0.035,0.514-0.106,0.695c-0.305,0.604-0.757,0.906-1.353,0.906
		c-0.235-0.025-0.405-0.063-0.507-0.119c-0.627-0.25-0.94-0.758-0.94-1.518v-0.754l0.258-0.059c0,0.047,0.039,0.07,0.118,0.07v0.248
		c-0.063,0-0.104,0.051-0.118,0.154v0.023c0.015,0.092,0.056,0.139,0.118,0.139v0.143L32.06,39.32l0.024,0.281
		c0.077,0,0.134,0.082,0.164,0.246l-0.035,0.107v0.023c0,0.063,0.035,0.117,0.106,0.164c0.094,0,0.177,0.049,0.246,0.143
		l-0.011,0.094c0,0.039,0.077,0.086,0.235,0.141c0.055,0,0.081-0.016,0.081-0.047l0.19,0.035c0.062,0.088,0.124,0.131,0.188,0.131
		l0.095-0.025c0.063-0.094,0.149-0.141,0.258-0.141l0.059,0.072c0.031,0,0.126-0.053,0.283-0.154l-0.024-0.096v-0.01l0.118-0.119
		c0.166-0.023,0.248-0.078,0.248-0.164c-0.009-0.094-0.028-0.141-0.06-0.141l0.06-0.201c0.085,0,0.129-0.094,0.129-0.281v-0.061
		c-0.077-0.031-0.118-0.055-0.118-0.07v-0.094c0.079-0.063,0.118-0.121,0.118-0.176v-0.037c0-0.055-0.039-0.109-0.118-0.164v-0.211
		c0.079-0.023,0.118-0.049,0.118-0.072v-0.271c-0.077-0.023-0.118-0.047-0.118-0.07v-0.164c0.094-0.07,0.142-0.143,0.142-0.211
		c-0.055-0.111-0.114-0.166-0.177-0.166c-0.109,0.016-0.164,0.053-0.164,0.107h-0.188l-0.024-0.096h-0.282
		c-0.022,0-0.035,0.033-0.035,0.096h-0.153c-0.063-0.072-0.117-0.107-0.165-0.107c-0.055,0-0.117,0.035-0.188,0.107h-0.13
		c0-0.072-0.02-0.107-0.061-0.107h-0.116l0.024-0.236h1.896L34.673,37.377L34.673,37.377z M30.776,37.682
		c0,0.096,0.103,0.281,0.306,0.566l-0.023,0.023v2.342l0.023,0.023l-0.306,0.164h-0.011v-3.119H30.776L30.776,37.682z M33.225,37.74
		h0.06v0.094h-0.095v-0.057L33.225,37.74z M34.261,37.74l0.035,0.037v0.057h-0.093l-0.013-0.023l0.013-0.07H34.261L34.261,37.74z
		 M32.789,37.752l0.048,0.047v0.012h-0.118l-0.023,0.023v-0.082H32.789L32.789,37.752z M33.79,37.752v0.082h-0.095l-0.035-0.035
		v-0.047H33.79z M27.728,37.895v1.73h-0.105v-1.566l0.011-0.094h-0.059v1.66h-0.047v-1.602h-0.059v1.602H26.82v-1.307l-0.034-0.035
		l-0.035,0.035v1.377l-0.061,0.059l0.024,0.107c0,0.078-0.059,0.129-0.176,0.152l0.024,0.129v0.236l-0.024,0.012
		c-0.149,0.031-0.224,0.059-0.224,0.082v0.752l0.024,0.014l0.447-0.107h0.034l0.436,0.107l0.472-0.107h0.024l0.435,0.107
		c0.032,0,0.047-0.014,0.047-0.037v-0.729l-0.011-0.023c-0.149-0.025-0.225-0.057-0.225-0.094h0.013l-0.013-0.096v-0.023
		l0.013-0.223c-0.126-0.041-0.189-0.092-0.189-0.154l0.023-0.07v-0.035c0-0.023-0.019-0.035-0.058-0.035v-0.025l0.023-0.023v-1.824
		l-0.023-0.012L27.728,37.895z M33.061,37.846c0.048,0.063,0.082,0.094,0.106,0.094v0.119c-0.064,0.008-0.096,0.027-0.096,0.059
		v0.248c0,0.031,0.031,0.045,0.096,0.045v0.318l-0.013,0.025l-0.212-0.248l0.035-0.047V38.41l-0.165-0.199l-0.117,0.012l-0.13-0.129
		l0.035-0.131h0.271c0.042,0,0.061-0.037,0.061-0.117H33.061z M33.543,37.846l0.023,0.025c0,0.063,0.013,0.092,0.035,0.092h0.271
		l0.071-0.117h0.129v0.025l-0.282,0.352l-0.106-0.035c-0.125,0.127-0.188,0.201-0.188,0.223l0.035,0.096l-0.188,0.223h-0.035V38.41
		c0.063,0,0.098-0.016,0.105-0.047v-0.246c0-0.023-0.035-0.043-0.105-0.059v-0.072l0.094-0.141H33.543L33.543,37.846z
		 M35.697,37.906v1.813l0.012,0.012l-0.071,0.035l0.012,0.117l-0.012,0.096c-0.103,0.029-0.153,0.055-0.153,0.068v0.377
		c-0.148,0.025-0.224,0.053-0.224,0.084v0.73l0.012,0.023h0.047l0.412-0.096h0.071l0.459,0.107c0.189-0.072,0.325-0.107,0.412-0.107
		h0.06l0.389,0.107l0.036-0.035v-0.73c0-0.023-0.076-0.051-0.225-0.082v-0.389c-0.109-0.031-0.165-0.072-0.165-0.119v-0.059
		l0.035-0.047l-0.07-0.082v-0.012l0.012-0.023v-1.33l-0.036-0.047l-0.036,0.047v1.293h-0.081l-0.036-0.033v-0.66l0.024-0.471
		l-0.024-0.023l0.024-0.014v-0.176h-0.06v1.377h-0.035l-0.034-0.033l-0.061,0.033h-0.588l-0.035-0.033v-1.719l-0.036-0.035
		L35.697,37.906z M34.19,37.963v0.213l-0.118,0.072v0.258l0.118,0.082v0.189l-0.13,0.129h-0.142
		c-0.023-0.078-0.047-0.119-0.07-0.119h-0.247l-0.07,0.119l-0.083-0.023v-0.07l0.177-0.213l0.093,0.023
		c0.032,0,0.1-0.07,0.201-0.211V38.4l-0.047-0.094c0.188-0.195,0.283-0.311,0.283-0.342h0.035V37.963z M33.284,38.176v0.131h-0.071
		v-0.131H33.284z M32.472,38.188h0.036l0.093,0.131l-0.047,0.092l0.188,0.225l0.095-0.035c0.094,0.078,0.16,0.16,0.199,0.246
		c0,0.018-0.022,0.037-0.069,0.061v-0.023h-0.036c0-0.064-0.015-0.096-0.048-0.096h-0.282l-0.011,0.023
		c0,0.049-0.013,0.072-0.036,0.072h-0.141l-0.105-0.107v-0.234c0.062-0.008,0.094-0.023,0.094-0.047v-0.178
		C32.401,38.256,32.424,38.211,32.472,38.188L32.472,38.188z M34.285,38.307v0.127h-0.083v-0.127H34.285z M33.719,38.342l0.06,0.035
		l-0.083,0.117l-0.059-0.059l0.059-0.094H33.719L33.719,38.342z M32.272,38.365v0.07h-0.083L32.272,38.365z M32.742,38.365h0.012
		l0.083,0.07l-0.048,0.059L32.695,38.4L32.742,38.365z M26.303,38.6v0.023l0.235,0.248c0.032,0,0.052-0.059,0.061-0.176
		c0-0.096-0.036-0.174-0.107-0.236h-0.022C26.404,38.482,26.35,38.529,26.303,38.6L26.303,38.6z M31.707,38.529v0.789
		c0,0.424-0.094,0.746-0.282,0.965l0.011-0.141V39.73l-0.011-0.096l0.011-0.057v-0.354l-0.011-0.096l0.011-0.023l-0.011-0.07v-0.023
		L31.436,39l-0.011-0.082v-0.012l0.011-0.023v-0.012l-0.011-0.023v-0.023l0.011-0.012l-0.011-0.059v-0.025l0.011-0.012l-0.011-0.059
		l0.011-0.07l-0.011-0.082v-0.035L31.707,38.529z M36.427,38.529h0.035v-0.035l-0.035-0.037V38.529z M36.875,38.719v0.068
		c0.022,0.104,0.05,0.154,0.081,0.154l0.249-0.283v-0.023c-0.018-0.031-0.08-0.086-0.188-0.166h-0.024
		C36.913,38.525,36.875,38.607,36.875,38.719L36.875,38.719z M36.403,38.941h0.048v-0.164h-0.024L36.403,38.941z M33.213,38.871
		h0.071l0.059,0.047v0.094l-0.083,0.047h-0.035l-0.07-0.082v-0.059L33.213,38.871z M32.248,38.906l0.035,0.035v0.023l-0.035,0.047
		c-0.04-0.008-0.063-0.031-0.07-0.07h0.012v-0.035H32.248L32.248,38.906z M34.249,38.906h0.012l0.035,0.035V39l-0.047,0.012
		l-0.059-0.047L34.249,38.906z M32.813,38.918V39h-0.13v-0.082H32.813z M33.79,38.918V39h-0.13v-0.082H33.79z M32.472,39.012
		c0.062,0,0.114,0.039,0.152,0.117h0.259c0.033,0,0.048-0.029,0.048-0.094h0.07l0.035,0.035v0.025l-0.165,0.199l-0.093-0.037
		l-0.213,0.227l0.061,0.092l-0.188,0.213h-0.071l-0.047-0.164c0.063-0.008,0.094-0.029,0.094-0.059v-0.225
		c-0.024-0.055-0.059-0.084-0.106-0.084v-0.127C32.362,39.051,32.417,39.012,32.472,39.012L32.472,39.012z M33.543,39.035
		l0.023,0.023c0,0.047,0.013,0.072,0.035,0.072h0.247c0.04,0,0.06-0.031,0.06-0.096h0.188v0.023l0.094,0.096v0.035l-0.023,0.094
		c-0.063,0-0.095,0.012-0.095,0.035v0.07l-0.012,0.189l0.106,0.059c-0.022,0.119-0.059,0.176-0.106,0.176
		c-0.125-0.117-0.188-0.195-0.188-0.234l0.036-0.07v-0.023l-0.177-0.201l-0.105,0.012l-0.178-0.199v-0.061H33.543L33.543,39.035z
		 M33.167,39.166V39.6c-0.064,0-0.096,0.012-0.096,0.035v0.283l0.024,0.023c0.047,0,0.071,0.012,0.071,0.035v0.307l-0.071,0.094
		l-0.129-0.023V40.26l-0.248-0.154c-0.048,0.008-0.07,0.027-0.07,0.059L32.53,40.07l0.035-0.094l-0.011-0.07l0.035-0.082
		c0.071-0.07,0.106-0.123,0.106-0.154l0.141,0.023l0.164-0.211v-0.035l-0.034-0.061C33.067,39.24,33.135,39.166,33.167,39.166
		L33.167,39.166z M33.343,39.189l0.164,0.188v0.035l-0.035,0.059v0.014l0.165,0.211l0.118-0.023l0.188,0.211v0.023l-0.023,0.012
		v0.035l0.023,0.143l-0.094,0.07l-0.07-0.061h-0.023l-0.248,0.154l0.024,0.096l-0.094,0.023h-0.024l-0.105-0.084v-0.318l0.105-0.07
		v-0.271l-0.105-0.07v-0.375H33.343L33.343,39.189z M32.225,39.377h0.048v0.129h-0.083v-0.094L32.225,39.377z M34.285,39.389v0.141
		h-0.083v-0.141H34.285z M32.813,39.412l0.035,0.035v0.023l-0.069,0.096l-0.06-0.037L32.813,39.412z M33.755,39.506l-0.036,0.061
		l-0.093-0.096l0.034-0.059L33.755,39.506z M33.284,39.719v0.129h-0.071v-0.129H33.284z M27.764,39.859l0.023,0.143h-1.013
		l0.012-0.143H27.764z M31.754,39.859c0.063,0.229,0.122,0.354,0.177,0.377l-0.083,0.059l-0.07-0.059h-0.024l-0.047,0.059
		l-0.093-0.012h-0.024l-0.023,0.012V40.26c0.086-0.127,0.145-0.258,0.177-0.4H31.754L31.754,39.859z M36.686,39.883l0.047,0.119
		v0.01h-1.035l0.035-0.129H36.686z M32.366,39.918h0.036l0.035,0.035v0.023l-0.035,0.037h-0.036l-0.047-0.037v-0.023L32.366,39.918z
		 M34.107,39.918l0.048,0.035v0.059l-0.059,0.025l-0.06-0.035l0.023-0.084H34.107L34.107,39.918z M27.915,40.072l0.024,0.023v0.01
		l-0.024,0.025v0.246l-1.258-0.023h-0.036v-0.281H27.915z M35.604,40.096h1.259v0.293h-1.259l-0.049-0.035v-0.225L35.604,40.096z
		 M32.837,40.318v0.012l-0.048,0.059c-0.07-0.031-0.106-0.055-0.106-0.07l0.036-0.059L32.837,40.318z M33.731,40.283h0.023
		l0.035,0.035l-0.095,0.07l-0.035-0.035v-0.035L33.731,40.283z M31.554,40.33l0.012,0.023c-0.094,0.096-0.141,0.18-0.141,0.26v0.047
		c0,0.094,0.055,0.18,0.163,0.26c0.087,0.016,0.13,0.033,0.13,0.057v0.059c-0.164-0.125-0.326-0.188-0.481-0.188h-0.189
		l-0.023,0.012c0.173,0.182,0.317,0.271,0.436,0.271h0.165l0.082-0.025h0.012l-0.035,0.129h0.035c0.079,0,0.118-0.041,0.118-0.129
		l0.342,0.025c0.094,0,0.211-0.063,0.352-0.189v-0.023l-0.305-0.061c-0.118,0-0.243,0.061-0.377,0.178h-0.011v-0.082
		c0.196-0.055,0.295-0.16,0.295-0.316l-0.037-0.117v-0.014c0.322,0.34,0.726,0.506,1.213,0.506v0.025
		c-0.519,0.156-1.028,0.234-1.53,0.234c-0.511,0-1.025-0.078-1.543-0.234v-0.025c0.534,0,0.962-0.227,1.284-0.682H31.554
		L31.554,40.33z M31.802,40.389h0.046l0.024-0.012v0.012c0.126,0.094,0.188,0.178,0.188,0.248c0,0.125-0.07,0.201-0.212,0.223
		h-0.036c0.056-0.061,0.083-0.129,0.083-0.199v-0.047c-0.039-0.135-0.078-0.207-0.117-0.225c-0.087,0.072-0.13,0.162-0.13,0.271
		l0.07,0.199h-0.012c-0.142-0.021-0.213-0.086-0.213-0.188v-0.035l0.036-0.154c0.142-0.061,0.216-0.113,0.224-0.152
		C31.786,40.33,31.802,40.35,31.802,40.389L31.802,40.389z M31.965,40.33l0.036,0.047v0.012H31.99l-0.048-0.035V40.33H31.965
		L31.965,40.33z M33.225,40.414h0.035l0.048,0.035v0.023l-0.059,0.047l-0.06-0.047v-0.023L33.225,40.414z M26.751,40.52h0.117
		l0.329,0.094h0.154l0.342-0.094h0.094c0.274,0.078,0.412,0.125,0.412,0.141v0.07l-0.013,0.023l-0.399-0.117h-0.094l-0.413,0.117
		l-0.412-0.117h-0.117L26.41,40.73h-0.06v-0.07C26.357,40.637,26.491,40.59,26.751,40.52L26.751,40.52z M35.744,40.543h0.048
		l0.411,0.117l0.447-0.117l0.471,0.117v0.105l-0.436-0.105l-0.47,0.105l-0.471-0.105l-0.448,0.105V40.66L35.744,40.543z
		 M26.81,40.824l0.446,0.119h0.061l0.411-0.119h0.024l0.447,0.119v0.094l-0.013,0.012l-0.423-0.107l-0.471,0.107h-0.012l-0.46-0.107
		c-0.069,0-0.22,0.035-0.446,0.107v-0.012l-0.024-0.025v-0.07L26.81,40.824z M35.332,40.953l0.412-0.105l0.471,0.105h0.059
		l0.412-0.105l0.4,0.105h0.035v0.117h-0.035l-0.318-0.092H36.58l-0.283,0.092h-0.154l-0.411-0.117l-0.412,0.117h-0.023v-0.117
		H35.332z"/>
	<path id="php" display="none" d="M31.638,33.551c0.994-0.021,1.906-0.045,2.143,0.717c0,0.135,0,0.271,0,0.406
		c-0.01,0.125-0.02,0.25-0.03,0.373c-0.076,0.246-0.109,0.57-0.185,0.813c0,0.053,0,0.105,0,0.156
		c-0.074,0.242-0.109,0.568-0.184,0.813c-0.035,0.113,0.009,0.205-0.061,0.279c-0.056,0.051-0.204,0.031-0.307,0.031
		c-0.276,0-0.551,0-0.826,0c-0.05-0.098-0.058-0.057-0.061-0.219c0.066-0.078,0.025-0.199,0.061-0.313c0.01,0,0.02,0,0.029,0
		c0-0.053,0-0.104,0-0.156c0.011,0,0.021,0,0.032,0c0-0.063,0-0.123,0-0.186c0.009,0,0.02,0,0.029,0c0-0.053,0-0.105,0-0.156
		c0.011,0,0.021,0,0.03,0c0-0.053,0-0.104,0-0.156c0.011,0,0.021,0,0.031,0c0-0.053,0-0.104,0-0.156c0.01,0,0.021,0,0.029,0
		c0-0.053,0-0.104,0-0.156c0.092-0.297,0.148-0.611,0.154-0.998c-0.03-0.01-0.061-0.021-0.092-0.031
		c-0.109-0.111-0.771-0.064-1.01-0.063c-0.153,0.842-0.307,1.686-0.459,2.527c-0.249,0.131-0.811,0.064-1.163,0.063
		c-0.043-0.082-0.056-0.053-0.062-0.188c0.009,0,0.02,0,0.03,0c0-0.051,0-0.104,0-0.156c0.061-0.191,0.082-0.463,0.152-0.654
		c-0.02,0-0.041,0-0.062,0c-0.017,0.07-0.024,0.078-0.06,0.125c-0.01,0-0.021,0-0.031,0c0,0.021,0,0.041,0,0.063
		c-0.021,0.01-0.04,0.021-0.061,0.031c0,0.01,0,0.021,0,0.029c-0.021,0.012-0.041,0.023-0.062,0.031c0,0.021,0,0.043,0,0.064
		c-0.01,0-0.02,0-0.03,0c-0.031,0.041-0.062,0.082-0.091,0.123c-0.021,0-0.042,0-0.062,0c-0.042,0.053-0.082,0.104-0.123,0.156
		c-0.021,0-0.04,0-0.062,0c-0.009,0.021-0.021,0.041-0.029,0.063c-0.021,0-0.041,0-0.062,0c-0.01,0.021-0.021,0.041-0.03,0.063
		c-0.021,0-0.041,0-0.063,0c0,0.01,0,0.021,0,0.031c-0.04,0.01-0.081,0.021-0.121,0.031c0,0.012,0,0.021,0,0.031
		c-0.455,0.203-1.188,0.158-1.837,0.156c-0.072,0.385-0.144,0.77-0.216,1.154c-0.247,0.131-0.809,0.064-1.162,0.063
		c-0.052-0.098-0.059-0.057-0.063-0.219c0.067-0.08,0.026-0.199,0.062-0.313c0.075-0.242,0.109-0.568,0.184-0.811
		c0-0.053,0-0.105,0-0.158c0.091-0.291,0.125-0.672,0.215-0.965c0-0.053,0-0.104,0-0.156c0.01,0,0.021,0,0.03,0
		c0-0.053,0-0.105,0-0.156c0.01,0,0.021,0,0.031,0c0-0.053,0-0.105,0-0.156c0.01,0,0.02,0,0.03,0c0-0.053,0-0.104,0-0.156
		c0.01,0,0.021,0,0.03,0c0.01-0.113,0.02-0.229,0.03-0.344c0.124-0.404,0.192-0.908,0.275-1.342
		c0.178-0.066,0.504-0.031,0.735-0.031c0.511,0,1.02,0,1.531,0c0,0.012,0,0.021,0,0.031c0.07,0,0.143,0,0.214,0
		c0,0.012,0,0.021,0,0.031c0.041,0,0.081,0,0.123,0c0,0.012,0,0.021,0,0.031c0.04,0,0.08,0,0.122,0c0.426,0.172,0.766,0.484,0.857,1
		c0.01,0,0.02,0,0.03,0c0.143-0.75,0.286-1.498,0.43-2.248c0.239-0.128,0.785-0.064,1.132-0.063
		c0.043,0.083,0.063,0.132,0.062,0.281c-0.067,0.078-0.026,0.195-0.062,0.313C31.707,33.104,31.648,33.334,31.638,33.551z
		 M34.729,37.139c-0.07,0.387-0.143,0.771-0.214,1.156c-0.247,0.131-0.809,0.064-1.163,0.061c-0.051-0.096-0.058-0.055-0.061-0.217
		c0.065-0.08,0.024-0.199,0.061-0.313c0.058-0.186,0.098-0.439,0.153-0.625c0.01-0.113,0.021-0.229,0.03-0.342
		c0.073-0.236,0.113-0.545,0.184-0.781c0.01-0.113,0.021-0.229,0.031-0.342c0.057-0.188,0.097-0.439,0.153-0.625
		c0-0.063,0-0.125,0-0.188c0.123-0.41,0.19-0.902,0.274-1.342c0.18-0.066,0.504-0.031,0.735-0.031c0.51,0,1.021,0,1.531,0
		c0.183,0.041,0.367,0.084,0.551,0.125c0,0.01,0,0.021,0,0.031c0.041,0.01,0.081,0.021,0.123,0.031c0,0.01,0,0.021,0,0.031
		c0.021,0,0.041,0,0.061,0c0.01,0.021,0.02,0.041,0.03,0.063c0.021,0,0.041,0,0.062,0c0.02,0.031,0.04,0.063,0.062,0.094
		c0.02,0,0.04,0,0.061,0c0,0.01,0,0.02,0,0.031c0.03,0.02,0.062,0.041,0.092,0.063c0,0.02,0,0.041,0,0.063
		c0.029,0.02,0.062,0.041,0.091,0.063c0,0.02,0,0.041,0,0.063c0.021,0.01,0.042,0.02,0.061,0.031
		c0.193,0.313,0.182,0.939,0.062,1.311c-0.01,0.074-0.021,0.146-0.029,0.219c-0.011,0-0.021,0-0.032,0c0,0.021,0,0.041,0,0.063
		c-0.01,0-0.019,0-0.029,0c-0.031,0.094-0.061,0.188-0.093,0.281c-0.02,0.01-0.041,0.021-0.06,0.029c0,0.021,0,0.043,0,0.064
		c-0.021,0.01-0.041,0.02-0.062,0.031c0,0.02,0,0.041,0,0.061c-0.052,0.043-0.103,0.084-0.153,0.125c0,0.021,0,0.041,0,0.063
		c-0.041,0.031-0.081,0.063-0.124,0.094c0,0.01,0,0.02,0,0.031c-0.02,0-0.04,0-0.06,0c-0.041,0.053-0.082,0.104-0.123,0.156
		c-0.021,0-0.04,0-0.061,0c-0.01,0.02-0.021,0.041-0.03,0.063c-0.031,0.01-0.062,0.02-0.092,0.031c0,0.01,0,0.02,0,0.031
		c-0.021,0-0.041,0-0.062,0c0,0.01,0,0.02,0,0.031c-0.041,0.01-0.082,0.02-0.121,0.031c0,0.01,0,0.021,0,0.029
		c-0.093,0.021-0.186,0.043-0.275,0.064c0,0.01,0,0.02,0,0.031c-0.053,0-0.104,0-0.154,0C35.772,37.188,35.189,37.143,34.729,37.139
		z M27.32,36.172c0.312,0.006,0.662,0.014,0.888-0.063c0.04,0,0.082,0,0.123,0c0.428-0.176,0.669-0.74,0.551-1.373
		c-0.072-0.053-0.143-0.104-0.214-0.156c-0.032,0-0.062,0-0.094,0c0-0.01,0-0.02,0-0.031c-0.305-0.01-0.612-0.02-0.917-0.031
		c-0.025,0.035,0.004,0.004-0.03,0.031C27.523,35.09,27.423,35.631,27.32,36.172z M35.22,34.518
		c-0.104,0.553-0.205,1.104-0.307,1.654c0.426,0.008,0.942,0.018,1.194-0.156c0.041-0.051,0.081-0.104,0.123-0.154
		c0.02-0.012,0.041-0.021,0.06-0.033c0-0.02,0-0.041,0-0.061c0.021-0.012,0.041-0.021,0.062-0.031c0-0.021,0-0.041,0-0.064
		c0.01,0,0.021,0,0.031,0c0-0.029,0-0.061,0-0.092c0.009,0,0.02,0,0.029,0c0-0.021,0-0.041,0-0.063c0.011,0,0.021,0,0.032,0
		c0-0.041,0-0.084,0-0.125c0.027-0.09,0.116-0.402,0.06-0.561c-0.009,0-0.02,0-0.03,0c-0.01-0.043-0.021-0.084-0.029-0.125
		c-0.059-0.031-0.127-0.102-0.185-0.125c-0.041,0-0.082,0-0.123,0C35.895,34.5,35.533,34.518,35.22,34.518z"/>
	<path id="smashing" display="none" d="M28.063,40.211l0.944-2.037c0.792,0.607,1.687,0.91,2.682,0.91
		c1.033,0,1.547-0.354,1.549-1.064c0-0.418-0.157-0.76-0.466-1.023c-0.312-0.27-0.915-0.582-1.815-0.943
		c-0.534-0.215-0.992-0.455-1.382-0.717c-1.032-0.695-1.551-1.557-1.551-2.584c0-0.682,0.192-1.254,0.579-1.718
		c0.067-0.081,0.142-0.16,0.222-0.235l-2.203,0.491c-0.642,0.144-1.04,0.761-0.893,1.38l1.823,7.625
		c0.148,0.619,0.786,1.006,1.427,0.863l0.904-0.201l-0.07-0.018C29.359,40.822,28.777,40.582,28.063,40.211z M37.755,38.02
		l-1.823-7.625c-0.15-0.618-0.787-1.004-1.426-0.861l-1.329,0.295c0.152,0.023,0.304,0.05,0.453,0.084
		c0.592,0.126,1.163,0.323,1.715,0.596l-0.765,1.989c-0.577-0.479-1.385-0.718-2.415-0.718c-0.925,0-1.389,0.355-1.389,1.067
		c0,0.279,0.154,0.531,0.456,0.758c0.305,0.225,0.954,0.529,1.948,0.912c0.681,0.256,1.228,0.551,1.647,0.885
		c0.195,0.154,0.367,0.316,0.505,0.488c0.438,0.539,0.658,1.191,0.658,1.957c0,0.746-0.212,1.375-0.633,1.891l1.504-0.338
		C37.505,39.258,37.903,38.639,37.755,38.02z"/>
	<g id="DSIC">
		<polygon fill="none" points="22.229,26.77 24.31,26.77 24.31,24.69 20.149,24.69 20.149,35.09 24.31,35.09 24.31,33.01 
			22.229,33.01 		"/>
		<polygon fill="none" points="33.372,30.929 37.531,30.929 37.531,33.01 33.372,33.01 33.372,35.09 39.611,35.09 39.611,28.85 
			35.452,28.85 35.452,26.77 39.611,26.77 39.611,24.69 33.372,24.69 		"/>
		<rect x="24.31" y="26.77" fill="none" width="2.08" height="6.24"/>
		<path fill="none" d="M3.735,35.131l7.287-7.288c0.448,0.032,0.906-0.122,1.248-0.464c0.625-0.625,0.625-1.637,0-2.261
			s-1.637-0.624-2.26,0c-0.342,0.341-0.497,0.799-0.464,1.248l-7.289,7.288c-0.409,0.41-0.41,1.072-0.002,1.48
			C2.664,35.541,3.326,35.539,3.735,35.131z"/>
		<path fill="none" d="M11.207,29.652H11.19c-0.58,0.001-1.048,0.47-1.048,1.048l0.003,2.955c0,0.578,0.469,1.047,1.048,1.047h0.017
			c0.58-0.002,1.048-0.471,1.048-1.049l-0.002-2.955C12.256,30.119,11.786,29.651,11.207,29.652z"/>
		<path fill="none" d="M3.681,27.038h2.956c0.578,0,1.046-0.469,1.045-1.047v-0.016c0-0.578-0.469-1.047-1.047-1.047H3.679
			c-0.577,0-1.046,0.469-1.046,1.047v0.016C2.634,26.569,3.103,27.038,3.681,27.038z"/>
		<polygon fill="none" points="55.678,35.09 61.919,35.09 61.919,30.929 59.839,30.929 59.839,33.01 57.759,33.01 57.759,26.77 
			59.839,26.77 59.839,28.85 61.919,28.85 61.919,24.69 55.678,24.69 		"/>
		<rect x="46.854" y="24.69" fill="none" width="2.08" height="10.4"/>
		<rect x="22.229" y="26.77" width="2.081" height="6.24"/>
		<path d="M26.39,35.09h2.081v-10.4H26.39v-2.08h-8.32v14.56h8.32V35.09z M24.31,35.09h-4.16v-10.4h4.16v2.08h2.079v6.24H24.31
			V35.09L24.31,35.09z"/>
		<path d="M41.692,22.61H31.291v14.56h10.401V22.61z M39.611,26.77h-4.159v2.08h4.159v6.24h-6.239v-2.08h4.159v-2.081h-4.159V24.69
			h6.239V26.77z"/>
		<path d="M44.773,37.17h6.241V22.61h-6.241V37.17z M46.854,24.69h2.08v10.4h-2.08V24.69z"/>
		<path d="M53.598,22.61v14.56H64V22.61H53.598z M61.919,28.85h-2.08v-2.08h-2.08v6.24h2.08v-2.081h2.08v4.161h-6.241v-10.4h6.241
			V28.85z"/>
		<path d="M14.816,37.32c0.154,0,0.278-0.121,0.278-0.27V22.98c0-0.148-0.124-0.27-0.278-0.27H0.278C0.125,22.711,0,22.833,0,22.98
			v14.07c0,0.148,0.125,0.27,0.278,0.27H14.816z M11.21,34.701h-0.017c-0.579,0-1.048-0.469-1.048-1.047L10.143,30.7
			c0-0.578,0.468-1.047,1.048-1.048h0.017c0.579-0.001,1.049,0.468,1.049,1.046l0.002,2.955C12.258,34.23,11.79,34.699,11.21,34.701
			z M2.634,25.975c-0.001-0.578,0.468-1.047,1.045-1.047h2.955c0.578,0,1.047,0.469,1.047,1.047v0.016
			c0.001,0.578-0.467,1.047-1.045,1.047H3.681c-0.577,0-1.047-0.469-1.047-1.047V25.975z M2.258,33.654l7.289-7.288
			c-0.033-0.449,0.122-0.907,0.464-1.248c0.623-0.624,1.635-0.624,2.26,0c0.625,0.624,0.625,1.636,0,2.261
			c-0.342,0.342-0.8,0.496-1.248,0.464l-7.287,7.288c-0.409,0.408-1.071,0.41-1.479,0.004C1.849,34.727,1.849,34.064,2.258,33.654z"
			/>
	</g>
</g>
</svg>
