<?xml version="1.0" encoding="utf-8"?>
<!-- Generator: Adobe Illustrator 14.0.0, SVG Export Plug-In . SVG Version: 6.00 Build 43363)  -->
<!DOCTYPE svg PUBLIC "-//W3C//DTD SVG 1.1//EN" "http://www.w3.org/Graphics/SVG/1.1/DTD/svg11.dtd">
<svg version="1.1" id="Capa_1" xmlns="http://www.w3.org/2000/svg" xmlns:xlink="http://www.w3.org/1999/xlink" x="0px" y="0px"
	 width="64px" height="64px" viewBox="0 0 64 64" enable-background="new 0 0 64 64" xml:space="preserve">
<g>
	<path fill-rule="evenodd" clip-rule="evenodd" d="M62.665,32.017h-9.649v9.658c0,0.737-0.598,1.335-1.333,1.335h-2.748
		c-0.739,0-1.337-0.598-1.337-1.335v-9.658h-9.649c-0.735,0-1.336-0.597-1.336-1.335v-2.75c0-0.736,0.601-1.337,1.336-1.337h9.649
		v-9.656c0-0.737,0.598-1.335,1.337-1.335h2.748c0.735,0,1.333,0.598,1.333,1.335v9.656h9.649c0.734,0,1.335,0.601,1.335,1.337v2.75
		C64,31.42,63.399,32.017,62.665,32.017z M33.741,8.406c-0.227,0.165-0.502,0.252-0.783,0.252h-1.36
		c1.755,2.105,2.786,5.103,2.786,8.478c0,3.721-1.885,7.243-5.306,9.923c-2.644,2.061-2.75,2.626-2.75,3.806
		c0.034,0.648,1.879,2.757,3.908,4.194c4.735,3.352,6.497,6.639,6.497,12.129c0,5.723-4.35,10.68-11.078,12.634
		c-2.159,0.625-4.492,0.942-6.94,0.942c-2.726,0-5.35-0.315-7.792-0.934c-4.73-1.194-8.232-3.459-9.861-6.376
		C0.358,52.192,0,50.848,0,49.452c0-1.436,0.344-2.89,1.02-4.327c2.594-5.531,9.426-9.247,16.995-9.247c0.076,0,0.146,0,0.218-0.001
		c-0.616-1.082-0.916-2.201-0.916-3.384c0-0.587,0.078-1.187,0.233-1.794C9.61,30.516,3.67,24.7,3.67,17.027
		c0-5.416,4.326-10.689,10.513-12.825c1.853-0.638,3.74-0.966,5.597-0.966h16.976c0.58,0,1.091,0.375,1.27,0.925
		c0.181,0.552-0.016,1.155-0.487,1.493L33.741,8.406z M8.794,47.629c0,4.344,4.342,7.747,9.886,7.747
		c7.312,0,11.02-2.522,11.02-7.495c0-0.473-0.058-0.96-0.174-1.444c-0.492-1.935-2.261-3.141-4.938-4.966
		c-0.367-0.25-0.752-0.511-1.146-0.785c-1.158-0.354-2.386-0.54-3.643-0.554l-0.155-0.001C13.865,40.131,8.794,43.634,8.794,47.629z
		 M25.622,17.644c-0.66-5.032-4.251-9.216-8.003-9.326l-0.15-0.003c-1.329,0-2.512,0.545-3.415,1.578
		c-1.397,1.595-1.988,4.121-1.618,6.931c0.656,5.026,4.323,9.37,7.998,9.481h0.061c0.003,0,0.003,0,0.003,0
		c1.382,0,2.549-0.545,3.453-1.577C25.367,23.111,25.992,20.462,25.622,17.644z"/>
</g>
</svg>
