<?xml version="1.0" encoding="utf-8"?>
<!-- Generator: Adobe Illustrator 14.0.0, SVG Export Plug-In . SVG Version: 6.00 Build 43363)  -->
<!DOCTYPE svg PUBLIC "-//W3C//DTD SVG 1.1//EN" "http://www.w3.org/Graphics/SVG/1.1/DTD/svg11.dtd">
<svg version="1.1" id="Capa_1" xmlns="http://www.w3.org/2000/svg" xmlns:xlink="http://www.w3.org/1999/xlink" x="0px" y="0px"
	 width="64px" height="64px" viewBox="0 0 64 64" enable-background="new 0 0 64 64" xml:space="preserve">
<g id="ISPA">
	<path fill-rule="evenodd" clip-rule="evenodd" d="M61.563,21.78c-2.508-8.05-8.281-14.66-15.772-18.277v-2.57
		C54.568,4.805,61.317,12.433,64,21.78H61.563z M59.798,30.853c0,14.975-12.139,27.113-27.113,27.113
		c-14.974,0-27.113-12.139-27.113-27.113c0-14.974,12.139-27.113,27.113-27.113C47.659,3.739,59.798,15.878,59.798,30.853z
		 M19.045,24.702h-1.146v11.463h1.146V24.702z M22.836,26.019c0.293-0.281,0.672-0.421,1.135-0.421c0.357,0,0.689,0.091,0.992,0.273
		c0.305,0.182,0.672,0.558,1.104,1.13l0.935-0.709c-0.524-0.717-1.022-1.209-1.492-1.477s-0.976-0.401-1.516-0.401
		c-0.509,0-0.98,0.118-1.414,0.354c-0.435,0.237-0.771,0.56-1.009,0.97c-0.24,0.411-0.359,0.865-0.359,1.364
		c0,0.629,0.203,1.213,0.607,1.754c0.234,0.322,0.829,0.844,1.785,1.565c0.951,0.718,1.605,1.331,1.964,1.84
		c0.26,0.368,0.39,0.745,0.39,1.13c0,0.338-0.088,0.657-0.266,0.958c-0.176,0.302-0.434,0.542-0.771,0.721
		c-0.338,0.18-0.698,0.27-1.082,0.27c-0.899,0-1.691-0.632-2.377-1.894l-0.975,0.584c0.479,0.873,1,1.495,1.566,1.867
		c0.566,0.371,1.197,0.557,1.894,0.557c0.904,0,1.672-0.307,2.303-0.92c0.632-0.613,0.947-1.335,0.947-2.166
		c0-0.576-0.185-1.15-0.554-1.723c-0.369-0.571-1.049-1.224-2.041-1.956c-0.837-0.618-1.33-0.999-1.48-1.145
		c-0.276-0.276-0.466-0.53-0.569-0.765c-0.104-0.233-0.156-0.476-0.156-0.725C22.396,26.645,22.543,26.299,22.836,26.019z
		 M36.15,25.867c-0.416-0.501-0.951-0.833-1.605-0.994c-0.457-0.114-1.341-0.171-2.65-0.171h-2.283v11.463h1.146v-5.33h0.818
		c1.423,0,2.395-0.063,2.914-0.188c0.712-0.171,1.27-0.506,1.676-1.001c0.404-0.496,0.607-1.127,0.607-1.891
		C36.773,26.998,36.565,26.368,36.15,25.867z M42.152,24.702h-0.281l-5.416,11.463h1.278l1.785-3.772h4.938l1.804,3.772h1.237
		L42.152,24.702z M42.007,27.137l1.955,4.149h-3.919L42.007,27.137z M34.42,29.521c-0.363,0.143-0.938,0.214-1.723,0.214
		l-1.939-0.023v-3.888h2.025c0.774,0,1.332,0.067,1.672,0.202s0.614,0.362,0.822,0.681s0.312,0.67,0.312,1.053
		c0,0.395-0.104,0.751-0.312,1.069C35.069,29.148,34.783,29.379,34.42,29.521z M27.75,60.703v2.364C12.044,60.712,0,47.162,0,30.8
		c0-0.142,0.003-0.283,0.005-0.425H2.34c-0.002,0.142-0.005,0.283-0.005,0.425C2.335,45.87,13.339,58.368,27.75,60.703z"/>
</g>
</svg>
