<?xml version="1.0" encoding="utf-8"?>
<!-- Generator: Adobe Illustrator 14.0.0, SVG Export Plug-In . SVG Version: 6.00 Build 43363)  -->
<!DOCTYPE svg PUBLIC "-//W3C//DTD SVG 1.1//EN" "http://www.w3.org/Graphics/SVG/1.1/DTD/svg11.dtd">
<svg version="1.1" id="Capa_1" xmlns="http://www.w3.org/2000/svg" xmlns:xlink="http://www.w3.org/1999/xlink" x="0px" y="0px"
	 width="64px" height="64px" viewBox="0 0 64 64" enable-background="new 0 0 64 64" xml:space="preserve">
<g>
	<path fill-rule="evenodd" clip-rule="evenodd" d="M64,36.788v3.915H53.29V23.225H64v3.833h-6.065v3.032h5.72v3.748h-5.72v2.95H64z
		 M51.275,40.705h-9.338l9.908-9.907v9.338C51.846,40.45,51.59,40.705,51.275,40.705z M34.4,29.902v-6.071
		c0-0.315,0.255-0.57,0.57-0.57h16.305c0.314,0,0.57,0.255,0.57,0.57v0.016L40.095,35.598L34.4,29.902z M27.703,40.703l-4.012-6.84
		v6.84h-4.466V23.225h4.979c1.949,0,3.309,0.09,4.077,0.269s1.431,0.479,1.987,0.901c0.629,0.478,1.112,1.087,1.451,1.826
		c0.338,0.74,0.507,1.557,0.507,2.448c0,1.354-0.332,2.453-0.996,3.301c-0.665,0.849-1.634,1.412-2.907,1.69l4.763,7.043H27.703z
		 M26.873,27.445c-0.441-0.37-1.184-0.556-2.227-0.556h-0.955v4.598h0.884c1.026,0,1.776-0.176,2.25-0.526s0.711-0.898,0.711-1.647
		C27.536,28.438,27.314,27.814,26.873,27.445z M15.976,38.484c-0.892,0.859-1.911,1.522-3.057,1.987
		c-1.146,0.466-2.336,0.698-3.57,0.698c-1.25,0-2.446-0.232-3.588-0.698c-1.142-0.465-2.147-1.128-3.014-1.987
		c-0.9-0.868-1.583-1.855-2.049-2.962C0.233,34.416,0,33.241,0,32c0-1.249,0.233-2.426,0.698-3.528
		c0.466-1.103,1.149-2.087,2.049-2.955c0.867-0.859,1.872-1.522,3.014-1.988C6.903,23.063,8.1,22.83,9.349,22.83
		c1.242,0,2.438,0.233,3.588,0.698c1.15,0.466,2.163,1.129,3.039,1.988c0.875,0.859,1.545,1.843,2.011,2.949
		c0.465,1.106,0.699,2.285,0.699,3.534c0,1.258-0.231,2.436-0.692,3.535C17.532,36.633,16.859,37.616,15.976,38.484z M12.608,28.335
		c-0.876-0.979-1.962-1.469-3.259-1.469c-1.322,0-2.414,0.487-3.277,1.462C5.208,29.304,4.776,30.527,4.776,32
		c0,1.497,0.425,2.727,1.277,3.689c0.852,0.964,1.95,1.444,3.295,1.444c1.321,0,2.414-0.485,3.277-1.456
		c0.863-0.972,1.295-2.197,1.295-3.678C13.922,30.536,13.484,29.313,12.608,28.335z M34.971,40.705c-0.315,0-0.57-0.255-0.57-0.569
		v-3.282l3.853,3.852H34.971z"/>
</g>
</svg>
