<?xml version="1.0" encoding="utf-8"?>
<!-- Generator: Adobe Illustrator 14.0.0, SVG Export Plug-In . SVG Version: 6.00 Build 43363)  -->
<!DOCTYPE svg PUBLIC "-//W3C//DTD SVG 1.1//EN" "http://www.w3.org/Graphics/SVG/1.1/DTD/svg11.dtd">
<svg version="1.1" id="Capa_1" xmlns="http://www.w3.org/2000/svg" xmlns:xlink="http://www.w3.org/1999/xlink" x="0px" y="0px"
	 width="64px" height="64px" viewBox="0 0 64 64" enable-background="new 0 0 64 64" xml:space="preserve">
<g>
	<path fill-rule="evenodd" clip-rule="evenodd" d="M64,36.788v3.915H53.29V23.225H64v3.833h-6.065v3.032h5.72v3.748h-5.72v2.95H64z
		 M51.275,40.705h-9.338l9.908-9.907v9.338C51.846,40.45,51.59,40.705,51.275,40.705z M34.4,29.902v-6.071
		c0-0.315,0.255-0.57,0.57-0.57h16.305c0.314,0,0.57,0.255,0.57,0.57v0.016L40.095,35.598L34.4,29.902z M27.703,40.703l-4.012-6.84
		v6.84h-4.465V23.225h4.979c1.95,0,3.31,0.09,4.078,0.269s1.43,0.479,1.988,0.901c0.628,0.478,1.112,1.087,1.451,1.826
		c0.338,0.74,0.507,1.557,0.507,2.448c0,1.354-0.332,2.453-0.996,3.301c-0.665,0.849-1.634,1.412-2.908,1.69l4.763,7.043H27.703z
		 M26.873,27.445c-0.442-0.37-1.184-0.556-2.227-0.556h-0.956v4.598h0.884c1.026,0,1.776-0.176,2.25-0.526
		c0.474-0.351,0.711-0.898,0.711-1.647C27.536,28.438,27.315,27.814,26.873,27.445z M15.976,38.484
		c-0.892,0.859-1.911,1.522-3.057,1.987c-1.146,0.466-2.336,0.698-3.57,0.698c-1.25,0-2.446-0.232-3.588-0.698
		c-1.142-0.465-2.147-1.128-3.014-1.987c-0.9-0.868-1.583-1.855-2.049-2.962C0.233,34.416,0,33.241,0,32
		c0-1.249,0.233-2.426,0.698-3.528c0.466-1.103,1.149-2.087,2.049-2.955c0.867-0.859,1.872-1.522,3.014-1.988
		C6.903,23.063,8.1,22.83,9.349,22.83c1.242,0,2.438,0.233,3.588,0.698c1.15,0.466,2.163,1.129,3.039,1.988
		c0.875,0.859,1.545,1.843,2.011,2.949c0.465,1.106,0.699,2.285,0.699,3.534c0,1.258-0.231,2.436-0.692,3.535
		C17.532,36.633,16.859,37.616,15.976,38.484z M12.608,28.335c-0.876-0.979-1.962-1.469-3.259-1.469
		c-1.322,0-2.414,0.487-3.277,1.462C5.208,29.304,4.776,30.527,4.776,32c0,1.497,0.425,2.727,1.277,3.689
		c0.852,0.964,1.95,1.444,3.295,1.444c1.321,0,2.414-0.485,3.277-1.456c0.863-0.972,1.295-2.197,1.295-3.678
		C13.922,30.536,13.484,29.313,12.608,28.335z M34.971,40.705c-0.315,0-0.57-0.255-0.57-0.569v-3.282l3.853,3.852H34.971z"/>
	<g>
		<path fill-rule="evenodd" clip-rule="evenodd" d="M96.459,30.736c-0.323,0.324-0.736,0.486-1.241,0.486
			c-0.512,0-0.926-0.162-1.246-0.484s-0.481-0.707-0.481-1.152c0-0.437,0.16-0.82,0.479-1.147c0.317-0.328,0.733-0.492,1.249-0.492
			c0.513,0,0.93,0.164,1.246,0.493c0.318,0.329,0.478,0.71,0.478,1.146C96.941,30.028,96.78,30.412,96.459,30.736z M95.905,28.88
			c-0.174-0.179-0.402-0.268-0.688-0.268c-0.286,0-0.516,0.089-0.691,0.268c-0.175,0.178-0.263,0.414-0.263,0.706
			c0,0.291,0.088,0.526,0.263,0.705c0.176,0.18,0.405,0.269,0.691,0.269c0.285,0,0.514-0.089,0.688-0.269
			c0.174-0.179,0.262-0.414,0.262-0.705C96.167,29.294,96.079,29.059,95.905,28.88z M93.338,31.182h-0.824
			c-0.05-0.105-0.135-0.306-0.258-0.601c-0.121-0.296-0.225-0.485-0.313-0.569c-0.086-0.083-0.18-0.126-0.279-0.126h-0.216v1.296
			h-0.751v-3.193h1.346c0.294,0,0.529,0.09,0.712,0.269c0.185,0.179,0.275,0.396,0.275,0.65c0,0.352-0.174,0.612-0.518,0.781
			c0.151,0.073,0.294,0.269,0.431,0.589C93.078,30.597,93.21,30.899,93.338,31.182z M91.828,28.574h-0.381v0.727h0.397
			c0.127,0,0.227-0.032,0.3-0.095c0.074-0.063,0.111-0.153,0.111-0.27C92.256,28.694,92.113,28.574,91.828,28.574z M90.341,35.477
			c-0.305,0.283-0.735,0.422-1.297,0.422h-1.243v-3.191h1.328c0.514,0,0.919,0.148,1.218,0.447c0.298,0.297,0.447,0.682,0.447,1.154
			C90.794,34.805,90.644,35.193,90.341,35.477z M89.766,33.563c-0.17-0.18-0.414-0.27-0.734-0.27H88.55v2.021h0.49
			c0.319,0,0.562-0.092,0.729-0.277c0.169-0.186,0.254-0.43,0.254-0.732C90.022,33.99,89.937,33.744,89.766,33.563z M89.148,31.182
			h-0.751v-2.608h-1.092v-0.585h2.934v0.585h-1.091V31.182z M86.006,29.182c0.222,0.087,0.4,0.167,0.535,0.242
			c0.134,0.075,0.249,0.181,0.346,0.315c0.098,0.136,0.145,0.307,0.145,0.515c0,0.295-0.104,0.531-0.318,0.706
			c-0.211,0.176-0.49,0.263-0.837,0.263c-0.373,0-0.735-0.103-1.087-0.308v-0.688c0.202,0.143,0.38,0.248,0.535,0.313
			c0.154,0.066,0.32,0.098,0.493,0.098c0.295,0,0.442-0.098,0.442-0.295c0-0.066-0.029-0.129-0.087-0.189
			c-0.061-0.059-0.202-0.131-0.428-0.217c-0.225-0.085-0.403-0.164-0.536-0.238c-0.131-0.073-0.243-0.177-0.341-0.313
			c-0.095-0.136-0.142-0.309-0.142-0.521c0-0.274,0.104-0.495,0.313-0.665c0.208-0.168,0.487-0.252,0.837-0.252
			c0.321,0,0.662,0.082,1.021,0.247v0.624c-0.398-0.19-0.717-0.286-0.955-0.286c-0.137,0-0.243,0.024-0.322,0.072
			c-0.081,0.048-0.12,0.111-0.12,0.19c0,0.062,0.027,0.119,0.086,0.173C85.643,29.024,85.782,29.095,86.006,29.182z M85.079,25.833
			h-1.35l-0.225,0.63h-0.796l1.218-3.193h0.87l1.338,3.193h-0.806L85.079,25.833z M84.372,24.034l-0.443,1.24h0.931L84.372,24.034z
			 M80.721,28.896c-0.191,0.189-0.287,0.429-0.287,0.722c0,0.28,0.096,0.507,0.287,0.681c0.19,0.173,0.443,0.26,0.755,0.26
			c0.166,0,0.332-0.038,0.499-0.114v-0.373h-0.437v-0.585h1.188v1.305c-0.119,0.126-0.301,0.23-0.544,0.31
			c-0.243,0.08-0.486,0.12-0.724,0.12c-0.525,0-0.956-0.153-1.292-0.46c-0.338-0.308-0.507-0.698-0.507-1.171
			c0-0.485,0.169-0.88,0.507-1.185c0.336-0.305,0.771-0.458,1.309-0.458c0.443,0,0.839,0.087,1.189,0.263v0.697
			c-0.384-0.197-0.76-0.295-1.127-0.295C81.185,28.613,80.911,28.708,80.721,28.896z M80.059,24.418v2.045h-0.751V23.27h0.688
			l1.609,1.953V23.27h0.75v3.193h-0.634L80.059,24.418z M76.995,27.989h2.189v0.585h-1.44v0.67h1.374v0.585h-1.374v0.768h1.472
			v0.585h-2.221V27.989z M77.858,23.27h0.751v3.193h-0.751V23.27z M74.773,26.035c-0.317-0.313-0.476-0.698-0.476-1.157
			c0-0.458,0.166-0.849,0.501-1.168c0.335-0.32,0.771-0.48,1.311-0.48c0.43,0,0.793,0.094,1.091,0.281v0.71
			c-0.364-0.218-0.71-0.327-1.037-0.327c-0.32,0-0.582,0.091-0.786,0.273c-0.202,0.183-0.306,0.415-0.306,0.696
			c0,0.284,0.102,0.518,0.301,0.701c0.201,0.185,0.46,0.277,0.772,0.277c0.154,0,0.305-0.021,0.447-0.065
			c0.145-0.043,0.358-0.139,0.644-0.287v0.697c-0.378,0.211-0.771,0.317-1.184,0.317C75.516,26.505,75.091,26.348,74.773,26.035z
			 M76.054,28.257c0.182,0.179,0.273,0.395,0.273,0.65c0,0.352-0.172,0.612-0.517,0.781c0.15,0.073,0.294,0.269,0.43,0.589
			c0.137,0.319,0.269,0.622,0.395,0.904h-0.822c-0.049-0.105-0.136-0.306-0.257-0.601c-0.122-0.296-0.228-0.485-0.314-0.569
			c-0.087-0.083-0.18-0.126-0.279-0.126h-0.216v1.296h-0.75v-3.193h1.346C75.633,27.989,75.87,28.079,76.054,28.257z M74.746,28.574
			v0.727h0.397c0.126,0,0.226-0.032,0.301-0.095c0.073-0.063,0.111-0.153,0.111-0.27c0-0.242-0.144-0.362-0.43-0.362H74.746z
			 M72.982,23.271h0.749v3.193h-0.749V23.271z M73.402,33.625c0,0.352-0.173,0.611-0.518,0.779c0.151,0.074,0.294,0.27,0.432,0.59
			c0.136,0.322,0.267,0.623,0.394,0.904h-0.823c-0.049-0.104-0.135-0.305-0.256-0.6c-0.122-0.297-0.228-0.486-0.313-0.568
			c-0.089-0.084-0.18-0.127-0.281-0.127h-0.215v1.295H71.07v-3.191h1.347c0.291,0,0.528,0.09,0.711,0.27
			C73.312,33.154,73.402,33.371,73.402,33.625z M72.201,33.293h-0.38v0.725h0.396c0.126,0,0.228-0.029,0.301-0.094
			c0.075-0.063,0.112-0.154,0.112-0.27C72.631,33.412,72.487,33.293,72.201,33.293z M71.037,26.463h-0.749v-3.193h2.074v0.585
			h-1.325v0.713h1.325v0.585h-1.325V26.463z M72.164,28.574h-1.44v0.67h1.374v0.585h-1.374v0.768h1.471v0.585h-2.221v-3.193h2.19
			V28.574z M68.021,26.505c-0.51,0-0.927-0.162-1.246-0.484c-0.321-0.323-0.48-0.707-0.48-1.152c0-0.437,0.158-0.82,0.478-1.147
			c0.318-0.328,0.734-0.491,1.249-0.491c0.514,0,0.93,0.164,1.247,0.493c0.317,0.328,0.477,0.71,0.477,1.146
			c0,0.442-0.161,0.825-0.483,1.15S68.524,26.505,68.021,26.505z M68.709,24.162c-0.174-0.178-0.403-0.268-0.688-0.268
			c-0.287,0-0.517,0.089-0.69,0.268c-0.175,0.178-0.264,0.414-0.264,0.706c0,0.292,0.089,0.526,0.264,0.706
			c0.174,0.179,0.403,0.269,0.69,0.269c0.285,0,0.515-0.09,0.688-0.269c0.174-0.18,0.262-0.414,0.262-0.706
			C68.971,24.576,68.883,24.34,68.709,24.162z M67.662,31.182h-1.244v-3.193h1.328c0.515,0,0.92,0.149,1.219,0.447
			c0.298,0.297,0.448,0.682,0.448,1.155c0,0.495-0.152,0.884-0.455,1.167C68.655,31.041,68.224,31.182,67.662,31.182z
			 M68.385,28.845c-0.172-0.181-0.415-0.271-0.734-0.271h-0.482v2.023h0.491c0.317,0,0.56-0.093,0.729-0.278
			c0.167-0.185,0.252-0.429,0.252-0.732C68.64,29.273,68.554,29.026,68.385,28.845z M67.7,34.531l0.756-1.824h0.808l-1.393,3.234
			h-0.326l-1.46-3.234h0.818L67.7,34.531z M68.623,38.01h-1.441v0.67h1.373v0.586h-1.373v0.766h1.471v0.588h-2.222v-3.195h2.192
			V38.01z M69.626,32.707h0.75v3.191h-0.75V32.707z M71.528,39.377v-1.953h0.75v3.195h-0.634l-1.662-2.047v2.047h-0.753v-3.195
			h0.689L71.528,39.377z M75.676,38.01h-1.091v2.609h-0.752V38.01h-1.091v-0.586h2.934V38.01z M74.674,35.898v-2.605h-1.093v-0.586
			h2.934v0.586h-1.092v2.605H74.674z M76.909,40.619H76.16v-3.195h0.749V40.619z M77.697,34.541c0,0.225,0.068,0.402,0.206,0.537
			c0.137,0.133,0.317,0.199,0.539,0.199c0.232,0,0.418-0.068,0.557-0.205s0.207-0.332,0.207-0.584v-1.781h0.751v1.813
			c0,0.465-0.129,0.82-0.391,1.061c-0.26,0.24-0.632,0.361-1.115,0.361c-0.476,0-0.847-0.123-1.11-0.367
			c-0.265-0.244-0.396-0.594-0.396-1.051v-1.816h0.753V34.541z M80.146,37.873c0.298,0.297,0.446,0.682,0.446,1.154
			c0,0.494-0.149,0.885-0.453,1.166c-0.303,0.283-0.734,0.426-1.294,0.426H77.6v-3.195h1.329
			C79.442,37.424,79.849,37.574,80.146,37.873z M78.351,38.01v2.021h0.49c0.318,0,0.56-0.09,0.728-0.275
			c0.17-0.186,0.254-0.43,0.254-0.732c0-0.314-0.086-0.561-0.256-0.742c-0.172-0.18-0.415-0.271-0.734-0.271H78.351z M82.666,37.424
			l1.338,3.195h-0.808l-0.248-0.631H81.6l-0.226,0.631h-0.796l1.218-3.195H82.666z M82.729,39.43l-0.488-1.242l-0.442,1.242H82.729z
			 M84.61,35.314h1.547v0.584h-2.299v-3.191h0.752V35.314z M82.704,35.898l-0.248-0.631h-1.349l-0.226,0.631h-0.795l1.218-3.191
			h0.87l1.337,3.191H82.704z M81.749,33.471l-0.442,1.24h0.931L81.749,33.471z M84.157,31.182h-0.75v-3.193h0.75V31.182z
			 M86.893,37.873c0.299,0.297,0.448,0.682,0.448,1.154c0,0.494-0.15,0.885-0.454,1.166c-0.304,0.283-0.734,0.426-1.295,0.426
			h-1.244v-3.195h1.328C86.189,37.424,86.595,37.574,86.893,37.873z M85.098,38.01v2.021h0.489c0.318,0,0.561-0.09,0.729-0.275
			s0.252-0.43,0.252-0.732c0-0.314-0.084-0.561-0.256-0.742c-0.17-0.18-0.415-0.271-0.734-0.271H85.098z M90.093,38.01h-1.44v0.67
			h1.375v0.586h-1.375v0.766h1.471v0.588h-2.222v-3.195h2.191V38.01z M91.591,39.373c-0.227-0.086-0.402-0.166-0.536-0.236
			c-0.131-0.074-0.243-0.18-0.341-0.314c-0.095-0.137-0.142-0.311-0.142-0.521c0-0.275,0.104-0.496,0.313-0.664
			c0.209-0.17,0.487-0.252,0.837-0.252c0.321,0,0.661,0.082,1.021,0.246v0.623c-0.399-0.189-0.718-0.285-0.956-0.285
			c-0.136,0-0.242,0.023-0.322,0.072c-0.079,0.047-0.12,0.111-0.12,0.189c0,0.063,0.029,0.119,0.087,0.176
			c0.058,0.055,0.197,0.125,0.421,0.211c0.223,0.088,0.399,0.17,0.534,0.242c0.134,0.076,0.25,0.182,0.346,0.316
			c0.098,0.135,0.145,0.307,0.145,0.514c0,0.297-0.104,0.531-0.316,0.707s-0.491,0.262-0.838,0.262
			c-0.374,0-0.736-0.102-1.088-0.309v-0.688c0.202,0.145,0.381,0.248,0.536,0.314c0.154,0.064,0.319,0.098,0.493,0.098
			c0.295,0,0.442-0.098,0.442-0.295c0-0.068-0.029-0.131-0.088-0.189C91.958,39.529,91.816,39.459,91.591,39.373z M93.577,35.314
			v0.584h-2.222v-3.191h2.19v0.586h-1.44v0.668h1.374v0.586h-1.374v0.768H93.577z"/>
	</g>
</g>
</svg>
