<?xml version="1.0" encoding="utf-8"?>
<!-- Generator: Adobe Illustrator 14.0.0, SVG Export Plug-In . SVG Version: 6.00 Build 43363)  -->
<!DOCTYPE svg PUBLIC "-//W3C//DTD SVG 1.1//EN" "http://www.w3.org/Graphics/SVG/1.1/DTD/svg11.dtd">
<svg version="1.1" id="Capa_1" xmlns="http://www.w3.org/2000/svg" xmlns:xlink="http://www.w3.org/1999/xlink" x="0px" y="0px"
	 width="64px" height="64px" viewBox="0 0 64 64" enable-background="new 0 0 64 64" xml:space="preserve">
<path id="php" d="M31.444,22.498c5.271-0.116,10.098-0.235,11.347,3.8c0,0.716,0,1.432,0,2.147c-0.054,0.66-0.107,1.321-0.161,1.982
	c-0.399,1.296-0.58,3.01-0.973,4.296c0,0.275,0,0.55,0,0.826c-0.396,1.282-0.579,3.012-0.973,4.297
	c-0.185,0.6,0.05,1.087-0.323,1.488c-0.293,0.264-1.078,0.165-1.623,0.165c-1.458,0-2.917,0-4.375,0
	c-0.268-0.513-0.31-0.298-0.325-1.158c0.354-0.414,0.141-1.051,0.325-1.652c0.053,0,0.107,0,0.161,0c0-0.275,0-0.551,0-0.827
	c0.055,0,0.107,0,0.162,0c0-0.331,0-0.659,0-0.992c0.054,0,0.107,0,0.161,0c0-0.275,0-0.551,0-0.825c0.056,0,0.107,0,0.161,0
	c0-0.275,0-0.552,0-0.826c0.057,0,0.108,0,0.163,0c0-0.275,0-0.552,0-0.827c0.055,0,0.108,0,0.162,0c0-0.274,0-0.549,0-0.825
	c0.481-1.579,0.787-3.242,0.811-5.288c-0.162-0.055-0.323-0.11-0.487-0.165c-0.584-0.595-4.09-0.346-5.349-0.33
	c-0.811,4.46-1.622,8.922-2.431,13.382c-1.315,0.693-4.286,0.344-6.16,0.332c-0.224-0.434-0.286-0.282-0.325-0.993
	c0.055,0,0.109,0,0.163,0c0-0.275,0-0.55,0-0.827c0.323-1.021,0.431-2.452,0.811-3.47c-0.108,0-0.217,0-0.325,0
	c-0.096,0.368-0.135,0.416-0.323,0.66c-0.055,0-0.108,0-0.162,0c0,0.111,0,0.221,0,0.332c-0.108,0.055-0.216,0.108-0.325,0.164
	c0,0.056,0,0.109,0,0.165c-0.107,0.056-0.216,0.11-0.324,0.165c0,0.109,0,0.222,0,0.331c-0.054,0-0.107,0-0.162,0
	c-0.162,0.22-0.323,0.44-0.486,0.659c-0.108,0-0.217,0-0.325,0c-0.216,0.275-0.432,0.552-0.648,0.827c-0.108,0-0.216,0-0.324,0
	c-0.054,0.108-0.107,0.22-0.163,0.329c-0.107,0-0.215,0-0.323,0c-0.054,0.111-0.108,0.221-0.163,0.331c-0.106,0-0.216,0-0.323,0
	c0,0.054,0,0.109,0,0.165c-0.216,0.055-0.434,0.109-0.649,0.165c0,0.056,0,0.11,0,0.166c-2.408,1.076-6.288,0.83-9.724,0.826
	c-0.379,2.037-0.757,4.075-1.135,6.111c-1.313,0.695-4.285,0.343-6.159,0.331C0.058,47.425,0.016,47.639,0,46.779
	c0.352-0.42,0.139-1.045,0.324-1.652c0.396-1.28,0.579-3.012,0.972-4.294c0-0.275,0-0.552,0-0.827
	c0.478-1.546,0.658-3.568,1.136-5.122c0-0.275,0-0.55,0-0.825c0.054,0,0.107,0,0.162,0c0-0.275,0-0.552,0-0.826
	c0.054,0,0.107,0,0.162,0c0-0.275,0-0.551,0-0.826c0.054,0,0.106,0,0.162,0c0-0.275,0-0.55,0-0.826c0.054,0,0.107,0,0.161,0
	c0.055-0.606,0.109-1.211,0.162-1.819c0.66-2.147,1.019-4.809,1.46-7.103c0.945-0.353,2.669-0.166,3.89-0.166
	c2.702,0,5.404,0,8.106,0c0,0.054,0,0.109,0,0.166c0.378,0,0.756,0,1.134,0c0,0.055,0,0.11,0,0.165c0.217,0,0.433,0,0.649,0
	c0,0.055,0,0.11,0,0.166c0.215,0,0.433,0,0.649,0c2.257,0.907,4.055,2.564,4.538,5.287c0.055,0,0.108,0,0.162,0
	c0.757-3.964,1.513-7.932,2.27-11.896c1.28-0.675,4.161-0.342,5.997-0.33c0.229,0.44,0.33,0.698,0.324,1.488
	c-0.355,0.407-0.138,1.035-0.324,1.652C31.81,20.131,31.501,21.352,31.444,22.498z M47.814,41.5
	c-0.377,2.037-0.756,4.073-1.133,6.111c-1.313,0.694-4.286,0.343-6.159,0.331c-0.268-0.512-0.31-0.298-0.323-1.156
	c0.35-0.421,0.136-1.046,0.323-1.654c0.302-0.977,0.518-2.32,0.81-3.304c0.054-0.605,0.108-1.211,0.163-1.817
	c0.383-1.247,0.599-2.88,0.972-4.129c0.054-0.606,0.107-1.212,0.162-1.817c0.302-0.978,0.519-2.323,0.811-3.305
	c0-0.33,0-0.66,0-0.991c0.65-2.173,1.012-4.78,1.458-7.104c0.945-0.353,2.669-0.166,3.892-0.166c2.7,0,5.402,0,8.105,0
	c0.972,0.22,1.944,0.441,2.918,0.66c0,0.055,0,0.11,0,0.166c0.215,0.055,0.432,0.11,0.647,0.166c0,0.055,0,0.109,0,0.166
	c0.108,0,0.217,0,0.323,0c0.056,0.11,0.107,0.219,0.163,0.33c0.107,0,0.216,0,0.323,0c0.107,0.166,0.217,0.33,0.323,0.496
	c0.107,0,0.217,0,0.324,0c0,0.054,0,0.109,0,0.165c0.162,0.111,0.325,0.22,0.487,0.33c0,0.11,0,0.221,0,0.331
	c0.161,0.11,0.323,0.22,0.484,0.33c0,0.11,0,0.221,0,0.33c0.109,0.055,0.218,0.11,0.323,0.165c1.021,1.653,0.962,4.968,0.326,6.939
	c-0.054,0.386-0.107,0.772-0.163,1.157c-0.054,0-0.107,0-0.163,0c0,0.111,0,0.221,0,0.331c-0.053,0-0.105,0-0.16,0
	c-0.163,0.494-0.323,0.991-0.486,1.486c-0.107,0.057-0.216,0.11-0.323,0.165c0,0.11,0,0.22,0,0.331
	c-0.108,0.054-0.217,0.109-0.325,0.165c0,0.109,0,0.22,0,0.331c-0.271,0.221-0.54,0.44-0.81,0.659c0,0.109,0,0.222,0,0.331
	c-0.217,0.165-0.433,0.33-0.649,0.495c0,0.057,0,0.108,0,0.165c-0.107,0-0.216,0-0.323,0c-0.216,0.274-0.433,0.551-0.648,0.826
	c-0.107,0-0.218,0-0.326,0c-0.051,0.109-0.105,0.22-0.16,0.329c-0.162,0.056-0.323,0.111-0.486,0.165c0,0.056,0,0.11,0,0.166
	c-0.108,0-0.218,0-0.323,0c0,0.054,0,0.109,0,0.165c-0.217,0.056-0.435,0.109-0.649,0.165c0,0.056,0,0.111,0,0.166
	c-0.486,0.109-0.974,0.22-1.459,0.33c0,0.055,0,0.107,0,0.164c-0.271,0-0.541,0-0.811,0C53.341,41.758,50.257,41.519,47.814,41.5z
	 M8.589,36.376c1.647,0.025,3.503,0.073,4.702-0.329c0.215,0,0.432,0,0.648,0c2.269-0.931,3.542-3.919,2.918-7.27
	c-0.378-0.275-0.757-0.551-1.135-0.826c-0.162,0-0.324,0-0.486,0c0-0.055,0-0.11,0-0.165c-1.622-0.055-3.242-0.11-4.864-0.166
	c-0.136,0.188,0.021,0.024-0.161,0.166C9.67,30.648,9.129,33.511,8.589,36.376z M50.41,27.62c-0.541,2.918-1.08,5.84-1.621,8.756
	c2.259,0.037,4.99,0.088,6.321-0.826c0.216-0.274,0.433-0.55,0.649-0.826c0.106-0.056,0.216-0.111,0.324-0.165
	c0-0.11,0-0.221,0-0.331c0.108-0.056,0.215-0.11,0.322-0.165c0-0.109,0-0.22,0-0.33c0.055,0,0.108,0,0.163,0c0-0.165,0-0.33,0-0.495
	c0.054,0,0.107,0,0.161,0c0-0.109,0-0.221,0-0.329c0.055,0,0.108,0,0.163,0c0-0.222,0-0.442,0-0.662
	c0.151-0.48,0.618-2.132,0.322-2.974c-0.054,0-0.108,0-0.16,0c-0.056-0.222-0.107-0.441-0.162-0.662
	c-0.306-0.167-0.666-0.536-0.973-0.661c-0.217,0-0.434,0-0.648,0C53.987,27.527,52.074,27.623,50.41,27.62z"/>
</svg>
