<?xml version="1.0" encoding="utf-8"?>
<!-- Generator: Adobe Illustrator 14.0.0, SVG Export Plug-In . SVG Version: 6.00 Build 43363)  -->
<!DOCTYPE svg PUBLIC "-//W3C//DTD SVG 1.1//EN" "http://www.w3.org/Graphics/SVG/1.1/DTD/svg11.dtd">
<svg version="1.1" id="Capa_1" xmlns="http://www.w3.org/2000/svg" xmlns:xlink="http://www.w3.org/1999/xlink" x="0px" y="0px"
	 width="64px" height="64px" viewBox="0 0 64 64" enable-background="new 0 0 64 64" xml:space="preserve">
<path id="space_invaders" fill-rule="evenodd" clip-rule="evenodd" d="M58.075,50.411V38.885h-5.641v11.564h-5.887v5.724H32.887
	v-5.762l13.661-0.002v-5.763H17.492v5.763l11.687,0.04v5.766H17.451v-5.724h-5.885V38.843H5.924V50.37H0V32.918h5.804v-5.602h5.763
	v-5.925h5.844l0.082,0.001v-5.804h5.803v5.82l17.41,0.048v-5.869h5.804v5.885h5.926v5.763h5.722v5.763H64v17.412H58.075z
	 M23.295,27.196h-5.803v5.803h5.803V27.196z M46.509,27.196h-5.804v5.803h5.804V27.196z M11.566,9.785h5.926v5.803h-5.926V9.785z
	 M52.435,9.785v5.803h-5.926V9.785H52.435z"/>
</svg>
