<?xml version="1.0" encoding="utf-8"?>
<!-- Generator: Adobe Illustrator 14.0.0, SVG Export Plug-In . SVG Version: 6.00 Build 43363)  -->
<!DOCTYPE svg PUBLIC "-//W3C//DTD SVG 1.1//EN" "http://www.w3.org/Graphics/SVG/1.1/DTD/svg11.dtd">
<svg version="1.1" id="Capa_1" xmlns="http://www.w3.org/2000/svg" xmlns:xlink="http://www.w3.org/1999/xlink" x="0px" y="0px"
	 width="64px" height="64px" viewBox="0 0 64 64" enable-background="new 0 0 64 64" xml:space="preserve">
<g>
	<path fill-rule="evenodd" clip-rule="evenodd" d="M40.094,6.125c-5.781,2.106-9.434,7.532-9.019,13.474l0.139,2.292l-2.312-0.28
		c-8.415-1.076-15.77-4.726-22.012-10.854L3.839,7.716L3.053,9.961C1.388,14.968,2.451,20.254,5.919,23.81
		c1.851,1.964,1.435,2.244-1.757,1.076c-1.109-0.375-2.081-0.655-2.173-0.516c-0.324,0.329,0.786,4.585,1.664,6.269
		c1.202,2.339,3.653,4.631,6.336,5.988l2.266,1.077l-2.683,0.046c-2.589,0-2.682,0.047-2.404,1.029
		c0.925,3.041,4.578,6.27,8.647,7.672l2.867,0.983l-2.497,1.497c-3.699,2.151-8.046,3.368-12.394,3.462
		C1.711,52.44,0,52.629,0,52.769c0,0.468,5.642,3.087,8.926,4.117c9.849,3.041,21.549,1.73,30.337-3.462
		c6.241-3.696,12.485-11.042,15.398-18.153c1.571-3.789,3.144-10.713,3.144-14.035c0-2.151,0.139-2.432,2.729-5.005
		c1.525-1.498,2.958-3.135,3.236-3.603c0.462-0.889,0.416-0.889-1.942-0.094c-3.93,1.403-4.484,1.217-2.543-0.889
		c1.433-1.497,3.145-4.21,3.145-5.005c0-0.141-0.693,0.094-1.48,0.515c-0.831,0.467-2.683,1.17-4.068,1.591l-2.497,0.795
		l-2.266-1.544c-1.25-0.842-3.006-1.778-3.932-2.059C45.828,5.283,42.221,5.376,40.094,6.125L40.094,6.125z"/>
</g>
</svg>
