<?xml version="1.0" encoding="utf-8"?>
<!-- Generator: Adobe Illustrator 14.0.0, SVG Export Plug-In . SVG Version: 6.00 Build 43363)  -->
<!DOCTYPE svg PUBLIC "-//W3C//DTD SVG 1.1//EN" "http://www.w3.org/Graphics/SVG/1.1/DTD/svg11.dtd">
<svg version="1.1" id="Capa_1" xmlns="http://www.w3.org/2000/svg" xmlns:xlink="http://www.w3.org/1999/xlink" x="0px" y="0px"
	 width="64px" height="64px" viewBox="0 0 64 64" enable-background="new 0 0 64 64" xml:space="preserve">
<g>
	<path fill-rule="evenodd" clip-rule="evenodd" d="M2.6,22.675c0,0,5.361-4.227,7.148-2.113c1.786,2.113,8.608,27.64,10.886,32.349
		c1.986,4.13,7.47,9.589,13.483,5.69c6.008-3.898,25.988-20.97,29.564-41.129C67.256-2.68,39.637,1.542,36.713,19.099
		c7.311-4.391,11.215,1.786,7.471,8.78c-3.734,6.987-7.146,11.545-8.934,11.545c-1.783,0-3.155-4.676-5.198-12.848
		c-2.114-8.45-2.101-23.67-10.885-21.944C10.886,6.259,0,19.265,0,19.265L2.6,22.675L2.6,22.675z"/>
</g>
</svg>
