<?xml version="1.0" encoding="utf-8"?>
<!-- Generator: Adobe Illustrator 14.0.0, SVG Export Plug-In . SVG Version: 6.00 Build 43363)  -->
<!DOCTYPE svg PUBLIC "-//W3C//DTD SVG 1.1//EN" "http://www.w3.org/Graphics/SVG/1.1/DTD/svg11.dtd">
<svg version="1.1" id="Capa_1" xmlns="http://www.w3.org/2000/svg" xmlns:xlink="http://www.w3.org/1999/xlink" x="0px" y="0px"
	 width="64px" height="64px" viewBox="0 0 64 64" enable-background="new 0 0 64 64" xml:space="preserve">
<g>
	<path fill-rule="evenodd" clip-rule="evenodd" d="M20.56,42.305V21.695H64v20.609H20.56z M56.608,39.128
		c0.363,0.534,0.897,0.802,1.605,0.802c0.71,0,1.244-0.268,1.605-0.802c0.361-0.536,0.543-1.324,0.543-2.367
		c0-1.047-0.183-1.837-0.543-2.372c-0.362-0.535-0.896-0.803-1.605-0.803c-0.708,0-1.243,0.268-1.605,0.803
		c-0.36,0.535-0.54,1.325-0.54,2.372C56.068,37.804,56.248,38.594,56.608,39.128z M53.319,39.813h1.363V38.31h-1.363V39.813z
		 M47.745,39.813h3.88v-1.065H49.05c0.208-0.211,0.487-0.492,0.84-0.843c0.649-0.65,1.046-1.068,1.19-1.255
		c0.196-0.257,0.335-0.49,0.414-0.701c0.082-0.209,0.123-0.435,0.123-0.675c0-0.521-0.186-0.933-0.557-1.232
		c-0.369-0.303-0.876-0.455-1.523-0.455c-0.257,0-0.524,0.029-0.807,0.086c-0.277,0.055-0.563,0.135-0.854,0.242v1.125
		c0.292-0.164,0.571-0.287,0.839-0.372c0.271-0.087,0.513-0.131,0.729-0.131c0.303,0,0.536,0.076,0.699,0.225
		c0.167,0.148,0.25,0.358,0.25,0.632c0,0.179-0.046,0.358-0.136,0.541c-0.089,0.181-0.238,0.387-0.442,0.622
		c-0.166,0.191-0.639,0.7-1.417,1.527l-0.653,0.696V39.813z M29.613,39.116c0.435,0.543,1.063,0.814,1.887,0.814
		c0.231,0,0.452-0.025,0.663-0.074c0.211-0.048,0.411-0.122,0.601-0.221v-1.344c-0.206,0.19-0.407,0.332-0.604,0.421
		c-0.194,0.088-0.395,0.132-0.602,0.132c-0.442,0-0.777-0.175-1.003-0.523c-0.225-0.354-0.336-0.874-0.336-1.561
		c0-0.69,0.111-1.211,0.336-1.562c0.226-0.352,0.561-0.527,1.003-0.527c0.207,0,0.407,0.045,0.602,0.135
		c0.197,0.088,0.398,0.227,0.604,0.418v-1.343c-0.184-0.099-0.383-0.173-0.597-0.222c-0.213-0.05-0.436-0.074-0.667-0.074
		c-0.824,0-1.452,0.271-1.887,0.815c-0.434,0.543-0.651,1.329-0.651,2.359C28.962,37.787,29.18,38.571,29.613,39.116z
		 M24.047,39.813h1.117l0.651-3.212l0.695,3.212h1.126l0.704-6.115h-1.064l-0.344,4.489l-0.614-2.904h-1.003l-0.528,2.904
		l-0.438-4.489h-1.057L24.047,39.813z M32.849,24.442l-0.373,4.852l-0.663-3.139h-1.084l-0.57,3.139l-0.474-4.852h-1.142
		l0.814,6.609h1.207l0.703-3.471l0.753,3.471h1.217l0.761-6.609H32.849z M37.705,24.442h-1.597l-1.784,6.609h1.306l0.398-1.634
		h1.748l0.407,1.634h1.304L37.705,24.442z M33.523,39.812h1.207l0.368-1.512h1.617l0.377,1.512H38.3l-1.65-6.114h-1.478
		L33.523,39.812z M44.51,29.9h-1.314v-4.308h1.314v-1.15h-3.934v1.15h1.313V29.9h-1.313v1.151h3.934V29.9z M48.034,27.798h-2.792
		v1.288h2.792V27.798z M43.061,36.522h-1.884v1.016h0.826v1.168c-0.057,0.047-0.132,0.082-0.222,0.105
		c-0.093,0.022-0.202,0.032-0.327,0.032c-0.418,0-0.735-0.177-0.955-0.531c-0.218-0.355-0.327-0.874-0.327-1.553
		c0-0.702,0.112-1.226,0.34-1.569c0.228-0.348,0.569-0.52,1.028-0.52c0.262,0,0.501,0.057,0.72,0.168
		c0.221,0.108,0.416,0.273,0.585,0.492V33.99c-0.208-0.13-0.431-0.23-0.668-0.299c-0.236-0.07-0.479-0.106-0.724-0.106
		c-0.822,0-1.451,0.271-1.889,0.815c-0.433,0.542-0.649,1.33-0.649,2.359c0,1.013,0.215,1.795,0.646,2.347
		c0.431,0.55,1.042,0.823,1.833,0.823c0.319,0,0.618-0.05,0.896-0.15c0.281-0.104,0.537-0.255,0.77-0.455V36.522z M52.893,24.442
		h-1.597l-1.782,6.609h1.305l0.397-1.634h1.747l0.408,1.634h1.305L52.893,24.442z M58.348,24.442h-1.597l-1.784,6.609h1.305
		l0.398-1.634h1.748l0.408,1.634h1.304L58.348,24.442z M57.546,25.637l0.619,2.705h-1.234L57.546,25.637z M52.092,25.637
		l0.619,2.705h-1.234L52.092,25.637z M35.909,34.803l0.572,2.502H35.34L35.909,34.803z M36.904,25.637l0.619,2.705H36.29
		L36.904,25.637z M58.213,34.672c0.311,0,0.538,0.165,0.679,0.495c0.142,0.328,0.214,0.858,0.214,1.594
		c0,0.731-0.072,1.263-0.214,1.593c-0.141,0.327-0.368,0.491-0.679,0.491c-0.309,0-0.534-0.162-0.676-0.491
		c-0.142-0.33-0.212-0.861-0.212-1.593c0-0.735,0.07-1.266,0.212-1.594C57.679,34.837,57.904,34.672,58.213,34.672z M17.535,36.219
		c-0.173,0.187-0.446,0.414-0.576,0.498c-0.13,0.083-0.654,0.425-1.416,0.29c-0.763-0.135-1.264-0.732-1.523-1.079
		c-0.276-0.371-0.472-0.799-0.535-0.939c-0.11-0.242-0.287-0.814-0.287-0.814s0.316,0.57,0.519,0.856s0.56,0.592,0.7,0.695
		s0.54,0.353,0.97,0.395c0.43,0.042,0.658,0.005,1.094-0.187c0.436-0.193,0.789-0.578,0.985-0.795
		c0.198-0.218,0.514-0.784,0.514-0.784l0.182,0.95c0,0-0.112,0.219-0.181,0.326C17.886,35.78,17.715,36.025,17.535,36.219z
		 M16.647,29.092c-0.385-0.271-0.635-0.329-1.027-0.249c-0.503,0.104-1.074,0.707-1.323,1.448c-0.298,0.888-0.301,1.317-0.312,1.713
		c-0.017,0.632,0.083,1.007,0.083,1.007s-0.435-0.804-0.431-1.983c0.003-0.841,0.135-1.603,0.524-2.356
		c0.342-0.661,0.851-1.058,1.302-1.105c0.466-0.048,0.835,0.177,1.12,0.421c0.299,0.256,0.603,0.814,0.603,0.814l0.706-1.406
		l0.202,1.23l-0.716,1.37C17.378,29.995,17.104,29.414,16.647,29.092z M13.054,33.992c0,0.872-0.231,1.606-0.695,2.2
		c-0.464,0.595-1.064,0.892-1.801,0.892c-0.555,0-1.038-0.176-1.451-0.528c-0.412-0.354-0.717-0.831-0.915-1.433l0.975-0.406
		c0.143,0.366,0.331,0.653,0.564,0.863c0.234,0.21,0.51,0.315,0.826,0.315c0.333,0,0.614-0.187,0.844-0.56
		c0.23-0.373,0.345-0.82,0.345-1.344c0-0.579-0.124-1.027-0.368-1.344c-0.286-0.373-0.733-0.561-1.344-0.561H9.558v-0.569
		l1.665-2.88H9.214L9.101,28.83l-2.444,8.254H6.539l-1.784-5.971l-1.783,5.971H2.853L0,27.449h1.248l1.724,5.864l1.166-3.948
		l-0.571-1.916h1.248l1.724,5.864l1.724-5.864h0.036H9.51h3.424v0.583l-1.759,3.033c0.618,0.198,1.086,0.559,1.403,1.083
		C12.896,32.672,13.054,33.285,13.054,33.992z"/>
</g>
</svg>
