<?xml version="1.0" encoding="utf-8"?>
<!-- Generator: Adobe Illustrator 14.0.0, SVG Export Plug-In . SVG Version: 6.00 Build 43363)  -->
<!DOCTYPE svg PUBLIC "-//W3C//DTD SVG 1.1//EN" "http://www.w3.org/Graphics/SVG/1.1/DTD/svg11.dtd">
<svg version="1.1" id="Capa_1" xmlns="http://www.w3.org/2000/svg" xmlns:xlink="http://www.w3.org/1999/xlink" x="0px" y="0px"
	 width="64px" height="64px" viewBox="0 0 64 64" enable-background="new 0 0 64 64" xml:space="preserve">
<g>
	<path fill-rule="evenodd" clip-rule="evenodd" d="M20.561,42.305V21.695H64v20.609H20.561z M56.608,39.128
		c0.365,0.534,0.898,0.802,1.605,0.802c0.711,0,1.245-0.268,1.605-0.802c0.362-0.536,0.544-1.324,0.544-2.367
		c0-1.047-0.183-1.837-0.544-2.372c-0.362-0.535-0.896-0.803-1.605-0.803c-0.707,0-1.242,0.268-1.605,0.803
		c-0.36,0.535-0.539,1.325-0.539,2.372C56.069,37.804,56.248,38.594,56.608,39.128z M53.32,39.813h1.363V38.31H53.32V39.813z
		 M47.745,39.813h3.881v-1.065H49.05c0.208-0.211,0.488-0.492,0.84-0.843c0.65-0.65,1.047-1.068,1.191-1.255
		c0.196-0.257,0.335-0.49,0.414-0.701c0.082-0.209,0.122-0.435,0.122-0.675c0-0.521-0.185-0.933-0.556-1.232
		c-0.369-0.303-0.876-0.455-1.523-0.455c-0.257,0-0.524,0.029-0.807,0.086c-0.278,0.055-0.563,0.135-0.854,0.242v1.125
		c0.291-0.164,0.571-0.287,0.838-0.372c0.271-0.087,0.514-0.131,0.729-0.131c0.304,0,0.536,0.076,0.7,0.225
		c0.167,0.148,0.25,0.358,0.25,0.632c0,0.179-0.046,0.358-0.136,0.541c-0.09,0.181-0.238,0.387-0.442,0.622
		c-0.166,0.191-0.639,0.7-1.417,1.527l-0.654,0.696V39.813z M29.613,39.116c0.435,0.543,1.063,0.814,1.888,0.814
		c0.231,0,0.452-0.025,0.663-0.074c0.211-0.048,0.411-0.122,0.601-0.221v-1.344c-0.207,0.19-0.408,0.332-0.605,0.421
		c-0.193,0.088-0.394,0.132-0.601,0.132c-0.442,0-0.777-0.175-1.003-0.523c-0.225-0.354-0.336-0.874-0.336-1.561
		c0-0.69,0.111-1.211,0.336-1.562c0.226-0.352,0.561-0.527,1.003-0.527c0.207,0,0.407,0.045,0.601,0.135
		c0.197,0.088,0.399,0.227,0.605,0.419v-1.344c-0.185-0.099-0.383-0.173-0.597-0.222c-0.214-0.05-0.436-0.074-0.667-0.074
		c-0.824,0-1.453,0.271-1.888,0.815c-0.433,0.543-0.65,1.329-0.65,2.359C28.963,37.787,29.181,38.571,29.613,39.116z M24.048,39.813
		h1.117l0.651-3.211l0.695,3.211h1.126l0.704-6.115h-1.064l-0.344,4.489l-0.614-2.904h-1.003l-0.528,2.904l-0.438-4.489h-1.057
		L24.048,39.813z M38.591,24.443l-0.372,4.851l-0.664-3.139h-1.083L35.9,29.294l-0.473-4.851h-1.142l0.814,6.608h1.207l0.703-3.471
		l0.753,3.471h1.217l0.76-6.608H38.591z M43.448,24.443h-1.597l-1.784,6.608h1.306l0.397-1.634h1.749l0.406,1.634h1.305
		L43.448,24.443z M33.524,39.812h1.207L35.1,38.3h1.616l0.377,1.512H38.3l-1.649-6.114h-1.478L33.524,39.812z M50.252,29.9h-1.314
		v-4.308h1.314v-1.149h-3.933v1.149h1.313V29.9h-1.313v1.151h3.933V29.9z M53.777,27.798h-2.792v1.288h2.792V27.798z M43.062,36.522
		h-1.884v1.016h0.826v1.168c-0.057,0.047-0.131,0.082-0.223,0.105c-0.092,0.022-0.201,0.032-0.326,0.032
		c-0.418,0-0.735-0.177-0.955-0.531c-0.218-0.355-0.327-0.874-0.327-1.553c0-0.702,0.112-1.226,0.34-1.569
		c0.227-0.348,0.569-0.52,1.027-0.52c0.263,0,0.502,0.057,0.721,0.168c0.221,0.108,0.416,0.273,0.584,0.492V33.99
		c-0.207-0.13-0.43-0.23-0.666-0.299c-0.237-0.07-0.479-0.106-0.725-0.106c-0.822,0-1.451,0.271-1.889,0.815
		c-0.433,0.542-0.649,1.33-0.649,2.359c0,1.013,0.215,1.795,0.646,2.347c0.43,0.55,1.042,0.823,1.833,0.823
		c0.319,0,0.618-0.05,0.896-0.15c0.282-0.104,0.538-0.255,0.771-0.455V36.522z M58.636,24.443h-1.598l-1.781,6.608h1.304
		l0.398-1.634h1.747l0.407,1.634h1.305L58.636,24.443z M57.834,25.637l0.62,2.705H57.22L57.834,25.637z M35.91,34.803l0.572,2.502
		h-1.142L35.91,34.803z M42.647,25.637l0.619,2.705h-1.233L42.647,25.637z M58.214,34.672c0.311,0,0.538,0.165,0.679,0.495
		c0.142,0.328,0.213,0.858,0.213,1.594c0,0.731-0.071,1.263-0.213,1.593c-0.141,0.327-0.368,0.491-0.679,0.491
		c-0.309,0-0.534-0.162-0.676-0.491c-0.142-0.33-0.213-0.861-0.213-1.593c0-0.735,0.071-1.266,0.213-1.594
		C57.68,34.837,57.905,34.672,58.214,34.672z M17.535,36.219c-0.173,0.187-0.446,0.414-0.576,0.498
		c-0.13,0.083-0.653,0.425-1.416,0.29s-1.264-0.732-1.522-1.079c-0.276-0.371-0.472-0.799-0.536-0.939
		c-0.109-0.242-0.286-0.814-0.286-0.814s0.316,0.57,0.519,0.856s0.561,0.592,0.7,0.695s0.54,0.353,0.971,0.395
		c0.429,0.042,0.658,0.005,1.094-0.187c0.436-0.193,0.788-0.578,0.985-0.795c0.198-0.218,0.514-0.784,0.514-0.784l0.183,0.95
		c0,0-0.112,0.219-0.182,0.326C17.887,35.78,17.716,36.025,17.535,36.219z M16.647,29.092c-0.385-0.271-0.635-0.329-1.027-0.249
		c-0.503,0.104-1.074,0.707-1.322,1.448c-0.299,0.888-0.302,1.317-0.312,1.713c-0.017,0.632,0.083,1.007,0.083,1.007
		s-0.436-0.804-0.431-1.983c0.003-0.841,0.135-1.603,0.524-2.356c0.342-0.661,0.851-1.058,1.302-1.105
		c0.466-0.048,0.834,0.177,1.12,0.421c0.299,0.256,0.602,0.814,0.602,0.814l0.706-1.406l0.202,1.23l-0.716,1.37
		C17.379,29.995,17.104,29.414,16.647,29.092z M13.055,33.992c0,0.872-0.231,1.606-0.694,2.2c-0.464,0.595-1.064,0.892-1.802,0.892
		c-0.555,0-1.038-0.176-1.451-0.528c-0.412-0.354-0.717-0.831-0.915-1.433l0.975-0.406c0.143,0.366,0.331,0.653,0.564,0.863
		s0.51,0.315,0.826,0.315c0.333,0,0.614-0.187,0.845-0.559c0.229-0.374,0.344-0.821,0.344-1.345c0-0.579-0.123-1.027-0.368-1.344
		c-0.285-0.373-0.733-0.56-1.344-0.56H9.559v-0.57l1.665-2.88h-2.01L9.102,28.83l-2.444,8.254H6.539l-1.783-5.971l-1.783,5.971
		H2.854L0,27.449h1.248l1.725,5.864l1.165-3.948l-0.57-1.916h1.247l1.725,5.864l1.724-5.864h0.036h1.212h3.424v0.583l-1.759,3.033
		c0.618,0.198,1.086,0.559,1.403,1.083C12.896,32.672,13.055,33.285,13.055,33.992z"/>
</g>
</svg>
