<?xml version="1.0" encoding="utf-8"?>
<!-- Generator: Adobe Illustrator 14.0.0, SVG Export Plug-In . SVG Version: 6.00 Build 43363)  -->
<!DOCTYPE svg PUBLIC "-//W3C//DTD SVG 1.1//EN" "http://www.w3.org/Graphics/SVG/1.1/DTD/svg11.dtd">
<svg version="1.1" id="Capa_1" xmlns="http://www.w3.org/2000/svg" xmlns:xlink="http://www.w3.org/1999/xlink" x="0px" y="0px"
	 width="64px" height="64px" viewBox="0 0 64 64" enable-background="new 0 0 64 64" xml:space="preserve">
<g>
	<path fill-rule="evenodd" clip-rule="evenodd" d="M61.788,46.023c-0.607,0.655-1.571,1.46-2.027,1.754
		c-0.46,0.291-2.306,1.499-4.991,1.021c-2.686-0.476-4.454-2.579-5.364-3.803c-0.975-1.31-1.665-2.815-1.889-3.311
		c-0.388-0.854-1.009-2.87-1.009-2.87s1.115,2.011,1.829,3.02c0.71,1.006,1.972,2.084,2.466,2.45
		c0.493,0.364,1.902,1.241,3.417,1.39c1.515,0.146,2.321,0.019,3.856-0.659c1.538-0.679,2.78-2.035,3.475-2.799
		c0.696-0.768,1.811-2.766,1.811-2.766L64,42.799c0,0-0.396,0.771-0.637,1.15C63.028,44.476,62.427,45.34,61.788,46.023z
		 M58.663,20.909c-1.356-0.956-2.238-1.162-3.621-0.877c-1.772,0.365-3.785,2.488-4.661,5.103c-1.051,3.129-1.062,4.643-1.1,6.035
		c-0.056,2.227,0.294,3.547,0.294,3.547s-1.534-2.831-1.518-6.986c0.011-2.963,0.476-5.651,1.848-8.303
		c1.205-2.332,2.999-3.731,4.589-3.896c1.642-0.17,2.941,0.623,3.947,1.479c1.051,0.901,2.121,2.872,2.121,2.872l2.485-4.954
		l0.713,4.336l-2.523,4.828C61.237,24.091,60.271,22.044,58.663,20.909z M46.002,38.176c0,3.074-0.815,5.66-2.448,7.755
		c-1.635,2.094-3.751,3.142-6.349,3.142c-1.954,0-3.657-0.62-5.112-1.865c-1.453-1.243-2.528-2.928-3.225-5.048l3.434-1.428
		c0.504,1.287,1.165,2.301,1.99,3.041c0.822,0.739,1.794,1.111,2.91,1.111c1.173,0,2.164-0.658,2.974-1.97
		c0.813-1.316,1.216-2.892,1.216-4.738c0-2.041-0.437-3.621-1.298-4.734c-1.008-1.317-2.584-1.975-4.734-1.975h-1.678v-2.009
		l5.868-10.147h-7.081l-0.396,0.674l-8.615,29.087h-0.415l-6.285-21.04l-6.284,21.04h-0.42L0,15.12h4.396l6.076,20.664l4.107-13.914
		l-2.012-6.75h4.397l6.076,20.664l6.074-20.664h0.126h4.271h12.065v2.054l-6.198,10.688c2.179,0.7,3.826,1.97,4.942,3.816
		C45.442,33.522,46.002,35.687,46.002,38.176z"/>
</g>
</svg>
