<?xml version="1.0" encoding="utf-8"?>
<!-- Generator: Adobe Illustrator 14.0.0, SVG Export Plug-In . SVG Version: 6.00 Build 43363)  -->
<!DOCTYPE svg PUBLIC "-//W3C//DTD SVG 1.1//EN" "http://www.w3.org/Graphics/SVG/1.1/DTD/svg11.dtd">
<svg version="1.1" id="Capa_1" xmlns="http://www.w3.org/2000/svg" xmlns:xlink="http://www.w3.org/1999/xlink" x="0px" y="0px"
	 width="64px" height="64px" viewBox="0 0 64 64" enable-background="new 0 0 64 64" xml:space="preserve">
<path id="world_2_" d="M31.999,64C14.354,64,0,49.645,0,31.999C0,14.355,14.354,0,31.999,0C49.646,0,64,14.355,64,31.999
	C64,49.645,49.646,64,31.999,64z M33.469,30.533h12.573c-0.123-4.355-0.797-8.586-1.97-12.579H33.469V30.533z M46.042,33.466H33.469
	v12.549H44.08C45.249,42.034,45.919,37.813,46.042,33.466z M61.022,33.466H48.884c-0.115,4.331-0.744,8.544-1.849,12.549h10.413
	C59.524,42.26,60.797,38,61.022,33.466z M55.658,48.855h-9.497c-1.321,3.882-3.11,7.529-5.327,10.829
	C46.869,57.756,52.048,53.902,55.658,48.855z M36.576,60.701c2.78-3.493,4.982-7.499,6.571-11.846h-9.679v12.166
	C34.518,60.968,35.557,60.862,36.576,60.701z M30.532,61.023V48.855H20.151c1.563,4.285,3.729,8.243,6.455,11.698
	C27.889,60.796,29.199,60.954,30.532,61.023z M22.256,59.379c-2.124-3.22-3.844-6.761-5.127-10.523H8.342
	C11.768,53.648,16.611,57.364,22.256,59.379z M6.549,46.015h9.713c-1.105-4.003-1.737-8.218-1.851-12.549H2.975
	C3.202,38,4.471,42.26,6.549,46.015z M2.975,30.533h11.437c0.114-4.339,0.752-8.565,1.859-12.579H6.568
	C4.482,21.717,3.202,25.988,2.975,30.533z M8.365,15.114h8.771c1.285-3.75,2.999-7.28,5.114-10.491
	C16.621,6.633,11.789,10.337,8.365,15.114z M30.532,2.977c-1.336,0.07-2.646,0.228-3.927,0.47
	c-2.723,3.449-4.881,7.394-6.444,11.667h10.37L30.532,2.977L30.532,2.977z M30.532,17.955H19.222
	c-1.172,3.992-1.845,8.224-1.969,12.579h13.278L30.532,17.955L30.532,17.955z M17.253,33.466c0.123,4.346,0.794,8.568,1.962,12.549
	h11.317V33.466H17.253z M33.469,2.979v12.136h9.665c-1.586-4.333-3.782-8.333-6.558-11.813C35.557,3.139,34.518,3.031,33.469,2.979z
	 M40.834,4.315c2.215,3.29,3.996,6.929,5.319,10.799h9.482C52.029,10.081,46.857,6.243,40.834,4.315z M57.431,17.955H47.024
	c1.111,4.012,1.743,8.24,1.859,12.579h12.139C60.797,25.988,59.518,21.717,57.431,17.955z"/>
</svg>
