<?xml version="1.0" encoding="utf-8"?>
<!-- Generator: Adobe Illustrator 14.0.0, SVG Export Plug-In . SVG Version: 6.00 Build 43363)  -->
<!DOCTYPE svg PUBLIC "-//W3C//DTD SVG 1.1//EN" "http://www.w3.org/Graphics/SVG/1.1/DTD/svg11.dtd">
<svg version="1.1" id="Capa_1" xmlns="http://www.w3.org/2000/svg" xmlns:xlink="http://www.w3.org/1999/xlink" x="0px" y="0px"
	 width="64px" height="64px" viewBox="0 0 64 64" enable-background="new 0 0 64 64" xml:space="preserve">
<path id="wheel2_2_" d="M18,31.999C18,24.267,24.268,18,31.999,18s14,6.267,14,13.999c0,7.729-6.269,14-14,14S18,39.729,18,31.999z
	 M4,26c-2.208,0-4,1.79-4,4v4.001c0,2.208,1.792,4,4,4h5.67c0.528,1.963,1.31,3.824,2.304,5.546l-4.016,4.009
	c-1.562,1.562-1.562,4.096,0,5.657l2.827,2.828c1.563,1.563,4.095,1.563,5.658,0l4.007-4.016c1.722,0.995,3.585,1.775,5.548,2.303
	V60c0,2.208,1.792,4,4,4h4.001c2.208,0,4-1.792,4-4v-5.681c1.962-0.526,3.819-1.299,5.537-2.294l4.018,4.016
	c1.563,1.563,4.098,1.563,5.656,0l2.829-2.828c1.562-1.562,1.562-4.096,0-5.657l-4.014-4.018c0.993-1.72,1.766-3.577,2.292-5.537H60
	c2.208,0,4-1.792,4-4V30c0-2.21-1.792-4-4-4h-5.672c-0.527-1.965-1.308-3.827-2.301-5.547l4.014-4.009
	c1.562-1.562,1.562-4.094,0-5.656l-2.829-2.829c-1.561-1.563-4.095-1.563-5.656,0l-4.008,4.014c-1.72-0.993-3.583-1.775-5.547-2.303
	V4c0-2.21-1.792-4-4-4H30c-2.208,0-4,1.79-4,4v5.678c-1.96,0.526-3.82,1.301-5.537,2.294l-4.018-4.014
	c-1.563-1.563-4.095-1.563-5.656,0l-2.828,2.829c-1.563,1.562-1.563,4.094,0,5.656l4.014,4.019C10.982,22.18,10.207,24.038,9.681,26
	H4z M26,31.999c0,3.313,2.687,6,6,6c3.315,0,6-2.688,6-6c0-3.314-2.685-6-6-6C28.685,26,26,28.685,26,31.999z"/>
</svg>
