<?xml version="1.0" encoding="utf-8"?>
<!-- Generator: Adobe Illustrator 14.0.0, SVG Export Plug-In . SVG Version: 6.00 Build 43363)  -->
<!DOCTYPE svg PUBLIC "-//W3C//DTD SVG 1.1//EN" "http://www.w3.org/Graphics/SVG/1.1/DTD/svg11.dtd">
<svg version="1.1" id="Capa_1" xmlns="http://www.w3.org/2000/svg" xmlns:xlink="http://www.w3.org/1999/xlink" x="0px" y="0px"
	 width="64px" height="64px" viewBox="0 0 64 64" enable-background="new 0 0 64 64" xml:space="preserve">
<path id="forbidden_2_" d="M11.38,7.531C-2.135,18.919-3.857,39.105,7.53,52.619c11.39,13.517,31.577,15.237,45.09,3.849
	c13.516-11.389,15.237-31.575,3.848-45.088C45.08-2.134,24.893-3.858,11.38,7.531z M13.585,47.517
	c-7.725-9.163-7.433-22.405,0.142-31.205l30.637,36.355C34.406,58.64,21.308,56.683,13.585,47.517z M50.271,47.686L19.636,11.332
	c9.956-5.972,23.056-4.013,30.779,5.149C58.138,25.646,57.848,38.886,50.271,47.686z"/>
</svg>
