<?xml version="1.0" encoding="utf-8"?>
<!-- Generator: Adobe Illustrator 14.0.0, SVG Export Plug-In . SVG Version: 6.00 Build 43363)  -->
<!DOCTYPE svg PUBLIC "-//W3C//DTD SVG 1.1//EN" "http://www.w3.org/Graphics/SVG/1.1/DTD/svg11.dtd">
<svg version="1.1" id="Capa_1" xmlns="http://www.w3.org/2000/svg" xmlns:xlink="http://www.w3.org/1999/xlink" x="0px" y="0px"
	 width="64px" height="64px" viewBox="0 0 64 64" enable-background="new 0 0 64 64" xml:space="preserve">
<path d="M64,32.195c0-0.004,0-0.009,0-0.013c0-3.838-0.678-7.518-1.916-10.927l-5.387-0.678c-0.654-1.382-1.423-2.699-2.291-3.942
	l2.011-5.126c-2.367-2.793-5.205-5.172-8.392-7.021l-4.584,2.957c-1.454-0.672-2.976-1.225-4.555-1.635l-1.752-5.212
	C35.462,0.328,33.748,0.183,32,0.183c-1.946,0-3.849,0.184-5.699,0.517l-1.617,5.233c-1.604,0.445-3.15,1.027-4.621,1.744
	l-4.669-2.852c-3.116,1.896-5.881,4.311-8.18,7.123l2.125,5.049c-0.896,1.328-1.671,2.742-2.325,4.221l-5.357,0.809
	C0.588,25.218,0,28.631,0,32.183c0,0.234,0.013,0.466,0.018,0.698l4.854,2.491c0.174,1.524,0.474,3.009,0.888,4.446l-3.556,4.03
	c1.379,3.519,3.359,6.732,5.82,9.516l5.292-1.205c1.025,0.962,2.121,1.848,3.285,2.644l-0.133,5.356
	c3.257,1.813,6.859,3.077,10.688,3.658l3.266-4.307c0.523,0.03,1.05,0.049,1.58,0.049c0.822,0,1.634-0.043,2.438-0.114l3.354,4.204
	c3.819-0.698,7.401-2.069,10.617-3.994l-0.267-5.381c1.086-0.797,2.11-1.67,3.065-2.615l5.315,1.073
	c2.409-2.873,4.323-6.174,5.611-9.774l-3.667-3.956c0.346-1.357,0.586-2.756,0.72-4.186L64,32.195z M32,42.833
	c-5.982,0-10.833-4.851-10.833-10.833c0-5.983,4.851-10.833,10.833-10.833c5.983,0,10.834,4.85,10.834,10.833
	C42.834,37.982,37.982,42.833,32,42.833z"/>
</svg>
