<?xml version="1.0" encoding="utf-8"?>
<!-- Generator: Adobe Illustrator 14.0.0, SVG Export Plug-In . SVG Version: 6.00 Build 43363)  -->
<!DOCTYPE svg PUBLIC "-//W3C//DTD SVG 1.1//EN" "http://www.w3.org/Graphics/SVG/1.1/DTD/svg11.dtd">
<svg version="1.1" id="Capa_1" xmlns="http://www.w3.org/2000/svg" xmlns:xlink="http://www.w3.org/1999/xlink" x="0px" y="0px"
	 width="64px" height="64px" viewBox="0 0 64 64" enable-background="new 0 0 64 64" xml:space="preserve">
<path id="minus_2_" d="M8,32C8,18.744,18.744,8,32,8c13.254,0,24,10.744,24,24c0,13.254-10.746,24-24,24C18.744,56,8,45.254,8,32z
	 M0,32c0,17.673,14.327,32,32,32c17.673,0,32-14.327,32-32C64,14.327,49.673,0,32,0C14.327,0,0,14.327,0,32z M18,28v8h28v-8H18z"/>
</svg>
