<?xml version="1.0" encoding="utf-8"?>
<!-- Generator: Adobe Illustrator 14.0.0, SVG Export Plug-In . SVG Version: 6.00 Build 43363)  -->
<!DOCTYPE svg PUBLIC "-//W3C//DTD SVG 1.1//EN" "http://www.w3.org/Graphics/SVG/1.1/DTD/svg11.dtd">
<svg version="1.1" id="Capa_1" xmlns="http://www.w3.org/2000/svg" xmlns:xlink="http://www.w3.org/1999/xlink" x="0px" y="0px"
	 width="64px" height="64px" viewBox="0 0 64 64" enable-background="new 0 0 64 64" xml:space="preserve">
<g>
	<path fill-rule="evenodd" clip-rule="evenodd" d="M32,64C14.326,64,0,49.673,0,32C0,14.326,14.326,0,32,0s32,14.326,32,32
		C64,49.673,49.674,64,32,64z M53.104,31.471c0-3.015-3.119-5.461-5.725-5.461H16.487c-2.604,0-5.724,2.446-5.724,5.461v2.958
		c0,3.016,3.119,5.461,5.724,5.461h30.892c2.605,0,5.725-2.445,5.725-5.461V31.471z M44.721,36.163h-6.096
		c-0.884,0-1.693-0.249-2.3-0.659v-5.107c0.606-0.41,1.416-0.659,2.3-0.659h6.096c1.883,0,3.413,1.131,3.413,2.528v1.369
		C48.134,35.031,46.604,36.163,44.721,36.163z M19.147,36.163c-1.885,0-3.413-1.132-3.413-2.528v-1.369
		c0-1.397,1.528-2.528,3.413-2.528h0.261c0.886,0,7.525,0.249,8.133,0.659v5.107c-0.607,0.41-1.414,0.659-2.3,0.659H19.147z"/>
</g>
</svg>
