<?xml version="1.0" encoding="utf-8"?>
<!-- Generator: Adobe Illustrator 14.0.0, SVG Export Plug-In . SVG Version: 6.00 Build 43363)  -->
<!DOCTYPE svg PUBLIC "-//W3C//DTD SVG 1.1//EN" "http://www.w3.org/Graphics/SVG/1.1/DTD/svg11.dtd">
<svg version="1.1" id="Capa_1" xmlns="http://www.w3.org/2000/svg" xmlns:xlink="http://www.w3.org/1999/xlink" x="0px" y="0px"
	 width="64px" height="64px" viewBox="0 0 64 64" enable-background="new 0 0 64 64" xml:space="preserve">
<path id="cancel_5_" d="M32,64C14.328,64,0,49.673,0,32C0,14.327,14.328,0,32,0c17.675,0,32,14.327,32,32C64,49.673,49.675,64,32,64
	z M46.975,23.816c1.562-1.563,1.562-4.094,0-5.656l-0.884-0.884c-1.563-1.563-4.095-1.563-5.656,0l-8.31,8.309l-8.308-8.309
	c-1.563-1.563-4.095-1.563-5.656,0l-0.885,0.884c-1.563,1.563-1.563,4.094,0,5.656l8.31,8.309l-8.31,8.31
	c-1.563,1.561-1.563,4.094,0,5.655l0.885,0.885c1.562,1.562,4.093,1.562,5.656,0l8.308-8.31l8.31,8.31
	c1.562,1.562,4.093,1.562,5.656,0l0.884-0.885c1.562-1.562,1.562-4.095,0-5.655l-8.308-8.31L46.975,23.816z"/>
</svg>
