<?xml version="1.0" encoding="utf-8"?>
<!-- Generator: Adobe Illustrator 14.0.0, SVG Export Plug-In . SVG Version: 6.00 Build 43363)  -->
<!DOCTYPE svg PUBLIC "-//W3C//DTD SVG 1.1//EN" "http://www.w3.org/Graphics/SVG/1.1/DTD/svg11.dtd">
<svg version="1.1" id="Capa_1" xmlns="http://www.w3.org/2000/svg" xmlns:xlink="http://www.w3.org/1999/xlink" x="0px" y="0px"
	 width="64px" height="64px" viewBox="0 0 64 64" enable-background="new 0 0 64 64" xml:space="preserve">
<path id="rosette_2_" d="M60.976,32.829c2.41,2.602,3.313,6.368,2.022,9.894c-1.29,3.525-4.44,5.893-8.001,6.431
	c0.391,3.479-1.146,7.045-4.314,9.174c-3.173,2.128-7.152,2.263-10.365,0.68c-1.779,3.04-5.173,5.063-9.028,4.991
	c-3.855-0.074-7.165-2.227-8.819-5.331c-3.274,1.46-7.244,1.176-10.328-1.074c-3.083-2.247-4.474-5.869-3.946-9.329
	c-3.534-0.675-6.584-3.16-7.734-6.731c-1.148-3.573-0.093-7.302,2.42-9.807c-2.463-2.553-3.44-6.301-2.222-9.852
	c1.219-3.549,4.321-5.977,7.869-6.583c-0.458-3.467,1.006-7.062,4.133-9.251c3.125-2.188,7.105-2.396,10.348-0.876
	C24.728,2.089,28.08,0,31.937,0c4.142,0,7.699,2.41,9.273,5.865c3.435-1.779,7.77-1.549,11.031,0.925
	c3.037,2.306,4.354,5.955,3.756,9.404c3.519,0.741,6.521,3.285,7.598,6.879C64.67,26.667,63.539,30.374,60.976,32.829
	 M54.778,25.536c-0.774-2.582-2.932-4.41-5.459-4.941c0.429-2.479-0.518-5.101-2.7-6.758c-2.347-1.779-5.46-1.944-7.927-0.666
	c-1.133-2.482-3.689-4.215-6.666-4.215c-2.771,0-5.18,1.5-6.414,3.709c-2.332-1.092-5.19-0.942-7.437,0.63
	c-2.248,1.572-3.302,4.157-2.968,6.649c-2.551,0.437-4.779,2.18-5.657,4.732c-0.878,2.554-0.173,5.244,1.595,7.081
	c-1.805,1.8-2.563,4.479-1.739,7.046c0.825,2.571,3.019,4.354,5.56,4.841c-0.38,2.485,0.619,5.09,2.834,6.705
	c2.215,1.614,5.07,1.819,7.426,0.771c1.187,2.232,3.565,3.779,6.337,3.832c2.768,0.051,5.208-1.402,6.484-3.59
	c2.313,1.14,5.172,1.041,7.451-0.487c2.278-1.527,3.381-4.093,3.103-6.591c2.557-0.389,4.819-2.091,5.75-4.623
	c0.928-2.532,0.279-5.239-1.451-7.109C54.737,30.785,55.55,28.12,54.778,25.536"/>
</svg>
