<?xml version="1.0" encoding="utf-8"?>
<!-- Generator: Adobe Illustrator 14.0.0, SVG Export Plug-In . SVG Version: 6.00 Build 43363)  -->
<!DOCTYPE svg PUBLIC "-//W3C//DTD SVG 1.1//EN" "http://www.w3.org/Graphics/SVG/1.1/DTD/svg11.dtd">
<svg version="1.1" id="Capa_1" xmlns="http://www.w3.org/2000/svg" xmlns:xlink="http://www.w3.org/1999/xlink" x="0px" y="0px"
	 width="64px" height="64px" viewBox="0 0 64 64" enable-background="new 0 0 64 64" xml:space="preserve">
<g>
	<path fill-rule="evenodd" clip-rule="evenodd" d="M32,64C14.327,64,0,49.674,0,32C0,14.327,14.327,0,32,0c17.674,0,32,14.327,32,32
		C64,49.674,49.674,64,32,64z M45.456,31.441c-0.012-0.035-0.024-0.068-0.036-0.103c-0.03-0.077-0.339-0.732-0.498-0.968
		c-0.204-0.316-0.438-0.619-0.707-0.904c1.271,1.295,1.597,1.624-0.059-0.076c0.023,0.023,0.036,0.052,0.059,0.076
		c-3.26-3.324-12.944-13.228-12.944-13.228c-1.783-1.83-4.945-1.642-7.063,0.422s-2.39,5.22-0.607,7.05l9.112,9.354l-9.178,8.939
		c-1.83,1.783-1.642,4.945,0.422,7.064c2.063,2.117,5.22,2.389,7.05,0.605l13.572-13.22C45.877,35.188,46.141,33.23,45.456,31.441z"
		/>
</g>
</svg>
