<?xml version="1.0" encoding="utf-8"?>
<!-- Generator: Adobe Illustrator 14.0.0, SVG Export Plug-In . SVG Version: 6.00 Build 43363)  -->
<!DOCTYPE svg PUBLIC "-//W3C//DTD SVG 1.1//EN" "http://www.w3.org/Graphics/SVG/1.1/DTD/svg11.dtd">
<svg version="1.1" id="Capa_1" xmlns="http://www.w3.org/2000/svg" xmlns:xlink="http://www.w3.org/1999/xlink" x="0px" y="0px"
	 width="64px" height="64px" viewBox="0 0 64 64" enable-background="new 0 0 64 64" xml:space="preserve">
<path d="M53.643,51.351h-1.106l1.677,11.742L35.758,51.351H25.114l9.113-5.802h13.519c5.72,0,10.358-4.636,10.358-10.356v-7.375
	l0.023-14.59C61.602,14.9,64,18.45,64,22.562v18.433C64,46.712,59.363,51.351,53.643,51.351z M40.534,40.054H27.633L10.73,51.883
	l1.689-11.829h-2.063C4.638,40.054,0,35.415,0,29.696V11.264C0,5.543,4.638,0.907,10.357,0.907h30.177
	c5.721,0,10.358,4.636,10.358,10.356v18.432C50.893,35.415,46.255,40.054,40.534,40.054z M18.364,20.505
	c0,0.247,0.247,0.535,0.535,0.535c0.74,0,2.721-3.585,4.246-3.585c0.331,0,0.702,0.37,0.412,1.112l-2.885,7.257
	c-0.29,0.701-1.691,4.083-1.691,6.061c0,1.567,1.031,2.266,2.517,2.266c4.163,0,8.986-5.112,8.986-6.307
	c0-0.371-0.288-0.618-0.493-0.618c-0.577,0-2.845,3.505-4.083,3.505c-0.33,0-0.494-0.29-0.494-0.577c0-0.659,0.453-1.691,0.7-2.309
	l2.968-8.039c1.485-4-0.413-5.071-2.185-5.071c-2.391,0-4.535,1.196-6.184,2.762C20.176,18.032,18.364,19.763,18.364,20.505z
	 M29.164,7.148c-1.813,0-3.38,1.483-3.38,3.297c0,1.69,1.114,2.804,2.805,2.804c1.854,0,3.421-1.401,3.421-3.298
	C32.01,8.26,30.813,7.148,29.164,7.148z"/>
</svg>
