<?xml version="1.0" encoding="utf-8"?>
<!-- Generator: Adobe Illustrator 14.0.0, SVG Export Plug-In . SVG Version: 6.00 Build 43363)  -->
<!DOCTYPE svg PUBLIC "-//W3C//DTD SVG 1.1//EN" "http://www.w3.org/Graphics/SVG/1.1/DTD/svg11.dtd">
<svg version="1.1" id="Capa_1" xmlns="http://www.w3.org/2000/svg" xmlns:xlink="http://www.w3.org/1999/xlink" x="0px" y="0px"
	 width="64px" height="64px" viewBox="0 0 64 64" enable-background="new 0 0 64 64" xml:space="preserve">
<path fill-rule="evenodd" clip-rule="evenodd" d="M46.897,45.494H34.159l-16.69,11.688l1.67-11.688h-2.037
	c-5.647,0-10.227-4.582-10.227-10.233v-18.21c0-5.651,4.579-10.233,10.227-10.233h29.796c5.648,0,10.228,4.582,10.228,10.233v18.21
	C57.125,40.912,52.546,45.494,46.897,45.494z M41.544,21.224c0.531-0.532,0.531-1.395,0-1.925l-1.924-1.926
	c-0.531-0.531-1.394-0.531-1.924,0l-4.81,4.812l-4.81-4.811c-0.531-0.532-1.393-0.532-1.924,0l-1.924,1.925
	c-0.531,0.531-0.531,1.393,0,1.925l4.808,4.813l-4.808,4.813c-0.531,0.531-0.531,1.394,0,1.925l1.924,1.926
	c0.53,0.531,1.392,0.531,1.923,0l4.811-4.812l4.811,4.812c0.529,0.531,1.392,0.531,1.923,0l1.924-1.926
	c0.531-0.531,0.531-1.393,0-1.925l-4.809-4.813L41.544,21.224z"/>
</svg>
