<?xml version="1.0" encoding="utf-8"?>
<!-- Generator: Adobe Illustrator 14.0.0, SVG Export Plug-In . SVG Version: 6.00 Build 43363)  -->
<!DOCTYPE svg PUBLIC "-//W3C//DTD SVG 1.1//EN" "http://www.w3.org/Graphics/SVG/1.1/DTD/svg11.dtd">
<svg version="1.1" id="Capa_1" xmlns="http://www.w3.org/2000/svg" xmlns:xlink="http://www.w3.org/1999/xlink" x="0px" y="0px"
	 width="64px" height="64px" viewBox="0 0 64 64" enable-background="new 0 0 64 64" xml:space="preserve">
<path d="M53.643,51.35h-1.106l1.677,11.743L35.759,51.35H25.113l9.114-5.8h13.519c5.721,0,10.358-4.637,10.358-10.357v-7.375
	l0.023-14.59C61.602,14.9,64,18.45,64,22.563v18.43C64,46.712,59.363,51.35,53.643,51.35z M40.534,40.052H27.633L10.73,51.883
	l1.692-11.831H10.36C4.637,40.052,0,35.415,0,29.695V11.264C0,5.542,4.637,0.907,10.358,0.907h30.176
	c5.721,0,10.358,4.635,10.358,10.356v18.431C50.893,35.415,46.255,40.052,40.534,40.052z M23.506,33.052h4.28
	c0.392,0,0.713-0.319,0.713-0.713c0-0.395-0.321-0.713-0.713-0.713h-4.28c-0.393,0-0.712,0.319-0.712,0.713
	C22.794,32.732,23.113,33.052,23.506,33.052z M21.368,30.199c0,0.394,0.318,0.713,0.712,0.713h7.13c0.394,0,0.712-0.319,0.712-0.713
	v-0.712c0-0.394-0.318-0.713-0.712-0.713h-7.13c-0.394,0-0.712,0.319-0.712,0.713V30.199z M21.368,27.347
	c0,0.395,0.318,0.712,0.712,0.712h7.13c0.394,0,0.712-0.318,0.712-0.712v-0.713c0-0.394-0.318-0.713-0.712-0.713h-7.13
	c-0.394,0-0.712,0.319-0.712,0.713V27.347z M25.646,7.385c-4.725,0-8.556,3.669-8.556,8.196c0,2.646,1.311,5.002,3.343,6.5
	l1.249,3.105h7.886l1.291-3.105c2.034-1.498,3.343-3.854,3.343-6.5C34.201,11.055,30.371,7.385,25.646,7.385z"/>
</svg>
