<?xml version="1.0" encoding="utf-8"?>
<!-- Generator: Adobe Illustrator 14.0.0, SVG Export Plug-In . SVG Version: 6.00 Build 43363)  -->
<!DOCTYPE svg PUBLIC "-//W3C//DTD SVG 1.1//EN" "http://www.w3.org/Graphics/SVG/1.1/DTD/svg11.dtd">
<svg version="1.1" id="Capa_1" xmlns="http://www.w3.org/2000/svg" xmlns:xlink="http://www.w3.org/1999/xlink" x="0px" y="0px"
	 width="64px" height="64px" viewBox="0 0 64 64" enable-background="new 0 0 64 64" xml:space="preserve">
<path id="comment_1_" d="M9.411,2.824C4.213,2.824,0,7.037,0,12.236v26.352c0,5.195,4.212,9.41,9.411,9.41h20.706l15.057,13.178
	V47.998h9.413c5.198,0,9.413-4.213,9.413-9.41V12.236c0-5.198-4.213-9.412-9.413-9.412H9.411z M19.456,36.17
	c0,3.191-2.588,5.777-5.778,5.777c-3.191,0-5.778-2.586-5.778-5.777c0-3.193,2.587-5.779,5.778-5.779
	C16.868,30.391,19.456,32.977,19.456,36.17z M37.742,36.17c0,3.191-2.588,5.777-5.779,5.777c-3.19,0-5.778-2.586-5.778-5.777
	c0-3.193,2.588-5.779,5.778-5.779C35.154,30.391,37.742,32.977,37.742,36.17z M56.408,35.916c0,3.191-2.587,5.777-5.778,5.777
	s-5.779-2.586-5.779-5.777c0-3.193,2.588-5.78,5.779-5.78S56.408,32.723,56.408,35.916z"/>
</svg>
