<?xml version="1.0" encoding="utf-8"?>
<!-- Generator: Adobe Illustrator 14.0.0, SVG Export Plug-In . SVG Version: 6.00 Build 43363)  -->
<!DOCTYPE svg PUBLIC "-//W3C//DTD SVG 1.1//EN" "http://www.w3.org/Graphics/SVG/1.1/DTD/svg11.dtd">
<svg version="1.1" id="Capa_1" xmlns="http://www.w3.org/2000/svg" xmlns:xlink="http://www.w3.org/1999/xlink" x="0px" y="0px"
	 width="64px" height="64px" viewBox="0 0 64 64" enable-background="new 0 0 64 64" xml:space="preserve">
<path fill-rule="evenodd" clip-rule="evenodd" d="M53.642,51.362h-1.106l1.677,11.751L35.757,51.362H25.112l9.115-5.805h13.518
	c5.721,0,10.358-4.638,10.358-10.362v-7.379l0.023-14.601C61.601,14.888,64,18.44,64,22.556v18.442
	C64,46.722,59.362,51.362,53.642,51.362z M40.534,40.058H27.632L10.729,51.896l1.691-11.839h-2.062C4.638,40.058,0,35.418,0,29.694
	V11.251C0,5.527,4.638,0.887,10.359,0.887h30.175c5.721,0,10.356,4.641,10.356,10.365v18.442
	C50.891,35.418,46.255,40.058,40.534,40.058z M37.289,13.421l-1.83-2.288c-0.505-0.633-1.427-0.735-2.057-0.23L21.59,21.402
	l-3.652-4.306c-0.523-0.616-1.447-0.691-2.063-0.168l-2.233,1.897c-0.617,0.523-0.692,1.447-0.168,2.064l6.543,7.713
	c0.294,0.347,0.713,0.515,1.134,0.51c0.325,0.003,0.651-0.095,0.926-0.314l0.601-0.534l1.636-1.39
	c0.073-0.061,0.112-0.143,0.17-0.215L37.06,15.479C37.691,14.974,37.793,14.052,37.289,13.421z"/>
</svg>
