<?xml version="1.0" encoding="utf-8"?>
<!-- Generator: Adobe Illustrator 14.0.0, SVG Export Plug-In . SVG Version: 6.00 Build 43363)  -->
<!DOCTYPE svg PUBLIC "-//W3C//DTD SVG 1.1//EN" "http://www.w3.org/Graphics/SVG/1.1/DTD/svg11.dtd">
<svg version="1.1" id="Capa_1" xmlns="http://www.w3.org/2000/svg" xmlns:xlink="http://www.w3.org/1999/xlink" x="0px" y="0px"
	 width="64px" height="64px" viewBox="0 0 64 64" enable-background="new 0 0 64 64" xml:space="preserve">
<path fill-rule="evenodd" clip-rule="evenodd" d="M53.642,51.363h-1.107l1.678,11.75l-18.455-11.75H25.111l9.114-5.805h13.519
	c5.721,0,10.358-4.641,10.358-10.363v-7.379l0.025-14.601C61.602,14.888,64,18.44,64,22.557v18.441
	C64,46.723,59.362,51.363,53.642,51.363z M40.534,40.059H27.633L10.73,51.896l1.689-11.838h-2.062C4.637,40.059,0,35.418,0,29.694
	V11.251C0,5.527,4.637,0.887,10.358,0.887h30.176c5.721,0,10.358,4.641,10.358,10.364v18.443
	C50.893,35.418,46.255,40.059,40.534,40.059z M35.112,15.478c0.538-0.539,0.538-1.412,0-1.95l-1.948-1.95
	c-0.538-0.538-1.411-0.538-1.949,0l-4.871,4.873l-4.871-4.872c-0.537-0.539-1.41-0.539-1.948,0l-1.948,1.949
	c-0.538,0.538-0.538,1.411,0,1.95l4.87,4.874l-4.87,4.874c-0.538,0.538-0.538,1.411,0,1.95l1.948,1.949
	c0.538,0.539,1.41,0.539,1.948,0l4.871-4.873l4.873,4.873c0.536,0.539,1.409,0.539,1.947,0l1.948-1.949
	c0.538-0.539,0.538-1.411,0-1.95l-4.87-4.874L35.112,15.478z"/>
</svg>
