<?xml version="1.0" encoding="utf-8"?>
<!-- Generator: Adobe Illustrator 14.0.0, SVG Export Plug-In . SVG Version: 6.00 Build 43363)  -->
<!DOCTYPE svg PUBLIC "-//W3C//DTD SVG 1.1//EN" "http://www.w3.org/Graphics/SVG/1.1/DTD/svg11.dtd">
<svg version="1.1" id="Capa_1" xmlns="http://www.w3.org/2000/svg" xmlns:xlink="http://www.w3.org/1999/xlink" x="0px" y="0px"
	 width="64px" height="64px" viewBox="0 0 64 64" enable-background="new 0 0 64 64" xml:space="preserve">
<path d="M54.585,47.999h-9.411v13.177L30.118,47.999H9.413C4.215,47.999,0,43.787,0,38.587V12.236c0-5.198,4.214-9.412,9.413-9.412
	h45.172c5.2,0,9.415,4.213,9.415,9.412v26.351C63.999,43.787,59.785,47.999,54.585,47.999z M38.181,34.122
	c0-0.247-0.2-0.447-0.446-0.447h-2.461c-3.396,0-6.301-2.1-7.5-5.067h4.692c0.344,0,0.623-0.301,0.623-0.671V26.93
	c0-0.37-0.279-0.67-0.623-0.67h-5.252c-0.017-0.226-0.027-0.453-0.027-0.684s0.013-0.458,0.027-0.683l5.317-0.001
	c0.346,0,0.623-0.301,0.623-0.671v-1.006c0-0.371-0.277-0.671-0.623-0.671h-4.758c1.199-2.968,4.104-5.067,7.5-5.067h2.461
	c0.246,0,0.446-0.201,0.446-0.448V14.16c0-0.247-0.2-0.447-0.446-0.447c0,0-3.054-0.011-3.094,0
	c-5.223,0.275-9.553,3.94-10.841,8.832h-2.958c-0.344,0-0.625,0.3-0.625,0.671v1.007c0,0.37,0.281,0.67,0.625,0.67l2.587,0.001
	c-0.012,0.226-0.019,0.452-0.019,0.683c0,0.229,0.007,0.457,0.019,0.684h-2.652c-0.344,0-0.623,0.3-0.623,0.67v1.006
	c0,0.37,0.279,0.671,0.623,0.671h3.024c1.288,4.892,5.618,8.558,10.842,8.832c0.04,0.01,3.094,0,3.094,0
	c0.246,0,0.445-0.199,0.445-0.447L38.181,34.122L38.181,34.122z"/>
</svg>
