<?xml version="1.0" encoding="utf-8"?>
<!-- Generator: Adobe Illustrator 14.0.0, SVG Export Plug-In . SVG Version: 6.00 Build 43363)  -->
<!DOCTYPE svg PUBLIC "-//W3C//DTD SVG 1.1//EN" "http://www.w3.org/Graphics/SVG/1.1/DTD/svg11.dtd">
<svg version="1.1" id="Capa_1" xmlns="http://www.w3.org/2000/svg" xmlns:xlink="http://www.w3.org/1999/xlink" x="0px" y="0px"
	 width="64px" height="64px" viewBox="0 0 64 64" enable-background="new 0 0 64 64" xml:space="preserve">
<path fill-rule="evenodd" clip-rule="evenodd" d="M54.588,50.814h-9.411V64L30.118,50.814H9.411C4.214,50.814,0,46.598,0,41.396
	v-26.37c0-5.201,4.214-9.418,9.411-9.418h45.177c5.199,0,9.412,4.217,9.412,9.418v26.37C64,46.598,59.787,50.814,54.588,50.814z
	 M57.529,18.027c0-3.723-3.017-6.741-6.736-6.741H13.166c-3.72,0-6.735,3.018-6.735,6.741v20.006c0,3.723,3.016,6.74,6.735,6.74
	h17.088L41.03,54.21v-9.437h9.763c3.72,0,6.736-3.018,6.736-6.74V18.027z M35.206,27.721l-0.88,0.691
	c-0.479,0.374-0.797,0.81-0.954,1.309c-0.099,0.32-0.152,0.81-0.163,1.475h-3.402c0.05-1.407,0.184-2.379,0.398-2.917
	c0.219-0.537,0.775-1.155,1.674-1.858l0.913-0.71c0.299-0.227,0.539-0.468,0.725-0.737c0.332-0.452,0.498-0.952,0.498-1.498
	c0-0.631-0.185-1.203-0.555-1.72c-0.369-0.516-1.044-0.775-2.022-0.775c-0.967,0-1.648,0.317-2.053,0.954
	c-0.401,0.635-0.604,1.294-0.604,1.976h-3.586c0.099-2.361,0.926-4.035,2.477-5.023c0.98-0.632,2.185-0.946,3.611-0.946
	c1.876,0,3.436,0.45,4.675,1.343c1.243,0.898,1.861,2.23,1.861,3.991c0,1.077-0.268,1.987-0.803,2.725
	C36.703,26.45,36.098,27.025,35.206,27.721z M33.467,36.51h-3.732v-3.588h3.732V36.51z"/>
</svg>
