<?xml version="1.0" encoding="utf-8"?>
<!-- Generator: Adobe Illustrator 14.0.0, SVG Export Plug-In . SVG Version: 6.00 Build 43363)  -->
<!DOCTYPE svg PUBLIC "-//W3C//DTD SVG 1.1//EN" "http://www.w3.org/Graphics/SVG/1.1/DTD/svg11.dtd">
<svg version="1.1" id="Capa_1" xmlns="http://www.w3.org/2000/svg" xmlns:xlink="http://www.w3.org/1999/xlink" x="0px" y="0px"
	 width="64px" height="64px" viewBox="0 0 64 64" enable-background="new 0 0 64 64" xml:space="preserve">
<path fill-rule="evenodd" clip-rule="evenodd" d="M46.973,45.561H34.17L17.396,57.308l1.679-11.747h-2.047
	c-5.677,0-10.278-4.604-10.278-10.283V16.977c0-5.679,4.602-10.284,10.278-10.284h29.944c5.676,0,10.277,4.605,10.277,10.284v18.301
	C57.25,40.956,52.648,45.561,46.973,45.561z M43.752,19.13l-1.816-2.271c-0.5-0.628-1.414-0.729-2.041-0.229L28.174,27.05
	l-3.624-4.273c-0.52-0.611-1.436-0.687-2.048-0.167l-2.215,1.882c-0.611,0.52-0.687,1.437-0.167,2.049l6.492,7.653
	c0.292,0.344,0.708,0.512,1.125,0.507c0.322,0.003,0.647-0.095,0.919-0.313l0.595-0.528l1.624-1.38
	c0.072-0.061,0.112-0.143,0.17-0.214l12.479-11.093C44.15,20.671,44.252,19.756,43.752,19.13z"/>
</svg>
