<?xml version="1.0" encoding="utf-8"?>
<!-- Generator: Adobe Illustrator 14.0.0, SVG Export Plug-In . SVG Version: 6.00 Build 43363)  -->
<!DOCTYPE svg PUBLIC "-//W3C//DTD SVG 1.1//EN" "http://www.w3.org/Graphics/SVG/1.1/DTD/svg11.dtd">
<svg version="1.1" id="Capa_1" xmlns="http://www.w3.org/2000/svg" xmlns:xlink="http://www.w3.org/1999/xlink" x="0px" y="0px"
	 width="64px" height="64px" viewBox="0 0 64 64" enable-background="new 0 0 64 64" xml:space="preserve">
<path d="M53.641,51.351h-1.104l1.676,11.742L35.758,51.351H25.112l9.115-5.802h13.519c5.72,0,10.358-4.636,10.358-10.356v-7.375
	l0.023-14.59C61.602,14.9,64,18.449,64,22.562v18.433C64,46.712,59.363,51.351,53.641,51.351z M40.532,40.054H27.633L10.73,51.883
	l1.69-11.829h-2.063C4.636,40.054,0,35.415,0,29.695V11.264C0,5.543,4.636,0.907,10.357,0.907h30.175
	c5.723,0,10.36,4.636,10.36,10.356v18.432C50.893,35.415,46.255,40.054,40.532,40.054z M33.527,9.833H16.551v3.672h16.977V9.833z
	 M37.339,19.478h-3.812v-5.165H16.551v5.165h-3.63c-0.519,0.521-0.519,1.361,0,1.879l11.27,11.271c0.518,0.519,1.359,0.519,1.879,0
	l11.27-11.271C37.857,20.839,37.857,19.999,37.339,19.478z"/>
</svg>
