<?xml version="1.0" encoding="utf-8"?>
<!-- Generator: Adobe Illustrator 14.0.0, SVG Export Plug-In . SVG Version: 6.00 Build 43363)  -->
<!DOCTYPE svg PUBLIC "-//W3C//DTD SVG 1.1//EN" "http://www.w3.org/Graphics/SVG/1.1/DTD/svg11.dtd">
<svg version="1.1" id="Capa_1" xmlns="http://www.w3.org/2000/svg" xmlns:xlink="http://www.w3.org/1999/xlink" x="0px" y="0px"
	 width="64px" height="64px" viewBox="0 0 64 64" enable-background="new 0 0 64 64" xml:space="preserve">
<g>
	<path fill-rule="evenodd" clip-rule="evenodd" d="M47.284,26.809c0.656,1.806,1.014,3.755,1.014,5.788c0,0.002,0,0.004,0,0.006
		l-2.548,1.389c-0.07,0.757-0.196,1.497-0.381,2.217l1.941,2.095c-0.68,1.906-1.694,3.655-2.971,5.177l-2.815-0.569
		c-0.505,0.501-1.047,0.963-1.622,1.385l0.141,2.85c-1.702,1.02-3.6,1.746-5.622,2.116l-1.777-2.227
		c-0.425,0.037-0.855,0.06-1.29,0.06c-0.282,0-0.561-0.01-0.837-0.025l-1.73,2.28c-2.027-0.308-3.935-0.977-5.66-1.938l0.071-2.836
		c-0.616-0.421-1.197-0.89-1.739-1.399l-2.803,0.638c-1.303-1.474-2.352-3.176-3.082-5.04l1.883-2.134
		c-0.219-0.762-0.378-1.547-0.47-2.354l-2.571-1.319c-0.003-0.124-0.009-0.246-0.009-0.37c0-1.881,0.312-3.688,0.877-5.379
		l2.837-0.428c0.346-0.783,0.756-1.532,1.231-2.235l-1.125-2.674c1.218-1.489,2.682-2.768,4.333-3.772l2.472,1.511
		c0.779-0.38,1.598-0.688,2.447-0.923l0.857-2.771c0.979-0.176,1.986-0.274,3.017-0.274c0.926,0,1.833,0.077,2.72,0.22L35,18.629
		c0.835,0.217,1.642,0.51,2.411,0.866l2.429-1.566c1.687,0.979,3.19,2.239,4.442,3.718l-1.063,2.715
		c0.459,0.658,0.867,1.355,1.212,2.087L47.284,26.809z M31.352,26.762c-3.168,0-5.736,2.569-5.736,5.737
		c0,3.169,2.568,5.737,5.736,5.737c3.167,0,5.737-2.568,5.737-5.737C37.089,29.331,34.52,26.762,31.352,26.762z M56.474,34.563
		l-7.159-9.569h3.198c-0.052-0.139-0.104-0.278-0.158-0.415c-3.322-8.425-11.529-14.385-21.13-14.385
		c-12.541,0-22.708,10.174-22.708,22.724s10.167,22.723,22.708,22.723c9.225,0,17.166-5.504,20.718-13.408
		c0.034-0.076,0.058-0.157,0.09-0.231l6.092,6.056c-0.04,0.07-0.069,0.15-0.11,0.223c-0.01,0.016-0.018,0.032-0.027,0.047
		c-5.375,9.289-15.414,15.537-26.913,15.537C13.913,63.864,0,49.942,0,32.769C0,15.595,13.913,1.673,31.074,1.673
		c14.346,0,26.423,9.728,29.999,22.95c0.034,0.121,0.044,0.25,0.074,0.372H64L56.474,34.563z"/>
</g>
</svg>
