<?xml version="1.0" encoding="utf-8"?>
<!-- Generator: Adobe Illustrator 14.0.0, SVG Export Plug-In . SVG Version: 6.00 Build 43363)  -->
<!DOCTYPE svg PUBLIC "-//W3C//DTD SVG 1.1//EN" "http://www.w3.org/Graphics/SVG/1.1/DTD/svg11.dtd">
<svg version="1.1" id="Capa_1" xmlns="http://www.w3.org/2000/svg" xmlns:xlink="http://www.w3.org/1999/xlink" x="0px" y="0px"
	 width="64px" height="64px" viewBox="0 0 64 64" enable-background="new 0 0 64 64" xml:space="preserve">
<g>
	<path fill-rule="evenodd" clip-rule="evenodd" d="M48.209,60c-6.617,0-11.985-5.368-11.985-11.995
		c0-6.617,5.368-11.99,11.985-11.99c6.626,0,11.995,5.373,11.995,11.99C60.204,54.632,54.835,60,48.209,60z M56.12,47.813
		c0-1.139-1.166-2.051-2.142-2.051H42.403c-0.976,0-2.151,0.912-2.151,2.051v1.104c0,1.13,1.176,2.051,2.151,2.051h11.575
		c0.976,0,2.142-0.921,2.142-2.051V47.813z M52.976,49.563h-2.278c-0.337,0-0.638-0.091-0.866-0.246v-1.914
		c0.229-0.146,0.529-0.246,0.866-0.246h2.278c0.711,0,1.285,0.429,1.285,0.948v0.511C54.261,49.145,53.687,49.563,52.976,49.563z
		 M43.396,49.563c-0.711,0-1.276-0.419-1.276-0.947v-0.511c0-0.52,0.565-0.948,1.276-0.948h0.101c0.328,0,2.816,0.101,3.044,0.246
		v1.914c-0.228,0.155-0.528,0.246-0.856,0.246H43.396z M32.541,46.483c0,2.023-0.187,3.946,0.602,5.678c0,0-23.306-0.009-23.347,0
		V35.423c0,0,2.693-6.267,6.016-6.267h25.57c1.832,0,3.464,1.887,4.566,3.591C38.712,33.162,32.541,39.146,32.541,46.483z
		 M28.449,25.661c-5.979,0-10.833-4.849-10.833-10.833C17.616,8.849,22.47,4,28.449,4c5.984,0,10.833,4.849,10.833,10.828
		C39.281,20.812,34.433,25.661,28.449,25.661z"/>
</g>
</svg>
