<?xml version="1.0" encoding="utf-8"?>
<!-- Generator: Adobe Illustrator 14.0.0, SVG Export Plug-In . SVG Version: 6.00 Build 43363)  -->
<!DOCTYPE svg PUBLIC "-//W3C//DTD SVG 1.1//EN" "http://www.w3.org/Graphics/SVG/1.1/DTD/svg11.dtd">
<svg version="1.1" id="Capa_1" xmlns="http://www.w3.org/2000/svg" xmlns:xlink="http://www.w3.org/1999/xlink" x="0px" y="0px"
	 width="64px" height="64px" viewBox="0 0 64 64" enable-background="new 0 0 64 64" xml:space="preserve">
<g>
	<path fill-rule="evenodd" clip-rule="evenodd" d="M31.608,12.173c3.069,0,6.197-2.902,6.197-5.973c0-3.07-2.978-6.2-6.049-6.2
		c-3.068,0-6.121,3.204-6.121,6.273C25.636,9.346,28.539,12.173,31.608,12.173z M43.7,29.961c0-2.997,0-6.17,0-9.216
		c0-3.012,0.2-2.723,0-4.606c-0.767-2.305-2.302-3.072-3.837-3.072c-3.282,0-4.37,0-6.905,0c-3.084,0-4.582-0.009-7.651-0.009
		c-1.534,0-2.533-0.101-3.673,0.934c-1.553,1.761-1.396,1.914-1.396,6.829c0,2.429,0,6.667,0,9.376c0,2.426-0.41,6.201,2.018,6.201
		c2.306,0,2.284-1.646,2.284-4.095c0-3.462-0.009-4.36-0.009-6.405c0-2.236-0.128-2.615,0.321-2.615c0.453,0,0.448,0.03,0.448,2.405
		c0,2.201-0.017,33.193-0.017,34.986c0,1.536,0.819,3.182,3.13,3.182c2.305,0,3.267-1.351,3.267-2.887c0-2.766,0-14.813,0-16.123
		c0-1.537,0.051-2.28,0.432-2.28c0.387,0,0.336,0.743,0.336,2.28c0,1.385,0,13.286,0,16.123c0,0.955,1.013,3.03,3.316,3.03
		c1.535,0,2.945-1.974,2.945-2.996c0-6.143,0.035-33.476,0.035-35.409c0-1.046-0.09-2.377,0.304-2.377
		c0.39,0,0.384,0.361,0.384,1.872c0,1.729,0,3.484,0,5.914c0,4.037,0.627,5.098,2.162,5.098C43.896,36.102,43.7,32.158,43.7,29.961z
		"/>
</g>
</svg>
