<?xml version="1.0" encoding="utf-8"?>
<!-- Generator: Adobe Illustrator 14.0.0, SVG Export Plug-In . SVG Version: 6.00 Build 43363)  -->
<!DOCTYPE svg PUBLIC "-//W3C//DTD SVG 1.1//EN" "http://www.w3.org/Graphics/SVG/1.1/DTD/svg11.dtd">
<svg version="1.1" id="Capa_1" xmlns="http://www.w3.org/2000/svg" xmlns:xlink="http://www.w3.org/1999/xlink" x="0px" y="0px"
	 width="64px" height="64px" viewBox="0 0 64 64" enable-background="new 0 0 64 64" xml:space="preserve">
<path d="M40.084,47.223h4.414c-0.487-0.386-1.01-0.807-1.775-1.27c-1.723-1.042-4.049-2.897-1.764-12.897l0.047-0.214
	c1.488-0.777,2.705-2.543,3.113-4.807c0.361-2.01,0.008-3.966-0.836-5.377l1.104-4.93c0,0,0.262-2.14,0.211-3.256
	c-0.053-1.167-0.289-2.007-0.494-2.954c-0.465-2.161-2.289-4.226-2.289-4.226h-0.02C40.506,5.888,36.564,4.01,32.02,4h-0.037
	c-4.548,0.01-8.487,1.888-9.777,3.292h-0.02c0,0-1.823,2.065-2.289,4.226c-0.205,0.947-0.438,1.789-0.493,2.954
	c-0.052,1.116,0.215,3.256,0.215,3.256l1.101,4.93c-0.845,1.412-1.198,3.368-0.837,5.377c0.409,2.264,1.626,4.029,3.112,4.807
	l0.049,0.214c2.283,10-0.041,11.855-1.764,12.897c-7.658,4.634-13.39,5.326-13.39,5.326V60h32.194V47.223z"/>
<polygon points="56.86,42.584 49.723,42.584 49.723,49.723 42.583,49.723 42.583,56.86 49.723,56.86 49.723,64 56.86,64 
	56.86,56.86 64,56.86 64,49.723 56.86,49.723 "/>
</svg>
