<?xml version="1.0" encoding="utf-8"?>
<!-- Generator: Adobe Illustrator 14.0.0, SVG Export Plug-In . SVG Version: 6.00 Build 43363)  -->
<!DOCTYPE svg PUBLIC "-//W3C//DTD SVG 1.1//EN" "http://www.w3.org/Graphics/SVG/1.1/DTD/svg11.dtd">
<svg version="1.1" id="Capa_1" xmlns="http://www.w3.org/2000/svg" xmlns:xlink="http://www.w3.org/1999/xlink" x="0px" y="0px"
	 width="64px" height="64px" viewBox="0 0 64 64" enable-background="new 0 0 64 64" xml:space="preserve">
<g>
	<circle fill-rule="evenodd" clip-rule="evenodd" cx="16.782" cy="18.321" r="7.42"/>
	<path fill-rule="evenodd" clip-rule="evenodd" d="M24.091,37.816c0,0-4.409-4.115-3.813-9.482L8.124,28.136
		c-2.275,0-4.122,4.293-4.122,4.293v8.054c-0.193-0.025,11.641,0.323,12.092,0.014C17.961,38.024,22.619,37.816,24.091,37.816z"/>
	<circle fill-rule="evenodd" clip-rule="evenodd" cx="49.432" cy="16.269" r="6.035"/>
	<path fill-rule="evenodd" clip-rule="evenodd" d="M59.991,27.742c0,0-1.501-3.492-3.352-3.492H45.83
		c0.715,1.401,1.126,2.982,1.126,4.663c0,1.97-0.563,3.806-1.525,5.37c6.143,0.01,14.5,0.045,14.524,0.102
		C60.025,34.408,59.991,27.742,59.991,27.742z"/>
	<path fill-rule="evenodd" clip-rule="evenodd" d="M46.173,42.507H21.905c-3.153,0-5.709,5.948-5.709,5.948v11.311h35.623
		l0.063-11.311C51.883,48.455,49.326,42.507,46.173,42.507z"/>
	<path fill-rule="evenodd" clip-rule="evenodd" d="M23.947,12.482l5.921,1.661l-1.761,6.279c-2.708,1.851-4.488,4.962-4.488,8.491
		c0,5.677,4.602,10.277,10.277,10.277c5.677,0,10.278-4.601,10.278-10.277c0-5.676-4.602-10.278-10.278-10.278
		c-1.482,0-2.888,0.32-4.161,0.885l1.408-5.019l6.28,1.763c0.113,0.031,0.23-0.035,0.262-0.147l2.263-8.065
		c0.031-0.113-0.034-0.23-0.146-0.262L33.52,6.027l0.165-0.588L32.41,5.082L32.245,5.67l-5.921-1.662
		c-0.113-0.031-0.23,0.035-0.261,0.147L23.8,12.221C23.768,12.334,23.834,12.451,23.947,12.482z"/>
</g>
</svg>
