<?xml version="1.0" encoding="utf-8"?>
<!-- Generator: Adobe Illustrator 14.0.0, SVG Export Plug-In . SVG Version: 6.00 Build 43363)  -->
<!DOCTYPE svg PUBLIC "-//W3C//DTD SVG 1.1//EN" "http://www.w3.org/Graphics/SVG/1.1/DTD/svg11.dtd">
<svg version="1.1" id="Capa_1" xmlns="http://www.w3.org/2000/svg" xmlns:xlink="http://www.w3.org/1999/xlink" x="0px" y="0px"
	 width="64px" height="64px" viewBox="0 0 64 64" enable-background="new 0 0 64 64" xml:space="preserve">
<g>
	<circle cx="29.929" cy="16.542" r="12.578"/>
	<g>
		<path d="M42.442,42.442c2.355-2.357,5.336-3.701,8.408-4.051c-1.33-3.086-4.395-5.248-7.965-5.248H16.972
			c-4.791,0-8.675,3.89-8.675,8.686v17.043c0,0.241,0.018,0.48,0.036,0.718h31.9C37.063,54.165,37.79,47.092,42.442,42.442z"/>
	</g>
	<path id="add_6_" d="M60.558,60.558c-4.588,4.59-12.027,4.59-16.615,0c-4.59-4.588-4.59-12.028,0-16.615
		c4.588-4.59,12.027-4.59,16.615,0C65.147,48.529,65.147,55.97,60.558,60.558z M59.731,52.084c0-0.812-0.658-1.469-1.469-1.469
		h-4.314v-4.313c0-0.812-0.658-1.47-1.467-1.47h-0.459c-0.811,0-1.469,0.658-1.469,1.47v4.313h-4.314
		c-0.813,0-1.471,0.657-1.471,1.469v0.459c0,0.81,0.658,1.468,1.471,1.468h4.313v4.313c0,0.812,0.658,1.47,1.469,1.47h0.459
		c0.809,0,1.467-0.658,1.467-1.47v-4.313h4.314c0.811,0,1.469-0.658,1.469-1.468v-0.459H59.731z"/>
</g>
</svg>
