<?xml version="1.0" encoding="utf-8"?>
<!-- Generator: Adobe Illustrator 14.0.0, SVG Export Plug-In . SVG Version: 6.00 Build 43363)  -->
<!DOCTYPE svg PUBLIC "-//W3C//DTD SVG 1.1//EN" "http://www.w3.org/Graphics/SVG/1.1/DTD/svg11.dtd">
<svg version="1.1" id="Capa_1" xmlns="http://www.w3.org/2000/svg" xmlns:xlink="http://www.w3.org/1999/xlink" x="0px" y="0px"
	 width="64px" height="64px" viewBox="0 0 64 64" enable-background="new 0 0 64 64" xml:space="preserve">
<g>
	<path fill-rule="evenodd" clip-rule="evenodd" d="M58.521,20.744c0,3.047,0,6.22,0,9.216c0,2.197,0.195,6.142-2.107,6.142
		c-1.535,0-2.161-1.061-2.161-5.099c0-2.429,0-4.184,0-5.913c0-1.511,0.006-1.872-0.384-1.872c-0.394,0-0.303,1.331-0.303,2.377
		c0,1.933-0.036,29.267-0.036,35.408c0,1.023-1.411,2.997-2.946,2.997c-2.303,0-3.314-2.075-3.314-3.03c0-2.837,0-14.738,0-16.123
		c0-1.537,0.05-2.28-0.336-2.28c-0.381,0-0.432,0.743-0.432,2.28c0,1.311,0,13.357,0,16.123c0,1.536-0.963,2.887-3.267,2.887
		c-2.311,0-3.13-1.646-3.13-3.182c0-1.793,0.017-32.786,0.017-34.986c0-2.376,0.004-2.405-0.448-2.405
		c-0.449,0-0.321,0.379-0.321,2.614c0,2.045,0.008,2.942,0.008,6.405c0,2.449,0.021,4.095-2.283,4.095
		c-2.429,0-2.018-3.775-2.018-6.201c0-2.71,0-6.947,0-9.376c0-4.916-0.156-5.069,1.396-6.83c1.14-1.035,2.139-0.934,3.672-0.934
		c3.07,0,4.566,0.01,7.651,0.01c2.536,0,3.623,0,6.905,0c1.535,0,3.07,0.767,3.837,3.071C58.722,18.021,58.521,17.732,58.521,20.744
		z M46.43,12.173c-3.069,0-5.972-2.828-5.972-5.9c0-3.07,3.053-6.273,6.121-6.273c3.07,0,6.048,3.129,6.048,6.2
		C52.627,9.271,49.499,12.173,46.43,12.173z M28.879,29.96c0,2.197,0.194,6.142-2.107,6.142c-1.535,0-2.161-1.061-2.161-5.099
		c0-2.429,0-4.184,0-5.913c0-1.511,0.006-1.872-0.385-1.872c-0.393,0-0.303,1.331-0.303,2.377c0,1.933-0.036,29.267-0.036,35.408
		c0,1.023-1.41,2.997-2.945,2.997c-2.303,0-3.315-2.075-3.315-3.03c0-2.837,0-14.738,0-16.123c0-1.537,0.05-2.28-0.336-2.28
		c-0.38,0-0.432,0.743-0.432,2.28c0,1.311,0,13.357,0,16.123c0,1.536-0.962,2.887-3.267,2.887c-2.311,0-3.13-1.646-3.13-3.182
		c0-1.793,0.017-32.786,0.017-34.986c0-2.376,0.004-2.405-0.448-2.405c-0.45,0-0.321,0.379-0.321,2.614
		c0,2.045,0.008,2.942,0.008,6.405c0,2.449,0.022,4.095-2.283,4.095c-2.428,0-2.018-3.775-2.018-6.201c0-2.71,0-6.947,0-9.376
		c0-4.916-0.155-5.069,1.397-6.83c1.139-1.035,2.139-0.934,3.672-0.934c3.07,0,4.567,0.01,7.65,0.01c2.536,0,3.623,0,6.905,0
		c1.535,0,3.07,0.767,3.838,3.071c0.199,1.884,0,1.595,0,4.606C28.879,23.791,28.879,26.964,28.879,29.96z M16.786,12.173
		c-3.069,0-5.972-2.828-5.972-5.9c0-3.07,3.053-6.273,6.122-6.273c3.07,0,6.047,3.129,6.047,6.2
		C22.983,9.271,19.856,12.173,16.786,12.173z"/>
</g>
</svg>
