<?xml version="1.0" encoding="utf-8"?>
<!-- Generator: Adobe Illustrator 14.0.0, SVG Export Plug-In . SVG Version: 6.00 Build 43363)  -->
<!DOCTYPE svg PUBLIC "-//W3C//DTD SVG 1.1//EN" "http://www.w3.org/Graphics/SVG/1.1/DTD/svg11.dtd">
<svg version="1.1" id="Capa_1" xmlns="http://www.w3.org/2000/svg" xmlns:xlink="http://www.w3.org/1999/xlink" x="0px" y="0px"
	 width="64px" height="64px" viewBox="0 0 64 64" enable-background="new 0 0 64 64" xml:space="preserve">
<g>
	<path fill-rule="evenodd" clip-rule="evenodd" d="M49.2,62.376c-6.839,0-12.382-5.546-12.382-12.385
		c0-6.844,5.543-12.386,12.382-12.386c6.844,0,12.389,5.542,12.389,12.386C61.589,56.83,56.044,62.376,49.2,62.376z M51.512,54.674
		c0-0.135-0.109-0.243-0.245-0.243h-1.343c-1.851,0-3.434-1.147-4.089-2.767h2.561c0.187,0,0.339-0.164,0.339-0.364v-0.55
		c0-0.203-0.152-0.365-0.339-0.365H45.53c-0.012-0.123-0.016-0.247-0.016-0.376c0-0.125,0.004-0.248,0.016-0.371h2.9
		c0.187,0,0.339-0.163,0.339-0.365v-0.549c0-0.204-0.152-0.366-0.339-0.366h-2.596c0.655-1.619,2.238-2.764,4.089-2.764h1.343
		c0.136,0,0.245-0.109,0.245-0.243v-1.567c0-0.135-0.109-0.242-0.245-0.242c0,0-1.663-0.005-1.685,0
		c-2.851,0.147-5.212,2.148-5.915,4.816h-1.614c-0.188,0-0.339,0.162-0.339,0.366v0.549c0,0.202,0.151,0.365,0.339,0.365h1.412
		c-0.007,0.123-0.01,0.246-0.01,0.371c0,0.128,0.003,0.252,0.01,0.376h-1.448c-0.188,0-0.338,0.162-0.338,0.365v0.55
		c0,0.2,0.15,0.364,0.338,0.364h1.65c0.703,2.668,3.064,4.671,5.915,4.819c0.021,0.004,1.685,0,1.685,0
		c0.136,0,0.245-0.112,0.245-0.245V54.674z M33.327,49.202c0,1.286,0.179,2.528,0.48,3.719l-16.892-0.045V38.224h-0.733V52.83
		c0,0-7.899-0.048-7.92-0.045V35.061c0,0,2.877-6.694,6.426-6.694H42c2.725,0,5.048,3.941,5.983,5.772
		C39.852,34.367,33.327,41.018,33.327,49.202z M28.951,28.686c0-0.095-3.53,0.099-3.607,0l-1.247,11.197
		c0.008,0.315,0.157,0.704,0.157,0.704s2.95,5.797,2.991,5.903c0.042,0.105,0.131,0.16,0.193-0.006
		c0.063-0.165,3.013-5.897,3.013-5.897s0.137-0.365,0.137-0.704L28.951,28.686z M27.574,24.634c-6.388,0-11.567-5.178-11.567-11.566
		C16.007,6.68,21.186,1.5,27.574,1.5c6.389,0,11.566,5.18,11.566,11.568C39.141,19.457,33.963,24.634,27.574,24.634z"/>
</g>
</svg>
