<?xml version="1.0" encoding="utf-8"?>
<!-- Generator: Adobe Illustrator 14.0.0, SVG Export Plug-In . SVG Version: 6.00 Build 43363)  -->
<!DOCTYPE svg PUBLIC "-//W3C//DTD SVG 1.1//EN" "http://www.w3.org/Graphics/SVG/1.1/DTD/svg11.dtd">
<svg version="1.1" id="Capa_1" xmlns="http://www.w3.org/2000/svg" xmlns:xlink="http://www.w3.org/1999/xlink" x="0px" y="0px"
	 width="64px" height="64px" viewBox="0 0 64 64" enable-background="new 0 0 64 64" xml:space="preserve">
<g>
	<path fill-rule="evenodd" clip-rule="evenodd" d="M48.966,62.22c-6.845,0-12.394-5.548-12.394-12.393s5.549-12.391,12.394-12.391
		s12.393,5.546,12.393,12.391S55.811,62.22,48.966,62.22z M53.249,44.406l-6.234,6.239l-2.334-2.331l-2.3,2.302l2.328,2.333
		l2.302,2.3l8.537-8.543L53.249,44.406z M33.038,49.25c0,1.267,0.175,2.49,0.474,3.665c-0.089,0.04-16.649,0-16.649,0V38.429H16.14
		v14.486c0,0-7.786-0.004-7.807,0V35.313c0,0,2.835-6.598,6.333-6.598h26.917c2.687,0,4.977,3.882,5.896,5.687
		C39.468,34.631,33.038,41.182,33.038,49.25z M28.724,29.029c0-0.094-3.478,0.097-3.555,0l-1.227,11.038
		c0.006,0.308,0.153,0.691,0.153,0.691s2.908,5.712,2.949,5.818c0.04,0.105,0.127,0.157,0.188-0.006
		c0.063-0.161,2.971-5.813,2.971-5.813s0.133-0.36,0.133-0.691L28.724,29.029z M27.366,25.036c-6.295,0-11.399-5.104-11.399-11.4
		S21.071,2.235,27.366,2.235c6.297,0,11.401,5.105,11.401,11.401S33.663,25.036,27.366,25.036z"/>
</g>
</svg>
