<?xml version="1.0" encoding="utf-8"?>
<!-- Generator: Adobe Illustrator 14.0.0, SVG Export Plug-In . SVG Version: 6.00 Build 43363)  -->
<!DOCTYPE svg PUBLIC "-//W3C//DTD SVG 1.1//EN" "http://www.w3.org/Graphics/SVG/1.1/DTD/svg11.dtd">
<svg version="1.1" id="Capa_1" xmlns="http://www.w3.org/2000/svg" xmlns:xlink="http://www.w3.org/1999/xlink" x="0px" y="0px"
	 width="64px" height="64px" viewBox="0 0 64 64" enable-background="new 0 0 64 64" xml:space="preserve">
<g>
	<circle cx="31.476" cy="16.587" r="12.656"/>
	<path d="M36.713,52.143c0-0.093,0.006-4.181,0.016-4.271c0.131-0.871-0.572-5.48,4.572-5.275h11.943v-0.567
		c0-4.826-3.91-8.739-8.729-8.739H18.44c-4.82,0-8.729,3.913-8.729,8.739v17.149c0,0.243,0.017,0.483,0.036,0.722h26.967v-7.757
		H36.713z"/>
	<path d="M61.807,64H42.791c-1.211,0-2.193-0.967-2.193-2.156V50.177l11.701,7.433L64,50.177v11.667C64,63.033,63.02,64,61.807,64z"
		/>
	<path d="M40.598,48.261c0-0.079,0.006-0.154,0.016-0.229c0.115-1.086,1.045-1.929,2.178-1.929h19.016
		c1.127,0,2.061,0.842,2.182,1.918C63.998,48.1,64,48.18,64,48.261l-11.701,7.43L40.598,48.261z"/>
</g>
</svg>
