<?xml version="1.0" encoding="utf-8"?>
<!-- Generator: Adobe Illustrator 14.0.0, SVG Export Plug-In . SVG Version: 6.00 Build 43363)  -->
<!DOCTYPE svg PUBLIC "-//W3C//DTD SVG 1.1//EN" "http://www.w3.org/Graphics/SVG/1.1/DTD/svg11.dtd">
<svg version="1.1" id="Capa_1" xmlns="http://www.w3.org/2000/svg" xmlns:xlink="http://www.w3.org/1999/xlink" x="0px" y="0px"
	 width="64px" height="64px" viewBox="0 0 64 64" enable-background="new 0 0 64 64" xml:space="preserve">
<g>
	<circle cx="30.687" cy="16.644" r="12.648"/>
	<g>
		<path d="M47.716,53.197l-1.371-1.468c0,0-0.014-0.55,0.34-0.619c0.58-0.115,1.758,0.113,2.719-0.909
			c1.531-1.634-1.504-3.515,2.637-7.385c0.125-0.116,0.244-0.215,0.365-0.318c-0.238-6.165-4.068-9.161-8.693-9.161H17.657
			c-4.817,0-8.724,3.909-8.724,8.733v17.138c0,0.243,0.019,0.481,0.036,0.721h31.684l2.154-2.081L47.716,53.197z"/>
	</g>
	<path d="M63.077,44.999c-1.781-1.714-3.471-0.753-4.078-0.223c-1.893-0.592-3.146-1.297-5.066,0.577
		c-2.436,2.379,0.039,4.655-0.859,5.657c-0.563,0.626-1.273,0.505-1.619,0.582c-0.211,0.047-0.197,0.376-0.197,0.376l0.844,0.863
		l0,0l0.002,0.006l-0.002-0.006l-2.885,2.858l-1.502,1.471l0.012,1.298l-1.184,1.158l-1.453-0.398l-0.736,0.72l-0.26,3.197
		L44.942,64l1.426-0.078l8.611-8.142l0.846,0.865c0,0,0.332,0.022,0.385-0.185c0.084-0.346-0.021-1.062,0.619-1.606
		c1.021-0.874,3.242,1.653,5.674-0.723c1.924-1.88,1.248-3.146,0.701-5.054C63.745,48.483,64.747,46.818,63.077,44.999z
		 M62.157,48.09c-0.623,0.603-1.615,0.593-2.221-0.028c-0.602-0.617-0.592-1.608,0.025-2.215c0.623-0.605,1.613-0.592,2.219,0.027
		C62.786,46.492,62.772,47.484,62.157,48.09z"/>
</g>
</svg>
