<?xml version="1.0" encoding="utf-8"?>
<!-- Generator: Adobe Illustrator 14.0.0, SVG Export Plug-In . SVG Version: 6.00 Build 43363)  -->
<!DOCTYPE svg PUBLIC "-//W3C//DTD SVG 1.1//EN" "http://www.w3.org/Graphics/SVG/1.1/DTD/svg11.dtd">
<svg version="1.1" id="Capa_1" xmlns="http://www.w3.org/2000/svg" xmlns:xlink="http://www.w3.org/1999/xlink" x="0px" y="0px"
	 width="64px" height="64px" viewBox="0 0 64 64" enable-background="new 0 0 64 64" xml:space="preserve">
<g>
	<circle cx="30.038" cy="16.548" r="12.582"/>
	<g>
		<path fill-rule="evenodd" clip-rule="evenodd" d="M63.414,49.457L49.998,61.383c-0.061,0.077-0.104,0.164-0.183,0.231
			l-1.743,1.482l-0.641,0.568c-0.293,0.233-0.642,0.339-0.989,0.335c-0.447,0.005-0.895-0.174-1.208-0.544l-6.981-8.228
			c-0.557-0.659-0.476-1.645,0.181-2.204l2.381-2.021c0.659-0.561,1.644-0.479,2.2,0.181l3.898,4.591l12.599-11.198
			c0.675-0.54,1.657-0.431,2.195,0.245l1.951,2.44C64.197,47.935,64.087,48.918,63.414,49.457z"/>
	</g>
	<g>
		<path d="M33.709,55.208c-0.412-0.504-1.167-1.75-0.125-2.75c0.917-1.125,5.789-5.302,7.041-6.583c2-1.458,3.104,0.573,3.542,0.917
			L46.75,49.5l4.656-4.125l-0.031-4.667c-0.042-1.916-1.083-3.333-0.943-3.331c-1.518-2.528-4.273-4.225-7.432-4.225H17.077
			c-4.792,0-8.677,3.889-8.677,8.688c0,0,0.019,17.527,0.036,17.765L37.5,59.542C37.5,59.542,34.084,55.667,33.709,55.208z"/>
	</g>
</g>
</svg>
