<?xml version="1.0" encoding="utf-8"?>
<!-- Generator: Adobe Illustrator 14.0.0, SVG Export Plug-In . SVG Version: 6.00 Build 43363)  -->
<!DOCTYPE svg PUBLIC "-//W3C//DTD SVG 1.1//EN" "http://www.w3.org/Graphics/SVG/1.1/DTD/svg11.dtd">
<svg version="1.1" id="Capa_1" xmlns="http://www.w3.org/2000/svg" xmlns:xlink="http://www.w3.org/1999/xlink" x="0px" y="0px"
	 width="64px" height="64px" viewBox="0 0 64 64" enable-background="new 0 0 64 64" xml:space="preserve">
<g>
	<circle cx="24.036" cy="15.476" r="14.21"/>
	<polygon fill-rule="evenodd" clip-rule="evenodd" points="55.097,70.783 55.097,80.088 45.794,80.088 45.794,70.783 36.489,70.783 
		36.489,61.479 45.794,61.479 45.794,52.176 55.097,52.176 55.097,61.479 64.401,61.479 64.401,70.783 	"/>
	<path d="M38.675,34.23H25.806l2.004,13.705c0,0.412-0.168,0.859-0.168,0.859s-3.61,7.018-3.687,7.219
		c-0.079,0.201-0.187,0.137-0.237,0.006c-0.049-0.131-3.66-7.225-3.66-7.225s-0.182-0.475-0.19-0.859l1.524-13.705H9.398
		c-5.412,0-9.8,4.393-9.8,9.811v19.254c0,0.273,0.02,0.543,0.041,0.811h31.516V58.09h11.082V47.008h6.236v-2.967
		C48.474,38.623,44.087,34.23,38.675,34.23z"/>
</g>
</svg>
