<?xml version="1.0" encoding="utf-8"?>
<!-- Generator: Adobe Illustrator 14.0.0, SVG Export Plug-In . SVG Version: 6.00 Build 43363)  -->
<!DOCTYPE svg PUBLIC "-//W3C//DTD SVG 1.1//EN" "http://www.w3.org/Graphics/SVG/1.1/DTD/svg11.dtd">
<svg version="1.1" id="Capa_1" xmlns="http://www.w3.org/2000/svg" xmlns:xlink="http://www.w3.org/1999/xlink" x="0px" y="0px"
	 width="64px" height="64px" viewBox="0 0 64 64" enable-background="new 0 0 64 64" xml:space="preserve">
<path d="M60.516,8.25v51.695l-5.791-0.064V12.316v0.002c0-1.143-0.729-2.066-1.625-2.066H10.903c-0.894,0-1.622,0.925-1.622,2.063
	V59.49H3.438V8.186L3.436,8.185l0.002-0.006V7.756h0.033c0.172-2.077,1.535-3.701,3.213-3.701H57.32
	c1.793,0,3.244,1.849,3.244,4.131L60.516,8.25z M38.064,34.836c4.502,0,8.146-3.647,8.146-8.147s-3.645-8.148-8.146-8.148
	c-4.498,0-8.146,3.648-8.146,8.148S33.566,34.836,38.064,34.836z M46.459,37.439H29.671c-0.145,0-0.288,0.014-0.433,0.023
	c-2.9,0.223-5.188,2.643-5.188,5.605v0.773v10.268c0,0.156,0.012,0.311,0.023,0.465h27.978c0.014-0.154,0.023-0.309,0.023-0.465
	V43.068C52.076,39.961,49.563,37.439,46.459,37.439z M25.157,33.156H15.059c-1.867,0-3.38,1.514-3.38,3.383v6.639
	c0,0.094,0.007,0.189,0.016,0.281h10.429V42.52c0-3.596,2.776-6.535,6.298-6.807C28.052,34.246,26.736,33.156,25.157,33.156z
	 M20.108,31.59c2.705,0,4.9-2.194,4.9-4.899c0-2.707-2.195-4.9-4.9-4.9c-2.706,0-4.9,2.193-4.9,4.9
	C15.207,29.396,17.401,31.59,20.108,31.59z"/>
</svg>
