<?xml version="1.0" encoding="utf-8"?>
<!-- Generator: Adobe Illustrator 14.0.0, SVG Export Plug-In . SVG Version: 6.00 Build 43363)  -->
<!DOCTYPE svg PUBLIC "-//W3C//DTD SVG 1.1//EN" "http://www.w3.org/Graphics/SVG/1.1/DTD/svg11.dtd">
<svg version="1.1" id="Capa_1" xmlns="http://www.w3.org/2000/svg" xmlns:xlink="http://www.w3.org/1999/xlink" x="0px" y="0px"
	 width="64px" height="64px" viewBox="0 0 64 64" enable-background="new 0 0 64 64" xml:space="preserve">
<g>
	<circle cx="41.613" cy="16.663" r="12.663"/>
	<g>
		<path d="M54.66,33.376H28.569c-0.226,0-0.449,0.017-0.672,0.034c-4.508,0.345-8.061,4.107-8.061,8.708v1.203v15.955
			c0,0.244,0.017,0.484,0.037,0.724h43.482c0.02-0.239,0.037-0.479,0.037-0.724V42.12C63.395,37.291,59.482,33.376,54.66,33.376z"/>
		<g>
			<path d="M21.551,26.716H5.861c-2.901,0-5.253,2.355-5.253,5.258v10.319c0,0.147,0.011,0.292,0.023,0.435h16.208v-1.461
				c0-5.588,4.316-10.156,9.789-10.574C26.055,28.412,24.008,26.716,21.551,26.716z"/>
			<circle cx="13.706" cy="16.665" r="7.615"/>
		</g>
	</g>
</g>
</svg>
