<?xml version="1.0" encoding="utf-8"?>
<!-- Generator: Adobe Illustrator 14.0.0, SVG Export Plug-In . SVG Version: 6.00 Build 43363)  -->
<!DOCTYPE svg PUBLIC "-//W3C//DTD SVG 1.1//EN" "http://www.w3.org/Graphics/SVG/1.1/DTD/svg11.dtd">
<svg version="1.1" id="Capa_1" xmlns="http://www.w3.org/2000/svg" xmlns:xlink="http://www.w3.org/1999/xlink" x="0px" y="0px"
	 width="64px" height="64px" viewBox="0 0 64 64" enable-background="new 0 0 64 64" xml:space="preserve">
<g>
	<circle cx="41.006" cy="16.663" r="12.663"/>
	<g>
		<path d="M41.104,41.104c5.91-5.91,15.351-6.112,21.52-0.64c-0.772-4.036-4.314-7.088-8.571-7.088H27.961
			c-0.227,0-0.449,0.017-0.672,0.034c-4.508,0.345-8.061,4.107-8.061,8.708v1.203v15.955c0,0.244,0.018,0.484,0.037,0.724h19.312
			C35.15,53.997,35.981,46.226,41.104,41.104z"/>
		<path d="M20.943,26.716H5.254C2.353,26.716,0,29.071,0,31.975v10.318c0,0.147,0.012,0.292,0.023,0.435h16.208v-1.461
			c0-5.588,4.315-10.156,9.788-10.573C25.447,28.412,23.4,26.716,20.943,26.716z"/>
		<circle cx="13.099" cy="16.664" r="7.615"/>
	</g>
	<path d="M60.548,43.888c-4.598-4.601-12.06-4.601-16.66,0s-4.601,12.061,0,16.662c4.601,4.601,12.063,4.601,16.66,0
		C65.15,55.948,65.15,48.488,60.548,43.888z M59.719,52.514c0,0.814-0.658,1.472-1.472,1.472h-4.325v4.325
		c0,0.813-0.66,1.474-1.472,1.474h-0.461c-0.813,0-1.472-0.66-1.472-1.474v-4.325H46.19c-0.812,0-1.471-0.657-1.471-1.472v-0.46
		c0-0.812,0.657-1.472,1.471-1.472h4.327v-4.325c0-0.813,0.658-1.474,1.472-1.474h0.461c0.812,0,1.472,0.66,1.472,1.474v4.325h4.325
		c0.813,0,1.472,0.658,1.472,1.472V52.514z"/>
</g>
</svg>
