<?xml version="1.0" encoding="utf-8"?>
<!-- Generator: Adobe Illustrator 14.0.0, SVG Export Plug-In . SVG Version: 6.00 Build 43363)  -->
<!DOCTYPE svg PUBLIC "-//W3C//DTD SVG 1.1//EN" "http://www.w3.org/Graphics/SVG/1.1/DTD/svg11.dtd">
<svg version="1.1" id="Capa_1" xmlns="http://www.w3.org/2000/svg" xmlns:xlink="http://www.w3.org/1999/xlink" x="0px" y="0px"
	 width="64px" height="64px" viewBox="0 0 64 64" enable-background="new 0 0 64 64" xml:space="preserve">
<g>
	<path fill-rule="evenodd" clip-rule="evenodd" d="M60.781,36.233c-1.539,0-2.547-3.8-3.08-5.396
		c-0.77-2.312-0.77-2.312-1.539-4.623c-0.822-2.464-0.555-2.672-1.076-2.531c-0.377,0.234-0.078,0.641,0.152,1.725
		c0.596,2.363,4.773,16.991,4.773,16.991h-6.16c0,0,0,12.329,0,18.494c0,1.027-0.602,3.059-2.648,3.059
		c-2.262,0-2.744-2.1-2.744-3.059c0-2.849,0-14.791,0-16.183c0-1.541,0.053-2.288-0.336-2.288c-0.383,0-0.432,0.747-0.432,2.288
		c0,1.317,0,13.406,0,16.183c0,1.542-0.723,3.106-2.77,3.106c-2.092,0-2.623-1.564-2.623-3.106c0-1.797,0-18.494,0-18.494h-6.162
		c0,0,4.795-14.773,5.393-16.954c0.299-0.862,0.678-1.386,0.299-1.537c-0.598-0.225-0.906,1.115-1.07,1.537
		c-0.77,2.312-0.77,2.312-1.539,4.622c-0.77,2.313-2.311,6.937-4.621,6.166s-0.771-3.854,0-6.166c0.77-2.311,2.311-6.936,3.08-9.247
		c0.771-2.312,0.771-2.312,1.541-4.624c0.77-2.311,3.08-3.082,4.621-3.082c3.08,0,3.066,0,6.162,0c2.543,0,0.553,0,3.85,0
		c1.539,0,3.08,0.771,3.85,3.082c0.771,2.312,0.771,1.542,1.541,4.624c0.77,2.312,1.455,4.371,3.08,9.247
		C63.863,34.692,63.094,36.233,60.781,36.233z M48.646,12.216c-3.08,0-5.992-2.838-5.992-5.921C42.654,3.213,45.717,0,48.797,0
		s6.066,3.138,6.066,6.22C54.863,9.303,51.727,12.216,48.646,12.216z M28.28,36.233c-1.539,0-2.548-3.8-3.08-5.396
		c-0.771-2.312-0.771-2.312-1.539-4.623c-0.822-2.464-0.554-2.672-1.076-2.531c-0.376,0.234-0.077,0.641,0.151,1.725
		c0.598,2.363,4.774,16.991,4.774,16.991h-6.16c0,0,0,12.329,0,18.494c0,1.027-0.602,3.059-2.648,3.059
		c-2.262,0-2.743-2.1-2.743-3.059c0-2.849,0-14.791,0-16.183c0-1.541,0.051-2.288-0.338-2.288c-0.381,0-0.432,0.747-0.432,2.288
		c0,1.317,0,13.406,0,16.183c0,1.542-0.723,3.106-2.768,3.106c-2.094,0-2.624-1.564-2.624-3.106c0-1.797,0-18.494,0-18.494H3.636
		c0,0,4.796-14.773,5.392-16.954c0.301-0.862,0.678-1.386,0.301-1.537c-0.599-0.225-0.906,1.115-1.07,1.537
		c-0.77,2.312-0.77,2.312-1.541,4.622c-0.77,2.313-2.31,6.937-4.62,6.166s-0.771-3.854,0-6.166c0.77-2.311,2.311-6.936,3.079-9.247
		c0.771-2.312,0.771-2.312,1.541-4.624c0.771-2.311,3.081-3.082,4.622-3.082c3.079,0,3.066,0,6.161,0c2.543,0,0.555,0,3.851,0
		c1.54,0,3.079,0.771,3.85,3.082c0.771,2.312,0.771,1.542,1.541,4.624c0.77,2.312,1.455,4.371,3.079,9.247
		C31.362,34.692,30.592,36.233,28.28,36.233z M16.146,12.216c-3.08,0-5.993-2.838-5.993-5.921C10.152,3.213,13.216,0,16.296,0
		s6.065,3.138,6.065,6.22C22.361,9.303,19.226,12.216,16.146,12.216z"/>
</g>
</svg>
