<?xml version="1.0" encoding="utf-8"?>
<!-- Generator: Adobe Illustrator 14.0.0, SVG Export Plug-In . SVG Version: 6.00 Build 43363)  -->
<!DOCTYPE svg PUBLIC "-//W3C//DTD SVG 1.1//EN" "http://www.w3.org/Graphics/SVG/1.1/DTD/svg11.dtd">
<svg version="1.1" id="Capa_1" xmlns="http://www.w3.org/2000/svg" xmlns:xlink="http://www.w3.org/1999/xlink" x="0px" y="0px"
	 width="64px" height="64px" viewBox="0 0 64 64" enable-background="new 0 0 64 64" xml:space="preserve">
<g>
	<path d="M17.792,43.699c0,0,1.46-0.008-0.002-0.018C17.791,43.686,17.792,43.699,17.792,43.699z"/>
	<polygon points="58.259,58.256 58.259,64 52.517,64 52.517,58.256 46.774,58.256 46.774,52.517 52.517,52.517 52.517,46.774 
		58.259,46.774 58.259,52.517 64,52.517 64,58.256 	"/>
	<path d="M58.349,8.25v35.695h-5.791V12.316v0.002c0-1.143-0.729-2.066-1.625-2.066H8.736c-0.894,0-1.622,0.925-1.622,2.063V59.49
		H1.271V8.186L1.269,8.185l0.002-0.006V7.756h0.033c0.172-2.077,1.535-3.701,3.213-3.701h50.636c1.793,0,3.244,1.849,3.244,4.131
		L58.349,8.25z M35.897,34.836c4.502,0,8.146-3.647,8.146-8.147s-3.645-8.148-8.146-8.148c-4.498,0-8.146,3.648-8.146,8.148
		S31.399,34.836,35.897,34.836z M44.292,37.439H27.504c-0.145,0-0.288,0.014-0.433,0.023c-2.9,0.223-5.188,2.643-5.188,5.605v0.773
		v10.268c0,0.156,0.012,0.311,0.023,0.465h22.077v-4.465h5.925v-7.041C49.909,39.961,47.396,37.439,44.292,37.439z M22.99,33.156
		H12.892c-1.867,0-3.38,1.514-3.38,3.383v6.639c0,0.094,0.007,0.189,0.016,0.281h10.429V42.52c0-3.596,2.776-6.535,6.298-6.807
		C25.885,34.246,24.569,33.156,22.99,33.156z M17.941,31.59c2.705,0,4.9-2.194,4.9-4.899c0-2.707-2.195-4.9-4.9-4.9
		c-2.706,0-4.9,2.193-4.9,4.9C13.04,29.396,15.234,31.59,17.941,31.59z"/>
</g>
</svg>
