<?xml version="1.0" encoding="utf-8"?>
<!-- Generator: Adobe Illustrator 14.0.0, SVG Export Plug-In . SVG Version: 6.00 Build 43363)  -->
<!DOCTYPE svg PUBLIC "-//W3C//DTD SVG 1.1//EN" "http://www.w3.org/Graphics/SVG/1.1/DTD/svg11.dtd">
<svg version="1.1" id="Capa_1" xmlns="http://www.w3.org/2000/svg" xmlns:xlink="http://www.w3.org/1999/xlink" x="0px" y="0px"
	 width="64px" height="64px" viewBox="0 0 64 64" enable-background="new 0 0 64 64" xml:space="preserve">
<g>
	<path fill-rule="evenodd" clip-rule="evenodd" d="M32.396,12.216c3.081,0,6.216-2.914,6.216-5.996c0-3.082-2.985-6.22-6.065-6.22
		s-6.144,3.213-6.144,6.295C26.403,9.378,29.316,12.216,32.396,12.216z M46.072,30.067c-1.625-4.876-2.311-6.936-3.08-9.247
		c-0.771-3.082-0.771-2.312-1.541-4.624c-0.771-2.311-2.31-3.082-3.85-3.082c-3.296,0-1.308,0-3.851,0c-3.095,0-3.082,0-6.161,0
		c-1.541,0-3.852,0.771-4.622,3.082c-0.77,2.313-0.77,2.313-1.541,4.624c-0.769,2.312-2.31,6.937-3.079,9.247
		c-0.771,2.313-2.312,5.396,0,6.166c2.311,0.771,3.851-3.853,4.62-6.166c0.771-2.311,0.771-2.311,1.541-4.622
		c0.164-0.421,0.472-1.762,1.07-1.537c0.377,0.151,0,0.675-0.301,1.537c-0.597,2.182-5.392,16.954-5.392,16.954h6.162
		c0,0,0,16.697,0,18.494c0,1.542,0.53,3.106,2.624,3.106c2.045,0,2.768-1.564,2.768-3.106c0-2.776,0-14.865,0-16.183
		c0-1.541,0.05-2.288,0.432-2.288c0.389,0,0.338,0.747,0.338,2.288c0,1.392,0,13.335,0,16.183c0,0.959,0.481,3.059,2.743,3.059
		c2.047,0,2.648-2.031,2.648-3.059c0-6.165,0-18.494,0-18.494h6.16c0,0-4.177-14.628-4.773-16.991
		c-0.229-1.083-0.528-1.49-0.152-1.725c0.522-0.141,0.254,0.067,1.076,2.531c0.769,2.312,0.769,2.312,1.539,4.624
		c0.532,1.595,1.541,5.395,3.08,5.395C46.844,36.233,47.613,34.692,46.072,30.067z"/>
</g>
</svg>
