<?xml version="1.0" encoding="utf-8"?>
<!-- Generator: Adobe Illustrator 14.0.0, SVG Export Plug-In . SVG Version: 6.00 Build 43363)  -->
<!DOCTYPE svg PUBLIC "-//W3C//DTD SVG 1.1//EN" "http://www.w3.org/Graphics/SVG/1.1/DTD/svg11.dtd">
<svg version="1.1" id="Capa_1" xmlns="http://www.w3.org/2000/svg" xmlns:xlink="http://www.w3.org/1999/xlink" x="0px" y="0px"
	 width="64px" height="64px" viewBox="0 0 64 64" enable-background="new 0 0 64 64" xml:space="preserve">
<g>
	<path fill-rule="evenodd" clip-rule="evenodd" d="M32.001,50.912c-0.041,0-0.077-0.004-0.116-0.004
		c-3.007,2.719-6.861,5.265-10.766,5.259c2.011-1.277,3.408-3.612,4.36-5.867C13.165,48.036,4,39.537,4,29.373
		c0-11.896,12.535-21.54,28.001-21.54C47.463,7.833,60,17.477,60,29.373C60,41.27,47.463,50.912,32.001,50.912z M36.012,36.225
		c0-0.183-0.151-0.332-0.334-0.332h-1.825c-2.514,0-4.669-1.556-5.556-3.757h3.478c0.254,0,0.463-0.223,0.463-0.496v-0.748
		c0-0.273-0.209-0.496-0.463-0.496h-3.893c-0.014-0.167-0.02-0.337-0.02-0.508c0-0.17,0.006-0.337,0.02-0.505h3.941
		c0.256,0,0.461-0.223,0.461-0.498V28.14c0-0.275-0.206-0.498-0.461-0.498h-3.526c0.887-2.201,3.042-3.757,5.556-3.757h1.825
		c0.183,0,0.334-0.149,0.334-0.331v-2.125c0-0.184-0.151-0.333-0.334-0.333c0,0-2.263-0.008-2.29,0
		c-3.875,0.204-7.083,2.92-8.037,6.547h-2.193c-0.254,0-0.461,0.223-0.461,0.498v0.744c0,0.275,0.208,0.498,0.461,0.498h1.918
		c-0.01,0.168-0.016,0.337-0.016,0.505c0,0.171,0.006,0.341,0.016,0.508h-1.965c-0.256,0-0.463,0.223-0.463,0.496v0.748
		c0,0.273,0.208,0.496,0.463,0.496h2.24c0.953,3.627,4.162,6.344,8.037,6.545c0.027,0.01,2.29,0,2.29,0
		c0.183,0,0.334-0.146,0.334-0.329V36.225z"/>
</g>
</svg>
