<?xml version="1.0" encoding="utf-8"?>
<!-- Generator: Adobe Illustrator 14.0.0, SVG Export Plug-In . SVG Version: 6.00 Build 43363)  -->
<!DOCTYPE svg PUBLIC "-//W3C//DTD SVG 1.1//EN" "http://www.w3.org/Graphics/SVG/1.1/DTD/svg11.dtd">
<svg version="1.1" id="Capa_1" xmlns="http://www.w3.org/2000/svg" xmlns:xlink="http://www.w3.org/1999/xlink" x="0px" y="0px"
	 width="64px" height="64px" viewBox="0 0 64 64" enable-background="new 0 0 64 64" xml:space="preserve">
<g>
	<path fill-rule="evenodd" clip-rule="evenodd" d="M32.001,64C14.327,64,0,49.674,0,32C0,14.327,14.327,0,32.001,0
		C49.674,0,64,14.327,64,32C64,49.674,49.674,64,32.001,64z M29.476,47.391h4.753c0.438,0,0.794-0.354,0.794-0.793
		c0-0.437-0.356-0.791-0.794-0.791h-4.753c-0.438,0-0.793,0.354-0.793,0.791C28.683,47.037,29.038,47.391,29.476,47.391z
		 M27.098,44.222c0,0.438,0.355,0.791,0.793,0.791h7.922c0.438,0,0.793-0.354,0.793-0.791v-0.793c0-0.438-0.354-0.791-0.793-0.791
		h-7.922c-0.438,0-0.793,0.354-0.793,0.791V44.222z M27.098,41.053c0,0.437,0.355,0.793,0.793,0.793h7.922
		c0.438,0,0.793-0.356,0.793-0.793V40.26c0-0.437-0.354-0.792-0.793-0.792h-7.922c-0.438,0-0.793,0.355-0.793,0.792V41.053z
		 M31.853,18.869c-5.251,0-9.508,4.078-9.508,9.109c0,2.941,1.455,5.559,3.715,7.223l1.386,3.451h8.765l1.434-3.451
		c2.262-1.664,3.716-4.282,3.716-7.223C41.359,22.947,37.103,18.869,31.853,18.869z"/>
</g>
</svg>
