<?xml version="1.0" encoding="utf-8"?>
<!-- Generator: Adobe Illustrator 14.0.0, SVG Export Plug-In . SVG Version: 6.00 Build 43363)  -->
<!DOCTYPE svg PUBLIC "-//W3C//DTD SVG 1.1//EN" "http://www.w3.org/Graphics/SVG/1.1/DTD/svg11.dtd">
<svg version="1.1" id="Capa_1" xmlns="http://www.w3.org/2000/svg" xmlns:xlink="http://www.w3.org/1999/xlink" x="0px" y="0px"
	 width="64px" height="64px" viewBox="0 0 64 64" enable-background="new 0 0 64 64" xml:space="preserve">
<path id="wheels_2_" d="M55.706,13.958c0,0.701-0.067,1.389-0.194,2.053l3.141,1.499c-0.288,1.119-0.709,2.183-1.248,3.176
	l-3.268-1.104c-1.099,1.811-2.712,3.274-4.635,4.187l0.76,3.277c-1.052,0.419-2.164,0.716-3.325,0.87l-1.139-3.143
	c-0.312,0.025-0.627,0.04-0.944,0.04c-1.778,0-3.455-0.428-4.935-1.185l-1.959,2.474c-1.018-0.598-1.948-1.321-2.779-2.147
	l1.646-2.687c-1.246-1.371-2.15-3.062-2.567-4.933l-3.014,0.01c-0.127-0.755-0.192-1.533-0.192-2.324
	c0-0.418,0.018-0.835,0.054-1.245l3.002-0.371c0.262-1.814,0.967-3.484,2.011-4.892l-1.9-2.367c0.76-0.926,1.634-1.753,2.603-2.459
	l2.179,2.129c1.49-0.955,3.23-1.555,5.101-1.684L44.8,0.004L45.071,0c1.117,0,2.202,0.133,3.246,0.378l-0.325,3.188
	c1.891,0.57,3.565,1.644,4.865,3.063l3.063-1.486c0.729,0.889,1.351,1.872,1.847,2.924l-2.845,1.834
	C55.429,11.153,55.706,12.523,55.706,13.958z M44.854,10.783c-1.755,0-3.177,1.421-3.177,3.175c0,1.753,1.422,3.174,3.177,3.174
	c1.752,0,3.174-1.421,3.174-3.174C48.027,12.205,46.605,10.783,44.854,10.783z M32.006,25.386c2.002,0.619,3.857,1.577,5.496,2.806
	l2.442-2.164c1.246,0.995,2.379,2.128,3.375,3.374l-2.165,2.442c1.229,1.641,2.184,3.494,2.804,5.497l3.25-0.314
	c0.416,1.513,0.668,3.088,0.74,4.717l-3.187,0.703l0.002,0.249c0,2.045-0.339,4.012-0.962,5.846l2.812,1.653
	c-0.565,1.505-1.296,2.93-2.169,4.251l-2.994-1.304c-1.194,1.69-2.668,3.167-4.361,4.361l1.304,2.991
	c-1.321,0.874-2.744,1.605-4.252,2.172l-1.653-2.815c-1.834,0.623-3.795,0.962-5.841,0.962l-0.252-0.002L25.69,64
	c-1.625-0.071-3.202-0.325-4.715-0.742l0.316-3.248c-2.004-0.62-3.859-1.577-5.496-2.804l-2.442,2.163
	c-1.249-0.995-2.381-2.129-3.377-3.376l2.166-2.441c-1.229-1.639-2.184-3.494-2.804-5.496l-3.25,0.313
	c-0.415-1.511-0.669-3.09-0.741-4.715l3.186-0.706l-0.002-0.252c0-2.044,0.339-4.008,0.964-5.841L6.682,35.2
	c0.563-1.506,1.295-2.93,2.168-4.252l2.992,1.305c1.196-1.69,2.672-3.166,4.363-4.361L14.902,24.9
	c1.322-0.875,2.746-1.605,4.25-2.171l1.655,2.815c1.833-0.625,3.797-0.962,5.839-0.962l0.254,0.002l0.706-3.187
	c1.624,0.071,3.203,0.325,4.713,0.741L32.006,25.386z M26.523,31.048c-6.607,0-11.964,5.355-11.964,11.963
	c0,6.609,5.356,11.965,11.964,11.965s11.965-5.355,11.965-11.965C38.488,36.403,33.131,31.048,26.523,31.048z"/>
</svg>
