<?xml version="1.0" encoding="utf-8"?>
<!-- Generator: Adobe Illustrator 14.0.0, SVG Export Plug-In . SVG Version: 6.00 Build 43363)  -->
<!DOCTYPE svg PUBLIC "-//W3C//DTD SVG 1.1//EN" "http://www.w3.org/Graphics/SVG/1.1/DTD/svg11.dtd">
<svg version="1.1" id="Capa_1" xmlns="http://www.w3.org/2000/svg" xmlns:xlink="http://www.w3.org/1999/xlink" x="0px" y="0px"
	 width="64px" height="64px" viewBox="0 0 64 64" enable-background="new 0 0 64 64" xml:space="preserve">
<path id="add_5_" d="M54.627,54.627c-12.496,12.497-32.758,12.497-45.254,0c-12.499-12.498-12.499-32.758,0-45.254
	c12.496-12.498,32.758-12.498,45.254,0C67.125,21.869,67.125,42.131,54.627,54.627z M52.375,31.554c0-2.211-1.792-4-4-4h-11.75
	v-11.75c0-2.211-1.792-4-4-4h-1.249c-2.209,0-4.001,1.791-4.001,4v11.75h-11.75c-2.208,0-4,1.79-4,4v1.249
	c0,2.208,1.792,4.001,4,4.001h11.75v11.748c0,2.209,1.792,4,4,4h1.25c2.208,0,4-1.791,4-4V36.804h11.75c2.208,0,4-1.793,4-4.001
	V31.554L52.375,31.554z"/>
</svg>
