<?xml version="1.0" encoding="utf-8"?>
<!-- Generator: Adobe Illustrator 14.0.0, SVG Export Plug-In . SVG Version: 6.00 Build 43363)  -->
<!DOCTYPE svg PUBLIC "-//W3C//DTD SVG 1.1//EN" "http://www.w3.org/Graphics/SVG/1.1/DTD/svg11.dtd">
<svg version="1.1" id="Capa_1" xmlns="http://www.w3.org/2000/svg" xmlns:xlink="http://www.w3.org/1999/xlink" x="0px" y="0px"
	 width="64px" height="64px" viewBox="0 0 64 64" enable-background="new 0 0 64 64" xml:space="preserve">
<path id="play_3_" d="M32,64C14.325,64,0,49.673,0,32C0,14.327,14.325,0,32,0c17.673,0,32,14.327,32,32C64,49.673,49.673,64,32,64z
	 M32,8C18.745,8,8,18.744,8,32c0,13.254,10.745,24,24,24s24-10.746,24-24C56,18.744,45.255,8,32,8z M27.313,42.755
	c-0.783,0.438-1.813-0.046-1.813-1.037c0-1.006,0-18.672,0-19.366c0-0.901,0.933-1.57,1.853-1.043
	c0.738,0.42,15.478,8.935,16.737,9.663c0.828,0.479,0.814,1.619,0,2.1C43.184,33.604,28.385,42.16,27.313,42.755z"/>
</svg>
