<?xml version="1.0" encoding="utf-8"?>
<!-- Generator: Adobe Illustrator 14.0.0, SVG Export Plug-In . SVG Version: 6.00 Build 43363)  -->
<!DOCTYPE svg PUBLIC "-//W3C//DTD SVG 1.1//EN" "http://www.w3.org/Graphics/SVG/1.1/DTD/svg11.dtd">
<svg version="1.1" id="Capa_1" xmlns="http://www.w3.org/2000/svg" xmlns:xlink="http://www.w3.org/1999/xlink" x="0px" y="0px"
	 width="64px" height="64px" viewBox="0 0 64 64" enable-background="new 0 0 64 64" xml:space="preserve">
<g>
	<path fill-rule="evenodd" clip-rule="evenodd" d="M32,64C14.326,64,0,49.674,0,32S14.326,0,32,0c17.673,0,32,14.326,32,32
		S49.673,64,32,64z M37.964,44.099c0-0.349-0.282-0.631-0.631-0.631h-3.465c-4.786,0-8.881-2.959-10.57-7.143h6.613
		c0.485,0,0.879-0.423,0.879-0.944v-1.419c0-0.522-0.394-0.946-0.879-0.946h-7.4c-0.026-0.318-0.039-0.639-0.039-0.963
		s0.013-0.645,0.039-0.963h7.492c0.485,0,0.879-0.424,0.879-0.945v-1.419c0-0.522-0.394-0.945-0.879-0.945h-6.705
		c1.689-4.184,5.784-7.143,10.57-7.143h3.465c0.349,0,0.631-0.283,0.631-0.631v-4.043c0-0.348-0.282-0.63-0.631-0.63
		c0,0-4.302-0.016-4.356,0c-7.363,0.386-13.464,5.552-15.278,12.448h-4.171c-0.484,0-0.878,0.423-0.878,0.945v1.419
		c0,0.521,0.394,0.945,0.878,0.945h3.646c-0.018,0.319-0.027,0.64-0.027,0.963c0,0.323,0.009,0.645,0.027,0.963h-3.738
		c-0.486,0-0.878,0.424-0.878,0.946v1.419c0,0.521,0.393,0.944,0.878,0.944h4.261c1.815,6.896,7.917,12.062,15.279,12.447
		c0.055,0.015,4.356,0,4.356,0c0.349,0,0.631-0.282,0.631-0.63V44.099z"/>
</g>
</svg>
