<?xml version="1.0" encoding="utf-8"?>
<!-- Generator: Adobe Illustrator 14.0.0, SVG Export Plug-In . SVG Version: 6.00 Build 43363)  -->
<!DOCTYPE svg PUBLIC "-//W3C//DTD SVG 1.1//EN" "http://www.w3.org/Graphics/SVG/1.1/DTD/svg11.dtd">
<svg version="1.1" id="Capa_1" xmlns="http://www.w3.org/2000/svg" xmlns:xlink="http://www.w3.org/1999/xlink" x="0px" y="0px"
	 width="64px" height="64px" viewBox="0 0 64 64" enable-background="new 0 0 64 64" xml:space="preserve">
<path fill-rule="evenodd" clip-rule="evenodd" d="M53.642,51.362h-1.108l1.679,11.751L35.757,51.362H25.112l9.114-5.806h13.518
	c5.722,0,10.359-4.64,10.359-10.362v-7.379l0.024-14.601C61.601,14.888,64,18.44,64,22.555v18.443
	C64,46.722,59.362,51.362,53.642,51.362z M40.533,40.057H27.632L10.73,51.896l1.691-11.839h-2.063C4.637,40.057,0,35.417,0,29.693
	V11.25C0,5.527,4.637,0.887,10.358,0.887h30.175c5.722,0,10.359,4.641,10.359,10.363v18.443
	C50.893,35.417,46.255,40.057,40.533,40.057z M23.56,31.424h4.518v-4.34H23.56V31.424z M31.089,10.589
	c-1.5-1.081-3.385-1.625-5.655-1.625c-1.727,0-3.183,0.381-4.367,1.145c-1.878,1.195-2.878,3.22-2.997,6.076h4.338
	c0-0.825,0.244-1.622,0.73-2.389c0.49-0.771,1.313-1.156,2.482-1.156c1.184,0,2,0.316,2.448,0.938
	c0.445,0.627,0.67,1.318,0.67,2.081c0,0.661-0.202,1.265-0.605,1.813c-0.22,0.325-0.514,0.619-0.874,0.893l-1.105,0.858
	c-1.087,0.851-1.76,1.598-2.024,2.248c-0.26,0.648-0.423,1.826-0.481,3.526h4.115c0.011-0.804,0.076-1.396,0.196-1.784
	c0.189-0.604,0.575-1.131,1.153-1.583l1.065-0.836c1.078-0.843,1.81-1.538,2.188-2.081c0.649-0.893,0.976-1.994,0.976-3.296
	C33.344,13.286,32.593,11.676,31.089,10.589z"/>
</svg>
