<?xml version="1.0" encoding="utf-8"?>
<!-- Generator: Adobe Illustrator 14.0.0, SVG Export Plug-In . SVG Version: 6.00 Build 43363)  -->
<!DOCTYPE svg PUBLIC "-//W3C//DTD SVG 1.1//EN" "http://www.w3.org/Graphics/SVG/1.1/DTD/svg11.dtd">
<svg version="1.1" id="Capa_1" xmlns="http://www.w3.org/2000/svg" xmlns:xlink="http://www.w3.org/1999/xlink" x="0px" y="0px"
	 width="64px" height="64px" viewBox="0 0 64 64" enable-background="new 0 0 64 64" xml:space="preserve">
<path fill-rule="evenodd" clip-rule="evenodd" d="M46.773,45.353h-12.74l-16.691,11.69l1.67-11.69h-2.037
	c-5.648,0-10.228-4.581-10.228-10.234V16.907c0-5.651,4.58-10.233,10.228-10.233h29.799C52.422,6.673,57,11.255,57,16.907v18.211
	C57,40.771,52.422,45.353,46.773,45.353z M30.011,36.828h4.461v-4.286h-4.461V36.828z M37.446,16.255
	c-1.48-1.068-3.342-1.605-5.583-1.605c-1.706,0-3.143,0.375-4.314,1.13c-1.853,1.181-2.841,3.18-2.959,6h4.284
	c0-0.814,0.241-1.602,0.722-2.359c0.482-0.761,1.296-1.14,2.45-1.14c1.17,0,1.976,0.312,2.418,0.927
	c0.44,0.619,0.661,1.301,0.661,2.055c0,0.653-0.199,1.249-0.597,1.789c-0.219,0.322-0.507,0.611-0.863,0.882l-1.09,0.847
	c-1.074,0.84-1.739,1.579-2,2.22c-0.256,0.642-0.418,1.804-0.477,3.483h4.065c0.012-0.795,0.075-1.379,0.192-1.762
	c0.188-0.596,0.567-1.117,1.14-1.563l1.051-0.825c1.064-0.833,1.788-1.519,2.163-2.055c0.641-0.882,0.961-1.969,0.961-3.255
	C39.671,18.917,38.931,17.328,37.446,16.255z"/>
</svg>
