<?xml version="1.0" encoding="utf-8"?>
<!-- Generator: Adobe Illustrator 14.0.0, SVG Export Plug-In . SVG Version: 6.00 Build 43363)  -->
<!DOCTYPE svg PUBLIC "-//W3C//DTD SVG 1.1//EN" "http://www.w3.org/Graphics/SVG/1.1/DTD/svg11.dtd">
<svg version="1.1" id="Capa_1" xmlns="http://www.w3.org/2000/svg" xmlns:xlink="http://www.w3.org/1999/xlink" x="0px" y="0px"
	 width="64px" height="64px" viewBox="0 0 64 64" enable-background="new 0 0 64 64" xml:space="preserve">
<path fill-rule="evenodd" clip-rule="evenodd" d="M46.897,45.493H34.159l-16.69,11.689l1.67-11.689h-2.036
	c-5.647,0-10.228-4.581-10.228-10.233V17.05c0-5.651,4.58-10.232,10.228-10.232h29.795c5.648,0,10.228,4.581,10.228,10.232v18.21
	C57.125,40.912,52.546,45.493,46.897,45.493z M46.275,17.786c0-0.959-0.777-1.737-1.735-1.737H20.234
	c-0.959,0-1.735,0.778-1.735,1.737v1.737c0,0.96,0.776,1.737,1.735,1.737H44.54c0.958,0,1.735-0.777,1.735-1.737V17.786z
	 M46.275,25.604c0-0.959-0.777-1.737-1.735-1.737H20.234c-0.959,0-1.735,0.778-1.735,1.737v1.737c0,0.959,0.776,1.737,1.735,1.737
	H44.54c0.958,0,1.735-0.778,1.735-1.737V25.604z M46.275,33.421c0-0.96-0.777-1.737-1.735-1.737H20.234
	c-0.959,0-1.735,0.777-1.735,1.737v1.737c0,0.959,0.776,1.737,1.735,1.737H44.54c0.958,0,1.735-0.778,1.735-1.737V33.421z"/>
</svg>
