<?xml version="1.0" encoding="utf-8"?>
<!-- Generator: Adobe Illustrator 14.0.0, SVG Export Plug-In . SVG Version: 6.00 Build 43363)  -->
<!DOCTYPE svg PUBLIC "-//W3C//DTD SVG 1.1//EN" "http://www.w3.org/Graphics/SVG/1.1/DTD/svg11.dtd">
<svg version="1.1" id="Capa_1" xmlns="http://www.w3.org/2000/svg" xmlns:xlink="http://www.w3.org/1999/xlink" x="0px" y="0px"
	 width="64px" height="64px" viewBox="0 0 64 64" enable-background="new 0 0 64 64" xml:space="preserve">
<path id="comment_info_2_" d="M53.643,51.35h-1.106l1.676,11.743L35.758,51.35H25.112l9.115-5.801h13.52
	c5.72,0,10.357-4.636,10.357-10.356v-7.375l0.023-14.59C61.602,14.9,64,18.449,64,22.562v18.431C64,46.71,59.363,51.35,53.643,51.35
	z M40.534,40.052h-12.9L10.729,51.883l1.691-11.831h-2.063C4.637,40.052,0,35.415,0,29.695V11.264C0,5.543,4.637,0.907,10.358,0.907
	h30.176c5.722,0,10.358,4.636,10.358,10.356v18.432C50.893,35.415,46.256,40.052,40.534,40.052z M22.068,33.311h6.607v-4.836h-6.607
	V33.311z M29.634,8.692h-8.707v6.275l1.372,11.521h5.964l1.372-11.521L29.634,8.692L29.634,8.692z"/>
</svg>
