<?xml version="1.0" encoding="utf-8"?>
<!-- Generator: Adobe Illustrator 14.0.0, SVG Export Plug-In . SVG Version: 6.00 Build 43363)  -->
<!DOCTYPE svg PUBLIC "-//W3C//DTD SVG 1.1//EN" "http://www.w3.org/Graphics/SVG/1.1/DTD/svg11.dtd">
<svg version="1.1" id="Capa_1" xmlns="http://www.w3.org/2000/svg" xmlns:xlink="http://www.w3.org/1999/xlink" x="0px" y="0px"
	 width="64px" height="64px" viewBox="0 0 64 64" enable-background="new 0 0 64 64" xml:space="preserve">
<path id="expand" fill-rule="evenodd" clip-rule="evenodd" d="M55.675,16.592L44.588,27.631l-8.556-8.517L47.119,8.075L39.011,0
	L64,0.147L63.99,24.87L55.675,16.592z M24.987,63.946L0,64l0.011-24.923l8.315,8.279l11.084-11.04l8.556,8.52L16.879,55.873
	L24.987,63.946z M19.41,27.631L8.326,16.592L0.011,24.87L0,0.147L24.987,0l-8.108,8.075l11.087,11.039L19.41,27.631z M44.588,36.316
	l11.087,11.04l8.315-8.279L64,64l-24.989-0.054l8.108-8.073L36.032,44.836L44.588,36.316z"/>
</svg>
