<?xml version="1.0" encoding="utf-8"?>
<!-- Generator: Adobe Illustrator 14.0.0, SVG Export Plug-In . SVG Version: 6.00 Build 43363)  -->
<!DOCTYPE svg PUBLIC "-//W3C//DTD SVG 1.1//EN" "http://www.w3.org/Graphics/SVG/1.1/DTD/svg11.dtd">
<svg version="1.1" id="Capa_1" xmlns="http://www.w3.org/2000/svg" xmlns:xlink="http://www.w3.org/1999/xlink" x="0px" y="0px"
	 width="64px" height="64px" viewBox="0 0 64 64" enable-background="new 0 0 64 64" xml:space="preserve">
<path id="arrow_back_4" d="M0,33.485c0.089,0.176,28.616,28.615,28.616,28.615c0.398,0.396,1.212,0.229,1.82-0.38l5.499-5.501
	c0.608-0.607,0.778-1.421,0.38-1.82L19.272,38.146h43.322c0.775,0,1.405-0.696,1.405-1.556v-7.777c0-0.859-0.63-1.555-1.405-1.555
	l-43.409-0.087l17.13-17.571c0.398-0.398,0.229-1.213-0.38-1.82l-5.499-5.5c-0.608-0.609-1.422-0.778-1.82-0.381L0,30.515
	C0.166,30.349,0,33.397,0,33.485z"/>
</svg>
