<?xml version="1.0" encoding="utf-8"?>
<!-- Generator: Adobe Illustrator 14.0.0, SVG Export Plug-In . SVG Version: 6.00 Build 43363)  -->
<!DOCTYPE svg PUBLIC "-//W3C//DTD SVG 1.1//EN" "http://www.w3.org/Graphics/SVG/1.1/DTD/svg11.dtd">
<svg version="1.1" id="Capa_1" xmlns="http://www.w3.org/2000/svg" xmlns:xlink="http://www.w3.org/1999/xlink" x="0px" y="0px"
	 width="64px" height="64px" viewBox="0 0 64 64" enable-background="new 0 0 64 64" xml:space="preserve">
<path id="turn_left" fill-rule="evenodd" clip-rule="evenodd" d="M9.266,33.737l9.268-9.267h-5.43
	c0.051-0.135,0.102-0.27,0.153-0.402c3.22-8.16,11.177-13.933,20.48-13.933c12.156,0,22.009,9.854,22.009,22.009
	c0,12.156-9.853,22.01-22.009,22.01c-8.941,0-16.635-5.332-20.08-12.988c-0.034-0.072-0.055-0.151-0.089-0.224l-5.902,5.864
	c0.04,0.07,0.068,0.147,0.108,0.218c0.007,0.015,0.017,0.03,0.026,0.045c5.209,8.996,14.939,15.049,26.083,15.049
	C50.515,62.118,64,48.634,64,32S50.515,1.882,33.883,1.882c-13.904,0-25.608,9.422-29.074,22.229
	c-0.032,0.117-0.042,0.242-0.072,0.36H0L9.266,33.737z"/>
</svg>
