<?xml version="1.0" encoding="utf-8"?>
<!-- Generator: Adobe Illustrator 14.0.0, SVG Export Plug-In . SVG Version: 6.00 Build 43363)  -->
<!DOCTYPE svg PUBLIC "-//W3C//DTD SVG 1.1//EN" "http://www.w3.org/Graphics/SVG/1.1/DTD/svg11.dtd">
<svg version="1.1" id="Capa_1" xmlns="http://www.w3.org/2000/svg" xmlns:xlink="http://www.w3.org/1999/xlink" x="0px" y="0px"
	 width="64px" height="64px" viewBox="0 0 64 64" enable-background="new 0 0 64 64" xml:space="preserve">
<path id="arrow_backward" d="M47.615,27.438c-2.896,3.687-5.975,3.786,0.083,10.37c0.264,0.264,16.1,15.352,16.1,15.352
	c0.375,0.377,0.215,1.146-0.359,1.72l-5.195,5.194c-0.572,0.572-1.344,0.734-1.719,0.359c0,0-26.947-26.863-27.03-27.029
	c0-0.082,0.156-2.963,0-2.806l27.03-27.03c0.375-0.376,1.146-0.216,1.719,0.36l5.195,5.194c0.574,0.574,0.734,1.343,0.359,1.72
	L47.615,27.438z M18.119,27.438c-2.896,3.687-5.974,3.786,0.083,10.37c0.265,0.264,16.102,15.352,16.102,15.352
	c0.375,0.377,0.214,1.146-0.36,1.72l-5.196,5.194c-0.573,0.572-1.344,0.734-1.718,0.359c0,0-26.946-26.863-27.03-27.029
	c0-0.082,0.155-2.963,0-2.806l27.029-27.03c0.374-0.376,1.145-0.216,1.718,0.36l5.196,5.194c0.573,0.574,0.734,1.343,0.359,1.72
	L18.119,27.438z"/>
</svg>
