<?xml version="1.0" encoding="utf-8"?>
<!-- Generator: Adobe Illustrator 14.0.0, SVG Export Plug-In . SVG Version: 6.00 Build 43363)  -->
<!DOCTYPE svg PUBLIC "-//W3C//DTD SVG 1.1//EN" "http://www.w3.org/Graphics/SVG/1.1/DTD/svg11.dtd">
<svg version="1.1" id="Capa_1" xmlns="http://www.w3.org/2000/svg" xmlns:xlink="http://www.w3.org/1999/xlink" x="0px" y="0px"
	 width="64px" height="64px" viewBox="0 0 64 64" enable-background="new 0 0 64 64" xml:space="preserve">
<path id="collapse" fill-rule="evenodd" clip-rule="evenodd" d="M61.399,26.053l-23.482,0.011l0.051-23.288l7.607,7.556L55.974,0
	L64,7.972L53.599,18.305L61.399,26.053z M18.428,53.668L8.026,64L0,56.027l10.401-10.33l-7.8-7.749l23.484-0.01l-0.053,23.286
	L18.428,53.668z M10.401,18.305L0,7.972L8.026,0l10.401,10.332l7.604-7.556l0.053,23.288L2.601,26.053L10.401,18.305z
	 M53.599,45.697L64,56.027L55.974,64L45.575,53.668l-7.607,7.557l-0.051-23.286l23.482,0.01L53.599,45.697z"/>
</svg>
