<?xml version="1.0" encoding="utf-8"?>
<!-- Generator: Adobe Illustrator 14.0.0, SVG Export Plug-In . SVG Version: 6.00 Build 43363)  -->
<!DOCTYPE svg PUBLIC "-//W3C//DTD SVG 1.1//EN" "http://www.w3.org/Graphics/SVG/1.1/DTD/svg11.dtd">
<svg version="1.1" id="Capa_1" xmlns="http://www.w3.org/2000/svg" xmlns:xlink="http://www.w3.org/1999/xlink" x="0px" y="0px"
	 width="64px" height="64px" viewBox="0 0 64 64" enable-background="new 0 0 64 64" xml:space="preserve">
<path id="resend" d="M63.198,48.225L44.901,63.201c-1.067,1.065-2.8,1.065-3.868,0v-7.826H29.438V36.846h11.595v-7.457
	c1.068-1.066,2.801-1.066,3.869,0l18.296,14.977C64.267,45.431,64.268,47.159,63.198,48.225z M22.967,34.611
	c-1.068,1.065-2.801,1.065-3.869,0L0.802,19.634c-1.069-1.065-1.068-2.792,0-3.857L19.098,0.799c1.068-1.066,2.801-1.066,3.869,0
	v7.457h11.594v18.53H22.967V34.611z"/>
</svg>
