<?xml version="1.0" encoding="utf-8"?>
<!-- Generator: Adobe Illustrator 14.0.0, SVG Export Plug-In . SVG Version: 6.00 Build 43363)  -->
<!DOCTYPE svg PUBLIC "-//W3C//DTD SVG 1.1//EN" "http://www.w3.org/Graphics/SVG/1.1/DTD/svg11.dtd">
<svg version="1.1" id="Capa_1" xmlns="http://www.w3.org/2000/svg" xmlns:xlink="http://www.w3.org/1999/xlink" x="0px" y="0px"
	 width="64px" height="64px" viewBox="0 0 64 64" enable-background="new 0 0 64 64" xml:space="preserve">
<path id="resend_4" d="M36.013,60.768h-13.5V64l-8.449-7.416l8.449-7.415v3.232h13.5c6.27,0,11.353-5.081,11.353-11.349
	c0-6.271-5.083-11.351-11.353-11.351v-8.366c10.891,0,19.718,8.827,19.718,19.717C55.73,51.94,46.903,60.768,36.013,60.768z
	 M41.488,11.598H27.986c-6.268,0-11.352,5.081-11.352,11.349c0,6.27,5.083,11.351,11.352,11.351v8.367
	c-10.89,0-19.717-8.828-19.717-19.718C8.27,12.06,17.096,3.23,27.986,3.23h13.502V0l8.448,7.415l-8.448,7.417V11.598z"/>
</svg>
